<?xml version="1.0" encoding="UTF-8"?>
<!DOCTYPE svg PUBLIC "-//W3C//DTD SVG 1.1//EN" "http://www.w3.org/Graphics/SVG/1.1/DTD/svg11.dtd">
<!-- Creator: CorelDRAW X8 -->
<svg xmlns="http://www.w3.org/2000/svg" xml:space="preserve" width="157.684mm" height="250.823mm" version="1.1" style="shape-rendering:geometricPrecision; text-rendering:geometricPrecision; image-rendering:optimizeQuality; fill-rule:evenodd; clip-rule:evenodd"
viewBox="0 0 94 149"
 xmlns:xlink="http://www.w3.org/1999/xlink">
 <defs>
  <style type="text/css">
   <![CDATA[
    .fil0 {fill:#00B4CC}
    .fil1 {fill:#FEFEFE;fill-rule:nonzero}
   ]]>
  </style>
 </defs>
 <g id="图层_x0020_1">
  <metadata id="CorelCorpID_0Corel-Layer"/>
  <path class="fil0" d="M7 0l79 0c4,0 8,3 8,7l0 135c0,4 -4,7 -8,7l-79 0c-4,0 -7,-3 -7,-7l0 -135c0,-4 3,-7 7,-7z"/>
  <path class="fil1" d="M44 90c0,0 0,1 0,1 0,0 0,0 -1,0l-20 0c0,0 0,0 0,0 -1,0 -1,-1 -1,-1l0 -1c0,0 0,0 1,-1 0,0 0,0 0,0l8 0c0,0 0,0 0,0 1,-1 1,-1 1,-1l0 -3c0,0 0,0 -1,0 0,-1 0,-1 0,-1l-8 0c0,0 0,0 0,0 -1,0 -1,-1 -1,-1l0 -1c0,0 0,0 1,-1 0,0 0,0 0,0l8 0c0,0 0,0 0,0 1,0 1,-1 1,-1l0 0c0,-1 0,-1 0,-1 0,0 1,-1 1,-1l1 0c0,0 0,1 0,1 1,0 1,0 1,1l0 0c0,0 0,1 0,1 0,0 1,0 1,0l7 0c1,0 1,0 1,0 0,1 0,1 0,1l0 1c0,0 0,1 0,1 0,0 0,0 -1,0l-7 0c0,0 -1,0 -1,1 0,0 0,0 0,0l0 3c0,0 0,0 0,1 0,0 1,0 1,0l7 0c1,0 1,0 1,0 0,1 0,1 0,1l0 1zm-18 -16c0,0 0,0 1,0 0,-1 1,-1 1,-1l1 0c0,0 0,-1 0,-1 0,0 0,0 0,0l-5 -3c0,0 -1,0 -1,0 0,-1 0,-1 0,-1l0 -2c0,0 0,0 0,-1 0,0 1,0 1,0l1 0c0,0 0,0 1,0 0,1 0,1 0,1 0,0 0,1 0,1 0,0 1,0 1,0l5 3c0,0 1,0 1,0 1,0 1,0 1,0l6 -3c0,0 0,0 0,0 1,-1 1,-1 1,-1l0 -1c0,0 0,-1 -1,-1 0,0 0,0 0,0l-16 0c0,0 -1,0 -1,-1 0,0 0,0 0,0l0 -1c0,0 0,-1 0,-1 0,0 1,0 1,0l19 0c0,0 0,0 0,0 1,0 1,1 1,1l0 6c0,0 0,0 -1,1 0,0 0,0 0,0l-5 3c-1,0 -1,1 0,1l0 0c1,0 1,1 1,1 1,0 1,0 2,0l2 0c0,0 1,0 1,0 0,0 0,1 0,1l0 1c0,0 0,0 0,1 0,0 -1,0 -1,0l-3 0c0,0 -1,0 -1,0 -1,0 -1,-1 -1,-1l-4 -1c0,-1 0,-1 -1,-1 0,0 -1,0 -1,1l-3 1c-1,0 -1,1 -1,1 -1,0 -1,0 -2,0l-3 0c0,0 0,0 0,-1 -1,0 -1,0 -1,0l0 -1c0,0 0,-1 1,-1 0,0 0,0 0,0l3 0zm36 -6c1,0 1,0 1,1 0,0 0,0 0,0l0 13c0,0 0,1 1,1 0,0 0,0 0,0 0,0 0,0 1,0 0,0 0,-1 0,-1l0 -16c0,0 0,0 -1,-1 0,0 0,0 0,0l-3 0c-1,0 -1,0 -1,0 0,-1 0,-1 0,-1l0 -1c0,0 0,-1 0,-1 0,0 0,0 1,0l6 0c0,0 1,0 1,0 0,0 0,-1 0,-1 0,0 0,0 1,0 0,0 0,0 0,0l1 0c0,0 1,0 1,0 0,0 0,1 0,1l0 2c0,0 0,0 0,1 0,0 -1,0 -1,0l-1 0c0,0 -1,0 -1,0 0,1 0,1 0,1l0 4c0,0 0,0 0,1 0,0 1,0 1,0l1 0c0,0 1,0 1,0 0,0 0,1 0,1l0 1c0,0 0,0 0,1 0,0 -1,0 -1,0l-1 0c0,0 -1,0 -1,0 0,1 0,1 0,1l0 7c0,0 0,1 0,1 0,0 1,0 1,0l1 0c0,0 1,0 1,1 0,0 0,0 0,0l0 1c0,0 0,1 0,1 0,0 -1,0 -1,0l-9 0c-1,0 -1,0 -1,0 0,0 0,-1 0,-1l0 -1c0,0 0,0 0,0 0,-1 0,-1 0,-1 0,0 0,0 0,0 1,0 1,-1 1,-1l0 -13c0,0 0,0 0,0 0,-1 0,-1 1,-1l0 0zm-7 20c0,0 0,0 0,0 0,0 0,0 0,0 0,0 0,-1 0,-1l0 -8c0,0 0,-1 0,-1 0,0 0,0 0,0 0,0 0,0 0,-1 -1,0 -1,0 -1,0l0 -1c0,-1 0,-1 1,-1 0,0 0,0 0,0 0,0 0,0 0,-1 0,0 0,0 0,0l0 -9c0,0 0,-1 0,-1 0,0 0,0 0,0 0,0 0,0 0,-1 -1,0 -1,0 -1,0l0 -1c0,0 0,-1 1,-1 0,0 0,0 1,0l1 0c1,0 1,0 1,0 0,0 0,1 0,1l0 12c0,0 0,1 0,1 0,0 0,1 0,1 0,0 0,0 0,0 0,0 0,1 0,1 0,0 0,0 0,0 0,1 0,1 0,1l0 6c0,0 0,1 1,1 0,0 0,1 0,1l1 1c0,0 1,1 1,1 0,0 1,0 1,0l8 0c0,0 1,0 1,0 0,1 0,1 0,1l0 1c0,0 0,1 0,1 0,0 -1,0 -1,0l-9 0c0,0 -1,0 -1,0 -1,0 -1,0 -1,-1l0 0c0,0 -1,0 -1,0 0,0 -1,0 -1,0l0 0c0,1 -1,1 -1,1 0,0 -1,0 -1,0 0,0 0,0 0,0 -1,0 -1,-1 -1,-1l0 -1c0,0 0,0 1,-1zm-5 0c0,0 0,0 0,0 0,0 0,-1 0,-1l0 -16c0,-1 0,-1 0,-1 0,0 0,0 0,0 0,0 0,-1 -1,-1 0,0 0,0 0,-1l0 0c0,-1 0,-1 1,-1 0,0 0,0 0,0l2 0c1,0 1,0 1,0 0,0 0,0 0,1l0 22c0,0 0,1 0,1 0,0 0,0 -1,0l-2 0c0,0 0,0 0,0 -1,0 -1,-1 -1,-1l0 -1c0,0 0,0 0,-1 1,0 1,0 1,0zm3 -26c0,1 0,1 0,1 0,1 0,1 0,1l-1 1c0,0 0,0 0,0 -1,0 -1,0 -1,0l-1 -1c0,0 0,0 0,-1 0,0 0,0 0,-1l1 0c0,0 0,-1 1,-1 0,0 0,1 0,1l1 0z"/>
 </g>
</svg>
