<?xml version="1.0" encoding="UTF-8"?>
<!DOCTYPE svg PUBLIC "-//W3C//DTD SVG 1.1//EN" "http://www.w3.org/Graphics/SVG/1.1/DTD/svg11.dtd">
<!-- Creator: CorelDRAW X8 -->
<svg xmlns="http://www.w3.org/2000/svg" xml:space="preserve" width="151.586mm" height="240.675mm" version="1.1" style="shape-rendering:geometricPrecision; text-rendering:geometricPrecision; image-rendering:optimizeQuality; fill-rule:evenodd; clip-rule:evenodd"
viewBox="0 0 85 135"
 xmlns:xlink="http://www.w3.org/1999/xlink">
 <defs>
  <style type="text/css">
   <![CDATA[
    .fil0 {fill:#FEB079}
    .fil1 {fill:#FEFEFE;fill-rule:nonzero}
   ]]>
  </style>
 </defs>
 <g id="图层_x0020_1">
  <metadata id="CorelCorpID_0Corel-Layer"/>
  <path class="fil0" d="M7 0l71 0c4,0 7,3 7,7l0 121c0,4 -3,7 -7,7l-71 0c-4,0 -7,-3 -7,-7l0 -121c0,-4 3,-7 7,-7z"/>
  <path class="fil1" d="M21 55l6 0c0,0 0,0 0,0 1,0 1,1 1,1l0 25c0,1 0,1 -1,1 0,0 0,0 0,0l-6 0c0,0 0,0 0,0 -1,0 -1,0 -1,-1l0 -25c0,0 0,-1 1,-1 0,0 0,0 0,0zm19 26c0,1 0,1 0,1 0,0 -1,0 -1,0l-9 0c-1,0 -1,0 -1,0 0,0 0,0 0,-1l0 -12c0,0 0,0 0,0 0,-1 0,-1 1,-1l9 0c0,0 1,0 1,1 0,0 0,0 0,0l0 12zm-10 -26l9 0c0,0 1,0 1,0 0,0 0,1 0,1l0 10c0,0 0,1 0,1 0,0 -1,0 -1,0l-9 0c-1,0 -1,0 -1,0 0,0 0,-1 0,-1l0 -10c0,0 0,-1 0,-1 0,0 0,0 1,0zm-6 3c0,0 -1,0 -1,0 0,0 0,0 0,1l0 20c0,0 0,0 0,0 0,1 1,1 1,1 0,0 0,0 1,-1 0,0 0,0 0,0l0 -20c0,-1 0,-1 0,-1 -1,0 -1,0 -1,0zm8 13c0,0 0,0 0,0 -1,1 -1,1 -1,1l0 1c0,0 0,0 1,1 0,0 0,0 0,0l4 0c1,0 1,0 1,0 0,-1 0,-1 0,-1l0 -1c0,0 0,0 0,-1 0,0 0,0 -1,0l-4 0zm4 9c1,0 1,0 1,-1 0,0 0,0 0,0l0 -1c0,0 0,-1 0,-1 0,0 0,0 -1,0l-4 0c0,0 0,0 0,0 -1,0 -1,1 -1,1l0 1c0,0 0,0 1,0 0,1 0,1 0,1l4 0zm-4 -22c0,0 0,0 0,0 -1,0 -1,0 -1,1 0,0 0,0 1,0 0,1 0,1 0,1l4 0c1,0 1,0 1,-1 0,0 0,0 0,0 0,-1 0,-1 0,-1 0,0 0,0 -1,0l-4 0zm4 6c1,0 1,0 1,0 0,0 0,0 0,-1 0,0 0,0 0,0 0,0 0,-1 -1,-1l-4 0c0,0 0,1 0,1 -1,0 -1,0 -1,0 0,1 0,1 1,1 0,0 0,0 0,0l4 0zm18 7l0 10c0,1 0,1 0,1 0,0 0,0 -1,0l-6 0c0,0 0,0 -1,0 0,0 0,0 0,-1l0 0c0,-1 0,-1 0,-1 1,0 1,0 1,0l4 0c0,0 0,-1 1,-1 0,0 0,0 0,0l0 -8c0,0 0,0 0,0 -1,-1 -1,-1 -1,-1l-5 0c-1,0 -1,0 -1,0 0,0 0,-1 0,-1l0 -1c0,0 0,0 0,0 0,0 0,-1 1,-1l5 0c0,0 0,0 1,0 0,0 0,0 0,-1l0 -7c0,-1 0,-1 0,-1 -1,0 -1,0 -1,0l-5 0c-1,0 -1,0 -1,-1 0,0 0,0 0,0l0 -1c0,0 0,-1 0,-1 0,0 0,0 1,0l8 0c0,0 1,0 1,0 0,0 0,1 0,1l0 1c0,0 0,0 0,0 0,1 0,1 0,1 0,0 0,0 0,0 -1,0 -1,0 -1,1l0 7c0,1 0,1 1,1 0,0 0,0 0,0 0,0 0,1 0,1 0,0 0,0 0,0l0 1c0,0 0,1 0,1 0,0 0,0 0,0 0,0 0,0 0,1 -1,0 -1,0 -1,0zm1 10c0,-1 0,-1 0,-1 0,0 1,0 1,0 0,0 0,-1 0,-1 0,0 1,0 1,0l2 -8c0,0 0,0 0,-1 0,0 0,0 0,-1l0 -6c0,0 0,-1 0,-1 1,0 1,0 1,0l0 0c0,0 1,0 1,0 0,0 0,1 0,1l0 6c0,1 0,1 0,1 0,1 0,1 1,1l1 8c0,0 0,0 1,0 0,0 0,1 0,1 0,0 0,0 0,0 0,0 1,0 1,1l0 0c0,1 -1,1 -1,1 0,0 0,0 -1,0l0 0c-1,0 -1,0 -1,0 0,0 -1,0 -1,-1l-1 -4c0,0 0,-1 0,-1 0,0 0,1 0,1l-2 4c0,1 0,1 0,1 0,0 -1,0 -1,0l-1 0c0,0 0,0 0,0 -1,0 -1,0 -1,-1l0 0zm2 -26c1,0 1,0 1,0 0,0 1,1 1,1 0,0 0,0 0,1 0,0 0,0 1,0l3 0c1,0 1,0 1,0 0,0 1,1 1,1l0 11c0,0 -1,1 -1,1 0,0 0,0 -1,0l0 0c0,0 0,0 0,0 -1,0 -1,-1 -1,-1l0 -8c0,-1 0,-1 0,-1 0,0 0,0 -1,0l-4 0c0,0 0,0 -1,-1 0,0 0,0 0,0l0 -3c0,0 0,-1 0,-1 1,0 1,0 1,0l0 0zm-6 5l0 6c0,0 0,0 0,0 -1,0 -1,1 -1,1l-4 0c0,0 -1,-1 -1,-1 0,0 0,0 0,-1l0 -5c0,0 0,0 0,-1 0,0 1,0 1,0l4 0c0,0 0,0 1,0 0,1 0,1 0,1zm0 18c0,0 0,0 0,0 -1,1 -1,1 -1,1l-4 0c0,0 -1,0 -1,-1 0,0 0,0 0,0l0 -6c0,0 0,0 0,0 0,-1 1,-1 1,-1l4 0c0,0 0,0 1,1 0,0 0,0 0,0l0 6zm-2 -15c0,-1 0,-1 -1,-1 0,0 0,0 0,0 0,0 0,0 -1,0 0,0 0,0 0,1l0 0c0,0 0,1 0,1 1,0 1,0 1,0 0,0 0,0 0,0 1,0 1,-1 1,-1l0 0zm0 12c0,0 0,-1 -1,-1 0,0 0,0 0,0 0,0 0,0 -1,0 0,0 0,1 0,1l0 0c0,0 0,1 0,1 1,0 1,0 1,0 0,0 0,0 0,0 1,0 1,-1 1,-1l0 0z"/>
 </g>
</svg>
