<?xml version="1.0" encoding="UTF-8"?>
<!DOCTYPE svg PUBLIC "-//W3C//DTD SVG 1.1//EN" "http://www.w3.org/Graphics/SVG/1.1/DTD/svg11.dtd">
<!-- Creator: CorelDRAW X8 -->
<svg xmlns="http://www.w3.org/2000/svg" xml:space="preserve" width="188.101mm" height="78.473mm" version="1.1" style="shape-rendering:geometricPrecision; text-rendering:geometricPrecision; image-rendering:optimizeQuality; fill-rule:evenodd; clip-rule:evenodd"
viewBox="0 0 116 48"
 xmlns:xlink="http://www.w3.org/1999/xlink">
 <defs>
  <style type="text/css">
   <![CDATA[
    .fil0 {fill:#C2E105}
    .fil1 {fill:#FEFEFE;fill-rule:nonzero}
   ]]>
  </style>
 </defs>
 <g id="图层_x0020_1">
  <metadata id="CorelCorpID_0Corel-Layer"/>
  <path class="fil0" d="M4 0l108 0c2,0 4,2 4,4l0 41c0,2 -2,3 -4,3l-108 0c-2,0 -4,-1 -4,-3l0 -41c0,-2 2,-4 4,-4z"/>
  <path class="fil1" d="M15 31c-1,0 -1,0 -1,-1 -1,0 -1,0 -1,-1l0 -19c0,0 1,-1 1,-1 0,-1 1,-1 1,-1l4 0c4,0 6,1 8,3 2,2 3,5 3,8 0,4 -1,7 -3,9 -2,2 -4,3 -8,3l-3 0 -1 0zm2 -3l2 0c2,0 4,-1 6,-2 1,-2 1,-4 1,-7 0,-5 -2,-8 -7,-8l-2 0 0 9 0 8zm20 3c-2,0 -4,-1 -6,-2 0,-1 0,-2 1,-2 0,-1 1,-1 1,-1 0,1 1,1 1,1 1,1 2,1 3,1 1,0 2,0 2,-1 1,-1 1,-2 1,-3l0 -14c0,-1 1,-2 2,-2 1,0 2,1 2,2l0 6 0 8c0,2 -1,4 -2,5 -1,2 -3,2 -5,2zm14 0c-1,0 -1,-1 -1,-2l0 -7 -1 1c-1,0 -1,0 -2,-1 0,0 0,-1 1,-1l2 -2 2 0c0,0 0,0 0,1 0,0 0,0 0,0l0 5 0 4c0,1 0,2 -1,2z"/>
  <path class="fil1" d="M79 37c0,0 0,1 0,1 0,0 0,0 0,0l-1 0c0,1 0,1 0,1 0,0 0,0 0,0l-8 0c0,0 -1,0 -1,0 0,0 0,-1 0,-1l0 -2c0,0 0,-1 0,-1 0,0 1,0 1,0l9 0c0,0 0,0 0,0 0,0 0,1 0,1l0 1zm0 7c0,0 0,1 0,1 0,0 0,0 0,0l-1 0c-1,0 -1,0 -1,0 0,0 0,0 0,0l-1 -1c0,0 0,0 0,0 0,0 0,-1 0,-1l0 0c0,0 0,0 0,0 0,0 0,-1 -1,-1l-2 0c0,0 0,1 -1,1 0,0 0,0 0,0l0 0c0,0 0,1 0,1 0,0 0,0 0,0l0 1c-1,0 -1,0 -1,0 0,0 0,0 0,0l-1 0c0,0 -1,0 -1,0 0,0 0,-1 0,-1l0 0c0,0 0,0 0,0 0,0 1,-1 1,-1l0 0c1,0 1,0 1,0 0,0 0,0 0,0l0 -2c0,0 0,0 0,0 0,0 0,0 0,0l6 0c0,0 0,0 0,0 0,0 0,0 0,0l0 2c0,0 0,0 1,0 0,0 0,0 0,0l1 0c0,0 0,1 0,1 0,0 0,0 0,0l0 0zm0 -2c0,0 0,0 0,0 0,0 0,0 0,0l-1 0c0,0 0,0 0,0 0,0 0,0 0,0l0 -1c0,0 0,0 0,0 0,0 -1,0 -1,0l-6 0c0,0 0,0 0,0 0,0 0,0 0,0l0 1c0,0 0,0 -1,0 0,0 0,0 0,0l0 0c0,0 -1,0 -1,0 0,0 0,0 0,0l0 -2c0,0 0,0 0,-1 0,0 1,0 1,0l9 0c0,0 0,0 0,0 0,1 0,1 0,1l0 2zm0 -8c0,0 0,0 0,1 0,0 0,0 0,0l-9 0c0,0 -1,0 -1,0 0,-1 0,-1 0,-1l0 0c0,0 0,0 0,0 0,-1 1,-1 1,-1l9 0c0,0 0,0 0,1 0,0 0,0 0,0l0 0zm0 -3c0,1 0,1 0,1 0,0 0,0 0,0l-1 0c0,1 0,1 0,1 0,0 0,0 0,0l-8 0c0,0 -1,0 -1,0 0,0 0,-1 0,-1l0 0c0,0 0,0 0,0 0,0 1,0 1,0l7 0c0,0 1,0 1,-1 0,0 0,0 0,0 0,0 0,0 0,0 0,0 0,0 0,0l1 0c0,0 0,0 0,0 0,0 0,0 0,0zm-2 7c0,0 1,0 1,-1 0,0 0,0 0,0l0 0c0,0 0,0 0,0 0,0 -1,-1 -1,-1l-6 0c0,0 0,1 0,1 0,0 0,0 0,0l0 0c0,0 0,0 0,0 0,1 0,1 0,1l6 0zm4 6c0,0 1,0 1,0 0,0 0,0 0,0 0,0 0,-1 0,-1 0,0 0,0 0,0l0 0c0,0 0,-1 0,-1 0,0 1,0 1,0l0 0c0,0 0,0 0,0 1,0 1,1 1,1l0 0c0,0 0,1 -1,1 0,0 0,0 0,0l0 1c0,0 0,0 -1,0 0,0 0,0 0,0 0,0 0,0 0,0 0,0 -1,-1 -1,-1l0 0zm9 -2c0,0 0,0 1,0 0,0 0,1 0,1l0 0c0,0 0,0 0,0 0,0 0,1 0,1 0,0 0,0 0,0 0,0 0,0 0,0l0 0c0,0 0,1 0,1 0,0 0,0 0,0 0,0 0,0 -1,0 0,0 0,0 0,0l0 -1c0,0 0,0 -1,0 0,0 0,-1 0,-1l0 0c0,0 0,-1 0,-1 1,0 1,0 1,0l0 0zm-9 -1c0,0 1,0 1,-1 0,0 0,0 0,0l0 0c0,0 0,0 0,0 0,-1 0,-1 0,-1 0,0 0,0 0,0 0,0 -1,0 -1,0l0 -1c0,0 1,0 1,0 0,0 0,0 0,0l0 0c0,0 0,-1 0,-1 0,0 0,0 0,0 0,0 0,0 0,0 0,0 -1,0 -1,0l0 -1c0,0 1,0 1,0 0,0 0,0 0,0l3 0c0,0 1,0 1,0 0,0 0,0 0,-1 0,0 0,0 0,0 0,0 -1,0 -1,0l-3 0c0,0 0,0 0,0 0,0 -1,0 -1,0l0 -1c0,0 1,0 1,0 0,0 0,0 0,0l3 0c0,0 1,0 1,0 0,0 0,0 0,-1 0,0 0,0 0,0 0,0 -1,0 -1,0l-3 0c0,0 0,0 0,0 0,0 -1,0 -1,0l0 -1c0,0 1,0 1,0 0,0 0,0 0,0l3 0c0,0 1,0 1,0 0,0 0,-1 0,-1 0,0 0,0 0,0 0,0 0,0 0,0l1 0c0,0 0,0 0,0 0,0 0,0 0,0 0,0 0,1 0,1 0,0 1,0 1,0l3 0c0,0 0,0 0,0 0,0 0,0 0,0l0 1c0,0 0,0 0,0 0,0 0,0 0,0l-3 0c0,0 -1,0 -1,0 0,0 0,0 0,0 0,1 0,1 0,1 0,0 1,0 1,0l3 0c0,0 0,0 0,0 0,0 0,0 0,0l0 1c0,0 0,0 0,0 0,0 0,0 0,0l-3 0c0,0 -1,0 -1,0 0,0 0,0 0,0 0,1 0,1 0,1 0,0 1,0 1,0l3 0c0,0 0,0 0,0 0,0 0,0 0,0l0 1c0,0 0,0 0,0 0,0 0,0 0,0l-7 0c0,0 0,0 0,0 -1,0 -1,1 -1,1l0 0c0,0 0,0 0,0 0,0 0,0 0,0l8 0c0,0 0,0 0,0 0,0 0,0 0,1l0 0c0,0 0,0 0,0 0,0 0,0 0,0l-7 0c0,0 0,0 0,1 0,0 0,0 -1,0l0 0c0,0 0,0 0,0 0,0 0,0 0,0l7 0c0,0 0,0 0,0 0,0 0,0 0,0 0,0 0,0 0,0 0,0 0,0 1,0l0 0c0,0 0,0 0,0 0,0 0,0 0,0 0,0 0,0 0,1 0,0 0,0 0,0l0 0c0,0 -1,0 -1,1 0,0 0,0 0,0l-2 0c0,0 0,0 -1,0 0,0 0,0 0,0l0 1c0,0 0,1 0,1 0,0 0,0 0,0l0 1c-1,0 -1,0 -1,0 0,0 0,0 0,0l-1 0c0,0 0,0 0,0 0,0 -1,-1 -1,-1l0 0c0,0 1,0 1,0 0,0 0,-1 0,-1l0 0c1,0 1,0 1,0 0,0 0,0 0,0l0 -1c0,0 0,0 0,0 0,0 0,0 -1,0l-3 0c0,0 0,0 0,-1 0,0 -1,0 -1,0l0 0zm20 -7c0,0 0,0 0,1 0,0 0,0 0,0l-1 9c0,1 0,1 0,1 0,0 -1,0 -1,0l0 0c0,0 -1,0 -1,0 0,0 0,0 0,-1l0 0c0,0 0,0 0,0 0,0 0,-1 0,-1 0,0 1,0 1,0 0,0 0,0 0,0l1 -8c0,0 0,0 0,0 0,-1 0,-1 0,-1l1 0zm2 -2c0,0 0,0 0,0 0,0 0,0 1,0 0,0 0,0 0,1 0,0 0,0 0,0l0 0c0,0 0,1 0,1 0,0 0,0 0,0 -1,0 -1,0 -1,0 0,0 0,0 0,0l0 10c0,0 0,1 0,1 0,0 0,0 0,0l-2 0c0,0 0,0 0,0 0,0 0,0 0,-1l0 0c0,0 0,0 0,0 0,0 0,-1 0,-1l0 0c0,0 1,0 1,0 0,0 0,0 0,0l0 -9c0,0 0,0 0,0 0,0 -1,0 -1,0l-2 0c0,0 -1,0 -1,0 0,0 0,-1 0,-1l0 0c0,0 0,0 0,0 0,-1 1,-1 1,-1l2 0c0,0 1,0 1,0 0,0 0,0 0,0l0 0c0,0 0,-1 0,-1 0,0 0,0 0,0l1 0c0,0 0,0 0,0 0,0 0,1 0,1l0 0zm-6 -1c0,0 0,0 0,1 0,0 0,0 0,0 0,0 0,0 0,0 0,0 1,0 1,0 0,0 0,0 0,0l0 1c0,0 0,0 0,0 0,0 -1,0 -1,0 0,0 0,0 0,0 0,1 0,1 0,1l0 0c0,0 0,0 0,0 0,0 0,0 0,0 0,0 1,1 1,1 0,0 0,0 0,0l0 0c0,0 0,1 0,1 0,0 -1,0 -1,0 0,0 0,0 0,0 0,0 0,0 0,0l0 8c0,0 0,1 0,1 0,0 0,0 0,0l-1 0c0,0 0,0 0,0 0,0 0,-1 0,-1l0 -8c0,0 0,0 0,0 0,0 0,0 -1,0 0,0 0,0 0,0 0,0 0,0 0,0l0 8c0,0 0,1 0,1 0,0 0,0 0,0l-1 0c0,0 0,0 0,0 0,0 0,-1 0,-1l0 -9c0,0 0,0 0,0 0,0 0,-1 0,-1l1 0c0,0 1,0 1,0 0,0 0,0 0,0l0 0c0,0 0,0 0,-1 0,0 -1,0 -1,0l-1 0c0,0 0,0 0,0 0,0 0,0 0,0l0 -1c0,0 0,0 0,0 0,0 0,0 0,0l1 0c0,0 1,0 1,0 0,0 0,0 0,0 0,-1 0,-1 0,-1 0,0 0,0 0,0l1 0c0,0 0,0 0,0z"/>
 </g>
</svg>
