<?xml version="1.0" encoding="UTF-8"?>
<!DOCTYPE svg PUBLIC "-//W3C//DTD SVG 1.1//EN" "http://www.w3.org/Graphics/SVG/1.1/DTD/svg11.dtd">
<!-- Creator: CorelDRAW X8 -->
<svg xmlns="http://www.w3.org/2000/svg" xml:space="preserve" width="188.101mm" height="78.473mm" version="1.1" style="shape-rendering:geometricPrecision; text-rendering:geometricPrecision; image-rendering:optimizeQuality; fill-rule:evenodd; clip-rule:evenodd"
viewBox="0 0 114 48"
 xmlns:xlink="http://www.w3.org/1999/xlink">
 <defs>
  <style type="text/css">
   <![CDATA[
    .fil0 {fill:#C2E105}
    .fil1 {fill:#FEFEFE;fill-rule:nonzero}
   ]]>
  </style>
 </defs>
 <g id="图层_x0020_1">
  <metadata id="CorelCorpID_0Corel-Layer"/>
  <path class="fil0" d="M4 0l106 0c2,0 4,2 4,4l0 40c0,2 -2,4 -4,4l-106 0c-2,0 -4,-2 -4,-4l0 -40c0,-2 2,-4 4,-4z"/>
  <path class="fil1" d="M17 30c-1,0 -1,0 -1,0 -1,0 -1,0 -1,-1l0 -19c0,0 0,-1 1,-1 0,-1 1,-1 1,-1l4 0c3,0 6,1 8,3 2,2 3,5 3,8 0,4 -1,7 -3,9 -2,1 -5,2 -8,2l-3 0 -1 0zm2 -2l2 0c2,0 4,-1 5,-3 1,-1 2,-3 2,-6 0,-5 -2,-8 -7,-8l-2 0 0 8 0 9zm20 3c-3,0 -5,-1 -6,-3 -1,0 0,-1 0,-2 1,0 1,0 2,0 0,0 0,0 1,1 0,1 1,1 2,1 1,0 2,-1 3,-1 0,-1 1,-2 1,-4l0 -13c0,-1 0,-2 1,-2 1,0 2,1 2,2l0 6 0 8c0,2 0,3 -1,5 -2,1 -3,2 -5,2zm10 -1c0,0 -1,0 -1,0 0,0 0,0 0,0l0 -1c0,0 0,0 0,-1 2,-1 3,-2 3,-3 1,-1 2,-2 2,-2 0,-1 -1,-1 -1,-2 0,0 0,0 -1,0 0,0 -1,0 -1,0 -1,1 -1,1 -2,0 0,0 0,0 0,0 0,-1 0,-1 1,-1 0,-1 1,-1 2,-1 2,0 2,0 3,1 1,1 1,1 1,3 0,1 -1,3 -3,5 1,0 1,0 2,0l1 0c0,0 1,1 1,1 0,1 -1,1 -1,1l-3 0 -3 0z"/>
  <path class="fil1" d="M67 31c0,0 0,0 0,0 1,0 1,0 1,0l2 0c1,0 1,0 1,0 0,0 0,0 0,0l0 13c0,0 0,0 0,0 0,0 0,0 -1,0l-2 0c0,0 0,0 -1,0 0,0 0,0 0,0l0 -13zm10 13c0,0 0,0 0,0 0,0 0,0 0,0l-5 0c0,0 0,0 -1,0 0,0 0,0 0,0l0 -5c0,0 0,0 0,-1 1,0 1,0 1,0l5 0c0,0 0,0 0,0 0,1 0,1 0,1l0 5zm0 -9c0,0 0,0 0,0 0,0 -1,0 -1,0l0 1c0,0 1,0 1,0 0,0 0,0 0,0 0,0 0,0 0,1 0,0 0,0 0,0l0 0c0,0 0,1 0,1 0,0 0,0 0,0l-5 0c0,0 0,0 -1,0 0,0 0,-1 0,-1l0 0c0,0 0,0 0,0 1,-1 1,-1 1,-1 0,0 0,0 0,0 0,0 0,0 0,0l0 -1c0,0 0,0 0,0 0,0 0,0 0,0 0,0 0,0 -1,0 0,-1 0,-1 0,-1l0 0c0,0 0,0 0,-1 1,0 1,0 1,0l5 0c0,0 0,0 0,0 0,1 0,1 0,1l0 0c0,0 0,0 0,1 0,0 0,0 0,0zm-6 -3c0,0 0,0 0,0 1,-1 1,-1 1,-1l3 0c0,0 1,0 1,0 0,0 0,0 0,0 0,0 0,0 0,0 0,0 0,0 0,0l1 0c0,0 0,0 0,0 0,0 0,0 0,0l0 1c0,0 0,1 0,1 0,0 0,0 0,0l-5 0c0,0 0,0 -1,0 0,0 0,-1 0,-1l0 0zm-2 11c0,0 0,0 0,0 0,0 0,0 0,0 0,0 1,0 1,-1l0 -3c0,0 -1,-1 -1,-1 0,0 0,0 0,0 0,0 0,0 0,0 0,0 0,1 0,1l0 3c0,1 0,1 0,1zm0 -11c0,0 0,0 0,0 0,0 0,0 0,0 0,0 0,0 0,1l0 3c0,0 0,1 0,1 0,0 0,0 0,0 0,0 0,0 0,0 0,0 1,-1 1,-1l0 -3c0,-1 -1,-1 -1,-1zm4 8c0,0 0,0 0,0 0,0 0,0 0,0 0,0 0,0 0,1 0,0 0,0 0,0l2 0c0,0 1,0 1,0 0,-1 0,-1 0,-1 0,0 0,0 0,0 0,0 -1,0 -1,0l-2 0zm2 -5c0,0 0,0 0,0 0,0 0,0 0,0l-1 0c0,0 0,0 0,0 -1,0 -1,0 -1,0l0 1c0,0 0,0 1,0 0,0 0,0 0,0l1 0c0,0 0,0 0,0 0,0 0,0 0,0l0 -1zm0 8c0,0 1,0 1,0 0,0 0,0 0,-1 0,0 0,0 0,0 0,0 -1,0 -1,0l-2 0c0,0 0,0 0,0 0,0 0,0 0,0 0,1 0,1 0,1 0,0 0,0 0,0l2 0zm4 0c0,0 0,0 1,0 0,0 0,0 0,0 0,0 0,0 0,0 0,0 0,0 0,-1l0 0c0,0 0,0 0,0 0,0 0,0 1,0l0 0c0,0 0,0 0,0 0,0 0,0 0,0l0 1c0,0 0,0 0,0 0,0 0,0 0,1l0 0c0,0 0,0 -1,0 0,0 0,0 0,0 0,0 0,0 0,0 -1,0 -1,0 -1,0l0 -1zm9 -1c0,0 0,0 0,0 0,0 1,0 1,0l0 0c0,1 0,1 0,1 0,0 0,0 0,0 0,0 0,0 0,0 0,0 0,0 0,0l0 1c0,0 0,0 0,0 0,0 0,0 0,0 0,0 -1,0 -1,0 0,0 0,0 0,0l0 0c-1,-1 -1,-1 -1,-1 0,0 0,0 0,0l0 -1c0,0 0,0 0,0 0,0 1,0 1,0l0 0zm-9 -2c0,0 0,0 1,0 0,0 0,0 0,-1l0 0c0,0 0,0 0,0 0,0 0,0 0,0 0,0 0,0 0,0 -1,0 -1,0 -1,0l0 -1c0,0 0,0 1,0 0,-1 0,-1 0,-1l0 0c0,0 0,0 0,0 0,0 0,0 0,0 0,0 0,0 0,0 -1,0 -1,-1 -1,-1l0 0c0,0 0,0 1,0 0,-1 0,-1 0,-1l3 0c0,0 0,0 0,0 1,0 1,0 1,0 0,0 0,0 -1,0 0,0 0,0 0,0l-3 0c0,0 0,0 0,0 -1,-1 -1,-1 -1,-1l0 0c0,0 0,0 1,-1 0,0 0,0 0,0l3 0c0,0 0,0 0,0 1,0 1,0 1,0 0,0 0,0 -1,0 0,0 0,0 0,0l-3 0c0,0 0,0 0,-1 -1,0 -1,0 -1,0l0 0c0,0 0,-1 1,-1 0,0 0,0 0,0l3 0c0,0 0,0 0,0 1,0 1,0 1,0 0,0 0,0 0,0 0,0 0,0 0,0l1 0c0,0 0,0 0,0 0,0 0,0 0,0 0,0 0,0 0,0 0,0 0,0 1,0l3 0c0,0 0,0 0,0 0,0 0,1 0,1l0 0c0,0 0,0 0,0 0,1 0,1 0,1l-3 0c-1,0 -1,0 -1,0 0,0 0,0 0,0 0,0 0,0 0,0 0,0 0,0 1,0l3 0c0,0 0,0 0,0 0,1 0,1 0,1l0 0c0,0 0,0 0,1 0,0 0,0 0,0l-3 0c-1,0 -1,0 -1,0 0,0 0,0 0,0 0,0 0,0 0,0 0,0 0,0 1,0l3 0c0,0 0,0 0,1 0,0 0,0 0,0l0 0c0,0 0,1 0,1 0,0 0,0 0,0l-7 0c0,0 0,0 0,0 -1,0 -1,0 -1,0l0 0c0,0 0,0 0,0 0,1 0,1 0,1l8 0c0,0 0,0 0,0 0,0 0,0 0,0l0 0c0,1 0,1 0,1 0,0 0,0 0,0l-7 0c0,0 0,0 0,0 0,0 -1,0 -1,0l0 0c0,1 0,1 0,1 0,0 0,0 0,0l6 0c0,0 1,0 1,0 0,0 0,0 0,0 0,0 0,-1 0,-1 0,0 0,0 0,0l1 0c0,0 0,0 0,0 0,0 0,1 0,1 0,0 0,0 0,0 0,0 0,0 0,1l0 0c-1,0 -1,0 -1,0 0,0 0,0 0,0l-2 0c0,0 -1,0 -1,0 0,0 0,0 0,1l0 1c0,0 0,0 0,0 0,0 0,0 0,1l-1 0c0,0 0,0 0,0 0,0 0,0 0,0l-1 0c0,0 0,0 0,0 -1,0 -1,0 -1,0l0 -1c0,0 0,0 1,0 0,0 0,0 0,0l0 0c0,0 1,0 1,0 0,0 0,0 0,-1l0 0c0,-1 0,-1 0,-1 0,0 -1,0 -1,0l-3 0c0,0 0,0 0,0 -1,0 -1,0 -1,0l0 -1zm19 -6c0,0 0,0 1,0 0,0 0,0 0,0l-1 10c0,0 -1,0 -1,0 0,0 0,0 0,0l-1 0c0,0 0,0 0,0 0,0 0,0 0,0l0 -1c0,0 0,0 0,0 0,0 0,0 0,0 0,0 0,0 0,0 0,0 0,0 0,-1l1 -8c0,0 0,0 0,0 1,0 1,0 1,0l0 0zm3 -3c0,1 0,1 0,1 0,0 0,0 0,0 0,0 0,0 0,0 0,0 0,0 0,0l0 1c0,0 0,0 0,0 0,0 0,0 0,0 0,0 0,0 0,0 0,1 0,1 0,1l0 10c0,0 0,0 0,0 0,0 0,0 -1,0l-1 0c0,0 -1,0 -1,0 0,0 0,0 0,0l0 -1c0,0 0,0 0,0 0,0 1,0 1,0l0 0c0,0 0,0 0,0 0,0 1,0 1,-1l0 -8c0,0 -1,0 -1,-1 0,0 0,0 0,0l-3 0c0,0 0,0 0,0 0,0 0,0 0,0l0 -1c0,0 0,0 0,0 0,0 0,0 0,0l3 0c0,0 0,0 0,0 0,0 1,0 1,-1l0 0c0,0 0,0 0,0 0,0 0,0 0,0l0 0c1,0 1,0 1,0 0,0 0,0 0,0l0 0zm-6 0c0,0 0,0 0,0 0,0 0,0 0,0 0,0 0,0 0,0 0,0 0,1 0,1 0,0 0,0 0,0l0 0c0,0 0,1 0,1 0,0 0,0 0,0 0,0 0,0 0,0 0,0 0,0 0,0l0 1c0,0 0,0 0,0 0,0 0,0 0,0 0,0 0,0 0,0 0,0 0,0 0,1l0 0c0,0 0,0 0,0 0,0 0,0 0,0 0,0 0,0 0,1 0,0 0,0 0,0l0 8c0,0 0,0 0,0 0,0 0,0 -1,0l0 0c0,0 0,0 0,0 0,0 0,0 0,0l0 -8c0,0 -1,0 -1,0 0,-1 0,-1 0,-1 0,0 0,0 0,1 0,0 0,0 0,0l0 8c0,0 0,0 0,0 0,0 -1,0 -1,0l0 0c0,0 0,0 0,0 0,0 0,0 0,0l0 -9c0,-1 0,-1 0,-1 0,0 0,0 0,0l1 0c0,0 0,0 0,0 0,0 1,0 1,0l0 -1c0,0 -1,0 -1,0 0,0 0,0 0,0l-1 0c0,0 0,0 0,0 0,0 0,-1 0,-1l0 0c0,0 0,0 0,0 0,0 0,-1 0,-1l1 0c0,0 0,0 0,0 0,0 1,0 1,0 0,0 0,0 0,0 0,0 0,0 0,0l0 0c1,0 1,0 1,0z"/>
 </g>
</svg>
