<?xml version="1.0" encoding="UTF-8"?>
<!DOCTYPE svg PUBLIC "-//W3C//DTD SVG 1.1//EN" "http://www.w3.org/Graphics/SVG/1.1/DTD/svg11.dtd">
<!-- Creator: CorelDRAW X8 -->
<svg xmlns="http://www.w3.org/2000/svg" xml:space="preserve" width="188.101mm" height="78.4728mm" version="1.1" style="shape-rendering:geometricPrecision; text-rendering:geometricPrecision; image-rendering:optimizeQuality; fill-rule:evenodd; clip-rule:evenodd"
viewBox="0 0 113 47"
 xmlns:xlink="http://www.w3.org/1999/xlink">
 <defs>
  <style type="text/css">
   <![CDATA[
    .fil0 {fill:#C2E105}
    .fil1 {fill:#FEFEFE;fill-rule:nonzero}
   ]]>
  </style>
 </defs>
 <g id="图层_x0020_1">
  <metadata id="CorelCorpID_0Corel-Layer"/>
  <path class="fil0" d="M4 0l105 0c2,0 4,2 4,4l0 39c0,2 -2,4 -4,4l-105 0c-2,0 -4,-2 -4,-4l0 -39c0,-2 2,-4 4,-4z"/>
  <path class="fil1" d="M14 30c0,0 -1,0 -1,0 0,-1 0,-1 0,-1l0 -19c0,0 0,-1 0,-1 1,0 1,0 2,0l3 0c4,0 6,0 8,2 2,2 3,5 3,8 0,4 -1,6 -3,8 -2,2 -4,3 -7,3l-3 0 -2 0zm2 -3l2 0c2,0 4,-1 5,-2 2,-1 2,-3 2,-6 0,-5 -2,-8 -7,-8l-2 0 0 8 0 8zm19 3c-2,0 -4,0 -5,-2 -1,-1 -1,-2 0,-2 1,0 1,0 1,0 1,0 1,0 2,1 0,0 1,0 2,0 1,0 2,0 2,-1 1,0 1,-1 1,-3l0 -13c0,-1 1,-1 2,-1 1,0 1,0 1,1l0 6 0 7c0,2 0,4 -1,5 -1,2 -3,2 -5,2zm13 0c-2,0 -3,0 -4,-1 0,0 0,-1 0,-1 1,0 1,-1 1,-1 0,0 1,0 1,1 0,0 1,0 1,0 1,0 1,0 2,0 0,-1 0,-1 0,-1 0,-1 0,-1 0,-1 0,0 -1,0 -1,-1 -1,0 -1,0 -1,0 -1,0 -1,0 -1,-1 0,0 0,0 1,0 0,-1 0,-1 1,-1 0,0 1,0 1,-1 0,-1 -1,-1 -2,-1 0,0 0,0 -1,0 0,0 0,0 0,0 -1,0 -1,0 -1,0 -1,-1 -1,-1 0,-1 1,-1 2,-1 3,-1 1,0 2,0 2,1 1,0 1,1 1,2 0,1 0,2 -1,2l0 0c0,1 1,1 1,1 0,1 1,1 1,2 0,1 -1,2 -2,2 0,1 -1,1 -2,1z"/>
  <path class="fil1" d="M56 43c0,0 0,0 0,0 0,0 0,0 0,0l0 0c0,0 1,0 1,0 0,-1 0,-1 0,-1l3 -7c0,0 0,0 0,0 0,-1 0,-1 0,-1l0 -3c0,0 0,0 0,0 0,0 0,0 0,0l1 0c0,0 0,0 0,0 0,0 0,0 0,0l0 3c0,0 0,0 0,1 0,0 0,0 0,0l3 7c0,0 0,0 0,1 0,0 0,0 1,0l0 0c0,0 0,0 0,0 0,0 0,0 0,0l0 1c0,0 0,0 0,0 0,0 0,0 0,0l-1 0c-1,0 -1,0 -1,0 0,0 0,0 0,0l-2 -7c0,0 -1,0 -1,0 0,0 0,0 0,0l-2 7c0,0 0,0 0,0 0,0 -1,0 -1,0l-1 0c0,0 0,0 0,0 0,0 0,0 0,0l0 -1zm18 0c0,0 0,0 0,0 0,-1 0,-1 0,-1l0 -8c0,0 0,0 0,0 0,0 0,0 1,0l0 0c0,0 0,0 0,0 0,0 0,0 0,0l0 8c0,1 0,1 0,1 0,0 0,0 0,0l0 1c0,0 -1,0 -1,0 0,0 0,0 0,0 0,0 0,0 0,0 0,0 0,0 0,0l0 -1c0,0 0,0 0,0 0,0 0,0 0,0zm-5 -3c0,0 0,0 0,0 0,-1 0,-1 0,-1l0 -4c0,0 0,-1 0,-1 0,0 0,0 0,0 0,0 0,0 0,0 -1,0 -1,0 -1,0l0 0c0,-1 0,-1 0,-1 0,0 -1,0 -1,0l0 -2c0,0 1,0 1,0 0,0 0,0 0,0l0 0c0,0 1,0 1,0 0,0 0,0 0,0l0 1c0,0 0,1 0,1 0,0 0,0 0,0 0,0 0,0 0,0 0,0 0,-1 0,-1l0 -1c0,0 0,0 0,0 0,0 1,0 1,0l0 0c0,0 0,0 0,0 0,0 1,0 1,0l0 1c0,0 0,1 0,1 0,0 0,0 0,0 0,0 0,0 0,0 0,0 0,0 0,0l0 1c0,0 0,0 0,0 0,0 0,0 0,0 0,0 0,0 0,0 0,0 0,1 0,1l0 4c0,0 0,0 0,1 0,0 0,0 0,0 0,0 0,0 0,0 0,0 0,0 0,0l0 1c0,0 0,0 0,0 0,0 0,0 0,0 0,0 0,0 0,0 0,0 0,0 0,1l0 2c0,0 -1,0 -1,0 0,0 0,0 0,0l0 0c0,0 -1,0 -1,0 0,0 0,0 0,0l0 -2c0,-1 0,-1 0,-1 0,0 0,0 0,0l-1 0c0,0 0,0 0,0 0,0 -1,0 -1,0l0 -1c0,0 1,0 1,0 0,0 0,0 0,0l1 0zm4 2c0,1 0,1 0,1 0,0 0,0 0,0l0 1c-1,0 -1,0 -1,0 0,0 0,0 0,0 0,0 0,0 0,0 -1,0 -1,0 -1,0l0 -1c0,0 0,0 1,0 0,0 0,0 0,0 0,0 0,0 0,0 0,-1 0,-1 0,-1l0 -8c0,0 0,0 0,0 0,0 0,0 0,0l1 0c0,0 0,0 0,0 0,0 0,0 0,0l0 8zm3 2c0,0 0,0 0,0 0,0 0,0 0,0l0 -11c0,0 0,0 0,0 0,0 0,-1 -1,-1l-2 0c0,0 0,0 0,0 0,0 -1,0 -1,0l0 0c0,0 0,0 0,-1 0,0 0,0 0,0 0,0 0,0 0,0 0,0 0,0 0,0l0 0c1,0 1,0 1,0 0,0 0,0 0,0 0,0 0,0 0,0 0,0 0,0 0,0l4 0c0,0 0,0 0,0 0,0 0,1 0,1l0 12c0,0 0,0 0,0 0,0 0,0 0,0l-1 0zm3 -1c0,0 0,0 1,0 0,0 0,0 0,0 0,0 0,0 0,0 0,-1 0,-1 0,-1l0 0c0,0 0,0 0,0 0,-1 0,-1 1,-1l0 0c0,0 0,0 0,1 0,0 0,0 0,0l0 0c0,1 0,1 0,1 0,0 0,0 0,0l0 1c0,0 0,0 -1,0 0,0 0,0 0,0 0,0 0,0 0,0 0,0 -1,0 -1,0l0 -1zm9 -2c0,0 0,0 0,1 0,0 0,0 0,0l0 0c0,0 0,0 1,1 0,0 0,0 0,0 0,0 0,0 0,0 0,0 0,0 0,0l0 1c0,0 0,0 0,0 0,0 0,0 0,0 0,0 -1,0 -1,0 0,0 0,0 0,0l-1 -1c0,0 0,0 0,0 0,0 0,0 0,-1l0 0c0,0 0,0 0,0 0,-1 0,-1 1,-1l0 0zm-9 -1c0,0 0,0 1,0 0,0 0,-1 0,-1l0 0c0,0 0,0 0,0 0,0 0,0 0,0 0,0 0,0 0,0 -1,0 -1,0 -1,-1l0 0c0,0 0,0 1,-1 0,0 0,0 0,0l0 0c0,0 0,0 0,0 0,0 0,0 0,0 0,0 0,0 0,-1 -1,0 -1,0 -1,0l0 0c0,0 1,0 1,-1 0,0 0,0 0,0l3 0c0,0 0,0 0,0 1,0 1,0 1,0 0,0 0,0 -1,0 0,0 0,0 0,0l-3 0c0,0 0,0 0,-1 0,0 -1,0 -1,0l0 0c0,0 1,-1 1,-1 0,0 0,0 0,0l3 0c0,0 0,0 0,0 1,0 1,0 1,0 0,0 0,0 -1,0 0,0 0,0 0,0l-3 0c0,0 0,-1 0,-1 0,0 -1,0 -1,0l0 0c0,0 1,-1 1,-1 0,0 0,0 0,0l3 0c0,0 0,0 0,0 1,0 1,0 1,0 0,0 0,0 0,0 0,0 0,0 0,0l0 0c1,0 1,0 1,0 0,0 0,0 0,0 0,0 0,0 0,0 0,0 0,0 0,0l4 0c0,0 0,0 0,0 0,0 0,1 0,1l0 0c0,0 0,0 0,0 0,0 0,1 0,1l-4 0c0,0 0,0 0,0 0,0 0,0 0,0 0,0 0,0 0,0 0,0 0,0 0,0l4 0c0,0 0,0 0,0 0,0 0,1 0,1l0 0c0,0 0,0 0,0 0,1 0,1 0,1l-4 0c0,0 0,0 0,0 0,0 0,0 0,0 0,0 0,0 0,0 0,0 0,0 0,0l4 0c0,0 0,0 0,0 0,1 0,1 0,1l0 0c0,0 0,0 0,0 0,1 0,1 0,1l-7 0c0,0 0,0 0,0 -1,0 -1,0 -1,0l0 0c0,0 0,0 0,0 0,0 0,0 0,0l8 0c0,0 0,0 0,1 0,0 0,0 0,0l0 0c0,0 0,0 0,1 0,0 0,0 0,0l-7 0c0,0 0,0 0,0 0,0 -1,0 -1,0l0 0c0,0 0,0 0,1 0,0 0,0 0,0l6 0c0,0 1,0 1,0 0,0 0,-1 0,-1 0,0 0,0 0,0 0,0 0,0 0,0l1 0c0,0 0,0 0,0 0,0 0,0 0,1 0,0 0,0 0,0 0,0 0,0 0,0l-1 1c0,0 0,0 0,0 0,0 0,0 0,0l-2 0c0,0 -1,0 -1,0 0,0 0,0 0,0l0 1c0,1 0,1 0,1 0,0 0,0 0,0l-1 1c0,0 0,0 0,0 0,0 0,0 0,0l-1 0c0,0 0,0 0,0 -1,0 -1,0 -1,0l0 -1c0,0 0,0 1,0 0,0 0,0 0,0l0 0c0,0 1,0 1,0 0,-1 0,-1 0,-1l0 -1c0,0 0,0 0,0 0,0 -1,0 -1,0l-3 0c0,0 0,0 0,0 0,0 -1,0 -1,-1l0 0zm19 -6c0,0 0,0 0,0 0,0 0,0 0,0l-1 10c0,0 0,0 0,0 0,0 0,0 0,0l-1 0c0,0 0,0 0,0 0,0 0,0 0,0l0 -1c0,0 0,0 0,0 0,0 0,0 0,0 0,0 0,0 0,0 0,-1 0,-1 0,-1l1 -8c0,0 0,0 0,0 0,0 1,0 1,0l0 0zm3 -3c0,1 0,1 0,1 0,0 0,0 0,0 0,0 0,0 0,0 0,0 0,0 0,0l0 1c0,0 0,0 0,0 0,0 0,0 0,0 0,0 0,0 0,0 0,0 0,1 0,1l0 10c0,0 0,0 0,0 -1,0 -1,0 -1,0l-1 0c-1,0 -1,0 -1,0 0,0 0,0 0,0l0 -1c0,0 0,0 0,0 0,0 0,0 1,0l0 0c0,0 0,0 0,0 0,-1 0,-1 0,-1l0 -8c0,0 0,-1 0,-1 0,0 0,0 0,0l-3 0c0,0 0,0 0,0 0,0 0,0 0,0l0 -1c0,0 0,0 0,0 0,0 0,0 0,0l3 0c0,0 0,0 0,0 0,0 0,0 0,-1l0 0c0,0 0,0 0,0 1,0 1,0 1,0l0 0c0,0 0,0 1,0 0,0 0,0 0,0l0 0zm-6 0c0,0 0,0 0,0 0,0 0,0 0,0 0,0 0,0 0,0 0,0 0,0 0,1 0,0 0,0 0,0l0 0c0,0 0,1 0,1 0,0 0,0 0,0 0,0 0,0 0,0 0,0 0,0 0,0l0 0c0,1 0,1 0,1 0,0 0,0 0,0 0,0 0,0 0,0 0,0 0,0 0,0l0 1c0,0 0,0 0,0 0,0 0,0 0,0 0,0 0,0 0,0 0,1 0,1 0,1l0 8c0,0 0,0 0,0 -1,0 -1,0 -1,0l0 0c0,0 0,0 0,0 -1,0 -1,0 -1,0l0 -8c0,0 0,0 0,-1 0,0 0,0 0,0 0,0 0,0 0,0 0,1 0,1 0,1l0 8c0,0 0,0 0,0 -1,0 -1,0 -1,0l0 0c0,0 0,0 0,0 0,0 -1,0 -1,0l0 -10c0,0 1,0 1,0 0,0 0,0 0,0l1 0c0,0 0,0 0,0 0,0 0,0 0,-1l0 0c0,0 0,0 0,0 0,0 0,0 0,0l-1 0c0,0 0,0 0,0 -1,-1 -1,-1 -1,-1l0 0c0,0 0,0 1,0 0,-1 0,-1 0,-1l1 0c0,0 0,0 0,0 0,0 0,0 0,0 0,0 0,0 1,0 0,0 0,0 0,0l0 0c0,0 0,0 1,0z"/>
 </g>
</svg>
