<?xml version="1.0" encoding="UTF-8"?>
<!DOCTYPE svg PUBLIC "-//W3C//DTD SVG 1.1//EN" "http://www.w3.org/Graphics/SVG/1.1/DTD/svg11.dtd">
<!-- Creator: CorelDRAW X8 -->
<svg xmlns="http://www.w3.org/2000/svg" xml:space="preserve" width="151.586mm" height="240.675mm" version="1.1" style="shape-rendering:geometricPrecision; text-rendering:geometricPrecision; image-rendering:optimizeQuality; fill-rule:evenodd; clip-rule:evenodd"
viewBox="0 0 84 133"
 xmlns:xlink="http://www.w3.org/1999/xlink">
 <defs>
  <style type="text/css">
   <![CDATA[
    .fil0 {fill:#C2E105}
    .fil1 {fill:#FEFEFE;fill-rule:nonzero}
   ]]>
  </style>
 </defs>
 <g id="图层_x0020_1">
  <metadata id="CorelCorpID_0Corel-Layer"/>
  <path class="fil0" d="M7 0l70 0c4,0 7,3 7,7l0 120c0,3 -3,6 -7,6l-70 0c-4,0 -7,-3 -7,-6l0 -120c0,-4 3,-7 7,-7z"/>
  <g id="_2790463785824">
   <path class="fil1" d="M25 63c-1,0 -1,0 -1,-1 -1,0 -1,0 -1,-1l0 -22c0,-1 0,-1 1,-2 0,0 1,0 1,0l5 0c4,0 7,1 9,3 2,2 3,5 3,10 0,4 -1,7 -3,9 -2,3 -5,4 -9,4l-3 0 -2 0zm2 -4l3 0c2,0 4,0 6,-2 1,-2 2,-4 2,-7 0,-7 -3,-10 -8,-10l-3 0 0 10 0 9zm26 4c-3,0 -5,-1 -7,-3 -1,-1 0,-1 0,-2 1,0 1,0 2,0 1,0 1,0 1,1 1,0 2,1 3,1 2,0 3,-1 3,-2 1,0 1,-2 1,-4l0 -15c0,-1 1,-2 2,-2 2,0 2,1 2,2l0 7 0 9c0,2 0,4 -2,6 -1,1 -3,2 -5,2z"/>
   <path class="fil1" d="M32 78c0,0 0,0 -1,0 0,0 0,1 0,1l0 1c0,1 0,1 0,1 1,0 1,1 1,1l1 0c1,0 1,0 1,0 0,0 0,0 1,0l1 4c0,1 0,1 0,1 0,0 0,0 0,0 1,0 1,0 1,0 0,0 0,0 0,-1l0 -5c0,-1 0,-1 0,-1 0,0 1,0 1,0l1 0c0,0 0,0 0,0 1,0 1,0 1,1l0 6c0,0 0,0 -1,1 0,0 0,0 0,1l-1 0c0,1 0,1 0,1 -1,0 -1,0 -1,0 0,0 0,0 0,0 0,1 0,1 0,1l0 2c0,0 1,0 1,0 0,0 0,1 1,1 0,0 0,0 0,0 1,0 1,0 1,1l0 0c0,1 0,1 -1,1 0,0 0,0 0,0l-3 0c0,0 0,0 0,0 -1,0 -1,0 -1,-1l-3 -10c0,0 0,0 0,0 0,-1 0,-1 0,-1 0,0 -1,0 -1,1 0,0 0,0 0,0l0 8c0,0 0,0 0,0 1,0 1,1 1,1l0 0c1,0 1,0 1,0 0,0 1,0 1,1l0 0c0,1 -1,1 -1,1 0,0 0,0 -1,0l0 0c-1,0 -1,0 -1,0 -1,0 -1,0 -1,0l-1 -1c0,0 0,-1 0,-1 0,0 0,-1 0,-1l0 -17c0,-1 0,-1 0,-1 0,0 0,0 1,0l6 0c0,0 0,0 1,0 0,0 0,0 0,-1 0,0 0,0 0,0 0,0 1,0 1,0l1 0c0,0 0,0 0,0 1,0 1,0 1,1 0,0 0,0 -1,1 0,0 0,0 0,1l-1 0c0,0 0,1 -1,1 0,0 0,0 -1,0l-4 0zm5 -8c0,0 0,-1 0,-1 0,0 1,0 1,0l1 0c0,0 0,0 0,0 1,1 1,1 1,1 0,0 0,1 -1,1 0,0 0,1 0,1l-1 1c0,0 0,0 -1,0 0,0 0,0 -1,0l-7 0c0,0 -1,0 -1,1 0,0 0,0 0,0l0 19c0,0 0,1 0,1 0,0 -1,1 -1,1l0 1c-1,0 -1,0 -1,0 0,0 -1,0 -1,0 0,0 0,0 0,0 -1,0 -1,0 -1,-1l0 0c0,-1 0,-1 0,-1 1,0 1,0 1,0 0,0 0,-1 0,-1 0,0 0,0 0,0l0 -21c0,-1 0,-1 0,-1 0,0 0,0 0,0l11 0c0,0 0,-1 1,-1 0,0 0,0 0,0zm-17 25c0,-1 0,-1 0,-1 0,0 0,0 0,0 0,0 0,-1 1,-1 0,0 0,0 0,0l0 -12c0,0 0,0 0,0 0,-1 0,-1 1,-1l0 0c1,0 1,0 1,1 0,0 0,0 0,0l0 12c0,0 0,1 0,1 0,0 0,1 0,1l-1 1c0,0 -1,0 -1,0 0,0 0,0 0,0 -1,0 -1,0 -1,0 0,0 0,0 0,-1l0 0zm1 -19c0,-1 1,-1 1,-1 0,0 1,0 1,1l0 0c0,0 1,1 1,1 0,0 -1,0 -1,1l0 0c0,0 -1,0 -1,0 0,0 -1,0 -1,0l0 0c0,-1 -1,-1 -1,-1 0,0 1,-1 1,-1l0 0zm0 -6c0,0 1,0 1,0 0,0 1,0 1,0l0 0c0,1 1,1 1,1 0,1 -1,1 -1,1l0 0c0,1 -1,1 -1,1 0,0 -1,0 -1,-1l0 0c0,0 -1,0 -1,-1 0,0 1,0 1,-1l0 0zm31 16c0,1 0,1 0,1 0,1 0,1 -1,1l-1 2c0,1 0,1 0,1 0,1 0,1 0,1l0 1c1,0 1,0 1,0 0,0 0,1 0,1 1,0 1,0 1,0 0,0 0,0 0,1l0 0c0,1 0,1 0,1 -1,0 -1,0 -1,0l-1 0c0,0 0,0 -1,0 0,0 0,0 0,-1l0 0c-1,0 -1,0 -1,0 0,0 0,0 -1,0l0 0c0,1 0,1 0,1 -1,0 -1,0 -1,0l-1 0c0,0 0,0 -1,0 0,0 0,0 0,-1l0 0c0,-1 0,-1 0,-1 0,0 0,0 1,0 0,0 0,-1 0,-1 0,0 0,0 1,0l0 -1c0,0 0,0 0,-1 0,0 0,0 0,-1l-1 -2c-1,0 -1,0 -1,-1 0,0 0,0 0,-1l0 -11c0,0 0,-1 0,-1 1,0 1,0 1,0l1 0c0,0 0,0 1,0 0,0 0,1 0,1l0 11c0,0 0,0 0,1 0,0 0,0 0,1l0 0c1,0 1,0 1,0 0,0 0,0 1,0l0 0c0,-1 0,-1 0,-1 0,-1 0,-1 0,-1l0 -13c0,0 0,-1 0,-1 0,0 0,0 -1,0l-3 0c0,0 0,0 -1,0 0,-1 0,-1 0,-1l0 -1c0,0 0,0 0,-1 1,0 1,0 1,0l6 0c0,0 0,0 1,0 0,1 0,1 0,1l0 16zm1 -14c0,0 0,-1 0,-1 0,0 1,0 1,0l5 0c0,0 0,0 1,0 0,0 0,-1 0,-1 0,0 0,0 0,-1 0,0 1,0 1,0l1 0c0,0 0,0 0,0 1,1 1,1 1,1 0,0 0,0 0,1 0,0 0,0 0,0 0,0 0,0 0,0 0,0 0,1 0,1l0 1c0,0 0,0 0,0 0,1 0,1 0,1 0,0 0,0 0,0 0,0 0,0 0,1l0 20c0,1 0,1 -1,1 0,0 0,0 0,0l-6 0c0,0 0,0 0,0 -1,0 -1,0 -1,-1l0 0c0,-1 0,-1 1,-1 0,0 0,-1 0,-1l3 0c0,0 0,0 1,0 0,0 0,0 0,-1l0 -17c0,-1 0,-1 0,-1 -1,0 -1,0 -1,0l-5 0c0,0 -1,0 -1,-1 0,0 0,0 0,0l0 -1zm3 4c0,0 0,0 1,0 0,0 0,1 0,1l0 10c0,0 0,1 0,1 0,0 0,0 1,0 0,0 0,0 0,1 0,0 0,0 0,0l0 1c0,0 0,0 0,1 0,0 0,0 -1,0l-2 0c0,0 0,0 -1,0 0,-1 0,-1 0,-1l0 -13c0,0 0,-1 0,-1 1,0 1,0 1,0l1 0z"/>
  </g>
 </g>
</svg>
