<?xml version="1.0" encoding="UTF-8"?>
<!DOCTYPE svg PUBLIC "-//W3C//DTD SVG 1.1//EN" "http://www.w3.org/Graphics/SVG/1.1/DTD/svg11.dtd">
<!-- Creator: CorelDRAW X8 -->
<svg xmlns="http://www.w3.org/2000/svg" xml:space="preserve" width="171.327mm" height="77.9mm" version="1.1" style="shape-rendering:geometricPrecision; text-rendering:geometricPrecision; image-rendering:optimizeQuality; fill-rule:evenodd; clip-rule:evenodd"
viewBox="0 0 102 47"
 xmlns:xlink="http://www.w3.org/1999/xlink">
 <defs>
  <style type="text/css">
   <![CDATA[
    .fil0 {fill:#FEB079}
    .fil1 {fill:#FEFEFE;fill-rule:nonzero}
   ]]>
  </style>
 </defs>
 <g id="图层_x0020_1">
  <metadata id="CorelCorpID_0Corel-Layer"/>
  <path class="fil0" d="M8 0l86 0c5,0 8,2 8,4l0 38c0,3 -3,5 -8,5l-86 0c-4,0 -8,-2 -8,-5l0 -38c0,-2 4,-4 8,-4z"/>
  <path class="fil1" d="M45 14c0,0 0,1 1,1 0,0 0,0 0,0l3 0c0,0 0,0 0,0 0,0 0,0 0,1l0 17c0,0 0,0 0,0 0,0 0,0 0,0l-2 0c-1,0 -1,0 -1,0 0,0 0,0 0,0l0 -1c0,0 0,0 0,0 0,0 0,-1 1,-1 0,0 0,0 0,0 0,0 0,0 0,0l0 -13c0,0 0,-1 0,-1 0,0 0,0 0,0l-1 0c0,0 0,0 0,0 -1,0 -1,1 -1,1l0 15c0,0 0,0 0,0 0,0 0,0 0,0l-2 0c0,0 -1,0 -1,0 0,0 0,0 0,0l0 -1c0,0 0,0 0,0 0,0 1,-1 1,-1 0,0 0,0 0,0 0,0 0,0 0,0l0 -13c0,0 0,-1 0,-1 0,0 0,0 0,0 0,0 -1,0 -1,0 0,0 0,-1 0,-1l0 0c0,-1 0,-1 0,-1 0,0 1,0 1,0 0,0 0,0 0,0 0,0 0,-1 0,-1l0 0c0,0 0,0 0,-1 1,0 1,0 1,0l1 0c0,0 0,0 0,0 0,1 0,1 0,1l0 0zm-5 19l-1 0 -4 0c0,0 0,0 0,0 0,0 0,0 0,0l0 -1c0,0 0,0 0,-1 0,0 0,0 0,-1l1 -8c0,0 0,0 -1,0 0,-1 0,-1 0,-1 0,0 0,0 0,0 0,0 0,0 0,0l0 -1c0,0 0,0 0,0 0,-1 0,-1 0,-1l6 0c0,0 0,0 0,1 0,0 0,0 0,0l0 1c0,0 0,0 0,0 0,0 0,0 0,0l-3 0c0,0 0,0 0,1 0,0 0,0 0,0l-1 9c0,0 0,0 0,0 0,0 0,0 0,0l1 0c1,0 1,0 1,0 0,0 0,0 0,0l0 -6c0,0 0,0 0,0 0,0 1,0 1,0l0 0c1,0 1,0 1,0 0,0 0,0 0,0l0 8c0,0 0,0 0,0 0,0 0,0 -1,0zm-5 -19c0,0 0,-1 0,-1 0,0 0,0 0,0l5 0c1,0 1,0 1,0 0,0 0,1 0,1l0 0c0,1 0,1 0,1 0,0 0,0 -1,0l-5 0c0,0 0,0 0,0 0,0 0,0 0,-1l0 0zm29 -1c0,0 0,0 1,0 0,0 0,1 0,1 0,0 0,0 0,0 0,0 0,0 0,0 0,0 0,0 0,0 1,0 1,0 1,0 0,0 0,0 0,0 0,0 0,0 0,0l1 0c0,0 0,0 0,0 0,0 1,0 1,0l0 2c0,0 -1,0 -1,0 0,0 0,0 0,0l-1 0c-1,0 -1,0 -1,1 0,0 0,0 0,0l0 4c0,1 0,1 0,1 0,0 0,0 0,0 0,0 0,0 0,0 0,0 0,0 0,-1l0 -2c0,-1 1,-1 1,-1 0,0 0,0 0,0l1 0c0,0 0,0 0,0 0,0 1,0 1,1l0 4c0,1 -1,1 -1,1 0,0 0,0 0,0l-1 0c-1,0 -1,0 -1,0 0,0 0,1 0,1 0,0 0,0 0,0 0,0 0,0 1,0l1 0c0,0 0,0 0,1 0,0 1,0 1,0l0 1c0,0 -1,0 -1,0 0,0 0,0 0,0l-3 0c-1,0 -1,0 -1,0 0,0 0,0 0,0l0 -10c0,0 0,0 0,0 -1,-1 -1,-1 -1,-1l-5 0c-1,0 -1,0 -1,1 0,0 0,0 0,0l0 10c0,0 0,0 0,0 -1,0 -1,0 -1,0l-1 0c0,0 -1,0 -1,0 0,0 0,0 0,0l0 -1c0,0 0,0 0,0 0,-1 0,-1 0,-1 1,0 1,0 1,0 0,0 0,0 0,0l0 -10c0,0 0,0 0,0 0,-1 0,-1 1,-1l7 0c0,0 0,0 1,0 0,0 0,0 0,0 0,0 0,-1 0,-1 0,0 0,0 1,0l0 0zm-7 8c0,0 0,0 0,-1 0,0 0,0 0,0l4 0c0,0 1,0 1,0 0,1 0,1 0,1l0 6c0,0 0,0 0,0 0,0 -1,0 -1,0l-4 0c0,0 0,0 0,0 0,0 0,0 0,0l0 -6zm-1 8c0,-1 1,-1 1,-1 0,0 0,0 0,0l1 0c0,0 0,0 0,0 0,0 1,0 1,1l0 2c0,0 0,0 0,0 0,0 0,0 0,0l4 0c1,0 1,1 1,1 0,0 0,0 0,0l0 1c0,0 0,0 0,0 0,0 0,0 -1,0l-6 0c0,0 0,0 0,0 0,0 -1,0 -1,0l0 -4zm12 4c0,0 0,0 0,0 -1,0 -1,0 -1,0l-1 0c-1,0 -1,0 -1,0 0,0 0,0 0,0l0 -4c0,-1 0,-1 0,-1 0,0 0,0 1,0l0 0c0,0 0,0 1,0 0,0 0,0 0,1l0 2c0,0 0,0 0,0 0,0 0,0 0,0 0,0 1,1 1,1 0,0 0,0 0,0l0 1zm-14 0c-1,0 -1,0 -1,0 0,0 0,0 0,0l0 -1c0,0 0,0 0,0 0,0 0,-1 0,-1 0,0 1,0 1,0 0,0 0,0 0,0l0 -2c0,-1 0,-1 0,-1 0,0 0,0 0,0l1 0c0,0 0,0 1,0 0,0 0,0 0,1l0 4c0,0 0,0 0,0 -1,0 -1,0 -1,0l-1 0zm6 -5c1,0 1,0 1,0 0,0 0,0 0,0 0,0 0,1 0,1 1,0 1,0 1,0l1 0c1,0 1,0 1,0 0,0 0,0 0,1l0 0c0,0 0,1 0,1 0,0 0,0 -1,0l-3 0c0,0 0,0 -1,0 0,0 0,-1 0,-1l0 -1c0,-1 0,-1 0,-1 1,0 1,0 1,0l0 0zm1 -11c0,0 1,0 1,1 0,0 0,0 0,0l0 1c0,0 0,0 0,0 0,0 -1,0 -1,0l-4 0c0,0 0,0 0,0 0,0 0,0 0,0l0 -1c0,0 0,0 0,0 0,-1 0,-1 0,-1l4 0zm-3 7c0,1 1,1 1,1 0,0 0,0 0,0l0 0c1,0 1,0 1,0 0,0 0,0 0,-1l0 -1c0,0 0,0 0,-1 0,0 0,0 -1,0l0 0c0,0 0,0 0,0 0,1 -1,1 -1,1l0 1z"/>
 </g>
</svg>
