<?xml version="1.0" encoding="UTF-8"?>
<!DOCTYPE svg PUBLIC "-//W3C//DTD SVG 1.1//EN" "http://www.w3.org/Graphics/SVG/1.1/DTD/svg11.dtd">
<!-- Creator: CorelDRAW X8 -->
<svg xmlns="http://www.w3.org/2000/svg" xml:space="preserve" width="158.26mm" height="251.151mm" version="1.1" style="shape-rendering:geometricPrecision; text-rendering:geometricPrecision; image-rendering:optimizeQuality; fill-rule:evenodd; clip-rule:evenodd"
viewBox="0 0 624 990"
 xmlns:xlink="http://www.w3.org/1999/xlink">
 <defs>
  <style type="text/css">
   <![CDATA[
    .fil0 {fill:#46BA1F}
    .fil1 {fill:white;fill-rule:nonzero}
   ]]>
  </style>
 </defs>
 <g id="图层_x0020_1">
  <metadata id="CorelCorpID_0Corel-Layer"/>
  <path class="fil0" d="M50 0l524 0c27,0 50,23 50,50l0 890c0,28 -23,50 -50,50l-524 0c-27,0 -50,-22 -50,-50l0 -890c0,-27 23,-50 50,-50z"/>
  <path class="fil1" d="M153 581l0 -114c0,-2 -1,-3 -1,-5 -1,-2 -2,-2 -3,-2 0,0 -1,-1 -2,-3 0,-1 -1,-3 -1,-5l0 -5c0,-2 1,-4 2,-6 1,-1 2,-2 3,-2l15 0c2,0 4,1 5,2 2,2 2,4 2,6l0 113c0,2 1,4 2,6 1,3 2,5 4,6 1,2 2,2 3,1 2,0 2,-1 2,-3l0 -3c0,-3 1,-5 2,-6 2,-2 4,-2 6,-2l2 0c2,0 4,-1 6,-3 1,-1 2,-3 2,-5l0 -36c0,-2 -1,-4 -2,-5 -2,-2 -4,-2 -6,-2l-2 0c-2,0 -4,-1 -6,-3 -1,-1 -2,-3 -2,-5l0 -5c0,-3 1,-4 2,-6 2,-1 4,-2 6,-2l35 0c2,0 4,-1 5,-2 2,-2 3,-4 3,-6l0 -19c0,-2 -1,-4 -3,-6 -1,-1 -3,-2 -5,-2l-19 0c-2,0 -4,0 -7,-1 -3,-1 -5,-3 -7,-4l-4 -4c-2,-2 -3,-4 -4,-6 -1,-3 -2,-5 -2,-7l0 -16c0,-2 1,-4 2,-5 2,-2 4,-3 6,-3l5 0c2,0 4,1 5,3 2,1 3,3 3,5l0 9c0,2 1,4 2,6 2,2 4,2 6,2l14 0c2,0 4,0 5,-2 2,-2 3,-3 3,-6l0 -13c0,-2 1,-4 2,-5 2,-2 3,-3 6,-3l5 0c2,0 4,1 5,3 2,1 3,3 3,5l0 13c0,3 0,4 2,6 1,2 3,2 6,2l24 0c2,0 4,1 6,3 1,1 2,3 2,5l0 5c0,2 -1,4 -2,6 -2,1 -4,2 -6,2l-24 0c-3,0 -5,1 -6,2 -2,2 -2,4 -2,6l0 19c0,2 0,4 2,6 1,1 3,2 6,2l24 0c2,0 4,1 6,2 1,2 2,3 2,6l0 5c0,2 -1,4 -2,5 -2,2 -4,3 -6,3l-2 0c-2,0 -4,0 -6,2 -1,1 -2,3 -2,5l0 36c0,2 1,4 2,5 2,2 4,3 6,3l2 0c2,0 4,0 6,2 1,1 2,3 2,6l0 4c0,3 -1,4 -2,6 -2,2 -4,2 -6,2l-6 0c-2,0 -5,0 -7,-1 -3,-1 -5,-3 -7,-4l-5 -6c-2,-2 -3,-4 -4,-6 -1,-3 -2,-5 -2,-7l0 -40c0,-2 -1,-4 -2,-5 -2,-2 -3,-2 -6,-2l-18 0c-2,0 -4,0 -6,2 -1,1 -2,3 -2,5l0 40c0,2 -1,4 -2,7 -1,2 -2,4 -4,6l-5 6c-2,1 -4,3 -7,4 -2,1 -4,1 -7,1l-4 0c-2,0 -4,1 -5,1 0,1 0,2 1,3 1,1 3,2 5,3 2,0 4,1 7,1l87 0c2,0 4,0 5,2 2,1 3,3 3,6l0 5c0,2 -1,4 -3,5 -1,2 -3,2 -5,2l-94 0c-2,0 -4,0 -7,-1 -3,-1 -5,-2 -6,-4l-4 -4c-2,-1 -4,-2 -6,-2 -3,0 -4,1 -6,2l-3 4c-2,2 -4,3 -6,4 -2,1 -4,1 -5,1 -2,0 -3,0 -4,-2 -1,-1 -2,-3 -2,-5l0 -5c0,-3 1,-4 1,-6 1,-1 2,-2 2,-2 1,0 2,-1 3,-2 0,-1 1,-2 1,-4zm-1 -159c-2,-2 -3,-4 -3,-6 0,-2 1,-4 3,-6l3 -3c2,-2 4,-2 6,-2 2,0 4,0 5,2l4 3c2,2 2,4 2,6 0,2 0,4 -2,6l-4 3c-1,2 -3,3 -5,3 -2,0 -4,-1 -6,-3l-3 -3zm183 65c2,0 3,0 4,-2 1,-2 2,-3 2,-6l0 -2c0,-3 -1,-5 -2,-6 -1,-1 -2,-2 -4,-2 -2,0 -3,-1 -4,-3 -1,-1 -2,-3 -2,-5l0 -5c0,-2 1,-4 3,-6 1,-1 3,-2 5,-2l49 0c2,0 4,-1 5,-2 2,-2 2,-4 2,-6l0 -3c0,-2 0,-4 -2,-6 -1,-1 -3,-2 -5,-2l-49 0c-2,0 -4,-1 -5,-2 -2,-2 -3,-3 -3,-6l0 -5c0,-2 1,-4 3,-5 1,-2 3,-3 5,-3l113 0c2,0 4,0 5,0 2,-1 3,-2 3,-2 0,-1 0,-2 2,-3 1,0 3,-1 6,-1l5 0c2,0 4,1 5,2 2,1 2,2 2,4 0,1 0,3 -1,5 -1,2 -3,4 -4,5l-6 6c-1,1 -3,2 -6,4 -3,1 -5,1 -7,1l-32 0c-2,0 -4,1 -5,2 -2,2 -3,4 -3,6l0 3c0,2 1,4 3,6 1,1 3,2 5,2l49 0c2,0 4,1 5,2 2,2 2,4 2,6l0 5c0,2 0,4 -1,5 -1,2 -3,3 -5,3 -1,0 -2,1 -4,2 -1,1 -1,3 -1,6l0 2c0,3 0,4 1,6 2,2 3,2 4,2 2,0 4,1 5,3 1,1 1,3 1,5l0 5c0,2 0,4 -2,6 -1,1 -3,2 -5,2l-1 0c-2,0 -4,0 -7,-1 -2,-2 -4,-3 -6,-5l-5 -5c-2,-2 -3,-4 -4,-6 -1,-3 -2,-5 -2,-7l0 -7c0,-3 -1,-5 -2,-6 -2,-1 -4,-2 -6,-2l-16 0c-2,0 -4,1 -5,2 -2,1 -3,3 -3,6l0 25c0,2 -1,4 -2,5 -2,2 -4,2 -6,2l-5 0c-2,0 -4,0 -5,-2 -2,-1 -3,-3 -3,-5l0 -25c0,-3 0,-5 -2,-6 -1,-1 -3,-2 -5,-2l-17 0c-2,0 -4,1 -5,2 -2,1 -3,3 -3,6l0 7c0,2 0,4 -1,7 -1,2 -2,4 -4,6l-5 5c-2,2 -4,3 -7,5 -2,1 -5,1 -7,1l0 0c-2,0 -4,-1 -5,-2 -2,-2 -3,-4 -3,-6l0 -5c0,-2 1,-4 2,-5 1,-2 2,-3 4,-3zm113 59c0,-2 -1,-4 -2,-5 -2,-2 -3,-2 -5,-2l-65 0c-3,0 -5,0 -6,2 -2,1 -2,3 -2,5l0 37c0,2 -1,5 -2,7 -1,3 -2,5 -4,6l-5 6c-2,2 -4,3 -6,4 -3,1 -5,1 -8,1l-6 0c-2,0 -4,0 -5,-2 -2,-1 -3,-3 -3,-5l0 -5c0,-3 1,-5 3,-6 1,-2 3,-2 5,-2l2 0c2,0 4,-1 6,-3 1,-1 2,-3 2,-5l0 -33c0,-2 -1,-4 -2,-5 -2,-2 -4,-2 -6,-2l-2 0c-2,0 -4,-1 -5,-3 -2,-1 -3,-3 -3,-5l0 -5c0,-2 1,-4 3,-6 1,-1 3,-2 5,-2l124 0c2,0 4,1 6,2 1,2 2,4 2,6l0 12c0,3 0,4 1,6 1,1 2,2 4,2 1,0 2,1 3,2 1,2 1,4 1,6l0 29c0,2 0,5 -1,7 -1,3 -3,5 -4,6l-6 6c-1,2 -3,3 -6,4 -3,1 -5,1 -7,1l-58 0c-2,0 -4,0 -6,-2 -1,-1 -2,-3 -2,-5l0 -5c0,-3 1,-5 2,-6 2,-2 4,-2 6,-2l54 0c2,0 4,-1 5,-3 2,-1 3,-3 3,-5l0 -7c0,-2 -1,-3 -2,-5 -1,-1 -2,-2 -3,-2 -1,0 -2,-1 -3,-2 -1,-2 -2,-4 -2,-6l0 -11z"/>
 </g>
</svg>
