<?xml version="1.0" encoding="UTF-8"?>
<!DOCTYPE svg PUBLIC "-//W3C//DTD SVG 1.1//EN" "http://www.w3.org/Graphics/SVG/1.1/DTD/svg11.dtd">
<!-- Creator: CorelDRAW X8 -->
<svg xmlns="http://www.w3.org/2000/svg" xml:space="preserve" width="151.586mm" height="240.675mm" version="1.1" style="shape-rendering:geometricPrecision; text-rendering:geometricPrecision; image-rendering:optimizeQuality; fill-rule:evenodd; clip-rule:evenodd"
viewBox="0 0 83 132"
 xmlns:xlink="http://www.w3.org/1999/xlink">
 <defs>
  <style type="text/css">
   <![CDATA[
    .fil0 {fill:#FDD100}
    .fil1 {fill:#FEFEFE;fill-rule:nonzero}
   ]]>
  </style>
 </defs>
 <g id="图层_x0020_1">
  <metadata id="CorelCorpID_0Corel-Layer"/>
  <path class="fil0" d="M6 0l70 0c4,0 7,3 7,6l0 119c0,4 -3,7 -7,7l-70 0c-3,0 -6,-3 -6,-7l0 -119c0,-3 3,-6 6,-6z"/>
  <path class="fil1" d="M31 78c-4,0 -6,-1 -8,-3 -2,-2 -3,-5 -3,-9 0,-4 1,-7 3,-9 2,-2 5,-3 8,-3 2,0 4,0 6,2 0,0 0,0 0,1 0,0 0,0 0,1 -1,1 -2,1 -2,0 -2,-1 -3,-1 -4,-1 -2,0 -4,1 -5,2 -2,2 -2,4 -2,7 0,3 0,5 1,6 2,2 4,3 6,3 2,0 3,-1 4,-1l0 -6 -3 0c-1,0 -2,0 -2,-1 0,-1 1,-2 2,-2l2 0 2 0c1,0 1,0 1,1 1,0 1,0 1,1l0 7c0,1 0,1 -1,2 -2,1 -4,2 -6,2zm23 0c-3,0 -5,-1 -7,-3 -2,-2 -3,-5 -3,-9 0,-4 1,-7 3,-9 2,-2 4,-3 7,-3 3,0 5,0 7,2 0,0 0,0 0,1 0,0 0,0 -1,1 0,1 -1,1 -2,0 -1,-1 -2,-1 -3,-1 -3,0 -4,1 -6,2 -1,2 -2,4 -2,7 0,3 1,5 2,6 1,2 3,3 6,3 1,0 3,-1 3,-1l0 -6 -3 0c-1,0 -1,0 -1,-1 0,-1 0,-2 1,-2l3 0 2 0c0,0 1,0 1,1 1,0 1,0 1,1l0 7c0,1 0,1 -1,2 -2,1 -4,2 -7,2z"/>
 </g>
</svg>
