<?xml version="1.0" encoding="UTF-8"?>
<!DOCTYPE svg PUBLIC "-//W3C//DTD SVG 1.1//EN" "http://www.w3.org/Graphics/SVG/1.1/DTD/svg11.dtd">
<!-- Creator: CorelDRAW X8 -->
<svg xmlns="http://www.w3.org/2000/svg" xml:space="preserve" width="188.742mm" height="78.74mm" version="1.1" style="shape-rendering:geometricPrecision; text-rendering:geometricPrecision; image-rendering:optimizeQuality; fill-rule:evenodd; clip-rule:evenodd"
viewBox="0 0 115 48"
 xmlns:xlink="http://www.w3.org/1999/xlink">
 <defs>
  <style type="text/css">
   <![CDATA[
    .fil0 {fill:#FE87C1}
    .fil1 {fill:#FEFEFE;fill-rule:nonzero}
   ]]>
  </style>
 </defs>
 <g id="图层_x0020_1">
  <metadata id="CorelCorpID_0Corel-Layer"/>
  <path class="fil0" d="M4 0l107 0c2,0 4,2 4,4l0 40c0,2 -2,4 -4,4l-107 0c-2,0 -4,-2 -4,-4l0 -40c0,-2 2,-4 4,-4z"/>
  <path class="fil1" d="M53 38l-12 0c0,0 0,0 0,0 0,-1 -1,-1 -1,-1l0 -8c0,0 0,0 0,0 0,-1 0,-1 0,-1 0,0 0,0 0,0 0,0 0,-1 0,-1l0 0c0,-1 0,-1 0,-1 0,0 0,-1 0,-1 0,0 0,0 0,0 0,0 0,0 0,-1l0 -7c0,0 1,-1 1,-1 0,0 0,0 1,0l11 0c1,0 1,0 1,0 0,0 0,1 0,1l0 7c0,1 0,1 1,1 0,0 0,0 0,0 0,0 0,1 0,1 0,0 0,0 0,1l0 0c0,0 0,1 0,1 0,0 0,0 0,0 0,0 0,0 0,1 -1,0 -1,0 -1,0l0 8c0,0 0,0 0,1 0,0 0,0 -1,0zm-10 -14c0,1 0,1 1,1 0,0 0,0 0,0l6 0c1,0 1,0 1,0 0,0 1,0 1,-1l0 -4c0,-1 -1,-1 -1,-1 0,0 0,0 -1,0l-6 0c0,0 0,0 0,0 -1,0 -1,0 -1,1l0 4zm1 4c0,0 0,0 0,1 -1,0 -1,0 -1,0l0 5c0,0 0,1 1,1 0,0 0,0 0,0l7 0c0,0 0,0 0,0 0,0 1,-1 1,-1l0 -5c0,0 -1,0 -1,0 0,-1 0,-1 -1,-1l-6 0zm-9 8c0,0 0,0 0,-1 0,0 0,0 1,0 0,0 0,0 0,0 0,0 0,-1 0,-1l0 -11c0,-1 0,-1 0,-1 0,0 1,0 1,0l1 0c0,0 0,0 0,0 1,0 1,0 1,1l0 14c0,0 0,0 -1,1 0,0 0,0 0,0l-2 0c0,0 -1,0 -1,0 0,-1 0,-1 0,-1l0 -1zm7 -26c0,0 0,0 0,0 1,0 1,1 1,1 0,0 0,0 0,0 0,0 1,0 1,0l10 0c0,0 1,0 1,0 0,1 0,1 0,1l0 1c0,0 0,0 0,1 0,0 -1,0 -1,0l-13 0c0,0 -1,0 -1,0 0,-1 0,-1 0,-1l0 -2c0,0 0,0 0,-1 0,0 1,0 1,0l1 0zm6 12c0,0 1,0 1,0 0,0 0,0 1,0 0,0 0,1 0,1l0 1c0,0 0,0 0,0 -1,1 -1,1 -1,1l-3 0c0,0 0,0 0,-1 -1,0 -1,0 -1,0l0 -3c0,0 0,-1 1,-1 0,0 0,0 0,0l1 0c0,0 1,0 1,0 0,0 0,1 0,1 0,0 0,0 0,1zm-3 11l0 -2c0,-1 0,-1 1,-1 0,0 0,-1 0,-1l1 0c0,0 1,1 1,1 0,0 0,0 0,0 0,1 0,1 0,1 0,0 1,0 1,0 0,0 0,0 1,1 0,0 0,0 0,0l0 1c0,0 0,1 0,1 -1,0 -1,0 -1,0l-3 0c0,0 0,0 0,0 -1,0 -1,-1 -1,-1zm-8 -22c0,0 0,0 0,0 1,0 1,0 1,0l1 1c0,0 0,0 0,0 0,1 0,1 0,1l-1 1c0,0 0,0 -1,0 0,0 0,0 0,0l-1 -1c0,0 0,0 0,-1 0,0 0,0 0,0l1 -1zm-1 8c0,0 0,-1 0,-1 0,0 0,-1 0,-1l1 0c0,0 0,0 0,0 1,0 1,0 1,0l1 0c0,0 0,1 0,1 0,0 0,1 0,1l-1 0c0,0 0,1 -1,1 0,0 0,-1 0,-1l-1 0zm41 1c0,-1 0,-1 0,-1 0,0 1,0 1,0l1 0c0,0 0,0 0,0 1,1 1,1 1,1l0 2c0,0 0,0 -1,0 0,1 0,1 0,1l-1 0c0,0 0,0 0,0 0,0 -1,1 -1,1l0 1c0,0 1,1 1,1 0,0 0,0 0,0l1 0c0,0 0,0 0,0 1,1 1,1 1,1l0 1c0,0 0,0 -1,1 0,0 0,0 0,0l-1 0c0,0 0,0 0,0 0,0 -1,1 -1,1l0 4c0,0 1,1 1,1 0,0 0,0 0,0l1 0c0,0 0,0 0,0 1,1 1,1 1,1l0 1c0,0 0,0 -1,1 0,0 0,0 0,0l-3 0c-1,0 -1,0 -1,0 0,-1 0,-1 0,-1l0 -7c0,0 0,-1 -1,-1 0,0 0,0 0,0l-5 0c-1,0 -1,0 -1,0 0,0 0,1 0,1l0 4c0,0 0,1 0,1 0,0 0,0 0,0 1,0 1,0 1,0 0,1 0,1 0,1l0 1c0,0 0,0 0,1 0,0 0,0 -1,0l-2 0c-1,0 -1,0 -1,0 0,-1 0,-1 0,-1l0 -16c0,0 0,0 0,-1 0,0 0,0 1,0l10 0c0,0 0,0 1,0 0,0 0,0 0,0zm-17 16c0,0 0,0 0,-1 0,0 0,0 0,0 0,0 0,0 1,0 0,0 0,-1 0,-1l0 -17c0,-1 0,-1 0,-1 0,0 0,-1 1,-1l17 0c0,0 0,1 0,1 1,0 1,0 1,1l0 0c0,1 0,1 -1,1 0,0 0,0 0,0l-14 0c-1,0 -1,0 -1,1 0,0 0,0 0,0l0 18c0,0 -1,0 -1,1 0,0 0,0 -1,0l-1 0c-1,0 -1,0 -1,0 0,-1 0,-1 0,-1l0 -1zm20 -23c0,1 0,1 -1,1 0,0 0,0 0,0l-17 0c0,0 -1,0 -1,0 0,0 0,0 0,-1l0 0c0,-1 0,-1 0,-1 0,0 1,0 1,0l14 0c0,0 0,-1 1,-1 0,0 0,0 0,0 0,0 0,0 0,-1 0,0 1,0 1,0l1 0c0,0 0,0 0,1 1,0 1,0 1,0l0 2zm-5 11c0,0 0,-1 -1,-1 0,0 0,0 0,0l-5 0c-1,0 -1,0 -1,0 0,0 0,1 0,1l0 1c0,0 0,1 0,1 0,0 0,0 1,0l5 0c0,0 0,0 0,0 1,0 1,-1 1,-1l0 -1zm-3 6c0,1 0,1 0,1 1,0 1,0 1,1l0 2c0,0 0,1 0,1 0,0 0,0 0,0 1,0 1,0 1,0 0,1 0,1 0,1l0 1c0,0 0,0 0,1 0,0 -1,0 -1,0l-2 0c0,0 -1,0 -1,0 0,-1 0,-1 0,-1l0 -5c0,-1 0,-1 0,-1 0,0 1,-1 1,-1l1 0z"/>
 </g>
</svg>
