<?xml version="1.0" encoding="UTF-8"?>
<!DOCTYPE svg PUBLIC "-//W3C//DTD SVG 1.1//EN" "http://www.w3.org/Graphics/SVG/1.1/DTD/svg11.dtd">
<!-- Creator: CorelDRAW X8 -->
<svg xmlns="http://www.w3.org/2000/svg" xml:space="preserve" width="188.742mm" height="78.74mm" version="1.1" style="shape-rendering:geometricPrecision; text-rendering:geometricPrecision; image-rendering:optimizeQuality; fill-rule:evenodd; clip-rule:evenodd"
viewBox="0 0 114 47"
 xmlns:xlink="http://www.w3.org/1999/xlink">
 <defs>
  <style type="text/css">
   <![CDATA[
    .fil0 {fill:#FE87C1}
    .fil1 {fill:#FEFEFE;fill-rule:nonzero}
   ]]>
  </style>
 </defs>
 <g id="图层_x0020_1">
  <metadata id="CorelCorpID_0Corel-Layer"/>
  <path class="fil0" d="M4 0l106 0c2,0 4,2 4,4l0 40c0,2 -2,3 -4,3l-106 0c-2,0 -4,-1 -4,-3l0 -40c0,-2 2,-4 4,-4z"/>
  <path class="fil1" d="M36 26c0,0 0,0 0,0 0,0 0,-1 -1,-1 0,0 0,0 0,0 0,0 0,0 0,-1l0 0c0,-1 0,-1 0,-1 0,0 0,0 1,0l0 0c0,0 1,0 1,-1 0,0 0,0 0,0l0 -4c0,0 0,0 0,0 1,-1 1,-1 1,-1l1 0c0,0 0,0 1,1 0,0 0,0 0,0l0 4c0,0 0,1 0,1 0,0 0,1 -1,1 0,0 0,0 0,0 0,1 0,1 0,1l0 11c0,1 0,1 0,1 -1,0 -1,0 -1,0l-1 0c0,0 0,0 -1,0 0,0 0,0 0,-1l0 -10zm0 -11c0,0 0,0 0,0 0,0 0,0 -1,0 0,0 0,0 0,-1 0,0 0,0 0,0l0 -1c0,0 0,-1 0,-1 0,0 0,0 0,0 1,0 1,0 1,0 0,-1 0,-1 0,-1 0,0 0,0 1,-1 0,0 0,0 0,0l1 0c0,0 0,0 1,0 0,1 0,1 0,1 0,0 0,0 0,1 1,0 1,0 1,0l9 0c0,0 1,0 1,0 0,-1 0,-1 0,-1 0,0 0,0 1,-1 0,0 0,0 0,0l1 0c0,0 0,0 1,0 0,1 0,1 0,1 0,0 0,0 0,1 0,0 1,0 1,0 0,0 0,0 0,0 0,0 1,1 1,1l0 1c0,0 -1,0 -1,0 0,1 0,1 0,1 0,0 -1,0 -1,0 0,0 0,0 0,0 0,1 0,1 0,1 -1,0 -1,0 -1,0l-1 0c0,0 0,0 0,0 -1,0 -1,0 -1,-1 0,0 0,0 0,0 0,0 -1,0 -1,0l-9 0c0,0 0,0 -1,0 0,0 0,0 0,0 0,1 0,1 0,1 -1,0 -1,0 -1,0l-1 0c0,0 0,0 0,0 -1,0 -1,0 -1,-1zm11 2c0,0 0,0 1,1 0,0 0,0 0,0l0 7c0,1 0,1 0,1 0,0 1,1 1,1l2 0c0,0 0,-1 0,-1 1,0 1,0 1,-1l0 -6c0,0 0,0 0,-1 0,0 1,0 1,0l0 0c1,0 1,0 1,0 0,1 1,1 1,1l0 7c0,0 -1,1 -1,1 0,0 0,1 0,1l-1 1c0,0 0,0 -1,0 0,0 0,0 -1,0l-2 0c0,0 -1,0 -1,1 0,0 0,0 0,0l0 4c0,0 0,0 0,0 0,0 1,1 1,1l5 0c0,0 0,0 0,0 0,0 1,0 1,1l0 0c0,1 -1,1 -1,1 0,0 0,0 0,0l-6 0c0,0 0,0 -1,0 0,0 0,0 0,0l-1 -1c0,0 0,-1 -1,-1 0,0 0,-1 0,-1l0 -4c0,0 0,0 0,0 0,-1 -1,-1 -1,-1l-1 0c0,0 -1,0 -1,0 0,0 0,0 0,-1l0 0c0,-1 0,-1 0,-1 0,0 1,0 1,0l1 0c0,0 1,-1 1,-1 0,0 0,0 0,-1l0 -7c0,0 0,0 1,0 0,-1 0,-1 0,-1l1 0zm21 16c0,0 0,0 0,0 0,1 0,1 0,1 -1,0 -1,0 -1,-1 0,0 0,0 0,0l0 -6c0,-1 0,-1 0,-1 0,0 0,0 1,0 0,0 0,0 0,0 0,0 0,0 0,1l0 6zm7 -7c0,0 0,0 1,0 0,0 0,0 0,1l0 6c0,0 0,0 0,0 -1,1 -1,1 -1,1 0,0 0,0 -1,-1 0,0 0,0 0,0l0 -6c0,-1 0,-1 0,-1 1,0 1,0 1,0zm-10 0c0,0 0,0 1,0 0,0 0,0 0,1l0 6c0,0 0,0 0,0 -1,1 -1,1 -1,1 0,0 0,0 -1,-1 0,0 0,0 0,0l0 -6c0,-1 0,-1 0,-1 1,0 1,0 1,0zm3 10c0,1 0,1 0,1 0,0 0,0 -1,0l-3 0c0,0 0,0 -1,0 0,0 0,0 0,-1l-1 0c0,0 0,-1 0,-1 0,0 0,-1 0,-1l0 -7c0,-1 0,-1 0,-1 0,0 0,0 1,0 0,0 0,0 0,0 1,0 1,0 1,1l0 7c0,0 0,0 0,0 0,0 0,1 1,1l2 0c1,0 1,0 1,0 0,0 0,0 0,1l0 0zm6 1c0,0 -1,0 -1,0 0,0 0,0 -1,-1l0 0c0,0 0,-1 0,-1 0,0 0,-1 0,-1l0 -7c0,-1 0,-1 0,-1 0,0 0,0 1,0 0,0 0,0 0,0 1,0 1,0 1,1l0 7c0,0 0,0 0,0 0,0 0,1 1,1l0 0c0,0 1,0 1,0 0,0 0,0 0,1l0 0c0,1 0,1 0,1 0,0 -1,0 -1,0l-1 0zm-4 -21c0,0 0,0 0,0 1,0 1,1 1,1l0 0c0,1 0,1 0,1 0,0 1,0 1,0l1 0c0,0 1,0 1,1 0,0 0,0 0,0l0 1c0,0 0,1 0,1 0,0 -1,0 -1,0l-2 0c0,0 0,0 -1,0 0,0 0,0 -1,-1l0 0c0,-1 -1,-1 -1,-1 0,0 0,-1 0,-1l0 -1c0,0 0,-1 0,-1 0,0 1,0 1,0l1 0zm9 -3c0,0 0,1 0,1 0,0 -1,0 -1,0 0,0 0,0 0,0 0,0 0,0 0,1 0,0 -1,0 -1,0 0,0 0,0 0,0l-1 0c0,0 -1,0 -1,0 0,0 0,0 0,0 0,-1 0,-1 0,-1 -1,0 -1,0 -1,0l-10 0c0,0 0,0 -1,0 0,0 0,0 0,1 0,0 0,0 0,0 0,0 -1,0 -1,0l-1 0c0,0 0,0 0,0 -1,0 -1,0 -1,0 0,-1 0,-1 0,-1 0,0 0,0 0,0 0,0 -1,0 -1,0 0,0 0,-1 0,-1l0 -1c0,0 0,0 0,0 0,-1 1,-1 1,-1 0,0 0,0 0,0 0,0 0,0 0,0 0,0 0,-1 1,-1 0,0 0,0 0,0l1 0c0,0 1,0 1,0 0,0 0,1 0,1 0,0 0,0 0,0 1,0 1,0 1,0l10 0c0,0 0,0 1,0 0,0 0,0 0,0 0,0 0,-1 0,-1 0,0 1,0 1,0l1 0c0,0 0,0 0,0 0,0 1,1 1,1 0,0 0,0 0,0 0,0 0,0 0,0 0,0 1,0 1,1 0,0 0,0 0,0l0 1zm-2 13c1,0 1,0 1,0 0,0 0,0 0,1l0 7c0,0 0,0 0,0 0,0 1,1 1,1 0,0 0,0 0,0 0,0 0,0 0,1l0 0c0,1 0,1 0,1 0,0 -1,0 -1,0 0,0 0,0 0,0 0,0 -1,0 -1,-1l0 0c0,0 0,0 0,-1 -1,0 -1,-1 -1,-1l0 -7c0,-1 1,-1 1,-1 0,0 0,0 0,0zm-18 10c0,-1 0,-1 0,-1 0,0 0,0 0,0 0,0 0,-1 0,-1 0,0 0,0 0,0l0 -7c0,-1 1,-1 1,-1 0,0 0,0 0,0 1,0 1,0 1,0 0,0 0,0 0,1l0 7c0,0 0,1 0,1 0,1 0,1 0,1l0 0c-1,1 -1,1 -1,1 0,0 0,0 -1,0 0,0 0,0 0,0 0,0 0,0 0,-1l0 0zm2 -12c0,0 0,0 -1,1 0,0 0,0 0,0 0,0 -1,0 -1,0 0,-1 0,-1 0,-1l0 -1c0,0 0,0 0,-1 0,0 0,0 0,0 1,0 1,0 1,0 0,0 0,-1 0,-1l0 -4c0,0 0,-1 0,-1 0,0 1,0 1,0l1 0c0,0 0,0 0,0 1,0 1,1 1,1l0 5c0,0 0,0 -1,1 0,0 0,0 0,0l-1 1zm18 0c0,0 0,0 0,1 0,0 -1,0 -1,0 0,0 0,0 -1,0 0,-1 0,-1 -1,-1l0 -1c-1,0 -1,0 -1,-1 0,0 0,0 0,0l0 -5c0,0 0,-1 0,-1 0,0 1,0 1,0l1 0c0,0 0,0 0,0 1,0 1,1 1,1l0 4c0,0 0,1 0,1 0,0 0,0 0,0 0,0 1,0 1,0 0,1 0,1 0,1l0 1zm-5 0c0,0 0,0 0,0 0,1 -1,1 -1,1l-6 0c0,0 -1,0 -1,0 0,-1 -1,-1 -1,-1l-1 -1c0,0 0,0 0,-1 0,0 0,0 0,0l0 -5c0,0 0,-1 0,-1 0,0 0,0 1,0l0 0c1,0 1,0 1,0 0,0 0,1 0,1l0 4c0,0 0,0 1,1 0,0 0,0 0,0l6 0c0,0 1,0 1,0 0,1 0,1 0,1l0 1zm-4 13c0,0 0,0 0,0 -1,0 -1,0 -1,-1l0 -9c0,-1 0,-1 1,-1 0,0 0,0 0,0 1,0 1,0 1,0 0,0 0,0 0,1l0 9c0,1 0,1 0,1 0,0 0,0 -1,0z"/>
 </g>
</svg>
