<?xml version="1.0" encoding="UTF-8"?>
<!DOCTYPE svg PUBLIC "-//W3C//DTD SVG 1.1//EN" "http://www.w3.org/Graphics/SVG/1.1/DTD/svg11.dtd">
<!-- Creator: CorelDRAW X8 -->
<svg xmlns="http://www.w3.org/2000/svg" xml:space="preserve" width="188.742mm" height="78.74mm" version="1.1" style="shape-rendering:geometricPrecision; text-rendering:geometricPrecision; image-rendering:optimizeQuality; fill-rule:evenodd; clip-rule:evenodd"
viewBox="0 0 117 49"
 xmlns:xlink="http://www.w3.org/1999/xlink">
 <defs>
  <style type="text/css">
   <![CDATA[
    .fil0 {fill:#FE87C1}
    .fil1 {fill:#FEFEFE;fill-rule:nonzero}
   ]]>
  </style>
 </defs>
 <g id="图层_x0020_1">
  <metadata id="CorelCorpID_0Corel-Layer"/>
  <path class="fil0" d="M4 0l108 0c3,0 5,2 5,4l0 41c0,2 -2,4 -5,4l-108 0c-2,0 -4,-2 -4,-4l0 -41c0,-2 2,-4 4,-4z"/>
  <path class="fil1" d="M41 32c0,0 0,0 -1,0 0,0 0,1 0,1l0 1c0,1 0,1 0,1 0,0 0,0 1,0 0,0 0,0 0,0 0,0 0,0 0,-1l0 0c0,-1 0,-1 0,-1 0,0 1,0 1,0 0,0 0,0 1,0 0,0 0,0 0,1l0 1c0,0 0,1 0,1 0,0 -1,1 -1,1l0 0c0,1 -1,1 -1,1 0,0 -1,0 -1,0l-3 0c-1,0 -1,0 -1,0 0,0 0,0 0,-1l0 0c0,-1 0,-1 0,-1 0,0 0,-1 1,-1l0 0c0,0 1,0 1,0 0,0 0,0 0,-1l0 -1c0,0 0,-1 0,-1 0,0 -1,0 -1,0l0 0c-1,0 -1,0 -1,0 0,-1 0,-1 0,-1l0 -18c0,0 0,0 0,-1 0,0 0,0 1,0l0 0c0,0 1,0 1,0 0,0 0,0 0,-1 0,0 0,0 1,0 0,-1 0,-1 0,-1 0,0 1,0 1,1 0,0 0,0 0,0 0,1 0,1 1,1 0,0 0,0 0,0l1 0c0,0 0,0 1,1 0,0 0,0 0,0l0 15c0,1 0,1 0,2 0,0 -1,0 -1,0l0 1c0,0 0,0 -1,1 0,0 0,0 0,0zm12 3c0,0 0,0 1,0 0,0 0,0 0,-1l0 -3c0,-1 0,-1 -1,-1 0,0 0,0 0,0 0,0 0,0 0,0 -1,0 -1,0 -1,1l0 6c0,1 0,1 0,1 0,0 0,0 -1,0l0 0c0,0 0,0 -1,0 0,0 0,0 0,-1l0 -26c0,0 0,0 0,0 1,-1 1,-1 1,-1l4 0c0,0 0,0 1,1 0,0 0,0 0,0l0 24c0,0 0,1 0,1 0,0 -1,1 -1,1l0 0c0,1 -1,1 -1,1 0,0 0,0 0,0 -1,0 -1,0 -1,0 0,0 0,0 0,-1l0 0c0,-1 0,-1 0,-1 0,0 0,-1 0,-1zm-4 -20c-1,0 -1,0 -1,0 0,1 0,1 0,1l0 2c0,1 0,1 0,1 0,0 0,0 0,0l1 0c0,0 0,1 0,1 1,0 1,0 1,1l0 14c0,0 -1,1 -1,1 0,0 0,1 0,1l0 0c-1,1 -1,1 -1,1 -1,0 -1,0 -1,0l-3 0 0 -17c0,-1 0,-1 0,-1 0,0 0,-1 0,-1l1 0c0,0 0,0 0,0 0,0 1,0 1,-1l0 -2c0,0 -1,0 -1,-1 0,0 0,0 -1,0l0 0c0,0 0,0 0,0 -1,-1 -1,-1 -1,-1l0 -1c0,0 0,0 1,-1 0,0 0,0 0,0l0 0c1,0 1,0 1,0 0,0 1,-1 1,-1 0,0 0,0 0,0 0,-1 0,-1 1,-1l0 0c0,0 0,0 0,1 1,0 1,0 1,0 0,0 0,1 0,1 0,0 0,0 1,0 0,0 0,0 0,0 0,1 1,1 1,1l0 1c0,0 -1,0 -1,1 0,0 0,0 0,0zm-2 19l0 -11c0,0 0,0 0,0 0,-1 0,-1 0,-1 -1,0 -1,0 -1,1 0,0 0,0 0,0l0 11c0,1 0,1 0,1 0,0 0,0 1,0 0,0 0,0 0,0 0,0 0,0 0,-1zm-6 -19c-1,0 -1,0 -1,0 0,1 0,1 0,1l0 12c0,0 0,0 0,1 0,0 0,0 1,0 0,0 0,0 0,0 0,-1 0,-1 0,-1l0 -12c0,0 0,0 0,-1 0,0 0,0 0,0zm-3 13l0 -12c0,0 0,0 0,-1 0,0 0,0 0,0 0,0 0,0 0,0 0,1 0,1 0,1l0 12c0,0 0,0 0,1 0,0 0,0 0,0 0,0 0,0 0,0 0,-1 0,-1 0,-1zm14 -10c0,0 0,0 1,1 0,0 0,0 0,0 0,0 0,0 0,0 1,-1 1,-1 1,-1l0 -4c0,0 0,0 -1,-1 0,0 0,0 0,0 0,0 0,0 0,0 -1,1 -1,1 -1,1l0 4zm2 8l0 -3c0,-1 0,-1 -1,-1 0,0 0,0 0,0 0,0 0,0 0,0 -1,0 -1,0 -1,1l0 3c0,0 0,0 1,1 0,0 0,0 0,0 0,0 0,0 0,0 1,-1 1,-1 1,-1zm15 11c0,1 0,1 0,1 0,0 -1,0 -1,0l-6 0c-1,0 -1,0 -1,0 0,0 0,0 0,-1l0 0c0,-1 0,-1 0,-1 0,0 0,-1 1,-1l1 0c0,0 0,0 0,0 1,0 1,0 1,-1l0 -1c0,-1 0,-1 -1,-1 0,0 0,-1 0,-1l-1 0c-1,0 -1,0 -1,0 0,0 0,0 0,-1l0 -17c0,0 0,0 0,0 0,-1 0,-1 1,-1l1 0c0,0 0,0 0,0 1,0 1,0 1,-1 0,0 0,0 0,0 0,-1 0,-1 1,-1 0,0 0,0 0,1 1,0 1,0 1,0 0,1 0,1 0,1 0,0 1,0 1,0l1 0c0,0 1,0 1,1 0,0 0,0 0,0l0 17c0,1 0,1 0,1 0,0 -1,0 -1,0l-1 0c0,0 -1,1 -1,1 0,0 0,0 0,1l0 1c0,1 0,1 0,1 0,0 0,0 0,0 0,0 1,0 1,0 0,0 0,0 0,-1l0 0c0,-1 0,-1 0,-1 0,0 1,0 1,0l0 0c0,0 1,0 1,0 0,0 0,0 0,1l0 3zm2 -27c1,0 1,0 1,1 0,0 1,0 1,0l0 1c0,0 0,0 0,0 0,1 0,1 0,1 0,0 1,0 1,-1 0,0 0,0 0,0l0 -1c0,0 0,0 0,0 0,-1 1,-1 1,-1l0 0c0,0 1,0 1,1 0,0 0,0 0,0l0 1c0,0 0,0 0,0 0,1 1,1 1,1 0,0 0,0 0,-1 1,0 1,0 1,0l0 -1c0,0 0,0 0,0 0,-1 0,-1 1,-1l0 0c0,0 0,0 1,1 0,0 0,0 0,0l0 1c0,0 0,0 0,0 0,1 0,1 0,1 1,0 1,0 1,0 0,0 0,1 0,1l0 1c0,0 0,0 0,0 0,0 0,1 -1,1 0,0 0,0 0,0 0,0 0,0 0,1l0 3c0,0 0,0 0,0 -1,1 -1,1 -1,1l-4 0c0,0 -1,0 -1,-1 0,0 0,0 0,0l0 -3c0,-1 0,-1 0,-1 0,0 -1,0 -1,0 0,0 0,0 0,0 0,0 0,0 0,1l0 4c0,0 0,0 0,1 0,0 0,0 1,0l6 0c0,0 0,0 1,0 0,1 0,1 0,1l0 1c0,0 0,0 0,1 -1,0 -1,0 -1,0l-2 0c0,0 -1,0 -1,0 0,0 0,0 0,1 0,0 0,0 0,0 0,0 1,0 1,0l2 0c0,0 0,0 1,1 0,0 0,0 0,0l0 1c0,0 0,1 0,1 -1,0 -1,0 -1,0l-2 0c0,0 -1,0 -1,0 0,1 0,1 0,1l0 7c0,1 0,1 -1,1 0,0 0,0 0,0l-1 0c0,0 0,0 0,0 -1,0 -1,0 -1,-1l0 -7c0,0 0,0 0,-1 0,0 -1,0 -1,0l-2 0c0,0 0,0 -1,0 0,0 0,-1 0,-1l0 -1c0,0 0,0 0,0 1,-1 1,-1 1,-1l2 0c0,0 1,0 1,0 0,0 0,0 0,0 0,-1 0,-1 0,-1 0,0 -1,0 -1,0l-2 0c0,0 0,0 0,0 -1,-1 -1,-1 -1,-1l0 -7c0,-1 0,-1 0,-1 0,0 0,0 0,0 0,0 0,-1 0,-1 0,0 0,0 0,0l0 -1c0,0 0,-1 0,-1 0,0 0,0 0,0 0,0 0,0 0,-1 0,0 0,0 0,0l0 -1c0,0 0,0 1,0 0,-1 0,-1 0,-1l0 0zm8 28c0,0 0,0 -1,0 0,0 0,0 0,-1l0 -5c0,-1 0,-1 0,-1 1,0 1,0 1,0l1 0c0,0 0,0 0,0 1,0 1,0 1,1l0 5c0,1 0,1 -1,1 0,0 0,0 0,0l-1 0zm-8 0c0,0 0,0 0,0 -1,0 -1,0 -1,-1l0 -5c0,-1 0,-1 1,-1 0,0 0,0 0,0l1 0c0,0 0,0 1,0 0,0 0,0 0,1l0 5c0,1 0,1 0,1 -1,0 -1,0 -1,0l-1 0zm-5 -23c0,0 0,0 0,0 0,1 0,1 0,1l0 12c0,0 0,0 0,0 0,1 0,1 0,1 0,0 1,0 1,-1 0,0 0,0 0,0l0 -12c0,0 0,0 0,-1 0,0 -1,0 -1,0zm-3 13c0,1 0,1 0,1 0,0 1,0 1,-1 0,0 0,0 0,0l0 -12c0,0 0,0 0,-1 0,0 -1,0 -1,0 0,0 0,0 0,0 0,1 0,1 0,1l0 12c0,0 0,0 0,0zm14 -12c0,0 -1,0 -1,0 0,0 0,0 0,1l0 0c0,0 0,1 0,1 0,0 1,0 1,0 0,0 0,0 0,0 1,0 1,-1 1,-1l0 0c0,-1 0,-1 -1,-1 0,0 0,0 0,0z"/>
 </g>
</svg>
