<?xml version="1.0" encoding="UTF-8"?>
<!DOCTYPE svg PUBLIC "-//W3C//DTD SVG 1.1//EN" "http://www.w3.org/Graphics/SVG/1.1/DTD/svg11.dtd">
<!-- Creator: CorelDRAW X8 -->
<svg xmlns="http://www.w3.org/2000/svg" xml:space="preserve" width="151.586mm" height="240.675mm" version="1.1" style="shape-rendering:geometricPrecision; text-rendering:geometricPrecision; image-rendering:optimizeQuality; fill-rule:evenodd; clip-rule:evenodd"
viewBox="0 0 83 132"
 xmlns:xlink="http://www.w3.org/1999/xlink">
 <defs>
  <style type="text/css">
   <![CDATA[
    .fil0 {fill:#FE87C1}
    .fil1 {fill:#FEFEFE;fill-rule:nonzero}
   ]]>
  </style>
 </defs>
 <g id="图层_x0020_1">
  <metadata id="CorelCorpID_0Corel-Layer"/>
  <path class="fil0" d="M6 0l70 0c4,0 7,3 7,6l0 119c0,4 -3,7 -7,7l-70 0c-3,0 -6,-3 -6,-7l0 -119c0,-3 3,-6 6,-6z"/>
  <path class="fil1" d="M20 58c0,0 0,0 0,0 0,0 0,-1 0,-1 0,0 1,0 1,0 0,0 0,0 0,-1l0 -3c0,0 0,0 0,0 0,0 0,-1 1,-1l15 0c0,0 1,1 1,1 0,0 0,0 0,0l0 3c0,1 0,1 0,1 0,0 0,0 1,0 0,0 0,1 0,1 0,0 0,0 0,0l0 1c0,0 0,1 0,1 0,0 0,0 -1,0 0,0 0,0 0,0 -1,0 -1,0 -1,-1l-1 0c0,0 0,-1 0,-1 0,0 -1,-1 -1,-1l0 -1c0,0 0,0 0,-1 0,0 0,0 -1,0l-10 0c0,0 0,0 0,0 0,1 -1,1 -1,1l0 1c0,0 0,1 0,1 0,0 0,1 0,1l-1 0c0,1 0,1 -1,1 0,0 0,0 0,0 -1,0 -1,0 -1,0 0,0 0,-1 0,-1l0 -1zm0 5c0,0 0,-1 0,-1 0,0 1,0 1,0l17 0c0,0 1,0 1,0 0,0 0,1 0,1l0 1c0,0 0,0 0,0 0,0 -1,0 -1,0l-17 0c0,0 -1,0 -1,0 0,0 0,0 0,0l0 -1zm1 8c0,0 0,0 0,0 0,-1 0,-1 0,-1 -1,0 -1,0 -1,0 0,0 0,0 0,-1l0 0c0,-1 0,-1 0,-1 0,0 1,0 1,0l17 0c0,0 1,0 1,0 0,0 0,0 0,1l0 0c0,1 0,1 0,1 0,0 -1,0 -1,0l-13 0c0,0 0,0 0,1 -1,0 -1,0 -1,0l-1 5c0,0 0,0 0,0 0,0 1,1 1,1l11 0c1,0 1,-1 1,-1 0,0 0,0 0,-1l0 -2c0,0 0,0 1,-1 0,0 0,0 0,0l1 0c0,0 1,0 1,0 0,1 0,1 0,1l0 3c0,0 0,1 0,1 0,0 0,1 -1,1l0 0c-1,1 -1,1 -1,1 0,0 -1,0 -1,0l-15 0c0,0 0,0 0,0 0,0 -1,-1 -1,-1l0 -2c0,0 0,0 0,-1 1,0 1,0 1,-1l0 -3zm23 -17c0,0 0,0 0,0 0,0 0,-1 1,-1l14 0c1,0 1,0 1,0 0,0 0,0 0,0 0,0 1,0 1,0 0,-1 0,-1 1,-1l0 0c0,0 1,0 1,1 0,0 0,0 0,0 0,0 0,1 0,1 0,0 0,0 -1,1l0 0c0,0 -1,1 -1,1 0,0 -1,0 -1,0l-15 0c-1,0 -1,0 -1,0 0,-1 0,-1 0,-1l0 -1zm0 19c0,0 0,0 0,0 0,-1 0,-1 1,-1l17 0c0,0 1,0 1,1 0,0 0,0 0,0l0 3c0,1 0,1 0,1 0,1 0,1 -1,1l0 1c0,0 -1,0 -1,0 0,0 -1,0 -1,0l-15 0c-1,0 -1,0 -1,0 0,0 0,-1 0,-1l0 -5zm2 3c0,0 1,0 1,0 0,1 0,1 0,1l12 0c1,0 1,0 1,-1 0,0 0,0 0,0l0 0c0,-1 0,-1 0,-1 0,0 0,0 -1,0l-12 0c0,0 0,0 0,0 0,0 -1,0 -1,1l0 0zm-2 -18c0,0 0,0 0,-1 0,0 0,0 1,0l17 0c0,0 1,0 1,0 0,1 0,1 0,1l0 2c0,0 0,0 0,1 0,0 -1,0 -1,0l0 0c-1,0 -1,0 -1,0 0,0 -1,-1 -1,-1 0,0 0,0 0,0 0,0 0,0 -1,0l-12 0c0,0 0,0 0,0 0,0 -1,0 -1,0 0,0 0,0 0,0 0,1 0,1 -1,1l0 0c-1,0 -1,-1 -1,-1 0,0 0,0 0,0l0 -2zm3 11c0,0 1,0 1,0 0,0 1,0 1,-1 0,0 0,0 0,0 0,0 0,0 0,0l0 0c-1,-1 -1,-1 -1,-1 -1,0 -1,0 -1,0l-2 0c-1,0 -1,0 -1,0 0,0 0,0 0,-1 0,0 0,0 0,0 0,-1 0,-1 1,-1l2 0c1,0 1,0 1,0 1,0 1,1 1,1l3 0c0,0 0,1 1,1 0,-1 0,-1 1,-1l3 -1c0,0 0,0 0,0 0,0 0,-1 -1,-1l-9 0c0,0 -1,0 -1,0 0,0 -1,0 -1,0l-1 -1c0,0 0,0 0,0 0,-1 0,-1 0,-1 0,0 0,0 0,0 0,0 0,-1 1,-1l0 0c1,0 1,1 1,1 0,0 0,0 0,0 0,0 1,0 1,0 0,0 0,0 0,0l15 0c0,0 1,0 1,0 0,1 0,1 0,1l0 1c0,0 0,0 0,0 0,1 -1,1 -1,1l-5 2c0,0 -1,1 -1,1 0,0 1,0 1,0l1 0c0,1 0,1 1,1 0,0 1,0 1,0l2 0c0,0 1,0 1,0 0,0 0,1 0,1l0 0c0,0 0,1 0,1 0,0 -1,0 -1,0l-2 0c-1,0 -1,0 -1,0 -1,0 -1,0 -1,0l-4 -2c0,0 -1,0 -1,0 -1,0 -1,0 -1,0l-3 2c0,0 -1,0 -1,0 0,0 -1,0 -1,0l-2 0c-1,0 -1,0 -1,0 0,0 0,-1 0,-1l0 0c0,0 0,-1 0,-1 0,0 0,0 1,0l2 0z"/>
 </g>
</svg>
