<?xml version="1.0" encoding="UTF-8"?>
<!DOCTYPE svg PUBLIC "-//W3C//DTD SVG 1.1//EN" "http://www.w3.org/Graphics/SVG/1.1/DTD/svg11.dtd">
<!-- Creator: CorelDRAW X8 -->
<svg xmlns="http://www.w3.org/2000/svg" xml:space="preserve" width="151.586mm" height="240.675mm" version="1.1" style="shape-rendering:geometricPrecision; text-rendering:geometricPrecision; image-rendering:optimizeQuality; fill-rule:evenodd; clip-rule:evenodd"
viewBox="0 0 85 135"
 xmlns:xlink="http://www.w3.org/1999/xlink">
 <defs>
  <style type="text/css">
   <![CDATA[
    .fil0 {fill:#DED572}
    .fil1 {fill:#FEFEFE;fill-rule:nonzero}
   ]]>
  </style>
 </defs>
 <g id="图层_x0020_1">
  <metadata id="CorelCorpID_0Corel-Layer"/>
  <path class="fil0" d="M7 0l71 0c4,0 7,3 7,7l0 121c0,4 -3,7 -7,7l-71 0c-4,0 -7,-3 -7,-7l0 -121c0,-4 3,-7 7,-7z"/>
  <path class="fil1" d="M9 78c0,0 0,0 0,0 1,0 1,-1 1,-1l0 -5c0,-1 0,-1 -1,-1 0,0 0,-1 0,-1l-1 0c0,0 0,0 -1,0 0,0 0,0 0,-1l0 0c0,-1 0,-1 0,-1 1,0 1,0 1,0l1 0c0,0 0,0 0,-1 1,0 1,0 1,0l0 -10c0,0 0,0 -1,0 0,0 0,-1 0,-1l-1 0c0,0 0,0 -1,0 0,0 0,0 0,-1l0 0c0,-1 0,-1 0,-1 1,0 1,0 1,0l18 0c0,0 0,0 0,0 1,0 1,0 1,1l0 0c0,1 0,1 -1,1 0,0 0,0 0,0l-1 0c0,0 0,1 0,1 -1,0 -1,0 -1,0l0 10c0,0 0,0 1,0 0,1 0,1 0,1l1 0c0,0 0,0 0,0 1,0 1,0 1,1l0 0c0,1 0,1 -1,1 0,0 0,0 0,0l-1 0c0,0 0,1 0,1 -1,0 -1,0 -1,1l0 8c0,0 0,0 0,1 0,0 -1,0 -1,0l0 0c-1,0 -1,0 -1,0 0,-1 0,-1 0,-1l0 -8c0,-1 -1,-1 -1,-1 0,0 0,-1 0,-1l-8 0c0,0 0,1 0,1 0,0 -1,0 -1,1l0 6c0,0 0,0 0,1 0,0 0,0 0,0l-1 1c0,0 0,1 -1,1 0,0 0,0 -1,0l-1 0c0,0 0,0 -1,0 0,-1 0,-1 0,-1l0 -1c0,0 0,0 0,-1 1,0 1,0 1,0l1 0zm3 -11c0,0 1,0 1,0 0,1 0,1 0,1l8 0c0,0 0,0 0,-1 0,0 1,0 1,0l0 -10c0,0 -1,0 -1,0 0,0 0,-1 0,-1l-8 0c0,0 0,1 0,1 0,0 -1,0 -1,0l0 10zm39 -12c0,1 0,1 0,1 0,1 -1,1 -1,1l-2 4c0,0 0,0 0,0 0,0 0,0 1,0l1 0c0,0 0,1 1,1 0,0 0,0 0,0l0 18c0,0 0,0 0,1 -1,0 -1,0 -1,0l-2 0c0,0 -1,0 -1,0 0,-1 0,-1 0,-1l0 -1c0,0 0,0 0,-1 0,0 0,0 1,0 0,0 0,0 0,0 0,0 0,-1 0,-1l0 -12c0,0 0,0 0,0 0,-1 -1,-1 -1,-1 0,0 0,0 0,1 -1,0 -1,0 -1,0l0 15c0,0 0,0 0,1 0,0 0,0 -1,0l-2 0c0,0 0,0 0,0 0,-1 0,-1 0,-1l0 -1c0,0 0,0 0,-1 0,0 0,0 0,0 0,0 0,0 1,0 0,0 0,-1 0,-1l0 -12c0,0 0,0 -1,-1 0,0 0,0 0,0 0,0 -1,0 -1,0 0,1 0,1 0,1l0 15c0,0 0,0 0,1 0,0 -1,0 -1,0l-2 0c0,0 0,0 -1,0 0,-1 0,-1 0,-1l0 -1c0,0 0,0 0,-1 1,0 1,0 1,0 0,0 0,0 0,0 0,0 0,-1 0,-1l0 -12c0,0 0,0 0,0 0,-1 0,-1 0,-1 -1,0 -1,0 -1,0 0,0 0,-1 0,-1l0 -1c0,0 0,0 0,0 0,0 1,-1 1,-1l5 0c0,0 1,0 1,0 0,0 0,0 1,0l2 -4c0,0 0,0 0,0 0,0 -1,-1 -1,-1l-8 0c-1,0 -1,0 -1,0 0,0 0,0 0,-1l0 0c0,-1 0,-1 0,-1 0,0 0,0 1,0l11 0c0,0 0,0 1,0 0,0 0,0 0,1l0 0zm-19 23c1,0 1,0 1,0 0,0 0,-1 0,-1l0 -16c0,0 0,0 0,-1 0,0 0,0 -1,0 0,0 0,0 0,0 -1,0 -1,-1 -1,-1l0 -1c0,0 0,0 1,0 0,-1 0,-1 0,-1 1,0 1,0 1,0 0,0 0,0 0,-1l0 -1c0,-1 0,-1 1,-1 0,0 0,0 0,0l1 0c0,0 1,0 1,0 0,0 0,0 0,1l0 1c0,1 0,1 0,1 0,0 1,0 1,0 0,0 0,0 0,1 0,0 0,0 0,0l0 1c0,0 0,1 0,1 0,0 0,0 0,0 0,0 -1,0 -1,0 0,1 0,1 0,1l0 16c0,0 0,1 0,1 0,0 1,0 1,0 0,0 0,0 0,0 0,1 0,1 0,1l0 1c0,0 0,0 0,1 0,0 0,0 0,0l-5 0c0,0 0,0 0,0 -1,-1 -1,-1 -1,-1l0 -1c0,0 0,0 1,-1 0,0 0,0 0,0zm24 -13c1,0 1,0 1,0 0,-1 0,-1 0,-1l0 0c0,-1 0,-1 0,-1 0,0 0,0 -1,0 0,0 0,-1 0,-1 0,0 0,0 0,-1l0 0c0,0 0,-1 0,-1 0,0 0,0 1,0l6 0c0,0 1,0 1,-1 0,0 0,0 0,0l0 -1c0,0 0,0 0,0 0,-1 -1,-1 -1,-1l-6 0c-1,0 -1,0 -1,0 0,0 0,0 0,-1l0 0c0,-1 0,-1 0,-1 0,0 0,0 1,0l15 0c0,0 0,0 0,-1 0,0 1,0 1,0 0,0 0,0 0,0 0,0 0,0 1,0l0 0c1,0 1,0 1,0 0,0 0,0 0,0 0,1 0,1 0,1 0,0 0,1 0,1l-1 1c0,0 -1,0 -1,0 0,0 -1,0 -1,0l-4 0c0,0 -1,0 -1,1 0,0 0,0 0,0l0 1c0,0 0,0 0,0 0,1 1,1 1,1l6 0c1,0 1,0 1,0 0,0 0,1 0,1l0 0c0,1 0,1 0,1 0,0 0,1 0,1 -1,0 -1,0 -1,0 0,0 0,0 0,1l0 0c0,0 0,0 0,1 0,0 0,0 1,0 0,0 0,0 0,0 0,0 0,1 0,1l0 1c0,0 0,0 0,0 0,1 0,1 -1,1l0 0c0,0 0,0 -1,0 0,-1 0,-1 0,-1l-1 -1c0,0 -1,0 -1,-1 0,0 0,0 0,-1l0 0c0,-1 0,-1 0,-1 0,0 -1,0 -1,0l-2 0c0,0 -1,0 -1,0 0,0 0,0 0,1l0 3c0,0 0,0 0,1 -1,0 -1,0 -1,0l-1 0c0,0 0,0 -1,0 0,-1 0,-1 0,-1l0 -3c0,-1 0,-1 0,-1 0,0 -1,0 -1,0l-2 0c0,0 -1,0 -1,0 0,0 0,0 0,1l0 0c0,1 0,1 0,1 0,1 -1,1 -1,1l-1 1c0,0 0,0 0,1 -1,0 -1,0 -1,0l0 0c-1,0 -1,0 -1,-1 0,0 0,0 0,0l0 -1c0,0 0,-1 0,-1 0,0 0,0 0,0zm15 8c0,0 0,-1 0,-1 0,0 0,0 -1,0l-8 0c-1,0 -1,0 -1,0 0,0 0,1 0,1l0 5c0,0 0,0 -1,1 0,0 0,0 0,0l-1 1c0,0 0,1 -1,1 0,0 0,0 -1,0l0 0c-1,0 -1,0 -1,0 0,-1 0,-1 0,-1l0 -1c0,0 0,0 0,-1 0,0 0,0 1,0l0 0c0,0 0,0 1,0 0,0 0,-1 0,-1l0 -4c0,0 0,-1 0,-1 -1,0 -1,0 -1,0l0 0c-1,0 -1,0 -1,-1 0,0 0,0 0,0l0 -1c0,0 0,0 0,-1 0,0 0,0 1,0l16 0c0,0 1,0 1,0 0,1 0,1 0,1l0 2c0,0 0,0 0,1 0,0 1,0 1,0 0,0 0,0 0,0 0,0 0,1 0,1l0 4c0,0 0,0 0,1 0,0 0,0 0,0l-1 1c0,0 -1,1 -1,1 0,0 -1,0 -1,0l-8 0c0,0 0,0 0,0 -1,-1 -1,-1 -1,-1l0 -1c0,0 0,0 1,-1 0,0 0,0 0,0l8 0c0,0 0,0 0,0 0,0 1,-1 1,-1l0 -1c0,0 0,0 -1,0 0,-1 0,-1 0,-1 0,0 0,0 0,0 -1,0 -1,0 -1,-1l0 -1z"/>
 </g>
</svg>
