<?xml version="1.0" encoding="UTF-8"?>
<!DOCTYPE svg PUBLIC "-//W3C//DTD SVG 1.1//EN" "http://www.w3.org/Graphics/SVG/1.1/DTD/svg11.dtd">
<!-- Creator: CorelDRAW X8 -->
<svg xmlns="http://www.w3.org/2000/svg" xml:space="preserve" width="151.034mm" height="240.245mm" version="1.1" style="shape-rendering:geometricPrecision; text-rendering:geometricPrecision; image-rendering:optimizeQuality; fill-rule:evenodd; clip-rule:evenodd"
viewBox="0 0 81 129"
 xmlns:xlink="http://www.w3.org/1999/xlink">
 <defs>
  <style type="text/css">
   <![CDATA[
    .fil0 {fill:#4DB5F2}
    .fil1 {fill:#FEFEFE;fill-rule:nonzero}
   ]]>
  </style>
 </defs>
 <g id="图层_x0020_1">
  <metadata id="CorelCorpID_0Corel-Layer"/>
  <path class="fil0" d="M6 0l69 0c4,0 6,3 6,6l0 117c0,4 -2,6 -6,6l-69 0c-3,0 -6,-2 -6,-6l0 -117c0,-3 3,-6 6,-6z"/>
  <path class="fil1" d="M31 67l0 7c0,0 0,0 0,0 0,1 0,1 -1,1l-4 0c0,0 0,0 -1,-1 0,0 0,0 0,0l0 -1c0,0 0,0 0,0 1,0 1,0 1,0l3 0c0,0 0,0 0,-1 0,0 0,0 0,0l0 -5c0,-1 0,-1 0,-1 0,0 0,0 0,0l-4 0c0,0 0,0 -1,0 0,-1 0,-1 0,-1l0 0c0,-1 0,-1 0,-1 1,0 1,0 1,0l4 0c0,0 0,0 0,0 0,-1 0,-1 0,-1l0 -5c0,-1 0,-1 0,-1 0,0 0,0 0,0l-4 0c0,0 0,0 -1,0 0,-1 0,-1 0,-1l0 -1c0,0 0,0 0,0 1,0 1,0 1,0l6 0c0,0 0,0 1,0 0,0 0,0 0,0l0 1c0,0 0,0 0,1 0,0 0,0 0,0 -1,0 -1,0 -1,0 0,0 0,0 0,1l0 5c0,0 0,0 0,1 0,0 0,0 1,0 0,0 0,0 0,0 0,0 0,0 0,1l0 0c0,0 0,0 0,1 0,0 0,0 0,0 -1,0 -1,0 -1,0 0,0 0,0 0,1zm1 6c0,0 0,0 0,0 0,0 0,0 0,0 0,0 0,0 1,-1 0,0 0,0 0,0l1 -5c0,0 0,-1 1,-1 0,0 0,-1 0,-1l0 -4c0,-1 0,-1 0,-1 0,0 0,0 0,0l0 0c1,0 1,0 1,0 0,0 0,0 0,1l0 4c0,0 0,1 0,1 0,0 0,1 0,1l2 5c0,0 0,0 0,0 0,1 0,1 0,1 0,0 0,0 1,0 0,0 0,0 0,0l0 1c0,0 0,0 -1,1 0,0 0,0 0,0l-1 0c0,0 0,0 0,0 0,-1 -1,-1 -1,-1l0 -3c-1,-1 -1,-1 -1,-1 0,0 0,0 0,1l-1 3c0,0 0,0 0,1 0,0 -1,0 -1,0l0 0c-1,0 -1,0 -1,0 0,-1 0,-1 0,-1l0 -1zm1 -18c1,0 1,0 1,0 0,0 0,0 0,0 0,1 0,1 0,1 1,0 1,0 1,0l3 0c0,0 0,0 0,0 1,0 1,1 1,1l0 8c0,0 0,0 -1,1 0,0 0,0 0,0l0 0c0,0 -1,0 -1,0 0,-1 0,-1 0,-1l0 -6c0,0 0,0 0,-1 0,0 -1,0 -1,0l-3 0c0,0 0,0 0,0 0,0 -1,0 -1,-1l0 -2c0,0 1,0 1,0 0,0 0,0 0,0l0 0zm-4 4l0 3c0,1 0,1 -1,1 0,0 0,0 0,0l-3 0c0,0 0,0 0,0 -1,0 -1,0 -1,-1l0 -3c0,-1 0,-1 1,-1 0,0 0,0 0,0l3 0c0,0 0,0 0,0 1,0 1,0 1,1zm0 12c0,0 0,1 -1,1 0,0 0,0 0,0l-3 0c0,0 0,0 0,0 -1,0 -1,-1 -1,-1l0 -4c0,0 0,0 1,0 0,0 0,0 0,0l3 0c0,0 0,0 0,0 1,0 1,0 1,0l0 4zm-2 -11c0,0 0,0 0,0 0,0 0,0 -1,0 0,0 0,0 0,0 0,0 0,0 0,0l0 1c0,0 0,0 0,0 0,0 0,0 0,0 1,0 1,0 1,0 0,0 0,0 0,0l0 -1zm0 9c0,0 0,0 0,0 0,0 0,-1 -1,-1 0,0 0,1 0,1 0,0 0,0 0,0l0 0c0,1 0,1 0,1 0,0 0,0 0,0 1,0 1,0 1,0 0,0 0,0 0,-1l0 0zm24 -8c0,0 0,0 0,0 -1,1 -1,1 -1,1l0 1c0,0 0,0 1,1 0,0 0,0 0,0l1 0c0,0 0,0 0,0 1,0 1,0 1,1l1 2c0,1 0,1 0,1 0,0 0,0 0,0 0,0 0,0 0,0 0,0 1,0 1,-1l0 -4c0,0 0,0 0,0 0,-1 0,-1 0,-1l1 0c0,0 0,0 0,1 0,0 1,0 1,0l0 5c0,0 -1,0 -1,0 0,1 0,1 0,1l-1 1c0,0 0,0 0,0 0,0 0,0 0,0 0,0 0,0 -1,0 0,0 0,1 1,1l0 1c0,0 0,0 0,0 0,1 1,1 1,1 0,0 0,0 0,0 0,0 1,0 1,0l0 1c0,0 -1,0 -1,0 0,1 0,1 0,1l-2 0c0,0 0,0 0,0 -1,-1 -1,-1 -1,-1l-2 -7c0,-1 0,-1 0,-1 0,0 0,0 0,0 0,0 0,0 -1,0 0,0 0,0 0,1l0 5c0,0 0,0 1,0 0,1 0,1 0,1l0 0c1,0 1,0 1,0 0,0 0,0 0,0l0 1c0,0 0,0 0,0 0,1 0,1 -1,1l0 0c-1,0 -1,0 -1,0 0,-1 0,-1 -1,-1l0 0c0,0 0,-1 0,-1 0,0 -1,0 -1,-1l0 -13c0,0 1,0 1,0 0,0 0,0 0,0l5 0c0,0 0,0 0,0 0,0 1,0 1,0 0,0 0,-1 0,-1 0,0 0,0 0,0l1 0c0,0 0,0 0,0 0,0 1,1 1,1 0,0 -1,0 -1,1 0,0 0,0 0,0l-1 1c0,0 0,0 0,0 0,0 -1,0 -1,0l-3 0zm4 -6c0,0 0,0 0,0 0,0 0,0 0,0l1 0c0,0 0,0 0,0 0,0 1,0 1,0 0,1 -1,1 -1,1 0,0 0,0 0,1l-1 0c0,0 0,0 0,1 0,0 -1,0 -1,0l-5 0c-1,0 -1,0 -1,0 0,0 0,0 0,1l0 13c0,1 0,1 0,1 0,0 0,1 -1,1l0 0c0,0 0,0 -1,1 0,0 0,0 0,0 0,0 0,0 -1,-1 0,0 0,0 0,0l0 -1c0,0 0,0 0,0 0,0 1,0 1,0 0,0 0,0 0,-1 0,0 0,0 0,0l0 -16c0,0 0,0 0,0 0,0 0,0 0,0l8 0c0,0 0,0 0,0 0,-1 1,-1 1,-1zm-13 18c0,0 0,0 0,0 0,0 0,0 0,0 0,0 0,0 0,-1 1,0 1,0 1,0l0 -8c0,0 0,-1 0,-1 0,0 0,0 0,0l1 0c0,0 0,0 0,0 1,0 1,1 1,1l0 8c0,1 0,1 -1,1 0,0 0,0 0,1l0 0c-1,0 -1,0 -1,1 0,0 0,0 -1,0 0,0 0,0 0,-1 0,0 0,0 0,0l0 -1zm1 -13c0,-1 0,-1 1,-1 0,0 0,0 0,1l0 0c1,0 1,0 1,0 0,1 0,1 -1,1l0 0c0,0 0,1 0,1 -1,0 -1,-1 -1,-1l0 0c0,0 -1,0 -1,-1 0,0 1,0 1,0l0 0zm0 -5c0,0 0,0 1,0 0,0 0,0 0,0l0 1c1,0 1,0 1,0 0,0 0,1 -1,1l0 0c0,0 0,0 0,0 -1,0 -1,0 -1,0l0 0c0,0 -1,-1 -1,-1 0,0 1,0 1,0l0 -1zm23 12c0,1 0,1 0,1 -1,0 -1,1 -1,1l-1 1c0,1 0,1 0,1 0,0 0,1 0,1l0 0c1,0 1,0 1,1 0,0 0,0 0,0 0,0 0,0 1,0 0,0 0,0 0,0l0 1c0,0 0,0 -1,0 0,1 0,1 0,1l-1 0c0,0 0,0 0,0 0,-1 -1,-1 -1,-1l0 0c0,0 0,-1 0,-1 0,0 -1,1 -1,1l0 0c0,0 0,0 0,1 -1,0 -1,0 -1,0l0 0c-1,0 -1,0 -1,-1 0,0 0,0 0,0l0 -1c0,0 0,0 0,0 0,0 0,0 0,0 0,0 0,0 1,0 0,-1 0,-1 0,-1l0 0c0,0 0,-1 0,-1 0,0 0,0 0,-1l-1 -1c0,0 0,-1 0,-1 0,0 0,0 0,-1l0 -8c0,0 0,0 0,-1 0,0 0,0 1,0l0 0c0,0 0,0 1,0 0,1 0,1 0,1l0 8c0,0 0,0 0,1 0,0 0,0 0,0l0 0c0,1 1,1 1,1 0,0 0,0 0,-1l0 0c0,0 0,0 1,0 0,-1 0,-1 0,-1l0 -9c0,-1 0,-1 -1,-1 0,0 0,0 0,0l-2 0c-1,0 -1,0 -1,0 0,-1 0,-1 0,-1l0 -1c0,0 0,0 0,0 0,0 0,0 1,0l4 0c0,0 0,0 0,0 1,0 1,0 1,0l0 12zm0 -10c0,0 0,-1 0,-1 1,0 1,0 1,0l4 0c0,0 0,0 0,0 0,0 0,0 0,-1 0,0 1,0 1,0 0,0 0,0 0,0l1 0c0,0 0,0 0,0 0,0 1,0 1,0 0,1 0,1 0,1 0,0 0,0 0,0 0,0 0,0 0,0 0,0 0,1 0,1l0 0c0,0 0,1 0,1 0,0 0,0 0,0 0,0 0,0 0,0 0,0 0,1 0,1l0 15c0,0 -1,0 -1,0 0,1 0,1 0,1l-4 0c0,0 -1,0 -1,-1 0,0 0,0 0,0l0 -1c0,0 0,0 0,0 0,0 1,0 1,0l2 0c0,0 0,0 0,-1 0,0 0,0 0,0l0 -13c0,0 0,-1 0,-1 0,0 0,0 0,0l-4 0c0,0 0,0 -1,0 0,0 0,0 0,-1l0 0zm3 3c0,0 0,0 0,0 0,0 0,0 0,1l0 7c0,0 0,0 0,1 1,0 1,0 1,0 0,0 0,0 0,0 0,0 0,0 0,1l0 0c0,0 0,0 0,1 0,0 0,0 0,0l-2 0c0,0 0,0 -1,0 0,-1 0,-1 0,-1l0 -9c0,-1 0,-1 0,-1 1,0 1,0 1,0l1 0z"/>
  <path class="fil1" d="M9 74c-1,0 -2,0 -2,-1l0 -8 0 -8c0,-1 1,-2 2,-2 1,0 1,1 1,2l0 7 0 0 7 -8c1,-1 1,-1 2,-1 1,0 2,1 1,2l-5 6 6 9c1,2 0,2 -1,2 -1,0 -1,0 -2,-1l-5 -8 -3 4 0 4c0,1 0,1 -1,1z"/>
 </g>
</svg>
