<?xml version="1.0" encoding="UTF-8"?>
<!DOCTYPE svg PUBLIC "-//W3C//DTD SVG 1.1//EN" "http://www.w3.org/Graphics/SVG/1.1/DTD/svg11.dtd">
<!-- Creator: CorelDRAW X8 -->
<svg xmlns="http://www.w3.org/2000/svg" xml:space="preserve" width="188.742mm" height="78.74mm" version="1.1" style="shape-rendering:geometricPrecision; text-rendering:geometricPrecision; image-rendering:optimizeQuality; fill-rule:evenodd; clip-rule:evenodd"
viewBox="0 0 118 49"
 xmlns:xlink="http://www.w3.org/1999/xlink">
 <defs>
  <style type="text/css">
   <![CDATA[
    .fil0 {fill:#FE87C1}
    .fil1 {fill:#FEFEFE;fill-rule:nonzero}
   ]]>
  </style>
 </defs>
 <g id="图层_x0020_1">
  <metadata id="CorelCorpID_0Corel-Layer"/>
  <path class="fil0" d="M4 0l110 0c2,0 4,2 4,4l0 41c0,3 -2,4 -4,4l-110 0c-2,0 -4,-1 -4,-4l0 -41c0,-2 2,-4 4,-4z"/>
  <path class="fil1" d="M57 20c0,0 -1,0 -1,0 0,1 0,1 -1,1l0 0c-1,0 -1,0 -1,-1 0,0 0,0 0,0l0 -1c0,0 0,0 -1,0 0,-1 0,-1 0,-1l-13 0c0,0 -1,0 -1,1 0,0 0,0 0,0l0 1c0,0 0,0 0,0 -1,1 -1,1 -1,1l-1 0c0,0 0,0 -1,-1 0,0 0,0 0,0l0 -3c0,-1 0,-1 0,-1 1,0 1,-1 1,-1l18 0c1,0 1,1 1,1 0,0 1,0 1,1l0 3zm0 -9c0,0 -1,1 -1,1 0,0 0,1 0,1l-1 1c0,0 0,0 -1,0 0,0 0,0 -1,0l-16 0c0,0 0,0 -1,0 0,0 0,0 0,-1l0 0c0,0 0,-1 0,-1 1,0 1,0 1,0l16 0c0,0 0,0 0,0 1,-1 1,-1 1,-1 0,0 0,0 0,0 0,0 0,-1 1,-1l0 0c1,0 1,1 1,1 0,0 1,0 1,0zm-8 19c0,0 -1,0 -1,0 0,0 0,1 0,1l0 4c0,0 0,0 0,1 0,0 1,0 1,0l6 0c1,0 1,0 1,0 0,0 1,1 1,1l0 1c0,0 -1,0 -1,0 0,1 0,1 -1,1l-18 0c0,0 0,0 -1,-1 0,0 0,0 0,0l0 -1c0,0 0,-1 0,-1 1,0 1,0 1,0l7 0c0,0 0,0 1,0 0,-1 0,-1 0,-1l0 -4c0,0 0,-1 0,-1 -1,0 -1,0 -1,0l-7 0c0,0 0,0 -1,0 0,-1 0,-1 0,-1l0 -1c0,0 0,0 0,-1 1,0 1,0 1,0l18 0c1,0 1,0 1,0 0,1 1,1 1,1l0 1c0,0 -1,0 -1,1 0,0 0,0 -1,0l-6 0zm-5 -8c0,0 0,1 0,1 -1,0 -1,1 -1,1l-1 1c0,0 0,0 -1,0 0,0 0,0 -1,0l-3 0c0,0 0,0 -1,0 0,0 0,0 0,-1l0 0c0,-1 0,-1 0,-1 1,0 1,0 1,0l3 0c0,0 0,-1 1,-1 0,0 0,0 0,-1l0 0c0,0 0,0 0,-1 0,0 1,0 1,0l1 0c0,0 0,0 0,0 1,1 1,1 1,1l0 1zm13 2c0,1 -1,1 -1,1 0,0 0,0 -1,0l-3 0c0,0 0,0 -1,0 0,0 0,0 -1,0l0 -1c-1,0 -1,-1 -1,-1 0,0 0,-1 0,-1l0 -1c0,0 0,0 0,-1 0,0 1,0 1,0l1 0c0,0 0,0 0,0 1,1 1,1 1,1l0 0c0,1 0,1 0,1 0,0 1,1 1,1l2 0c1,0 1,0 1,0 0,0 1,0 1,1l0 0zm20 8c0,0 0,1 0,1 0,0 0,1 0,1l-1 1c0,0 -1,0 -1,0 0,0 -1,0 -1,0l-7 0c0,0 0,0 0,0 -1,0 -1,0 -1,-1l0 -15c0,-1 0,-1 1,-1 0,0 0,0 0,0l9 0c1,0 1,0 1,0 0,0 0,0 0,1l0 13zm-15 -20c-1,0 -1,0 -1,-1 0,0 1,0 1,0 0,0 0,-1 0,-1l1 0c1,0 1,1 1,1 0,0 0,0 0,0 0,0 0,1 1,1 0,0 0,0 0,0l16 0c0,0 0,0 1,0 0,0 0,1 0,1l0 22c0,1 0,1 0,1 0,1 -1,1 -1,1l-1 1c0,0 0,0 0,1 -1,0 -1,0 -1,0l-2 0c0,0 0,0 0,-1 -1,0 -1,0 -1,0l0 -1c0,0 0,-1 1,-1 0,0 0,0 0,0l1 0c0,0 1,0 1,0 0,-1 0,-1 0,-1l0 -19c0,-1 0,-1 0,-1 0,0 -1,0 -1,0l-13 0c-1,0 -1,0 -1,0 -1,-1 -1,-1 -1,-1l-1 -1c0,0 0,0 0,-1zm-1 6c0,0 1,-1 1,-1 0,0 0,0 0,0l1 0c1,0 1,0 1,0 0,0 0,1 0,1l0 20c0,0 0,0 0,0 0,1 0,1 -1,1l-1 0c0,0 0,0 0,-1 0,0 -1,0 -1,0l0 -20zm12 14c1,0 1,0 1,0 0,0 0,0 0,-1l0 -2c0,0 0,-1 0,-1 0,0 0,0 -1,0l-3 0c0,0 0,0 0,0 -1,0 -1,1 -1,1l0 2c0,1 0,1 1,1 0,0 0,0 0,0l3 0zm-3 -11c0,0 0,0 0,0 -1,0 -1,0 -1,1l0 2c0,0 0,1 1,1 0,0 0,0 0,0l3 0c1,0 1,0 1,0 0,0 0,-1 0,-1l0 -2c0,-1 0,-1 0,-1 0,0 0,0 -1,0l-3 0z"/>
 </g>
</svg>
