<?xml version="1.0" encoding="UTF-8"?>
<!DOCTYPE svg PUBLIC "-//W3C//DTD SVG 1.1//EN" "http://www.w3.org/Graphics/SVG/1.1/DTD/svg11.dtd">
<!-- Creator: CorelDRAW X8 -->
<svg xmlns="http://www.w3.org/2000/svg" xml:space="preserve" width="171.326mm" height="77.9mm" version="1.1" style="shape-rendering:geometricPrecision; text-rendering:geometricPrecision; image-rendering:optimizeQuality; fill-rule:evenodd; clip-rule:evenodd"
viewBox="0 0 105 48"
 xmlns:xlink="http://www.w3.org/1999/xlink">
 <defs>
  <style type="text/css">
   <![CDATA[
    .fil0 {fill:#FEB079}
    .fil1 {fill:#FEFEFE;fill-rule:nonzero}
   ]]>
  </style>
 </defs>
 <g id="图层_x0020_1">
  <metadata id="CorelCorpID_0Corel-Layer"/>
  <path class="fil0" d="M8 0l89 0c4,0 8,2 8,4l0 40c0,2 -4,4 -8,4l-89 0c-4,0 -8,-2 -8,-4l0 -40c0,-2 4,-4 8,-4z"/>
  <path class="fil1" d="M36 20c0,0 0,0 0,-1 0,0 0,0 0,0l1 -1c0,0 0,0 0,0 0,0 1,0 1,0l0 1c0,0 0,0 0,0 0,1 0,1 0,1l0 0c0,0 -1,1 -1,1 0,0 0,-1 0,-1l-1 0zm13 -6c0,0 0,0 0,-1 0,0 0,0 0,0l1 0c0,0 0,0 1,1 0,0 0,0 0,0 0,0 0,0 0,0 -1,1 -1,1 -1,1l0 1c-1,0 -1,0 -1,0 0,0 -1,0 -1,0l-8 0c0,0 0,0 0,0 0,0 0,0 0,-1l0 0c0,0 0,-1 0,-1 0,0 0,0 0,0l8 0c0,0 0,0 0,0 1,0 1,0 1,0zm-11 2c0,0 -1,0 -1,0 0,0 0,0 0,0l-1 0c0,-1 0,-1 0,-1 0,0 0,0 0,-1l1 0c0,0 0,0 0,0 0,0 1,0 1,0l0 0c0,1 0,1 0,1 0,0 0,0 0,1l0 0zm5 10c-1,0 -1,1 -1,1 0,0 0,0 0,0 0,0 0,0 0,1 0,0 0,0 1,0l1 0c1,0 1,0 1,0 0,0 0,0 1,0l0 1c0,0 0,0 0,0 1,0 1,0 1,0l1 0c0,0 0,0 0,0 1,0 1,0 1,-1l0 0c0,0 0,0 0,0 0,0 0,-1 0,-1l1 0c0,0 0,1 1,1 0,0 0,0 0,0l0 1c0,0 0,0 0,1 -1,0 -1,0 -1,0l0 1c-1,0 -1,0 -1,0 0,0 0,0 -1,0 0,0 0,0 0,0 0,1 0,1 0,1 0,0 0,0 1,0 0,0 0,0 0,0l1 0c0,0 0,0 1,0 0,1 0,1 0,1l0 1c0,0 0,0 0,0 -1,0 -1,0 -1,0l-2 0c0,0 0,0 -1,0 0,0 0,0 0,0l-3 -4c0,0 0,0 0,0 0,0 -1,0 -1,0l0 0c-1,0 -1,0 -1,0 0,0 0,0 0,0l0 1c0,1 0,1 0,1 0,0 0,0 1,0l1 0c1,0 1,0 1,0 0,1 0,1 0,1l0 1c0,0 0,0 0,0 0,0 0,0 -1,0l-2 0c0,0 0,0 -1,0 0,0 0,0 0,0l-1 -1c0,0 0,0 0,0 0,-1 0,-1 0,-1l0 -14c0,0 0,-1 0,-1 0,0 0,0 0,0l10 0c0,0 0,0 1,0 0,0 0,1 0,1l0 6c0,0 0,0 0,1 -1,0 -1,0 -1,0l0 1c-1,0 -1,0 -1,0 0,0 -1,0 -1,0l-5 0zm5 -2c0,0 0,0 0,0 1,0 1,0 1,0 0,-1 0,-1 -1,-1 0,0 0,0 0,0l-5 0c-1,0 -1,0 -1,0 0,0 0,0 0,1 0,0 0,0 0,0 0,0 0,0 1,0l5 0zm-5 -5c-1,0 -1,0 -1,0 0,1 0,1 0,1l0 0c0,0 0,0 0,1 0,0 0,0 1,0l5 0c0,0 0,0 0,0 1,-1 1,-1 1,-1l0 0c0,0 0,0 -1,-1 0,0 0,0 0,0l-5 0zm-7 14c0,0 0,0 0,-1 0,0 0,0 0,0 0,0 0,0 0,0 0,0 0,0 0,-1l0 -8c0,0 0,-1 0,-1 1,0 1,0 1,0l0 0c1,0 1,0 1,0 0,0 0,1 0,1l0 9c0,0 0,0 0,1 0,0 0,0 0,0l-1 1c0,0 0,0 0,0 -1,0 -1,0 -1,0 0,0 0,0 0,0 0,0 0,0 0,0l0 -1zm31 -12l-9 0c0,0 0,-1 0,-1 0,0 0,0 0,0l0 -6c0,0 0,0 0,0 0,-1 1,-1 1,-1l10 0c0,0 0,0 0,1 0,0 0,0 0,0l0 4c0,0 0,1 0,1 0,0 0,0 0,1l0 0c-1,0 -1,0 -1,0 0,0 -1,1 -1,1zm-7 11c0,0 0,0 0,0 1,0 1,0 1,0 0,0 0,0 0,0 0,0 0,0 -1,0 0,0 0,0 0,0l-1 0c0,0 -1,0 -1,-1 0,0 0,0 0,0l0 -1c0,0 0,0 0,0 0,0 1,0 1,0l1 0c0,0 0,0 0,0 1,0 1,0 1,0l2 1c0,0 0,0 0,0 1,0 1,0 1,0l3 -2c0,0 0,0 0,0 0,0 0,0 0,0 0,0 0,0 0,0l-8 0c0,0 -1,0 -1,0 0,0 0,0 0,-1l0 0c0,0 0,0 0,-1 0,0 1,0 1,0l10 0c0,0 0,0 0,0 0,1 0,1 0,1l0 1c0,1 0,1 0,1 0,0 0,1 0,1l-2 1c-1,0 -1,0 0,0 0,0 0,0 0,0 0,0 1,0 1,0l1 0c0,0 0,0 0,0 0,1 0,1 0,1l0 1c0,0 0,0 0,0 0,0 0,0 0,0l-2 0c0,0 0,0 0,0 -1,0 -1,0 -1,0l-2 -1c0,0 0,0 0,0 -1,0 -1,0 -1,0l-1 1c-1,0 -1,0 -1,0 0,0 -1,0 -1,0l-1 0c0,0 -1,0 -1,0 0,0 0,0 0,0l0 -1c0,0 0,0 0,-1 0,0 1,0 1,0l1 0zm-2 -10c0,0 0,-1 0,-1 0,0 1,0 1,0l10 0c0,0 0,0 0,0 0,0 0,1 0,1l0 2c0,1 0,1 0,1 0,0 0,1 0,1l0 0c-1,0 -1,0 -1,1 0,0 -1,0 -1,0l-9 0c0,0 0,0 0,-1 0,0 0,0 0,0l0 -4zm-4 11c0,0 0,0 0,-1 0,0 0,0 1,0 0,0 0,0 0,0 0,0 0,0 0,-1l0 -8c0,0 0,-1 0,-1 0,0 0,0 1,0l0 0c0,0 1,0 1,0 0,0 0,1 0,1l0 9c0,0 0,0 0,0 0,1 0,1 -1,1l0 1c0,0 -1,0 -1,0 0,0 0,0 0,0 0,0 -1,0 -1,0 0,0 0,0 0,-1l0 0zm7 -18c-1,0 -1,0 -1,0 0,1 0,1 0,1 0,0 0,0 0,0 0,0 0,0 1,0l6 0c0,0 0,0 0,0 0,0 1,0 1,0 0,0 -1,0 -1,-1 0,0 0,0 0,0l-6 0zm6 4c0,0 0,0 0,0 0,-1 1,-1 1,-1 0,0 -1,0 -1,0 0,0 0,0 0,0l-6 0c-1,0 -1,0 -1,0 0,0 0,0 0,0 0,0 0,0 0,1 0,0 0,0 1,0l6 0zm-11 -3c0,0 0,0 0,0 0,0 -1,0 -1,0l0 -1c0,0 0,0 0,0 0,0 0,-1 0,-1l0 0c0,0 1,0 1,0 0,0 0,0 0,0l1 0c0,0 0,1 0,1 0,0 0,0 0,0l-1 1zm-1 4c0,0 0,-1 0,-1 0,0 0,0 0,0l0 -1c0,0 1,0 1,0 0,0 0,0 0,0l1 1c0,0 0,0 0,0 0,0 0,1 0,1l-1 0c0,0 0,0 0,0 0,0 -1,0 -1,0l0 0zm8 5c0,0 1,0 1,0 0,0 0,0 0,0 0,-1 1,-1 1,-1l0 0c0,0 -1,-1 -1,-1 0,0 0,0 0,0 0,0 -1,0 -1,0 0,0 0,1 0,1l0 0c0,0 0,0 0,1zm-2 -2c-1,0 -1,0 -1,0 0,0 0,1 0,1l0 0c0,0 0,0 0,1 0,0 0,0 1,0 0,0 0,0 0,0 0,-1 0,-1 0,-1l0 0c0,0 0,-1 0,-1 0,0 0,0 0,0zm7 1c0,0 -1,-1 -1,-1 0,0 0,0 0,0 0,0 0,0 -1,0 0,0 0,1 0,1l0 0c0,0 0,0 0,1 1,0 1,0 1,0 0,0 0,0 0,0 0,-1 1,-1 1,-1l0 0z"/>
 </g>
</svg>
