<?xml version="1.0" encoding="UTF-8"?>
<!DOCTYPE svg PUBLIC "-//W3C//DTD SVG 1.1//EN" "http://www.w3.org/Graphics/SVG/1.1/DTD/svg11.dtd">
<!-- Creator: CorelDRAW X8 -->
<svg xmlns="http://www.w3.org/2000/svg" xml:space="preserve" width="87.0812mm" height="87.2302mm" version="1.1" style="shape-rendering:geometricPrecision; text-rendering:geometricPrecision; image-rendering:optimizeQuality; fill-rule:evenodd; clip-rule:evenodd"
viewBox="0 0 28 28"
 xmlns:xlink="http://www.w3.org/1999/xlink">
 <defs>
  <style type="text/css">
   <![CDATA[
    .str0 {stroke:#332C2B;stroke-width:0.0640187}
    .fil2 {fill:#FEFEFE}
    .fil0 {fill:#B6B6B7}
    .fil1 {fill:#FEFEFE;fill-rule:nonzero}
   ]]>
  </style>
 </defs>
 <g id="图层_x0020_1">
  <metadata id="CorelCorpID_0Corel-Layer"/>
  <path class="fil0 str0" d="M26 18l-24 0c-1,0 -2,1 -2,2l0 6c0,1 1,2 2,2l24 0c1,0 2,-1 2,-2l0 -6c0,-1 -1,-2 -2,-2z"/>
  <path class="fil1" d="M13 23c0,0 0,1 0,1 0,0 0,0 0,0l0 0c0,0 0,0 0,0 0,0 0,0 0,0l-1 0c0,0 0,0 0,0 0,0 0,0 0,0l0 0c0,0 0,0 0,0 0,0 0,0 0,0l1 0c0,0 0,0 0,-1 0,0 0,0 0,0l0 0c0,0 0,0 0,0 0,0 0,0 0,0l0 0c0,0 0,0 0,0 0,0 0,0 0,0l0 0zm-3 0c0,0 0,0 0,0 0,0 0,0 0,0l0 0c0,0 0,0 0,0 0,1 0,1 0,1l1 0c0,0 0,0 0,0 0,0 0,0 0,0l0 0c0,0 0,0 0,0 0,0 0,0 0,0l-1 0c0,0 0,0 0,0 0,0 0,0 0,0l0 0c0,0 0,0 -1,0 0,0 0,-1 0,-1l0 0c0,0 0,0 1,0 0,0 0,0 0,0l0 0zm0 3c0,0 0,0 0,0 0,0 0,0 0,0l0 0c0,0 0,0 0,0 -1,0 -1,0 -1,0l0 0c0,0 0,0 1,-1 0,0 0,0 0,0l0 0c0,0 0,0 0,0 0,0 0,0 0,0l0 0c0,0 0,0 0,-1 0,0 0,0 0,0l0 0c0,0 0,0 0,0 0,1 0,1 0,1l0 0c0,0 0,0 0,0 0,1 0,1 0,1l0 0zm3 -3c0,0 0,0 0,0 0,0 0,0 0,0l-1 0c0,0 0,0 0,0 0,0 0,0 0,0l0 2c0,0 0,0 0,0 0,1 0,1 0,1l-1 0c0,0 0,0 0,0 0,0 0,0 0,0l0 0c0,0 0,0 0,0 0,0 0,0 0,0l0 0c0,0 0,0 0,-1 0,0 0,0 0,0 0,0 0,0 0,0 0,0 0,0 0,0l0 -2c0,0 0,0 0,0 0,0 0,0 0,0l-1 0c0,0 0,0 0,0 -1,0 -1,0 -1,0l0 0c0,-1 0,-1 1,-1 0,0 0,0 0,0l2 0c1,0 1,0 1,0 0,0 0,0 0,0 0,0 0,0 0,0 0,0 0,0 -1,0l-2 0c0,0 0,0 0,0 -1,0 -1,0 -1,0l0 0c0,0 0,-1 1,-1 0,0 0,0 0,0l2 0c1,0 1,0 1,0 0,0 0,0 0,0 0,0 0,0 0,0 0,0 0,0 -1,0l-2 0c0,0 0,0 0,0 -1,0 -1,0 -1,0l0 0c0,0 0,-1 1,-1 0,0 0,0 0,0l3 0c0,0 0,0 0,0 0,0 0,1 0,1l0 1c0,0 0,0 0,0 0,0 0,0 0,0 0,0 0,0 0,0 0,0 0,0 0,1l0 0zm0 3c0,0 0,0 0,0 0,0 0,0 0,0l0 0c0,0 0,0 -1,-1 0,0 0,0 0,0l0 0c0,0 0,0 1,-1 0,0 0,0 0,0l0 0c0,0 0,0 0,0 0,1 0,1 0,1l0 0c0,0 0,0 0,0 0,0 0,0 0,0l0 0c0,0 0,0 0,0 0,1 0,1 0,1l0 0c0,0 0,0 0,0 0,0 0,0 0,0l0 0zm3 -5c0,0 0,0 0,0 0,0 0,0 0,0l1 0c0,0 0,0 0,0 0,0 0,0 0,0l0 0c0,0 0,0 0,0 0,0 0,0 0,0l-1 0c0,0 0,0 0,1 0,0 0,0 0,0l0 0c0,0 0,0 0,0 0,0 0,0 0,0l1 0c0,0 0,0 0,0 0,0 0,0 0,0l0 0c0,0 0,1 0,1 0,0 0,0 0,0l-1 0c0,0 0,0 0,0 0,0 0,0 0,0l0 0c0,0 0,0 0,0 0,0 0,0 0,0l1 0c0,0 0,0 0,0 0,0 0,0 0,0l0 2c0,0 0,0 0,0 0,0 0,0 0,0l0 1c0,0 -1,0 -1,0 0,0 0,0 0,0 0,0 0,0 0,0 0,0 0,0 0,0l0 -1c0,0 0,0 0,0 0,0 0,0 0,0 0,0 0,0 0,0 0,0 0,0 0,0l0 -1c0,0 0,0 0,0 0,0 0,0 0,0 0,0 0,0 0,0 0,0 0,0 0,0l0 2c0,0 0,0 0,0 0,0 0,0 0,0l0 0c-1,0 -1,0 -1,0 0,0 0,0 0,0l0 -2c0,0 0,0 0,0 0,0 0,0 0,0 0,0 0,0 0,0 0,0 0,0 0,0l0 2c0,0 0,0 0,0 0,0 0,0 0,0l0 0c0,0 0,0 -1,0 0,0 0,0 0,0l0 -3c0,0 0,0 0,0 1,0 1,0 1,0l0 0c0,0 0,0 0,0 0,0 0,0 0,0l0 0c0,0 0,0 0,0 0,0 0,0 0,0l0 0c0,0 0,0 -1,0 0,0 0,-1 0,-1l0 0c0,0 0,0 0,0 1,0 1,0 1,0l0 0c0,0 0,0 0,0 0,0 0,0 0,0l0 0c0,0 0,0 0,0 0,-1 0,-1 0,-1l0 0c0,0 0,0 0,0 0,0 0,0 0,0l0 0c0,0 -1,0 -1,0 0,0 0,0 0,0l0 0c0,0 0,0 0,0 1,0 1,0 1,0l0 0c0,0 0,0 0,0 0,0 0,0 0,0 0,0 0,0 0,0 0,0 0,0 0,0 0,0 0,0 0,0 0,0 0,0 0,0l0 0c0,0 0,0 0,-1 0,0 0,0 1,0l0 0c0,0 0,0 0,0 0,1 0,1 0,1l0 0zm2 4c0,0 0,0 0,1 0,0 0,0 0,0l0 0c0,0 0,0 0,0 0,0 0,0 0,0l-1 0c0,0 0,0 0,0 0,0 0,0 0,0l0 0c0,0 0,0 0,-1 0,0 0,0 0,0l1 0c0,0 0,0 0,0 0,0 0,0 0,0l0 -4c0,0 0,0 0,-1 0,0 0,0 0,0l0 0c0,0 0,0 0,0 0,1 0,1 0,1l0 4zm-1 0c0,0 0,0 0,0 0,0 0,0 0,0l0 -4c0,0 0,0 0,-1 0,0 0,0 0,0l0 0c0,0 1,0 1,0 0,1 0,1 0,1l0 4c0,0 0,0 0,0 0,0 -1,0 -1,0l0 0z"/>
  <path class="fil2" d="M19 3l2 -1c0,0 0,0 0,0 1,0 1,0 1,1 0,0 0,0 0,0l0 8c0,0 0,0 0,0 0,0 0,1 -1,1 0,0 0,0 0,0l-2 -1 0 1c0,0 0,0 0,0 0,1 -1,1 -2,1l-9 0c-1,0 -2,0 -2,-1l0 -10c0,-1 1,-2 2,-2l9 0c1,0 2,1 2,2 0,0 0,0 0,0l0 1zm-9 1l0 5c0,1 0,1 1,1 0,0 0,0 0,0l4 -3c0,0 0,0 0,0 0,0 0,-1 0,-1l-4 -2c0,0 0,0 0,0 -1,0 -1,0 -1,0l0 0z" p-id="4464"/>
 </g>
</svg>
