<?xml version="1.0" encoding="UTF-8"?>
<!DOCTYPE svg PUBLIC "-//W3C//DTD SVG 1.1//EN" "http://www.w3.org/Graphics/SVG/1.1/DTD/svg11.dtd">
<!-- Creator: CorelDRAW X8 -->
<svg xmlns="http://www.w3.org/2000/svg" xml:space="preserve" width="177.44mm" height="74.0249mm" version="1.1" style="shape-rendering:geometricPrecision; text-rendering:geometricPrecision; image-rendering:optimizeQuality; fill-rule:evenodd; clip-rule:evenodd"
viewBox="0 0 116 48"
 xmlns:xlink="http://www.w3.org/1999/xlink">
 <defs>
  <style type="text/css">
   <![CDATA[
    .fil0 {fill:#897870}
    .fil1 {fill:#FEFEFE;fill-rule:nonzero}
   ]]>
  </style>
 </defs>
 <g id="图层_x0020_1">
  <metadata id="CorelCorpID_0Corel-Layer"/>
  <path class="fil0" d="M4 0l108 0c2,0 4,2 4,4l0 41c0,2 -2,3 -4,3l-108 0c-2,0 -4,-1 -4,-3l0 -41c0,-2 2,-4 4,-4z"/>
  <path class="fil1" d="M45 19c0,0 0,0 0,0 -1,0 -1,0 -1,0 0,0 0,0 0,0l0 -3c0,0 0,0 0,0 0,0 0,-1 1,-1 0,0 0,1 0,1 0,0 0,0 0,0l0 3c0,0 0,0 0,0zm-7 18c0,0 0,0 -1,0 0,0 0,0 0,-1l0 -3c0,0 0,-1 0,-1 1,0 1,0 1,0 0,0 0,0 1,0 0,0 0,1 0,1l0 3c0,1 0,1 0,1 -1,0 -1,0 -1,0zm14 -26c0,0 0,0 1,0 0,1 0,1 0,1l0 3c0,0 0,1 0,1 0,0 0,0 1,0 0,0 0,0 0,0 0,0 0,-1 0,-1l0 -1c0,0 0,-1 0,-1 1,0 1,0 1,0 0,0 0,0 1,0 0,0 0,1 0,1l0 2c0,0 0,0 0,1 0,0 0,0 -1,1l0 0c0,0 0,0 0,0 -1,0 -1,1 -1,1 0,0 -1,0 -1,0 0,0 0,0 0,1l0 2c0,0 0,0 0,1 0,0 0,0 0,1l2 10c0,0 0,0 0,1 0,0 0,0 1,0 0,0 0,0 0,0 0,0 0,1 0,1l0 0c0,1 0,1 0,1 -1,0 -1,0 -1,0l-1 0c0,0 0,0 0,0 -1,0 -1,0 -1,-1l-1 -6c0,0 0,0 0,0 0,0 0,0 0,0l-1 6c0,1 0,1 0,1 -1,0 -1,0 -1,0l-1 0c0,0 0,0 0,0 -1,0 -1,0 -1,-1l0 0c0,0 0,-1 0,-1 1,0 1,0 1,0 0,0 0,0 0,0 0,-1 0,-1 0,-1l2 -10c0,-1 0,-1 0,-1 0,-1 0,-1 0,-1l0 -2c0,-1 0,-1 0,-1 -1,0 -1,0 -1,0l-1 0c0,0 0,-1 0,-1 -1,0 -1,0 -1,0l0 -1c0,0 0,0 1,-1 0,0 0,0 0,0l1 0c0,0 0,0 1,0 0,0 0,-1 0,-1l0 -3c0,0 0,0 0,0 0,-1 1,-1 1,-1l0 0zm-12 4c0,0 1,1 1,1 0,0 0,0 0,0l0 3c0,0 0,0 0,0 0,0 -1,0 -1,0 0,0 0,0 0,0 -1,0 -1,0 -1,0l0 -3c0,0 0,0 1,0 0,0 0,-1 0,-1zm4 22c0,0 -1,0 -1,0 0,0 0,0 0,-1l0 -3c0,0 0,-1 0,-1 0,0 1,0 1,0 0,0 0,0 1,0 0,0 0,1 0,1l0 3c0,1 0,1 0,1 -1,0 -1,0 -1,0zm-3 0c0,0 -1,0 -1,0 0,0 0,0 0,-1l0 -3c0,0 0,-1 0,-1 0,0 1,0 1,0 0,0 0,0 1,0 0,0 0,1 0,1l0 3c0,1 0,1 0,1 -1,0 -1,0 -1,0zm3 -13c0,0 0,0 0,0 -1,0 -1,0 -1,0 0,0 0,1 1,1 0,0 0,0 0,0l3 0c0,0 0,0 0,0 1,0 1,1 1,1l0 1c0,0 0,0 -1,0 0,0 0,1 0,1l-3 0c0,0 0,0 0,0 -1,0 -1,0 -1,0 0,0 0,0 1,0 0,1 0,1 0,1l3 0c0,0 0,0 0,0 1,0 1,0 1,1l0 0c0,0 0,1 -1,1 0,0 0,0 0,0l-9 0c0,0 -1,0 -1,0 0,0 0,-1 0,-1l0 0c0,-1 0,-1 0,-1 0,0 1,0 1,0l3 0c0,0 0,0 0,-1 0,0 0,0 0,0 0,0 0,0 0,0 0,0 0,0 0,0l-3 0c0,0 -1,-1 -1,-1 0,0 0,0 0,0l0 -1c0,0 0,-1 0,-1 0,0 1,0 1,0l3 0c0,0 0,0 0,0 0,0 0,-1 0,-1 0,0 0,0 0,0 0,0 0,0 0,0l-3 0c0,0 -1,-1 -1,-1 0,0 0,0 0,-1l0 -10c0,0 0,0 0,0 0,-1 1,-1 1,-1l9 0c0,0 0,0 0,1 1,0 1,0 1,0l0 8c0,1 0,1 0,1 0,1 -1,1 -1,1l0 1c0,0 0,0 -1,0 0,0 0,1 -1,1l-1 0zm2 -9c0,0 0,-1 0,-1 -1,0 -1,0 -1,0l-1 0c0,0 0,0 0,0 -1,0 -1,1 -1,1l0 5c0,0 0,0 1,1 0,0 0,0 0,0l1 0c0,0 0,0 1,0 0,-1 0,-1 0,-1l0 -5zm-5 6c0,0 0,0 0,0 0,-1 0,-1 0,-1l0 -5c0,0 0,-1 0,-1 0,0 0,0 0,0l-1 0c0,0 -1,0 -1,0 0,0 0,1 0,1l0 5c0,0 0,0 0,1 0,0 1,0 1,0l1 0zm6 16c0,0 -1,0 -1,0 0,0 0,0 0,-1l0 -3c0,0 0,-1 0,-1 0,0 1,0 1,0 0,0 0,0 0,0 1,0 1,1 1,1l0 3c0,1 0,1 -1,1 0,0 0,0 0,0zm14 -2c0,0 0,-1 0,-1 0,0 0,0 0,0l0 -14c0,-1 0,-1 0,-1 0,0 0,0 0,0 0,0 0,-1 -1,-1 0,0 0,0 0,0l0 -1c0,0 0,-1 1,-1 0,0 0,0 0,0l2 0c0,0 1,0 1,0 0,0 0,1 0,1l0 17c0,0 0,1 0,1 0,0 0,1 -1,1l0 1c-1,0 -1,0 -1,0 0,0 -1,0 -1,0 0,0 0,0 -1,0 0,0 0,-1 0,-1l0 0c0,-1 0,-1 0,-1 1,0 1,0 1,0zm2 -23c1,1 1,1 1,1 0,0 0,1 -1,1l0 0c0,0 -1,1 -1,1 0,0 0,-1 -1,-1l0 0c0,0 0,-1 0,-1 0,0 0,0 0,-1l0 0c1,0 1,0 1,0 0,0 1,0 1,0l0 0zm10 -1c0,0 1,0 1,0 0,1 0,1 0,1l0 6c0,0 0,1 0,1 0,0 0,1 0,1l4 14c0,0 0,0 0,0 0,1 0,1 0,1 1,0 1,0 1,0 0,0 0,0 0,1l0 0c0,1 0,1 0,1 0,0 -1,0 -1,0l-1 0c-1,0 -1,0 -1,0 0,0 -1,0 -1,-1l-2 -10c0,0 0,-1 0,-1 0,0 0,1 -1,1l-2 10c0,1 0,1 0,1 -1,0 -1,0 -1,0l-2 0c0,0 0,0 0,0 -1,0 -1,0 -1,-1l0 0c0,-1 0,-1 0,-1 1,0 1,0 1,0 0,0 0,0 1,-1 0,0 0,0 0,0l3 -14c0,0 0,-1 0,-1 0,0 0,-1 0,-1l0 -6c0,0 0,0 1,-1 0,0 0,0 0,0l1 0z"/>
 </g>
</svg>
