<?xml version="1.0" encoding="UTF-8"?>
<!DOCTYPE svg PUBLIC "-//W3C//DTD SVG 1.1//EN" "http://www.w3.org/Graphics/SVG/1.1/DTD/svg11.dtd">
<!-- Creator: CorelDRAW X8 -->
<svg xmlns="http://www.w3.org/2000/svg" xml:space="preserve" width="158.26mm" height="251.151mm" version="1.1" style="shape-rendering:geometricPrecision; text-rendering:geometricPrecision; image-rendering:optimizeQuality; fill-rule:evenodd; clip-rule:evenodd"
viewBox="0 0 784 1244"
 xmlns:xlink="http://www.w3.org/1999/xlink">
 <defs>
  <style type="text/css">
   <![CDATA[
    .fil0 {fill:#FEB079}
    .fil1 {fill:white;fill-rule:nonzero}
   ]]>
  </style>
 </defs>
 <g id="图层_x0020_1">
  <metadata id="CorelCorpID_0Corel-Layer"/>
  <path class="fil0" d="M62 0l659 0c34,0 63,28 63,62l0 1119c0,34 -29,63 -63,63l-659 0c-34,0 -62,-29 -62,-63l0 -1119c0,-34 28,-62 62,-62z"/>
  <path class="fil1" d="M353 517c3,0 5,1 7,3 2,2 3,5 3,7l0 32c0,3 1,5 1,7 1,1 2,2 3,2 3,0 4,1 4,3l0 111c0,3 -1,6 -2,9 -1,4 -3,6 -5,8l-7 7c-2,2 -4,4 -7,5 -3,1 -5,2 -8,2 -2,0 -4,1 -5,3 -2,2 -2,4 -2,7l0 8c0,3 -1,6 -2,9 -2,3 -3,6 -5,8l-6 6c-1,2 -4,4 -7,5 -3,2 -6,2 -9,2l-15 0c-3,0 -5,-1 -7,-3 -2,-2 -3,-4 -3,-6l0 -7c0,-3 1,-5 3,-7 2,-2 4,-3 7,-3l10 0c3,0 5,0 7,-2 2,-2 3,-5 3,-7l0 -3c0,-3 -1,-5 -3,-7 -2,-2 -4,-3 -7,-3l-10 0c-3,0 -5,-1 -7,-3 -2,-2 -3,-4 -3,-7l0 -7c0,-2 1,-4 3,-6 2,-2 4,-3 7,-3l10 0c3,0 5,-1 7,-3 2,-2 3,-4 3,-7l0 -16c0,-3 -1,-5 -3,-7 -2,-2 -4,-3 -7,-3l-10 0c-3,0 -5,-1 -7,-3 -2,-1 -3,-4 -3,-7l0 -6c0,-3 1,-5 3,-7 2,-2 4,-3 7,-3l10 0c3,0 5,-1 7,-2 2,-2 3,-5 3,-7l0 -12c0,-3 -1,-5 -3,-7 -2,-2 -4,-3 -7,-3l-10 0c-3,0 -5,-1 -7,-2 -2,-2 -3,-5 -3,-7l0 -7c0,-2 1,-5 3,-7 2,-2 4,-3 7,-3l37 0c2,0 5,-1 7,-2 1,-2 2,-4 2,-7l0 -6c0,-3 -1,-5 -2,-7 -2,-2 -5,-3 -7,-3l-16 0c-3,0 -6,0 -9,-2 -3,-1 -6,-3 -8,-5l-6 -7c-3,-2 -4,-4 -6,-7 -1,-3 -2,-6 -2,-8 0,-2 1,-4 3,-6 2,-2 4,-3 7,-3l7 0c2,0 5,1 7,2 2,1 2,3 2,5 0,1 1,2 3,3 2,2 4,2 7,2l36 0zm-168 115c0,-1 1,-2 3,-2 2,-1 4,-1 7,-1l70 0c3,0 5,0 7,1 2,1 3,3 3,4l0 99c0,3 -1,6 -2,9 -1,3 -3,6 -5,8l-4 4c-2,2 -5,4 -8,5 -3,2 -6,2 -9,2l-13 0c-3,0 -5,-1 -7,-3 -2,-1 -3,-4 -3,-6l0 -4c0,-3 1,-5 3,-7 2,-2 4,-3 7,-3l8 0c3,0 5,0 7,-1 1,-1 2,-2 2,-4 0,-1 -1,-3 -2,-4 -2,-1 -4,-1 -7,-1l-24 0c-3,0 -5,1 -7,2 -2,2 -3,5 -3,7l0 15c0,2 0,4 -2,6 -2,2 -5,3 -7,3l-4 0c-3,0 -5,-1 -7,-3 -2,-2 -3,-4 -3,-6l0 -120zm47 -127c3,0 5,1 7,2 2,1 3,2 3,3 0,2 1,3 2,4 2,1 5,1 7,1l14 0c3,0 5,1 7,3 2,2 3,4 3,7l0 7c0,2 -1,5 -3,7 -2,1 -4,2 -7,2l-14 0c-2,0 -5,1 -7,2 -1,2 -2,3 -2,5 0,2 1,3 2,5 2,1 5,1 7,1l14 0c3,0 5,1 7,3 2,2 3,4 3,7l0 7c0,2 -1,5 -3,6 -2,2 -4,3 -7,3l-14 0c-2,0 -5,1 -7,2 -1,2 -2,3 -2,5 0,2 1,3 2,5 2,1 5,2 7,2l14 -1c3,0 5,1 7,3 2,2 3,4 3,7l0 6c0,3 -1,5 -3,7 -2,2 -4,3 -7,3l-70 0c-3,0 -5,-1 -7,-3 -2,-2 -3,-4 -3,-7l0 -6c0,-3 1,-5 3,-7 2,-2 4,-2 7,-2l13 -1c3,0 6,0 7,-2 2,-1 3,-2 3,-4 0,-2 -1,-3 -3,-5 -1,-1 -4,-2 -7,-2l-13 0c-3,0 -5,-1 -7,-3 -2,-1 -3,-4 -3,-6l0 -7c0,-3 1,-5 3,-7 2,-2 4,-3 7,-3l13 0c3,0 6,0 7,-1 2,-2 3,-3 3,-5 0,-2 -1,-3 -3,-5 -1,-1 -4,-2 -7,-2l-13 0c-3,0 -5,-1 -7,-2 -2,-2 -3,-5 -3,-7l0 -7c0,-3 1,-5 3,-7 2,-2 4,-3 7,-3l13 0c3,0 6,0 7,-1 2,-1 3,-2 3,-4 0,-1 1,-2 3,-3 2,-1 4,-2 7,-2l4 0zm10 199c3,0 5,0 7,-1 1,-2 2,-3 2,-5 0,-2 -1,-4 -2,-5 -2,-1 -4,-2 -7,-2l-24 0c-3,0 -5,1 -7,2 -2,1 -3,3 -3,5 0,2 1,3 3,5 2,1 4,1 7,1l24 0zm7 -38c1,-1 2,-3 2,-5 0,-2 -1,-3 -2,-4 -2,-2 -4,-2 -7,-2l-24 0c-3,0 -5,0 -7,2 -2,1 -3,2 -3,4 0,2 1,4 3,5 2,1 4,2 7,2l24 0c3,0 5,-1 7,-2zm92 21c2,0 4,-1 5,-3 1,-2 2,-4 2,-7l0 -16c0,-3 -1,-5 -2,-7 -1,-2 -3,-3 -5,-3 -2,0 -3,1 -5,3 -1,2 -1,4 -1,7l0 16c0,3 0,5 1,7 2,2 3,3 5,3zm7 -83c0,-3 -1,-5 -2,-7 -1,-2 -3,-3 -5,-3 -2,0 -3,1 -5,3 -1,2 -1,4 -1,7l0 12c0,2 0,5 1,7 2,1 3,2 5,2 2,0 4,-1 5,-2 1,-2 2,-5 2,-7l0 -12zm222 -89c2,-2 3,-3 3,-4 0,-2 1,-3 2,-4 2,-1 5,-2 7,-2l7 0c3,0 5,1 7,3 2,1 3,3 3,5 0,3 -1,5 -2,8 -2,3 -3,5 -5,7l-7 7c-2,2 -5,3 -8,5 -3,1 -6,2 -9,2l-145 0c-3,0 -5,-1 -7,-3 -2,-2 -3,-4 -3,-7l0 -6c0,-3 1,-5 3,-7 2,-2 4,-3 7,-3l140 0c3,0 5,0 7,-1zm13 62c-3,0 -6,0 -8,2 -1,2 -2,5 -2,7l0 13c0,2 1,4 2,6 2,2 5,3 8,3l6 0c3,0 5,1 7,3 2,2 3,4 3,7l0 6c0,3 -1,5 -3,7 -2,2 -4,3 -7,3l-166 0c-3,0 -5,-1 -7,-3 -2,-2 -3,-4 -3,-7l0 -6c0,-3 1,-5 3,-7 2,-2 4,-3 7,-3l7 0c2,0 5,-1 7,-3 1,-2 2,-4 2,-6l0 -13c0,-2 -1,-5 -2,-7 -2,-2 -5,-2 -7,-2l-7 0c-3,0 -5,-1 -7,-3 -2,-2 -3,-4 -3,-7l0 -6c0,-3 1,-5 3,-7 2,-2 4,-3 7,-3l166 0c3,0 5,1 7,3 2,2 3,4 3,7l0 6c0,3 -1,5 -3,7 -2,2 -4,3 -7,3l-6 0zm-36 9c0,-2 -1,-5 -3,-7 -2,-2 -4,-2 -7,-2l-62 0c-3,0 -5,0 -7,2 -2,2 -3,5 -3,7l0 13c0,2 1,4 3,6 2,2 4,3 7,3l62 0c3,0 5,-1 7,-3 2,-2 3,-4 3,-6l0 -13zm52 145c0,3 -1,6 -2,9 -2,3 -3,6 -5,7l-7 7c-2,2 -5,4 -8,5 -3,2 -6,2 -9,2l-145 0c-3,0 -5,-1 -7,-3 -2,-2 -3,-4 -3,-6l0 -99c0,-2 1,-4 3,-6 2,-2 4,-3 7,-3l166 0c3,0 5,1 7,3 2,2 3,4 3,6l0 78zm-150 -61c-3,0 -5,1 -7,3 -2,2 -3,4 -3,6l0 1c0,3 1,5 3,7 2,2 4,3 7,3l114 0c2,0 5,-1 7,-3 1,-2 2,-4 2,-7l0 -1c0,-2 -1,-4 -2,-6 -2,-2 -5,-3 -7,-3l-114 0zm114 65c2,0 5,0 7,-2 1,-2 2,-4 2,-7l0 -1c0,-3 -1,-5 -3,-7 -2,-1 -4,-2 -7,-2l-113 0c-3,0 -5,1 -7,2 -2,2 -3,4 -3,7l0 1c0,3 1,5 3,7 2,2 4,2 7,2l114 0z"/>
 </g>
</svg>
