<?xml version="1.0" encoding="UTF-8"?>
<!DOCTYPE svg PUBLIC "-//W3C//DTD SVG 1.1//EN" "http://www.w3.org/Graphics/SVG/1.1/DTD/svg11.dtd">
<!-- Creator: CorelDRAW X8 -->
<svg xmlns="http://www.w3.org/2000/svg" xml:space="preserve" width="150.851mm" height="240.245mm" version="1.1" style="shape-rendering:geometricPrecision; text-rendering:geometricPrecision; image-rendering:optimizeQuality; fill-rule:evenodd; clip-rule:evenodd"
viewBox="0 0 5854 9324"
 xmlns:xlink="http://www.w3.org/1999/xlink">
 <defs>
  <style type="text/css">
   <![CDATA[
    .fil0 {fill:#D8C0CB}
    .fil1 {fill:#FEFEFE;fill-rule:nonzero}
   ]]>
  </style>
 </defs>
 <g id="图层_x0020_1">
  <metadata id="CorelCorpID_0Corel-Layer"/>
  <path class="fil0" d="M434 0l4987 0c289,0 433,217 433,434l0 8456c0,289 -144,434 -433,434l-4987 0c-217,0 -434,-145 -434,-434l0 -8456c0,-217 217,-434 434,-434z"/>
  <path class="fil1" d="M1473 5453c20,0 37,-7 51,-20 14,-14 20,-31 20,-51l0 -51c0,-19 -6,-35 -20,-50 -14,-14 -31,-21 -51,-21 -20,0 -36,-7 -50,-20 -13,-14 -20,-30 -20,-50l0 -47c0,-19 7,-36 20,-51 14,-15 30,-23 50,-23l49 0c20,0 37,-6 51,-20 14,-14 21,-31 21,-51l0 -854c0,-20 -7,-37 -21,-51 -14,-14 -31,-21 -51,-21l-49 0c-20,0 -36,-7 -50,-22 -13,-14 -20,-32 -20,-52l0 -44c0,-21 7,-38 20,-52 14,-14 30,-20 50,-20l49 0c20,0 37,-7 51,-19 14,-12 21,-27 21,-44 0,-15 7,-28 21,-40 13,-12 31,-19 51,-19l46 0c19,0 36,7 51,19 14,12 21,25 21,40 0,17 7,32 21,44 14,12 31,19 51,19l458 0c19,0 35,-7 49,-19 14,-12 21,-27 21,-44 0,-15 6,-28 20,-40 14,-12 32,-19 52,-19l48 0c19,0 36,7 49,19 15,12 21,25 21,40 0,17 7,32 21,44 14,12 31,19 51,19l47 0c19,0 36,6 50,20 13,14 20,31 20,52l0 44c0,20 -7,38 -20,52 -14,15 -31,22 -50,22l-47 0c-20,0 -37,7 -51,21 -14,14 -21,31 -21,51l0 854c0,20 7,37 21,51 14,14 31,20 51,20l47 0c19,0 36,8 50,23 13,15 20,32 20,51l0 47c0,20 -7,36 -20,50 -14,13 -31,20 -50,20 -20,0 -38,7 -52,21 -14,15 -22,31 -22,50l0 51c0,20 8,37 22,51 14,13 32,20 52,20 19,0 36,7 50,21 13,14 20,31 20,52l0 45c0,20 -7,37 -20,51 -14,15 -31,22 -50,22l-39 0c-20,0 -42,-5 -66,-14 -23,-10 -42,-22 -58,-37l-51 -52c-14,-12 -26,-30 -36,-54 -10,-24 -14,-46 -14,-65l0 -90c0,-19 -7,-36 -21,-50 -14,-15 -31,-22 -51,-22l-550 0c-19,0 -36,7 -50,22 -15,14 -22,31 -22,50l0 90c0,19 -5,41 -14,65 -10,24 -21,42 -35,54l-51 52c-15,15 -34,27 -58,37 -23,9 -45,14 -65,14l-39 0c-20,0 -36,-7 -50,-22 -13,-14 -20,-31 -20,-51l0 -45c0,-21 7,-38 20,-52 14,-14 30,-21 50,-21zm311 -845c0,19 7,36 21,49 14,14 31,21 51,21l458 0c19,0 35,-7 49,-21 14,-13 21,-30 21,-49l0 -77c0,-19 -7,-35 -21,-50 -14,-14 -30,-21 -49,-21l-458 0c-20,0 -37,7 -51,21 -14,15 -21,31 -21,50l0 77zm72 -536c-20,0 -37,7 -51,21 -14,14 -21,31 -21,51l0 58c0,19 7,35 21,50 14,14 31,21 51,21l458 0c19,0 35,-7 49,-21 14,-15 21,-31 21,-50l0 -58c0,-20 -7,-37 -21,-51 -14,-14 -30,-21 -49,-21l-458 0zm-72 926c0,20 7,37 21,51 14,14 31,20 51,20l458 0c19,0 35,-6 49,-20 14,-14 21,-31 21,-51l0 -58c0,-19 -7,-36 -21,-50 -14,-14 -30,-22 -49,-22l-458 0c-20,0 -37,8 -51,22 -14,14 -21,31 -21,50l0 58zm1572 646c-20,0 -42,-5 -66,-14 -23,-10 -42,-22 -57,-37l-49 -54c-15,-12 -28,-31 -38,-54 -11,-25 -16,-46 -16,-65l0 -749c0,-19 8,-35 22,-49 14,-14 32,-20 52,-20l47 0c20,0 36,6 50,20 13,14 20,30 20,49l0 199c0,20 7,36 22,51 14,14 31,21 50,21l739 0c20,0 37,-7 51,-21 14,-15 20,-31 20,-51l0 -180c0,-18 8,-34 22,-48 14,-15 32,-22 52,-22l45 0c20,0 36,7 51,22 14,14 21,30 21,48l0 219c0,20 -5,41 -14,65 -10,25 -22,43 -37,57l-49 54c-14,13 -33,24 -57,34 -24,9 -45,14 -64,14l-780 0c-19,0 -36,7 -50,22 -15,14 -22,31 -22,50l0 176c0,21 7,38 22,52 14,13 31,20 50,20l989 0c19,0 35,7 49,21 14,13 21,30 21,51l0 47c0,19 -7,36 -21,50 -14,15 -30,22 -49,22l-1026 0zm-273 -1723c0,-19 7,-36 21,-49 13,-14 30,-21 49,-21l1036 0c21,0 38,-5 51,-14 14,-8 21,-19 21,-31 0,-13 7,-23 21,-32 15,-9 32,-14 53,-14l47 0c19,0 35,6 49,16 14,10 21,23 21,38 0,15 -5,34 -15,56 -9,22 -20,41 -33,56l-57 62c-14,15 -32,28 -55,38 -24,10 -45,16 -64,16l-1075 0c-19,0 -36,-7 -49,-21 -14,-14 -21,-31 -21,-50l0 -50zm0 307c0,-19 7,-36 21,-50 13,-14 30,-22 49,-22l1229 0c19,0 35,8 49,22 14,14 21,31 21,50l0 195c0,19 -7,36 -21,49 -14,14 -30,21 -49,21l-47 0c-21,0 -38,-7 -53,-21 -14,-13 -21,-30 -21,-49l0 -4c0,-20 -7,-38 -21,-51 -13,-14 -30,-21 -51,-21l-843 0c-21,0 -38,7 -52,21 -13,13 -20,31 -20,51l0 4c0,19 -7,36 -21,49 -13,14 -30,21 -51,21l-49 0c-19,0 -36,-7 -49,-21 -14,-13 -21,-30 -21,-49l0 -195z"/>
 </g>
</svg>
