<?xml version="1.0" encoding="UTF-8"?>
<!DOCTYPE svg PUBLIC "-//W3C//DTD SVG 1.1//EN" "http://www.w3.org/Graphics/SVG/1.1/DTD/svg11.dtd">
<!-- Creator: CorelDRAW X8 -->
<svg xmlns="http://www.w3.org/2000/svg" xml:space="preserve" width="158.26mm" height="251.151mm" version="1.1" style="shape-rendering:geometricPrecision; text-rendering:geometricPrecision; image-rendering:optimizeQuality; fill-rule:evenodd; clip-rule:evenodd"
viewBox="0 0 693 1099"
 xmlns:xlink="http://www.w3.org/1999/xlink">
 <defs>
  <style type="text/css">
   <![CDATA[
    .fil0 {fill:#D92375}
    .fil1 {fill:white;fill-rule:nonzero}
   ]]>
  </style>
 </defs>
 <g id="图层_x0020_1">
  <metadata id="CorelCorpID_0Corel-Layer"/>
  <path class="fil0" d="M55 0l582 0c31,0 56,25 56,55l0 989c0,30 -25,55 -56,55l-582 0c-30,0 -55,-25 -55,-55l0 -989c0,-30 25,-55 55,-55z"/>
  <path class="fil1" d="M184 512c2,0 4,1 6,3 1,2 2,4 2,6l0 9c0,3 1,5 3,6 1,2 3,3 6,3l10 0c2,0 4,1 5,3 2,1 3,3 3,6l0 5c0,3 -1,5 -3,6 -1,2 -3,3 -5,3l-15 0c-2,0 -5,-1 -8,-2 -3,-1 -5,-2 -6,-4l-7 -6c-1,-2 -3,-4 -4,-7 -1,-3 -2,-6 -2,-8l0 -14c0,-2 1,-4 3,-6 1,-2 3,-3 6,-3l6 0zm-22 148c0,-3 1,-5 3,-6 2,-2 4,-3 6,-3l6 0c2,0 4,-1 6,-2 2,-2 3,-4 3,-6l0 -56c0,-2 0,-4 2,-6 2,-2 4,-2 6,-2l6 0c2,0 4,0 6,2 2,2 3,4 3,6l0 61c0,2 -1,4 -2,7 -2,3 -3,5 -5,7l-6 6c-1,2 -4,3 -7,5 -3,1 -5,1 -7,1l-11 0c-2,0 -4,-1 -6,-2 -2,-2 -3,-4 -3,-6l0 -6zm166 6c0,2 -1,4 -3,6 -1,1 -3,2 -6,2l-10 0c-2,0 -5,0 -8,-1 -3,-2 -5,-3 -7,-5l-6 -6c-2,-2 -3,-4 -4,-7 -2,-3 -2,-5 -2,-7l0 -65c0,-3 1,-5 2,-6 2,-2 4,-3 7,-3l5 0c3,0 5,1 6,3 2,1 3,3 3,6l0 60c0,2 1,4 2,6 2,1 4,2 7,2l5 0c3,0 5,1 6,3 2,1 3,3 3,6l0 6zm0 -198c0,2 -1,5 -2,8 -1,2 -3,5 -5,6l-5 7c-2,1 -4,3 -7,4 -3,1 -6,2 -8,2l-36 0c-2,0 -4,1 -6,2 -2,2 -3,4 -3,6l0 145c0,2 0,4 -1,7 -2,3 -3,5 -5,7l-6 6c-2,2 -4,3 -7,5 -3,1 -6,1 -8,1l-5 0c-2,0 -4,-1 -6,-2 -1,-2 -2,-4 -2,-6l0 -6c0,-2 1,-4 2,-6 2,-2 4,-2 6,-2l1 0c2,0 4,-1 6,-3 2,-2 2,-4 2,-6l0 -140c0,-2 0,-4 -2,-6 -2,-1 -4,-2 -6,-2l-54 0c-2,0 -4,-1 -6,-3 -2,-1 -3,-3 -3,-6l0 -6c0,-2 1,-4 3,-6 2,-1 4,-2 6,-2l54 0c2,0 4,-1 6,-3 2,-2 2,-4 2,-6l0 -8c0,-2 1,-4 3,-6 1,-1 3,-2 6,-2l6 0c2,0 4,1 6,2 2,2 2,4 2,6l0 8c0,2 1,4 3,6 2,2 4,3 6,3l31 0c3,0 5,-1 6,-3 2,-1 3,-3 3,-5 0,-3 1,-5 2,-6 2,-2 4,-3 7,-3l5 0c2,0 4,1 6,3 2,2 3,4 3,6l0 4zm-30 53c0,-2 1,-4 3,-6 1,-2 4,-3 6,-3l6 0c2,0 4,1 6,3 1,2 2,4 2,6l0 14c0,2 0,5 -2,8 -1,3 -2,5 -4,7l-6 6c-2,2 -4,3 -7,4 -3,1 -6,2 -8,2l-14 0c-3,0 -5,-1 -6,-3 -2,-1 -3,-3 -3,-6l0 -5c0,-3 1,-5 3,-6 1,-2 3,-3 6,-3l9 0c3,0 5,-1 7,-3 1,-1 2,-3 2,-6l0 -9zm127 87c0,2 0,5 -1,8 -1,3 -3,6 -4,8l-3 3c-1,2 -2,5 -2,7 0,3 1,6 2,7l2 3c1,2 3,4 5,5 1,2 3,2 4,2 1,0 2,1 3,3 0,1 0,3 0,6l0 6c0,2 0,4 -2,6 -2,1 -4,2 -6,2l0 0c-3,0 -5,0 -8,-2 -3,-1 -5,-3 -6,-5l-6 -7c-1,-2 -3,-3 -5,-3 -2,0 -3,1 -5,3l-5 7c-1,2 -3,4 -6,5 -2,2 -5,2 -7,2l-1 0c-2,0 -4,-1 -6,-2 -2,-2 -2,-4 -2,-6l0 -6c0,-3 0,-5 1,-6 0,-2 1,-3 2,-3 1,0 2,0 4,-2 2,-1 4,-3 5,-5l2 -3c1,-1 2,-4 2,-7 0,-2 -1,-5 -2,-7l-3 -3c-1,-2 -2,-5 -3,-8 -1,-3 -2,-6 -2,-8l0 -115c0,-2 0,-4 -1,-6 0,-1 -1,-2 -2,-2 -1,0 -2,-1 -3,-3 0,-2 0,-4 0,-6l0 -5c0,-3 0,-5 0,-7 1,-2 2,-2 3,-2 1,0 2,-1 2,-3 1,-1 1,-3 1,-5 0,-2 1,-4 3,-5 1,-2 3,-2 6,-2l3 0c3,0 5,0 6,2 2,1 3,3 3,5 0,2 0,4 1,5 1,2 3,3 5,3 1,0 3,-1 4,-3 1,-1 1,-3 1,-5 0,-2 1,-4 3,-5 1,-2 3,-2 6,-2l3 0c3,0 5,0 7,2 1,1 2,3 2,5 0,2 0,4 1,5 0,2 1,3 2,3 1,0 2,0 3,2 0,2 0,4 0,7l0 5c0,2 0,4 0,6 -1,2 -2,3 -3,3 -1,0 -2,1 -2,2 -1,2 -1,4 -1,6l0 115zm105 39c0,3 0,5 -1,8 -1,3 -3,6 -5,7l-4 6c-2,1 -4,3 -7,4 -3,2 -5,2 -8,2l-58 0c-3,0 -5,-1 -6,-2 -2,-2 -3,-4 -3,-6l0 -84c0,-2 1,-4 3,-6 1,-1 3,-2 6,-2l76 0c2,0 3,1 5,2 1,2 2,4 2,6l0 65zm-11 -176c-2,2 -3,5 -4,7 -2,3 -2,6 -2,8l0 7c0,3 1,5 2,6 2,2 4,3 6,3 3,0 5,1 7,2 1,2 2,4 2,6l0 6c0,2 -1,4 -2,6 -2,2 -4,3 -7,3 -2,0 -4,1 -6,2 -1,2 -2,4 -2,7l0 3c0,3 1,5 2,6 2,2 4,3 6,3 3,0 5,1 7,3 1,1 2,3 2,6l0 3c0,2 -1,4 -2,6 -2,2 -4,2 -7,2l-4 0c-3,0 -5,0 -8,-1 -3,-1 -6,-3 -8,-4l-5 -5c-2,-1 -3,-4 -4,-6 -2,-3 -2,-6 -2,-8l0 -9c0,-2 -1,-4 -3,-6 -1,-1 -3,-2 -6,-2l-13 0c-3,0 -5,1 -6,2 -2,2 -3,4 -3,7l0 3c0,3 1,5 3,6 1,2 3,3 6,3l7 0c2,0 4,1 6,3 2,1 3,3 3,6l0 3c0,2 -1,4 -3,6 -2,2 -4,2 -6,2l-12 0c-2,0 -5,0 -8,-1 -3,-1 -5,-3 -7,-4l-4 -4c-1,-2 -3,-4 -4,-7 -1,-3 -2,-6 -2,-8l0 -78c0,-2 1,-4 3,-6 1,-2 3,-2 6,-2l52 0c2,0 4,-1 6,-2 1,0 2,-2 2,-3 0,-1 1,-2 3,-3 1,-1 3,-1 6,-1l5 0c3,0 5,0 7,2 1,1 2,3 2,4 0,2 0,4 -2,7 -1,3 -2,5 -4,7l-5 4zm-123 140c1,2 2,2 3,2 1,0 2,0 2,-2 1,-1 2,-2 2,-5 1,-3 1,-5 1,-8l0 -105c0,-2 0,-4 -1,-6 -1,-1 -3,-2 -4,-2 -2,0 -3,1 -4,2 -1,2 -2,4 -2,6l0 105c0,3 0,5 1,8 0,3 1,4 2,5zm105 40c2,0 4,0 6,-2 2,-1 2,-3 2,-5 0,-3 0,-5 -2,-6 -2,-2 -4,-3 -6,-3l-33 0c-3,0 -5,1 -6,3 -2,1 -3,3 -3,6 0,2 1,4 3,5 1,2 3,2 6,2l33 0zm-34 -54c-2,0 -4,1 -6,2 -1,2 -2,3 -2,6 0,2 1,3 2,5 2,1 4,2 6,2l34 0c2,0 4,-1 6,-2 2,-2 2,-3 2,-5 0,-3 0,-4 -2,-6 -2,-1 -4,-2 -6,-2l-34 0zm14 -95c3,0 5,-1 6,-3 2,-1 3,-3 3,-6l0 -6c0,-2 -1,-4 -3,-6 -1,-1 -3,-2 -6,-2l-13 0c-3,0 -5,1 -6,2 -2,2 -3,4 -3,6l0 6c0,3 1,5 3,6 1,2 3,3 6,3l13 0z"/>
 </g>
</svg>
