<?xml version="1.0" encoding="UTF-8"?>
<!DOCTYPE svg PUBLIC "-//W3C//DTD SVG 1.1//EN" "http://www.w3.org/Graphics/SVG/1.1/DTD/svg11.dtd">
<!-- Creator: CorelDRAW X8 -->
<svg xmlns="http://www.w3.org/2000/svg" xml:space="preserve" width="171.327mm" height="77.9mm" version="1.1" style="shape-rendering:geometricPrecision; text-rendering:geometricPrecision; image-rendering:optimizeQuality; fill-rule:evenodd; clip-rule:evenodd"
viewBox="0 0 106 48"
 xmlns:xlink="http://www.w3.org/1999/xlink">
 <defs>
  <style type="text/css">
   <![CDATA[
    .fil0 {fill:#FEB079}
    .fil1 {fill:#FEFEFE;fill-rule:nonzero}
   ]]>
  </style>
 </defs>
 <g id="图层_x0020_1">
  <metadata id="CorelCorpID_0Corel-Layer"/>
  <path class="fil0" d="M8 0l90 0c5,0 8,2 8,4l0 40c0,2 -3,4 -8,4l-90 0c-4,0 -8,-2 -8,-4l0 -40c0,-2 4,-4 8,-4z"/>
  <path class="fil1" d="M36 25c0,0 0,0 0,-1 0,0 1,0 1,0l0 0c0,0 1,0 1,0 0,0 0,0 0,-1l1 -1c1,-1 1,-1 1,-1 0,0 0,0 1,0l0 0c1,0 1,0 1,0 0,0 0,0 0,1l-3 4c0,0 0,0 0,0 0,0 -1,0 -1,0l-1 0c0,0 -1,0 -1,0 0,0 0,0 0,-1l0 0zm13 6c1,0 1,0 1,0 0,0 0,0 0,0l0 1c0,0 0,0 0,0 0,1 1,1 1,1 0,0 0,0 0,0 0,0 0,0 0,0l0 1c0,0 0,0 0,1 0,0 0,0 -1,0 0,0 0,0 0,0 -1,0 -1,-1 -1,-1l0 0c-1,0 -1,-1 -1,-1 0,0 0,0 0,-1l0 -1c0,0 0,0 0,0 0,0 1,0 1,0l0 0zm-5 -4c0,0 0,0 1,0 0,0 0,0 0,0 0,0 0,0 0,1 0,0 0,0 1,0l4 0c1,0 1,0 1,0 0,0 0,0 0,0l0 1c0,0 0,0 0,1 0,0 0,0 -1,0l-4 0c-1,0 -1,0 -1,0 0,0 0,0 0,1l0 3c0,0 0,0 0,1 -1,0 -1,0 -1,0l-1 0c0,0 0,0 0,0 0,-1 0,-1 0,-1l0 -3c0,-1 0,-1 -1,-1 0,0 0,0 0,0l-5 0c0,0 -1,0 -1,0 0,-1 0,-1 0,-1l0 -1c0,0 0,0 0,0 0,0 1,0 1,0l5 0c0,0 0,0 0,0 1,-1 1,-1 1,-1 0,0 0,0 0,0 0,0 0,0 0,0l1 0zm-8 -8c0,0 0,0 0,0 0,-1 1,-1 1,-1l0 0c1,0 1,0 1,0 0,0 0,0 0,0l0 -1c0,0 0,0 0,0 0,0 0,0 0,0l1 0c0,0 0,0 1,0 0,0 0,0 0,0l0 1c0,0 0,0 0,0 1,0 1,0 1,0l4 0c0,0 1,0 1,0 0,0 0,0 1,0l1 -2c0,0 0,0 0,0 0,0 0,0 0,0l-11 0c0,0 -1,0 -1,-1 0,0 0,0 0,0l0 -1c0,0 0,0 0,0 0,0 1,0 1,0l13 0c1,0 1,0 1,0 0,0 0,0 0,0l0 1c0,0 0,0 0,1 0,0 0,0 0,0l-2 2c0,0 0,0 0,0 0,0 0,0 1,0l0 0c1,0 1,0 1,1 0,0 0,0 0,0l0 5c0,0 0,0 0,0 0,1 0,1 -1,1l0 0c0,0 0,0 -1,-1 0,0 0,0 0,0l0 -3c0,0 0,0 0,0 0,-1 0,-1 0,-1 0,0 -1,0 -1,1 0,0 0,0 0,0l0 3c0,0 0,0 0,1 0,0 0,0 0,0l-1 1c0,0 0,0 -1,0 0,0 0,0 0,0l-4 0c0,0 0,0 0,0 0,0 0,0 0,-1l0 0c0,0 0,0 0,-1 0,0 0,0 0,0l3 0c0,0 1,0 1,0 0,0 0,0 0,-1l0 -2c0,0 0,0 0,0 0,-1 -1,-1 -1,-1l-8 0c0,0 -1,0 -1,0 0,0 0,0 0,0l0 -1zm0 14c0,0 0,0 0,0 0,0 0,0 1,0 0,0 0,0 0,-1 0,0 0,0 0,0l0 -1c0,0 0,0 0,0 1,0 1,0 1,0l1 0c0,0 0,0 0,0 0,0 0,0 0,0l0 1c0,1 0,1 0,1 0,0 0,1 0,1l-1 0c0,0 0,1 0,1 -1,0 -1,0 -1,0 0,0 -1,0 -1,0 0,-1 0,-1 0,-1l0 -1zm28 -18c0,-1 0,-1 1,-1 0,0 0,0 0,0l5 0c0,0 0,0 0,0 0,0 0,0 0,1l0 17c0,0 0,1 0,1 0,0 0,0 0,0l-1 1c0,0 0,0 0,0 -1,0 -1,1 -1,1l-3 0c0,0 0,-1 0,-1 -1,0 -1,0 -1,0l0 -19zm2 17c0,0 1,0 1,0 0,0 0,0 0,0l0 0c1,0 1,0 1,0 0,0 0,0 0,0l0 -15c0,-1 0,-1 0,-1 0,0 0,0 -1,0l0 0c0,0 0,0 0,0 0,0 -1,0 -1,1l0 15zm-7 3c0,0 0,0 -1,0 0,-1 0,-1 0,-1l0 -11c0,-1 0,-1 0,-1 0,0 0,0 -1,0l-1 0c0,0 -1,0 -1,0 0,-1 0,-1 0,-1l0 -1c0,0 0,0 0,0 0,0 1,0 1,0l1 0c1,0 1,0 1,-1 0,0 0,0 0,0l0 -1c0,-1 0,-1 0,-1 0,0 0,0 -1,0l-1 0c0,0 -1,0 -1,-1 0,0 0,0 0,0l0 -1c0,0 0,0 0,0 0,0 1,0 1,0l5 0c0,0 0,0 0,-1 0,0 0,0 0,0 0,0 0,0 1,0 0,0 0,0 0,0l1 0c0,0 0,0 0,0 0,0 0,0 0,0 0,1 0,1 0,1 0,0 0,0 0,1l-1 0c0,0 0,0 0,1 -1,0 -1,0 -1,0 0,0 0,0 0,0 -1,0 -1,0 -1,1l0 1c0,0 0,0 1,0 0,1 0,1 0,1l2 0c0,0 0,0 0,0 0,0 0,0 0,0l0 1c0,0 0,0 0,1 0,0 0,0 0,0l-2 0c0,0 0,0 0,0 -1,0 -1,0 -1,1l0 11c0,0 0,0 0,1 0,0 0,0 0,0l-1 0zm4 -1c0,0 0,0 0,0 0,0 0,0 0,0 -1,0 -1,0 -1,0l0 -1c-1,0 -1,0 -1,0 0,-1 0,-1 0,-1l0 -8c0,0 0,0 0,0 0,-1 1,-1 1,-1l0 0c0,0 1,0 1,1 0,0 0,0 0,0l0 7c0,1 0,1 0,1 0,0 0,0 0,0 0,0 0,0 0,0 0,1 0,1 0,1l0 1c0,0 0,0 0,0zm-7 0c0,0 0,0 0,0 0,0 0,0 -1,0 0,0 0,0 0,0 0,0 0,0 0,0l0 -1c0,0 0,0 0,-1 0,0 0,0 0,0 0,0 0,0 0,0 0,0 0,0 0,-1l0 -7c0,0 1,0 1,0 0,-1 0,-1 0,-1l1 0c0,0 0,0 0,1 0,0 0,0 0,0l0 8c0,0 0,0 0,1 0,0 0,0 0,0l-1 1z"/>
 </g>
</svg>
