<?xml version="1.0" encoding="UTF-8"?>
<!DOCTYPE svg PUBLIC "-//W3C//DTD SVG 1.1//EN" "http://www.w3.org/Graphics/SVG/1.1/DTD/svg11.dtd">
<!-- Creator: CorelDRAW X8 -->
<svg xmlns="http://www.w3.org/2000/svg" xml:space="preserve" width="87.0813mm" height="87.2302mm" version="1.1" style="shape-rendering:geometricPrecision; text-rendering:geometricPrecision; image-rendering:optimizeQuality; fill-rule:evenodd; clip-rule:evenodd"
viewBox="0 0 27 27"
 xmlns:xlink="http://www.w3.org/1999/xlink">
 <defs>
  <style type="text/css">
   <![CDATA[
    .str0 {stroke:#332C2B;stroke-width:0.0611621}
    .fil2 {fill:#FEFEFE}
    .fil0 {fill:#69DCF7}
    .fil1 {fill:#FEFEFE;fill-rule:nonzero}
   ]]>
  </style>
 </defs>
 <g id="图层_x0020_1">
  <metadata id="CorelCorpID_0Corel-Layer"/>
  <path class="fil0 str0" d="M25 18l-23 0c-1,0 -2,0 -2,1l0 6c0,1 1,2 2,2l23 0c1,0 2,-1 2,-2l0 -6c0,-1 -1,-1 -2,-1z"/>
  <path class="fil1" d="M12 20c0,0 0,0 0,0 1,0 1,-1 1,-1l0 0c0,0 0,1 0,1 0,0 0,0 0,0l0 4c0,0 0,0 0,0 0,0 0,0 0,1l0 0c0,0 0,0 0,0 -1,0 -1,0 -1,0l0 0c0,0 0,0 0,0 0,0 0,0 0,0l0 -1c0,0 0,0 0,0 0,0 0,0 0,0l0 0c0,0 0,0 0,0 0,0 0,0 0,0l0 -4zm0 0c0,0 0,0 0,0 0,0 0,-1 0,-1l0 0c0,0 0,1 0,1 0,0 0,0 0,0l0 4c0,0 0,0 0,0 0,0 0,0 0,0l0 0c0,0 0,0 0,0 0,0 0,0 0,0l0 -4zm-2 -1c0,0 0,1 0,1 0,0 0,0 0,0l0 2c0,0 0,0 0,0 0,0 0,0 0,0 0,0 0,0 0,0 0,0 0,0 0,0l0 -2c0,0 0,0 1,0 0,0 0,-1 0,-1l0 0c0,0 1,1 1,1 0,0 0,0 0,0l0 2c0,0 0,0 0,0 0,0 0,0 0,0 0,0 0,0 0,0 0,0 0,0 0,0l0 0c0,0 0,0 0,0 0,0 0,0 0,0 0,0 0,0 0,0 0,0 0,0 0,1l0 1c0,0 0,0 0,0 0,0 0,0 -1,1l0 0c0,0 0,0 0,0 0,0 0,0 0,0 0,0 0,0 0,0 0,0 0,0 0,0l0 -1c0,0 0,0 0,0 0,0 0,0 0,0 0,0 0,0 0,0 0,0 0,0 0,0l0 -1c0,-1 0,-1 0,-1 0,0 0,0 0,0 0,0 0,0 0,0 0,0 0,0 0,1l0 2c0,0 0,0 0,0 0,0 0,0 0,0l0 0c0,0 0,0 0,0 -1,0 -1,0 -1,0l0 -2c0,-1 0,-1 0,-1 0,0 0,0 0,0 0,0 0,0 0,0 0,0 0,0 0,1l0 1c0,0 0,0 0,0 0,0 0,0 0,1l0 0c0,0 0,0 0,0 0,0 0,0 0,0 0,0 0,0 0,0 0,0 0,0 0,0l0 -1c0,0 0,0 0,0 0,0 0,0 0,0 0,0 0,0 0,0 0,0 0,0 0,0l0 -1c0,-1 0,-1 0,-1 0,0 0,0 0,0 0,0 0,0 0,0 0,0 0,0 0,1l0 2c0,0 0,0 0,0 -1,0 -1,0 -1,0l0 0c0,0 0,0 0,0 0,0 0,0 0,0l0 -2c0,-1 0,-1 0,-1 0,0 0,0 0,0 0,0 0,0 0,0 0,0 0,0 0,0l0 0c0,0 0,0 0,0 0,0 0,0 0,0 0,0 0,0 0,0 0,0 0,0 0,0l0 -2c0,0 0,0 0,0 0,0 0,-1 0,-1l1 0zm1 3c0,0 0,0 0,0 0,0 0,0 0,0 0,0 0,0 0,0 0,0 0,0 0,0l0 -2c0,0 0,0 0,0 0,0 0,0 0,0 0,0 0,0 0,0 0,0 0,0 0,0l0 2zm-1 0c0,0 0,0 0,0 0,0 0,0 0,0l0 -2c0,0 0,0 0,0 0,0 0,0 0,0 0,0 0,0 0,0 0,0 0,0 0,0l0 2c0,0 0,0 0,0 0,0 0,0 0,0zm4 3c0,0 0,0 0,0 0,0 0,0 0,0l0 0c0,0 0,0 0,0 0,0 0,0 0,0l0 -5c0,0 0,0 0,0 0,0 0,-1 0,-1l1 0c0,0 0,1 0,1 0,0 0,0 0,0l0 1c0,1 0,1 0,1 0,0 0,0 0,0 0,0 0,0 0,0 0,0 0,0 0,0 0,0 0,0 0,0 0,0 0,0 0,0l0 2c0,0 0,0 0,0 0,0 0,0 0,0l-1 0c0,0 0,0 0,1 0,0 0,0 0,0zm3 -3c0,0 0,0 0,0 0,0 0,0 0,0l0 0c0,0 0,0 0,0 0,0 0,0 0,0l0 0c0,0 1,0 1,0 0,0 0,0 0,0l0 1c0,0 0,0 0,0 0,0 -1,0 -1,0l0 0c0,0 0,0 0,0 0,0 0,0 0,0l0 2c0,0 0,0 0,0 0,0 0,0 -1,0l0 0c0,0 0,0 0,0 0,0 0,0 0,0l0 -1c0,0 0,0 0,0 0,0 0,0 0,0 0,0 0,0 0,0 0,0 0,0 0,0l0 -1c0,0 0,0 0,0 0,0 0,0 0,0l-1 0c0,0 0,0 0,0 0,0 0,0 0,0l0 -1c0,0 0,0 0,0 0,0 0,0 0,0l1 0c0,0 0,0 0,0 0,0 0,0 0,0l0 0c0,0 0,0 0,0 0,0 0,0 0,0l-1 0c0,0 0,0 0,0 0,-1 0,-1 0,-1l0 0c0,0 0,0 0,0 0,0 0,0 0,0l2 0c0,0 1,0 1,0 0,0 0,0 0,0l0 0c0,0 0,0 0,1 0,0 -1,0 -1,0l0 0zm1 -1c0,0 0,0 0,0 0,0 -1,0 -1,0l0 0c0,0 0,0 0,0 0,0 0,0 0,0l0 -1c0,0 0,0 0,0 0,0 0,0 0,0l-1 0c0,0 0,0 0,0 0,0 0,0 0,0l0 1c0,0 0,0 0,0 0,0 0,0 0,0l-1 0c0,0 0,0 0,0 0,0 0,0 0,0l0 0c0,-1 0,-1 0,-1 0,0 0,0 0,0 0,0 0,0 0,0 0,0 0,0 0,0l0 0c0,0 0,0 1,0 0,0 0,-1 0,-1l1 0c0,0 0,1 0,1 0,0 0,0 0,0l0 0c0,0 0,0 0,0 0,0 0,0 0,0 1,0 1,0 1,0 0,0 0,0 0,1l0 0zm-3 3c0,0 0,0 0,0 0,0 0,0 0,0 0,0 0,0 0,0l0 -1c0,0 0,0 0,0 0,0 1,0 1,0l0 0c0,0 0,0 0,0 0,0 0,0 0,0l0 2c0,0 0,0 0,0 0,0 0,0 0,0l-1 0c0,0 0,0 0,0 0,0 0,0 0,0l0 -1c0,0 0,0 0,0zm2 -1c0,0 0,0 0,0 0,0 0,0 0,0l0 1c0,0 0,0 0,0 0,0 0,0 1,0 0,0 0,0 0,0 0,0 0,0 0,0l0 1c0,0 0,0 0,0 0,0 0,0 -1,0l0 0c0,0 0,0 0,0 0,0 0,0 0,0l0 -2c0,0 0,0 0,0 0,0 0,0 0,0l0 0zm-3 1c0,0 0,0 0,0 0,0 0,0 0,0 0,0 1,0 1,0 0,0 0,0 0,0l0 -2c0,0 0,0 0,0 0,0 -1,0 -1,0 0,0 0,0 0,0 0,0 0,0 0,0l0 2zm0 -3c0,1 0,1 0,1 0,0 0,0 0,0 0,0 1,0 1,0 0,0 0,0 0,-1l0 -1c0,0 0,0 0,0 0,0 -1,0 -1,0 0,0 0,0 0,0 0,0 0,0 0,0l0 1z"/>
  <path class="fil2" d="M13 0c-3,0 -6,3 -6,6 0,4 3,7 6,7 4,0 7,-3 7,-7 0,-3 -3,-6 -7,-6zm3 8c0,0 0,1 0,1 0,1 -1,1 -1,0l-2 -1 -1 1c-1,1 -1,1 -1,0 -1,0 -1,0 -1,0 0,-1 0,-1 1,-1l1 -2 -1 -1c-1,0 -1,-1 -1,-1 0,0 0,0 1,0 0,-1 0,-1 1,0l1 1 2 -1c0,-1 1,-1 1,0 0,0 0,0 0,1l-2 1 2 2 0 0z" p-id="6971"/>
 </g>
</svg>
