<?xml version="1.0" encoding="UTF-8"?>
<!DOCTYPE svg PUBLIC "-//W3C//DTD SVG 1.1//EN" "http://www.w3.org/Graphics/SVG/1.1/DTD/svg11.dtd">
<!-- Creator: CorelDRAW X8 -->
<svg xmlns="http://www.w3.org/2000/svg" xml:space="preserve" width="150.851mm" height="240.245mm" version="1.1" style="shape-rendering:geometricPrecision; text-rendering:geometricPrecision; image-rendering:optimizeQuality; fill-rule:evenodd; clip-rule:evenodd"
viewBox="0 0 473 753"
 xmlns:xlink="http://www.w3.org/1999/xlink">
 <defs>
  <style type="text/css">
   <![CDATA[
    .fil0 {fill:#D0753B}
    .fil1 {fill:white;fill-rule:nonzero}
   ]]>
  </style>
 </defs>
 <g id="图层_x0020_1">
  <metadata id="CorelCorpID_0Corel-Layer"/>
  <path class="fil0" d="M35 0l403 0c23,0 35,18 35,35l0 683c0,23 -12,35 -35,35l-403 0c-17,0 -35,-12 -35,-35l0 -683c0,-17 18,-35 35,-35z"/>
  <path class="fil1" d="M113 446c0,-1 0,-3 1,-4 1,-1 3,-2 4,-2l28 0c2,0 3,0 4,-1 1,-1 2,-3 2,-4l0 -127c0,-1 1,-2 2,-4 1,-1 2,-1 4,-1l4 0c1,0 3,0 4,1 1,2 2,3 2,4l0 27c0,2 0,3 1,4 1,1 3,2 4,2l38 0c2,0 3,0 4,2 2,1 2,2 2,4l0 3c0,2 0,4 -2,5 -1,1 -2,1 -4,1l-38 0c-1,0 -3,1 -4,2 -1,1 -1,3 -1,4l0 73c0,1 0,3 1,4 1,1 3,1 4,1l44 0c2,0 3,1 5,2 1,1 1,3 1,4l0 4c0,2 0,3 -1,4 -2,1 -3,2 -5,2l-99 0c-1,0 -3,-1 -4,-2 -1,-1 -1,-2 -1,-4l0 -4zm229 -128c-2,0 -3,1 -4,2 -1,1 -2,2 -2,4l0 6c0,1 0,3 1,4 1,1 2,2 3,2l14 0c2,0 4,0 5,1 1,2 1,3 1,5l0 96c0,1 0,3 -1,5 -1,2 -2,4 -3,5l-4 4c-1,1 -3,2 -4,3 -2,1 -4,1 -6,1l-59 0c-2,0 -3,-1 -4,-2 -2,-1 -2,-2 -2,-4l0 -108c0,-2 0,-3 2,-5 1,-1 2,-1 4,-1l14 0c1,0 2,-1 3,-2 1,-1 1,-3 1,-4l0 -6c0,-2 0,-3 -2,-4 -1,-1 -2,-2 -4,-2l-12 0c-2,0 -3,0 -4,-2 -1,-1 -2,-2 -2,-4l0 -4c0,-1 1,-3 2,-4 1,-1 2,-1 4,-1l71 0c2,0 4,0 5,1 1,1 1,3 1,4l0 4c0,2 0,3 -1,4 -1,2 -3,2 -5,2l-12 0zm-93 128c0,-1 0,-3 1,-4 0,-1 1,-2 1,-2 1,0 2,0 2,-1 0,-1 1,-3 1,-4l-1 -63c0,-2 1,-3 2,-4 1,-1 3,-2 4,-2l4 0c2,0 3,1 4,2 1,1 2,2 2,4l0 66c0,1 0,3 -1,5 -1,2 -2,4 -3,5l-4 4c-2,1 -3,2 -4,3 -2,1 -3,1 -4,1 -1,0 -2,-1 -3,-2 0,-1 -1,-2 -1,-4l0 -4zm77 -47c-1,-1 -2,-3 -3,-5 -1,-2 -1,-4 -1,-5l0 -32c0,-2 0,-3 -1,-4 -1,-1 -2,-2 -2,-2 -1,0 -2,1 -3,2 -1,1 -1,2 -1,4l0 32c0,1 0,3 -1,5 -1,2 -2,4 -3,5l-3 4c-1,1 -3,2 -5,3 -1,1 -3,1 -5,1 -1,0 -3,0 -4,1 -1,1 -2,2 -2,4 0,1 1,2 2,3 1,1 3,2 4,2l41 0c2,0 3,-1 4,-2 1,-1 2,-2 2,-3 0,-2 -1,-3 -2,-4 -1,-1 -2,-1 -4,-1l0 0c-2,0 -4,0 -5,-1 -2,-1 -4,-2 -5,-3l-3 -4zm13 41c2,0 3,0 4,-1 1,-1 2,-2 2,-3 0,-1 -1,-2 -2,-3 -1,-1 -2,-1 -4,-1l-41 0c-1,0 -3,0 -4,1 -1,1 -2,2 -2,3 0,1 1,2 2,3 1,1 3,1 4,1l41 0zm5 -87c-1,-1 -2,-2 -4,-2 -1,0 -2,1 -3,2 -1,1 -1,2 -1,4l0 29c0,1 0,3 1,4 1,1 2,1 3,1 2,0 3,0 4,-1 0,-1 1,-3 1,-4l0 -29c0,-2 -1,-3 -1,-4zm-47 -2c-2,0 -3,1 -3,2 -1,1 -2,2 -2,4l0 29c0,1 1,3 2,4 0,1 1,1 3,1 1,0 2,0 3,-1 1,-1 1,-3 1,-4l0 -29c0,-2 0,-3 -1,-4 -1,-1 -2,-2 -3,-2zm-32 -30c-1,1 -2,2 -4,2 -2,0 -3,-1 -4,-2l-2 -2c-2,-2 -2,-3 -2,-5 0,-1 0,-3 2,-4l2 -2c1,-2 2,-2 4,-2 2,0 3,0 4,2l3 2c1,1 2,3 2,4 0,2 -1,3 -2,5l-3 2zm-10 29c-2,-1 -2,-2 -2,-4 0,-1 0,-3 2,-4l2 -3c1,-1 2,-1 4,-1 2,0 3,0 4,1l3 3c1,1 2,3 2,4 0,2 -1,3 -2,4l-3 3c-1,1 -2,2 -4,2 -2,0 -3,-1 -4,-2l-2 -3zm67 -26c0,-2 0,-3 -1,-4 -1,-1 -2,-2 -2,-2 -1,0 -2,1 -3,2 -1,1 -1,2 -1,4l0 6c0,1 0,3 1,4 1,1 2,2 3,2 0,0 1,-1 2,-2 1,-1 1,-3 1,-4l0 -6z"/>
 </g>
</svg>
