<?xml version="1.0" encoding="UTF-8"?>
<!DOCTYPE svg PUBLIC "-//W3C//DTD SVG 1.1//EN" "http://www.w3.org/Graphics/SVG/1.1/DTD/svg11.dtd">
<!-- Creator: CorelDRAW X8 -->
<svg xmlns="http://www.w3.org/2000/svg" xml:space="preserve" width="151.035mm" height="240.245mm" version="1.1" style="shape-rendering:geometricPrecision; text-rendering:geometricPrecision; image-rendering:optimizeQuality; fill-rule:evenodd; clip-rule:evenodd"
viewBox="0 0 79 125"
 xmlns:xlink="http://www.w3.org/1999/xlink">
 <defs>
  <style type="text/css">
   <![CDATA[
    .fil0 {fill:#00B4CC}
    .fil1 {fill:#FEFEFE;fill-rule:nonzero}
   ]]>
  </style>
 </defs>
 <g id="图层_x0020_1">
  <metadata id="CorelCorpID_0Corel-Layer"/>
  <path class="fil0" d="M6 0l67 0c3,0 6,3 6,6l0 113c0,3 -3,6 -6,6l-67 0c-3,0 -6,-3 -6,-6l0 -113c0,-3 3,-6 6,-6z"/>
  <path class="fil1" d="M37 74c0,1 0,1 0,1 0,0 0,0 -1,0l-16 0c-1,0 -1,0 -1,0 0,0 0,0 0,-1l0 0c0,0 0,-1 0,-1 0,0 0,0 1,0l6 0c0,0 0,0 0,0 1,-1 1,-1 1,-1l0 -2c0,-1 0,-1 -1,-1 0,0 0,0 0,0l-6 0c-1,0 -1,0 -1,-1 0,0 0,0 0,0l0 -1c0,0 0,0 0,-1 0,0 0,0 1,0l6 0c0,0 0,0 0,0 1,0 1,-1 1,-1l0 0c0,0 0,-1 0,-1 0,0 0,0 1,0l0 0c1,0 1,0 1,0 0,0 0,1 0,1l0 0c0,0 0,1 1,1 0,0 0,0 0,0l6 0c1,0 1,0 1,0 0,1 0,1 0,1l0 1c0,0 0,0 0,0 0,1 0,1 -1,1l-6 0c0,0 0,0 0,0 -1,0 -1,0 -1,1l0 2c0,0 0,0 1,1 0,0 0,0 0,0l6 0c1,0 1,0 1,0 0,0 0,1 0,1l0 0zm-15 -13c0,0 0,0 1,0 0,0 0,-1 0,-1l1 0c0,0 0,0 0,0 0,-1 0,-1 0,-1l-4 -2c0,0 0,0 -1,-1 0,0 0,0 0,0l0 -1c0,-1 0,-1 0,-1 1,0 1,0 1,0l1 0c0,0 0,0 1,0 0,0 0,0 0,0 0,1 0,1 0,1 0,0 0,0 1,1l4 2c0,0 1,0 1,0 0,0 1,0 1,0l4 -2c1,-1 1,-1 1,-1 0,0 0,-1 0,-1l0 -1c0,0 0,0 0,0 0,0 0,-1 -1,-1l-13 0c0,0 0,0 -1,0 0,0 0,0 0,-1l0 0c0,0 0,-1 0,-1 1,0 1,0 1,0l16 0c0,0 0,0 1,0 0,0 0,1 0,1l0 5c0,0 0,0 0,0 -1,1 -1,1 -1,1l-4 2c-1,0 -1,1 0,1l0 0c1,1 1,1 1,1 1,0 1,0 1,0l2 0c1,0 1,0 1,0 0,0 0,1 0,1l0 0c0,1 0,1 0,1 0,0 0,0 -1,0l-2 0c-1,0 -1,0 -1,0 -1,0 -1,0 -1,0l-3 -2c0,0 -1,0 -1,0 0,0 -1,0 -1,0l-3 2c0,0 0,0 -1,0 0,0 0,0 -1,0l-2 0c-1,0 -1,0 -1,0 0,0 0,0 0,-1l0 0c0,-1 0,-1 0,-1 0,0 0,0 1,0l2 0zm30 -5c1,0 1,0 1,1 0,0 0,0 0,0l0 11c0,0 0,0 0,1 1,0 1,0 1,0 0,0 0,0 0,0 0,-1 1,-1 1,-1l0 -14c0,0 -1,0 -1,0 0,0 0,-1 0,-1l-3 0c0,0 0,0 -1,0 0,0 0,0 0,-1l0 0c0,0 0,-1 0,-1 1,0 1,0 1,0l5 0c1,0 1,0 1,0 0,0 0,-1 0,-1 0,0 0,0 1,0 0,0 0,0 0,0l1 0c0,0 0,0 1,0 0,0 0,1 0,1l0 1c0,1 0,1 0,1 -1,0 -1,0 -1,0l-1 0c0,0 0,1 -1,1 0,0 0,0 0,0l0 3c0,1 0,1 0,1 1,0 1,0 1,0l1 0c0,0 0,0 1,1 0,0 0,0 0,0l0 1c0,0 0,0 0,1 -1,0 -1,0 -1,0l-1 0c0,0 0,0 -1,0 0,0 0,1 0,1l0 6c0,0 0,0 0,1 1,0 1,0 1,0l1 0c0,0 0,0 1,0 0,0 0,0 0,1l0 0c0,1 0,1 0,1 -1,0 -1,0 -1,0l-8 0c0,0 0,0 -1,0 0,0 0,0 0,-1l0 0c0,-1 0,-1 0,-1 0,0 0,0 1,0 0,0 0,0 0,0 0,-1 0,-1 0,-1l0 -11c0,0 0,0 0,0 0,-1 1,-1 1,-1l0 0zm-6 17c0,0 0,0 0,0 0,0 0,0 0,0 0,-1 1,-1 1,-1l0 -7c0,0 -1,0 -1,-1 0,0 0,0 0,0 0,0 0,0 0,0 0,0 0,-1 0,-1l0 0c0,-1 0,-1 0,-1 0,0 0,0 0,0 0,0 0,-1 0,-1 0,0 1,0 1,0l0 -8c0,0 -1,0 -1,0 0,-1 0,-1 0,-1 0,0 0,0 0,0 0,0 0,0 0,-1l0 0c0,0 0,-1 0,-1 0,0 0,0 1,0l1 0c0,0 1,0 1,0 0,0 0,1 0,1l0 10c0,0 0,1 0,1 0,0 0,0 0,0 0,1 0,1 0,1 0,0 0,0 0,0 0,0 0,1 0,1 0,0 0,0 0,1l0 4c0,1 0,1 0,1 0,1 1,1 1,1l1 1c0,0 0,0 0,1 1,0 1,0 1,0l7 0c0,0 0,0 1,0 0,0 0,1 0,1l0 0c0,1 0,1 0,1 -1,0 -1,0 -1,0l-8 0c0,0 0,0 -1,0 0,0 0,0 0,0l-1 -1c0,0 0,0 0,0 0,0 -1,0 -1,0l0 1c0,0 -1,0 -1,0 0,0 0,0 -1,0 0,0 0,0 0,0 0,0 0,0 0,-1l0 0c0,0 0,-1 0,-1zm-4 0c0,0 0,0 0,0 0,-1 0,-1 0,-1l0 -14c0,0 0,0 0,0 0,-1 0,-1 0,-1 0,0 0,0 0,0 0,0 0,0 0,-1l0 0c0,-1 0,-1 0,-1 0,0 0,0 0,0l2 0c0,0 1,0 1,0 0,0 0,0 0,1l0 18c0,1 0,1 0,1 0,0 -1,0 -1,0l-2 0c0,0 0,0 0,0 0,0 0,0 0,-1l0 0c0,0 0,-1 0,-1 0,0 0,0 0,0zm3 -22c0,0 0,1 0,1 0,0 0,0 0,1l-1 0c0,0 0,0 -1,0 0,0 0,0 0,0l-1 0c0,-1 0,-1 0,-1 0,0 0,-1 0,-1l1 0c0,0 0,-1 0,-1 1,0 1,1 1,1l1 0z"/>
 </g>
</svg>
