<?xml version="1.0" encoding="UTF-8"?>
<!DOCTYPE svg PUBLIC "-//W3C//DTD SVG 1.1//EN" "http://www.w3.org/Graphics/SVG/1.1/DTD/svg11.dtd">
<!-- Creator: CorelDRAW X8 -->
<svg xmlns="http://www.w3.org/2000/svg" xml:space="preserve" width="151.586mm" height="240.675mm" version="1.1" style="shape-rendering:geometricPrecision; text-rendering:geometricPrecision; image-rendering:optimizeQuality; fill-rule:evenodd; clip-rule:evenodd"
viewBox="0 0 80 127"
 xmlns:xlink="http://www.w3.org/1999/xlink">
 <defs>
  <style type="text/css">
   <![CDATA[
    .fil0 {fill:#9B72F4}
    .fil1 {fill:#FEFEFE;fill-rule:nonzero}
   ]]>
  </style>
 </defs>
 <g id="图层_x0020_1">
  <metadata id="CorelCorpID_0Corel-Layer"/>
  <path class="fil0" d="M6 0l68 0c3,0 6,3 6,6l0 115c0,4 -3,6 -6,6l-68 0c-3,0 -6,-2 -6,-6l0 -115c0,-3 3,-6 6,-6z"/>
  <path class="fil1" d="M38 76c0,0 0,0 0,0 0,1 -1,1 -1,1l-17 0c0,0 0,0 -1,-1 0,0 0,0 0,0l0 -1c0,0 0,-1 0,-1 1,0 1,0 1,0l7 0c0,0 0,0 1,0 0,0 0,-1 0,-1l0 -5c0,-1 0,-1 0,-1 -1,0 -1,0 -1,0l-7 0c0,0 0,0 -1,-1 0,0 0,0 0,0l0 -1c0,0 0,-1 0,-1 1,0 1,0 1,0l7 0c0,0 0,0 1,0 0,0 0,-1 0,-1l0 -4c0,-1 0,-1 0,-1 -1,0 -1,0 -1,0l-5 0c0,0 0,0 -1,0 0,-1 0,-1 -1,-1l0 0c0,-1 0,-1 -1,-1 0,-1 0,-1 0,-1l0 -3c0,0 0,0 0,0 1,0 1,-1 1,-1l1 0c0,0 0,1 0,1 1,0 1,0 1,0l0 2c0,0 0,1 0,1 0,0 0,0 1,0l4 0c0,0 0,0 1,0 0,0 0,-1 0,-1l0 -2c0,-1 0,-1 0,-1 0,0 1,0 1,0l1 0c0,0 0,0 0,0 0,0 1,0 1,1l0 2c0,0 0,1 0,1 0,0 0,0 1,0l5 0c0,0 1,0 1,0 0,1 0,1 0,1l0 1c0,0 0,0 0,0 0,1 -1,1 -1,1l-5 0c-1,0 -1,0 -1,0 0,0 0,0 0,1l0 4c0,0 0,1 0,1 0,0 0,0 1,0l5 0c0,0 1,0 1,0 0,0 0,1 0,1l0 1c0,0 0,0 0,0 0,1 -1,1 -1,1l-5 0c-1,0 -1,0 -1,0 0,0 0,0 0,1l0 5c0,0 0,1 0,1 0,0 0,0 1,0l5 0c0,0 1,0 1,0 0,0 0,1 0,1l0 1zm4 -24c0,-1 0,-1 1,-1 0,0 0,0 0,0l17 0c0,0 0,0 1,0 0,0 0,0 0,1l0 22c0,0 0,0 0,0 0,1 -1,1 -1,1l0 1c-1,0 -1,0 -1,0 -1,1 -1,1 -1,1l-15 0c0,0 0,0 0,-1 -1,0 -1,0 -1,0l0 -24zm15 22c1,0 1,0 1,0 0,0 0,-1 0,-1l0 -8c0,0 0,0 0,-1 0,0 0,0 -1,0l-11 0c0,0 -1,0 -1,0 0,1 0,1 0,1l0 8c0,0 0,1 0,1 0,0 1,0 1,0l11 0zm-11 -21c0,0 -1,0 -1,1 0,0 0,0 0,0l0 7c0,0 0,0 0,0 0,0 1,1 1,1l11 0c1,0 1,-1 1,-1 0,0 0,0 0,0l0 -7c0,0 0,0 0,0 0,-1 0,-1 -1,-1l-11 0z"/>
 </g>
</svg>
