<?xml version="1.0" encoding="UTF-8"?>
<!DOCTYPE svg PUBLIC "-//W3C//DTD SVG 1.1//EN" "http://www.w3.org/Graphics/SVG/1.1/DTD/svg11.dtd">
<!-- Creator: CorelDRAW X8 -->
<svg xmlns="http://www.w3.org/2000/svg" xml:space="preserve" width="151.035mm" height="240.245mm" version="1.1" style="shape-rendering:geometricPrecision; text-rendering:geometricPrecision; image-rendering:optimizeQuality; fill-rule:evenodd; clip-rule:evenodd"
viewBox="0 0 80 127"
 xmlns:xlink="http://www.w3.org/1999/xlink">
 <defs>
  <style type="text/css">
   <![CDATA[
    .fil0 {fill:#CA5599}
    .fil1 {fill:#FEFEFE;fill-rule:nonzero}
   ]]>
  </style>
 </defs>
 <g id="图层_x0020_1">
  <metadata id="CorelCorpID_0Corel-Layer"/>
  <path class="fil0" d="M6 0l67 0c4,0 7,3 7,6l0 114c0,4 -3,7 -7,7l-67 0c-3,0 -6,-3 -6,-7l0 -114c0,-3 3,-6 6,-6z"/>
  <path class="fil1" d="M23 51c0,0 0,0 0,0 0,0 0,-1 1,-1l0 0c0,0 1,1 1,1 0,0 0,0 0,0l0 3c0,1 0,1 0,1 1,0 1,0 1,0 0,0 0,0 0,1 0,0 0,0 0,0l0 1c0,0 0,0 0,1 0,0 0,0 0,0 0,0 0,0 -1,0 0,0 0,1 0,1l0 8c0,0 0,1 0,1 1,0 1,0 1,0 0,0 0,0 0,0 0,1 0,1 0,1l0 1c0,0 0,0 0,0 0,1 0,1 0,1 0,0 0,0 -1,0 0,0 0,0 0,1l0 3c0,0 0,1 0,1 0,0 -1,0 -1,0l0 0c-1,0 -1,0 -1,0 0,0 0,-1 0,-1l0 -3c0,-1 0,-1 -1,-1 0,0 0,0 0,0l-2 0c0,0 0,0 -1,-1 0,0 0,0 0,0l0 -1c0,0 0,0 0,-1 1,0 1,0 1,0l2 0c0,0 0,0 0,0 1,0 1,-1 1,-1l0 -8c0,0 0,-1 -1,-1 0,0 0,0 0,0 0,0 -1,0 -1,0 0,0 0,-1 0,-1l-1 0c0,-1 -1,-1 -1,-1 0,-1 0,-1 0,-1l0 -3c0,0 0,-1 0,-1 1,0 1,0 1,0l1 0c0,0 0,0 0,0 1,0 1,1 1,1l0 2c0,1 0,1 0,1 0,0 0,0 0,0 0,0 0,0 0,0 1,0 1,0 1,-1l0 -3zm6 16c0,0 1,0 1,1 0,0 0,0 0,0l0 0c0,1 0,1 0,1 1,0 1,0 1,0l1 0c0,0 0,0 0,1 1,0 1,0 1,0l0 1c0,0 0,0 -1,1 0,0 0,0 0,0l-1 0c-1,0 -1,0 -1,0 -1,0 -1,-1 -1,-1l-1 0c0,-1 0,-1 0,-1 0,-1 -1,-1 -1,-1l0 -1c0,0 1,0 1,0 0,-1 0,-1 0,-1l1 0zm1 -9c0,0 0,0 1,0 0,0 0,0 0,-1l0 -1c0,-1 0,-1 0,-1 -1,0 -1,0 -1,0l-2 0c-1,0 -1,0 -1,-1 0,0 0,0 0,0l0 -1c0,0 0,0 0,-1 0,0 0,0 1,0l2 0c0,0 0,0 1,0 0,0 0,0 0,-1 0,0 0,0 0,0 0,0 1,-1 1,-1l0 0c1,0 1,1 1,1 0,0 0,0 0,0 0,1 1,1 1,1 0,0 0,0 0,0l3 0c0,0 0,0 0,0 1,1 1,1 1,1l0 1c0,0 0,0 -1,0 0,1 0,1 0,1l-3 0c0,0 0,0 0,0 0,0 -1,0 -1,1l0 1c0,1 1,1 1,1 0,0 0,0 0,0l3 0c0,0 0,0 0,1 1,0 1,0 1,0l0 1c0,0 0,0 -1,1 0,0 0,0 0,0l-9 0c-1,0 -1,0 -1,0 0,-1 0,-1 0,-1l0 -1c0,0 0,0 0,0 0,-1 0,-1 1,-1l2 0zm-3 6c0,0 0,0 0,-1 0,0 0,0 1,0l5 0c0,0 1,0 1,0 0,0 0,0 0,-1 0,0 0,0 0,0 0,0 1,0 1,0l1 0c0,0 0,0 0,0 1,0 1,0 1,0 0,1 0,1 0,1 0,0 0,0 0,0 0,0 0,0 1,0 0,1 0,1 0,1l0 1c0,0 0,0 0,0 -1,1 -1,1 -1,1 0,0 0,0 0,0 0,0 0,0 0,1l0 6c0,0 0,1 -1,1 0,0 0,1 0,1l-1 0c0,1 0,1 -1,1 0,0 0,0 0,0l-4 0c0,0 0,0 0,0 -1,0 -1,-1 -1,-1l0 -1c0,0 0,0 1,0 0,0 0,0 0,0l3 0c0,0 1,-1 1,-1 0,0 0,0 0,0l0 -6c0,-1 0,-1 0,-1 0,0 -1,0 -1,0l-5 0c-1,0 -1,0 -1,-1 0,0 0,0 0,0l0 -1zm18 11c0,1 0,1 -1,1 0,0 0,0 -1,0l0 0c0,0 -1,0 -1,0 0,0 0,-1 0,-1l0 -1c0,0 0,0 0,0 0,0 0,0 1,0 0,0 0,-1 0,-1 0,0 1,0 1,0l1 -1c0,0 0,0 0,-1 0,0 0,0 0,0l-2 -2c0,0 0,-1 0,-1 0,0 -1,-1 -1,-1l0 -3c0,0 1,-1 1,-1 0,0 0,0 0,0l1 0c0,0 1,0 1,0 0,0 0,1 0,1l0 2c0,0 0,1 0,1 0,0 0,1 1,1l0 1c0,0 1,0 1,0 0,0 0,0 1,0l0 -1c0,0 1,-1 1,-1 0,0 0,-1 0,-1l0 -2c0,0 0,-1 0,-1 0,0 1,0 1,0l0 0c1,0 1,0 1,0 0,0 0,1 0,1l0 3c0,0 0,1 0,1 0,0 0,1 0,1l-2 2c0,0 0,0 0,0 0,1 0,1 0,1l1 1c0,0 0,0 1,0 0,0 0,1 0,1 0,0 1,0 1,0 0,0 0,0 0,0l0 1c0,0 0,1 0,1 -1,0 -1,0 -1,0l-1 0c0,0 0,0 0,0 -1,0 -1,0 -1,-1l-1 -1c-1,0 -1,0 -1,0 0,0 -1,0 -1,0l-1 1zm6 -22c-1,1 -1,1 -1,1 -1,0 -1,0 -1,0l-6 0c0,0 -1,0 -1,0 0,0 0,-1 0,-1l0 -1c0,0 0,0 0,0 0,0 1,-1 1,-1l5 0c1,0 1,0 1,0 0,0 0,0 0,0 0,0 0,0 1,0 0,0 0,-1 0,-1l1 0c0,0 0,1 1,1 0,0 0,0 0,0 0,0 0,1 0,1 0,0 -1,1 -1,1l0 0zm-7 8c0,1 0,1 -1,1 0,0 0,0 0,0 0,0 -1,0 -1,0 0,0 0,-1 0,-1l0 0c0,-1 0,-1 0,-1 0,0 0,0 0,0 1,0 1,-1 1,-1 0,0 0,0 0,0l0 -1c0,0 0,0 0,0 0,-1 0,-1 -1,-1 0,0 0,0 0,0 0,0 0,0 0,-1l0 0c0,-1 0,-1 0,-1 0,0 1,0 1,0l8 0c0,0 0,0 1,0 0,0 0,0 0,1l0 0c0,1 0,1 0,1 0,0 -1,0 -1,0 0,0 0,0 0,1 0,0 0,0 0,0l0 1c0,0 0,0 0,0 0,0 0,1 0,1 0,0 1,0 1,0 0,0 0,0 0,1l0 0c0,0 0,1 0,1 0,0 -1,0 -1,0 0,0 0,0 -1,0 0,0 0,0 0,-1l-1 0c0,0 0,-1 0,-1 -1,0 -1,-1 -1,-1l0 -1c0,0 0,0 0,0 0,-1 0,-1 -1,-1l0 0c-1,0 -1,0 -1,1 0,0 0,0 0,0l0 1c0,0 0,1 -1,1 0,0 0,1 0,1l-1 0zm11 14c0,0 0,1 0,1 0,0 -1,0 -1,0l0 0c-1,0 -1,0 -1,0 0,0 0,-1 0,-1l0 0c0,-1 0,-1 0,-1 0,0 0,0 0,0 0,0 0,-1 1,-1 0,0 0,0 0,0l1 -1c0,0 0,-1 0,-1 0,0 0,-1 0,-1l-1 -1c0,0 0,0 0,-1 0,0 -1,0 -1,-1l0 -13c0,0 0,0 0,0 0,-1 0,-1 0,-1 0,0 0,0 0,-1 0,0 0,0 0,0l0 -1c0,0 0,0 0,0 0,0 0,-1 1,-1l0 0c0,0 1,1 1,1 0,0 0,0 0,0 0,0 0,1 0,1 1,0 1,0 1,0l3 0c1,0 1,0 1,0 0,0 0,1 0,1l0 1c0,0 0,0 0,0 0,0 0,1 0,1 0,0 0,0 0,0 0,0 0,0 0,1l0 11c0,1 0,1 0,1 -1,1 -1,1 -1,1l0 1c-1,1 -1,1 -1,1 0,0 0,1 1,1l0 1c0,0 0,0 0,0 1,0 1,1 1,1 0,0 0,0 0,0 0,0 0,0 0,0l0 1c0,0 0,1 0,1 0,0 0,0 -1,0l0 0c0,0 -1,0 -1,0 0,0 0,-1 0,-1l-1 -1c0,0 0,0 0,0 -1,0 -1,0 -1,0l-1 1zm1 -8c0,1 0,1 0,1 0,0 0,0 1,0 0,0 0,0 0,0 0,0 0,0 0,-1 0,0 0,0 0,-1l0 -10c0,-1 0,-1 0,-1 0,0 0,0 0,0 -1,0 -1,0 -1,0 0,0 0,0 0,1l0 10c0,1 0,1 0,1z"/>
 </g>
</svg>
