<?xml version="1.0" encoding="UTF-8"?>
<!DOCTYPE svg PUBLIC "-//W3C//DTD SVG 1.1//EN" "http://www.w3.org/Graphics/SVG/1.1/DTD/svg11.dtd">
<!-- Creator: CorelDRAW X8 -->
<svg xmlns="http://www.w3.org/2000/svg" xml:space="preserve" width="150.851mm" height="240.245mm" version="1.1" style="shape-rendering:geometricPrecision; text-rendering:geometricPrecision; image-rendering:optimizeQuality; fill-rule:evenodd; clip-rule:evenodd"
viewBox="0 0 25620 40802"
 xmlns:xlink="http://www.w3.org/1999/xlink">
 <defs>
  <style type="text/css">
   <![CDATA[
    .fil0 {fill:#DED572}
    .fil1 {fill:#FEFEFE;fill-rule:nonzero}
   ]]>
  </style>
 </defs>
 <g id="图层_x0020_1">
  <metadata id="CorelCorpID_0Corel-Layer"/>
  <path class="fil0" d="M1898 0l21824 0c1265,0 1898,949 1898,1898l0 37006c0,1265 -633,1898 -1898,1898l-21824 0c-949,0 -1898,-633 -1898,-1898l0 -37006c0,-949 949,-1898 1898,-1898z"/>
  <path class="fil1" d="M12127 22112c0,84 -29,159 -89,225 -60,66 -132,99 -216,99l-206 0c-90,0 -166,-33 -229,-99 -63,-66 -95,-141 -95,-225l0 -4516c0,-83 -29,-157 -89,-220 -59,-62 -133,-94 -223,-94l-1108 0c-83,0 -157,32 -218,94 -63,63 -94,137 -94,220l0 4516c0,84 -32,159 -96,225 -63,66 -138,99 -222,99l-209 0c-84,0 -157,-33 -217,-99 -61,-66 -91,-141 -91,-225l0 -5357c0,-83 12,-157 36,-217 24,-61 51,-91 80,-91l2981 0c84,0 156,30 216,91 60,60 89,134 89,217l0 5357zm-4830 -2226c84,0 156,-30 216,-90 60,-60 89,-135 89,-224l0 -674c0,-84 -29,-155 -89,-215 -60,-60 -132,-90 -216,-90l-853 0c-84,0 -155,-32 -215,-93 -60,-63 -90,-135 -90,-218l0 -213c0,-84 30,-155 90,-218 60,-62 131,-93 215,-93l1679 0c90,0 165,31 225,94 60,63 89,136 89,219l0 1674c0,90 -21,186 -62,286 -42,102 -96,185 -162,251l-224 214c-66,66 -141,120 -225,162 -84,42 -156,63 -215,63 -66,0 -119,16 -158,49 -38,33 -58,73 -58,121 0,48 17,90 50,126 32,36 73,54 121,54 54,0 121,21 202,63 81,42 148,95 202,161l224 225c66,60 120,140 162,242 42,102 63,198 63,287l0 2039c0,77 -32,148 -95,211 -62,62 -136,94 -220,94l-134 0c-84,0 -156,-32 -216,-94 -60,-63 -90,-134 -90,-211l0 -1877c0,-84 -13,-156 -41,-215 -27,-60 -60,-90 -98,-90 -37,0 -70,30 -97,90 -28,59 -42,131 -42,215l0 2173c0,84 -33,157 -97,220 -66,63 -139,94 -223,94l-204 0c-83,0 -155,-31 -218,-94 -61,-63 -93,-136 -93,-220l0 -3349c0,-84 -16,-157 -49,-220 -33,-63 -77,-94 -130,-94 -48,0 -89,-32 -122,-95 -33,-62 -49,-136 -49,-220l0 -197c0,-90 30,-166 90,-229 60,-63 131,-94 215,-94l853 0zm3259 4354c-66,-54 -119,-133 -161,-238 -42,-104 -63,-199 -63,-283l0 -278c0,-84 -9,-129 -27,-135 -18,-6 -42,33 -72,117l-332 979c-30,84 -84,154 -162,211 -78,57 -161,85 -251,85l-458 0c-84,0 -156,-31 -215,-94 -60,-63 -90,-136 -90,-220l0 -207c0,-89 22,-164 67,-224 45,-60 103,-90 175,-90 66,0 133,-28 202,-85 69,-57 115,-127 139,-211l656 -2065c30,-84 52,-186 67,-305 15,-120 23,-225 23,-315l0 -2738c0,-84 31,-157 94,-220 63,-63 139,-94 229,-94l206 0c84,0 156,31 216,94 60,63 89,136 89,220l0 2999c0,84 -6,178 -17,283 -12,104 -30,190 -54,255 -18,60 -15,113 9,158 24,44 68,67 134,67 54,0 102,30 144,90 42,59 63,131 63,215l0 1338c0,90 30,164 90,224 59,60 131,90 215,90l350 0c84,0 156,30 216,90 60,60 89,135 89,224l0 207c0,84 -29,157 -89,220 -60,63 -132,94 -216,94l-521 0c-83,0 -178,-21 -282,-63 -105,-42 -187,-96 -247,-161l-216 -234zm-4354 -7390c-42,-83 -63,-150 -63,-201 0,-51 30,-96 90,-135 60,-38 131,-58 215,-58l216 0c90,0 164,11 224,32 60,20 90,49 90,85 0,30 30,55 90,76 60,21 134,32 224,32l835 0c90,0 165,31 225,94 60,63 89,136 89,220l0 206c0,84 -29,157 -89,220 -60,63 -135,95 -225,95l-1005 0c-84,0 -178,-21 -283,-63 -105,-42 -187,-96 -247,-162l-233 -218c-60,-66 -111,-141 -153,-223zm9618 1258c-85,0 -157,32 -217,94 -61,62 -91,135 -91,217l0 554c0,82 30,156 91,217 60,63 132,94 217,94l363 0c85,0 158,30 221,90 64,60 96,135 96,224l0 198c0,84 -32,159 -96,224 -63,66 -136,99 -221,99l-363 0c-85,0 -157,30 -217,90 -61,60 -91,132 -91,215l0 3116c0,90 11,164 32,224 21,60 46,90 76,90 30,0 58,-30 85,-90 27,-60 41,-134 41,-224l0 -2505c0,-84 30,-157 91,-220 60,-63 136,-94 227,-94l117 0c85,0 160,31 223,94 64,63 96,136 96,220l0 2666c0,90 -20,189 -59,297 -38,107 -88,191 -148,251l-163 198c-66,66 -148,122 -247,170 -98,48 -197,72 -293,72l-1791 0c-85,0 -157,-31 -217,-94 -60,-63 -90,-136 -90,-220l0 -216c0,-83 30,-155 90,-215 60,-60 132,-90 215,-90l638 0c84,0 158,-30 224,-90 66,-60 99,-134 99,-224l0 -3116c0,-83 -33,-155 -99,-215 -66,-60 -140,-90 -224,-90l-638 0c-83,0 -155,-33 -215,-99 -60,-65 -90,-140 -90,-224l0 -198c0,-89 11,-164 32,-224 20,-60 49,-90 85,-90 36,0 64,-31 85,-94 21,-63 32,-136 32,-220l0 -1796c0,-83 29,-155 89,-215 60,-60 132,-90 216,-90l126 0c89,0 164,30 224,90 60,60 90,132 90,215l0 1796c0,84 13,157 40,220 27,63 59,94 94,94 42,0 78,-31 108,-94 30,-63 45,-136 45,-222l0 -2214c0,-85 30,-157 90,-217 60,-60 132,-90 215,-90l126 0c84,0 159,30 224,91 66,60 99,134 99,217l0 201c0,84 30,159 91,221 60,65 132,96 217,96l363 0c85,0 158,30 221,91 64,60 96,134 96,217l0 210c0,90 -32,166 -96,226 -63,61 -136,91 -221,91l-363 0zm-1313 4408c0,84 -20,178 -59,283 -39,105 -88,193 -148,265l-161 198c-60,59 -132,113 -216,161 -84,48 -159,72 -224,72 -54,0 -102,-31 -144,-94 -42,-63 -63,-139 -63,-229l0 -198c0,-84 12,-155 36,-215 24,-60 54,-90 90,-90 36,0 67,-31 94,-94 27,-63 40,-136 40,-220l0 -1329c0,-90 30,-166 90,-229 60,-63 135,-94 225,-94l125 0c84,0 158,31 220,94 63,63 95,139 95,229l0 1490zm3591 -3115c84,0 157,31 220,94 63,63 94,136 94,220l0 2649c0,84 12,184 36,301 24,116 60,213 108,291l323 629c48,78 108,143 180,197 71,54 140,81 206,81 60,0 111,30 153,90 42,60 63,135 63,224l0 207c0,84 -30,157 -90,220 -60,63 -132,94 -216,94l-278 0c-84,0 -172,-27 -265,-81 -93,-54 -163,-119 -211,-197l-242 -431c-48,-78 -101,-117 -157,-117 -57,0 -110,42 -158,126l-224 422c-48,78 -117,143 -206,197 -90,54 -180,81 -270,81l-224 0c-90,0 -165,-31 -225,-94 -60,-63 -89,-136 -89,-220l0 -207c0,-89 19,-164 58,-224 39,-60 85,-90 139,-90 60,0 123,-27 189,-81 65,-54 119,-119 161,-197l332 -629c48,-78 86,-175 113,-291 27,-117 40,-217 40,-301l0 -2649c0,-84 33,-157 99,-220 66,-63 140,-94 224,-94l117 0zm637 -2119c-83,0 -157,32 -220,94 -62,63 -94,137 -94,220l0 99c0,90 32,165 94,225 63,59 137,89 220,89l99 0c90,0 180,27 269,81 90,54 159,120 207,198l18 27c42,83 78,182 108,296 30,114 45,212 45,296l0 3942c0,83 -30,155 -90,215 -60,60 -132,90 -216,90l-125 0c-84,0 -159,-30 -225,-90 -66,-60 -99,-132 -99,-215l0 -3690c0,-90 -30,-165 -89,-225 -59,-60 -131,-90 -214,-90l-731 0c-89,0 -164,30 -223,90 -59,60 -89,135 -89,225l0 3690c0,83 -30,155 -92,215 -59,60 -133,90 -217,90l-127 0c-91,0 -167,-30 -227,-90 -62,-60 -91,-132 -91,-215l0 -4525c0,-90 29,-165 89,-225 60,-60 135,-90 225,-90l341 0c84,0 157,-30 220,-89 63,-60 94,-135 94,-225l0 -99c0,-83 -31,-157 -94,-220 -63,-62 -136,-94 -220,-94l-341 0c-90,0 -165,-30 -225,-91 -60,-60 -89,-136 -89,-226l0 -210c0,-83 29,-157 89,-217 60,-61 135,-91 225,-91l2235 0c84,0 156,30 216,91 60,60 90,134 90,217l0 210c0,90 -30,166 -90,226 -60,61 -132,91 -216,91l-440 0z"/>
 </g>
</svg>
