<?xml version="1.0" encoding="UTF-8"?>
<!DOCTYPE svg PUBLIC "-//W3C//DTD SVG 1.1//EN" "http://www.w3.org/Graphics/SVG/1.1/DTD/svg11.dtd">
<!-- Creator: CorelDRAW X8 -->
<svg xmlns="http://www.w3.org/2000/svg" xml:space="preserve" width="151.035mm" height="240.245mm" version="1.1" style="shape-rendering:geometricPrecision; text-rendering:geometricPrecision; image-rendering:optimizeQuality; fill-rule:evenodd; clip-rule:evenodd"
viewBox="0 0 80 128"
 xmlns:xlink="http://www.w3.org/1999/xlink">
 <defs>
  <style type="text/css">
   <![CDATA[
    .fil0 {fill:#E13F4F}
    .fil1 {fill:#FEFEFE;fill-rule:nonzero}
   ]]>
  </style>
 </defs>
 <g id="图层_x0020_1">
  <metadata id="CorelCorpID_0Corel-Layer"/>
  <path class="fil0" d="M6 0l68 0c4,0 6,3 6,6l0 116c0,3 -2,6 -6,6l-68 0c-3,0 -6,-3 -6,-6l0 -116c0,-3 3,-6 6,-6z"/>
  <path class="fil1" d="M38 59c0,1 0,1 0,1 0,0 -1,0 -1,0 0,0 0,0 0,1l0 0c0,0 0,0 0,1 0,0 1,0 1,0 0,0 0,0 0,0 0,0 0,1 0,1l0 0c0,1 0,1 0,1 0,0 0,0 -1,0l-17 0c0,0 0,0 -1,0 0,0 0,0 0,-1l0 0c0,0 0,-1 0,-1 0,0 1,0 1,0 0,0 0,0 0,0 0,-1 0,-1 0,-1l0 0c0,-1 0,-1 0,-1 0,0 0,0 0,0 0,0 -1,0 -1,-1 0,0 0,0 0,0l0 -1c0,0 0,0 0,-1 0,0 1,0 1,0 0,0 0,0 0,0 0,0 0,-1 0,-1 0,0 0,0 1,0 0,-1 0,-1 0,-1l1 0c0,0 0,0 1,1 0,0 0,0 0,0 0,0 0,1 0,1 0,0 1,0 1,0l0 0c0,0 1,0 1,0 0,0 0,-1 0,-1 0,0 0,0 0,0 0,-1 1,-1 1,-1l1 0c0,0 0,0 0,1 1,0 1,0 1,0 0,0 0,1 0,1 0,0 0,0 1,0l0 0c0,0 0,0 0,0 1,0 1,-1 1,-1 0,0 0,0 0,0 0,-1 0,-1 1,-1l0 0c1,0 1,0 1,1 0,0 0,0 0,0 0,0 0,1 1,1 0,0 0,0 0,0l1 0c0,0 0,0 0,0 0,0 1,-1 1,-1 0,0 0,0 0,0 0,-1 0,-1 1,-1l0 0c0,0 1,0 1,1 0,0 0,0 0,0 0,0 0,1 0,1 0,0 1,0 1,0 0,0 0,0 0,0 0,1 0,1 0,1l0 1c0,0 0,0 0,0zm0 10c0,0 0,0 0,0 0,0 -1,0 -1,0 0,0 0,1 0,1l0 2c0,1 0,1 0,1 0,0 1,0 1,0 0,0 0,0 0,1 0,0 0,0 0,0l0 1c0,0 0,0 0,1 0,0 0,0 0,0 0,0 -1,0 -1,0 0,0 0,0 0,0 0,1 0,1 0,1 0,0 -1,0 -1,0l0 0c-1,0 -1,0 -1,0 0,0 -1,0 -1,-1 0,0 0,0 0,0 0,0 0,0 0,0l-4 0c0,0 0,0 0,0 -1,-1 -1,-1 -1,-1l0 -1c0,0 0,0 0,0 0,-1 1,-1 1,-1 0,0 0,0 0,0 0,0 0,0 0,-1l0 -5c0,0 0,0 0,-1 1,0 1,0 1,0l3 0c0,0 0,0 0,0 0,0 0,0 0,0 0,0 1,-1 1,-1 0,0 0,0 1,0l0 0c0,0 1,0 1,0 0,0 0,1 0,1 0,0 0,0 0,0 0,0 1,0 1,0 0,0 0,0 0,1 0,0 0,0 0,0l0 1c0,0 0,0 0,1zm-11 7c0,1 0,1 0,1 -1,0 -1,0 -1,0l-6 0c0,0 0,0 -1,0 0,0 0,-1 0,-1l0 -1c0,0 0,0 0,0 1,0 1,-1 1,-1l5 0c0,0 1,0 1,0 0,0 0,0 0,0 0,0 0,0 0,-1 0,0 -1,0 -1,0l-3 0c0,0 0,0 -1,0 0,0 0,0 0,0l-1 -1c0,0 0,0 -1,-1 0,0 0,0 0,0 0,-1 0,-1 0,-1 1,0 1,0 1,0l1 0c0,0 0,0 1,0 0,0 0,0 0,0 0,1 0,1 0,1 0,0 1,0 1,0l2 0c0,0 1,0 1,0 0,-1 0,-1 0,-1 0,0 0,-1 0,-1 0,0 -1,0 -1,0l-3 0c0,0 0,0 -1,0 0,-1 0,-1 0,-1l-1 -1c0,0 0,0 -1,0 0,-1 0,-1 0,-1 0,0 0,0 0,-1 1,0 1,0 1,0l1 0c0,0 0,0 1,0 0,0 0,1 0,1 0,0 0,0 0,0 0,0 1,0 1,0l5 0c0,0 0,0 0,0 1,1 1,1 1,1l0 7c0,0 0,1 0,1 -1,0 -1,0 -1,1l-1 0zm11 -22c0,0 0,0 0,0 0,1 -1,1 -1,1l-15 0c0,0 0,0 -1,-1 0,0 0,0 0,0l-1 -1c0,0 0,0 -1,0 0,-1 0,-1 0,-1 0,0 0,-1 0,-1 1,0 1,0 1,0l1 0c0,0 0,0 1,0 0,0 0,0 0,1 0,0 0,0 0,0 0,0 1,0 1,0l14 0c0,0 1,0 1,0 0,0 0,1 0,1l0 1zm-4 16c0,0 0,-1 0,-1 0,0 0,0 0,0 -1,0 -1,0 -1,0 0,0 0,1 0,1l0 2c0,1 0,1 0,1 0,0 0,0 1,0 0,0 0,0 0,0 0,0 0,0 0,-1l0 -2zm-5 -10c-1,0 -1,0 -1,0 0,0 0,0 0,1l0 0c0,0 0,0 0,1 0,0 0,0 1,0l0 0c0,0 0,0 0,0 1,-1 1,-1 1,-1l0 0c0,-1 0,-1 -1,-1 0,0 0,0 0,0l0 0zm5 1c0,-1 0,-1 0,-1 0,0 0,0 0,0l-1 0c0,0 0,0 0,0 -1,0 -1,0 -1,1l0 0c0,0 0,0 1,1 0,0 0,0 0,0l1 0c0,0 0,0 0,0 0,-1 0,-1 0,-1l0 0zm-11 0c0,0 0,0 0,1 0,0 1,0 1,0l0 0c0,0 1,0 1,0 0,-1 0,-1 0,-1l0 0c0,-1 0,-1 0,-1 0,0 -1,0 -1,0l0 0c0,0 -1,0 -1,0 0,0 0,0 0,1l0 0zm37 15c0,1 -1,1 -1,1 0,0 -1,0 -1,0l-15 0c0,0 0,0 0,0 0,0 0,0 0,0l0 -23c0,0 0,0 0,0 0,-1 0,-1 0,-1l4 0c0,0 0,0 0,0 1,0 1,0 1,-1l0 0c0,0 0,-1 0,-1 0,0 0,0 1,0l0 0c1,0 1,0 1,0 0,0 0,1 0,1l0 0c0,1 0,1 1,1 0,0 0,0 0,0l1 0c1,0 1,0 1,0 0,0 0,0 0,-1l0 0c0,0 0,-1 1,-1 0,0 0,0 0,0l1 0c0,0 0,0 1,0 0,0 0,1 0,1l0 0c0,1 0,1 0,1 0,0 1,0 1,0l3 0c1,0 1,0 1,1 0,0 0,0 0,0l0 20c0,0 0,1 0,1 0,0 0,0 0,1l-1 0zm-9 -10c0,0 0,1 0,1 -1,0 -1,0 -1,0l0 6c0,1 0,1 1,1 0,0 0,0 0,0l1 0c1,0 1,0 1,0 0,0 0,0 0,-1l0 -6c0,0 0,0 0,0 0,0 0,-1 -1,-1l-1 0zm0 -10c0,0 0,0 0,0 -1,0 -1,1 -1,1l0 6c0,0 0,0 1,1 0,0 0,0 0,0l1 0c1,0 1,0 1,0 0,-1 0,-1 0,-1l0 -6c0,0 0,-1 0,-1 0,0 0,0 -1,0l-1 0zm7 18c0,0 0,0 0,0 1,0 1,0 1,-1l0 -6c0,0 0,0 -1,0 0,0 0,-1 0,-1l-1 0c0,0 -1,1 -1,1 0,0 0,0 0,0l0 6c0,1 0,1 0,1 0,0 1,0 1,0l1 0zm-1 -18c0,0 -1,0 -1,0 0,0 0,1 0,1l0 6c0,0 0,0 0,1 0,0 1,0 1,0l1 0c0,0 0,0 0,0 1,-1 1,-1 1,-1l0 -6c0,0 0,-1 -1,-1 0,0 0,0 0,0l-1 0zm-12 17c0,1 0,1 0,1 1,0 1,0 1,0l1 0c0,0 0,0 0,0 1,0 1,0 1,-1l0 -6c0,0 0,0 -1,0 0,0 0,-1 0,-1l-1 0c0,0 0,1 -1,1 0,0 0,0 0,0l0 6zm1 -17c0,0 0,0 -1,0 0,0 0,1 0,1l0 6c0,0 0,0 0,1 1,0 1,0 1,0l1 0c0,0 0,0 0,0 1,-1 1,-1 1,-1l0 -6c0,0 0,-1 -1,-1 0,0 0,0 0,0l-1 0z"/>
 </g>
</svg>
