<?xml version="1.0" encoding="UTF-8"?>
<!DOCTYPE svg PUBLIC "-//W3C//DTD SVG 1.1//EN" "http://www.w3.org/Graphics/SVG/1.1/DTD/svg11.dtd">
<!-- Creator: CorelDRAW X8 -->
<svg xmlns="http://www.w3.org/2000/svg" xml:space="preserve" width="151.586mm" height="240.675mm" version="1.1" style="shape-rendering:geometricPrecision; text-rendering:geometricPrecision; image-rendering:optimizeQuality; fill-rule:evenodd; clip-rule:evenodd"
viewBox="0 0 81 129"
 xmlns:xlink="http://www.w3.org/1999/xlink">
 <defs>
  <style type="text/css">
   <![CDATA[
    .fil0 {fill:#B593B3}
    .fil1 {fill:#FEFEFE;fill-rule:nonzero}
   ]]>
  </style>
 </defs>
 <g id="图层_x0020_1">
  <metadata id="CorelCorpID_0Corel-Layer"/>
  <path class="fil0" d="M6 0l69 0c3,0 6,3 6,6l0 116c0,4 -3,7 -6,7l-69 0c-3,0 -6,-3 -6,-7l0 -116c0,-3 3,-6 6,-6z"/>
  <path class="fil1" d="M21 74l0 -14c0,-1 0,-1 0,-1 0,0 0,0 0,0 0,0 0,0 0,-1 -1,0 -1,0 -1,0l0 -1c0,0 0,-1 1,-1 0,0 0,0 0,0l2 0c0,0 0,0 1,0 0,0 0,1 0,1l0 14c0,1 0,1 0,1 0,0 0,1 1,1 0,0 0,0 0,0 0,0 0,0 0,0l0 -1c0,0 0,0 0,-1 1,0 1,0 1,0l0 0c1,0 1,0 1,0 0,0 0,-1 0,-1l0 -4c0,-1 0,-1 0,-1 0,0 0,0 -1,0l0 0c0,0 0,0 -1,-1 0,0 0,0 0,0l0 -1c0,0 0,0 0,-1 1,0 1,0 1,0l5 0c0,0 0,0 0,0 1,0 1,-1 1,-1l0 -2c0,-1 0,-1 -1,-1 0,0 0,0 0,0l-3 0c0,0 0,0 -1,-1 0,0 0,0 -1,0l0 -1c0,0 0,0 -1,0 0,-1 0,-1 0,-1l0 -2c0,0 0,-1 0,-1 1,0 1,0 1,0l1 0c0,0 0,0 1,0 0,0 0,1 0,1l0 1c0,0 0,1 0,1 0,0 1,0 1,0l2 0c0,0 0,0 0,0 1,0 1,-1 1,-1l0 -2c0,0 0,0 0,0 0,-1 0,-1 1,-1l0 0c0,0 1,0 1,1 0,0 0,0 0,0l0 2c0,0 0,1 1,1 0,0 0,0 0,0l3 0c1,0 1,0 1,0 0,1 0,1 0,1l0 1c0,0 0,0 0,0 0,1 0,1 -1,1l-3 0c0,0 0,0 0,0 -1,0 -1,0 -1,1l0 2c0,0 0,1 1,1 0,0 0,0 0,0l3 0c1,0 1,0 1,0 0,1 0,1 0,1l0 1c0,0 0,0 0,0 0,1 0,1 -1,1l0 0c0,0 0,0 -1,0 0,0 0,0 0,1l0 4c0,0 0,1 0,1 1,0 1,0 1,0l0 0c1,0 1,0 1,0 0,1 0,1 0,1l0 1c0,0 0,0 0,0 0,1 0,1 -1,1l0 0c-1,0 -1,0 -1,0 -1,-1 -1,-1 -1,-1l-1 -1c0,0 0,0 0,0 0,-1 -1,-1 -1,-1l0 -5c0,-1 0,-1 0,-1 0,0 0,0 -1,0l-2 0c0,0 0,0 -1,0 0,0 0,0 0,1l0 5c0,0 0,0 0,1 0,0 0,0 -1,0l0 1c-1,0 -1,0 -1,1 0,0 -1,0 -1,0l-1 0c0,0 0,0 0,0 0,0 0,0 0,0 0,0 0,0 1,1 0,0 0,0 0,0l11 0c1,0 1,0 1,0 0,0 0,0 0,1l0 0c0,1 0,1 0,1 0,0 0,0 -1,0l-11 0c-1,0 -1,0 -1,0 -1,0 -1,0 -1,0l-1 -1c0,0 0,0 0,0 -1,0 -1,0 -1,0l-1 1c0,0 0,0 0,0 -1,0 -1,0 -1,0 0,0 0,0 0,0 -1,0 -1,0 -1,-1l0 0c0,-1 0,-1 1,-1 0,0 0,0 0,0 0,0 0,0 0,0 0,-1 0,-1 0,-1zm0 -20c0,0 0,-1 0,-1 0,0 0,0 0,-1l1 0c0,0 0,0 0,0 1,0 1,0 1,0l0 0c1,1 1,1 1,1 0,0 0,1 -1,1l0 0c0,0 0,1 -1,1 0,0 0,-1 0,-1l-1 0zm23 8c1,0 1,0 1,0 0,0 0,-1 0,-1l0 0c0,-1 0,-1 0,-1 0,0 0,0 -1,0 0,0 0,0 0,-1 0,0 0,0 0,0l0 -1c0,0 0,0 0,-1 0,0 0,0 1,0l6 0c0,0 0,0 0,0 1,0 1,-1 1,-1l0 0c0,-1 0,-1 -1,-1 0,0 0,0 0,0l-6 0c-1,0 -1,0 -1,-1 0,0 0,0 0,0l0 -1c0,0 0,0 0,-1 0,0 0,0 1,0l14 0c0,0 0,0 1,0 0,0 0,0 0,0 0,0 0,0 0,-1 0,0 1,0 1,0l1 0c0,0 0,0 0,1 0,0 0,0 0,0 0,0 0,0 0,1 0,0 0,0 0,0l-1 1c0,0 0,0 -1,1 0,0 0,0 -1,0l-4 0c0,0 0,0 0,0 -1,0 -1,0 -1,1l0 0c0,0 0,1 1,1 0,0 0,0 0,0l7 0c0,0 0,0 0,0 0,1 0,1 0,1l0 1c0,0 0,0 0,0 0,1 0,1 0,1 0,0 -1,0 -1,0 0,0 0,0 0,1l0 0c0,0 0,1 0,1 0,0 1,0 1,0 0,0 0,0 0,0 0,1 0,1 0,1l0 1c0,0 0,0 0,0 0,1 0,1 0,1l-1 0c0,0 0,0 0,0 -1,-1 -1,-1 -1,-1l-1 -1c0,0 0,0 0,0 -1,-1 -1,-1 -1,-1l0 -1c0,-1 0,-1 0,-1 0,0 0,0 -1,0l-2 0c0,0 0,0 0,0 -1,0 -1,0 -1,1l0 3c0,0 0,0 0,1 0,0 0,0 -1,0l0 0c-1,0 -1,0 -1,0 0,-1 0,-1 0,-1l0 -3c0,-1 0,-1 -1,-1 0,0 0,0 0,0l-2 0c-1,0 -1,0 -1,0 0,0 0,0 0,1l0 1c0,0 0,0 -1,1 0,0 0,0 0,0l-1 1c0,0 0,0 0,1 -1,0 -1,0 -1,0l0 0c-1,0 -1,0 -1,-1 0,0 0,0 0,0l0 -1c0,0 0,0 0,-1 0,0 0,0 0,0zm15 8c0,-1 0,-1 -1,-1 0,0 0,0 0,0l-9 0c0,0 0,0 0,0 0,0 -1,0 -1,1l0 4c0,1 0,1 0,1 0,0 0,1 0,1l-1 1c0,0 0,0 -1,0 0,0 0,0 -1,0l0 0c-1,0 -1,0 -1,0 0,0 0,0 0,-1l0 0c0,-1 0,-1 0,-1 0,0 0,0 1,0l0 0c0,0 0,0 1,-1 0,0 0,0 0,0l0 -4c0,-1 0,-1 0,-1 -1,0 -1,0 -1,0l0 0c-1,0 -1,0 -1,-1 0,0 0,0 0,0l0 -1c0,0 0,-1 0,-1 0,0 0,0 1,0l15 0c1,0 1,0 1,0 0,0 0,1 0,1l0 2c0,0 0,0 0,0 1,0 1,1 1,1 0,0 0,0 0,0 0,0 0,0 0,1l0 3c0,1 0,1 0,1 0,0 0,1 0,1l-1 1c0,0 0,0 -1,0 0,0 0,0 -1,0l-7 0c0,0 0,0 -1,0 0,0 0,0 0,-1l0 0c0,-1 0,-1 0,-1 1,0 1,0 1,0l7 0c0,0 0,0 1,-1 0,0 0,0 0,0l0 -1c0,0 0,-1 0,-1 0,0 -1,0 -1,0 0,0 0,0 0,0 0,-1 0,-1 0,-1l0 -1z"/>
 </g>
</svg>
