<?xml version="1.0" encoding="UTF-8"?>
<!DOCTYPE svg PUBLIC "-//W3C//DTD SVG 1.1//EN" "http://www.w3.org/Graphics/SVG/1.1/DTD/svg11.dtd">
<!-- Creator: CorelDRAW X8 -->
<svg xmlns="http://www.w3.org/2000/svg" xml:space="preserve" width="151.035mm" height="240.245mm" version="1.1" style="shape-rendering:geometricPrecision; text-rendering:geometricPrecision; image-rendering:optimizeQuality; fill-rule:evenodd; clip-rule:evenodd"
viewBox="0 0 83 132"
 xmlns:xlink="http://www.w3.org/1999/xlink">
 <defs>
  <style type="text/css">
   <![CDATA[
    .fil0 {fill:#EF8762}
    .fil1 {fill:#FEFEFE;fill-rule:nonzero}
   ]]>
  </style>
 </defs>
 <g id="图层_x0020_1">
  <metadata id="CorelCorpID_0Corel-Layer"/>
  <path class="fil0" d="M6 0l71 0c3,0 6,3 6,6l0 120c0,3 -3,6 -6,6l-71 0c-3,0 -6,-3 -6,-6l0 -120c0,-3 3,-6 6,-6z"/>
  <path class="fil1" d="M30 72c0,0 -1,0 -1,1 0,0 -1,0 -1,0l-4 0c0,0 -1,0 -1,0 0,-1 0,-1 0,-1l0 -18c0,0 0,-1 0,-1 0,0 1,0 1,0l6 0c1,0 1,0 1,0 0,0 0,1 0,1l0 16c0,0 0,0 0,1 0,0 0,0 0,0l-1 1zm12 -2c0,0 0,0 0,1 0,0 0,0 0,0l-1 1c0,0 -1,0 -1,1 0,0 -1,0 -1,0l-7 0c0,0 0,0 0,0 0,-1 0,-1 0,-1l0 -8c0,0 0,0 1,0 0,0 0,-1 0,-1l8 0c1,0 1,1 1,1 0,0 0,0 0,0l0 6zm-10 -10c0,0 0,0 1,0 0,0 0,-1 0,-1 0,0 0,0 0,0l0 -2c0,-1 0,-1 0,-1 0,0 0,0 0,0 -1,0 -1,-1 -1,-1 0,0 0,0 0,0l0 -1c0,0 0,-1 0,-1 1,0 1,0 1,0l8 0c1,0 1,0 1,0 0,0 0,1 0,1l0 5c0,0 0,1 0,1 0,0 0,1 0,1l-1 1c0,0 -1,0 -1,0 0,0 -1,0 -1,0l-1 0c0,0 0,0 -1,0 0,0 0,0 0,-1l0 0c0,-1 0,-1 0,-1 1,0 1,0 1,0l1 0c0,0 0,-1 0,-1 1,0 1,0 1,0l0 -2c0,-1 0,-1 -1,-1 0,0 0,0 0,0l-2 0c0,0 -1,0 -1,0 0,0 0,0 0,1l0 2c0,0 0,1 0,1 0,0 -1,1 -1,1l-1 1c0,0 0,0 0,0 -1,0 -1,0 -1,0 0,0 0,0 -1,0 0,0 0,0 0,-1l0 0c0,-1 0,-1 0,-1zm7 10c0,0 0,0 0,0 1,0 1,-1 1,-1l0 -2c0,0 0,0 -1,-1 0,0 0,0 0,0l-3 0c0,0 -1,0 -1,0 0,1 0,1 0,1l0 2c0,0 0,1 0,1 0,0 1,0 1,0l3 0zm-12 -15c-1,0 -1,1 -1,1 0,0 0,0 0,1l0 4c0,0 0,0 0,0 0,1 0,1 1,1l1 0c0,0 0,0 0,-1 1,0 1,0 1,0l0 -4c0,-1 0,-1 -1,-1 0,0 0,-1 0,-1l-1 0zm1 15c0,0 0,0 0,0 1,0 1,-1 1,-1l0 -4c0,0 0,0 -1,0 0,-1 0,-1 0,-1l-1 0c-1,0 -1,0 -1,1 0,0 0,0 0,0l0 4c0,0 0,1 0,1 0,0 0,0 1,0l1 0zm3 6c0,0 0,0 0,1 1,0 1,0 1,0 0,0 0,0 0,0 0,0 0,1 0,1l0 1c0,0 0,0 0,0 0,0 0,1 0,1 -1,0 -1,0 -1,-1 -1,0 -1,0 -1,0l-1 -1c0,0 0,0 0,-1 0,0 0,0 0,-1l0 -1c0,-1 0,-1 0,-1 0,0 0,0 1,0l0 0c0,0 1,0 1,0 0,0 0,0 0,1l0 1zm9 -2c0,0 1,0 1,0 0,0 0,0 0,1l0 1c0,0 0,0 0,1 1,0 1,0 1,0 0,0 0,0 0,0 0,0 0,1 0,1l0 1c0,0 0,0 0,0 0,0 0,1 0,1 -1,0 -1,0 -1,-1 -1,0 -1,0 -1,0l-1 -1c0,0 0,0 0,-1 0,0 0,0 0,-1l0 -1c0,-1 0,-1 0,-1 0,0 0,0 1,0l0 0zm-5 0c0,0 1,0 1,0 0,0 0,0 0,1l0 1c0,0 0,0 0,1 0,0 1,0 1,0 0,0 0,0 0,0 0,0 0,1 0,1l0 1c0,0 0,0 0,0 0,0 0,1 -1,1 0,0 0,0 0,-1 -1,0 -1,0 -1,0l-1 -1c0,0 0,0 0,-1 -1,0 -1,0 -1,-1l0 -1c0,-1 1,-1 1,-1 0,0 0,0 0,0l1 0zm-11 1c0,-1 0,-1 0,-1 0,0 1,0 1,0l1 0c0,0 0,0 0,0 0,0 1,0 1,1l0 1c0,1 -1,1 -1,1 0,1 0,1 0,1l-1 1c0,0 0,0 -1,0 0,1 0,1 0,1 -1,0 -1,-1 -1,-1 0,0 0,0 0,0l0 -1c0,0 0,-1 0,-1 0,0 0,0 0,0 0,0 1,0 1,0 0,-1 0,-1 0,-1l0 -1zm42 1c0,1 0,1 0,1 0,1 0,1 -1,1l0 1c-1,0 -1,0 -1,0 0,1 -1,1 -1,1l-2 0c0,0 0,-1 -1,-1 0,0 0,0 0,0l0 -1c0,0 0,-1 0,-1 1,0 1,0 1,0l1 0c1,0 1,0 1,0 0,-1 0,-1 0,-1l0 -4c0,0 0,0 0,0 0,0 0,-1 -1,-1l-2 0c0,0 -1,1 -1,1 0,0 0,0 0,0l0 7c0,0 0,0 0,0 -1,0 -1,1 -1,1l-1 0c0,0 0,-1 0,-1 -1,0 -1,0 -1,0l0 -25c0,0 0,-1 1,-1 0,0 0,0 0,0l8 0c0,0 1,0 1,0 0,0 0,1 0,1l0 22zm-3 -11c0,-1 0,-1 0,-1 0,0 0,0 -1,0l-2 0c0,0 -1,0 -1,0 0,0 0,0 0,1l0 3c0,0 0,0 0,0 0,1 1,1 1,1l2 0c1,0 1,0 1,-1 0,0 0,0 0,0l0 -3zm0 -9c0,0 0,0 0,0 0,0 0,-1 -1,-1l-2 0c0,0 -1,1 -1,1 0,0 0,0 0,0l0 4c0,0 0,0 0,1 0,0 1,0 1,0l2 0c1,0 1,0 1,0 0,-1 0,-1 0,-1l0 -4zm-9 23c0,0 -1,0 -1,0 0,1 -1,1 -1,1l-4 0c0,0 -1,-1 -1,-1 0,0 0,0 0,0l0 -25c0,0 0,-1 0,-1 0,0 1,0 1,0l6 0c0,0 1,0 1,0 0,0 0,1 0,1l0 22c0,1 0,1 0,1 0,1 0,1 -1,1l0 1zm-4 -24c0,0 0,1 0,1 0,0 0,0 0,1l0 7c0,0 0,0 0,1 0,0 0,0 0,0l1 0c1,0 1,0 1,0 0,-1 0,-1 0,-1l0 -7c0,-1 0,-1 0,-1 0,0 0,-1 -1,-1l-1 0zm1 22c1,0 1,0 1,0 0,-1 0,-1 0,-1l0 -7c0,-1 0,-1 0,-1 0,0 0,0 -1,0l-1 0c0,0 0,0 0,0 0,0 0,0 0,1l0 7c0,0 0,0 0,1 0,0 0,0 0,0l1 0z"/>
 </g>
</svg>
