<?xml version="1.0" encoding="UTF-8"?>
<!DOCTYPE svg PUBLIC "-//W3C//DTD SVG 1.1//EN" "http://www.w3.org/Graphics/SVG/1.1/DTD/svg11.dtd">
<!-- Creator: CorelDRAW X8 -->
<svg xmlns="http://www.w3.org/2000/svg" xml:space="preserve" width="151.586mm" height="240.642mm" version="1.1" style="shape-rendering:geometricPrecision; text-rendering:geometricPrecision; image-rendering:optimizeQuality; fill-rule:evenodd; clip-rule:evenodd"
viewBox="0 0 60 95"
 xmlns:xlink="http://www.w3.org/1999/xlink">
 <defs>
  <style type="text/css">
   <![CDATA[
    .fil0 {fill:#B2C94A}
    .fil1 {fill:#FEFEFE;fill-rule:nonzero}
   ]]>
  </style>
 </defs>
 <g id="图层_x0020_1">
  <metadata id="CorelCorpID_0Corel-Layer"/>
  <path class="fil0" d="M4 0l51 0c2,0 5,2 5,4l0 86c0,3 -3,5 -5,5l-51 0c-2,0 -4,-2 -4,-5l0 -86c0,-2 2,-4 4,-4z"/>
  <path class="fil1" d="M13 56c0,0 0,0 0,0 1,0 1,-1 1,-1 0,0 0,0 0,0 0,0 0,0 0,0l0 -4c0,0 0,0 0,0 1,0 1,0 1,0l0 0c1,0 1,0 1,0 0,0 0,0 0,0l0 4c0,0 0,1 0,1 0,0 0,0 0,0l-1 1c0,0 0,0 0,0 -1,0 -1,1 -1,1 0,0 0,-1 0,-1 -1,0 -1,0 -1,0l0 -1zm1 -14c0,0 0,-1 0,-1 1,0 1,0 1,0l12 0c0,0 0,0 0,0 0,0 0,1 0,1l0 5c0,0 0,1 0,1 0,0 0,0 0,1l-1 0c0,0 0,0 0,0 -1,1 -1,1 -1,1l-10 0c0,0 0,0 -1,-1 0,0 0,0 0,0l0 -7zm2 5c0,0 0,0 0,0 1,1 1,1 1,1l7 0c1,0 1,0 1,-1 0,0 0,0 0,0l0 -3c0,0 0,0 0,-1 0,0 0,0 -1,0l-7 0c0,0 0,0 -1,0 0,1 0,1 0,1l0 3zm10 -7c0,0 0,0 0,0 -1,0 -1,0 -1,0l-3 0c0,0 0,0 0,0 -1,0 -1,0 -1,-1l0 0c0,0 0,-1 1,-1 0,0 0,0 0,0l2 0c1,0 1,0 1,0 0,0 0,0 0,0 0,-1 0,-1 0,-1 1,0 1,0 1,0l1 0c0,0 0,0 0,0 0,0 0,1 0,1 0,0 0,0 0,0 0,1 0,1 0,1l-1 1zm-11 -3c1,0 1,0 1,0 0,0 0,0 0,1 0,0 0,0 0,0 1,0 1,0 1,0l2 0c0,0 1,0 1,0 0,0 0,1 0,1l0 0c0,1 0,1 0,1 0,0 -1,0 -1,0l-2 0c-1,0 -1,0 -1,0 0,0 -1,0 -1,0l0 -1c0,0 -1,0 -1,-1 0,0 0,0 0,0 0,0 0,-1 0,-1 1,0 1,0 1,0l0 0zm6 13c0,0 0,1 1,1 0,0 0,0 0,0l0 1c0,0 0,0 0,0 0,1 0,1 1,1l1 0c0,0 0,0 0,0 1,0 1,0 1,0l0 1c0,0 0,0 -1,1 0,0 0,0 0,0l-2 0c0,0 0,0 -1,0 0,0 0,-1 0,-1l-1 0c0,0 0,-1 0,-1 0,0 0,0 0,-1l0 -1c0,0 0,0 0,0 0,0 0,-1 1,-1l0 0zm-3 1c0,0 1,0 1,0 0,0 0,0 0,0l0 4c0,0 0,0 0,0 0,0 1,0 1,0l4 0c0,0 0,1 0,1 1,0 1,0 1,0l0 1c0,0 0,0 -1,0 0,0 0,0 0,0l-5 0c0,0 0,0 0,0 -1,0 -1,0 -1,0l-1 -1c0,0 0,0 0,0 0,0 0,-1 0,-1l0 -4c0,0 0,0 0,0 0,0 0,0 1,0l0 0zm8 0c1,0 1,0 1,0 0,0 0,0 0,0l0 4c0,0 0,0 0,0 0,0 1,0 1,0 0,0 0,1 0,1 0,0 0,0 0,0l0 1c0,0 0,0 0,0 0,0 0,1 -1,1 0,0 0,-1 0,-1 0,0 -1,0 -1,0l0 -1c0,0 -1,0 -1,0 0,0 0,-1 0,-1l0 -4c0,0 0,0 0,0 1,0 1,0 1,0l0 0zm10 -12c0,0 1,-1 1,-1 0,0 0,0 0,0l6 0c1,0 1,0 1,0 0,0 0,0 0,0 0,-1 0,-1 0,-1 1,0 1,0 1,0l0 0c1,0 1,0 1,0 0,0 0,1 0,1 0,0 0,0 0,0 0,1 0,1 0,1l-1 0c0,1 0,1 0,1 -1,0 -1,0 -1,0l-7 0c0,0 0,0 0,0 0,0 -1,-1 -1,-1l0 0zm-2 -2c0,0 0,0 1,0 0,0 0,1 0,1l0 1c0,0 0,0 0,0 0,0 0,0 0,0 0,0 1,0 1,1 0,0 0,0 0,0l0 1c0,0 0,0 0,0 0,0 -1,0 -1,0 0,0 0,0 0,1 0,0 0,0 0,0l0 8c0,0 0,0 0,0 0,0 0,0 0,0 0,0 1,0 1,1 0,0 0,0 0,0l0 1c0,0 0,0 0,0 0,0 -1,0 -1,0 0,0 0,0 0,1 0,0 0,0 0,0l0 2c0,0 0,1 0,1 0,0 -1,0 -1,0l0 1c0,0 -1,0 -1,0 0,0 0,1 -1,1l0 0c0,0 0,-1 0,-1 0,0 0,0 0,0l0 -1c0,0 0,0 0,0 0,0 0,-1 0,-1 0,0 0,0 1,0 0,0 0,0 0,0l0 -2c0,0 0,0 0,0 -1,-1 -1,-1 -1,-1 0,0 0,0 0,0 0,0 0,0 0,0l0 -1c0,0 0,0 0,0 0,-1 0,-1 0,-1 0,0 0,0 1,0 0,0 0,0 0,0l0 -8c0,0 0,0 0,0 -1,-1 -1,-1 -1,-1 0,0 0,0 0,0 0,0 0,0 0,0l0 -1c0,0 0,0 0,0 0,-1 0,-1 0,-1 0,0 0,0 1,0 0,0 0,0 0,0l0 -1c0,0 0,-1 0,-1 0,0 0,0 1,0l0 0zm9 14c0,0 0,0 0,0 -1,0 -1,1 -1,1l0 3c0,0 0,0 1,0 0,0 0,0 0,0l2 0c1,0 1,1 1,1 0,0 0,0 0,0l0 1c0,0 0,0 0,0 0,0 0,1 -1,1l-8 0c0,0 0,-1 0,-1 0,0 -1,0 -1,0l0 -1c0,0 1,0 1,0 0,0 0,-1 0,-1l3 0c0,0 0,0 0,0 0,0 0,0 0,0l0 -3c0,0 0,-1 0,-1 0,0 0,0 0,0l-3 0c0,0 0,0 0,0 0,0 -1,-1 -1,-1l0 0c0,-1 1,-1 1,-1 0,0 0,0 0,0l8 0c1,0 1,0 1,0 0,0 0,0 0,1l0 0c0,0 0,1 0,1 0,0 0,0 -1,0l-2 0zm2 -7c0,0 0,0 0,1 0,0 0,0 0,0 0,0 0,0 0,1 0,0 0,0 0,0l0 0c1,0 1,0 1,0 0,0 0,0 0,1l0 0c0,0 0,0 0,1 0,0 0,0 -1,0l0 0c0,0 0,0 -1,0 0,0 0,-1 0,-1l-1 0c0,0 0,-1 0,-1 0,0 0,0 0,-1l0 0c0,0 0,-1 0,-1 0,0 0,0 0,0l0 0c1,0 1,0 1,0 0,0 0,0 0,-1 0,0 0,0 0,0 0,0 0,0 -1,0l-4 0c0,0 0,0 0,0 0,0 -1,0 -1,0 0,1 1,1 1,1 0,0 0,0 0,0l0 0c1,0 1,0 1,0 0,0 0,1 0,1l0 0c0,1 0,1 0,1 0,0 0,1 0,1l-1 0c0,0 0,1 -1,1 0,0 0,0 0,0l-1 0c0,0 0,0 0,0 0,-1 -1,-1 -1,-1l0 0c0,-1 1,-1 1,-1 0,0 0,0 0,0l0 0c0,0 1,0 1,0 0,-1 0,-1 0,-1 0,0 0,0 0,0 0,-1 -1,-1 -1,-1l0 0c0,0 0,0 0,0 0,0 -1,0 -1,0l0 -3c0,0 1,0 1,0 0,0 0,0 0,0l8 0c1,0 1,0 1,0 0,0 0,0 0,0l0 3c0,0 0,0 0,0 0,0 0,0 -1,0l0 0z"/>
 </g>
</svg>
