<?xml version="1.0" encoding="UTF-8"?>
<!DOCTYPE svg PUBLIC "-//W3C//DTD SVG 1.1//EN" "http://www.w3.org/Graphics/SVG/1.1/DTD/svg11.dtd">
<!-- Creator: CorelDRAW X8 -->
<svg xmlns="http://www.w3.org/2000/svg" xml:space="preserve" width="80.3302mm" height="68.2878mm" version="1.1" style="shape-rendering:geometricPrecision; text-rendering:geometricPrecision; image-rendering:optimizeQuality; fill-rule:evenodd; clip-rule:evenodd"
viewBox="0 0 291 247"
 xmlns:xlink="http://www.w3.org/1999/xlink">
 <defs>
  <style type="text/css">
   <![CDATA[
    .fil3 {fill:none}
    .fil2 {fill:#332C2B}
    .fil1 {fill:#FEFEFE}
    .fil0 {fill:#FEFEFE;fill-rule:nonzero}
   ]]>
  </style>
 </defs>
 <g id="图层_x0020_1">
  <metadata id="CorelCorpID_0Corel-Layer"/>
  <path class="fil0" d="M51 239l8 -28 2 0 3 0 7 28 0 0 -3 0 -2 0 0 0 -1 -6 0 0 -8 0 0 0 -1 6 0 0 -2 0 -3 0zm10 -22l-3 11 0 0 6 0 0 0 -3 -11 0 0zm14 22l0 -21 0 0 2 0 2 0 0 0 0 21 0 0 -2 0 -2 0zm0 -28l4 0 0 5 -4 0 0 -5zm9 28l0 -21 0 0 2 0 2 0 0 0 0 4 0 0 0 0c0,-1 0,-1 0,-1 1,-2 2,-4 4,-4l1 1 0 5c-1,0 -1,0 -1,0 -2,0 -3,0 -3,1 -1,1 -1,2 -1,4l0 0 0 11 0 0 -2 0 -2 0zm36 -10l0 0c0,3 -1,6 -2,8 -2,2 -4,3 -6,3 -3,0 -5,-2 -7,-4 -2,-3 -3,-7 -3,-11 0,-5 1,-8 3,-11 2,-3 4,-4 7,-4 2,0 4,1 6,3 1,1 2,4 2,7l0 0 -4 0 0 0c0,-2 0,-3 -1,-4 -1,-1 -2,-1 -3,-1 -2,0 -3,1 -4,3 -1,1 -1,4 -1,7 0,3 0,5 1,7 1,2 2,2 4,2 1,0 2,0 3,-1 1,-1 1,-2 1,-4l0 0 4 0zm12 10c-3,0 -5,-1 -6,-3 -1,-2 -2,-4 -2,-7 0,-4 1,-7 2,-9 1,-2 3,-3 6,-3 2,0 4,1 5,3 2,2 2,5 2,9 0,3 0,5 -2,7 -1,2 -3,3 -5,3zm0 -4c1,0 2,-1 2,-2 1,-1 1,-2 1,-5 0,-2 0,-3 -1,-4 0,-1 -1,-2 -2,-2 -1,0 -2,1 -3,2 -1,1 -1,2 -1,4 0,3 0,4 1,5 1,1 2,2 3,2zm12 4l0 -21 0 0 2 0 1 0 0 0 0 3 0 0 0 0c1,0 1,-1 1,-1 1,-2 2,-3 4,-3 2,0 3,1 4,2 1,2 1,4 1,6l0 14 0 0 -2 0 -2 0 0 0 0 -13c0,-1 0,-2 0,-3 -1,-1 -1,-1 -2,-1 -1,0 -2,0 -2,1 -1,1 -1,2 -1,4l0 0 0 12 0 0 -2 0 -2 0zm24 0c-2,0 -3,-1 -5,-3 -1,-2 -1,-5 -1,-8 0,-3 0,-6 1,-8 2,-2 3,-3 5,-3 2,0 3,1 4,3l0 1 0 0 0 -10 0 0 2 0 2 0 0 0 0 28 0 0 -2 0 -2 0 0 0 0 -3 0 0 0 0c-1,2 -2,3 -4,3zm1 -17c-1,0 -2,1 -2,2 -1,1 -1,3 -1,5 0,2 0,3 1,4 0,1 1,2 2,2 1,0 2,-1 3,-2 0,-1 1,-3 1,-5 0,-2 -1,-3 -1,-4 -1,-1 -2,-2 -3,-2zm13 17l0 -21 0 0 1 0 2 0 0 0 0 21 0 0 -2 0 -1 0zm-1 -28l4 0 0 5 -4 0 0 -5zm17 28c-1,0 -2,0 -3,0 -1,0 -2,0 -3,-1 0,-1 -1,-2 -1,-3l0 -13 0 0 -2 0 0 -4 2 0 0 0 0 -6 4 0 0 6 0 0 3 0 0 4 -3 0 0 0 0 12c0,0 0,0 1,1 0,0 0,0 1,0l1 0 0 4zm4 0l0 -21 0 0 2 0 2 0 0 0 0 21 0 0 -2 0 -2 0zm0 -28l4 0 0 5 -4 0 0 -5zm16 28c-2,0 -4,-1 -6,-3 -1,-2 -2,-4 -2,-7 0,-4 1,-7 2,-9 2,-2 4,-3 6,-3 2,0 4,1 6,3 1,2 2,5 2,9 0,3 -1,5 -2,7 -2,2 -4,3 -6,3zm0 -4c1,0 2,-1 3,-2 0,-1 1,-2 1,-5 0,-2 -1,-3 -1,-4 -1,-1 -2,-2 -3,-2 -1,0 -2,1 -3,2 0,1 -1,2 -1,4 0,3 1,4 1,5 1,1 2,2 3,2zm12 4l0 -21 0 0 2 0 2 0 0 0 0 3 0 0 0 0c0,0 0,-1 0,-1 1,-2 3,-3 5,-3 1,0 2,1 3,2 1,2 2,4 2,6l0 14 0 0 -2 0 -2 0 0 0 0 -13c0,-1 -1,-2 -1,-3 0,-1 -1,-1 -2,-1 -1,0 -2,0 -2,1 -1,1 -1,2 -1,4l0 0 0 12 0 0 -2 0 -2 0zm19 0l0 -21 0 0 2 0 2 0 0 0 0 21 0 0 -2 0 -2 0zm0 -28l4 0 0 5 -4 0 0 -5zm9 28l0 -21 0 0 2 0 2 0 0 0 0 3 0 0 0 0c0,0 0,-1 1,-1 1,-2 2,-3 4,-3 1,0 3,1 3,2 1,2 2,4 2,6l0 14 0 0 -2 0 -2 0 0 0 0 -13c0,-1 0,-2 -1,-3 0,-1 -1,-1 -2,-1 -1,0 -1,0 -2,1 -1,1 -1,2 -1,4l0 0 0 12 0 0 -2 0 -2 0zm26 4c1,0 2,0 2,-1 1,-1 1,-2 1,-4l0 -2 0 0 0 0c-1,2 -2,3 -4,3 -2,0 -4,-1 -5,-3 -1,-2 -2,-5 -2,-8 0,-3 1,-6 2,-8 1,-2 3,-3 5,-3 1,0 3,1 4,3 0,0 0,1 0,1l0 0 0 -3 0 0 4 0 0 20c0,3 -1,5 -2,7 -1,1 -3,2 -5,2 -2,0 -4,0 -5,-1 -1,-1 -2,-3 -2,-5l0 0 4 0 0 0c0,1 0,1 1,2 0,0 1,0 2,0zm0 -21c-1,0 -2,1 -3,2 0,1 -1,2 -1,4 0,2 1,4 1,5 1,1 2,1 3,1 1,0 2,0 2,-1 1,-1 1,-3 1,-5 0,-2 0,-3 -1,-4 0,-1 -1,-2 -2,-2z"/>
  <path class="fil1" d="M215 111c-1,2 -2,3 -5,2l-20 -12 5 18c1,2 -1,3 -3,3 -1,1 -3,0 -3,-2l-6 -24 -30 -16 0 34 17 17c2,1 2,4 0,4 0,2 -2,2 -4,0l-13 -13 0 23c0,3 0,3 -3,3 -1,0 -3,0 -3,-3l0 -23 -13 13c-1,1 -2,1 -4,0 -1,-1 -1,-3 0,-4l18 -18 0 -34 -29 17 -6 24c-1,2 -3,2 -4,2 -2,0 -3,-1 -3,-3l5 -18 -20 12c-2,1 -3,1 -4,-2 -1,-1 -1,-2 1,-4l20 -11 -18 -6c-1,0 -2,-2 -2,-3 1,-2 1,-3 4,-3l24 6 29 -16 -30 -16 -24 6c-2,0 -3,-1 -4,-2 0,-2 1,-4 2,-4l18 -4 -20 -13c-2,0 -2,-3 -1,-4 1,-1 3,-1 4,-1l20 12 -4 -18c0,-2 0,-4 2,-4 1,0 2,1 3,2l7 25 29 17 0 -34 -18 -19c0,0 0,-2 0,-4 1,-1 3,-1 5,0l13 14 0 -24c0,-1 2,-3 3,-3 3,0 3,2 3,3l0 24 13 -14c2,-1 4,-1 4,0 2,2 2,3 0,4l-17 19 0 33 30 -17 6 -24c0,-2 2,-3 3,-3 2,1 3,3 3,4l-5 18 20 -11c2,-1 3,-1 5,0 1,2 0,4 -2,5l-20 12 18 5c2,0 2,1 2,4 0,1 -1,2 -3,2l-24 -7 -29 18 29 16 24 -7c2,0 3,1 3,3 1,1 0,3 -2,3l-18 6 20 11c2,2 2,3 2,4l0 0 0 0z" p-id="4943"/>
  <path class="fil2" d="M21 209c8,0 14,6 14,13 0,7 -6,13 -14,13 -7,0 -13,-6 -13,-13 0,-7 6,-13 13,-13z"/>
  <rect class="fil3" y="1" width="285" height="240"/>
 </g>
</svg>
