<?xml version="1.0" encoding="UTF-8"?>
<!DOCTYPE svg PUBLIC "-//W3C//DTD SVG 1.1//EN" "http://www.w3.org/Graphics/SVG/1.1/DTD/svg11.dtd">
<!-- Creator: CorelDRAW X8 -->
<svg xmlns="http://www.w3.org/2000/svg" xml:space="preserve" width="78.7784mm" height="66.4253mm" version="1.1" style="shape-rendering:geometricPrecision; text-rendering:geometricPrecision; image-rendering:optimizeQuality; fill-rule:evenodd; clip-rule:evenodd"
viewBox="0 0 279 235"
 xmlns:xlink="http://www.w3.org/1999/xlink">
 <defs>
  <style type="text/css">
   <![CDATA[
    .fil4 {fill:none}
    .fil3 {fill:#332C2B}
    .fil1 {fill:#FEFEFE}
    .fil0 {fill:#FEFEFE;fill-rule:nonzero}
    .fil2 {fill:#FEFEFE;fill-rule:nonzero}
   ]]>
  </style>
 </defs>
 <g id="图层_x0020_1">
  <metadata id="CorelCorpID_0Corel-Layer"/>
  <path class="fil0" d="M43 235l7 -26 3 0 2 0 8 26 0 0 -2 0 -3 0 0 0 -1 -5 0 0 -8 0 0 0 -2 5 0 0 -2 0 -2 0zm10 -20l-3 10 0 0 6 0 0 0 -3 -10 0 0zm14 20l0 -19 0 0 2 0 2 0 0 0 0 3 0 0 0 0c0,0 0,0 1,-1 1,-2 2,-3 3,-3l1 0 0 6c0,-1 0,-1 -1,-1 -1,0 -2,1 -3,2 0,0 -1,2 -1,3l0 0 0 10 0 0 -2 0 -2 0zm21 0c-3,0 -5,0 -6,-2 -2,-2 -2,-4 -2,-7 0,-4 0,-6 2,-8 1,-2 3,-3 6,-3 2,0 4,1 6,3 1,2 2,4 2,8 0,3 -1,5 -2,7 -2,2 -4,2 -6,2zm0 -4c1,0 2,0 3,-1 0,-1 0,-3 0,-5 0,-1 0,-3 0,-4 -1,-1 -2,-1 -3,-1 -2,0 -3,0 -3,1 -1,1 -1,3 -1,4 0,2 0,4 1,5 0,1 1,1 3,1zm12 4l0 -19 0 0 2 0 2 0 0 0 0 3 0 0 0 0c1,-1 1,-1 1,-2 1,-1 2,-2 4,-2 1,0 3,1 4,2 0,0 0,1 0,1l0 0 1 -1c1,-1 2,-2 4,-2 1,0 3,1 4,2 1,1 1,3 1,5l0 13 0 0 -2 0 -2 0 0 0 0 -11c0,-2 0,-3 -1,-3 0,-1 -1,-1 -1,-1 -1,0 -2,0 -2,1 -1,0 -1,1 -1,2l0 0 0 12 0 0 -2 0 -2 0 0 0 0 -12c0,-1 -1,-2 -1,-3 0,0 -1,0 -2,0 -1,0 -1,0 -2,1 0,0 0,1 0,2l0 0 0 12 0 0 -3 0 -2 0zm32 0c-1,0 -2,0 -3,-1 -1,-1 -1,-2 -1,-4 0,-2 0,-3 1,-4 1,-1 2,-2 3,-2l3 -1c1,0 1,0 2,0 0,0 0,-1 0,-1 0,0 0,-1 0,-1 0,0 0,-1 0,-1 -1,0 -1,-1 -2,-1 -1,0 -2,1 -2,1 -1,1 -1,1 -1,2l0 0 -4 0 0 0c0,-2 1,-4 2,-5 1,-1 3,-2 5,-2 2,0 4,1 5,2 1,1 2,2 2,4l0 11c0,1 0,1 0,1 0,1 0,1 0,1l0 0 0 1 -2 0 -2 0 0 0c0,-1 0,-2 0,-2l0 0c-2,2 -3,2 -6,2zm5 -7l0 -2 0 0c0,0 -1,0 -1,1l-2 0c-1,0 -1,0 -2,1 0,0 0,1 0,1 0,1 0,2 0,2 1,1 1,1 2,1 1,0 2,-1 3,-2 0,0 0,0 0,-1 0,0 0,-1 0,-1zm17 7l0 -26 0 0 2 0 0 0 7 0c3,0 5,1 7,3 1,2 2,5 2,9 0,5 -1,8 -2,11 -2,2 -4,3 -7,3l-7 0 0 0 -2 0zm4 -4l0 0 4 0c2,0 3,-1 4,-3 1,-1 2,-3 2,-6 0,-3 -1,-5 -2,-6 0,-2 -2,-2 -3,-2l-5 0 0 0 0 17zm19 4l0 -19 0 0 2 0 2 0 0 0 0 19 0 0 -2 0 -2 0zm0 -26l4 0 0 5 -4 0 0 -5zm15 10l0 0 0 16 0 0 -2 0 -3 0 0 0 0 -16 0 0 -2 0 0 -3 2 0 0 0 0 -2c0,-2 1,-3 2,-4 0,-1 2,-1 3,-1 1,0 2,0 2,0l0 4 -1 0c-1,0 -1,0 -1,0 0,1 0,1 0,2l0 1 0 0 2 0 0 3 -2 0zm11 0l0 0 0 16 0 0 -2 0 -2 0 0 0 0 -16 0 0 -2 0 0 -3 2 0 0 0 0 -2c0,-2 0,-3 1,-4 1,-1 2,-1 4,-1 1,0 1,0 2,0l0 4 -1 0c-1,0 -1,0 -1,0 -1,1 -1,1 -1,2l0 1 0 0 3 0 0 3 -3 0zm11 -3l0 12c0,1 0,2 1,2 0,1 1,1 2,1 1,0 2,0 2,-1 1,-1 1,-2 1,-3l0 0 0 -11 0 0 2 0 2 0 0 0 0 19 0 0 -2 0 -2 0 0 0 0 -3 0 0 0 0c0,0 0,1 0,1 -1,2 -3,2 -5,2 -1,0 -3,0 -4,-1 0,-1 -1,-3 -1,-5l0 -13 0 0 2 0 2 0zm25 6l0 0c0,-1 0,-2 -1,-2 0,-1 -1,-1 -2,-1 -1,0 -1,0 -2,1 0,0 0,0 0,1 0,0 0,1 0,1 1,0 2,1 3,1 3,1 4,2 5,2 1,1 2,2 2,4 0,2 -1,4 -2,5 -2,1 -3,1 -5,1 -3,0 -5,0 -6,-1 -1,-1 -2,-3 -2,-5l0 0 4 0 0 0c0,1 0,1 1,2 1,0 2,1 3,1 0,0 1,0 2,-1 0,0 0,-1 0,-1 0,-1 0,-1 0,-1 -1,-1 -2,-1 -3,-1 -2,-1 -4,-2 -5,-3 -1,0 -2,-2 -2,-3 0,-2 1,-4 2,-5 1,-1 3,-2 5,-2 2,0 4,1 5,2 1,1 2,3 2,5l0 0 -4 0zm15 13c-2,0 -4,0 -5,-2 -1,-2 -2,-5 -2,-8 0,-3 1,-5 2,-7 1,-2 3,-3 6,-3 2,0 4,1 5,3 1,2 2,4 2,8 0,0 0,0 0,1l0 0 -11 0 0 0c0,1 1,2 1,3 1,1 2,1 3,1 1,0 1,0 2,0 0,-1 1,-1 1,-2l0 0 4 0 0 0c0,2 -1,4 -3,5 -1,1 -3,1 -5,1zm4 -12l0 0c0,-1 -1,-2 -1,-2 -1,-1 -1,-2 -3,-2 -1,0 -1,1 -2,2 0,1 -1,1 -1,2l0 0 7 0zm8 12l0 -19 0 0 2 0 2 0 0 0 0 3 0 0 0 0c1,0 1,0 1,-1 1,-2 2,-3 4,-3l1 0 0 6c-1,-1 -1,-1 -2,-1 -1,0 -2,1 -2,2 -1,0 -1,2 -1,3l0 0 0 10 0 0 -2 0 -3 0z"/>
  <path class="fil1" d="M103 67l0 -59c0,-3 2,-5 4,-5 3,0 5,2 5,5l0 59 -4 0 0 -59c0,-1 0,-1 -1,-1 0,0 0,0 0,1l0 59 -4 0z" p-id="4703"/>
  <path class="fil2" d="M103 67l0 -59c0,-2 0,-3 1,-4 1,0 2,-1 3,-1 2,0 3,1 4,1 1,1 1,2 1,4l0 60 -4 0 0 -60c0,0 0,0 0,-1 0,0 0,0 -1,0 0,0 0,0 0,0 0,1 0,1 0,1l0 60 -4 0 0 -1 0 0zm0 -59l0 59 4 0 0 -59c0,0 0,-1 0,-1 0,0 0,0 0,0 1,0 1,0 1,0 0,0 0,1 0,1l0 59 4 0 0 -59c0,-1 0,-3 -1,-4 -1,0 -2,-1 -4,-1 -1,0 -2,1 -3,1 -1,1 -1,3 -1,4l0 0z"/>
  <path class="fil1" d="M89 67l-10 -47c-1,-3 1,-5 4,-6 2,0 5,1 5,4l11 49 -5 0 -10 -48c0,-1 0,-1 0,-1 0,0 0,0 0,0 -1,0 -1,0 -1,1l10 48 -4 0 0 0z" p-id="4705"/>
  <path class="fil2" d="M89 67l-10 -47c0,-2 0,-3 1,-4 0,-1 1,-2 3,-2l0 0c1,0 2,0 3,1 1,0 2,1 2,3 4,16 8,32 11,50l-5 0 -10 -49c0,-1 0,-1 0,-1 0,0 0,0 0,0 0,0 0,0 0,0l0 0c-1,0 -1,0 -1,0 0,1 0,1 0,1l10 49 -4 0 0 -1 0 0zm-10 -47l10 47 4 0 -10 -48c0,0 0,-1 0,-1 0,0 0,0 0,0 1,0 1,0 1,0 0,0 0,0 0,0 0,0 0,0 0,1l10 48 5 0 -11 -49c0,-2 -1,-3 -2,-3 -1,-1 -2,-1 -3,-1l0 0c-2,0 -3,1 -3,2 -1,1 -1,2 -1,4l0 0z"/>
  <path class="fil2" d="M137 94l-15 0 0 -9c0,-2 -1,-3 -2,-4 0,-1 -2,-1 -3,-1l-32 0c-1,0 -2,0 -3,1 -1,1 -2,2 -2,4l0 9 -15 0c-1,0 -2,0 -2,1 -1,1 -1,2 -1,3l0 45c0,1 0,2 1,2 0,1 1,1 2,1l72 0c1,0 2,0 2,-1 1,0 1,-1 1,-2l0 -45c0,-1 0,-2 -1,-3 0,-1 -1,-1 -2,-1l0 0 0 0zm-15 0l15 0c1,0 2,0 2,1 1,1 2,2 2,3l0 45c0,1 -1,2 -2,2 0,1 -1,1 -2,1l-72 0c-1,0 -2,0 -2,-1 -1,0 -1,-1 -1,-2l0 -45c0,-1 0,-2 1,-3 0,-1 1,-1 2,-1l15 0 0 -9c0,-2 1,-3 2,-4 0,-1 2,-1 3,-1l32 0c1,0 3,0 4,1 0,1 1,2 1,4l0 9 0 0z"/>
  <path class="fil1" d="M137 149l-72 0c-3,0 -5,-3 -5,-6l0 -45c0,-3 2,-6 5,-6l13 0 0 -7c0,-4 3,-7 7,-7l32 0c4,0 7,3 7,7l0 7 13 0c3,0 6,3 6,6l0 45c0,3 -3,6 -6,6l0 0zm-72 -53c-1,0 -1,1 -1,2l0 45c0,1 0,1 1,1l72 0c1,0 1,0 1,-1l0 -45c0,-1 0,-2 -1,-2l-15 0c-1,0 -2,-1 -2,-2l0 -9c0,-2 -1,-3 -3,-3l-32 0c-1,0 -3,1 -3,3l0 9c0,1 -1,2 -2,2l-15 0 0 0z" p-id="4707"/>
  <path class="fil2" d="M137 149l-72 0c-1,0 -3,-1 -4,-2 -1,-1 -2,-3 -2,-4l0 -45c0,-2 1,-3 2,-4 1,-2 3,-2 4,-2l13 0 0 -7c0,-2 1,-4 2,-5 1,-2 3,-3 5,-3l32 0c2,0 4,1 5,3 1,1 2,3 2,5l0 7 13 0c1,0 3,0 4,2 1,1 2,2 2,4l0 45c0,1 -1,3 -2,4 -1,1 -3,2 -4,2l0 0zm-72 -1l72 0c1,0 3,0 4,-1 1,-1 2,-3 2,-4l0 -45c0,-2 -1,-3 -2,-4 -1,-1 -3,-2 -4,-2l-13 0 0 -7c0,-2 -1,-4 -2,-5 -1,-2 -3,-2 -5,-2l-32 0c-2,0 -4,0 -5,2 -1,1 -2,3 -2,5l0 7 -13 0c-1,0 -3,1 -4,2 -1,1 -1,2 -1,4l0 45c0,1 0,3 1,4 1,1 3,1 4,1l0 0zm0 -52c0,0 0,0 -1,1 0,0 0,0 0,1l0 45c0,0 0,0 0,1 1,0 1,0 1,0l72 0c0,0 1,0 1,0 0,-1 0,-1 0,-1l0 -45c0,-1 0,-1 0,-1 0,-1 -1,-1 -1,-1l-15 0c-1,0 -1,0 -2,-1 0,0 0,0 0,-1l0 -9c0,-1 0,-2 -1,-2 0,-1 -1,-1 -2,-1l-32 0c-1,0 -1,0 -2,1 0,0 -1,1 -1,2l0 9c0,1 0,1 0,1 -1,1 -1,1 -2,1l-15 0 0 0zm-1 1c0,-1 1,-1 1,-1l15 0c1,0 1,0 2,-1 0,0 0,0 0,-1l0 -9c0,-1 0,-2 1,-3 1,0 1,0 2,0l32 0c1,0 2,0 2,0 1,1 1,2 1,3l0 9c0,1 0,1 1,1 0,1 0,1 1,1l15 0c0,0 1,0 1,1 0,0 1,0 1,1l0 45c0,0 -1,1 -1,1 0,0 -1,0 -1,0l-72 0c0,0 -1,0 -1,0 0,0 0,-1 0,-1l0 -45c0,-1 0,-1 0,-1z"/>
  <path class="fil1" d="M125 82l-48 0c-1,0 -2,-1 -2,-3l0 -11c0,-1 1,-2 2,-2l48 0c1,0 2,1 2,2l0 11c0,2 -1,3 -2,3l0 0zm-46 -5l44 0 0 -7 -44 0 0 7zm46 -7z" p-id="4709"/>
  <path class="fil2" d="M125 82l-48 0c-1,0 -1,-1 -2,-1 0,-1 0,-1 0,-2l0 -11c0,-1 0,-1 0,-2 1,0 1,0 2,0l48 0c1,0 1,0 2,0 0,1 0,1 0,2l0 11c0,1 0,2 0,2 -1,0 -1,1 -2,1l0 0zm-48 0l48 0c1,0 1,-1 2,-1 0,-1 0,-1 0,-2l0 -11c0,0 0,-1 0,-1 -1,-1 -1,-1 -2,-1l-48 0c-1,0 -1,0 -2,1 0,0 0,1 0,1l0 11c0,1 0,1 0,2 1,0 1,1 2,1zm2 -5l44 0 0 -7 -44 0 0 7zm44 0l-44 0 0 -7 44 0 0 7 0 0z"/>
  <path class="fil2" d="M75 111l52 0 0 19 -52 0c0,-6 0,-13 0,-19l0 0zm52 0l-52 0 0 19 52 0 0 -19z"/>
  <path class="fil1" d="M127 133l-52 0c-1,0 -2,-2 -2,-3l0 -19c0,-1 1,-2 2,-2l52 0c2,0 2,1 2,2l0 19c0,1 0,3 -2,3l0 0zm-50 -5l48 0 0 -15 -48 0 0 15z" p-id="4713"/>
  <path class="fil2" d="M127 133l-52 0c-1,0 -1,0 -2,-2 0,0 0,0 0,-1l0 -19c0,-1 0,-1 0,-2 1,0 1,0 2,0l52 0c1,0 2,0 2,0 0,1 1,1 1,2l0 19c0,1 -1,1 -1,1 0,2 -1,2 -2,2l0 0zm-52 0l52 0c1,0 1,0 2,-2 0,0 0,-1 0,-1l0 -19c0,-1 0,-1 0,-2 -1,0 -1,0 -2,0l-52 0c-1,0 -1,0 -2,0 0,1 0,1 0,2l0 19c0,0 0,1 0,1 1,2 1,2 2,2zm2 -5l48 0 0 -15 -48 0 0 15zm48 0l-48 0 0 -15 48 0 0 15 0 0z"/>
  <path class="fil1" d="M178 87l0 -45c0,-2 2,-3 4,-3 2,0 4,1 4,3l0 45 -4 0 0 -45c0,0 0,0 0,0 0,0 0,0 0,0l0 45 -4 0z" p-id="4703"/>
  <path class="fil2" d="M178 87l0 -45c0,-1 1,-1 1,-2 1,-1 2,-1 3,-1 1,0 2,0 3,1 0,1 1,1 1,2l0 46 -4 0 0 -46c0,0 0,0 0,0 0,0 0,0 0,0 0,0 0,0 0,0 0,0 0,0 0,0l0 46c-1,0 -3,0 -4,0l0 -1 0 0zm1 -45l0 45 3 0 0 -45c0,0 0,0 0,0 0,0 0,0 0,0 0,0 0,0 0,0 0,0 1,0 1,0l0 45 3 0 0 -45c0,-1 -1,-1 -2,-2 0,-1 -1,-1 -2,-1 -1,0 -2,0 -2,1 -1,1 -1,1 -1,2l0 0z"/>
  <path class="fil1" d="M169 87l-9 -36c0,-2 1,-4 3,-4 3,0 5,1 5,3l8 37 -3 0 -9 -37c0,0 0,0 0,0 0,0 0,0 0,0 0,0 -1,0 0,1l8 36 -3 0 0 0z" p-id="4705"/>
  <path class="fil2" d="M169 87l-9 -36c0,-1 0,-2 1,-2 0,-1 1,-2 2,-2l0 0c1,0 3,0 4,1 1,0 1,1 2,2 2,13 5,25 7,38l-3 0 -9 -38c0,0 0,0 0,0 0,0 0,0 0,0 0,0 0,0 0,0l0 0c0,0 0,0 0,0 0,0 0,1 0,1l8 37 -3 0 0 -1 0 0zm-8 -36l8 36 3 0 -9 -36c0,0 0,-1 1,-1 0,0 0,0 0,0 0,0 0,0 0,0 0,0 0,0 0,0 0,0 0,0 0,0l9 37 3 0 -8 -37c0,-1 0,-2 -1,-2 -1,-1 -3,-1 -4,-1l0 0c-1,0 -1,1 -2,2 0,0 -1,1 0,2l0 0z"/>
  <path class="fil2" d="M204 107l-11 0 0 -7c0,-1 0,-2 -1,-2 -1,-1 -2,-1 -3,-1l-23 0c-2,0 -3,0 -4,1 0,0 -1,1 -1,2l0 7 -11 0c0,0 -1,1 -2,1 0,1 -1,1 -1,2l0 34c0,1 1,2 1,2 1,1 2,1 2,1l54 0c1,0 1,0 2,-1 1,0 1,-1 1,-2l0 -34c0,-1 0,-1 -1,-2 0,0 -1,-1 -2,-1l0 0 0 0zm-11 0l11 0c1,0 2,1 2,1 1,1 1,1 1,2l0 34c0,1 0,2 -1,2 0,1 -1,1 -2,1l-54 0c0,0 -1,0 -2,-1 0,0 -1,-1 -1,-2l0 -34c0,-1 1,-1 1,-2 1,0 2,-1 2,-1l11 0 0 -7c0,-1 1,-2 1,-2 1,-1 2,-2 4,-2l23 0c1,0 2,1 3,2 1,0 1,1 1,2l0 7 0 0z"/>
  <path class="fil1" d="M204 149l-54 0c-2,0 -4,-2 -4,-5l0 -34c0,-2 2,-4 4,-4l10 0 0 -6c0,-3 2,-5 6,-5l23 0c3,0 6,2 6,5l0 6 9 0c2,0 4,2 4,4l0 34c0,3 -2,5 -4,5zm-54 -40c0,0 -1,0 -1,1l0 34c0,1 1,1 1,1l54 0c1,0 1,0 1,-1l0 -34c0,-1 0,-1 -1,-1l-11 0c-1,0 -2,-1 -2,-2l0 -7c0,-1 -1,-2 -2,-2l-23 0c-2,0 -3,1 -3,2l0 7c0,1 -1,2 -2,2l-11 0 0 0z" p-id="4707"/>
  <path class="fil2" d="M204 149l-54 0c-1,0 -2,-1 -3,-2 -1,-1 -1,-2 -1,-3l0 -34c0,-1 0,-2 1,-3 1,-1 2,-1 3,-1l10 0 0 -6c0,-1 0,-3 1,-4 1,0 3,-1 5,-1l23 0c2,0 3,1 4,1 1,1 2,3 2,4l0 6 9 0c1,0 2,0 3,1 1,1 2,2 2,3l0 34c0,1 -1,2 -2,3 -1,1 -2,2 -3,2l0 0zm-54 -1l54 0c1,0 2,0 3,-1 1,-1 1,-2 1,-3l0 -34c0,-1 0,-2 -1,-3 -1,-1 -2,-1 -3,-1l-9 0 0 -6c0,-1 -1,-2 -2,-3 -1,-1 -2,-2 -4,-2l-23 0c-2,0 -4,1 -5,2 -1,1 -1,2 -1,3l0 6 -10 0c-1,0 -2,0 -3,1 -1,1 -1,2 -1,3l0 34c0,1 0,2 1,3 1,1 2,1 3,1l0 0zm0 -39c0,0 0,0 -1,0 0,1 0,1 0,1l0 34c0,0 0,1 0,1 1,0 1,0 1,0l54 0c0,0 1,0 1,0 0,0 0,-1 0,-1l0 -34c0,0 0,0 0,-1 0,0 -1,0 -1,0l-11 0c0,0 -1,0 -1,-1 0,0 -1,0 -1,-1l0 -7c0,0 0,-1 0,-1 -1,-1 -1,-1 -2,-1l-23 0c-2,0 -2,0 -2,1 -1,0 -1,1 -1,1l0 7c0,1 0,1 -1,1 0,1 0,1 -1,1l-11 0 0 0zm-1 0c1,0 1,0 1,0l11 0c1,0 1,0 1,-1 1,0 1,0 1,-1l0 -7c0,0 0,-1 0,-1 1,-1 1,-1 3,-1l23 0c1,0 1,0 2,1 0,0 1,1 1,1l0 7c0,1 0,1 0,1 0,1 1,1 1,1l11 0c0,0 1,0 1,0 0,0 0,1 0,1l0 34c0,0 0,1 0,1 0,0 -1,0 -1,0l-54 0c0,0 0,0 -1,0 0,0 0,-1 0,-1l0 -34c0,0 0,-1 0,-1l0 0z"/>
  <path class="fil1" d="M195 98l-36 0c-1,0 -2,-1 -2,-2l0 -8c0,-1 1,-2 2,-2l36 0c1,0 2,1 2,2l0 8c0,1 -1,2 -2,2l0 0zm-35 -3l34 0 0 -6 -34 0 0 6zm35 -6z" p-id="4709"/>
  <path class="fil2" d="M195 98l-36 0c0,0 -1,0 -1,0 -1,-1 -1,-1 -1,-2l0 -8c0,-1 0,-1 1,-1 0,-1 1,-1 1,-1l36 0c1,0 1,0 2,1 0,0 0,0 0,1l0 8c0,1 0,1 0,2 -1,0 -1,0 -2,0l0 0zm-36 0l36 0c1,0 1,0 2,-1 0,0 0,0 0,-1l0 -8c0,-1 0,-1 0,-1 -1,-1 -1,-1 -2,-1l-36 0c0,0 -1,0 -1,1 -1,0 -1,0 -1,1l0 8c0,1 0,1 1,1 0,1 1,1 1,1zm1 -3l34 0 0 -6 -34 0 0 6zm34 0l-34 0 0 -6 34 0 0 6 0 0z"/>
  <path class="fil2" d="M157 120l40 0 0 15 -40 0 0 -15 0 0zm40 0l-40 0 0 15 40 0 0 -15z"/>
  <path class="fil1" d="M197 137l-40 0c-1,0 -1,-1 -1,-2l0 -15c0,-1 0,-2 1,-2l40 0c1,0 2,1 2,2l0 15c0,1 -1,2 -2,2l0 0zm-38 -3l37 0 0 -12 -37 0 0 12z" p-id="4713"/>
  <path class="fil2" d="M197 137l-40 0c0,0 -1,0 -1,-1 0,0 0,0 0,-1l0 -15c0,0 0,-1 0,-1 0,0 1,-1 1,-1l40 0c1,0 1,1 1,1 1,0 1,1 1,1l0 15c0,1 -1,1 -1,1 0,1 0,1 -1,1l0 0zm-40 0l40 0c0,0 1,0 1,-1 0,0 1,0 1,-1l0 -15c0,0 -1,-1 -1,-1 0,0 -1,-1 -1,-1l-40 0c0,0 -1,1 -1,1 0,0 0,1 0,1l0 15c0,1 0,1 0,1 0,1 1,1 1,1zm2 -3l36 0 0 -12 -36 0 0 12zm37 0l-37 0 0 -13 37 0 0 13 0 0z"/>
  <path class="fil3" d="M15 209c7,0 13,6 13,13 0,7 -6,13 -13,13 -7,0 -13,-6 -13,-13 0,-7 6,-13 13,-13z"/>
  <rect class="fil4" width="279" height="235"/>
 </g>
</svg>
