<?xml version="1.0" encoding="UTF-8"?>
<!DOCTYPE svg PUBLIC "-//W3C//DTD SVG 1.1//EN" "http://www.w3.org/Graphics/SVG/1.1/DTD/svg11.dtd">
<!-- Creator: CorelDRAW X8 -->
<svg xmlns="http://www.w3.org/2000/svg" xml:space="preserve" width="78.9677mm" height="70.1558mm" version="1.1" style="shape-rendering:geometricPrecision; text-rendering:geometricPrecision; image-rendering:optimizeQuality; fill-rule:evenodd; clip-rule:evenodd"
viewBox="0 0 178 158"
 xmlns:xlink="http://www.w3.org/1999/xlink">
 <defs>
  <style type="text/css">
   <![CDATA[
    .fil3 {fill:none}
    .fil0 {fill:#FEFEFE}
    .fil1 {fill:#332C2B}
    .fil2 {fill:#FEFEFE;fill-rule:nonzero}
   ]]>
  </style>
 </defs>
 <g id="图层_x0020_1">
  <metadata id="CorelCorpID_0Corel-Layer"/>
  <path class="fil0" d="M97 46l0 0zm-18 -18c0,4 3,4 5,4 0,0 1,1 2,1 0,1 2,2 2,3 1,4 1,6 -1,9 0,1 -1,2 -2,3l-2 2c0,0 -1,0 -1,0 0,1 0,1 -1,2 0,0 0,0 0,1 -1,0 0,0 -1,0 0,-4 0,-7 0,-11 0,0 0,0 0,0 0,-1 0,0 0,-1 0,0 0,0 0,-1 0,-2 0,-4 -1,-6 -1,-2 -1,-1 -1,-3 0,-1 0,-1 0,-4 0,-1 0,-1 0,-2 0,1 0,1 1,2 0,1 0,0 0,1zm24 -8c1,0 1,1 1,2 0,0 0,1 0,2 0,3 1,4 0,7 0,1 0,1 -1,1 -2,1 -3,1 -4,0 -3,-2 -10,-8 -8,-11 1,-2 7,-1 9,-1 1,0 2,0 3,0zm-6 26c0,3 -2,10 -2,13 0,5 1,5 3,9 1,1 2,1 2,2l2 4c1,1 2,2 2,4l2 3c1,1 1,1 1,2 0,2 0,3 -1,4 0,1 -1,4 -3,4l0 1c2,1 -1,1 6,1 1,-1 1,-2 1,-3 1,-1 1,-2 2,-3 0,1 0,2 0,3l1 0c0,-3 1,-5 -2,-9 -1,-2 -1,-3 -2,-5 -1,-1 -1,-1 -1,-2l-1 -2c0,-1 0,-1 0,-2l-1 -3c-1,-1 -2,-2 -3,-4 0,0 0,0 -1,0 0,-1 -1,-1 -1,-3 0,0 1,-1 1,-2 0,-1 1,-2 1,-3 1,-3 1,-6 2,-8 0,-1 0,-1 0,-2 1,0 2,1 2,1 1,0 1,0 2,0 0,-1 -3,-3 -4,-8 0,-1 -1,-3 -1,-3 1,0 1,0 2,-1 0,-2 0,-3 1,-4 0,-2 0,-3 1,-5 0,-4 1,-7 -2,-8 -1,-1 -3,-1 -4,-1 -5,-1 -5,-2 -11,-3 -1,0 -1,0 -1,-1 0,0 0,0 1,0 0,-1 0,-1 1,0l0 -1c-1,0 0,0 -1,0 0,-1 0,-1 0,-1 0,-1 -1,-1 -1,-2 1,0 1,1 2,1 1,0 2,0 3,0l0 -1c-2,0 -3,0 -5,-1 -1,-1 -2,-1 -3,-2 -2,-1 -2,-3 -4,-4 -1,-1 -4,-1 -5,0 -2,1 -2,2 -3,3 0,3 0,6 -1,8 -1,1 -2,2 -2,3l-1 2c-2,6 0,7 -1,8l0 1c2,-1 2,-5 3,-7 0,0 1,-1 1,-2 1,0 1,0 1,-1 0,3 0,2 -1,5 -1,1 -1,1 -1,2 0,1 0,4 0,6 0,3 3,6 3,9l0 3c0,2 1,3 1,5 1,2 0,5 1,8 1,2 -2,3 -3,9 0,4 -2,13 -3,17 -1,2 -1,4 -2,5 0,1 0,1 -1,2 -1,2 -1,5 -4,5l0 0c1,1 5,1 7,1 0,-2 0,-2 1,-3 0,-1 1,-1 2,-2 1,1 1,2 1,4l0 0c0,-2 1,-3 1,-4 0,-3 -3,-2 -2,-7 1,-1 1,-2 2,-3 2,-4 0,-1 3,-6 1,-3 1,-3 1,-7 1,-2 2,-4 4,-5 2,-2 5,-6 7,-8 0,-1 0,-1 1,-1 1,-1 1,-2 2,-3 0,0 1,-2 2,-2z"/>
  <path class="fil1" d="M28 129c4,0 8,4 8,8 0,5 -4,9 -8,9 -5,0 -8,-4 -8,-9 0,-4 3,-8 8,-8z"/>
  <path class="fil2" d="M47 150l0 -26 0 0 2 0 0 0 9 0c2,0 3,1 5,2 1,1 1,3 1,5 0,2 0,4 -2,5 0,0 0,0 0,0l0 0c0,0 1,1 1,1 1,1 2,3 2,5 0,3 -1,5 -2,6 -1,2 -3,2 -6,2l-8 0 0 0 -2 0zm4 -21l0 5 0 0 6 0c1,0 2,0 2,0 1,-1 1,-2 1,-3 0,-1 0,-1 -1,-2 0,0 -1,0 -3,0l-5 0zm0 10l0 7 0 0 6 0c1,0 2,-1 3,-1 0,-1 1,-2 1,-3 0,-1 -1,-2 -1,-2 -1,-1 -2,-1 -3,-1l-6 0zm26 12c-3,0 -5,-1 -6,-3 -1,-2 -2,-4 -2,-8 0,-3 1,-5 2,-7 1,-2 3,-3 6,-3 2,0 4,1 5,3 2,2 2,4 2,8 0,0 0,0 0,1l0 0 -11 0 0 0c0,1 1,3 1,3 1,1 2,2 3,2 1,0 1,0 2,-1 0,0 1,-1 1,-2l0 0 4 0 0 0c0,2 -1,4 -2,5 -2,1 -3,2 -5,2zm3 -12l0 0c0,-2 0,-2 -1,-3 0,-1 -1,-1 -2,-1 -1,0 -2,0 -3,1 0,1 0,2 -1,3l0 0 7 0zm13 12c-2,0 -3,-1 -4,-2 -1,-1 -1,-2 -1,-4 0,-2 0,-3 1,-4 1,-1 2,-2 4,-2l2 -1c1,0 2,0 2,0 0,0 1,0 1,-1 0,0 0,0 0,-1 0,0 -1,-1 -1,-1 0,0 -1,-1 -2,-1 -1,0 -1,1 -2,1 0,1 -1,1 -1,2l0 0 -4 0 0 0c0,-2 1,-4 2,-5 1,-1 3,-2 5,-2 2,0 4,1 5,2 1,1 2,2 2,4l0 11c0,1 0,1 0,2 0,0 0,0 1,1l0 0 0 0 -2 0 -3 0 0 0c0,-1 0,-1 0,-2l0 0c-1,2 -3,3 -5,3zm5 -8l0 -2 0 0c-1,0 -1,1 -2,1l-2 0c0,0 -1,1 -1,1 -1,0 -1,1 -1,2 0,0 0,1 1,2 0,0 0,0 1,0 1,0 2,0 3,-2 0,0 1,0 1,-1 0,0 0,0 0,-1zm14 -12l0 12c0,1 0,2 0,3 1,0 1,1 2,1 1,0 2,-1 3,-2 0,0 1,-2 1,-3l0 0 0 -11 0 0 2 0 2 0 0 0 0 19 0 0 -2 0 -2 0 0 0 0 -3 0 0 0 0c0,1 0,1 -1,1 -1,2 -2,3 -4,3 -2,0 -3,-1 -4,-2 -1,-1 -2,-3 -2,-5l0 -13 0 0 3 0 2 0zm23 19c-1,0 -2,1 -3,1 -1,0 -2,-1 -3,-1 -1,-1 -1,-2 -1,-4l0 -12 0 0 -2 0 0 -3 2 0 0 0 0 -5 4 0 0 5 0 0 3 0 0 3 -3 0 0 0 0 12c0,0 0,0 1,0 0,1 0,1 1,1l1 0 0 3zm19 -19l-6 20c-1,3 -2,5 -2,6 -1,1 -2,1 -4,1l-2 0 0 -4c0,0 0,0 1,0 1,0 2,0 2,-1 0,0 0,-1 1,-2l0 0 -6 -20 0 0 2 0 2 0 0 0 4 14 0 0 0 0 3 -14 0 0 2 0 3 0z"/>
  <rect class="fil3" width="178" height="150"/>
 </g>
</svg>
