<?xml version="1.0" encoding="UTF-8"?>
<!DOCTYPE svg PUBLIC "-//W3C//DTD SVG 1.1//EN" "http://www.w3.org/Graphics/SVG/1.1/DTD/svg11.dtd">
<!-- Creator: CorelDRAW X8 -->
<svg xmlns="http://www.w3.org/2000/svg" xml:space="preserve" width="70.7007mm" height="69.912mm" version="1.1" style="shape-rendering:geometricPrecision; text-rendering:geometricPrecision; image-rendering:optimizeQuality; fill-rule:evenodd; clip-rule:evenodd"
viewBox="0 0 224 222"
 xmlns:xlink="http://www.w3.org/1999/xlink">
 <defs>
  <style type="text/css">
   <![CDATA[
    .fil1 {fill:#FEFEFE}
    .fil0 {fill:#FEFEFE;fill-rule:nonzero}
   ]]>
  </style>
 </defs>
 <g id="图层_x0020_1">
  <metadata id="CorelCorpID_0Corel-Layer"/>
  <path class="fil0" d="M40 211l0 -37 0 0 3 0 0 0 12 0c3,0 5,1 6,2 2,2 3,4 3,7 0,3 -1,6 -3,7 0,0 0,1 -1,1l0 0c1,0 2,1 2,1 2,2 3,4 3,7 0,4 -1,7 -3,9 -2,2 -5,3 -8,3l-11 0 0 0 -3 0zm6 -31l0 8 0 0 7 0c2,0 3,0 4,-1 1,0 1,-2 1,-3 0,-1 0,-2 -1,-3 -1,0 -2,-1 -4,-1l-7 0zm0 15l0 9 0 0 8 0c1,0 3,0 3,-1 1,-1 2,-2 2,-4 0,-1 -1,-3 -2,-3 0,-1 -2,-1 -3,-1l-8 0zm27 16l0 -27 0 0 2 0 3 0 0 0 0 27 0 0 -2 0 -3 0zm-1 -37l7 0 0 6 -7 0 0 -6zm14 37l0 -27 0 0 3 0 3 0 0 0 0 4 0 0 0 0c0,0 0,-1 1,-1 1,-3 3,-4 5,-4l1 0 0 7c0,0 -1,0 -1,0 -2,0 -3,1 -4,2 -1,1 -2,2 -2,5l0 0 0 14 0 0 -3 0 -3 0zm30 0c-1,0 -3,0 -4,0 -2,0 -4,0 -5,-1 0,-1 -1,-3 -1,-5l0 -16 0 0 -3 0 0 -5 3 0 0 0 0 -8 6 0 0 8 0 0 4 0 0 5 -4 0 0 0 0 15c0,1 0,1 0,1 1,0 1,0 2,0l2 0 0 6zm6 0l0 -37 0 0 3 0 3 0 0 0 0 13 0 0 0 0 0 -1c2,-2 4,-3 6,-3 3,0 5,1 6,2 1,2 2,4 2,7l0 19 0 0 -3 0 -3 0 0 0 0 -17c0,-2 0,-3 -1,-4 0,-1 -1,-1 -3,-1 -1,0 -2,0 -3,1 -1,2 -1,3 -1,5l0 0 0 16 0 0 -3 0 -3 0zm36 0c-3,0 -5,-1 -7,-4 -2,-2 -2,-6 -2,-10 0,-4 0,-8 2,-10 2,-3 4,-4 7,-4 3,0 5,1 6,4l1 0 0 0 0 -13 0 0 2 0 3 0 0 0 0 37 0 0 -2 0 -3 0 0 0 0 -4 0 0 0 0c-2,3 -4,4 -7,4zm2 -22c-2,0 -3,1 -4,2 -1,2 -1,4 -1,6 0,3 0,5 1,6 1,2 2,2 4,2 1,0 3,0 3,-2 1,-1 2,-3 2,-6 0,-3 -1,-5 -2,-6 0,-1 -2,-2 -3,-2zm23 22c-2,0 -3,0 -5,-2 -1,-1 -1,-3 -1,-5 0,-3 0,-5 1,-6 1,-2 3,-3 5,-3l4 -1c1,0 2,0 3,-1 0,0 0,0 0,-1 1,0 1,0 1,-1 -1,-1 -1,-1 -1,-2 -1,0 -2,-1 -3,-1 -1,0 -2,1 -3,1 -1,1 -1,2 -1,3l0 0 -6 0 0 0c1,-3 1,-5 3,-7 2,-1 4,-2 7,-2 3,0 5,1 7,2 2,1 2,3 2,6l0 15c0,1 1,2 1,3 0,0 0,0 1,1l0 0 0 1 -4 0 -3 0 0 0c0,-1 0,-3 0,-4l0 0c-2,3 -5,4 -8,4zm8 -10l0 -3 0 0c-1,0 -2,0 -3,1l-2 0c-1,0 -2,1 -3,1 0,1 0,2 0,3 0,1 0,2 0,2 1,1 1,1 2,1 2,0 4,-1 5,-2 0,0 0,-1 0,-2 1,0 1,-1 1,-1zm33 -17l-8 27c-1,5 -2,8 -3,9 -1,1 -3,2 -5,2l-3 -1 0 -5c0,0 0,0 1,0 2,0 3,-1 3,-1 0,-1 1,-2 1,-3l0 0 -8 -28 0 0 3 0 3 0 0 0 5 20 0 0 0 0 5 -20 0 0 3 0 3 0z"/>
  <path class="fil1" d="M140 20l1 0c0,0 0,0 0,0 2,0 4,2 4,4l0 1 0 25 10 0c11,0 21,9 21,20l0 51c2,0 5,1 5,4l0 0c0,0 0,0 0,0 0,2 -3,4 -5,6l0 0 -130 0c-3,0 -5,-3 -5,-6 0,-2 2,-4 5,-4l0 0 0 -51c0,-11 9,-20 20,-20l10 0 0 -25c0,0 0,0 0,0 0,-3 2,-5 4,-5l1 0c0,0 0,0 0,0 2,0 5,2 5,4l0 1 0 25 19 0 0 -25c0,0 0,0 0,0 0,-3 3,-5 5,-5l1 0c0,0 0,0 0,0 2,0 4,2 4,4l0 1 0 25 20 0 0 -25c0,0 0,0 0,0 0,-3 3,-5 5,-5l1 0 -1 0 0 0zm-2 76c-9,5 -18,7 -27,7 -9,0 -18,-2 -27,-7 -5,5 -11,7 -17,7 -4,0 -8,-1 -11,-2l0 18 110 0 0 -18c-4,1 -7,2 -12,2 -5,0 -11,-2 -16,-7l0 0 0 0zm17 -36l-14 0c0,0 0,0 0,0 0,0 -1,0 -1,0l-29 0c0,0 0,0 0,0 0,0 -1,0 -1,0l-29 0c0,0 0,0 0,0 -1,0 -1,0 -1,0l-14 0c-6,0 -10,4 -10,10l0 17c4,5 7,6 11,6 4,0 7,-1 12,-6l1 -1 3 -2 4 1c7,6 15,8 24,8 8,0 15,-2 23,-7l1 -1 4 -1 3 2c4,5 9,7 12,7 5,0 8,-1 12,-6l0 -17c0,-6 -5,-10 -11,-10l0 0 0 0zm-44 -60c2,0 4,2 4,6 0,2 -2,4 -4,4 -3,0 -6,-2 -6,-4 0,-4 3,-6 6,-6zm30 10c2,0 4,2 4,5 0,3 -2,5 -4,5 -3,0 -6,-2 -6,-5 0,-3 3,-5 6,-5l0 0zm-60 -10c2,0 5,2 5,6 0,2 -3,4 -5,4 -3,0 -5,-2 -5,-4 0,-4 2,-6 5,-6l0 0z" p-id="4174"/>
  <path class="fil1" d="M12 183c7,0 11,5 11,12 0,6 -4,12 -11,12 -6,0 -12,-6 -12,-12 0,-7 6,-12 12,-12z"/>
 </g>
</svg>
