<?xml version="1.0" encoding="UTF-8"?>
<!DOCTYPE svg PUBLIC "-//W3C//DTD SVG 1.1//EN" "http://www.w3.org/Graphics/SVG/1.1/DTD/svg11.dtd">
<!-- Creator: CorelDRAW X8 -->
<svg xmlns="http://www.w3.org/2000/svg" xml:space="preserve" width="78.8668mm" height="68.1526mm" version="1.1" style="shape-rendering:geometricPrecision; text-rendering:geometricPrecision; image-rendering:optimizeQuality; fill-rule:evenodd; clip-rule:evenodd"
viewBox="0 0 280 242"
 xmlns:xlink="http://www.w3.org/1999/xlink">
 <defs>
  <style type="text/css">
   <![CDATA[
    .fil2 {fill:none}
    .fil0 {fill:#FEFEFE}
    .fil1 {fill:#FEFEFE}
    .fil3 {fill:#FEFEFE;fill-rule:nonzero}
   ]]>
  </style>
 </defs>
 <g id="图层_x0020_1">
  <metadata id="CorelCorpID_0Corel-Layer"/>
  <path class="fil0" d="M13 203c7,0 13,6 13,13 0,7 -6,13 -13,13 -7,0 -13,-6 -13,-13 0,-7 6,-13 13,-13z"/>
  <path class="fil1" d="M158 73l31 31 -41 41 -15 0 0 -48 -32 31 -10 -10 42 -42 0 -7 -42 -42 10 -10 32 31 0 -48 15 0 41 41 -31 32 0 0 0 0 0 0zm-10 11l0 41 20 -21 -20 -20 0 0 0 0zm0 -22l20 -21 -20 -20 0 41 0 0 0 0 0 0z" p-id="31979"/>
  <rect class="fil2" width="280" height="236"/>
  <path class="fil3" d="M43 232l0 -32 0 0 2 0 0 0 8 0c2,0 4,1 5,2 1,2 2,4 2,6 0,3 -1,5 -2,6 0,1 -1,1 -1,1l0 0c1,0 1,1 1,1 2,1 3,4 3,6 0,4 -1,6 -2,8 -2,1 -4,2 -6,2l-8 0 0 0 -2 0zm4 -26l0 7 0 0 5 0c1,0 2,-1 3,-1 0,-1 1,-2 1,-3 0,-1 -1,-2 -1,-3 -1,0 -2,0 -3,0l-5 0zm0 12l0 9 0 0 6 0c1,0 2,-1 2,-1 1,-1 1,-2 1,-4 0,-1 0,-2 -1,-3 0,-1 -1,-1 -2,-1l-6 0zm19 14l0 -32 0 0 2 0 2 0 0 0 0 32 0 0 -2 0 -2 0zm14 -23l0 14c0,2 0,3 0,4 1,0 1,1 2,1 1,0 2,-1 3,-2 0,-1 1,-2 1,-4l0 0 0 -13 0 0 2 0 2 0 0 0 0 23 0 0 -2 0 -2 0 0 0 0 -3 0 0 0 0c0,0 -1,1 -1,1 -1,2 -2,3 -4,3 -2,0 -3,-1 -4,-2 -1,-2 -1,-4 -1,-6l0 -16 0 0 2 0 2 0zm21 24c-2,0 -4,-1 -5,-3 -1,-3 -2,-6 -2,-10 0,-4 1,-7 2,-9 1,-2 3,-3 5,-3 3,0 5,1 6,3 1,2 2,5 2,10 0,0 0,0 0,1l0 0 -11 0 0 0c0,2 0,3 1,4 0,1 1,2 3,2 0,0 1,0 1,-1 1,0 1,-1 1,-2l0 0 5 0 0 0c-1,3 -2,5 -3,6 -1,1 -3,2 -5,2zm3 -15l0 0c0,-1 0,-3 0,-3 -1,-1 -2,-2 -3,-2 -1,0 -2,1 -2,2 0,1 -1,2 -1,3l0 0 6 0zm16 14c0,1 -1,1 -2,1 -2,0 -3,-1 -3,-2 -1,0 -1,-2 -1,-4l0 -14 0 0 -2 0 0 -4 2 0 0 0 0 -7 4 0 0 7 0 0 2 0 0 4 -2 0 0 0 0 13c0,1 0,1 0,2 0,0 1,0 2,0l0 0 0 4zm12 1c-3,0 -5,-1 -6,-3 -2,-3 -2,-6 -2,-9 0,-4 0,-7 2,-10 1,-2 3,-3 6,-3 2,0 4,1 6,3 1,3 2,6 2,10 0,3 -1,6 -2,9 -2,2 -4,3 -6,3zm0 -5c1,0 2,-1 3,-2 0,-1 0,-3 0,-6 0,-2 0,-4 0,-5 -1,-1 -2,-2 -3,-2 -2,0 -2,1 -3,2 -1,1 -1,3 -1,5 0,3 0,5 1,6 1,1 1,2 3,2zm19 5c-2,0 -4,-1 -5,-3 -2,-3 -3,-6 -3,-9 0,-4 1,-7 3,-10 1,-2 3,-3 5,-3 3,0 5,1 6,3 2,3 2,6 2,10 0,3 0,6 -2,9 -1,2 -3,3 -6,3zm0 -5c2,0 3,-1 3,-2 1,-1 1,-3 1,-6 0,-2 0,-4 -1,-5 0,-1 -1,-2 -3,-2 -1,0 -2,1 -2,2 -1,1 -1,3 -1,5 0,3 0,5 1,6 0,1 1,2 2,2zm20 4c-1,1 -1,1 -2,1 -2,0 -3,-1 -4,-2 0,0 0,-2 0,-4l0 -14 0 0 -3 0 0 -4 3 0 0 0 0 -7 4 0 0 7 0 0 2 0 0 4 -2 0 0 0 0 13c0,1 0,1 0,2 0,0 1,0 1,0l1 0 0 4zm4 0l0 -32 0 0 2 0 3 0 0 0 0 12 0 0 0 0 0 -1c1,-2 2,-3 4,-3 2,0 3,1 4,2 1,2 2,4 2,6l0 16 0 0 -2 0 -3 0 0 0 0 -15c0,-1 0,-2 0,-3 -1,-1 -1,-1 -2,-1 -1,0 -2,1 -3,2 0,1 0,2 0,4l0 0 0 13 0 0 -3 0 -2 0zm27 0l0 -32 0 0 2 0 0 0 7 0c2,0 4,1 5,3 2,1 2,4 2,7 0,4 0,6 -2,8 -1,2 -3,3 -5,3 -2,0 -3,0 -5,0l0 0 0 11 0 0 -2 0 -2 0zm4 -17l0 0 4 0c1,0 2,0 3,-1 0,-1 1,-2 1,-4 0,-1 -1,-2 -1,-3 -1,-1 -2,-1 -3,-1l-4 0 0 0 0 9zm21 18c-2,0 -3,-1 -4,-2 -1,-1 -1,-3 -1,-5 0,-2 0,-4 1,-5 1,-1 2,-2 4,-3l2 0c1,0 2,-1 2,-1 0,0 0,0 1,-1 0,0 0,0 0,-1 0,-1 -1,-1 -1,-1 -1,-1 -1,-1 -2,-1 -1,0 -1,0 -2,1 0,0 -1,1 -1,2l0 0 -4 0 0 0c1,-3 1,-5 2,-6 1,-1 3,-2 5,-2 2,0 4,1 5,2 1,1 2,3 2,5l0 13c0,1 0,2 0,2 0,1 0,1 1,1l0 0 0 1 -3 0 -2 0 0 0c0,-1 0,-2 0,-3l0 0c-2,3 -3,4 -5,4zm5 -9l0 -3 0 0c-1,0 -1,1 -2,1l-2 0c0,0 -1,1 -1,1 -1,1 -1,2 -1,2 0,1 0,2 1,3 0,0 0,0 1,0 1,0 2,0 3,-2 0,0 0,0 1,-1 0,0 0,-1 0,-1zm9 8l0 -23 0 0 2 0 2 0 0 0 0 4 0 0 0 0c0,-1 0,-1 0,-2 1,-2 3,-3 4,-3l1 0 0 6c0,0 -1,0 -1,0 -1,0 -2,1 -3,2 -1,1 -1,2 -1,4l0 0 0 12 0 0 -2 0 -2 0zm20 0c0,1 -1,1 -2,1 -2,0 -3,-1 -3,-2 -1,0 -1,-2 -1,-4l0 -14 0 0 -3 0 0 -4 3 0 0 0 0 -7 4 0 0 7 0 0 2 0 0 4 -2 0 0 0 0 13c0,1 0,1 0,2 0,0 1,0 1,0l1 0 0 4zm19 -23l-6 24c-1,4 -2,6 -2,7 -1,1 -2,2 -4,2l-2 0 0 -5c0,0 1,0 1,0 1,0 2,0 2,-1 0,-1 1,-2 1,-3l0 0 -6 -24 0 0 2 0 2 0 0 0 4 17 0 0 0 0 3 -17 0 0 2 0 3 0z"/>
 </g>
</svg>
