<?xml version="1.0" encoding="UTF-8"?>
<!DOCTYPE svg PUBLIC "-//W3C//DTD SVG 1.1//EN" "http://www.w3.org/Graphics/SVG/1.1/DTD/svg11.dtd">
<!-- Creator: CorelDRAW X8 -->
<svg xmlns="http://www.w3.org/2000/svg" xml:space="preserve" width="78.595mm" height="66.8969mm" version="1.1" style="shape-rendering:geometricPrecision; text-rendering:geometricPrecision; image-rendering:optimizeQuality; fill-rule:evenodd; clip-rule:evenodd"
viewBox="0 0 206 175"
 xmlns:xlink="http://www.w3.org/1999/xlink">
 <defs>
  <style type="text/css">
   <![CDATA[
    .fil0 {fill:#FEFEFE}
    .fil1 {fill:#FEFEFE;fill-rule:nonzero}
   ]]>
  </style>
 </defs>
 <g id="图层_x0020_1">
  <metadata id="CorelCorpID_0Corel-Layer"/>
  <path class="fil0" d="M144 83l-5 -13c1,0 3,-1 4,-3 2,-2 2,-5 0,-8l-8 -16c2,-1 4,-2 4,-3 1,-1 1,-3 1,-4l-11 -32c0,-2 -2,-3 -4,-4 -2,0 -4,0 -5,1l-27 20c-1,2 -2,3 -2,5 1,1 1,3 2,4l-17 10 0 0c-2,2 -3,4 -3,7 1,1 1,2 2,4l-11 7 0 0c-2,2 -4,4 -4,7l0 0c0,0 1,1 1,2 1,5 7,11 12,14 3,2 8,5 13,7l-3 8c0,1 0,3 0,4 2,3 5,5 9,6 2,1 5,2 7,2 1,0 3,-1 4,-1 2,-1 2,-3 3,-3l2 -9c6,1 11,2 16,2 1,0 2,0 3,0 7,-1 12,-3 14,-5 3,-3 4,-6 3,-9l0 0zm-12 1c-2,-1 -4,-2 -7,-2 -2,-1 -4,-1 -7,-1 -3,0 -5,0 -8,-1 -2,-1 -5,-3 -7,-5 -2,-1 -3,-2 -5,-3 -2,-1 -4,-2 -6,-3 -3,-1 -6,-2 -8,-4 -2,-2 -3,-5 -4,-9 1,1 2,1 3,2 6,4 13,7 22,10 6,2 12,3 18,4l0 0c3,0 5,0 8,2 2,2 4,4 5,7l2 4c0,0 0,1 0,1 -2,0 -4,-1 -6,-2zm6 -22c0,1 0,1 0,2 -1,1 -4,2 -10,2l0 0c-6,0 -14,-1 -21,-4 -8,-2 -15,-6 -21,-9 -1,-1 -2,-2 -3,-2 2,1 4,2 7,2 1,0 1,0 2,0 3,0 5,0 7,-1 2,0 4,0 6,0 1,0 1,0 2,0l0 3c0,1 1,1 2,1 1,0 1,0 1,-1l0 -3c0,0 1,0 1,0 3,0 6,1 9,0 0,0 1,0 1,0l1 2c0,1 1,1 1,1 0,0 1,0 1,0 0,0 1,-1 1,-1l-1 -4c2,-1 4,-2 5,-3 0,0 1,0 1,0 1,1 2,2 3,4l5 11zm-5 -27c0,0 -1,0 -1,-1 -1,0 -2,-1 -4,-2 -1,0 -3,-1 -5,-1 -2,0 -3,0 -4,-1 -2,-1 -3,-3 -4,-5 0,-1 -1,-2 -1,-3 -1,-1 -2,-2 -2,-3 -1,-1 -2,-2 -2,-2l8 -7c1,-1 3,-1 5,-1 1,1 2,2 3,3l7 23zm-26 -17c1,1 2,2 2,3 1,1 2,2 2,2l0 1 -2 2c-1,0 -1,1 0,2 0,0 1,0 1,0 0,0 1,0 1,0l2 -1c1,2 2,4 4,5 2,2 4,2 6,2 1,0 3,0 4,1 1,0 2,1 3,2 1,0 1,0 1,0 0,0 -1,0 -1,0 -3,0 -7,0 -15,-2 -12,-4 -16,-8 -17,-9l9 -8zm-9 16c4,2 9,5 15,6 3,1 5,2 7,2l1 0c2,1 4,1 6,3 -2,2 -5,3 -8,4 -2,1 -5,0 -8,0 -2,0 -4,0 -6,0 -2,0 -4,0 -6,1 -3,0 -6,1 -9,0 -3,0 -5,-2 -8,-4 -1,0 -2,-1 -3,-1 1,0 1,0 1,0l18 -11zm3 65l-1 2c-1,1 -3,1 -6,0 -3,-1 -4,-3 -5,-3l2 -8c2,1 6,2 6,2 2,1 3,2 4,3 0,1 0,3 0,4zm26 -8c-6,0 -13,-1 -20,-2 -3,-1 -6,-2 -8,-3 -9,-2 -17,-6 -23,-10 -5,-4 -9,-8 -9,-10 -1,-2 0,-3 1,-4l9 -6c1,4 2,8 5,12 1,0 1,1 2,1l-2 3c-1,0 0,1 0,2 0,0 1,0 1,0 1,0 1,0 1,-1l3 -3c1,1 2,2 4,2 2,1 4,2 5,2 1,1 2,1 2,2l-1 3c0,1 0,2 1,2 0,0 0,0 0,0 1,0 1,0 2,-1l1 -3c0,1 0,1 0,1 3,2 5,4 8,5 2,0 5,1 7,1l0 3c0,0 0,1 1,1 1,0 2,-1 2,-1l0 -3c2,0 4,0 6,0 2,1 4,2 6,3 1,0 3,1 5,2 -3,1 -6,1 -9,2z"/>
  <path class="fil0" d="M10 149c5,0 9,5 9,10 0,5 -4,10 -9,10 -6,0 -10,-5 -10,-10 0,-5 4,-10 10,-10z"/>
  <path class="fil1" d="M50 164l0 0c0,3 -1,6 -3,8 -2,2 -4,3 -7,3 -4,0 -6,-1 -8,-4 -2,-3 -3,-7 -3,-12 0,-5 1,-9 3,-12 2,-3 4,-4 8,-4 3,0 5,1 7,3 2,2 3,4 3,8l0 0 -5 0 0 0c0,-2 -1,-3 -2,-4 -1,-1 -2,-2 -3,-2 -2,0 -4,1 -5,3 -1,2 -1,5 -1,8 0,3 0,6 1,8 1,2 3,3 5,3 1,0 2,-1 3,-2 1,-1 2,-3 2,-4l0 0 5 0zm5 10l0 -30 0 0 3 0 2 0 0 0 0 11 0 0 0 0 1 -1c1,-2 2,-3 5,-3 2,0 3,1 4,2 1,2 2,4 2,6l0 15 0 0 -3 0 -2 0 0 0 0 -14c0,-1 0,-2 -1,-3 0,-1 -1,-1 -2,-1 -1,0 -2,1 -3,2 0,0 -1,2 -1,4l0 0 0 12 0 0 -2 0 -3 0zm23 0l0 -22 0 0 2 0 2 0 0 0 0 4 0 0 0 0c1,-1 1,-1 1,-2 1,-2 3,-3 4,-3l1 0 0 6c0,0 -1,0 -1,0 -2,0 -3,1 -3,2 -1,0 -1,2 -1,4l0 0 0 11 0 0 -3 0 -2 0zm15 0l0 -22 0 0 2 0 3 0 0 0 0 22 0 0 -2 0 -3 0zm0 -30l5 0 0 5 -5 0 0 -5zm21 14l0 0c0,0 0,-1 -1,-2 0,0 -1,0 -2,0 -1,0 -1,0 -2,0 0,1 -1,1 -1,2 0,0 1,1 1,1 1,0 2,1 3,1 3,1 5,2 6,3 1,1 2,2 2,4 0,3 -1,4 -3,6 -1,1 -3,2 -5,2 -3,0 -5,-1 -7,-2 -1,-1 -2,-3 -2,-6l0 0 5 0 0 0c0,1 0,2 1,3 1,0 2,0 3,0 1,0 1,0 2,0 1,-1 1,-1 1,-2 0,0 0,-1 -1,-1 -1,-1 -1,-1 -3,-1 -3,-1 -5,-2 -6,-3 -1,-1 -1,-2 -1,-4 0,-3 0,-4 2,-6 1,-1 3,-2 5,-2 2,0 4,1 6,2 1,1 2,3 2,5l0 0 -5 0zm19 16c-1,0 -2,1 -3,1 -2,0 -3,-1 -3,-2 -1,0 -2,-2 -2,-3l0 -14 0 0 -2 0 0 -4 2 0 0 0 0 -6 5 0 0 6 0 0 3 0 0 4 -3 0 0 0 0 13c0,0 0,1 1,1 0,0 0,0 1,0l1 0 0 4zm5 0l0 -22 0 0 2 0 2 0 0 0 0 3 0 0 0 0c1,0 1,-1 1,-1 1,-2 3,-3 5,-3 1,0 3,1 4,2 0,1 0,1 1,2l0 0 0 -1c1,-2 3,-3 4,-3 2,0 4,1 5,2 1,2 2,4 2,6l0 15 0 0 -3 0 -2 0 0 0 0 -13c0,-2 0,-3 -1,-4 0,0 -1,-1 -2,-1 -1,0 -2,0 -2,1 -1,1 -1,2 -1,4l0 0 0 13 0 0 -2 0 -3 0 0 0 0 -14c0,-1 0,-2 0,-3 -1,-1 -1,-1 -2,-1 -1,0 -2,0 -3,1 0,1 0,2 0,4l0 0 0 13 0 0 -3 0 -2 0zm36 1c-2,0 -3,-1 -4,-2 -1,-1 -1,-3 -1,-5 0,-2 0,-3 1,-5 1,-1 2,-2 4,-2l3 0c1,-1 2,-1 2,-1 0,0 0,-1 1,-1 0,0 0,-1 0,-1 0,-1 -1,-1 -1,-2 -1,0 -1,0 -2,0 -1,0 -2,0 -2,1 -1,0 -1,1 -1,2l0 0 -5 0 0 0c0,-3 1,-5 2,-6 2,-1 4,-2 6,-2 2,0 4,1 5,2 2,1 2,3 2,5l0 12c0,1 0,2 1,2 0,1 0,1 0,1l0 0 0 1 -2 0 -3 0 0 0c0,-1 0,-2 0,-2l0 0c-2,2 -4,3 -6,3zm6 -9l0 -3 0 0c-1,1 -2,1 -2,1l-2 1c-1,0 -2,0 -2,1 0,0 -1,1 -1,2 0,1 1,1 1,2 0,0 1,1 2,1 1,0 2,-1 3,-2 0,-1 0,-1 1,-2 0,0 0,-1 0,-1zm21 -8l0 0c0,0 -1,-1 -1,-2 -1,0 -2,0 -3,0 0,0 -1,0 -2,0 0,1 0,1 0,2 0,0 0,1 0,1 1,0 2,1 3,1 3,1 5,2 6,3 1,1 2,2 2,4 0,3 -1,4 -2,6 -2,1 -4,2 -6,2 -3,0 -5,-1 -6,-2 -2,-1 -3,-3 -3,-6l0 0 5 0 0 0c0,1 0,2 1,3 1,0 2,0 3,0 1,0 2,0 2,0 1,-1 1,-1 1,-2 0,0 0,-1 -1,-1 0,-1 -1,-1 -3,-1 -3,-1 -5,-2 -6,-3 -1,-1 -1,-2 -1,-4 0,-3 1,-4 2,-6 1,-1 3,-2 5,-2 3,0 4,1 6,2 1,1 2,3 2,5l0 0 -4 0z"/>
 </g>
</svg>
