<?xml version="1.0" encoding="UTF-8"?>
<!DOCTYPE svg PUBLIC "-//W3C//DTD SVG 1.1//EN" "http://www.w3.org/Graphics/SVG/1.1/DTD/svg11.dtd">
<!-- Creator: CorelDRAW X8 -->
<svg xmlns="http://www.w3.org/2000/svg" xml:space="preserve" width="78.9975mm" height="66.8508mm" version="1.1" style="shape-rendering:geometricPrecision; text-rendering:geometricPrecision; image-rendering:optimizeQuality; fill-rule:evenodd; clip-rule:evenodd"
viewBox="0 0 281 238"
 xmlns:xlink="http://www.w3.org/1999/xlink">
 <defs>
  <style type="text/css">
   <![CDATA[
    .fil3 {fill:none;fill-rule:nonzero}
    .fil2 {fill:#332C2B}
    .fil1 {fill:#FEFEFE}
    .fil0 {fill:#FEFEFE;fill-rule:nonzero}
   ]]>
  </style>
 </defs>
 <g id="图层_x0020_1">
  <metadata id="CorelCorpID_0Corel-Layer"/>
  <path class="fil0" d="M84 237l0 -41 0 0 4 0 0 0 11 0c4,0 8,2 10,5 3,3 4,8 4,15 0,7 -1,12 -4,15 -2,4 -6,6 -11,6l-10 0 0 0 -4 0zm7 -7l0 0 6 0c3,0 5,-1 7,-4 1,-2 2,-5 2,-10 0,-4 -1,-8 -2,-10 -2,-2 -4,-3 -6,-3l-7 0 0 0 0 27zm35 8c-2,0 -4,-1 -5,-3 -2,-1 -2,-3 -2,-6 0,-3 0,-5 1,-7 2,-1 4,-2 6,-3l4 0c1,-1 2,-1 3,-1 0,-1 1,-1 1,-1 0,-1 0,-1 0,-2 0,-1 0,-1 -1,-2 -1,0 -2,-1 -3,-1 -1,0 -2,1 -3,1 -1,1 -1,2 -1,4l0 0 -7 0 0 0c1,-4 2,-7 3,-8 2,-2 5,-3 9,-3 3,0 5,1 7,2 2,2 3,4 3,7l0 17c0,1 0,2 0,2 0,1 0,1 1,2l0 0 0 1 -4 0 -3 0 0 0c0,-1 -1,-3 -1,-4l0 0c-2,3 -5,5 -8,5zm8 -12l0 -4 0 0c-1,1 -2,1 -3,2l-2 0c-1,0 -2,1 -3,2 -1,0 -1,1 -1,2 0,1 0,2 1,3 0,1 1,1 2,1 2,0 4,-1 5,-3 0,0 1,-1 1,-1 0,-1 0,-2 0,-2zm15 11l0 -30 0 0 3 0 3 0 0 0 0 4 0 0 0 0c0,0 1,-1 1,-1 2,-3 4,-4 7,-4 3,0 5,1 6,3 2,2 3,4 3,8l0 20 0 0 -4 0 -3 0 0 0 0 -19c0,-2 0,-3 -1,-4 -1,-1 -2,-1 -3,-1 -2,0 -3,0 -4,2 -1,1 -2,3 -2,5l0 0 0 17 0 0 -3 0 -3 0zm53 -11l0 0c-1,4 -2,6 -4,9 -2,2 -4,3 -7,3 -4,0 -7,-2 -9,-4 -2,-3 -3,-7 -3,-12 0,-5 1,-9 3,-12 2,-3 5,-4 9,-4 3,0 5,1 7,3 3,2 4,5 4,9l0 0 -7 0 0 0c0,-2 0,-3 -1,-4 -1,-1 -2,-1 -3,-1 -2,0 -3,0 -4,2 -1,2 -1,4 -1,7 0,3 0,5 1,7 1,1 2,2 4,2 1,0 2,0 3,-1 0,-1 1,-3 1,-4l0 0 7 0zm17 12c-4,0 -7,-2 -9,-5 -2,-2 -3,-6 -3,-12 0,-4 1,-8 3,-11 2,-3 5,-4 9,-4 4,0 7,1 9,4 2,3 3,7 3,12 0,1 0,1 0,2l0 0 -17 0 0 0c0,2 0,4 1,5 1,2 2,2 4,2 1,0 2,0 3,-1 1,0 2,-1 2,-2l0 0 6 0 0 0c0,3 -1,5 -3,7 -3,2 -5,3 -8,3zm5 -19l0 0c0,-2 -1,-3 -1,-4 -1,-2 -3,-2 -4,-2 -2,0 -3,0 -4,2 -1,1 -1,2 -1,4l0 0 10 0z"/>
  <path class="fil1" d="M192 47c-2,0 -4,2 -4,4l0 20c0,3 0,5 -5,5 -9,0 -11,4 -11,9 0,2 0,9 11,9 11,0 11,-9 11,-12l0 -20c0,-2 2,-4 2,-4 5,0 7,4 14,4 0,0 2,0 2,-2l0 -7c0,-2 -2,-2 -4,-2 -9,0 -7,-4 -16,-4l0 0 0 0zm-91 24c0,0 -1,0 -1,0l-26 -6c-3,-2 -5,-5 -5,-7 2,-4 3,-5 7,-5l22 5 11 -22 0 0c0,-2 2,-3 3,-3l17 -2c1,0 3,2 3,3l20 11 18 -12c4,-2 8,-2 9,0 2,3 2,7 -1,9l-22 14c0,2 -2,2 -2,2l0 0c-2,0 -2,0 -4,-2l-16 -9 2 33c0,0 0,2 0,2l2 21 18 26c2,1 0,5 -2,7 -2,2 -2,2 -4,2 -1,0 -3,-2 -5,-4l-18 -25c0,-2 -2,-2 -2,-4l0 -20 -5 0 -9 24 10 29c2,3 0,7 -3,9 0,0 0,0 -2,0l0 0c-2,0 -4,-2 -5,-4l-11 -32c0,-2 0,-4 0,-4l11 -29c0,0 0,-2 1,-2l-1 -18 -4 9c-2,2 -4,4 -6,4l0 0 0 0zm4 -58c0,7 6,14 13,14 7,0 14,-7 14,-14 0,-8 -7,-13 -14,-13 -7,0 -13,5 -13,13l0 0z" p-id="31802"/>
  <path class="fil2" d="M58 205c7,0 15,7 15,14 0,7 -8,13 -15,13 -7,0 -13,-6 -13,-13 0,-7 6,-14 13,-14z"/>
  <rect class="fil3" width="281" height="237"/>
 </g>
</svg>
