<?xml version="1.0" encoding="UTF-8"?>
<!DOCTYPE svg PUBLIC "-//W3C//DTD SVG 1.1//EN" "http://www.w3.org/Graphics/SVG/1.1/DTD/svg11.dtd">
<!-- Creator: CorelDRAW X8 -->
<svg xmlns="http://www.w3.org/2000/svg" xml:space="preserve" width="78.7784mm" height="66.3681mm" version="1.1" style="shape-rendering:geometricPrecision; text-rendering:geometricPrecision; image-rendering:optimizeQuality; fill-rule:evenodd; clip-rule:evenodd"
viewBox="0 0 279 235"
 xmlns:xlink="http://www.w3.org/1999/xlink">
 <defs>
  <style type="text/css">
   <![CDATA[
    .fil3 {fill:none;fill-rule:nonzero}
    .fil2 {fill:#332C2B}
    .fil1 {fill:#FEFEFE}
    .fil0 {fill:#FEFEFE;fill-rule:nonzero}
   ]]>
  </style>
 </defs>
 <g id="图层_x0020_1">
  <metadata id="CorelCorpID_0Corel-Layer"/>
  <path class="fil0" d="M98 235c-4,0 -8,-2 -11,-5 -2,-4 -4,-9 -4,-15 0,-6 2,-12 4,-15 3,-4 7,-6 12,-6 4,0 7,1 10,4 2,2 4,5 4,9l0 0 -6 0 0 0c-1,-1 -1,-3 -3,-4 -1,-1 -3,-2 -5,-2 -2,0 -5,1 -6,4 -2,2 -3,5 -3,10 0,4 1,8 2,10 2,2 4,3 7,3l0 0c3,0 5,-1 7,-3 0,-2 1,-3 1,-5l0 0 0 0 -7 0 0 -7 13 0 0 21 -4 0 -1 -5 0 0 0 1c-3,3 -6,5 -10,5l0 0zm34 0c-3,0 -6,-1 -8,-4 -3,-3 -4,-6 -4,-11 0,-5 1,-9 4,-11 2,-3 5,-4 8,-4 4,0 7,1 9,4 3,2 4,6 4,11 0,5 -1,8 -4,11 -2,3 -5,4 -9,4zm0 -6c2,0 4,-1 5,-3 1,-1 1,-3 1,-6 0,-3 0,-5 -1,-7 -1,-1 -3,-2 -5,-2 -1,0 -3,1 -4,2 -1,2 -1,4 -1,7 0,3 0,5 1,6 1,2 3,3 4,3zm34 6c-5,0 -8,-2 -11,-5 -3,-4 -4,-9 -4,-15 0,-6 1,-12 4,-15 3,-4 7,-6 12,-6 4,0 7,1 9,4 3,2 4,5 5,9l0 0 -7 0 0 0c0,-1 -1,-3 -2,-4 -2,-1 -3,-2 -5,-2 -3,0 -5,1 -7,4 -2,2 -2,5 -2,10 0,4 0,8 2,10 2,2 4,3 7,3l0 0c3,0 5,-1 6,-3 1,-2 1,-3 2,-5l0 0 0 0 -8 0 0 -7 14 0 0 21 -5 0 0 -5 0 0 -1 1c-2,3 -5,5 -9,5l0 0zm34 0c-4,0 -7,-1 -9,-4 -2,-3 -3,-6 -3,-11 0,-5 1,-9 3,-11 2,-3 5,-4 9,-4 4,0 7,1 9,4 2,2 3,6 3,11 0,5 -1,8 -3,11 -2,3 -5,4 -9,4zm0 -6c2,0 3,-1 4,-3 1,-1 2,-3 2,-6 0,-3 -1,-5 -2,-7 -1,-1 -2,-2 -4,-2 -2,0 -3,1 -4,2 -1,2 -2,4 -2,7 0,3 1,5 2,6 1,2 2,3 4,3z"/>
  <path class="fil1" d="M147 23c2,-2 4,-4 5,-4 2,0 4,0 6,2 2,4 4,6 4,10 2,0 2,2 2,4 2,1 2,3 2,7 0,0 0,0 0,0 2,2 2,6 2,8 0,4 2,6 2,9 0,0 2,0 2,2 3,2 7,4 9,6 4,4 6,8 6,13 0,2 2,6 2,10 0,6 0,11 2,15 2,8 3,14 3,19 0,4 2,6 2,10 0,4 0,8 0,11 2,0 0,2 0,2 -2,0 -3,0 -5,0 0,0 0,-2 0,-2 0,-3 0,-7 0,-11 0,0 0,0 0,0 0,-4 0,-6 -2,-8 0,-2 -2,-3 -2,-7 -2,-2 -2,-6 -2,-8 -2,-2 -2,-4 -2,-6 -2,-4 -2,-7 -4,-9 -2,-6 -4,-10 -4,-14 0,0 0,-2 0,0 -3,0 -5,0 -7,4 -2,4 -4,6 -6,10 -2,4 -4,5 -4,7 -2,2 -2,2 -2,4 0,6 0,12 -2,16 0,1 0,3 -2,3 0,2 0,4 2,6 0,2 0,4 0,6 -2,2 -2,4 -2,6 0,3 -3,5 -7,5 0,0 0,0 0,0 -2,0 -4,0 -4,0 0,-2 0,-4 -2,-4 0,-3 0,-5 -2,-7 0,0 0,2 0,2 0,2 0,4 0,5 0,0 0,0 -2,0 0,0 0,0 0,0 0,-3 0,-7 -2,-11 0,-2 0,-4 2,-4 0,-2 0,-2 0,-2 -2,-5 -4,-9 -6,-15 -1,-2 -1,-6 -1,-10 -6,8 -12,14 -16,23 -4,4 -4,8 -5,12 -2,0 0,0 0,2 -2,0 0,2 -2,2 -2,2 -2,2 -4,2 -2,0 -4,-2 -4,-4 -2,0 0,-2 0,-2 2,-2 2,-4 4,-6 0,0 0,0 0,0 -2,0 -2,0 -2,0 -2,2 -4,2 -4,4 -2,0 -2,0 -2,0 0,0 0,0 0,-2 2,-2 6,-6 8,-8 2,-2 2,-2 4,-2 2,-1 2,-1 3,-3 0,-4 2,-6 4,-10 2,-2 4,-6 6,-8 2,0 0,-2 0,-2 -2,-3 -6,-5 -8,-7 -3,-4 -7,-8 -9,-12 -2,-2 -4,-5 -2,-9 0,-2 2,-4 4,-4 2,-2 4,-2 5,-4 4,0 8,-4 8,-8 0,-1 -2,-1 -2,-1 -2,0 -2,0 -2,-2 0,-4 0,-10 2,-14 0,-2 0,-2 0,-4 0,-1 0,-3 0,-5 0,-2 0,-4 0,-6 2,-2 4,-6 8,-6 2,0 6,2 7,4 2,4 4,8 4,10 0,2 2,2 0,3 0,2 0,4 2,8 0,0 2,0 4,0 2,0 2,0 2,-2 2,-4 0,-7 0,-11 0,-2 0,-4 0,-6 2,-6 0,-13 0,-19 0,-2 2,-2 2,-2 2,0 2,0 2,2 0,2 0,6 0,9 0,2 0,4 2,6 0,2 0,2 0,2l0 0zm-6 105c0,-2 0,-2 0,-2 0,-7 0,-13 0,-21 0,-2 0,-5 0,-7 0,-2 0,-2 0,-4 -2,0 -2,-2 -2,-4 0,0 0,-2 0,0 0,0 -2,0 -2,-2 0,0 0,0 2,0 0,-2 2,-4 2,-6 0,-9 0,-19 0,-28 0,0 0,-2 0,-2 -2,0 -4,0 -8,0 2,2 4,5 0,7 -2,2 -2,4 -4,6 0,2 0,2 -1,4 -2,2 -4,4 -8,8 -2,2 -2,2 0,3 6,4 9,8 13,12 2,2 4,4 4,8 0,5 2,11 2,17 0,4 2,7 2,11l0 0zm4 10c4,-8 2,-15 4,-23 0,-6 0,-12 2,-15 1,-8 3,-14 7,-21 0,0 0,-2 -2,-4 -2,4 -5,7 -9,9 0,2 0,2 0,4 0,2 0,6 -2,10 0,0 0,0 0,0 0,13 0,26 0,38 0,2 0,2 0,2l0 0zm0 -81c0,8 0,16 0,22 2,0 2,0 2,-2 2,-2 2,-4 4,-6 1,-2 1,-2 0,-4 0,0 0,0 -2,0 -2,-4 -2,-6 -4,-10z"/>
  <path class="fil2" d="M57 202c7,0 13,6 13,13 0,8 -6,14 -13,14 -6,0 -12,-6 -12,-14 0,-7 6,-13 12,-13z"/>
  <rect class="fil3" width="279" height="235"/>
 </g>
</svg>
