<?xml version="1.0" encoding="UTF-8"?>
<!DOCTYPE svg PUBLIC "-//W3C//DTD SVG 1.1//EN" "http://www.w3.org/Graphics/SVG/1.1/DTD/svg11.dtd">
<!-- Creator: CorelDRAW X8 -->
<svg xmlns="http://www.w3.org/2000/svg" xml:space="preserve" width="79.0231mm" height="69.9753mm" version="1.1" style="shape-rendering:geometricPrecision; text-rendering:geometricPrecision; image-rendering:optimizeQuality; fill-rule:evenodd; clip-rule:evenodd"
viewBox="0 0 1099 973"
 xmlns:xlink="http://www.w3.org/1999/xlink"
 t="1651556559555"
 p-id="11866">
 <defs>
  <style type="text/css">
   <![CDATA[
    .fil0 {fill:#FEFEFE}
    .fil1 {fill:#FEFEFE;fill-rule:nonzero}
   ]]>
  </style>
 </defs>
 <g id="图层_x0020_1">
  <metadata id="CorelCorpID_0Corel-Layer"/>
  <path class="fil0" d="M51 795c28,0 51,23 51,51 0,28 -23,50 -51,50 -28,0 -51,-22 -51,-50 0,-28 23,-51 51,-51z"/>
  <g id="_2789597311520">
   <path class="fil0" d="M595 116c-4,-17 -16,-31 -32,-37l0 -49 43 0c8,0 15,-7 15,-15 0,-8 -7,-15 -15,-15l-121 0c-8,0 -15,7 -15,15 0,8 7,15 15,15l48 0 0 47c-19,5 -34,21 -37,40 -78,23 -136,95 -136,181 0,99 77,180 174,187 4,1 9,1 13,1 0,0 0,0 0,0 1,0 1,0 1,0 1,0 2,0 4,0 2,0 4,-1 6,-1 99,-6 178,-87 178,-187 0,-88 -60,-161 -141,-182l0 0zm-205 182c0,-12 2,-23 4,-34l60 0c0,10 -1,20 -1,31 0,12 1,25 2,37l-61 0c-2,-11 -4,-23 -4,-34zm93 -3c0,-11 1,-21 2,-31l48 0 0 68 -48 0c-1,-12 -2,-24 -2,-37l0 0zm80 -148c18,12 34,43 42,87l-42 0 0 -87zm-30 -2l0 89 -44 0c8,-46 25,-78 44,-89zm0 217l0 90c-18,-12 -35,-44 -44,-90l44 0zm30 88l0 -88 41 0c-8,44 -24,75 -41,88l0 0zm0 -118l0 -68 46 0c1,10 1,20 1,31 0,13 -1,25 -2,37l-45 0 0 0zm76 -68l63 0c2,11 4,22 4,34 0,11 -2,23 -4,34l-63 0c1,-12 1,-25 1,-37 0,-11 0,-21 -1,-31zm53 -30l-56 0c-6,-33 -15,-61 -28,-82 37,15 67,45 84,82zm-207 -81c-12,21 -22,48 -27,81l-54 0c16,-36 45,-65 81,-81l0 0zm-81 209l55 0c5,32 15,59 27,80 -36,-15 -66,-44 -82,-80zm203 82c13,-21 22,-50 28,-82l57 0c-17,37 -47,66 -85,82l0 0zm-284 -172l-40 0c-8,0 -15,6 -15,15 0,8 7,15 15,15l40 0c9,0 15,-7 15,-15 0,-9 -6,-15 -15,-15zm493 0l-40 0c-8,0 -15,6 -15,15 0,8 7,15 15,15l40 0c9,0 15,-7 15,-15 0,-9 -6,-15 -15,-15z" p-id="11867"/>
   <path class="fil0" d="M379 436l-28 29c-6,5 -6,15 0,21 2,3 6,4 10,4 0,0 0,0 0,0 4,0 8,-1 11,-4l28 -29c6,-5 6,-15 0,-21 -6,-6 -15,-6 -21,0l0 0zm349 -348l-29 28c-6,6 -6,15 0,21 3,3 7,5 11,5 0,0 0,0 0,0 4,0 7,-2 10,-5l29 -28c6,-6 6,-16 0,-21 -6,-6 -16,-6 -21,0l0 0zm-349 49c3,3 7,5 11,5 4,0 7,-2 10,-5 6,-6 6,-15 0,-21l-28 -28c-6,-6 -16,-6 -21,0 -6,5 -6,15 0,21l28 28 0 0zm341 299c-5,-6 -15,-6 -21,0 -6,6 -6,16 0,21l29 29c2,3 6,4 10,4 0,0 0,0 0,0 4,0 8,-1 11,-4 6,-6 6,-16 0,-21l-29 -29zm-170 62c-9,0 -15,7 -15,15l0 40c0,9 6,15 15,15 8,0 15,-6 15,-15l0 -40c0,-8 -7,-15 -15,-15z" p-id="11868"/>
  </g>
  <path class="fil1" d="M153 925l0 -162 0 0 12 0 0 0 38 0c16,0 28,6 36,20 8,13 13,32 13,57 0,28 -5,49 -13,63 -9,15 -22,22 -38,22l-36 0 0 0 -12 0zm24 -28l0 0 21 0c10,0 17,-5 22,-14 5,-9 7,-23 7,-42 0,-17 -2,-29 -7,-38 -4,-8 -11,-12 -20,-12l-23 0 0 0 0 106zm101 28l0 -120 0 0 11 0 11 0 0 0 0 120 0 0 -11 0 -11 0zm-1 -163l24 0 0 29 -24 0 0 -29zm102 79l0 0c0,-5 -1,-8 -4,-11 -3,-3 -6,-4 -11,-4 -4,0 -7,1 -10,3 -2,2 -4,5 -4,9 0,2 2,4 5,6 2,2 7,4 14,6 14,5 23,10 28,15 5,5 7,13 7,24 0,12 -3,21 -10,28 -7,7 -16,11 -27,11 -13,0 -23,-4 -31,-11 -7,-7 -10,-17 -11,-31l0 0 23 0 0 0c0,6 2,10 5,14 4,3 8,4 14,4 5,0 8,-1 11,-3 2,-2 3,-5 3,-9 0,-3 -1,-5 -3,-7 -3,-2 -7,-4 -13,-6 -15,-4 -25,-9 -29,-14 -5,-5 -8,-13 -8,-23 0,-12 3,-22 10,-29 6,-7 14,-11 25,-11 11,0 21,4 28,11 7,7 11,16 11,28l0 0 -23 0zm125 40l0 0c-1,14 -5,26 -12,34 -7,9 -16,13 -27,13 -13,0 -23,-5 -30,-16 -7,-11 -10,-26 -10,-46 0,-20 3,-35 11,-47 7,-11 17,-17 29,-17 11,0 20,4 27,13 8,8 11,19 12,33l0 0 -23 0 0 0c-1,-6 -2,-10 -5,-14 -3,-4 -6,-6 -11,-6 -5,0 -10,3 -13,10 -3,6 -4,15 -4,28 0,11 1,21 4,27 3,6 8,9 13,9 4,0 8,-2 11,-6 3,-4 4,-9 5,-15l0 0 23 0zm63 47c-13,0 -24,-6 -32,-17 -8,-11 -12,-26 -12,-45 0,-20 4,-35 12,-47 8,-11 19,-17 32,-17 14,0 24,6 32,17 8,12 12,27 12,47 0,19 -4,34 -12,45 -8,11 -18,17 -32,17zm0 -26c7,0 12,-4 16,-10 3,-6 5,-15 5,-27 0,-12 -2,-21 -5,-27 -4,-7 -9,-10 -16,-10 -6,0 -12,3 -15,10 -4,6 -5,15 -5,27 0,12 1,21 5,27 3,6 9,10 15,10zm107 23l0 -162 0 0 12 0 0 0 36 0c13,0 24,4 30,13 7,9 11,21 11,38 0,17 -4,30 -11,39 -6,10 -17,14 -30,14 -9,0 -17,0 -24,0l0 0 0 58 0 0 -12 0 -12 0zm24 -86l0 0 20 0c7,0 12,-2 15,-6 4,-4 6,-11 6,-19 0,-8 -2,-13 -6,-17 -3,-4 -8,-6 -15,-6l-20 0 0 0 0 48zm111 89c-8,0 -14,-3 -19,-10 -5,-6 -7,-14 -7,-25 0,-11 2,-19 6,-26 5,-6 11,-11 19,-12l15 -3c4,-1 8,-2 10,-4 1,-1 2,-2 3,-4 0,-2 0,-4 0,-6 0,-3 -1,-6 -3,-8 -3,-2 -7,-3 -11,-3 -5,0 -8,1 -11,4 -2,3 -3,7 -3,13l0 0 -22 0 0 0c0,-14 4,-25 10,-32 7,-7 16,-10 28,-10 11,0 19,3 25,9 7,7 10,15 10,26l0 67c0,5 0,9 1,11 0,2 1,4 3,5l0 0 0 5 -12 0 -12 0 0 0c-1,-5 -2,-10 -2,-14l0 -1c-7,12 -16,18 -28,18zm27 -47l0 -14 0 0c-2,2 -6,4 -10,5l-8 2c-4,1 -7,3 -9,6 -2,2 -3,6 -3,10 0,5 1,9 2,11 2,3 5,4 8,4 7,0 13,-3 18,-10 0,-2 1,-4 2,-6 0,-3 0,-6 0,-8zm51 44l0 -120 0 0 11 0 11 0 0 0 0 22 0 0 0 0c1,-3 2,-5 3,-7 5,-12 12,-18 20,-18l5 0 0 32c-2,0 -4,0 -7,0 -6,0 -12,2 -15,7 -3,5 -5,12 -5,22l0 0 0 62 0 0 -11 0 -12 0zm112 0c-4,1 -9,1 -14,1 -8,0 -14,-2 -17,-6 -4,-4 -6,-10 -6,-20l0 -73 0 0 -12 0 0 -22 12 0 0 0 0 -32 23 0 0 32 0 0 14 0 0 22 -14 0 0 0 0 68c0,3 1,5 2,6 1,1 3,1 7,1l5 0 0 23zm100 -120l-31 122c-5,20 -9,33 -13,38 -3,5 -10,8 -19,8l-10 0 0 -26c0,1 2,1 4,1 6,0 10,-2 12,-5 1,-3 2,-7 3,-14l0 0 -32 -124 0 0 13 0 12 0 0 0 19 89 0 0 0 0 18 -89 0 0 12 0 12 0z"/>
 </g>
</svg>
