<?xml version="1.0" encoding="UTF-8"?>
<!DOCTYPE svg PUBLIC "-//W3C//DTD SVG 1.1//EN" "http://www.w3.org/Graphics/SVG/1.1/DTD/svg11.dtd">
<!-- Creator: CorelDRAW X8 -->
<svg xmlns="http://www.w3.org/2000/svg" xml:space="preserve" width="78.9677mm" height="70.1877mm" version="1.1" style="shape-rendering:geometricPrecision; text-rendering:geometricPrecision; image-rendering:optimizeQuality; fill-rule:evenodd; clip-rule:evenodd"
viewBox="0 0 1903 1692"
 xmlns:xlink="http://www.w3.org/1999/xlink">
 <defs>
  <style type="text/css">
   <![CDATA[
    .fil2 {fill:none}
    .fil0 {fill:#FEFEFE}
    .fil1 {fill:#FEFEFE;fill-rule:nonzero}
   ]]>
  </style>
 </defs>
 <g id="图层_x0020_1">
  <metadata id="CorelCorpID_0Corel-Layer"/>
  <path class="fil0" d="M988 806l112 -326 202 34c25,-173 -76,-344 -247,-402 -193,-66 -404,37 -470,231 -65,193 38,404 232,470 18,6 37,11 56,14 22,-19 54,-29 89,-26 9,1 18,3 26,5zm122 -644l-94 152 -37 -13 29 -174c46,-6 102,35 102,35zm-218 430c-72,-24 -111,-102 -86,-174 24,-72 102,-111 174,-86 72,24 111,102 86,174 -24,72 -102,111 -174,86zm78 -229c-55,-19 -115,11 -133,65 -19,55 10,115 65,133 55,19 115,-10 133,-65 19,-55 -11,-115 -65,-133zm-58 170c-39,-13 -60,-56 -47,-95 13,-39 56,-60 95,-47 39,14 60,56 47,95 -14,39 -56,60 -95,47zm-70 351c-1,10 0,20 2,30 -19,-4 -38,-9 -57,-16 -240,-81 -369,-344 -287,-584 81,-241 344,-370 584,-288 214,72 340,287 308,503l-45 -8c28,-194 -85,-387 -277,-452 -217,-74 -454,42 -527,259 -74,217 42,454 259,527 15,5 29,9 44,13 -2,5 -3,10 -4,16zm586 -316l-128 378c-11,31 -43,48 -82,45 -44,-4 -77,-33 -74,-67 3,-33 40,-57 84,-53 19,1 37,8 50,18l77 -227 -217 -33 -97 284 0 0c-10,26 -43,44 -81,41 -43,-3 -78,-36 -72,-66 2,-33 39,-57 82,-53 20,2 37,8 50,19l114 -336 294 50z" p-id="27182"/>
  <path class="fil0" d="M239 1380c49,0 89,40 89,90 0,49 -40,89 -89,89 -49,0 -89,-40 -89,-89 0,-50 40,-90 89,-90z"/>
  <path class="fil1" d="M423 1608l0 -280 0 0 24 0 0 0 76 0c32,0 56,11 72,34 17,22 25,55 25,99 0,48 -8,85 -26,110 -17,25 -42,37 -75,37l-72 0 0 0 -24 0zm49 -48l0 0 41 0c19,0 34,-8 44,-24 10,-16 15,-40 15,-73 0,-29 -5,-50 -14,-65 -9,-15 -23,-22 -41,-22l-45 0 0 0 0 184zm287 -232l0 0 24 0 24 0 0 0 0 202c0,28 -6,50 -19,64 -12,15 -31,22 -56,22 -26,0 -45,-8 -57,-24 -13,-16 -18,-41 -18,-74l0 -17 47 0 0 17c-1,17 1,30 6,38 5,8 12,12 22,12 10,0 16,-3 21,-9 4,-6 6,-16 6,-29l0 0 0 -202zm186 280l0 -280 0 0 24 0 0 0 73 0c27,0 47,7 61,22 13,15 20,37 20,66 0,30 -7,53 -20,69 -14,15 -34,23 -61,23 -19,0 -35,0 -48,1l0 0 0 99 0 0 -25 0 -24 0zm49 -148l0 0 40 0c14,0 24,-4 31,-11 6,-7 10,-18 10,-33 0,-13 -4,-23 -10,-30 -7,-6 -17,-10 -31,-10l-40 0 0 0 0 84zm223 154c-16,0 -29,-6 -39,-17 -9,-11 -14,-25 -14,-43 0,-19 4,-34 13,-46 9,-11 21,-18 38,-21l30 -5c8,-1 14,-3 19,-7 3,-1 4,-3 5,-6 2,-4 2,-7 2,-11 -1,-5 -3,-10 -8,-13 -5,-4 -12,-6 -22,-6 -8,0 -15,2 -20,7 -5,5 -7,13 -8,22l0 0 -43 0 0 0c1,-24 8,-42 20,-55 13,-12 32,-18 56,-18 22,0 39,6 51,17 12,11 18,25 18,44l0 116c0,10 1,16 2,20 2,4 4,7 8,9l0 0 0 7 -25 0 -24 0 0 0c-2,-8 -3,-17 -4,-24l0 -1c-14,21 -33,31 -55,31zm54 -82l0 -24 0 0c-5,3 -12,6 -21,8l-17 4c-7,2 -13,5 -18,10 -4,5 -6,11 -6,18 0,8 2,15 6,20 4,4 9,7 15,7 15,0 26,-6 35,-19 2,-2 3,-6 4,-11 2,-4 2,-9 2,-13zm102 76l0 -207 0 0 22 0 21 0 0 0 0 37 0 0 0 0c2,-4 3,-8 6,-12 10,-20 24,-31 41,-31l10 1 0 56c-4,-1 -8,-1 -14,-1 -13,0 -24,4 -30,12 -7,8 -11,21 -11,38l0 0 0 107 0 0 -22 0 -23 0zm223 1c-7,1 -17,2 -28,2 -16,0 -27,-4 -34,-11 -7,-7 -11,-18 -11,-34l0 -127 0 0 -23 0 0 -38 23 0 0 0 0 -56 46 0 0 56 0 0 27 0 0 38 -27 0 0 0 0 118c0,5 1,8 3,10 3,1 8,2 15,2l9 0 0 40zm201 -208l-62 212c-10,35 -18,56 -25,65 -8,9 -20,14 -38,14l-22 -1 0 -44c1,1 4,1 9,1 12,0 20,-3 24,-9 2,-4 4,-12 6,-24l0 0 -64 -214 0 0 25 0 25 0 0 0 38 154 0 0 0 0 36 -154 0 0 24 0 24 0z"/>
  <rect class="fil2" width="1903" height="1606"/>
 </g>
</svg>
