<?xml version="1.0" encoding="UTF-8"?>
<!DOCTYPE svg PUBLIC "-//W3C//DTD SVG 1.1//EN" "http://www.w3.org/Graphics/SVG/1.1/DTD/svg11.dtd">
<!-- Creator: CorelDRAW X8 -->
<svg xmlns="http://www.w3.org/2000/svg" xml:space="preserve" width="78.9086mm" height="66.6905mm" version="1.1" style="shape-rendering:geometricPrecision; text-rendering:geometricPrecision; image-rendering:optimizeQuality; fill-rule:evenodd; clip-rule:evenodd"
viewBox="0 0 280 237"
 xmlns:xlink="http://www.w3.org/1999/xlink">
 <defs>
  <style type="text/css">
   <![CDATA[
    .fil3 {fill:none;fill-rule:nonzero}
    .fil2 {fill:#332C2B}
    .fil1 {fill:#FEFEFE}
    .fil0 {fill:#FEFEFE;fill-rule:nonzero}
   ]]>
  </style>
 </defs>
 <g id="图层_x0020_1">
  <metadata id="CorelCorpID_0Corel-Layer"/>
  <path class="fil0" d="M54 203l0 0 3 0 3 0 0 0 6 24 0 0 0 0 5 -24 0 0 3 0 3 0 0 0 -9 32 -3 0 -2 0 -9 -32zm36 32c-3,0 -5,-1 -7,-3 -2,-2 -2,-5 -2,-9 0,-4 0,-7 2,-9 2,-2 4,-3 7,-3 3,0 5,1 7,3 1,2 2,5 2,9 0,1 0,1 0,2l0 0 -13 0 0 0c0,1 0,3 1,4 0,1 2,1 3,1 1,0 2,0 2,0 1,-1 2,-2 2,-2l0 0 5 0 0 0c-1,2 -2,4 -3,5 -2,2 -4,2 -6,2zm4 -14l0 0c0,-2 -1,-3 -1,-4 -1,-1 -2,-1 -3,-1 -2,0 -3,0 -3,2 -1,0 -1,1 -1,3l0 0 8 0zm11 14l0 -24 0 0 2 0 2 0 0 0 0 4 0 0 0 0c1,-1 1,-1 1,-1 1,-2 3,-3 6,-3 2,0 3,0 4,2 2,1 2,3 2,6l0 16 0 0 -2 0 -3 0 0 0 0 -15c0,-1 0,-2 -1,-3 0,-1 -1,-1 -2,-1 -1,0 -2,0 -3,1 -1,1 -1,3 -1,5l0 0 0 13 0 0 -3 0 -2 0zm33 0c-1,0 -2,0 -3,0 -2,0 -3,0 -4,-1 -1,-1 -1,-2 -1,-4l0 -14 0 0 -3 0 0 -5 3 0 0 0 0 -6 5 0 0 6 0 0 3 0 0 5 -3 0 0 0 0 13c0,1 0,1 0,1 1,0 1,0 2,0l1 0 0 5zm5 0l0 -24 0 0 3 0 3 0 0 0 0 24 0 0 -3 0 -3 0zm0 -32l6 0 0 6 -6 0 0 -6zm13 32l0 -32 0 0 2 0 3 0 0 0 0 32 0 0 -3 0 -2 0zm16 0c-1,0 -3,0 -4,-1 -1,-2 -2,-3 -2,-5 0,-3 1,-4 2,-6 1,-1 2,-2 4,-2l4 -1c0,0 1,0 2,0 0,0 0,-1 0,-1 1,0 1,-1 1,-1 -1,-1 -1,-1 -1,-2 -1,0 -2,0 -3,0 -1,0 -2,0 -2,0 -1,1 -1,2 -1,3l0 0 -5 0 0 0c0,-3 1,-5 2,-6 2,-2 4,-2 7,-2 2,0 4,0 6,2 1,1 2,2 2,5l0 13c0,1 0,1 0,2 0,0 0,1 1,1l0 0 0 1 -3 0 -3 0 0 0c0,-1 0,-2 0,-3l0 0c-2,2 -4,3 -7,3zm7 -9l0 -3 0 0c-1,1 -2,1 -3,1l-2 1c-1,0 -1,0 -2,1 0,0 0,1 0,2 0,1 0,2 0,2 1,1 1,1 2,1 2,0 3,-1 4,-2 0,0 0,-1 0,-1 1,-1 1,-1 1,-2zm20 9c-1,0 -2,0 -3,0 -2,0 -3,0 -4,-1 -1,-1 -1,-2 -1,-4l0 -14 0 0 -3 0 0 -5 3 0 0 0 0 -6 5 0 0 6 0 0 3 0 0 5 -3 0 0 0 0 13c0,1 0,1 0,1 1,0 1,0 2,0l1 0 0 5zm6 0l0 -24 0 0 2 0 3 0 0 0 0 24 0 0 -3 0 -2 0zm0 -32l5 0 0 6 -5 0 0 -6zm20 32c-3,0 -5,-1 -7,-3 -2,-2 -2,-5 -2,-9 0,-4 0,-7 2,-9 2,-2 4,-3 7,-3 4,0 6,1 8,3 2,2 2,5 2,9 0,4 0,7 -2,9 -2,2 -4,3 -8,3zm0 -5c2,0 3,0 4,-2 1,-1 1,-3 1,-5 0,-2 0,-4 -1,-5 -1,-2 -2,-2 -4,-2 -1,0 -2,0 -3,2 -1,1 -1,3 -1,5 0,2 0,4 1,5 1,2 2,2 3,2zm16 5l0 -24 0 0 3 0 2 0 0 0 0 4 0 0 0 0c0,-1 0,-1 1,-1 1,-2 3,-3 5,-3 2,0 4,0 5,2 1,1 2,3 2,6l0 16 0 0 -3 0 -2 0 0 0 0 -15c0,-1 -1,-2 -1,-3 -1,-1 -2,-1 -3,-1 -1,0 -2,0 -3,1 0,1 -1,3 -1,5l0 0 0 13 0 0 -2 0 -3 0z"/>
  <g id="_2314085628560">
   <path class="fil1" d="M208 51c-1,-6 -3,-12 -7,-19 -4,-6 -8,-10 -14,-13 -14,-7 -27,-6 -38,6 -3,4 -6,8 -8,14 -3,5 -4,11 -4,16 0,0 -1,1 -1,1 -1,0 -2,-1 -2,-1 -2,-4 -2,-6 -2,-10 0,-4 1,-9 3,-13 5,-8 4,-16 -1,-22 -5,-7 -12,-10 -20,-9 -7,1 -14,3 -20,7 -6,5 -11,8 -13,14 -8,14 -5,28 7,38 3,3 8,6 12,9 6,2 11,4 17,4 1,0 1,0 1,1 0,1 0,2 -1,2 -8,3 -16,2 -22,-2l-1 0c-8,-5 -15,-4 -23,1 -6,5 -9,12 -8,21 1,6 4,12 8,19 3,6 8,11 13,13 15,8 27,6 38,-6 4,-4 6,-8 9,-13 3,-5 5,-11 5,-16 0,-1 0,-2 1,-2 0,0 0,1 1,2 3,8 2,15 -1,22 -5,9 -5,16 0,23 6,6 12,9 20,8 8,-1 14,-3 20,-7 7,-4 11,-8 14,-13 7,-15 5,-28 -7,-38 -3,-4 -8,-7 -12,-9 -7,-3 -12,-4 -17,-5 0,0 -1,0 -1,-1 0,0 1,-1 1,-1 3,-2 7,-2 10,-2 4,0 9,1 12,3 8,5 17,5 24,-1 5,-5 8,-12 7,-21l0 0 0 0zm-24 -28c6,2 10,7 13,12 4,6 6,11 6,17 1,7 -1,12 -6,16 -5,4 -12,4 -18,1 -4,-3 -9,-4 -14,-4 -4,0 -9,1 -12,2 -3,1 -5,3 -5,6 0,4 3,6 7,6 4,0 10,1 14,4 5,2 8,5 12,7 10,9 12,20 5,33 -2,4 -6,8 -11,12 -6,3 -11,5 -18,6 -6,1 -11,-1 -16,-6 -4,-6 -4,-12 0,-19l0 1c5,-8 5,-17 2,-27 -2,-2 -4,-4 -6,-4 -4,0 -6,2 -6,6 -1,5 -2,10 -4,15 -2,4 -5,8 -8,11 -9,10 -19,12 -32,6 -5,-3 -8,-7 -12,-12 -4,-5 -5,-11 -6,-17 -1,-7 1,-12 6,-16 6,-4 11,-4 17,-1 9,5 17,5 26,2 4,-1 5,-3 5,-7 0,-3 -2,-5 -6,-5 -5,0 -9,-1 -15,-4 -3,-2 -8,-4 -12,-7 -9,-10 -11,-20 -5,-33 3,-4 6,-8 12,-11 5,-4 12,-6 18,-7 6,-1 11,1 15,7 4,5 4,10 0,18 -2,3 -3,9 -3,14 0,4 1,8 1,12 2,3 4,4 8,4 3,0 5,-1 5,-6 0,-5 2,-10 4,-14 2,-5 4,-9 7,-12 10,-10 21,-12 32,-6l0 0 0 0zm-38 51c0,-3 -2,-5 -3,-7 -3,-2 -5,-3 -7,-3 -3,0 -5,1 -8,3 -1,2 -2,4 -2,7 0,3 1,5 2,6 3,2 5,3 8,3 2,0 4,-1 6,-3l1 0c2,-1 3,-4 3,-6l0 0 0 0zm-7 -4c1,1 1,2 1,4 0,1 0,2 -1,3 -1,1 -2,2 -3,2 -1,0 -3,-1 -4,-2 -1,-1 -1,-2 -1,-3 0,-2 0,-3 1,-4 1,-1 2,-1 4,-1 1,0 2,0 3,1z" p-id="3927"/>
  </g>
  <path class="fil2" d="M22 204c7,0 13,6 13,14 0,7 -6,12 -13,12 -7,0 -13,-5 -13,-12 0,-8 6,-14 13,-14z"/>
  <rect class="fil3" width="280" height="237"/>
 </g>
</svg>
