<?xml version="1.0" encoding="UTF-8"?>
<!DOCTYPE svg PUBLIC "-//W3C//DTD SVG 1.1//EN" "http://www.w3.org/Graphics/SVG/1.1/DTD/svg11.dtd">
<!-- Creator: CorelDRAW X8 -->
<svg xmlns="http://www.w3.org/2000/svg" xml:space="preserve" width="78.9677mm" height="70.2498mm" version="1.1" style="shape-rendering:geometricPrecision; text-rendering:geometricPrecision; image-rendering:optimizeQuality; fill-rule:evenodd; clip-rule:evenodd"
viewBox="0 0 248 221"
 xmlns:xlink="http://www.w3.org/1999/xlink">
 <defs>
  <style type="text/css">
   <![CDATA[
    .str0 {stroke:white;stroke-width:0.314616;stroke-linecap:round;stroke-linejoin:round}
    .fil1 {fill:none}
    .fil0 {fill:#FEFEFE}
    .fil2 {fill:#332C2B}
    .fil3 {fill:#FEFEFE;fill-rule:nonzero}
   ]]>
  </style>
 </defs>
 <g id="图层_x0020_1">
  <metadata id="CorelCorpID_0Corel-Layer"/>
  <g>
   <path class="fil0" d="M87 20l0 0 0 0zm154 94c0,0 -7,5 -20,5 -11,0 -16,-4 -22,-7 -7,-4 -14,-8 -28,-8 -25,0 -36,15 -37,16 -1,1 -1,3 1,4 1,1 3,1 4,-1 0,0 10,-13 32,-13 12,0 18,4 25,7 6,4 12,8 25,8 15,0 23,-6 23,-6 2,-1 2,-3 1,-4 -1,-2 -3,-2 -4,-1zm-45 -64c7,6 12,14 12,24 0,8 -3,16 -9,21 -1,2 -1,4 0,5 0,0 1,0 2,0 1,0 1,0 2,0 7,-7 11,-16 11,-26 0,-9 -3,-17 -9,-24 -7,-7 -16,-12 -27,-12 -2,0 -4,0 -5,1 -3,-12 -10,-22 -19,-29 -8,-6 -18,-10 -29,-10 -11,0 -20,3 -29,9 -1,1 -1,3 0,4 1,1 2,2 4,1 7,-5 16,-8 25,-8l0 0c11,0 22,4 29,12 7,6 12,15 13,25 0,0 1,1 2,2 0,0 1,0 2,0 3,-1 5,-1 7,-1 7,0 13,2 18,6zm-59 25c0,0 0,0 0,0 1,1 2,1 3,1 0,0 1,0 2,0 11,0 20,6 23,16 1,1 2,2 4,2 1,-1 2,-2 2,-4 -3,-6 -7,-12 -12,-15l0 0 0 0c-5,-3 -11,-5 -17,-5l0 -1c0,-27 -22,-49 -49,-49 -2,0 -4,0 -6,0l0 0c-20,3 -37,18 -42,38 -2,0 -4,0 -5,0 -13,0 -24,7 -31,17l0 0 0 0c-3,5 -5,12 -5,19 0,19 16,35 36,35l0 0 47 0 34 0c0,0 0,0 0,0 2,0 3,-1 3,-3 0,-1 -1,-2 -3,-2l-34 0 -47 0 0 0c-17,0 -30,-14 -30,-30 0,-8 2,-14 7,-19l0 0 0 0c5,-7 13,-11 23,-11 2,0 4,0 7,1l0 0c1,0 1,0 2,-1 1,0 1,-1 1,-2 3,-19 19,-33 37,-36 2,0 4,0 6,0l0 0c24,0 44,19 44,43 0,1 0,3 -1,4 0,0 1,1 1,2l0 0z"/>
   <path id="1" class="fil1 str0" d="M87 20l0 0m154 94c0,0 -7,5 -20,5 -11,0 -16,-4 -22,-7 -7,-4 -14,-8 -28,-8 -25,0 -36,15 -37,16 -1,1 -1,3 1,4 1,1 3,1 4,-1 0,0 10,-13 32,-13 12,0 18,4 25,7 6,4 12,8 25,8 15,0 23,-6 23,-6 2,-1 2,-3 1,-4 -1,-2 -3,-2 -4,-1zm-45 -64c7,6 12,14 12,24 0,8 -3,16 -9,21 -1,2 -1,4 0,5 0,0 1,0 2,0 1,0 1,0 2,0 7,-7 11,-16 11,-26 0,-9 -3,-17 -9,-24 -7,-7 -16,-12 -27,-12 -2,0 -4,0 -5,1 -3,-12 -10,-22 -19,-29 -8,-6 -18,-10 -29,-10 -11,0 -20,3 -29,9 -1,1 -1,3 0,4 1,1 2,2 4,1 7,-5 16,-8 25,-8l0 0c11,0 22,4 29,12 7,6 12,15 13,25 0,0 1,1 2,2 0,0 1,0 2,0 3,-1 5,-1 7,-1 7,0 13,2 18,6zm-59 25c0,0 0,0 0,0 1,1 2,1 3,1 0,0 1,0 2,0 11,0 20,6 23,16 1,1 2,2 4,2 1,-1 2,-2 2,-4 -3,-6 -7,-12 -12,-15l0 0 0 0c-5,-3 -11,-5 -17,-5l0 -1c0,-27 -22,-49 -49,-49 -2,0 -4,0 -6,0l0 0c-20,3 -37,18 -42,38 -2,0 -4,0 -5,0 -13,0 -24,7 -31,17l0 0 0 0c-3,5 -5,12 -5,19 0,19 16,35 36,35l0 0 47 0 34 0c0,0 0,0 0,0 2,0 3,-1 3,-3 0,-1 -1,-2 -3,-2l-34 0 -47 0 0 0c-17,0 -30,-14 -30,-30 0,-8 2,-14 7,-19l0 0 0 0c5,-7 13,-11 23,-11 2,0 4,0 7,1l0 0c1,0 1,0 2,-1 1,0 1,-1 1,-2 3,-19 19,-33 37,-36 2,0 4,0 6,0l0 0c24,0 44,19 44,43 0,1 0,3 -1,4 0,0 1,1 1,2l0 0z"/>
  </g>
  <path class="fil2" d="M71 179c6,0 11,5 11,11 0,7 -5,12 -11,12 -7,0 -12,-5 -12,-12 0,-6 5,-11 12,-11z"/>
  <path class="fil3" d="M102 210l0 -37 0 0 21 0 0 0 0 4 0 3 0 0 -15 0 0 0 0 8 0 0 13 0 0 3 0 3 0 0 -13 0 0 0 0 16 -3 0 -3 0zm38 1c-4,0 -7,-2 -9,-4 -2,-3 -3,-6 -3,-10 0,-5 1,-8 3,-11 2,-3 5,-4 9,-4 3,0 6,1 8,4 2,3 3,6 3,11 0,4 -1,7 -3,10 -2,2 -5,4 -8,4zm0 -6c1,0 3,-1 4,-2 1,-2 1,-4 1,-7 0,-2 0,-4 -1,-6 -1,-1 -3,-2 -4,-2 -2,0 -3,1 -4,2 -1,2 -2,4 -2,6 0,3 1,5 2,7 1,1 2,2 4,2zm28 11c1,0 3,-1 3,-2 1,-1 1,-2 1,-5l0 -3 0 0 0 1c-1,2 -3,3 -6,3 -3,0 -5,-1 -7,-4 -2,-2 -2,-6 -2,-10 0,-4 0,-7 2,-10 2,-3 4,-4 7,-4 3,0 5,1 6,3 0,1 0,1 1,2l0 0 0 -4 0 0 5 0 0 25c0,5 -1,8 -2,10 -2,2 -5,3 -9,3 -3,0 -5,-1 -7,-2 -2,-2 -3,-4 -3,-6l0 0 7 0 0 0c0,1 0,2 1,2 0,0 1,1 3,1zm0 -28c-2,0 -3,1 -4,2 -1,2 -1,4 -1,6 0,3 0,5 1,6 1,2 2,2 4,2 1,0 2,0 3,-2 1,-1 2,-3 2,-6 0,-2 -1,-4 -2,-6 -1,-1 -2,-2 -3,-2z"/>
  <rect class="fil1" width="248" height="210"/>
 </g>
</svg>
