<?xml version="1.0" encoding="UTF-8"?>
<!DOCTYPE svg PUBLIC "-//W3C//DTD SVG 1.1//EN" "http://www.w3.org/Graphics/SVG/1.1/DTD/svg11.dtd">
<!-- Creator: CorelDRAW X8 -->
<svg xmlns="http://www.w3.org/2000/svg" xml:space="preserve" width="78.7784mm" height="69.6498mm" version="1.1" style="shape-rendering:geometricPrecision; text-rendering:geometricPrecision; image-rendering:optimizeQuality; fill-rule:evenodd; clip-rule:evenodd"
viewBox="0 0 279 247"
 xmlns:xlink="http://www.w3.org/1999/xlink">
 <defs>
  <style type="text/css">
   <![CDATA[
    .fil3 {fill:none}
    .fil2 {fill:#332C2B}
    .fil0 {fill:#FEFEFE;fill-rule:nonzero}
    .fil1 {fill:#FEFEFE;fill-rule:nonzero}
   ]]>
  </style>
 </defs>
 <g id="图层_x0020_1">
  <metadata id="CorelCorpID_0Corel-Layer"/>
  <path class="fil0" d="M60 234l0 0 0 -41 0 0 4 0 3 0 0 0 0 34 0 0 17 0 0 0 0 4 0 3 0 0 -24 0zm32 0l0 -30 0 0 3 0 3 0 0 0 0 30 0 0 -3 0 -3 0zm0 -41l6 0 0 7 -6 0 0 -7zm27 48c2,0 3,-1 4,-2 1,-1 1,-3 1,-5l0 -4 0 0 0 1c-2,2 -4,4 -7,4 -3,0 -6,-2 -8,-5 -2,-3 -3,-6 -3,-11 0,-5 1,-9 3,-12 2,-3 5,-4 8,-4 3,0 5,1 7,4 0,0 0,1 0,1l0 0 0 -4 0 0 7 0 0 29c0,5 -1,8 -3,10 -2,3 -5,4 -10,4 -3,0 -6,-1 -8,-3 -2,-1 -3,-3 -3,-6l0 0 7 0 0 0c0,1 1,2 1,2 1,1 2,1 4,1zm0 -31c-2,0 -3,1 -4,2 -1,2 -2,4 -2,7 0,3 1,5 2,7 1,1 2,2 4,2 1,0 3,-1 4,-2 1,-2 1,-4 1,-7 0,-3 0,-5 -1,-7 -1,-1 -3,-2 -4,-2zm20 24l0 -41 0 0 4 0 3 0 0 0 0 15 0 0 0 0 1 -1c1,-3 4,-4 7,-4 2,0 5,1 6,3 2,2 2,4 2,8l0 20 0 0 -3 0 -3 0 0 0 0 -19c0,-2 -1,-3 -1,-4 -1,-1 -2,-1 -4,-1 -1,0 -3,0 -4,2 -1,1 -1,3 -1,5l0 0 0 17 0 0 -3 0 -4 0zm44 1c-1,0 -3,0 -4,0 -3,0 -4,-1 -5,-2 -1,-1 -2,-3 -2,-5l0 -19 0 0 -3 0 0 -5 3 0 0 0 0 -9 7 0 0 9 0 0 4 0 0 5 -4 0 0 0 0 18c0,1 0,1 0,1 1,0 1,1 3,1l1 0 0 6zm7 -1l0 -30 0 0 3 0 4 0 0 0 0 30 0 0 -4 0 -3 0zm0 -41l7 0 0 7 -7 0 0 -7zm16 41l0 -30 0 0 3 0 3 0 0 0 0 4 0 0 0 0c0,0 1,-1 1,-1 2,-3 4,-4 7,-4 3,0 5,1 7,3 1,2 2,4 2,8l0 20 0 0 -4 0 -3 0 0 0 0 -19c0,-2 0,-3 -1,-4 -1,-1 -2,-1 -3,-1 -2,0 -3,0 -4,2 -1,1 -2,3 -2,5l0 0 0 17 0 0 -3 0 -3 0zm43 7c2,0 3,-1 4,-2 1,-1 1,-3 1,-5l0 -4 0 0 0 1c-2,2 -4,4 -6,4 -4,0 -6,-2 -8,-5 -3,-3 -4,-6 -4,-11 0,-5 1,-9 3,-12 2,-3 5,-4 8,-4 3,0 5,1 7,4 0,0 0,1 1,1l0 0 0 -4 0 0 6 0 0 29c0,5 -1,8 -3,10 -2,3 -5,4 -9,4 -4,0 -6,-1 -8,-3 -3,-1 -4,-3 -4,-6l0 0 8 0 0 0c0,1 0,2 1,2 0,1 2,1 3,1zm0 -31c-2,0 -3,1 -4,2 -1,2 -2,4 -2,7 0,3 1,5 2,7 1,1 2,2 4,2 2,0 3,-1 4,-2 1,-2 2,-4 2,-7 0,-3 -1,-5 -2,-7 -1,-1 -2,-2 -4,-2z"/>
  <path class="fil1" d="M83 123l8 4 21 -35 -8 -5 -21 36zm8 12l-17 -10 27 -47 20 11 -27 47 -3 -1zm-4 -73l-36 20 5 9 36 -21 -5 -8zm-42 16l45 -25 11 19 -47 28 -11 -20 2 -2zm87 13l19 0 0 55 -22 0 0 -55 3 0 0 0zm12 7l-9 0 0 41 9 0 0 -41zm24 -6l20 35 8 -4 -20 -36 -8 5zm16 41l-25 -44 19 -11 27 47 -19 11 -2 -3zm4 -63l36 21 5 -9 -37 -20 -4 8zm35 28l-44 -26 11 -19 48 27 -12 20 -3 -2zm-54 -55l0 -27 8 0 0 -9 -74 0 0 9 8 0 0 27c0,4 2,7 5,9 2,3 5,4 8,4l32 0c3,0 7,-1 9,-4 2,-2 4,-5 4,-9l0 0zm6 -20l0 20c0,6 -2,10 -6,14 -3,3 -8,5 -13,5l-32 0c-5,0 -10,-2 -13,-5 -4,-4 -6,-8 -6,-14l0 -20 -8 0 0 -23 87 0 0 23 -9 0 0 0z"/>
  <path class="fil2" d="M28 201c8,0 14,6 14,13 0,8 -6,13 -14,13 -6,0 -13,-5 -13,-13 0,-7 7,-13 13,-13z"/>
  <rect class="fil3" width="279" height="235"/>
 </g>
</svg>
