<?xml version="1.0" encoding="UTF-8"?>
<!DOCTYPE svg PUBLIC "-//W3C//DTD SVG 1.1//EN" "http://www.w3.org/Graphics/SVG/1.1/DTD/svg11.dtd">
<!-- Creator: CorelDRAW X8 -->
<svg xmlns="http://www.w3.org/2000/svg" xml:space="preserve" width="78.9668mm" height="66.6253mm" version="1.1" style="shape-rendering:geometricPrecision; text-rendering:geometricPrecision; image-rendering:optimizeQuality; fill-rule:evenodd; clip-rule:evenodd"
viewBox="0 0 281 237"
 xmlns:xlink="http://www.w3.org/1999/xlink">
 <defs>
  <style type="text/css">
   <![CDATA[
    .fil1 {fill:none;fill-rule:nonzero}
    .fil0 {fill:#FEFEFE}
    .fil2 {fill:#FEFEFE;fill-rule:nonzero}
   ]]>
  </style>
 </defs>
 <g id="图层_x0020_1">
  <metadata id="CorelCorpID_0Corel-Layer"/>
  <g id="_2789737528048">
   <path class="fil0" d="M174 134l-7 -2 22 -65c1,-3 -1,-6 -4,-7 0,0 0,0 0,0l-45 -12c-2,-1 -5,1 -6,4l-19 58 -10 -3 26 -82c1,-3 4,-5 7,-4l66 17c3,1 4,3 4,6 0,1 0,1 0,1l-29 87c-1,2 -3,3 -5,2l0 0z" p-id="2961"/>
   <path class="fil0" d="M73 105c1,12 11,21 23,20 12,-1 21,-11 20,-23 0,-12 -10,-21 -22,-20 -12,0 -22,10 -21,22l0 1 0 0zm64 21c0,12 11,21 23,20 12,-1 21,-11 20,-23 -1,-12 -11,-21 -23,-20 -12,0 -21,11 -20,23z" p-id="2962"/>
   <path class="fil0" d="M93 57l-20 -43c-1,-3 0,-6 3,-7 0,0 0,0 0,0l18 -7c2,0 5,1 6,3l3 5c1,2 0,5 -2,6 -1,0 -1,1 -1,1l-12 4c-1,1 -2,2 -1,3 0,0 0,0 0,0l13 30c1,1 0,2 -1,2l-6 3 0 0z" p-id="2963"/>
   <path class="fil0" d="M73 58c0,8 7,14 15,13 8,0 14,-7 13,-15 0,-7 -7,-13 -15,-13 -7,0 -13,7 -13,15z" p-id="2964"/>
  </g>
  <path class="fil0" d="M61 199c7,0 13,6 13,13 0,8 -6,14 -13,14 -7,0 -13,-6 -13,-14 0,-7 6,-13 13,-13z"/>
  <rect class="fil1" width="281" height="237"/>
  <path class="fil2" d="M106 204l0 0c0,-1 0,-3 -1,-3 -1,-1 -3,-2 -4,-2 -2,0 -3,1 -3,1 -1,1 -2,2 -2,3 0,1 1,2 2,3 0,0 2,1 5,2 4,1 6,2 7,3 2,1 2,4 2,7 0,2 -1,5 -3,7 -1,1 -4,2 -7,2 -4,0 -6,-1 -8,-3 -2,-1 -3,-4 -3,-7l0 0 5 0 0 0c0,1 1,3 2,3 1,1 2,2 4,2 1,0 3,-1 4,-1 1,-1 1,-2 1,-3 0,-1 0,-2 -1,-3 -1,0 -2,-1 -4,-1 -4,-2 -7,-3 -9,-4 -1,-1 -2,-3 -2,-6 0,-3 1,-6 3,-7 2,-2 4,-3 8,-3 2,0 5,1 7,3 2,1 3,4 3,7l0 0 -6 0zm12 22l0 -23 0 0 3 0 2 0 0 0 0 23 0 0 -2 0 -3 0zm0 -32l6 0 0 6 -6 0 0 -6zm12 32l0 -23 0 0 3 0 2 0 0 0 0 3 0 0 0 0c0,0 1,0 1,-1 1,-2 3,-3 5,-3 2,0 4,1 5,3 1,1 2,3 2,6l0 15 0 0 -3 0 -2 0 0 0 0 -14c0,-2 0,-3 -1,-3 0,-1 -1,-2 -2,-2 -2,0 -3,1 -3,2 -1,1 -2,2 -2,4l0 0 0 13 0 0 -2 0 -3 0zm33 5c2,0 3,0 4,-1 0,-1 0,-2 0,-4l0 -3 0 0 0 1c-1,2 -3,2 -5,2 -2,0 -4,-1 -6,-3 -1,-2 -2,-5 -2,-8 0,-4 1,-7 2,-9 2,-3 4,-4 6,-4 2,0 4,1 5,3 0,1 0,1 1,1l0 0 0 -3 0 0 4 0 0 22c0,4 0,7 -2,8 -1,2 -4,3 -7,3 -2,0 -5,-1 -6,-2 -2,-1 -3,-3 -3,-5l0 0 6 0 0 0c0,1 0,1 1,2 0,0 1,0 2,0zm0 -23c-1,0 -2,0 -3,1 -1,2 -1,3 -1,6 0,2 0,3 1,5 1,1 2,1 3,1 2,0 3,0 3,-1 1,-2 2,-3 2,-5 0,-3 -1,-4 -2,-6 0,-1 -1,-1 -3,-1zm16 18l0 -23 0 0 3 0 2 0 0 0 0 23 0 0 -2 0 -3 0zm0 -32l5 0 0 6 -5 0 0 -6zm12 32l0 -23 0 0 3 0 2 0 0 0 0 3 0 0 0 0c0,0 0,0 1,-1 1,-2 3,-3 5,-3 2,0 4,1 5,3 1,1 2,3 2,6l0 15 0 0 -3 0 -2 0 0 0 0 -14c0,-2 -1,-3 -1,-3 -1,-1 -1,-2 -3,-2 -1,0 -2,1 -3,2 0,1 -1,2 -1,4l0 0 0 13 0 0 -2 0 -3 0zm33 5c2,0 3,0 3,-1 1,-1 1,-2 1,-4l0 -3 0 0 0 1c-1,2 -3,2 -5,2 -2,0 -5,-1 -6,-3 -2,-2 -2,-5 -2,-8 0,-4 0,-7 2,-9 1,-3 3,-4 6,-4 2,0 4,1 5,3 0,1 0,1 1,1l0 0 0 -3 0 0 4 0 0 22c0,4 0,7 -2,8 -1,2 -4,3 -7,3 -3,0 -5,-1 -6,-2 -2,-1 -3,-3 -3,-5l0 0 6 0 0 0c0,1 0,1 1,2 0,0 1,0 2,0zm0 -23c-1,0 -2,0 -3,1 -1,2 -1,3 -1,6 0,2 0,3 1,5 1,1 2,1 3,1 1,0 2,0 3,-1 1,-2 1,-3 1,-5 0,-3 0,-4 -1,-6 -1,-1 -2,-1 -3,-1z"/>
 </g>
</svg>
