<?xml version="1.0" encoding="UTF-8"?>
<!DOCTYPE svg PUBLIC "-//W3C//DTD SVG 1.1//EN" "http://www.w3.org/Graphics/SVG/1.1/DTD/svg11.dtd">
<!-- Creator: CorelDRAW X8 -->
<svg xmlns="http://www.w3.org/2000/svg" xml:space="preserve" width="78.9676mm" height="69.6567mm" version="1.1" style="shape-rendering:geometricPrecision; text-rendering:geometricPrecision; image-rendering:optimizeQuality; fill-rule:evenodd; clip-rule:evenodd"
viewBox="0 0 281 248"
 xmlns:xlink="http://www.w3.org/1999/xlink">
 <defs>
  <style type="text/css">
   <![CDATA[
    .fil2 {fill:none;fill-rule:nonzero}
    .fil1 {fill:#FEFEFE}
    .fil0 {fill:#FEFEFE;fill-rule:nonzero}
   ]]>
  </style>
 </defs>
 <g id="图层_x0020_1">
  <metadata id="CorelCorpID_0Corel-Layer"/>
  <path class="fil0" d="M90 209l0 0c0,-2 -1,-4 -2,-5 -1,-1 -3,-1 -5,-1 -2,0 -3,0 -4,1 -1,1 -1,2 -1,4 0,1 0,2 1,2 1,1 3,2 7,3 4,1 7,2 9,4 2,2 2,4 2,8 0,4 -1,7 -3,9 -3,2 -6,3 -10,3 -4,0 -7,-1 -9,-3 -3,-3 -4,-6 -4,-10l0 0 6 0 0 0c0,2 1,3 2,5 1,1 3,1 5,1 2,0 4,0 5,-1 1,-1 2,-2 2,-4 0,-1 -1,-2 -1,-3 -1,0 -3,-1 -6,-2 -5,-1 -8,-3 -10,-4 -2,-2 -3,-4 -3,-8 0,-4 2,-7 4,-9 2,-2 5,-3 9,-3 4,0 6,1 9,3 2,3 3,6 4,10l0 0 -7 0zm24 28c-4,0 -7,-2 -9,-4 -1,-3 -2,-7 -2,-12 0,-5 1,-8 3,-11 2,-2 4,-4 8,-4 3,0 6,2 8,4 2,3 3,7 3,12 0,0 0,1 0,1l0 0 -16 0 0 0c0,3 0,4 1,5 1,2 2,3 4,3 1,0 2,-1 3,-1 1,-1 1,-2 2,-3l0 0 6 0 0 0c-1,3 -2,5 -4,7 -2,2 -4,3 -7,3zm5 -18l0 0c-1,-2 -1,-4 -2,-4 0,-2 -2,-2 -3,-2 -2,0 -3,0 -4,2 0,1 -1,2 -1,4l0 0 10 0zm13 17l0 -29 0 0 3 0 3 0 0 0 0 5 0 0 0 0c0,0 0,-1 0,-1 2,-3 4,-5 6,-5l2 0 0 8c-1,0 -2,0 -2,0 -2,0 -4,1 -5,2 -1,1 -1,3 -1,5l0 0 0 15 0 0 -3 0 -3 0zm17 -29l0 0 4 0 3 0 0 0 5 22 0 0 0 0 5 -22 0 0 4 0 3 0 0 0 -9 29 -3 0 -3 0 -9 -29zm30 29l0 -29 0 0 3 0 4 0 0 0 0 29 0 0 -4 0 -3 0zm0 -39l7 0 0 7 -7 0 0 -7zm15 39l0 -29 0 0 3 0 3 0 0 0 0 4 0 0 0 0c0,0 0,-1 1,-1 1,-2 4,-4 6,-4 3,0 5,1 6,3 2,2 3,4 3,8l0 19 0 0 -4 0 -3 0 0 0 0 -18c0,-2 0,-3 -1,-4 0,-1 -1,-1 -3,-1 -1,0 -3,0 -3,1 -1,2 -2,3 -2,6l0 0 0 16 0 0 -3 0 -3 0zm41 6c1,0 3,-1 3,-2 1,-1 2,-3 2,-5l0 -3 0 0 -1 1c-1,2 -3,3 -6,3 -3,0 -6,-1 -7,-4 -2,-3 -3,-6 -3,-11 0,-4 1,-8 2,-10 2,-3 5,-5 8,-5 2,0 5,2 6,4 0,0 1,1 1,1l0 0 0 -4 0 0 6 0 0 27c0,5 -1,8 -3,10 -2,2 -5,4 -9,4 -3,0 -6,-1 -8,-3 -1,-1 -2,-3 -3,-6l0 0 7 0 0 0c0,1 1,2 1,2 1,1 2,1 4,1zm-1 -29c-1,0 -3,1 -3,2 -1,2 -2,4 -2,6 0,3 1,5 2,7 0,1 2,2 3,2 2,0 3,-1 4,-2 1,-2 2,-4 2,-7 0,-2 -1,-4 -2,-6 -1,-1 -2,-2 -4,-2z"/>
  <path class="fil1" d="M215 80c0,14 -2,22 -7,30 -2,1 -2,4 -2,5 0,3 3,5 3,6 1,5 3,8 9,6l3 0 7 3 -4 4c-9,5 -18,8 -27,11 -1,1 -3,0 -6,0 0,-2 0,-5 2,-6 0,-2 1,-3 1,-3 3,-2 6,-4 6,-6 -1,-4 -4,-9 -6,-13 0,-2 -3,-2 -3,-2 -13,-1 -21,-10 -30,-20 -9,-12 -15,-25 -19,-39 -2,-3 0,-5 3,-6 16,-6 32,-13 48,-19 1,-2 4,1 6,3 9,14 16,32 16,46l0 0zm-15 -26c-3,-4 -4,-7 -6,-10 -1,-2 -4,-3 -5,-3l-34 13c-2,0 -3,4 -3,4 1,6 3,9 4,14 15,-6 28,-12 44,-18l0 0 0 0zm-140 73c3,0 7,0 9,-1 1,-3 4,-9 4,-13 0,-2 0,-3 0,-3 -12,-14 -10,-30 -6,-44 3,-12 8,-22 12,-32 3,-5 4,-6 10,-3 15,7 29,13 45,19 5,1 5,4 3,8 -5,17 -11,31 -23,43 -6,9 -15,14 -26,16 -2,0 -5,1 -5,3 0,3 -1,6 -3,9 -1,3 -1,4 3,5 2,2 5,5 6,6 0,2 0,5 0,5l-6 0c-8,-3 -19,-8 -27,-11l-3 -4c0,0 3,-1 4,-3l3 0zm63 -54c1,-4 3,-9 4,-13 0,-2 -1,-4 -3,-4 -10,-5 -22,-11 -33,-15 -2,0 -5,0 -5,1 -3,3 -4,8 -7,12 15,7 29,13 44,19l0 0zm17 -47c-3,2 -6,6 -7,5 -3,0 -4,-3 -6,-5 2,-3 3,-6 6,-6 1,0 4,3 7,6zm27 8c-3,-3 -6,-6 -6,-8 0,-3 4,-4 6,-6 1,3 4,3 5,6 0,2 -2,5 -5,8zm-15 8c-3,2 -4,5 -7,5 -2,0 -6,-3 -6,-6 0,-3 4,-4 6,-6 3,0 4,3 7,4l0 3 0 0zm-22 -35c2,2 4,3 4,5 0,1 -2,1 -4,3 -1,-2 -3,-2 -3,-3 0,-2 2,-3 3,-5zm21 15c1,1 4,3 2,4 0,2 -2,2 -4,3 0,-1 -1,-1 -1,-3 0,-1 1,-3 3,-4zm-19 20c1,2 2,2 2,2 0,1 -1,1 -1,3 -1,0 -3,-2 -3,-2 0,-1 0,-1 2,-3l0 0zm-8 -7c0,3 0,3 0,4 0,2 -3,2 -4,2 0,-2 -2,-3 -2,-3 2,-1 3,-1 6,-3l0 0z" p-id="15146"/>
  <path class="fil1" d="M50 203c6,0 12,6 12,13 0,8 -6,13 -12,13 -7,0 -13,-5 -13,-13 0,-7 6,-13 13,-13z"/>
  <rect class="fil2" width="281" height="237"/>
 </g>
</svg>
