<?xml version="1.0" encoding="UTF-8"?>
<!DOCTYPE svg PUBLIC "-//W3C//DTD SVG 1.1//EN" "http://www.w3.org/Graphics/SVG/1.1/DTD/svg11.dtd">
<!-- Creator: CorelDRAW X8 -->
<svg xmlns="http://www.w3.org/2000/svg" xml:space="preserve" width="78.7077mm" height="66.8082mm" version="1.1" style="shape-rendering:geometricPrecision; text-rendering:geometricPrecision; image-rendering:optimizeQuality; fill-rule:evenodd; clip-rule:evenodd"
viewBox="0 0 492 417"
 xmlns:xlink="http://www.w3.org/1999/xlink">
 <defs>
  <style type="text/css">
   <![CDATA[
    .fil1 {fill:#FEFEFE}
    .fil0 {fill:#FEFEFE;fill-rule:nonzero}
   ]]>
  </style>
 </defs>
 <g id="图层_x0020_1">
  <metadata id="CorelCorpID_0Corel-Layer"/>
  <g id="_2789737511376">
   <path class="fil0" d="M144 0l202 0c7,0 13,3 18,8 5,4 8,11 8,18l0 205c0,7 -3,13 -8,18 -5,5 -11,8 -18,8l-202 0c-7,0 -13,-3 -18,-8 -5,-5 -7,-11 -7,-18l0 -205c0,-7 2,-14 7,-18 5,-5 11,-8 18,-8zm202 9l-202 0c-4,0 -8,2 -11,5 -3,3 -5,7 -5,12l0 205c0,4 2,8 5,11 3,3 7,5 11,5l202 0c4,0 8,-2 11,-5 4,-3 5,-7 5,-11l0 -205c0,-5 -1,-9 -5,-12 -3,-3 -7,-5 -11,-5z"/>
   <path class="fil0" d="M212 46l65 0c4,0 9,2 12,5 3,3 5,8 5,12l0 132c0,4 -2,8 -5,11 -3,3 -8,5 -12,5l-65 0c-4,0 -9,-2 -12,-5 -3,-3 -5,-7 -5,-11l0 -132c0,-4 2,-9 5,-12 3,-3 8,-5 12,-5zm65 10l-65 0c-2,0 -4,1 -5,2 -2,1 -2,3 -2,5l0 132c0,2 0,4 2,5 1,1 3,2 5,2l65 0c2,0 4,-1 5,-2 2,-1 2,-3 2,-5l0 -132c0,-2 0,-4 -2,-5 -1,-1 -3,-2 -5,-2z"/>
   <path class="fil0" d="M244 75c7,0 13,3 18,7 4,5 7,11 7,17 0,7 -3,13 -7,17 -5,5 -11,7 -18,7 -6,0 -12,-2 -17,-7 -4,-4 -7,-10 -7,-17 0,-6 3,-12 7,-17l0 0c5,-4 11,-7 17,-7zm11 14c-3,-3 -6,-5 -11,-5 -4,0 -7,2 -10,5 -3,2 -4,6 -4,10 0,4 1,8 4,11 3,3 6,4 10,4 5,0 8,-1 11,-4 3,-3 4,-7 4,-11 0,-4 -1,-8 -4,-10z"/>
   <path class="fil0" d="M245 144c2,0 3,1 4,2 2,1 2,3 2,5l0 24c0,2 0,3 -2,4 -1,1 -2,2 -4,2 -2,0 -3,-1 -4,-2 -1,-1 -2,-2 -2,-4l0 -24c0,-2 1,-4 2,-5 1,-1 2,-2 4,-2z"/>
   <path class="fil0" d="M148 24c2,0 4,1 6,2 1,2 2,4 2,6 0,2 -1,4 -2,6 -2,1 -4,2 -6,2 -2,0 -4,-1 -5,-2 -2,-2 -3,-4 -3,-6 0,-2 1,-4 3,-6 1,-1 3,-2 5,-2zm3 5c-1,-1 -2,-1 -3,-1 -1,0 -2,0 -3,1 -1,1 -1,2 -1,3 0,1 0,2 1,3 1,1 2,1 3,1 1,0 2,0 3,-1 1,-1 1,-2 1,-3 0,-1 0,-2 -1,-3z"/>
   <path class="fil0" d="M343 24c2,0 4,1 5,2 2,2 3,4 3,6 0,2 -1,4 -3,6 -1,1 -3,2 -5,2 -3,0 -5,-1 -6,-2 -1,-2 -2,-4 -2,-6 0,-2 1,-4 2,-6 1,-1 3,-2 6,-2zm3 5c-1,-1 -2,-1 -3,-1 -2,0 -3,0 -3,1 -1,1 -2,2 -2,3 0,1 1,2 2,3 0,1 1,1 3,1 1,0 2,0 3,-1 0,-1 1,-2 1,-3 0,-1 -1,-2 -1,-3z"/>
   <path class="fil0" d="M148 219c2,0 4,1 6,2 1,2 2,4 2,6 0,2 -1,4 -2,6 -2,1 -4,2 -6,2 -2,0 -4,-1 -5,-2 -2,-2 -3,-4 -3,-6 0,-2 1,-4 3,-6 1,-1 3,-2 5,-2zm3 5c-1,-1 -2,-1 -3,-1 -1,0 -2,0 -3,1 -1,1 -1,2 -1,3 0,1 0,2 1,3 1,1 2,1 3,1 1,0 2,0 3,-1 1,-1 1,-2 1,-3 0,-1 0,-2 -1,-3z"/>
   <path class="fil0" d="M343 219c2,0 4,1 5,2 2,2 3,4 3,6 0,2 -1,4 -3,6 -1,1 -3,2 -5,2 -3,0 -5,-1 -6,-2 -1,-2 -2,-4 -2,-6 0,-2 1,-4 2,-6 1,-1 3,-2 6,-2zm3 5c-1,-1 -2,-1 -3,-1 -2,0 -3,0 -3,1 -1,1 -2,2 -2,3 0,1 1,2 2,3 0,1 1,1 3,1 1,0 2,0 3,-1 0,-1 1,-2 1,-3 0,-1 -1,-2 -1,-3z"/>
  </g>
  <path class="fil1" d="M23 356c13,0 23,10 23,23 0,13 -10,23 -23,23 -13,0 -23,-10 -23,-23 0,-13 10,-23 23,-23z"/>
  <path class="fil0" d="M76 415l0 0 -4 0 -4 0 0 0 0 -72 0 0 6 0 7 0 0 0 7 57 0 0 0 0 8 -57 0 0 6 0 7 0 0 0 0 72 0 0 -4 0 -4 0 0 0 0 -61 0 0 -8 61 -5 0 -4 0 -8 -62 0 0 0 62zm52 2c-3,0 -6,-2 -7,-4 -2,-3 -3,-7 -3,-12 0,-5 1,-9 2,-11 2,-3 4,-5 7,-6l6 -1c1,-1 2,-1 3,-2 1,0 1,-1 1,-2 1,-1 1,-2 1,-2 -1,-2 -1,-3 -2,-4 -1,-1 -2,-2 -4,-2 -1,0 -3,1 -4,2 0,2 -1,4 -1,6l0 0 -8 0 0 0c0,-6 1,-11 4,-14 2,-3 6,-5 10,-5 4,0 7,2 9,4 3,3 4,7 4,12l0 30c0,2 0,4 0,5 0,1 1,2 1,2l0 0 0 2 -4 0 -4 0 0 0c-1,-2 -1,-4 -1,-6l0 0c-3,5 -6,8 -10,8zm10 -21l0 -7 0 0c-1,1 -3,2 -4,3l-3 1c-2,0 -3,1 -4,2 0,1 -1,3 -1,5 0,2 1,4 1,5 1,1 2,2 3,2 3,0 5,-2 7,-5 0,-1 0,-2 0,-3 1,-1 1,-2 1,-3zm36 -18l0 0c0,-2 0,-4 -1,-5 -1,-2 -3,-2 -4,-2 -2,0 -3,0 -4,1 -1,1 -1,3 -1,4 0,1 0,2 1,3 1,1 3,2 5,3 6,2 9,4 11,6 1,3 2,6 2,11 0,6 -1,10 -3,13 -3,3 -6,5 -10,5 -5,0 -9,-2 -12,-5 -2,-3 -4,-8 -4,-14l0 0 9 0 0 0c0,3 0,5 2,6 1,1 3,2 5,2 1,0 3,0 4,-1 1,-1 1,-3 1,-4 0,-2 0,-3 -1,-3 -1,-1 -3,-2 -5,-3 -6,-2 -9,-4 -11,-6 -2,-3 -3,-6 -3,-11 0,-5 2,-10 4,-13 2,-3 5,-5 9,-5 4,0 8,2 11,5 2,3 3,7 3,13l0 0 -8 0zm33 38c-1,0 -3,0 -5,0 -3,0 -5,-1 -6,-3 -2,-1 -2,-4 -2,-8l0 -33 0 0 -5 0 0 -10 5 0 0 0 0 -15 8 0 0 15 0 0 5 0 0 10 -5 0 0 0 0 30c0,1 0,2 1,3 0,0 1,0 2,0l2 0 0 11zm21 1c-5,0 -8,-3 -11,-8 -2,-5 -4,-12 -4,-21 0,-9 2,-16 4,-20 3,-5 7,-8 11,-8 5,0 9,3 11,8 3,5 4,12 4,21 0,1 0,2 0,3l0 0 -21 0 0 0c0,4 0,8 1,10 1,2 3,4 6,4 1,0 2,-1 4,-2 1,-1 1,-3 1,-5l0 0 9 0 0 0c-1,6 -2,10 -5,13 -3,3 -6,5 -10,5zm7 -34l0 0c-1,-3 -1,-6 -2,-8 -1,-2 -3,-3 -5,-3 -2,0 -4,1 -5,4 0,2 -1,4 -1,7l0 0 13 0zm17 32l0 -53 0 0 4 0 4 0 0 0 0 9 0 0 0 0c0,-1 1,-2 1,-3 2,-5 4,-8 7,-8l2 0 0 15c0,0 -1,0 -2,0 -3,0 -5,1 -6,3 -1,2 -2,5 -2,9l0 0 0 28 0 0 -4 0 -4 0zm63 -51l0 0c0,-3 -1,-6 -2,-8 -2,-2 -4,-3 -7,-3 -2,0 -4,1 -5,3 -1,1 -2,4 -2,7 0,2 1,4 2,5 2,1 4,2 9,4 6,2 10,5 12,8 2,3 3,8 3,15 0,7 -1,12 -5,16 -3,4 -7,6 -12,6 -6,0 -10,-2 -13,-6 -3,-4 -5,-10 -5,-18l0 0 9 0 0 0c0,4 1,7 2,9 2,2 4,3 7,3 2,0 5,-1 6,-2 2,-2 3,-4 3,-7 0,-3 -1,-5 -2,-6 -1,-1 -4,-3 -7,-4 -7,-3 -11,-5 -14,-8 -2,-3 -3,-8 -3,-14 0,-7 1,-13 4,-17 3,-4 7,-6 12,-6 5,0 9,2 12,6 3,4 5,10 5,17l0 0 -9 0zm25 51l-9 -53 0 0 5 0 4 0 0 0 5 39 0 0 0 0 5 -39 4 0 4 0 5 39 0 0 0 0 5 -39 0 0 4 0 4 0 0 0 -9 53 -4 0 -4 0 -5 -40 0 0 0 0 -5 40 -4 0 -5 0zm44 0l0 -53 0 0 5 0 4 0 0 0 0 53 0 0 -4 0 -5 0zm0 -73l9 0 0 13 -9 0 0 -13zm34 74c-1,0 -3,0 -5,0 -3,0 -5,-1 -6,-3 -1,-1 -2,-4 -2,-8l0 -33 0 0 -4 0 0 -10 4 0 0 0 0 -15 8 0 0 15 0 0 5 0 0 10 -5 0 0 0 0 30c0,1 1,2 1,3 0,0 1,0 3,0l1 0 0 11zm36 -20l0 0c0,6 -2,11 -4,15 -3,4 -6,6 -10,6 -5,0 -8,-3 -11,-7 -3,-5 -4,-12 -4,-21 0,-9 1,-16 4,-21 3,-5 6,-8 11,-8 4,0 7,2 10,6 3,4 4,9 4,15l0 0 -8 0 0 0c0,-3 -1,-5 -2,-6 -1,-2 -2,-3 -4,-3 -2,0 -4,1 -5,4 -1,3 -1,7 -1,13 0,5 0,9 1,12 1,3 3,4 5,4 2,0 3,-1 4,-2 1,-2 2,-5 2,-7l0 0 8 0zm9 19l0 -72 0 0 4 0 5 0 0 0 0 25 0 0 0 0 0 -1c2,-5 5,-7 9,-7 3,0 6,2 8,5 2,4 3,8 3,14l0 36 0 0 -4 0 -5 0 0 0 0 -33c0,-3 0,-6 -1,-8 -1,-1 -2,-2 -4,-2 -2,0 -4,1 -5,3 -1,3 -1,6 -1,10l0 0 0 30 0 0 -5 0 -4 0z"/>
 </g>
</svg>
