<?xml version="1.0" encoding="UTF-8"?>
<!DOCTYPE svg PUBLIC "-//W3C//DTD SVG 1.1//EN" "http://www.w3.org/Graphics/SVG/1.1/DTD/svg11.dtd">
<!-- Creator: CorelDRAW X8 -->
<svg xmlns="http://www.w3.org/2000/svg" xml:space="preserve" width="78.8186mm" height="69.7737mm" version="1.1" style="shape-rendering:geometricPrecision; text-rendering:geometricPrecision; image-rendering:optimizeQuality; fill-rule:evenodd; clip-rule:evenodd"
viewBox="0 0 280 247"
 xmlns:xlink="http://www.w3.org/1999/xlink">
 <defs>
  <style type="text/css">
   <![CDATA[
    .fil2 {fill:none;fill-rule:nonzero}
    .fil1 {fill:#FEFEFE}
    .fil0 {fill:#FEFEFE;fill-rule:nonzero}
   ]]>
  </style>
 </defs>
 <g id="图层_x0020_1">
  <metadata id="CorelCorpID_0Corel-Layer"/>
  <path class="fil0" d="M59 236l0 -38 0 0 3 0 0 0 10 0c3,0 6,1 8,3 2,2 3,5 3,9 0,4 -1,7 -3,10 -2,2 -5,3 -8,3 -3,0 -5,0 -7,0l0 0 0 13 0 0 -3 0 -3 0zm6 -20l0 0 6 0c2,0 3,0 4,-1 1,-1 1,-3 1,-5 0,-2 0,-3 -1,-4 -1,-1 -2,-1 -4,-1l-6 0 0 0 0 11zm25 20l0 -28 0 0 3 0 3 0 0 0 0 5 0 0 0 0c0,0 0,-1 1,-1 1,-3 3,-5 5,-5l2 0 0 8c-1,0 -2,0 -2,0 -2,0 -4,0 -4,2 -1,1 -2,2 -2,5l0 0 0 14 0 0 -3 0 -3 0zm30 1c-3,0 -6,-1 -8,-4 -3,-3 -4,-6 -4,-11 0,-4 1,-8 4,-11 2,-2 5,-4 8,-4 4,0 7,2 9,4 2,3 3,7 3,11 0,5 -1,8 -3,11 -2,3 -5,4 -9,4zm0 -6c2,0 3,-1 4,-2 1,-2 2,-4 2,-7 0,-3 -1,-5 -2,-6 -1,-2 -2,-2 -4,-2 -2,0 -3,0 -4,2 -1,1 -1,3 -1,6 0,3 0,5 1,7 1,1 2,2 4,2zm19 -23l0 0 3 0 3 0 0 0 0 4 0 0 0 0c2,-3 4,-5 7,-5 3,0 5,2 7,4 2,3 3,6 3,11 0,4 -1,8 -3,11 -2,3 -4,4 -7,4 -3,0 -5,-1 -7,-4l0 0 0 0 0 14 0 0 -3 0 -3 0 0 0 0 -39zm11 23c2,0 3,-1 4,-2 1,-2 1,-4 1,-7 0,-2 0,-4 -1,-6 -1,-1 -2,-2 -4,-2 -2,0 -3,1 -4,2 -1,2 -1,4 -1,7l0 0 0 0 0 0c0,2 0,4 1,6 1,1 2,2 4,2zm29 6c-3,0 -6,-1 -9,-4 -2,-3 -3,-6 -3,-11 0,-4 1,-8 3,-11 3,-2 6,-4 9,-4 4,0 7,2 9,4 2,3 3,7 3,11 0,5 -1,8 -3,11 -2,3 -5,4 -9,4zm0 -6c2,0 3,-1 4,-2 1,-2 2,-4 2,-7 0,-3 -1,-5 -2,-6 -1,-2 -2,-2 -4,-2 -2,0 -3,0 -4,2 -1,1 -1,3 -1,6 0,3 0,5 1,7 1,1 2,2 4,2zm32 -14l0 0c0,-2 0,-2 -1,-3 -1,-1 -2,-1 -3,-1 -1,0 -2,0 -3,1 0,0 -1,1 -1,2 0,0 1,1 2,1 0,1 2,1 4,2 3,1 6,2 7,3 1,1 2,3 2,6 0,3 -1,5 -3,7 -2,1 -4,2 -7,2 -4,0 -6,-1 -8,-2 -2,-2 -3,-4 -4,-8l0 0 7 0 0 0c0,2 0,3 1,3 1,1 2,2 4,2 1,0 2,-1 3,-1 1,-1 1,-1 1,-2 0,-1 0,-2 -1,-2 -1,0 -2,-1 -4,-1 -4,-1 -6,-3 -8,-4 -1,-1 -2,-3 -2,-5 0,-3 1,-5 3,-7 2,-2 4,-3 7,-3 3,0 6,1 8,3 1,2 2,4 2,7l0 0 -6 0zm20 20c-2,0 -4,-1 -6,-2 -1,-2 -2,-4 -2,-6 0,-3 1,-5 2,-6 1,-2 3,-3 6,-3l4 -1c1,0 2,0 2,-1 1,0 1,0 1,-1 0,0 0,-1 0,-1 0,-1 0,-2 -1,-2 -1,-1 -2,-1 -3,-1 -1,0 -2,1 -3,1 0,1 -1,2 -1,3l0 0 -6 0 0 0c0,-3 1,-6 3,-7 2,-2 4,-3 8,-3 3,0 5,1 7,3 1,1 2,3 2,6l0 15c0,2 0,3 0,3 1,1 1,1 2,1l0 0 0 1 -4 0 -3 0 0 0c0,-1 -1,-2 -1,-3l0 0c-2,3 -4,4 -7,4zm7 -11l0 -3 0 0c-1,0 -1,1 -3,1l-2 0c-1,1 -2,1 -2,2 -1,0 -1,1 -1,2 0,1 0,2 0,3 1,0 2,1 3,1 2,0 3,-1 4,-3 1,0 1,-1 1,-1 0,-1 0,-1 0,-2zm14 10l0 -38 0 0 3 0 4 0 0 0 0 38 0 0 -4 0 -3 0z"/>
  <path class="fil1" d="M93 108c0,0 0,2 2,2 0,4 0,6 0,8l0 10c0,2 0,2 0,2 -2,0 -4,0 -6,-2 -6,0 -10,-4 -16,-4 -2,0 -4,2 -4,4 0,4 0,6 2,11 0,4 0,4 4,4 4,0 4,0 4,-2 2,0 2,0 2,0l6 2c2,0 2,0 2,0 0,0 0,0 2,0 2,0 12,4 14,2 2,-2 2,-2 2,-4 2,-5 2,-9 2,-13l0 -6c0,0 0,-2 0,-2 2,-4 0,-4 4,-4 2,0 7,2 9,2 0,4 -4,8 -7,12 0,0 0,0 -2,2 -2,4 -4,7 -4,11 0,2 -2,0 6,2 5,0 9,0 13,0 0,0 0,-2 0,-2 -2,-2 -2,-2 -4,-2 2,-5 8,-13 10,-19 2,-4 2,-8 0,-12 0,0 -2,-2 -2,-2 -2,-2 -4,-2 -8,-4 0,0 -2,0 -2,0 -4,-2 -4,-6 -2,-10 0,0 0,-2 0,-2l0 -2c6,0 12,0 16,-2 0,0 0,-2 2,-2 2,-2 2,-6 4,-8 0,0 0,0 0,0 0,0 0,0 0,0l2 -2c0,0 0,0 2,-2 0,0 -2,-2 -2,-4 2,0 6,0 8,0 2,-2 6,-2 6,-4 2,0 2,0 2,0 0,0 2,-2 2,-4 0,-2 -4,-5 -6,-5 0,0 -2,0 -2,0 -2,0 -2,0 -2,0 -2,-2 -2,-4 -4,-6 -4,-4 -8,0 -8,4 0,2 0,5 0,7 0,2 0,2 2,2 0,2 0,4 0,6 0,0 -2,0 -2,0 -2,2 -4,4 -6,6l-2 2c0,0 -2,2 -4,2 0,0 -4,-4 -4,-4 -2,-2 -2,-4 -4,-4 0,-2 0,-4 0,-6 0,-2 0,0 0,-2l2 0c0,0 0,0 0,-2 2,-2 0,-11 -2,-15 0,0 0,-2 -2,-2 -9,0 -15,2 -13,12 2,3 2,5 2,7 0,0 0,2 0,2 -4,4 -6,10 -6,16 0,4 -2,6 -2,10 -2,4 -6,12 -6,16l0 0z"/>
  <path class="fil1" d="M178 11c0,4 0,6 0,8 2,2 2,2 2,2 0,2 0,2 2,2 2,0 4,0 4,4 0,2 -2,4 -4,6 -2,0 -6,4 -6,6 0,2 2,4 4,8 0,0 0,2 0,2 -2,0 -2,0 -4,0l-4 0c-2,0 -8,0 -10,2 -2,0 -4,2 -4,2 6,4 14,0 20,2 2,0 2,0 2,5 0,4 -2,6 -2,8 -2,8 -4,14 -4,20 0,2 0,4 0,6 0,0 0,0 2,0 2,2 2,2 4,4 0,4 0,12 -2,16 0,0 0,2 0,2 0,4 0,8 0,10 -2,4 -2,10 -4,13 0,2 -2,2 -4,2 0,2 0,2 0,4 2,0 4,2 8,0 2,-2 4,-4 4,-6 0,2 0,4 2,4 0,2 0,2 0,2 0,0 0,0 0,0 2,-2 2,-6 2,-9 0,0 2,-2 2,-4 0,0 -2,-2 -2,-4 0,-2 0,-6 0,-10 2,-2 2,-2 2,-4l2 4c0,0 0,0 0,0l2 8c0,4 2,8 2,15 0,0 -2,2 -2,2 0,0 -2,2 -2,2 0,2 0,0 0,2 2,0 2,0 4,0l0 0c3,0 5,-2 5,-2 0,0 2,0 2,-2 0,0 0,0 0,0 0,0 0,0 0,-2 0,0 0,0 0,0l2 2c0,0 0,0 2,0 0,0 0,0 0,0 0,0 0,0 0,-2 0,-2 0,-5 0,-7 -2,-8 -4,-4 -4,-10 -2,-2 -2,-4 -2,-4 0,-4 0,-8 0,-12 0,-2 -2,-2 -2,-4 0,-2 0,-2 -3,-4 0,0 0,-2 0,-2 0,0 0,0 3,0 2,0 2,0 4,-2 2,0 2,0 2,-4 0,0 0,0 0,-2 0,0 0,-2 0,-2l-2 -8c0,0 0,0 0,-2 0,-4 0,-8 -2,-14 -2,-4 -5,-7 -5,-13 0,0 0,-2 0,-4 5,0 0,2 7,2 0,-2 0,-2 0,-2 0,0 -2,-2 -2,-2l4 0c0,-2 0,-2 2,-2 0,0 0,-2 0,-2 0,0 4,0 4,0 2,0 0,0 2,0l0 0 -2 0c0,-2 0,-2 0,-4 -2,0 0,-2 0,-2 0,0 0,0 0,0 0,0 0,2 0,2 2,-2 2,-2 2,-2 0,-2 0,-2 0,-4 0,-2 0,-2 0,-2 -2,0 -4,-2 -4,-4 0,0 4,0 4,-4 0,0 -2,2 -4,0 0,0 0,-2 0,-2 0,0 0,0 -2,0l0 -4c0,0 -2,-2 -2,-2l-4 -6c-2,-6 -9,-8 -15,-6 -4,2 -6,6 -6,10l0 0z"/>
  <path class="fil1" d="M28 203c6,0 13,6 13,15 0,6 -7,12 -13,12 -8,0 -14,-6 -14,-12 0,-9 6,-15 14,-15z"/>
  <rect class="fil2" width="280" height="237"/>
 </g>
</svg>
