<?xml version="1.0" encoding="UTF-8"?>
<!DOCTYPE svg PUBLIC "-//W3C//DTD SVG 1.1//EN" "http://www.w3.org/Graphics/SVG/1.1/DTD/svg11.dtd">
<!-- Creator: CorelDRAW X8 -->
<svg xmlns="http://www.w3.org/2000/svg" xml:space="preserve" width="83.7443mm" height="28.6169mm" version="1.1" style="shape-rendering:geometricPrecision; text-rendering:geometricPrecision; image-rendering:optimizeQuality; fill-rule:evenodd; clip-rule:evenodd"
viewBox="0 0 2177 744"
 xmlns:xlink="http://www.w3.org/1999/xlink">
 <defs>
  <style type="text/css">
   <![CDATA[
    .str0 {stroke:white;stroke-width:19.4931}
    .fil0 {fill:none}
    .fil1 {fill:#FEFEFE;fill-rule:nonzero}
   ]]>
  </style>
 </defs>
 <g id="图层_x0020_1">
  <metadata id="CorelCorpID_0Corel-Layer"/>
  <path class="fil0 str0" d="M689 233c39,0 70,31 70,70 0,38 -31,70 -70,70 -19,0 -37,-8 -50,-21 -10,20 -26,38 -47,55l-80 0 -80 0c-41,-33 -62,-73 -62,-114l0 -79 142 0 143 0 0 28c10,-6 22,-9 34,-9zm0 35c19,0 34,16 34,35 0,19 -15,34 -34,34 -19,0 -34,-15 -34,-34 0,-19 15,-35 34,-35z"/>
  <polygon class="fil0 str0" points="512,432 310,430 379,470 512,470 645,470 714,430 "/>
  <path class="fil0 str0" d="M417 9c0,0 61,27 23,90 -28,47 -2,73 -2,73 -1,1 -60,-12 -15,-88 26,-44 -6,-74 -6,-75z"/>
  <path class="fil0 str0" d="M500 9c0,0 61,27 23,90 -28,47 -2,73 -2,73 -1,1 -60,-12 -16,-88 27,-44 -5,-74 -5,-75z"/>
  <path class="fil0 str0" d="M583 9c0,0 61,27 23,90 -28,47 -2,73 -3,73 0,1 -59,-12 -15,-88 26,-44 -6,-74 -5,-75z"/>
  <path class="fil1" d="M131 681c0,10 -2,19 -5,27 -4,7 -9,14 -16,19 -6,6 -14,10 -23,13 -9,2 -18,4 -28,4 -8,0 -14,-1 -20,-2 -6,-1 -12,-3 -17,-5 -4,-1 -8,-3 -12,-5 -3,-2 -5,-3 -6,-5 -2,-1 -2,-3 -3,-5 -1,-2 -1,-4 -1,-8 0,-2 0,-4 0,-6 1,-1 1,-3 1,-4 1,-1 1,-1 2,-2 1,0 1,0 2,0 2,0 4,1 7,2 3,2 6,4 11,7 4,2 9,4 15,6 7,2 14,3 22,3 6,0 12,-1 17,-3 5,-2 9,-4 13,-7 4,-3 6,-7 8,-11 2,-4 3,-9 3,-15 0,-6 -1,-11 -4,-15 -2,-5 -6,-8 -11,-12 -4,-3 -9,-6 -15,-8 -6,-3 -12,-6 -18,-9 -6,-2 -12,-6 -17,-9 -6,-3 -11,-7 -16,-12 -4,-5 -8,-10 -10,-16 -3,-6 -5,-14 -5,-22 0,-9 2,-17 5,-24 3,-7 8,-13 14,-18 5,-4 12,-8 20,-10 8,-3 17,-4 26,-4 5,0 9,0 14,1 5,1 9,2 14,3 4,2 8,3 11,5 3,2 5,3 6,4 1,1 2,2 2,3 1,0 1,1 1,2 0,1 1,2 1,3 0,2 0,3 0,5 0,2 0,4 0,6 -1,1 -1,3 -1,4 0,1 -1,1 -1,2 -1,0 -2,1 -3,1 -1,0 -3,-1 -5,-3 -3,-1 -6,-3 -10,-5 -3,-2 -8,-4 -13,-5 -5,-2 -11,-3 -17,-3 -6,0 -11,1 -16,3 -4,1 -8,3 -10,6 -3,3 -5,6 -7,9 -1,4 -2,8 -2,12 0,6 1,11 4,15 3,4 7,8 11,12 5,3 10,6 16,9 5,2 11,5 17,8 6,3 12,6 18,9 6,3 11,7 16,12 4,5 8,10 11,16 3,6 4,14 4,22zm178 -25c0,4 -1,7 -3,9 -2,2 -4,3 -7,3l-97 0c0,8 0,16 2,22 2,7 4,13 8,17 4,5 9,9 15,11 6,3 14,4 23,4 7,0 13,-1 19,-2 5,-1 10,-2 14,-4 4,-1 7,-2 10,-3 2,-2 4,-2 6,-2 0,0 1,0 2,0 0,1 1,1 1,2 0,1 1,2 1,3 0,2 0,3 0,5 0,2 0,3 0,4 0,1 0,2 -1,3 0,1 0,1 0,2 -1,1 -1,1 -2,2 0,0 -2,1 -5,3 -3,1 -7,2 -12,4 -4,1 -10,2 -16,3 -6,1 -13,2 -20,2 -12,0 -23,-2 -32,-5 -9,-4 -17,-9 -23,-15 -6,-7 -11,-16 -14,-26 -3,-10 -5,-21 -5,-35 0,-13 2,-24 5,-34 4,-10 8,-19 14,-26 7,-7 14,-12 23,-16 9,-4 19,-6 29,-6 12,0 22,2 30,6 8,3 15,8 20,15 5,6 9,13 12,22 2,8 3,18 3,27l0 5zm-27 -8c0,-14 -3,-25 -9,-33 -7,-9 -17,-13 -30,-13 -7,0 -13,2 -18,4 -5,3 -9,6 -12,10 -4,4 -6,9 -8,15 -2,5 -3,11 -3,17l80 0zm171 -50c0,3 0,5 0,6 -1,2 -1,3 -1,4 0,1 -1,2 -1,2 -1,1 -1,1 -2,1 -1,0 -2,0 -4,-1 -1,0 -2,-1 -4,-1 -1,-1 -3,-1 -5,-2 -2,0 -4,0 -7,0 -2,0 -5,0 -8,1 -2,1 -5,3 -8,6 -3,2 -6,6 -9,10 -3,4 -7,9 -11,15l0 98c0,1 0,1 0,2 -1,0 -1,1 -2,1 -1,1 -3,1 -4,1 -2,1 -4,1 -7,1 -3,0 -5,0 -7,-1 -2,0 -3,0 -4,-1 -1,0 -2,-1 -2,-1 -1,-1 -1,-1 -1,-2l0 -148c0,-1 0,-2 1,-3 0,0 1,-1 2,-1 1,-1 2,-1 3,-1 2,0 4,-1 7,-1 2,0 4,1 6,1 1,0 2,0 3,1 1,0 2,1 2,1 1,1 1,2 1,3l0 21c4,-6 8,-11 11,-14 4,-4 7,-7 10,-9 4,-2 7,-4 10,-5 3,0 6,-1 9,-1 2,0 3,0 5,0 2,1 4,1 6,1 2,1 4,1 5,2 2,0 3,1 3,1 1,1 2,1 2,2 0,0 0,1 0,2 1,1 1,2 1,3 0,2 0,4 0,6zm170 -10c0,1 0,1 0,2 0,0 0,1 0,1 0,1 0,1 -1,2 0,1 0,1 0,2l-51 141c0,1 -1,2 -1,3 -1,1 -2,1 -4,2 -1,0 -3,0 -5,1 -2,0 -5,0 -8,0 -3,0 -6,0 -8,-1 -3,0 -4,0 -6,-1 -1,0 -2,-1 -3,-1 -1,-1 -1,-2 -2,-3l-50 -141c-1,-1 -1,-2 -1,-3 0,-1 -1,-2 -1,-3 0,0 0,0 0,-1 0,-1 0,-1 1,-2 0,-1 1,-1 2,-2 1,0 3,0 4,0 2,0 4,-1 7,-1 3,0 5,1 7,1 2,0 4,0 5,1 1,0 2,1 2,1 0,1 1,2 1,3l42 122 1 2 0 -2 42 -122c0,-1 0,-2 1,-3 0,0 1,-1 2,-1 1,-1 3,-1 4,-1 2,0 5,-1 8,-1 2,0 4,1 6,1 1,0 3,0 4,0 1,1 1,1 2,2 0,1 0,1 0,2zm74 149c0,1 -1,1 -1,2 -1,0 -1,1 -2,1 -1,1 -3,1 -4,1 -2,1 -4,1 -7,1 -3,0 -5,0 -7,-1 -2,0 -3,0 -4,-1 -1,0 -2,-1 -2,-1 -1,-1 -1,-1 -1,-2l0 -148c0,-1 0,-2 1,-3 0,0 1,-1 2,-1 1,-1 2,-1 4,-1 2,0 4,-1 7,-1 3,0 5,1 7,1 1,0 3,0 4,1 1,0 1,1 2,1 0,1 1,2 1,3l0 148zm3 -198c0,6 -2,10 -4,13 -3,2 -7,3 -13,3 -7,0 -11,-1 -14,-3 -2,-2 -3,-7 -3,-13 0,-6 1,-11 4,-13 2,-2 6,-3 13,-3 6,0 11,1 13,3 2,2 4,6 4,13zm168 175c0,2 0,3 0,5 0,1 0,2 -1,3 0,1 0,2 -1,3 0,0 -1,1 -2,3 -2,1 -4,3 -7,5 -3,2 -7,4 -11,5 -4,2 -9,3 -14,4 -5,1 -10,2 -15,2 -10,0 -20,-2 -28,-6 -8,-3 -15,-8 -21,-15 -5,-7 -9,-15 -12,-25 -3,-9 -5,-21 -5,-34 0,-14 2,-27 6,-37 3,-11 8,-19 14,-26 7,-7 14,-11 22,-15 9,-3 18,-5 27,-5 5,0 10,1 14,2 5,1 9,2 12,3 4,2 8,3 10,5 3,2 5,4 7,5 1,1 2,2 2,3 1,1 1,2 2,3 0,1 0,2 0,3 0,2 0,3 0,5 0,5 0,8 -1,9 -1,2 -2,3 -4,3 -1,0 -3,-1 -5,-3 -2,-2 -5,-4 -8,-6 -4,-2 -8,-4 -12,-6 -5,-2 -11,-3 -17,-3 -13,0 -23,5 -30,15 -7,10 -10,25 -10,44 0,9 0,18 2,25 2,7 5,13 8,18 4,5 8,8 13,11 5,2 11,3 18,3 6,0 12,-1 16,-3 5,-2 9,-4 12,-6 4,-3 7,-5 9,-7 3,-2 4,-3 6,-3 0,0 1,1 2,1 0,0 1,1 1,2 0,1 1,3 1,4 0,2 0,4 0,6zm177 -58c0,4 -1,7 -3,9 -2,2 -4,3 -7,3l-97 0c0,8 0,16 2,22 2,7 4,13 8,17 4,5 9,9 15,11 6,3 14,4 23,4 7,0 13,-1 19,-2 5,-1 10,-2 14,-4 4,-1 7,-2 10,-3 2,-2 4,-2 5,-2 1,0 2,0 3,0 0,1 1,1 1,2 0,1 1,2 1,3 0,2 0,3 0,5 0,2 0,3 0,4 0,1 0,2 -1,3 0,1 0,1 0,2 -1,1 -1,1 -2,2 -1,0 -2,1 -5,3 -3,1 -7,2 -12,4 -5,1 -10,2 -16,3 -6,1 -13,2 -20,2 -12,0 -23,-2 -32,-5 -9,-4 -17,-9 -23,-15 -6,-7 -11,-16 -14,-26 -3,-10 -5,-21 -5,-35 0,-13 2,-24 5,-34 3,-10 8,-19 14,-26 7,-7 14,-12 23,-16 9,-4 18,-6 29,-6 12,0 22,2 30,6 8,3 15,8 20,15 5,6 9,13 12,22 2,8 3,18 3,27l0 5zm-27 -8c0,-14 -3,-25 -9,-33 -7,-9 -17,-13 -30,-13 -7,0 -13,2 -18,4 -5,3 -9,6 -12,10 -4,4 -6,9 -8,15 -2,5 -3,11 -3,17l80 0z"/>
  <path class="fil1" d="M1623 259c25,0 46,5 64,15 17,10 30,24 39,42 9,19 14,40 14,65 0,18 -3,35 -8,50 -4,14 -12,27 -22,38 -10,11 -22,20 -36,25 -15,6 -31,9 -50,9 -18,0 -35,-3 -49,-9 -15,-6 -27,-14 -37,-25 -9,-11 -17,-24 -22,-39 -5,-15 -7,-32 -7,-50 0,-18 2,-34 8,-49 5,-16 12,-28 22,-39 10,-11 22,-19 36,-24 14,-6 30,-9 48,-9zm68 121c0,-17 -2,-32 -8,-45 -6,-12 -13,-22 -24,-28 -10,-7 -22,-10 -36,-10 -9,0 -18,2 -26,5 -8,4 -15,9 -21,16 -6,7 -10,16 -14,26 -3,11 -5,23 -5,36 0,14 2,26 5,37 4,11 8,20 15,27 6,7 13,12 21,16 8,3 17,5 26,5 12,0 24,-3 34,-9 10,-6 18,-16 24,-28 6,-13 9,-29 9,-48zm247 -80l-94 0 0 60 79 0c7,0 13,2 16,5 4,4 6,8 6,13 0,6 -2,10 -6,13 -4,4 -9,5 -16,5l-79 0 0 78c0,10 -2,17 -7,22 -4,5 -10,7 -17,7 -7,0 -13,-2 -17,-7 -4,-5 -7,-12 -7,-22l0 -182c0,-7 1,-12 3,-16 2,-5 6,-8 10,-10 4,-2 10,-3 17,-3l112 0c8,0 14,2 17,5 4,4 6,8 6,13 0,6 -2,11 -6,14 -3,3 -9,5 -17,5zm216 0l-94 0 0 60 79 0c7,0 12,2 16,5 3,4 5,8 5,13 0,6 -2,10 -5,13 -4,4 -9,5 -16,5l-79 0 0 78c0,10 -2,17 -7,22 -4,5 -10,7 -17,7 -7,0 -13,-2 -17,-7 -5,-5 -7,-12 -7,-22l0 -182c0,-7 1,-12 3,-16 2,-5 5,-8 10,-10 4,-2 10,-3 16,-3l113 0c8,0 13,2 17,5 4,4 6,8 6,13 0,6 -2,11 -6,14 -4,3 -9,5 -17,5z"/>
 </g>
</svg>
