<?xml version="1.0" encoding="UTF-8"?>
<!DOCTYPE svg PUBLIC "-//W3C//DTD SVG 1.1//EN" "http://www.w3.org/Graphics/SVG/1.1/DTD/svg11.dtd">
<!-- Creator: CorelDRAW X8 -->
<svg xmlns="http://www.w3.org/2000/svg" xml:space="preserve" width="77.0668mm" height="28.6169mm" version="1.1" style="shape-rendering:geometricPrecision; text-rendering:geometricPrecision; image-rendering:optimizeQuality; fill-rule:evenodd; clip-rule:evenodd"
viewBox="0 0 1843 684"
 xmlns:xlink="http://www.w3.org/1999/xlink">
 <defs>
  <style type="text/css">
   <![CDATA[
    .str0 {stroke:white;stroke-width:17.9388}
    .fil0 {fill:none}
    .fil1 {fill:#FEFEFE;fill-rule:nonzero}
    .fil2 {fill:#332C2B;fill-rule:nonzero}
   ]]>
  </style>
 </defs>
 <g id="图层_x0020_1">
  <metadata id="CorelCorpID_0Corel-Layer"/>
  <path class="fil0 str0" d="M634 214c36,0 64,29 64,65 0,35 -28,64 -64,64 -18,0 -34,-8 -46,-19 -9,18 -24,35 -43,50l-74 0 -74 0c-37,-29 -57,-67 -57,-105l0 -72 131 0 131 0 0 26c10,-6 21,-9 32,-9zm0 33c18,0 32,14 32,32 0,17 -14,31 -32,31 -17,0 -32,-14 -32,-31 0,-18 15,-32 32,-32z"/>
  <polygon class="fil0 str0" points="471,398 285,396 349,433 471,433 594,433 657,396 "/>
  <path class="fil0 str0" d="M384 9c0,-1 56,24 21,82 -26,43 -2,67 -2,68 -1,0 -55,-12 -14,-81 24,-41 -5,-69 -5,-69z"/>
  <path class="fil0 str0" d="M460 9c0,-1 56,24 21,82 -26,43 -2,67 -2,68 -1,0 -55,-12 -14,-81 24,-41 -5,-69 -5,-69z"/>
  <path class="fil0 str0" d="M536 9c1,-1 57,24 22,82 -26,43 -2,67 -3,68 0,0 -55,-12 -14,-81 24,-41 -5,-69 -5,-69z"/>
  <path class="fil1" d="M121 627c0,9 -2,17 -6,24 -3,7 -8,13 -14,18 -6,5 -13,9 -21,12 -8,2 -17,3 -26,3 -7,0 -13,0 -18,-1 -6,-1 -11,-3 -15,-4 -5,-2 -8,-4 -11,-5 -3,-2 -5,-4 -7,-5 -1,-1 -2,-3 -2,-4 -1,-2 -1,-5 -1,-8 0,-2 0,-4 0,-5 1,-2 1,-3 1,-4 1,-1 1,-1 2,-2 0,0 1,0 2,0 1,0 3,1 6,2 2,2 6,4 10,6 4,2 9,4 14,6 6,1 13,2 20,2 6,0 11,-1 16,-2 4,-2 8,-4 12,-7 3,-2 6,-6 8,-10 1,-4 2,-8 2,-13 0,-6 -1,-11 -3,-15 -3,-4 -6,-7 -10,-10 -5,-3 -9,-6 -15,-8 -5,-3 -10,-5 -16,-8 -5,-2 -11,-5 -16,-8 -5,-3 -10,-7 -14,-11 -4,-5 -8,-10 -10,-15 -3,-6 -4,-13 -4,-21 0,-8 1,-15 4,-22 3,-6 8,-11 13,-16 5,-4 11,-7 19,-10 7,-2 15,-3 23,-3 5,0 9,0 13,1 5,1 9,2 13,3 4,1 7,3 10,4 3,2 5,3 6,4 1,1 2,2 2,2 0,1 1,2 1,3 0,0 0,2 0,3 0,1 0,2 0,4 0,2 0,4 0,5 0,2 0,3 -1,4 0,1 0,2 -1,2 0,0 -1,1 -2,1 -1,0 -3,-1 -5,-2 -2,-2 -5,-3 -9,-5 -3,-2 -7,-4 -12,-5 -4,-2 -10,-2 -16,-2 -5,0 -10,0 -14,2 -4,1 -7,3 -10,6 -2,2 -4,5 -6,8 -1,4 -2,7 -2,11 0,5 2,10 4,14 3,4 6,7 10,10 4,3 9,6 15,9 5,2 10,5 16,7 5,3 11,6 16,9 6,3 10,7 15,11 4,4 7,9 10,15 2,5 4,12 4,20zm164 -23c0,4 -1,7 -3,8 -2,2 -4,3 -7,3l-89 0c0,7 0,14 2,20 1,6 4,12 7,16 4,4 9,7 14,10 6,2 13,3 21,3 6,0 12,0 17,-1 5,-1 10,-2 13,-4 4,-1 7,-2 9,-3 3,-1 5,-2 6,-2 0,0 1,0 2,1 0,0 1,0 1,1 0,1 0,2 1,3 0,1 0,3 0,5 0,1 0,2 0,3 0,1 -1,2 -1,3 0,0 0,1 0,2 -1,0 -1,1 -2,1 0,1 -2,2 -5,3 -2,1 -6,3 -10,4 -5,1 -10,2 -15,3 -6,1 -12,1 -19,1 -11,0 -20,-1 -29,-4 -8,-3 -15,-8 -21,-14 -6,-6 -10,-14 -13,-23 -3,-10 -4,-20 -4,-33 0,-11 1,-22 4,-31 3,-10 7,-18 13,-24 6,-7 13,-11 21,-15 8,-3 17,-5 27,-5 11,0 20,1 27,5 8,3 14,8 19,14 4,6 8,12 10,20 3,8 4,16 4,25l0 5zm-25 -8c0,-13 -3,-23 -9,-30 -6,-8 -15,-12 -27,-12 -7,0 -12,1 -17,4 -4,2 -8,5 -11,9 -3,4 -6,8 -8,13 -1,6 -2,11 -2,16l74 0zm157 -46c0,3 0,5 -1,6 0,2 0,3 0,4 0,0 -1,1 -1,2 -1,0 -1,0 -2,0 -1,0 -2,0 -3,0 -1,-1 -3,-1 -4,-2 -1,0 -3,-1 -5,-1 -2,0 -4,-1 -6,-1 -2,0 -5,1 -7,2 -3,1 -5,3 -8,5 -2,2 -5,5 -8,9 -3,4 -6,9 -10,14l0 90c0,1 0,1 -1,2 0,0 -1,1 -1,1 -1,1 -3,1 -4,1 -2,1 -4,1 -7,1 -2,0 -4,0 -6,-1 -1,0 -3,0 -3,-1 -1,0 -2,-1 -2,-1 -1,-1 -1,-1 -1,-2l0 -136c0,-1 0,-2 0,-2 1,-1 1,-1 2,-2 1,0 2,-1 4,-1 1,0 3,0 5,0 3,0 5,0 6,0 1,0 3,1 3,1 1,1 2,1 2,2 0,0 1,1 1,2l0 19c3,-5 7,-9 10,-13 3,-3 7,-6 9,-8 3,-2 6,-3 9,-4 3,-1 6,-1 9,-1 1,0 3,0 4,0 2,0 4,0 6,1 1,0 3,1 4,1 2,1 3,1 4,2 0,0 1,1 1,1 0,1 0,1 0,2 0,1 1,2 1,3 0,1 0,3 0,5zm156 -9c0,1 0,1 0,2 0,0 0,1 0,1 0,1 0,1 0,2 0,0 -1,1 -1,2l-46 129c-1,1 -1,2 -2,3 0,1 -1,1 -3,2 -1,0 -3,0 -5,0 -2,1 -4,1 -7,1 -3,0 -6,0 -8,-1 -2,0 -4,0 -5,-1 -1,0 -2,-1 -3,-1 0,-1 -1,-2 -1,-3l-47 -129c0,-2 0,-3 -1,-3 0,-1 0,-2 0,-3 0,0 0,0 0,-1 0,0 0,-1 0,-2 1,0 1,-1 2,-1 1,-1 3,-1 4,-1 2,0 4,0 6,0 3,0 5,0 7,0 2,0 3,1 4,1 1,0 2,1 2,2 1,0 1,1 2,2l38 112 1 2 0 -2 38 -112c0,-1 1,-2 1,-2 1,-1 1,-2 2,-2 1,0 3,-1 4,-1 2,0 4,0 7,0 2,0 4,0 6,0 1,0 2,0 3,1 1,0 2,1 2,1 0,1 0,2 0,2zm68 137c0,1 0,1 -1,2 0,0 -1,1 -2,1 -1,1 -2,1 -3,1 -2,1 -4,1 -7,1 -2,0 -4,0 -6,-1 -1,0 -3,0 -4,-1 -1,0 -1,-1 -2,-1 0,-1 0,-1 0,-2l0 -136c0,-1 0,-2 0,-2 1,-1 1,-1 2,-2 1,0 3,-1 4,-1 2,0 4,0 6,0 3,0 5,0 7,0 1,0 2,1 3,1 1,1 2,1 2,2 1,0 1,1 1,2l0 136zm3 -182c0,6 -1,10 -4,12 -2,2 -6,3 -12,3 -6,0 -10,-1 -12,-3 -2,-2 -3,-6 -3,-12 0,-6 1,-10 3,-12 2,-2 6,-3 12,-3 6,0 10,1 13,3 2,2 3,6 3,12zm155 161c0,2 0,3 0,4 0,2 0,3 -1,4 0,0 0,1 -1,2 0,1 -1,2 -2,3 -1,1 -3,3 -6,4 -4,2 -7,4 -11,6 -4,1 -8,2 -12,3 -5,1 -9,1 -14,1 -10,0 -18,-1 -26,-4 -7,-4 -14,-8 -19,-15 -5,-6 -9,-13 -12,-22 -2,-9 -4,-20 -4,-32 0,-13 2,-24 5,-34 4,-10 8,-18 14,-24 6,-6 12,-10 20,-13 8,-3 16,-5 25,-5 4,0 9,0 13,1 4,1 7,2 11,3 3,2 6,3 9,5 3,2 5,3 6,4 1,2 2,3 2,3 1,1 1,2 2,3 0,1 0,2 0,3 0,1 0,3 0,5 0,4 0,6 -1,8 -1,1 -2,2 -3,2 -2,0 -4,-1 -6,-2 -2,-2 -4,-4 -7,-6 -3,-2 -7,-4 -11,-5 -4,-2 -9,-3 -15,-3 -12,0 -22,5 -28,14 -6,9 -10,23 -10,40 0,9 1,17 3,23 2,7 4,12 7,17 4,4 7,7 12,10 5,2 10,3 16,3 6,0 11,-1 15,-3 5,-2 9,-4 12,-6 3,-2 6,-4 8,-6 2,-2 4,-3 5,-3 1,0 1,1 2,1 0,0 1,1 1,2 0,1 1,2 1,4 0,1 0,3 0,5zm163 -53c0,4 -1,7 -3,8 -2,2 -4,3 -7,3l-89 0c0,7 1,14 2,20 2,6 4,12 8,16 3,4 8,7 13,10 6,2 13,3 21,3 7,0 12,0 17,-1 5,-1 10,-2 14,-4 3,-1 6,-2 9,-3 2,-1 4,-2 5,-2 1,0 1,0 2,1 0,0 1,0 1,1 0,1 1,2 1,3 0,1 0,3 0,5 0,1 0,2 0,3 0,1 0,2 0,3 -1,0 -1,1 -1,2 -1,0 -1,1 -2,1 0,1 -2,2 -4,3 -3,1 -7,3 -11,4 -4,1 -9,2 -15,3 -6,1 -12,1 -18,1 -11,0 -21,-1 -30,-4 -8,-3 -15,-8 -21,-14 -6,-6 -10,-14 -13,-23 -3,-10 -4,-20 -4,-33 0,-11 1,-22 4,-31 3,-10 8,-18 13,-24 6,-7 13,-11 21,-15 8,-3 17,-5 27,-5 11,0 20,1 27,5 8,3 14,8 19,14 5,6 8,12 11,20 2,8 3,16 3,25l0 5zm-25 -8c0,-13 -3,-23 -9,-30 -6,-8 -15,-12 -27,-12 -6,0 -12,1 -16,4 -5,2 -9,5 -12,9 -3,4 -6,8 -7,13 -2,6 -3,11 -3,16l74 0z"/>
  <path class="fil2" d="M1495 467c-32,0 -58,-11 -77,-32 -20,-21 -29,-49 -29,-85 0,-36 9,-64 29,-84 19,-20 45,-30 77,-30 31,0 57,10 76,30 20,21 30,49 30,84 0,36 -10,64 -30,85 -19,21 -45,32 -76,32zm0 -39c17,0 31,-7 42,-21 10,-14 15,-33 15,-57 0,-24 -5,-42 -15,-56 -11,-13 -25,-20 -42,-20 -18,0 -32,7 -43,20 -10,14 -15,32 -15,56 0,24 5,43 16,57 10,14 24,21 42,21zm189 34c-15,0 -22,-7 -22,-21l0 -182c0,-5 2,-10 6,-14 3,-3 8,-5 15,-5l3 0 13 0c8,0 13,3 17,9l63 109 24 48 2 0c-1,-1 -1,-3 -1,-5 -4,-33 -6,-57 -6,-72l0 -68c0,-14 8,-21 23,-21 15,0 22,7 22,21l0 179c0,7 -2,13 -8,17 -5,4 -12,5 -20,5 -6,0 -11,-1 -16,-3 -5,-2 -9,-6 -12,-10l-60 -106 -24 -48 -2 0c0,4 1,9 2,16 2,28 4,49 4,62l0 68c0,14 -8,21 -23,21z"/>
 </g>
</svg>
