<?xml version="1.0" encoding="UTF-8"?>
<!DOCTYPE svg PUBLIC "-//W3C//DTD SVG 1.1//EN" "http://www.w3.org/Graphics/SVG/1.1/DTD/svg11.dtd">
<!-- Creator: CorelDRAW X8 -->
<svg xmlns="http://www.w3.org/2000/svg" xml:space="preserve" width="78.9677mm" height="66.7619mm" version="1.1" style="shape-rendering:geometricPrecision; text-rendering:geometricPrecision; image-rendering:optimizeQuality; fill-rule:evenodd; clip-rule:evenodd"
viewBox="0 0 602 509"
 xmlns:xlink="http://www.w3.org/1999/xlink">
 <defs>
  <style type="text/css">
   <![CDATA[
    .fil2 {fill:none}
    .fil0 {fill:#FEFEFE}
    .fil1 {fill:#FEFEFE;fill-rule:nonzero}
   ]]>
  </style>
 </defs>
 <g id="图层_x0020_1">
  <metadata id="CorelCorpID_0Corel-Layer"/>
  <path class="fil0" d="M138 432c16,0 28,13 28,28 0,16 -12,29 -28,29 -15,0 -28,-13 -28,-29 0,-15 13,-28 28,-28z"/>
  <path class="fil0" d="M428 20l0 30c2,2 3,3 5,5l0 0c19,19 19,51 0,70 -16,16 -27,28 -43,43 -4,4 -10,4 -14,0l-28 -28 -29 -29c-1,-2 -2,-4 -2,-7 0,-2 1,-5 2,-7l43 -42c12,-12 30,-17 46,-14l0 -21 -222 0 0 22c17,-4 37,0 50,13l42 42 0 0c2,2 3,5 3,7 0,3 -1,5 -3,7l-28 29 -28 28c-2,2 -5,3 -7,3 -3,0 -6,-1 -8,-3 -15,-15 -27,-27 -42,-43 -19,-19 -19,-51 0,-70 0,-1 1,-1 1,-2 0,0 0,-1 0,-1l0 -32 -30 0c-5,0 -10,-4 -10,-10 0,-5 5,-10 10,-10l322 0c6,0 10,5 10,10 0,6 -4,10 -10,10l-30 0zm-98 115l-29 25 -30 -25 -22 26 21 25 -146 125 104 2 73 -89 72 89 105 -2 -147 -125 21 -25 -22 -26z" p-id="1997"/>
  <path class="fil1" d="M248 444l0 0c0,-4 -2,-8 -4,-10 -3,-2 -7,-4 -11,-4 -4,0 -7,1 -9,3 -3,2 -4,5 -4,9 0,3 1,5 4,6 2,2 7,3 14,5 11,3 18,7 22,10 3,4 5,10 5,18 0,9 -3,15 -8,20 -6,5 -13,8 -22,8 -9,0 -17,-3 -22,-8 -5,-5 -8,-13 -8,-22l0 0 14 0 0 0c1,4 2,8 5,10 2,3 6,4 11,4 5,0 9,-1 11,-3 3,-2 4,-4 4,-8 0,-3 -1,-5 -3,-7 -2,-1 -6,-3 -12,-5 -12,-3 -19,-6 -23,-10 -4,-4 -6,-9 -6,-17 0,-9 2,-15 8,-20 5,-5 12,-8 21,-8 8,0 14,3 20,8 5,5 8,12 8,21l0 0 -15 0zm33 62l0 -89 0 0 7 0 8 0 0 0 0 32 0 0 0 0 1 -2c3,-5 8,-8 15,-8 6,0 10,2 14,6 3,4 4,10 4,17l0 44 0 0 -7 0 -7 0 0 0 0 -41c0,-4 -1,-7 -2,-9 -2,-2 -4,-3 -7,-3 -3,0 -6,2 -8,4 -2,3 -3,7 -3,12l0 0 0 37 0 0 -8 0 -7 0zm93 2c-8,0 -15,-3 -20,-9 -5,-7 -8,-15 -8,-25 0,-11 3,-19 8,-26 5,-6 12,-9 20,-9 9,0 15,3 20,9 5,7 8,15 8,26 0,10 -3,18 -8,25 -5,6 -11,9 -20,9zm0 -15c4,0 7,-1 10,-5 2,-3 3,-8 3,-14 0,-7 -1,-12 -3,-16 -3,-3 -6,-5 -10,-5 -4,0 -7,2 -10,5 -2,4 -3,9 -3,16 0,6 1,11 3,14 3,4 6,5 10,5zm54 13l-16 -65 0 0 8 0 7 0 0 0 9 48 0 0 0 0 8 -48 7 0 7 0 8 48 0 0 0 0 9 -48 0 0 7 0 8 0 0 0 -16 65 -7 0 -8 0 -8 -49 0 0 0 0 -9 49 -7 0 -7 0z"/>
  <rect class="fil2" width="602" height="508"/>
 </g>
</svg>
