<?xml version="1.0" encoding="UTF-8"?>
<!DOCTYPE svg PUBLIC "-//W3C//DTD SVG 1.1//EN" "http://www.w3.org/Graphics/SVG/1.1/DTD/svg11.dtd">
<!-- Creator: CorelDRAW X8 -->
<svg xmlns="http://www.w3.org/2000/svg" xml:space="preserve" width="237.031mm" height="65.8511mm" version="1.1" style="shape-rendering:geometricPrecision; text-rendering:geometricPrecision; image-rendering:optimizeQuality; fill-rule:evenodd; clip-rule:evenodd"
viewBox="0 0 2953 820"
 xmlns:xlink="http://www.w3.org/1999/xlink">
 <defs>
  <style type="text/css">
   <![CDATA[
    .fil1 {fill:#FEFEFE}
    .fil0 {fill:#0069B7}
   ]]>
  </style>
 </defs>
 <g id="图层_x0020_1">
  <metadata id="CorelCorpID_0Corel-Layer"/>
  <path class="fil0" d="M809 343c-29,24 -43,61 -43,111l0 218c0,51 14,88 43,112 28,24 75,36 139,36l527 0 0 -116 -465 0c-18,0 -34,-2 -45,-5 -12,-4 -21,-8 -27,-15 -6,-7 -10,-15 -13,-24 -2,-10 -3,-22 -3,-35l0 -123c0,-13 1,-24 3,-34 3,-10 7,-19 13,-25 6,-7 15,-11 27,-15 11,-3 27,-5 45,-5l465 0 0 -117 -527 0c-64,0 -111,13 -139,37z"/>
  <path class="fil0" d="M2410 467c2,-10 6,-18 12,-24 7,-7 15,-12 27,-15 12,-3 27,-5 46,-5l458 0 0 -117 -520 0c-65,0 -111,12 -140,36 -29,25 -43,62 -43,112l0 218c0,50 14,88 43,112 29,24 75,36 140,36l520 0 0 -117 -458 0c-19,0 -34,-1 -46,-5 -12,-3 -20,-8 -27,-14 -6,-7 -10,-15 -12,-25 -3,-9 -4,-21 -4,-35l0 -4 547 0 0 -117 -547 0 0 -1c0,-13 1,-25 4,-35z"/>
  <path class="fil0" d="M2173 342c-29,-24 -75,-36 -140,-36l-170 0 -171 0c-64,0 -111,12 -139,36 -29,25 -43,62 -43,112l0 366 156 0 0 -318c0,-13 1,-25 3,-35 3,-10 7,-18 13,-24 6,-7 15,-12 27,-15 11,-3 26,-5 45,-5l29 0 0 397 80 0 79 0 0 -397 29 0c19,0 34,2 46,5 11,3 20,8 26,15 7,6 11,14 13,24 3,10 4,22 4,35l0 318 156 0 0 -366c0,-50 -15,-87 -43,-112z"/>
  <path class="fil0" d="M503 343l227 -343 -68 0c-64,0 -111,12 -139,36 -7,6 -14,13 -19,21l0 0 -504 763 188 0 315 -477z"/>
  <polygon class="fil1" points="496,499 309,782 496,782 "/>
  <polygon class="fil0" points="576,378 576,820 732,820 732,142 "/>
 </g>
</svg>
