<?xml version="1.0" encoding="UTF-8"?>
<!DOCTYPE svg PUBLIC "-//W3C//DTD SVG 1.1//EN" "http://www.w3.org/Graphics/SVG/1.1/DTD/svg11.dtd">
<!-- Creator: CorelDRAW X8 -->
<svg xmlns="http://www.w3.org/2000/svg" xml:space="preserve" width="158.26mm" height="251.272mm" version="1.1" style="shape-rendering:geometricPrecision; text-rendering:geometricPrecision; image-rendering:optimizeQuality; fill-rule:evenodd; clip-rule:evenodd"
viewBox="0 0 182 288"
 xmlns:xlink="http://www.w3.org/1999/xlink">
 <defs>
  <style type="text/css">
   <![CDATA[
    .fil0 {fill:#FE87C1}
    .fil1 {fill:#FEFEFE;fill-rule:nonzero}
   ]]>
  </style>
 </defs>
 <g id="图层_x0020_1">
  <metadata id="CorelCorpID_0Corel-Layer"/>
  <path class="fil0" d="M14 0l154 0c7,0 14,6 14,14l0 260c0,8 -7,14 -14,14l-154 0c-8,0 -14,-6 -14,-14l0 -260c0,-8 6,-14 14,-14z"/>
  <path class="fil1" d="M89 174c0,0 -1,1 -1,1 -1,1 -1,1 -2,1l-38 0c0,0 -1,0 -1,-1 -1,0 -1,-1 -1,-1l0 -55c0,0 0,-1 1,-1 0,-1 1,-1 1,-1l38 0c1,0 1,0 2,1 0,0 1,1 1,1l0 55zm-6 -49c0,0 -1,-1 -1,-1 0,-1 -1,-1 -2,-1l-26 0c-1,0 -1,0 -1,1 -1,0 -1,1 -1,1l0 43c0,0 0,1 1,1 0,1 0,1 1,1l26 0c1,0 2,0 2,-1 0,0 1,-1 1,-1l0 -43zm-3 39c0,1 0,1 0,2 -1,0 -1,0 -2,0l-22 0c0,0 -1,0 -1,0 -1,-1 -1,-1 -1,-2l0 -1c0,-1 0,-1 1,-2 0,0 1,-1 1,-1l6 0c1,0 1,0 2,0 0,-1 0,-1 0,-2l0 -7c0,-1 0,-1 0,-2 -1,0 -1,0 -2,0l-6 0c0,0 -1,-1 -1,-1 -1,0 -1,-1 -1,-2l0 -1c0,-1 0,-1 1,-2 0,0 1,0 1,0l6 0c1,0 1,0 2,-1 0,0 0,-1 0,-2l0 -5c0,0 0,-1 0,-1 -1,-1 -1,-1 -2,-1l-6 0c0,0 -1,0 -1,0 -1,-1 -1,-1 -1,-2l0 -2c0,0 0,-1 1,-1 0,-1 1,-1 1,-1l22 0c1,0 1,0 2,1 0,0 0,1 0,1l0 2c0,1 0,1 0,2 -1,0 -1,0 -2,0l-5 0c-1,0 -2,0 -2,1 0,0 -1,1 -1,1l0 5c0,1 1,2 1,2 0,1 1,1 2,1l5 0c1,0 1,0 2,0 0,1 0,1 0,2l0 1c0,1 0,2 0,2 -1,0 -1,1 -2,1l-5 0c-1,0 -2,0 -2,0 0,1 -1,1 -1,2l0 7c0,1 0,1 1,2 0,0 1,0 1,0 1,0 1,0 2,0 0,-1 0,-1 0,-2l0 -2c0,-1 1,-2 1,-2 0,0 1,-1 2,-1l1 0c1,0 1,1 2,1 0,0 0,1 0,2l0 8zm34 12c0,0 -1,0 -1,-1 -1,0 -1,-1 -1,-1l0 -20c0,-1 0,-1 1,-2 0,0 1,0 1,0l25 0c0,0 1,0 1,0 1,1 1,1 1,2l0 15c0,1 0,1 -1,2 0,1 0,1 -1,2l-1 1c-1,1 -1,1 -2,1 -1,1 -1,1 -2,1l-20 0zm4 -8c0,0 0,1 1,1 0,1 1,1 1,1l13 0c0,0 1,0 1,-1 1,0 1,-1 1,-1l0 -8c0,-1 0,-1 -1,-2 0,0 -1,0 -1,0l-13 0c0,0 -1,0 -1,0 -1,1 -1,1 -1,2l0 8zm-14 6c-1,1 -1,1 -2,1 -1,1 -1,1 -2,1 0,0 -1,0 -1,-1 -1,0 -1,-1 -1,-1l0 -2c0,0 0,-1 1,-1 0,-1 0,-1 1,-1 0,0 0,0 1,-1 0,0 0,-1 0,-1l0 -32c0,-1 0,-1 0,-1 -1,-1 -1,-1 -1,-1 -1,0 -1,0 -1,-1 -1,0 -1,-1 -1,-1l0 -2c0,0 0,-1 1,-1 0,-1 1,-1 1,-1l5 0c0,0 1,0 1,1 1,0 1,1 1,1l0 39c0,1 0,1 -1,2 0,1 0,1 -1,2l-1 1zm24 -51c-1,0 -1,0 -2,1 0,0 0,1 0,1l0 2c-1,1 0,1 0,2 0,0 1,0 2,0l8 0c1,0 1,1 2,1 0,0 0,1 0,2l0 8c0,1 1,1 1,2 0,0 0,0 1,0 0,0 0,0 0,1 1,0 1,1 1,2l0 1c0,1 0,1 -1,2 0,0 -1,0 -1,0l-25 0c0,0 -1,0 -1,0 -1,-1 -1,-1 -1,-2l0 -2c0,0 0,-1 1,-1 0,-1 1,-1 1,-1l2 0c1,0 1,0 2,0 0,-1 0,-1 1,-2l0 -2c0,-1 0,-2 -1,-2 0,0 -1,-1 -1,-1l-3 0c0,0 -1,0 -1,0 -1,-1 -1,-1 -1,-2l0 -1c0,-1 0,-2 1,-2 0,0 1,-1 1,-1l3 0c1,0 1,0 2,0 0,-1 0,-1 1,-2l0 -2c0,0 0,-1 -1,-1 0,-1 -1,-1 -1,-1l-4 0c0,0 -1,0 -1,-1 -1,0 -1,-1 -1,-1l0 -2c0,0 0,-1 1,-1 0,-1 1,-1 1,-1l25 0c0,0 1,0 1,1 1,0 1,1 1,1l0 2c0,0 0,1 -1,1 0,1 -1,1 -1,1l-11 0zm-1 12c-1,0 -1,1 -2,1 0,0 0,1 0,2l-1 2c0,1 1,1 1,2 0,0 1,0 1,0l4 0c1,0 1,0 2,0 0,-1 1,-1 1,-2l0 -2c0,-1 -1,-2 -1,-2 -1,0 -1,-1 -2,-1l-3 0zm-26 -16c1,-1 1,-1 2,-1 0,0 1,0 1,1l1 1c1,0 1,1 1,1 0,1 0,2 -1,2l-1 1c0,0 -1,1 -1,1 -1,0 -1,-1 -2,-1l-1 -1c0,0 -1,-1 -1,-2 0,0 1,-1 1,-1l1 -1z"/>
 </g>
</svg>
