<?xml version="1.0" encoding="UTF-8"?>
<!DOCTYPE svg PUBLIC "-//W3C//DTD SVG 1.1//EN" "http://www.w3.org/Graphics/SVG/1.1/DTD/svg11.dtd">
<!-- Creator: CorelDRAW X8 -->
<svg xmlns="http://www.w3.org/2000/svg" xml:space="preserve" width="158.26mm" height="251.272mm" version="1.1" style="shape-rendering:geometricPrecision; text-rendering:geometricPrecision; image-rendering:optimizeQuality; fill-rule:evenodd; clip-rule:evenodd"
viewBox="0 0 173 275"
 xmlns:xlink="http://www.w3.org/1999/xlink">
 <defs>
  <style type="text/css">
   <![CDATA[
    .fil0 {fill:#9B72F4}
    .fil1 {fill:#FEFEFE;fill-rule:nonzero}
   ]]>
  </style>
 </defs>
 <g id="图层_x0020_1">
  <metadata id="CorelCorpID_0Corel-Layer"/>
  <path class="fil0" d="M13 0l147 0c7,0 13,6 13,13l0 249c0,7 -6,13 -13,13l-147 0c-7,0 -13,-6 -13,-13l0 -249c0,-7 6,-13 13,-13z"/>
  <path class="fil1" d="M79 115c1,-1 1,-1 1,-2 0,0 0,0 0,-1 1,0 1,0 2,0l1 0c1,0 1,0 2,0 0,1 0,1 0,1 0,1 1,1 1,2 0,0 1,0 1,0 1,0 1,0 2,1 0,0 0,1 0,1l0 2c0,0 0,1 0,1 -1,1 -1,1 -2,1 0,0 -1,0 -1,0 0,1 -1,1 -1,1 0,1 0,1 0,1 -1,1 -1,1 -2,1l-1 0c-1,0 -1,0 -2,-1 0,0 0,0 0,-1 0,0 0,0 -1,-1 0,0 -1,0 -1,0l-18 0c-1,0 -1,0 -1,0 -1,1 -1,1 -1,1 0,1 0,1 -1,1 0,1 -1,1 -1,1l-2 0c0,0 -1,0 -1,-1 0,0 -1,0 -1,-1 0,0 0,0 0,-1 -1,0 -1,0 -1,0 -1,0 -1,0 -2,-1 0,0 0,-1 0,-1l0 -2c0,0 0,-1 0,-1 1,-1 1,-1 2,-1 0,0 0,0 1,0 0,-1 0,-1 0,-2 0,0 1,0 1,-1 0,0 1,0 1,0l2 0c0,0 1,0 1,0 1,1 1,1 1,1 0,1 0,1 1,2 0,0 1,0 1,0l18 0c0,0 1,0 1,0zm-24 47c0,0 1,0 2,0 0,-1 1,-1 1,-1l5 -5c0,-1 0,-1 0,-1 0,-1 0,-1 -1,-1l-11 0c-1,0 -1,0 -2,-1 0,0 0,0 0,-1l0 -1c0,-1 0,-2 0,-2 0,0 0,-1 1,-1 0,0 0,0 1,0 0,-1 0,-1 0,-2l0 -15c0,-1 0,-1 0,-2 1,0 1,-1 2,-1l11 0c0,0 1,0 1,0 1,0 1,-1 1,-1 0,-1 0,-1 1,-1 0,-1 1,-1 1,-1l2 0c0,0 1,0 1,1 1,0 1,0 1,1 0,0 0,1 0,1 1,0 1,0 2,0l11 0c0,0 1,1 1,1 1,1 1,1 1,2l0 15c0,1 0,1 0,2 1,0 1,0 1,0 0,0 1,1 1,1 0,0 0,1 0,2l0 1c0,1 0,1 0,1 -1,1 -1,1 -2,1l-11 0c-1,0 -1,0 -1,1 0,0 0,0 0,1l5 5c0,0 0,0 1,1 1,0 1,0 2,0l4 0c1,0 1,0 2,1 0,0 0,1 0,1l0 2c0,0 0,1 0,1 -1,1 -1,1 -2,1l-7 0c0,0 -1,0 -1,-1 -1,0 -2,0 -2,-1l-7 -7c0,0 -1,0 -1,0 -1,0 -1,0 -2,0l-6 7c0,1 -1,1 -2,1 0,1 -1,1 -2,1l-6 0c-1,0 -1,0 -2,-1 0,0 0,-1 0,-1l0 -2c0,0 0,-1 0,-1 1,-1 1,-1 2,-1l4 0zm19 -28c-1,0 -1,0 -2,1 0,0 0,1 0,1l0 10c0,1 0,1 0,2 1,0 1,0 2,0l5 0c1,0 1,0 2,0 0,-1 0,-1 0,-2l0 -10c0,0 0,-1 0,-1 -1,-1 -1,-1 -2,-1l-5 0zm-17 12c0,1 0,1 0,2 1,0 1,0 2,0l5 0c0,0 1,0 1,0 1,-1 1,-1 1,-2l0 -10c0,0 0,-1 -1,-1 0,-1 -1,-1 -1,-1l-5 0c-1,0 -1,0 -2,1 0,0 0,1 0,1l0 10zm57 22c-1,0 -1,0 -2,-1 0,0 0,-1 0,-1l0 -19c0,-1 0,-1 0,-2 1,0 1,0 2,0l23 0c1,0 1,0 2,0 0,1 0,1 0,2l0 14c0,1 0,1 0,2 -1,1 -1,1 -1,2l-2 1c0,1 -1,1 -2,1 0,1 -1,1 -1,1l-19 0zm3 -8c0,1 1,1 1,2 0,0 1,0 2,0l11 0c1,0 1,0 2,0 0,-1 0,-1 0,-2l0 -7c0,-1 0,-2 0,-2 -1,0 -1,-1 -2,-1l-11 0c-1,0 -2,1 -2,1 0,0 -1,1 -1,2l0 7zm-13 6c-1,1 -1,1 -2,1 -1,1 -1,1 -2,1 0,0 -1,0 -1,-1 0,0 -1,-1 -1,-1l0 -2c0,0 1,-1 1,-1 0,-1 0,-1 1,-1 0,0 0,0 1,0 0,-1 0,-1 0,-2l0 -30c0,-1 0,-1 0,-2 -1,0 -1,0 -1,0 -1,0 -1,0 -1,-1 0,0 -1,-1 -1,-1l0 -2c0,0 1,-1 1,-1 1,-1 1,-1 2,-1l4 0c0,0 1,0 1,1 1,0 1,1 1,1l0 37c0,1 0,1 -1,2 0,1 0,1 -1,2l-1 1zm23 -48c-1,0 -1,0 -2,0 0,1 0,1 0,2l0 1c-1,1 0,1 0,2 0,0 1,1 1,1l9 0c0,0 1,0 1,0 1,1 1,1 1,2l0 8c0,0 0,1 0,1 0,1 1,1 1,1 0,0 1,0 1,0 0,1 0,1 0,2l0 1c0,1 0,1 0,2 -1,0 -1,0 -2,0l-23 0c-1,0 -1,0 -2,0 0,-1 0,-1 0,-2l0 -1c0,-1 0,-1 0,-2 1,0 1,0 2,0l1 0c1,0 2,0 2,-1 1,0 1,-1 1,-1l0 -3c0,0 0,-1 0,-1 -1,-1 -1,-1 -2,-1l-2 0c-1,0 -1,0 -2,0 0,-1 0,-1 0,-2l0 -1c0,-1 0,-1 0,-2 1,0 1,0 2,0l3 0c0,0 1,-1 1,-1 1,-1 1,-1 1,-2l0 -1c0,-1 0,-1 -1,-2 0,0 0,0 -1,0l-3 0c-1,0 -1,-1 -2,-1 0,-1 0,-1 0,-2l0 -1c0,-1 0,-1 0,-2 1,0 1,0 2,0l23 0c1,0 1,0 2,0 0,1 0,1 0,2l0 1c0,1 0,1 0,2 -1,0 -1,1 -2,1l-10 0zm-1 11c-1,0 -1,0 -2,1 0,0 0,1 0,1l-1 3c0,0 1,1 1,1 0,1 1,1 1,1l4 0c1,0 1,0 1,-1 1,0 1,-1 1,-1l0 -3c0,0 0,-1 -1,-1 0,-1 0,-1 -1,-1l-3 0zm-25 -16c1,0 1,0 2,0 0,0 1,0 1,0l1 1c1,1 1,1 1,2 0,0 0,1 -1,1l-1 1c0,1 -1,1 -1,1 -1,0 -1,0 -2,-1l-1 -1c0,0 0,-1 0,-1 0,-1 0,-1 0,-2l1 -1z"/>
 </g>
</svg>
