<?xml version="1.0" encoding="UTF-8"?>
<!DOCTYPE svg PUBLIC "-//W3C//DTD SVG 1.1//EN" "http://www.w3.org/Graphics/SVG/1.1/DTD/svg11.dtd">
<!-- Creator: CorelDRAW X8 -->
<svg xmlns="http://www.w3.org/2000/svg" xml:space="preserve" width="157.684mm" height="250.823mm" version="1.1" style="shape-rendering:geometricPrecision; text-rendering:geometricPrecision; image-rendering:optimizeQuality; fill-rule:evenodd; clip-rule:evenodd"
viewBox="0 0 168 268"
 xmlns:xlink="http://www.w3.org/1999/xlink">
 <defs>
  <style type="text/css">
   <![CDATA[
    .fil0 {fill:#00B4CC}
    .fil1 {fill:#FEFEFE;fill-rule:nonzero}
   ]]>
  </style>
 </defs>
 <g id="图层_x0020_1">
  <metadata id="CorelCorpID_0Corel-Layer"/>
  <path class="fil0" d="M13 0l142 0c7,0 13,6 13,13l0 242c0,7 -6,13 -13,13l-142 0c-7,0 -13,-6 -13,-13l0 -242c0,-7 6,-13 13,-13z"/>
  <path class="fil1" d="M16 115c0,0 0,-1 0,-1 1,0 1,-1 2,-1l3 0c0,0 1,0 1,0 1,-1 1,-1 1,-2l0 0c0,-1 0,-1 0,-1 1,-1 1,-1 2,-1l1 0c1,0 1,0 2,1 0,0 0,0 0,1l0 0c0,1 0,1 1,2 0,0 1,0 1,0l3 0c0,0 1,1 1,1 1,0 1,1 1,1l0 2c0,0 0,1 -1,1 0,1 -1,1 -1,1l-3 0c0,0 -1,0 -1,0 -1,1 -1,1 -1,2l0 4c0,1 1,1 1,2 0,0 1,0 1,0l3 0c0,0 1,1 1,1 1,0 1,1 1,2l0 1c0,1 0,1 -1,1 0,1 -1,1 -1,1l-1 0c-1,0 -1,0 -2,1 0,0 -1,1 -1,1l0 4c0,0 1,1 1,1 1,1 1,1 2,1l0 0c1,0 1,0 2,0 0,1 0,1 0,2l0 1c0,1 0,1 0,2 -1,0 -1,0 -2,0l0 0c-1,0 -1,0 -2,1 0,0 -1,1 -1,1l0 8c0,1 1,1 1,1 1,1 1,1 2,1l21 0c1,0 1,0 2,1 0,0 0,0 0,1l0 1c0,1 0,1 0,2 -1,0 -1,1 -2,1l-27 0c-1,0 -1,-1 -2,-1 -1,0 -1,-1 -2,-1l0 0c0,-1 -1,-1 -1,-1 -1,0 -1,0 -2,1l0 0c-1,0 -1,1 -1,1 -1,0 -1,1 -2,1 0,0 0,-1 0,-1 0,-1 0,-1 0,-2l0 -1c0,-1 0,-1 0,-1 0,-1 0,-1 0,-1 0,0 0,0 1,-1 0,0 0,0 0,-1l0 -16c0,-1 0,-1 0,-2 1,0 1,0 2,0l1 0c0,0 1,0 1,0 1,1 1,1 1,2l0 12c0,1 0,1 0,2 0,0 1,1 1,1 0,1 0,1 1,0 0,0 0,0 0,-1l0 -19c0,0 0,-1 -1,-1 0,-1 -1,-1 -1,-1l-4 0c-1,0 -1,0 -2,-1 0,0 0,0 0,-1l0 -1c0,-1 0,-2 0,-2 1,0 1,-1 2,-1l3 0c0,0 1,0 1,0 1,-1 1,-1 1,-2l0 -4c0,-1 0,-1 -1,-2 0,0 -1,0 -1,0l-3 0c-1,0 -1,0 -2,-1 0,0 0,-1 0,-1l0 -2zm31 -6c0,0 1,0 1,1 1,0 1,0 1,1l0 1c0,1 0,1 0,2 0,0 1,0 1,0 0,0 0,0 1,0 0,0 0,-1 0,-1 0,-1 0,-1 1,-2 0,0 0,0 1,0l0 0c1,0 1,0 2,0 0,1 0,1 0,2l0 0c0,1 0,2 0,2 0,1 -1,2 -1,2l-1 1c0,1 -1,1 -1,1 -1,1 -1,1 -2,1 0,0 0,0 -1,1 0,0 0,0 0,1l0 16c0,1 0,1 0,2 0,0 1,0 1,0 0,0 0,0 1,0 0,-1 0,-1 0,-2l0 -11c0,0 0,-1 1,-1 0,-1 0,-1 1,-1l0 0c1,0 1,0 2,1 0,0 0,1 0,1l0 12c0,1 0,1 0,2 0,1 -1,1 -1,2l-1 1c0,0 -1,1 -1,1 -1,1 -1,1 -2,1 0,0 0,0 -1,0 0,1 0,1 0,2l0 0c0,1 0,1 1,1 0,1 0,1 1,1l2 0c1,0 1,0 2,1 0,0 0,1 0,1l0 1c0,1 0,2 0,2 -1,0 -1,1 -2,1l-3 0c-1,0 -1,-1 -2,-1 -1,0 -1,-1 -2,-1l-1 -1c0,-1 0,-1 -1,-2 0,-1 0,-1 0,-2l0 -27c0,-1 0,-1 0,-1 -1,-1 -1,-1 -2,-1 0,0 0,0 -1,1 0,0 0,0 0,1l0 26c0,1 0,1 0,1 0,1 1,1 1,1 0,0 0,0 1,1 0,0 0,1 0,1l0 1c0,1 0,2 -1,2 0,0 0,1 -1,1 0,0 -1,-1 -1,-1 -1,0 -1,-1 -2,-1l-1 -1c0,-1 0,-1 -1,-2 0,-1 0,-1 0,-2l0 -33c0,0 0,-1 1,-1 0,0 0,-1 1,-1l4 0c0,0 1,0 1,0 1,-1 1,-1 1,-2l0 -1c0,-1 0,-1 1,-1 0,-1 0,-1 1,-1l1 0zm38 0c1,0 1,0 1,0 1,1 1,1 1,1 0,1 0,1 1,1 0,1 1,1 1,1l13 0c0,0 1,0 1,0 1,1 1,1 1,2l0 1c0,1 0,1 -1,2 0,0 -1,0 -1,0l-13 0c0,0 -1,1 -1,1 -1,0 -1,1 -1,1l0 1c0,0 0,1 1,1 0,1 1,1 1,1l13 0c0,0 1,0 1,1 1,0 1,0 1,1l0 33c0,1 0,1 0,2 -1,1 -1,1 -1,2l-2 1c0,0 -1,1 -2,1 0,0 -1,1 -2,1l-3 0c-1,0 -1,-1 -2,-1 0,-1 0,-1 0,-2l0 -1c0,-1 0,-1 0,-1 1,-1 1,-1 2,-1l2 0c1,0 1,0 2,-1 0,0 0,0 0,-1l0 -27c0,0 0,-1 0,-1 -1,0 -1,-1 -2,-1l-24 0c-1,0 -1,1 -2,1 0,0 0,1 0,1l0 32c0,1 0,1 -1,2 0,0 -1,1 -1,1l-2 0c0,0 -1,-1 -1,-1 0,-1 -1,-1 -1,-2l0 -37c0,-1 1,-1 1,-1 0,-1 1,-1 1,-1l13 0c1,0 1,0 2,-1 0,0 0,-1 0,-1l0 -1c0,0 0,-1 0,-1 -1,0 -1,-1 -2,-1l-13 0c0,0 -1,0 -1,0 0,-1 -1,-1 -1,-2l0 -1c0,-1 1,-1 1,-2 0,0 1,0 1,0l13 0c1,0 1,0 2,-1 0,0 0,0 0,-1 0,0 1,0 1,-1 1,0 1,0 2,0l1 0zm-6 41c1,0 1,0 2,-1 0,0 0,-1 0,-1l0 0c0,-1 0,-1 0,-2 -1,0 -1,0 -2,0l-6 0c0,0 -1,-1 -1,-1 0,0 -1,-1 -1,-1l0 -2c0,0 1,-1 1,-1 0,-1 1,-1 1,-1l22 0c1,0 1,0 1,1 1,0 1,1 1,1l0 2c0,0 0,1 -1,1 0,0 0,1 -1,1l-6 0c0,0 -1,0 -1,0 -1,1 -1,1 -1,2l0 0c0,0 0,1 1,1 0,1 1,1 1,1l6 0c1,0 1,0 1,1 1,0 1,0 1,1l0 1c0,1 0,1 -1,2 0,0 0,0 -1,0l-6 0c0,0 -1,1 -1,1 -1,0 -1,1 -1,1l0 4c0,1 0,1 -1,2 0,0 0,1 -1,1l-1 0c-1,0 -1,-1 -2,-1 0,-1 -1,-1 -1,-2l0 -4c0,0 0,-1 0,-1 -1,0 -1,-1 -2,-1l-6 0c0,0 -1,0 -1,0 0,-1 -1,-1 -1,-2l0 -1c0,-1 1,-1 1,-1 0,-1 1,-1 1,-1l6 0zm17 -19c0,0 0,1 0,1 0,1 0,1 0,2 0,0 -1,1 -1,1l-1 2c-1,0 -1,1 -2,1 -1,0 -1,0 -2,0l-3 0c0,0 -1,0 -1,0 -1,-1 -1,-1 -1,-2l0 -1c0,-1 0,-1 1,-2 0,0 1,0 1,0l2 0c1,0 1,0 1,-1 1,0 1,0 1,0 0,-1 0,-1 1,-1 0,0 0,0 1,0l1 0c1,0 1,0 2,0zm-21 0c1,0 1,0 2,0 0,0 0,0 0,1 0,0 1,0 1,0 0,1 1,1 1,1l2 0c1,0 1,0 2,0 0,1 0,1 0,2l0 1c0,1 0,1 0,2 -1,0 -1,0 -2,0l-3 0c0,0 -1,0 -2,0 0,0 -1,-1 -1,-1l-2 -2c0,0 0,-1 -1,-1 0,-1 0,-1 0,-2 0,0 0,-1 1,-1 0,0 0,0 1,0l1 0zm53 33c-1,0 -1,-1 -1,-1 -1,-1 -1,-1 -1,-2l0 -18c0,0 0,-1 1,-1 0,-1 0,-1 1,-1l23 0c0,0 1,0 1,1 0,0 1,1 1,1l0 14c0,1 -1,1 -1,2 0,1 0,1 -1,2l-1 1c-1,0 -1,1 -2,1 -1,0 -1,1 -2,1l-18 0zm3 -8c0,1 1,1 1,1 0,1 1,1 1,1l12 0c1,0 1,0 1,-1 1,0 1,0 1,-1l0 -7c0,-1 0,-1 -1,-2 0,0 0,0 -1,0l-12 0c0,0 -1,0 -1,0 0,1 -1,1 -1,2l0 7zm-13 6c0,0 -1,1 -1,1 -1,0 -2,1 -2,1 -1,0 -1,-1 -2,-1 0,-1 0,-1 0,-2l0 -1c0,0 0,-1 0,-1 1,-1 1,-1 1,-1 1,0 1,0 1,-1 0,0 0,0 0,-1l0 -29c0,-1 0,-2 0,-2 0,0 0,0 -1,0 0,0 0,-1 -1,-1 0,-1 0,-1 0,-2l0 -1c0,-1 0,-1 1,-1 0,-1 0,-1 1,-1l4 0c1,0 1,0 1,1 1,0 1,0 1,1l0 36c0,1 0,1 0,2 -1,1 -1,1 -1,2l-2 1zm23 -48c-1,0 -1,1 -2,1 0,0 0,1 0,2l-1 1c0,1 0,1 1,2 0,0 1,0 1,0l8 0c1,0 1,1 2,1 0,0 0,1 0,1l0 8c0,1 0,1 1,2 0,0 0,0 0,0 1,0 1,0 1,1 0,0 1,1 1,1l0 2c0,0 -1,1 -1,1 0,1 -1,1 -1,1l-23 0c-1,0 -1,0 -2,-1 0,0 0,-1 0,-1l0 -2c0,0 0,-1 0,-1 1,-1 1,-1 2,-1l2 0c0,0 1,0 1,0 1,-1 1,-1 1,-2l0 -2c0,-1 0,-1 0,-2 -1,0 -1,0 -2,0l-2 0c-1,0 -1,0 -2,-1 0,0 0,-1 0,-1l0 -2c0,0 0,-1 0,-1 1,0 1,-1 2,-1l3 0c0,0 1,0 1,0 0,-1 1,-1 1,-2l0 -1c0,-1 0,-2 -1,-2 0,0 0,-1 -1,-1l-3 0c-1,0 -1,0 -2,0 0,-1 0,-1 0,-2l0 -1c0,-1 0,-1 0,-1 1,-1 1,-1 2,-1l23 0c0,0 1,0 1,1 0,0 1,0 1,1l0 1c0,1 -1,1 -1,2 0,0 -1,0 -1,0l-10 0zm-1 12c-1,0 -1,0 -2,0 0,1 0,1 0,2l-1 2c0,1 0,1 1,2 0,0 1,0 1,0l4 0c0,0 1,0 1,0 1,-1 1,-1 1,-2l0 -2c0,-1 0,-1 -1,-2 0,0 -1,0 -1,0l-3 0zm-24 -16c0,0 1,0 1,0 1,0 1,0 2,0l1 1c0,1 0,1 0,2 0,0 0,1 0,1l-1 1c-1,1 -1,1 -2,1 0,0 -1,0 -1,-1l-1 -1c-1,0 -1,-1 -1,-1 0,-1 0,-1 1,-2l1 -1z"/>
 </g>
</svg>
