<?xml version="1.0" encoding="UTF-8"?>
<!DOCTYPE svg PUBLIC "-//W3C//DTD SVG 1.1//EN" "http://www.w3.org/Graphics/SVG/1.1/DTD/svg11.dtd">
<!-- Creator: CorelDRAW X8 -->
<svg xmlns="http://www.w3.org/2000/svg" xml:space="preserve" width="157.684mm" height="250.823mm" version="1.1" style="shape-rendering:geometricPrecision; text-rendering:geometricPrecision; image-rendering:optimizeQuality; fill-rule:evenodd; clip-rule:evenodd"
viewBox="0 0 176 280"
 xmlns:xlink="http://www.w3.org/1999/xlink">
 <defs>
  <style type="text/css">
   <![CDATA[
    .fil0 {fill:#E13F4F}
    .fil1 {fill:#FEFEFE;fill-rule:nonzero}
   ]]>
  </style>
 </defs>
 <g id="图层_x0020_1">
  <metadata id="CorelCorpID_0Corel-Layer"/>
  <path class="fil0" d="M14 0l148 0c8,0 14,6 14,14l0 252c0,8 -6,14 -14,14l-148 0c-8,0 -14,-6 -14,-14l0 -252c0,-8 6,-14 14,-14z"/>
  <path class="fil1" d="M47 121c0,0 -1,0 -1,0 -1,0 -1,0 -1,0 0,0 0,1 1,1 0,0 1,0 1,0l32 0c0,0 1,0 1,0 1,1 1,1 1,2l0 22c0,0 0,1 -1,2 0,0 0,1 -1,1l-1 1c0,0 -1,1 -2,1 0,0 -1,0 -2,0l-32 0c-1,0 -1,0 -2,0 0,-1 0,-1 0,-2l0 -31c0,-1 0,-2 0,-2 0,0 1,-1 1,-1l32 0c1,0 1,0 2,0 0,0 0,0 0,0 0,0 0,-1 1,-1 0,0 1,0 1,0l2 0c0,0 1,0 1,0 1,1 1,1 1,1 0,1 0,1 0,2 -1,0 -1,1 -2,1l-1 1c0,1 -1,1 -2,1 -1,0 -1,1 -2,1l-27 0zm0 5c0,0 -1,1 -1,1 -1,1 -1,1 -1,2l0 16c0,0 0,1 1,1 0,1 1,1 1,1l26 0c1,0 1,0 2,-1 0,0 0,-1 0,-1l0 -16c0,-1 0,-1 0,-2 -1,0 -1,-1 -2,-1l-26 0zm5 31c-1,0 -1,1 -2,1 0,0 0,0 0,0 0,1 0,1 0,1 1,0 1,0 2,0l27 0c0,0 1,1 1,1 1,0 1,0 1,0l0 6c0,0 0,0 0,1 -1,1 -1,1 -2,2l-1 1c0,0 -1,0 -2,1 -1,0 -1,0 -2,0l-32 0c-1,0 -1,0 -2,-1 0,0 0,0 0,-1l0 -1c0,-1 0,-1 0,-1 1,-1 1,-1 2,-1l31 0c1,0 1,0 2,0 0,0 0,-1 0,-1 0,0 0,0 0,-1 -1,0 -1,0 -2,0l-28 0c0,0 0,0 -1,-1 0,0 0,0 0,-1l0 -2c0,-1 0,-1 -1,-2 0,0 -1,-1 -1,-1l0 0c-1,0 -1,0 -2,0 0,-1 0,-1 0,-2l0 0c0,-1 0,-1 0,-2 1,0 1,0 2,0l37 0c0,0 1,0 1,0 1,1 1,1 1,2l0 0c0,1 0,1 -1,2 0,0 -1,0 -1,0l-27 0zm-3 -18c-1,0 -2,0 -2,-1 0,0 -1,0 -1,-1l0 0c0,-1 1,-1 1,-2 0,0 1,-1 2,-1l7 0c0,0 1,0 1,0 1,-1 1,-1 1,-2l0 -2c0,-1 0,-1 1,-2 0,0 1,0 1,0l1 0c0,0 1,0 1,0 0,1 1,1 1,2l0 2c0,1 0,1 0,2 1,0 1,0 2,0l7 0c1,0 1,1 2,1 0,1 0,1 0,2l0 0c0,1 0,1 0,1 -1,1 -1,1 -2,1l-1 0c-1,0 -1,0 -2,0 0,1 0,1 0,1 0,0 0,1 0,1 1,0 1,0 2,0l1 0c1,0 1,0 2,1 0,0 0,1 0,1 0,1 0,1 0,2 -1,0 -1,0 -2,0l-2 0c-1,0 -2,0 -2,0 -1,0 -2,-1 -2,-1 0,-1 -1,-1 -1,-2 0,0 0,-1 0,-1 0,-1 0,-1 -1,-1 0,-1 0,-1 0,-1 -1,0 -1,0 -1,1 0,0 0,1 0,1l0 3c0,0 -1,1 -1,1 0,1 -1,1 -1,1l-1 0c0,0 -1,0 -1,-1 -1,0 -1,-1 -1,-1l0 -3c0,0 0,-1 0,-1 0,-1 -1,-1 -1,-1 0,0 0,0 0,1 -1,0 -1,0 -1,1 0,0 0,1 0,1 0,1 -1,1 -1,2 -1,0 -1,1 -2,1 -1,0 -1,0 -2,0l-2 0c-1,0 -1,0 -2,0 0,-1 0,-1 0,-2 0,0 0,-1 0,-1 1,-1 1,-1 2,-1l1 0c1,0 1,0 2,0 0,0 0,-1 0,-1 0,0 0,0 0,-1 -1,0 -1,0 -2,0l-1 0zm24 -7c-1,1 -1,1 -2,1 -1,0 -1,0 -2,0l-3 0c0,0 -1,0 -1,0 -1,0 -1,-1 -1,-1 0,-1 0,-1 1,-2 0,0 1,0 1,0l2 0c1,0 1,0 1,0 1,0 1,-1 1,-1 0,0 0,-1 1,-1 0,0 1,0 1,0 1,0 1,0 2,0 0,1 0,1 0,2 0,0 0,1 0,1 0,1 -1,1 -1,1zm-22 1c0,0 -1,0 -2,0 0,0 -1,0 -1,-1 -1,0 -1,0 -1,-1 -1,0 -1,-1 -1,-1 0,-1 1,-1 1,-2 0,0 1,0 1,0 1,0 1,0 2,0 0,0 0,1 0,1 0,0 1,1 1,1 0,0 1,0 1,0l2 0c1,0 1,0 2,0 0,1 0,1 0,2 0,0 0,1 0,1 -1,0 -1,0 -2,0l-3 0zm55 38c-1,0 -1,0 -1,-1 -1,0 -1,0 -1,-1l0 -19c0,-1 0,-1 1,-2 0,0 0,0 1,0l24 0c0,0 1,0 1,0 1,1 1,1 1,2l0 14c0,1 0,2 -1,2 0,1 0,2 -1,2l-1 2c-1,0 -1,0 -2,1 -1,0 -1,0 -2,0l-19 0zm4 -8c0,1 0,1 0,2 1,0 1,0 2,0l12 0c1,0 1,0 1,0 1,-1 1,-1 1,-2l0 -7c0,-1 0,-2 -1,-2 0,0 0,-1 -1,-1l-12 0c-1,0 -1,1 -2,1 0,0 0,1 0,2l0 7zm-14 7c-1,0 -1,0 -2,1 -1,0 -1,0 -2,0 0,0 -1,0 -1,-1 0,0 -1,0 -1,-1l0 -1c0,-1 1,-2 1,-2 0,0 0,-1 1,-1 0,0 0,0 1,0 0,-1 0,-1 0,-2l0 -31c0,0 0,-1 0,-1 -1,0 -1,-1 -1,-1 -1,0 -1,0 -1,0 0,-1 -1,-1 -1,-2l0 -1c0,-1 1,-1 1,-2 0,0 1,0 2,0l4 0c0,0 1,0 1,0 1,1 1,1 1,2l0 37c0,1 0,2 -1,2 0,1 0,2 -1,2l-1 2zm23 -50c0,0 -1,0 -1,0 -1,1 -1,1 -1,2l0 2c0,0 0,1 0,1 1,1 1,1 2,1l8 0c1,0 1,0 2,1 0,0 1,0 1,1l0 8c0,1 0,1 0,2 0,0 0,0 1,0 0,0 0,1 1,1 0,0 0,1 0,2l0 1c0,1 0,1 -1,2 0,0 -1,0 -1,0l-24 0c-1,0 -1,0 -2,0 0,-1 0,-1 0,-2l0 -1c0,-1 0,-2 0,-2 1,0 1,-1 2,-1l2 0c0,0 1,0 1,0 1,-1 1,-1 1,-2l0 -2c0,-1 0,-1 0,-2 -1,0 -1,0 -2,0l-2 0c-1,0 -1,0 -2,-1 0,0 0,-1 0,-1l0 -2c0,-1 0,-1 0,-1 1,-1 1,-1 2,-1l3 0c0,0 1,0 1,-1 1,0 1,-1 1,-1l0 -2c0,-1 0,-1 0,-2 -1,0 -1,0 -2,0l-3 0c-1,0 -1,0 -2,-1 0,0 0,-1 0,-1l0 -2c0,0 0,-1 0,-1 1,-1 1,-1 2,-1l24 0c0,0 1,0 1,1 1,0 1,1 1,1l0 2c0,0 0,1 -1,1 0,1 -1,1 -1,1l-11 0zm-1 12c0,0 -1,0 -1,0 -1,1 -1,1 -1,2l0 2c0,1 0,1 0,2 1,0 1,0 2,0l3 0c1,0 2,0 2,0 1,-1 1,-1 1,-2l0 -2c0,-1 0,-1 -1,-2 0,0 -1,0 -2,0l-3 0zm-25 -16c1,-1 1,-1 2,-1 0,0 1,0 1,1l1 1c1,0 1,1 1,1 0,1 0,1 -1,2l-1 1c0,0 -1,0 -1,0 -1,0 -1,0 -2,0l-1 -1c0,-1 0,-1 0,-2 0,0 0,-1 0,-1l1 -1z"/>
 </g>
</svg>
