<?xml version="1.0" encoding="UTF-8"?>
<!DOCTYPE svg PUBLIC "-//W3C//DTD SVG 1.1//EN" "http://www.w3.org/Graphics/SVG/1.1/DTD/svg11.dtd">
<!-- Creator: CorelDRAW X8 -->
<svg xmlns="http://www.w3.org/2000/svg" xml:space="preserve" width="385.826mm" height="386.931mm" version="1.1" style="shape-rendering:geometricPrecision; text-rendering:geometricPrecision; image-rendering:optimizeQuality; fill-rule:evenodd; clip-rule:evenodd"
viewBox="0 0 337 338"
 xmlns:xlink="http://www.w3.org/1999/xlink">
 <defs>
  <style type="text/css">
   <![CDATA[
    .fil2 {fill:#FEFEFE}
    .fil0 {fill:#8B8B8C}
    .fil1 {fill:#FEFEFE;fill-rule:nonzero}
   ]]>
  </style>
 </defs>
 <g id="图层_x0020_1">
  <metadata id="CorelCorpID_0Corel-Layer"/>
  <path class="fil0" d="M317 224l-297 0c-11,0 -20,9 -20,20l0 74c0,11 9,20 20,20l297 0c11,0 20,-9 20,-20l0 -74c0,-11 -9,-20 -20,-20z"/>
  <path class="fil1" d="M157 250c0,-1 0,-2 1,-2 0,-1 1,-1 2,-1l0 0c1,0 1,0 2,1 0,0 1,1 1,2l0 57c0,0 -1,1 -1,2 0,1 -1,2 -1,2l-1 2c0,0 -1,1 -2,1 -1,0 -1,1 -2,1l-3 0c-1,0 -2,-1 -2,-1 -1,-1 -1,-1 -1,-2l0 -1c0,-1 0,-2 1,-2 0,-1 1,-1 2,-1l2 0c0,0 1,0 1,-1 1,0 1,-1 1,-2l0 -55zm-7 0c0,-1 0,-2 1,-2 0,-1 1,-1 1,-1l1 0c0,0 1,0 2,1 0,0 0,1 0,2l0 53c0,1 0,2 0,2 -1,1 -2,1 -2,1l-1 0c0,0 -1,0 -1,-1 -1,0 -1,-1 -1,-2l0 -53zm-22 -3c1,0 1,0 2,1 0,0 0,1 0,2l0 24c0,0 1,1 1,1 0,1 0,1 0,1 1,0 1,0 1,-1 0,0 0,-1 0,-1l0 -24c0,-1 1,-2 1,-2 1,-1 1,-1 2,-1l9 0c1,0 2,0 2,1 1,0 1,1 1,2l0 24c0,0 0,1 0,1 0,1 1,1 1,1 0,0 0,0 1,1 0,0 0,1 0,2l0 1c0,1 0,2 0,2 -1,1 -1,1 -1,1 0,0 -1,0 -1,1 0,0 0,1 0,2l0 21c0,0 0,1 0,2 -1,1 -1,2 -2,2l-1 2c0,0 -1,1 -1,1 -1,0 -1,1 -2,1 0,0 -1,-1 -1,-1 -1,-1 -1,-1 -1,-2l0 -1c0,-1 0,-2 1,-2 0,-1 0,-1 1,-1 0,0 0,0 0,-1 0,0 1,-1 1,-2l0 -19c0,-1 -1,-2 -1,-2 0,-1 -1,-1 -1,-1 -1,0 -1,0 -2,1 0,0 0,1 0,2l0 26c0,1 0,1 -1,2 0,0 -1,1 -2,1l0 0c-1,0 -1,-1 -2,-1 0,-1 -1,-1 -1,-2l0 -26c0,-1 0,-2 0,-2 0,-1 0,-1 -1,-1 0,0 0,0 0,1 0,0 -1,1 -1,2l0 21c0,0 0,1 0,2 0,1 -1,2 -1,2l-1 2c-1,0 -1,1 -2,1 0,0 -1,1 -2,1 0,0 -1,-1 -1,-1 0,-1 -1,-1 -1,-2l0 -1c0,-1 0,-2 1,-2 0,-1 0,-1 1,-1 0,0 0,0 1,-1 0,0 0,-1 0,-2l0 -19c0,-1 0,-2 -1,-2 0,-1 0,-1 -1,-1 0,0 -1,0 -1,1 0,0 -1,1 -1,2l0 26c0,1 0,1 0,2 -1,0 -1,1 -2,1l-1 0c0,0 -1,-1 -1,-1 -1,-1 -1,-1 -1,-2l0 -26c0,-1 0,-2 0,-2 -1,-1 -1,-1 -1,-1 0,0 -1,0 -1,-1 0,0 0,-1 0,-2l0 -1c0,-1 0,-2 0,-2 0,-1 1,-1 1,-1 0,0 0,0 1,-1 0,0 0,-1 0,-1l0 -24c0,-1 0,-2 1,-2 0,-1 1,-1 1,-1l10 0zm10 27c0,0 0,1 0,1 1,1 1,1 2,1 0,0 1,0 1,-1 0,0 1,-1 1,-1l0 -17c0,-1 -1,-2 -1,-2 0,-1 -1,-1 -1,-1 -1,0 -1,0 -2,1 0,0 0,1 0,1l0 18zm-15 2c1,0 1,0 1,-1 1,0 1,-1 1,-1l0 -17c0,-1 0,-2 -1,-2 0,-1 0,-1 -1,-1 0,0 -1,0 -1,1 0,0 -1,1 -1,1l0 18c0,0 1,1 1,1 0,1 1,1 1,1zm58 36c0,1 0,2 -1,2 0,0 -1,1 -2,1l-1 0c-1,0 -2,-1 -2,-1 -1,-1 -1,-1 -1,-2l0 -62c0,-1 0,-2 1,-2 0,-1 1,-1 2,-1l12 0c0,0 1,0 1,1 1,0 1,1 1,2l0 23c0,0 0,1 0,2 -1,1 -1,1 -1,2 -1,0 -1,1 -1,1 0,1 0,1 1,2 0,0 0,1 1,2 0,0 0,1 0,2l0 24c0,0 0,1 -1,1 0,1 -1,1 -1,1l-5 0c-1,0 -2,0 -2,1 -1,0 -1,1 -1,1zm33 -38c-1,0 -1,0 -2,0 0,1 -1,1 -1,2l0 3c0,0 1,1 1,1 1,1 1,1 2,1l7 0c0,0 1,0 1,1 1,0 1,1 1,2l0 1c0,1 0,2 -1,2 0,1 -1,1 -1,1l-7 0c-1,0 -1,0 -2,1 0,0 -1,1 -1,2l0 21c0,1 0,1 0,2 -1,0 -1,1 -2,1l-5 0c0,0 -1,-1 -1,-1 0,-1 -1,-1 -1,-2l0 -2c0,0 0,-1 1,-1 0,-1 0,-1 0,-1 1,0 1,0 1,-1 0,0 0,-1 0,-2l0 -14c0,-1 0,-2 0,-2 -1,-1 -1,-1 -2,-1l-7 0c-1,0 -1,0 -2,-1 0,0 0,-1 0,-2l0 -1c0,-1 0,-2 0,-2 1,-1 1,-1 2,-1l7 0c1,0 1,0 2,-1 0,0 0,-1 0,-1l0 -3c0,-1 0,-1 0,-2 -1,0 -1,0 -2,0l-7 0c-1,0 -1,-1 -2,-1 0,-1 0,-1 0,-2l0 -2c0,0 0,-1 0,-2 1,0 1,0 2,0l26 0c0,0 1,0 1,0 1,1 1,2 1,2l0 2c0,1 0,1 -1,2 0,0 -1,1 -1,1l-7 0zm9 -12c0,1 0,1 -1,2 0,0 0,1 -1,1l-5 0c0,0 -1,-1 -2,-1 0,-1 0,-1 0,-2l0 -5c0,-1 -1,-2 -1,-2 -1,-1 -1,-1 -2,-1l-6 0c-1,0 -2,0 -2,1 -1,0 -1,1 -1,2l0 5c0,1 0,1 -1,2 0,0 -1,1 -1,1l-5 0c-1,0 -1,-1 -2,-1 0,-1 0,-1 0,-2l0 -2c0,0 0,-1 0,-1 0,-1 1,-1 1,-1 1,0 1,0 1,-1 1,0 1,-1 1,-2l0 -5c0,-1 0,-2 1,-2 0,-1 1,-1 2,-1l18 0c1,0 2,0 2,1 1,0 1,1 1,2l0 5c0,1 0,2 0,2 1,1 1,1 2,1 0,0 0,0 1,1 0,0 0,1 0,1l0 2zm-31 47c0,-1 1,-1 1,-1 1,0 1,0 1,-1 0,0 1,-1 1,-2l0 -10c0,-1 0,-2 0,-2 1,-1 1,-1 2,-1l2 0c0,0 1,0 2,1 0,0 0,1 0,2l0 17c0,1 0,1 0,2 -1,0 -2,1 -2,1l-5 0c-1,0 -1,-1 -2,-1 0,-1 0,-1 0,-2l0 -2c0,0 0,-1 0,-1zm26 -17c1,0 1,0 2,1 0,0 0,1 0,2l0 10c0,1 1,2 1,2 0,1 0,1 1,1 0,0 0,0 1,1 0,0 0,1 0,1l0 2c0,1 0,1 0,2 -1,0 -1,1 -2,1l-5 0c-1,0 -1,-1 -2,-1 0,-1 0,-1 0,-2l0 -17c0,-1 0,-2 0,-2 1,-1 1,-1 2,-1l2 0zm-37 9c0,1 0,1 1,2 0,0 0,0 1,0 0,0 1,0 1,0 1,-1 1,-1 1,-2l0 -17c0,0 0,-1 -1,-1 0,-1 -1,-1 -1,-1 -1,0 -1,0 -1,1 -1,0 -1,1 -1,1l0 17zm0 -29c0,1 0,2 1,2 0,1 0,1 1,1 0,0 1,0 1,-1 1,0 1,-1 1,-2l0 -15c0,-1 0,-2 -1,-2 0,-1 -1,-1 -1,-1 -1,0 -1,0 -1,1 -1,0 -1,1 -1,2l0 15z"/>
  <path class="fil2" d="M169 0c-45,0 -82,36 -82,81 0,45 37,82 82,82 45,0 81,-37 81,-82 0,-45 -36,-81 -81,-81zm35 102c4,4 4,11 0,15 -4,4 -11,4 -14,0l-21 -21 -22 22c-3,4 -10,4 -14,0 -2,-3 -3,-5 -3,-8 0,-3 1,-6 3,-8l21 -21 -21 -20c-2,-3 -3,-5 -3,-7 0,-3 1,-6 3,-8 4,-4 11,-4 14,0l22 21 21 -21c3,-4 10,-4 14,0 4,4 4,10 0,14l-21 21 21 21 0 0z" p-id="6971"/>
 </g>
</svg>
