<?xml version="1.0" encoding="UTF-8"?>
<!DOCTYPE svg PUBLIC "-//W3C//DTD SVG 1.1//EN" "http://www.w3.org/Graphics/SVG/1.1/DTD/svg11.dtd">
<!-- Creator: CorelDRAW X8 -->
<svg xmlns="http://www.w3.org/2000/svg" xml:space="preserve" width="385.825mm" height="386.922mm" version="1.1" style="shape-rendering:geometricPrecision; text-rendering:geometricPrecision; image-rendering:optimizeQuality; fill-rule:evenodd; clip-rule:evenodd"
viewBox="0 0 386 387"
 xmlns:xlink="http://www.w3.org/1999/xlink">
 <defs>
  <style type="text/css">
   <![CDATA[
    .fil0 {fill:#E9D4FF}
    .fil1 {fill:#FEFEFE}
    .fil2 {fill:#FEFEFE;fill-rule:nonzero}
   ]]>
  </style>
 </defs>
 <g id="图层_x0020_1">
  <metadata id="CorelCorpID_0Corel-Layer"/>
  <g id="_1812323343680">
   <path class="fil0" d="M363 256l-340 0c-13,0 -23,10 -23,23l0 85c0,13 10,23 23,23l340 0c13,0 23,-10 23,-23l0 -85c0,-13 -10,-23 -23,-23z"/>
   <path class="fil1" d="M193 0c-52,0 -93,42 -93,93 0,52 41,93 93,93 51,0 93,-41 93,-93 0,-51 -42,-93 -93,-93zm-27 40l0 0c9,0 16,7 16,15l0 76c0,9 -7,15 -16,15l0 0c-8,0 -15,-6 -15,-15l0 -76c0,-8 7,-15 15,-15zm53 0l0 0c9,0 16,7 16,15l0 76c0,9 -7,15 -16,15l0 0c-8,0 -15,-6 -15,-15l0 -76c0,-8 7,-15 15,-15z" p-id="2034"/>
   <path class="fil2" d="M178 329c-1,0 -2,0 -2,-1 -1,0 -1,-1 -1,-2l0 -16c0,-1 0,-2 -1,-2 0,-1 -1,-1 -2,-1l0 0c-1,0 -2,0 -2,1 -1,0 -1,1 -1,2l0 10c0,1 -1,2 -1,3 0,1 -1,2 -1,2l-2 2c-1,1 -2,1 -2,2 -1,0 -2,0 -2,0 -1,0 -1,0 -2,-1 0,0 0,-1 0,-2l0 -2c0,0 0,-1 0,-2 0,0 1,0 1,0 0,0 0,-1 1,-1 0,-1 0,-2 0,-2l0 -30c0,-1 0,-2 1,-3 0,0 1,0 2,0l11 0c1,0 2,-1 2,-1 1,0 1,0 1,-1 0,0 1,-1 1,-1 1,0 1,0 2,0l2 0c1,0 2,0 2,0 1,1 1,1 1,2 0,1 0,1 -1,2 0,1 0,2 -1,2l-2 2c-1,1 -1,2 -2,2 -1,0 -2,1 -3,1l-5 0c-1,0 -2,0 -3,0 0,1 0,1 0,2 0,1 0,2 0,2 1,1 2,1 3,1l11 0c1,0 2,0 2,1 1,0 1,1 1,2l0 2c0,1 0,1 0,2 -1,1 -1,1 -2,1 0,0 0,0 -1,1 0,0 0,1 0,2l0 16c0,1 -1,2 -1,2 -1,1 -1,1 -2,1l-2 0zm-33 -2c0,0 -1,-1 -1,-2 -1,0 -1,0 -2,0l-9 0c-1,0 -2,-1 -2,-1 -1,-1 -1,-2 -1,-2l0 -2c0,-1 0,-2 1,-2 0,-1 1,-1 2,-1l9 0c1,0 1,0 2,-1 0,0 1,-1 1,-2 0,0 -1,-1 -1,-1 -1,-1 -1,-1 -2,-1l-1 0c0,0 -1,0 -2,-1 -1,0 -2,0 -3,-1l-2 -2c0,-1 -1,-1 -1,-2 0,-1 -1,-2 -1,-3l0 -6c0,0 0,-1 0,-2 0,0 0,0 -1,0 0,0 0,-1 -1,-1 0,-1 0,-2 0,-2l0 -2c0,-1 0,-2 0,-2 1,-1 1,-1 1,-1 1,0 1,0 1,-1 0,0 0,-1 0,-1 0,-1 1,-1 1,-2 1,0 1,0 2,0l2 0c1,0 2,0 2,0 1,1 1,1 1,2 0,0 0,1 1,1 1,1 1,1 2,1l12 0c1,0 1,0 2,1 1,0 1,1 1,2l0 2c0,0 0,1 -1,2 -1,0 -1,1 -2,1l-12 0c-1,0 -1,0 -2,0 -1,1 -1,2 -1,3l0 3c0,1 0,2 1,2 0,1 1,1 1,1 1,0 2,0 2,-1 1,0 1,-1 1,-2l0 0c0,-1 0,-2 1,-2 0,-1 1,-1 2,-1l2 0c0,0 1,0 2,1 0,0 0,1 0,2l0 0c0,1 1,2 1,2 1,1 1,1 2,1 1,0 2,1 2,1 1,1 1,1 1,2l0 2c0,1 0,2 -1,2 0,1 -1,1 -2,1 -1,0 -1,0 -2,1 0,0 -1,1 -1,1 0,1 1,2 1,2 1,1 1,1 2,1 1,0 2,0 2,1 1,0 1,1 1,2l0 2c0,1 0,1 -1,2 0,0 -1,1 -2,1 -1,0 -1,0 -2,0 0,1 -1,2 -1,2 0,1 0,2 0,2 -1,1 -2,1 -2,1l-2 0c-1,0 -2,0 -2,-1 -1,0 -1,-1 -1,-2zm35 31c0,1 -1,2 -2,2 -1,0 -2,0 -3,0l-41 0c-1,0 -2,0 -2,0 -1,-1 -1,-2 -1,-2l0 -23c0,-1 0,-2 1,-2 0,-1 1,-1 2,-1l48 0c0,0 1,0 2,1 0,0 1,1 1,2l0 16c0,1 -1,2 -1,3 -1,1 -1,2 -2,2l-2 2zm-39 -18c0,0 -1,0 -2,0 0,0 0,1 0,1 0,1 0,1 0,2 1,0 2,0 2,0l33 0c1,0 1,0 2,0 0,-1 1,-1 1,-2 0,0 -1,-1 -1,-1 -1,0 -1,0 -2,0l-33 0zm33 13c1,0 1,-1 2,-1 0,0 1,-1 1,-1 0,-1 -1,-1 -1,-1 -1,-1 -1,-1 -2,-1l-33 0c0,0 -1,0 -2,1 0,0 0,0 0,1 0,0 0,1 0,1 1,0 2,1 2,1l33 0zm41 -44c0,-1 0,-2 0,-2 1,-1 2,-1 3,-1l35 0c1,0 1,0 2,1 0,0 1,1 1,2l0 8c0,1 -1,1 -1,2 0,1 -1,2 -2,3l-1 1c-1,1 -2,1 -3,2 -1,0 -2,0 -3,0l-28 0c-1,0 -2,0 -3,-1 0,0 0,-1 0,-2l0 -13zm-11 -23c0,-1 0,-2 1,-2 0,-1 1,-1 2,-1l2 0c1,0 1,0 2,1 1,0 1,1 1,2l0 16c0,1 0,1 0,2 -1,1 -1,1 -1,1 0,1 0,1 0,2 -1,0 -1,1 -1,2l0 49c0,0 0,1 -1,2 0,0 -1,0 -2,0l-2 0c0,0 -1,0 -2,0 0,-1 0,-2 0,-2l0 -44c0,-1 -1,-2 -1,-2 0,-1 -1,-1 -1,-1 -1,0 -1,0 -1,-1 0,-1 -1,-1 -1,-2l0 -2c0,-1 1,-2 1,-2 1,-1 1,-1 2,-1 0,0 1,0 1,-1 1,0 1,-1 1,-2l0 -14zm33 67c1,0 2,-1 2,-1 1,-1 1,-1 1,-2 0,-1 0,-1 -1,-2 0,0 -1,0 -2,0l-19 0c-1,0 -2,-1 -3,-1 0,-1 0,-2 0,-2l0 -1c0,-1 0,-2 0,-3 1,0 2,0 3,0l35 0c1,0 1,0 2,0 0,1 1,2 1,3l0 1c0,0 -1,1 -1,2 -1,0 -1,1 -2,1l-2 0c-1,0 -1,0 -2,0 -1,1 -1,2 -1,3l0 0c0,1 0,2 0,3 -1,1 -1,2 -2,2l-2 2c-1,1 -1,2 -2,2 -1,0 -2,0 -3,0l-21 0c-1,0 -2,0 -3,0 0,-1 0,-2 0,-3l0 -1c0,-1 0,-2 0,-3 1,0 2,0 3,0l19 0zm-22 -23c0,-1 0,-1 0,-2 1,-1 2,-1 3,-1l35 0c1,0 1,0 2,1 0,1 1,1 1,2l0 5c0,1 -1,2 -1,2 -1,1 -1,1 -2,1l-2 0c-1,0 -2,0 -2,0 -1,-1 -1,-1 -1,-2 0,0 0,-1 -1,-1 -1,-1 -1,-1 -2,-1l-20 0c0,0 -1,0 -2,1 0,0 0,1 0,1 0,1 -1,1 -1,2 -1,0 -2,0 -3,0l-1 0c-1,0 -2,0 -3,-1 0,0 0,-1 0,-2l0 -5zm0 -42c0,0 0,-1 0,-2 1,0 2,-1 3,-1l27 0c1,0 1,0 2,0 1,0 1,-1 1,-1 0,0 0,-1 1,-1 0,0 1,0 2,0l2 0c0,0 1,0 2,0 0,1 1,1 1,2 0,0 -1,1 -1,1 0,1 -1,2 -1,3l-3 1c0,1 -1,2 -2,2 -1,0 -2,1 -3,1l-28 0c-1,0 -2,-1 -3,-1 0,-1 0,-2 0,-3l0 -1zm0 11c0,-1 0,-2 0,-2 1,-1 2,-1 3,-1l35 0c1,0 1,0 2,1 0,0 1,1 1,2l0 1c0,1 -1,1 -1,2 -1,0 -1,1 -2,1l-35 0c-1,0 -2,-1 -3,-1 0,-1 0,-1 0,-2l0 -1zm10 14c0,0 -1,0 -2,1 0,0 0,1 0,1 0,1 0,2 0,2 1,1 2,1 2,1l20 0c1,0 1,0 2,-1 1,0 1,-1 1,-2 0,0 0,-1 -1,-1 -1,-1 -1,-1 -2,-1l-20 0z"/>
  </g>
 </g>
</svg>
