<?xml version="1.0" encoding="UTF-8"?>
<!DOCTYPE svg PUBLIC "-//W3C//DTD SVG 1.1//EN" "http://www.w3.org/Graphics/SVG/1.1/DTD/svg11.dtd">
<!-- Creator: CorelDRAW X8 -->
<svg xmlns="http://www.w3.org/2000/svg" xml:space="preserve" width="385.826mm" height="387mm" version="1.1" style="shape-rendering:geometricPrecision; text-rendering:geometricPrecision; image-rendering:optimizeQuality; fill-rule:evenodd; clip-rule:evenodd"
viewBox="0 0 352 353"
 xmlns:xlink="http://www.w3.org/1999/xlink">
 <defs>
  <style type="text/css">
   <![CDATA[
    .fil2 {fill:#FEFEFE}
    .fil0 {fill:#FBD30B}
    .fil1 {fill:#FEFEFE;fill-rule:nonzero}
   ]]>
  </style>
 </defs>
 <g id="图层_x0020_1">
  <metadata id="CorelCorpID_0Corel-Layer"/>
  <path class="fil0" d="M331 234l-310 0c-12,0 -21,9 -21,21l0 77c0,12 9,21 21,21l310 0c12,0 21,-9 21,-21l0 -77c0,-12 -9,-21 -21,-21z"/>
  <path class="fil1" d="M167 329l-30 0c0,0 -1,-1 -2,-1 0,-1 0,-1 0,-2l0 -25c0,-1 0,-1 0,-2 1,0 2,-1 2,-1l30 0c1,0 2,1 2,1 1,1 1,1 1,2l0 25c0,1 0,1 -1,2 0,0 -1,1 -2,1zm-23 -33l-7 0c0,0 -1,0 -2,-1 0,0 0,-1 0,-2l0 0c0,-1 0,-1 0,-2 1,0 2,-1 2,-1l0 0c1,0 2,0 2,0 1,-1 1,-1 1,-2 0,-1 0,-1 -1,-2 0,0 -1,0 -2,0l0 0c0,0 -1,-1 -2,-1 0,-1 0,-1 0,-2l0 -2c0,0 0,-1 0,-1 1,-1 2,-1 2,-1l9 0c1,0 2,-1 2,-1 1,-1 1,-1 1,-2l0 -6c0,-1 0,-2 -1,-2 0,-1 -1,-1 -2,-1l-9 0c0,0 -1,0 -2,-1 0,0 0,-1 0,-2l0 -1c0,0 0,-1 0,-2 1,0 2,0 2,0l23 0c1,0 2,0 2,-1 1,0 1,0 1,-1 0,0 0,0 1,0 0,-1 1,-1 2,-1l1 0c1,0 2,1 2,1 1,1 1,1 1,2l0 3c0,1 0,2 -1,2 0,1 -1,1 -2,1l-9 0c-1,0 -1,0 -2,1 0,0 0,1 0,2l0 6c0,1 0,1 0,2 1,0 1,1 2,1l9 0c1,0 2,0 2,1 1,0 1,1 1,1l0 2c0,1 0,1 -1,2 0,0 -1,1 -2,1l0 0c-1,0 -1,0 -2,0 0,1 -1,1 -1,2 0,1 1,1 1,2 1,0 1,0 2,0l0 0c1,0 2,1 2,1 1,1 1,1 1,2l0 0c0,1 0,2 -1,2 0,1 -1,1 -2,1l-6 0c-1,0 -2,0 -2,-1 -1,0 -1,-1 -1,-2l0 -5c0,0 0,-1 0,-1 -1,-1 -1,-1 -1,-1 -1,0 -1,0 -1,1 0,0 0,1 0,1l0 5c0,1 -1,2 -1,2 -1,1 -1,1 -2,1l-1 0c-1,0 -1,0 -2,-1 -1,0 -1,-1 -1,-2l0 -5c0,0 0,-1 0,-1 -1,-1 -1,-1 -1,-1 -1,0 -1,0 -1,1 0,0 0,1 0,1l0 5c0,1 -1,2 -1,2 -1,1 -1,1 -2,1zm-14 30c0,1 0,1 -1,2 0,0 -1,1 -2,1l-5 0c-1,0 -1,-1 -2,-1 0,-1 -1,-1 -1,-2l0 -2c0,0 0,-1 1,-2 0,0 1,0 1,0 1,0 1,-1 1,-1 1,-1 1,-1 1,-2l0 -1c0,-1 0,-1 -1,-2 0,0 0,-1 -1,-1 0,0 -1,0 -1,-1 -1,0 -1,-1 -1,-1l0 -2c0,-1 0,-1 1,-2 0,0 1,-1 1,-1 1,0 1,0 1,-1 1,0 1,-1 1,-1l0 -31c0,-1 0,-1 -1,-2 0,0 0,-1 -1,-1 0,0 -1,0 -1,0 -1,-1 -1,-1 -1,-2l0 -2c0,-1 0,-1 1,-2 0,0 1,-1 1,-1 1,0 1,0 1,0 1,-1 1,-2 1,-2l0 -2c0,-1 0,-1 1,-2 0,0 1,-1 2,-1l1 0c1,0 2,1 2,1 1,1 1,1 1,2l0 2c0,1 0,1 1,2 0,0 0,0 1,0 0,0 0,1 1,1 0,1 0,1 0,2l0 2c0,1 0,1 0,2 -1,0 -1,0 -1,0 -1,0 -1,1 -1,1 -1,1 -1,1 -1,2l0 31c0,0 0,1 1,1 0,1 0,1 1,1 0,0 0,1 1,1 0,1 0,1 0,2l0 2c0,0 0,1 0,2 -1,0 -1,0 -1,0 -1,0 -1,1 -1,1 -1,1 -1,1 -1,2l0 8zm33 -54c0,-1 0,-1 0,-1 0,-1 1,-1 1,-1 1,0 1,-1 2,-1l1 0c1,0 1,1 2,1 0,1 1,1 1,2l0 2c0,1 -1,2 -1,2 -1,1 -1,1 -2,1l-6 0c-1,0 -1,0 -2,-1 0,0 0,-1 0,-1 0,-1 0,-2 0,-2 1,-1 1,-1 2,-1 1,0 1,0 2,0zm-24 -3c1,0 1,1 2,1 0,0 0,0 0,1 0,0 1,0 1,1 1,0 1,0 2,0 0,0 1,0 1,1 1,0 1,1 1,2 0,0 0,1 -1,1 0,1 -1,1 -2,1l-5 0c-1,0 -2,0 -2,-1 -1,0 -1,-1 -1,-2l0 -2c0,-1 0,-1 1,-2 0,0 1,-1 2,-1l1 0zm24 39c0,-1 0,-2 -1,-2 0,-1 -1,-1 -2,-1l-2 0c-1,0 -1,0 -2,1 0,0 0,1 0,2 0,0 0,1 0,1 1,1 1,1 2,1l2 0c1,0 2,0 2,-1 1,0 1,-1 1,-1zm-3 14c1,0 2,-1 2,-1 1,-1 1,-1 1,-2 0,-1 0,-1 -1,-2 0,0 -1,0 -2,0l-2 0c-1,0 -1,0 -2,0 0,1 0,1 0,2 0,1 0,1 0,2 1,0 1,1 2,1l2 0zm-15 -17c-1,0 -2,0 -2,1 -1,0 -1,1 -1,2 0,0 0,1 1,1 0,1 1,1 2,1l1 0c1,0 2,0 2,-1 1,0 1,-1 1,-1 0,-1 0,-2 -1,-2 0,-1 -1,-1 -2,-1l-1 0zm-3 14c0,1 0,1 1,2 0,0 1,1 2,1l1 0c1,0 2,-1 2,-1 1,-1 1,-1 1,-2 0,-1 0,-1 -1,-2 0,0 -1,0 -2,0l-1 0c-1,0 -2,0 -2,0 -1,1 -1,1 -1,2zm75 -60c0,0 0,1 0,1 0,1 1,1 1,2 1,0 1,0 2,0l10 0c1,0 1,1 2,1 0,1 1,1 1,2l0 2c0,1 0,1 -1,2 0,0 0,1 0,1 -1,0 -1,0 -1,0 0,1 0,1 0,2l0 36c0,1 0,2 -1,3 0,1 -1,1 -1,2l-1 2c-1,0 -1,1 -1,2 0,1 0,1 1,2l0 1c1,0 1,1 2,1 0,0 1,1 1,1 1,0 1,0 1,0 1,1 1,2 1,2l0 2c0,1 -1,1 -1,2 -1,0 -1,1 -2,1l-1 0c0,0 -1,-1 -2,-1 -1,0 -1,-1 -2,-1l-2 -3c0,0 -1,0 -1,0 -1,0 -2,0 -2,0l-2 3c-1,0 -1,1 -2,1 -1,0 -2,1 -2,1l-1 0c-1,0 -1,-1 -2,-1 0,-1 -1,-1 -1,-2l0 -2c0,0 0,-1 1,-2 0,0 0,0 1,0 0,0 1,-1 1,-1 1,0 1,-1 2,-1l0 -1c1,-1 1,-1 1,-2 0,-1 0,-2 -1,-2l-1 -2c0,-1 -1,-1 -1,-2 -1,-1 -1,-2 -1,-3l0 -36c0,-1 0,-1 0,-2 0,0 0,0 -1,0 0,0 0,-1 0,-1 -1,-1 -1,-1 -1,-2l0 -6c0,-1 1,-1 1,-2 1,0 1,-1 2,-1l2 0c0,0 1,0 2,1zm-33 63c0,0 1,-1 1,-1 0,-1 1,-1 1,-2l0 -38c0,-1 -1,-1 -1,-2 0,0 -1,-1 -1,-1 -1,0 -1,0 -1,0 -1,-1 -1,-2 -1,-2l0 -2c0,-1 0,-1 1,-2 0,0 1,-1 2,-1l20 0c1,0 2,1 2,1 1,1 1,1 1,2l0 2c0,0 0,1 -1,2 0,0 -1,0 -2,0l-10 0c0,0 -1,1 -1,1 -1,1 -1,1 -1,2l0 4c0,1 0,2 1,2 0,1 1,1 1,1l10 0c1,0 2,0 2,1 1,0 1,1 1,2l0 35c0,1 0,1 -1,2 0,0 -1,1 -2,1l-7 0c-1,0 -1,-1 -2,-1 0,-1 -1,-1 -1,-2l0 -2c0,0 1,-1 1,-2 1,0 1,0 2,0l0 0c1,0 2,-1 2,-1 1,-1 1,-1 1,-2l0 -21c0,-1 0,-2 -1,-2 0,-1 -1,-1 -2,-1l-3 0c0,0 -1,0 -2,1 0,0 0,1 0,2l0 28c0,1 -1,1 -1,2 -1,0 -1,1 -2,1l-5 0c-1,0 -2,-1 -2,-1 -1,-1 -1,-1 -1,-2l0 -2c0,0 0,-1 1,-2 0,0 0,0 1,0zm3 -64c0,0 1,0 1,1 1,0 1,0 1,1 0,0 0,0 1,1 0,0 1,0 2,0l13 0c1,0 2,0 2,1 1,0 1,1 1,2l0 1c0,1 0,2 -1,2 0,1 -1,1 -2,1l-20 0c-1,0 -2,0 -2,-1 -1,0 -1,-1 -1,-2l0 -5c0,0 0,-1 1,-1 0,-1 1,-1 2,-1l2 0zm37 14c0,-1 0,-1 -1,-2 0,0 -1,0 -1,0 -1,0 -2,0 -2,0 0,1 -1,1 -1,2l0 34c0,0 0,1 1,2 0,1 0,1 1,2 0,0 0,0 1,0 0,0 0,0 1,0 0,-1 0,-1 0,-2 1,-1 1,-2 1,-2l0 -34z"/>
  <path class="fil2" d="M176 0c-47,0 -85,38 -85,85 0,47 38,85 85,85 47,0 85,-38 85,-85 0,-47 -38,-85 -85,-85zm36 91l-49 32c-1,0 -2,1 -3,1 -4,0 -7,-3 -7,-7l0 -64c0,-4 3,-7 7,-7 1,0 2,1 3,2l49 31c2,2 3,4 3,6 0,2 -1,4 -3,6l0 0z" p-id="2034"/>
 </g>
</svg>
