<?xml version="1.0" encoding="UTF-8"?>
<!DOCTYPE svg PUBLIC "-//W3C//DTD SVG 1.1//EN" "http://www.w3.org/Graphics/SVG/1.1/DTD/svg11.dtd">
<!-- Creator: CorelDRAW X8 -->
<svg xmlns="http://www.w3.org/2000/svg" xml:space="preserve" width="331.095mm" height="332.043mm" version="1.1" style="shape-rendering:geometricPrecision; text-rendering:geometricPrecision; image-rendering:optimizeQuality; fill-rule:evenodd; clip-rule:evenodd"
viewBox="0 0 375 376"
 xmlns:xlink="http://www.w3.org/1999/xlink">
 <defs>
  <style type="text/css">
   <![CDATA[
    .fil1 {fill:#FEFEFE}
    .fil0 {fill:#173159}
    .fil2 {fill:#FEFEFE;fill-rule:nonzero}
   ]]>
  </style>
 </defs>
 <g id="图层_x0020_1">
  <metadata id="CorelCorpID_0Corel-Layer"/>
  <path class="fil0" d="M353 249l-331 0c-12,0 -22,10 -22,23l0 82c0,12 10,22 22,22l331 0c12,0 22,-10 22,-22l0 -82c0,-13 -10,-23 -22,-23z"/>
  <path class="fil1" d="M250 37l29 -13c2,-1 3,-1 5,-1 6,0 11,5 11,11 0,0 0,0 0,0l0 113c0,0 0,0 0,0 0,6 -5,11 -11,11 -2,0 -3,0 -5,-1l-29 -13 0 14c0,0 0,0 0,0 0,13 -10,23 -23,23l-124 0c-13,0 -23,-10 -23,-23l0 -135c0,-13 10,-23 23,-23l124 0c13,0 23,10 23,23 0,0 0,0 0,0l0 14zm-112 22l54 0c4,0 6,3 6,7l0 49c0,4 -2,7 -6,7l-54 0c-3,0 -6,-3 -6,-7l0 -49c0,-4 3,-7 6,-7z" p-id="4464"/>
  <path class="fil2" d="M151 315l28 0c0,0 1,0 2,1 0,0 0,1 0,2l0 23c0,1 0,1 0,2 -1,1 -1,2 -2,3l-2 2c0,0 -1,1 -2,1 -1,0 -2,1 -2,1l-22 0c-1,0 -2,-1 -2,-1 -1,-1 -1,-2 -1,-2l0 -29c0,-1 0,-2 1,-2 0,-1 1,-1 2,-1zm20 -27c-1,0 -1,0 -2,1 0,0 -1,1 -1,2l0 9c0,0 1,1 1,2 1,0 1,1 2,1l8 0c0,0 1,0 2,0 0,1 0,2 0,2l0 2c0,1 0,2 0,2 -1,1 -2,1 -2,1l-28 0c-1,0 -2,0 -2,-1 -1,0 -1,-1 -1,-2l0 -2c0,0 0,-1 1,-2 0,0 1,0 2,0l7 0c1,0 1,-1 2,-1 1,-1 1,-2 1,-2l0 -9c0,-1 0,-2 -1,-2 -1,-1 -1,-1 -2,-1l-7 0c-1,0 -2,0 -2,-1 -1,0 -1,-1 -1,-2l0 -2c0,0 0,-1 1,-2 0,0 1,-1 2,-1l7 0c1,0 1,0 2,0 1,-1 1,-1 1,-2 0,-1 0,-1 1,-2 0,0 1,0 2,0l2 0c0,0 1,0 1,0 1,1 1,1 1,2 0,1 1,1 1,2 1,0 1,0 2,0l8 0c0,0 1,1 2,1 0,1 0,2 0,2l0 2c0,1 0,2 0,2 -1,1 -2,1 -2,1l-8 0zm-43 41c0,-1 0,-2 0,-3 0,-1 1,-2 1,-2l5 -14c1,-1 1,-1 0,-2 0,0 -1,0 -1,0l-3 0c0,0 -1,-1 -1,-1 -1,-1 -1,-1 -1,-2l0 -6c0,-1 0,-2 0,-3 0,-1 0,-2 0,-2l5 -16c0,0 0,-1 1,-2 1,0 2,0 2,0l3 0c1,0 1,0 2,0 0,1 0,2 0,2l-5 19c-1,1 0,2 0,2 0,1 1,1 2,1 0,0 1,0 2,1 1,0 1,1 2,2l0 1c1,0 1,1 1,2 0,1 0,2 0,3l-5 13c-1,1 -1,2 0,2 0,1 1,1 1,1l1 0c1,0 2,0 2,1 1,0 1,1 1,2l0 1c0,1 0,2 -1,3 0,0 -1,0 -2,0l-10 0c0,0 -1,0 -1,0 -1,-1 -1,-2 -1,-2l0 -1zm43 13c1,0 2,0 2,-1 1,0 1,-1 1,-2l0 -14c0,-1 0,-1 -1,-2 0,0 -1,-1 -2,-1l-13 0c-1,0 -1,1 -2,1 -1,1 -1,1 -1,2l0 14c0,1 0,2 1,2 1,1 1,1 2,1l13 0zm-43 3c0,-1 0,-2 1,-2 0,-1 1,-1 1,-1l10 0c1,0 2,0 2,1 1,0 1,1 1,2l0 2c0,0 0,1 -1,2 0,0 -1,1 -2,1l-10 0c0,0 -1,-1 -1,-1 -1,-1 -1,-2 -1,-2l0 -2zm115 -21c-1,0 -2,1 -3,1 0,0 -1,1 -2,1l-11 0c-1,0 -1,0 -2,0 0,1 -1,2 -1,2l0 19c0,0 0,1 -1,2 0,0 -1,1 -2,1l-1 0c-1,0 -2,-1 -2,-1 -1,-1 -1,-2 -1,-2l0 -19c0,0 0,-1 -1,-2 -1,0 -1,0 -2,0l-17 0c-1,0 -1,-1 -2,-1 0,-1 -1,-2 -1,-2l0 -26c0,-1 1,-2 1,-3 1,0 1,0 2,0l17 0c1,0 1,-1 2,-1 1,-1 1,-1 1,-2 0,-1 0,-2 -1,-2 -1,-1 -1,-1 -2,-1l-17 0c-1,0 -1,0 -2,-1 0,0 -1,-1 -1,-2l0 -2c0,0 1,-1 1,-2 1,0 1,0 2,0l17 0c1,0 1,-1 2,-1 1,-1 1,-1 1,-2 0,-1 0,-1 1,-2 0,0 1,0 2,0l1 0c1,0 2,0 2,0 1,1 1,1 1,2 0,1 1,1 1,2 1,0 1,1 2,1l17 0c1,0 1,0 2,0 0,1 1,2 1,2l0 2c0,1 -1,2 -1,2 -1,1 -1,1 -2,1l-17 0c-1,0 -1,0 -2,1 0,0 -1,1 -1,2 0,1 1,1 1,2 1,0 1,1 2,1l17 0c1,0 1,0 2,0 0,1 1,2 1,3l0 20c0,0 -1,1 -1,2 0,1 -1,2 -1,3l-2 2zm-29 -6c1,0 1,0 2,-1 1,0 1,-1 1,-2l0 -11c0,-1 0,-1 -1,-2 -1,-1 -1,-1 -2,-1l-9 0c-1,0 -2,0 -2,1 -1,1 -1,1 -1,2l0 11c0,1 0,2 1,2 0,1 1,1 2,1l9 0zm25 -14c0,-1 0,-1 -1,-2 0,-1 -1,-1 -2,-1l-9 0c-1,0 -1,0 -2,1 0,1 -1,1 -1,2l0 11c0,1 1,2 1,2 1,1 1,1 2,1l9 0c1,0 2,0 2,-1 1,0 1,-1 1,-2l0 -11zm-45 39c1,-1 1,-1 2,-1 0,0 1,0 1,-1 1,-1 1,-1 1,-2l0 -7c0,-1 0,-2 1,-2 0,-1 1,-1 2,-1l1 0c1,0 2,0 3,1 0,0 0,1 0,2l0 9c0,0 0,1 0,2 -1,1 -1,2 -2,2l-2 2c0,1 -1,1 -2,2 -1,0 -2,0 -2,0l-1 0c0,0 -1,0 -1,0 -1,-1 -1,-2 -1,-2l0 -2c0,-1 0,-2 0,-2zm50 6c0,0 -1,0 -2,0 -1,-1 -2,-1 -2,-2l-2 -2c-1,0 -1,-1 -2,-2 0,-1 0,-2 0,-2l0 -9c0,-1 0,-2 1,-2 0,-1 1,-1 2,-1l1 0c1,0 2,0 2,1 1,0 1,1 1,2l0 7c0,1 0,2 1,2 0,1 1,1 1,1 1,0 1,0 2,1 0,0 0,1 0,2l0 2c0,0 0,1 -1,2 0,0 -1,0 -2,0l0 0z"/>
 </g>
</svg>
