<?xml version="1.0" encoding="UTF-8"?>
<!DOCTYPE svg PUBLIC "-//W3C//DTD SVG 1.1//EN" "http://www.w3.org/Graphics/SVG/1.1/DTD/svg11.dtd">
<!-- Creator: CorelDRAW X8 -->
<svg xmlns="http://www.w3.org/2000/svg" xml:space="preserve" width="385.826mm" height="386.931mm" version="1.1" style="shape-rendering:geometricPrecision; text-rendering:geometricPrecision; image-rendering:optimizeQuality; fill-rule:evenodd; clip-rule:evenodd"
viewBox="0 0 386 387"
 xmlns:xlink="http://www.w3.org/1999/xlink">
 <defs>
  <style type="text/css">
   <![CDATA[
    .fil2 {fill:#FEFEFE}
    .fil0 {fill:#8B8B8C}
    .fil1 {fill:#FEFEFE;fill-rule:nonzero}
   ]]>
  </style>
 </defs>
 <g id="图层_x0020_1">
  <metadata id="CorelCorpID_0Corel-Layer"/>
  <path class="fil0" d="M363 257l-340 0c-13,0 -23,10 -23,23l0 84c0,13 10,23 23,23l340 0c13,0 23,-10 23,-23l0 -84c0,-13 -10,-23 -23,-23z"/>
  <path class="fil1" d="M240 348c-1,0 -2,0 -3,0 0,-1 -1,-2 -1,-3l0 -59c0,0 1,-1 1,-2 1,0 2,-1 3,-1l1 0c1,0 2,1 2,1 1,1 1,2 1,2l0 59c0,1 0,2 -1,3 0,0 -1,0 -2,0l-1 0zm16 4c0,0 -1,1 -1,2 0,1 -1,2 -1,3l-3 2c0,0 -1,1 -2,1 -1,1 -2,1 -3,1l-6 0c-1,0 -2,-1 -3,-1 0,-1 -1,-1 -1,-2l0 -2c0,-1 1,-2 1,-2 1,-1 2,-1 3,-1l5 0c1,0 1,0 2,-1 0,0 1,-1 1,-2l0 -64c0,0 0,-1 1,-2 0,0 1,-1 2,-1l2 0c0,0 1,1 2,1 0,1 1,2 1,2l0 66zm-35 -64c0,0 0,1 0,2 1,0 2,1 3,1l7 0c0,0 1,0 2,0 0,1 1,2 1,3l0 1c0,1 -1,2 -1,2 -1,1 -2,1 -2,1l-7 0c-1,0 -2,1 -3,1 0,1 0,2 0,2l0 3c0,1 0,1 0,2 1,1 2,1 3,1l7 0c0,0 1,0 2,1 0,0 1,1 1,2l0 2c0,1 -1,1 -1,2 -1,0 -2,1 -2,1l-7 0c-1,0 -2,0 -3,1 0,0 0,1 0,2l0 2c0,0 0,1 0,2 1,0 2,1 3,1l7 0c0,0 1,0 2,0 0,1 1,1 1,2l0 24c0,1 -1,2 -1,3 0,1 -1,2 -2,2l-1 2c-1,1 -2,1 -3,2 0,0 -1,0 -2,0 0,0 -1,0 -1,-1 -1,0 -1,-1 -1,-2l0 -2c0,0 0,-1 0,-2 1,0 1,-1 1,-1 1,0 1,0 1,0 1,-1 1,-2 1,-2l0 -15c0,0 0,-1 -1,-2 -1,0 -1,-1 -2,-1 0,0 -1,1 -2,1 0,1 0,2 0,2l0 25c0,1 -1,1 -1,2 -1,0 -2,1 -2,1l-2 0c-1,0 -2,-1 -2,-1 -1,-1 -1,-1 -1,-2l0 -25c0,0 -1,-1 -1,-2 0,0 -1,-1 -2,-1 -1,0 -1,1 -2,1 0,1 0,2 0,2l0 22c0,1 -1,2 -1,2 -1,1 -2,1 -2,1l-2 0c-1,0 -2,0 -2,-1 -1,0 -1,-1 -1,-2l0 -29c0,-1 0,-2 1,-3 0,0 1,0 2,0l7 0c1,0 1,-1 2,-1 0,-1 1,-2 1,-2l0 -2c0,-1 -1,-2 -1,-2 -1,-1 -1,-1 -2,-1l-7 0c-1,0 -2,-1 -2,-1 -1,-1 -1,-1 -1,-2l0 -2c0,-1 0,-2 1,-2 0,-1 1,-1 2,-1l7 0c1,0 1,0 2,-1 0,-1 1,-1 1,-2l0 -3c0,0 -1,-1 -1,-2 -1,0 -1,-1 -2,-1l-1 0c-1,0 -2,0 -3,0 -1,-1 -2,-1 -2,-2l-2 -2c-1,0 -1,-1 -2,-2 0,-1 0,-2 0,-3l0 -1c0,-1 0,-2 1,-2 0,-1 1,-1 2,-1l2 0c0,0 1,0 2,1 0,0 1,1 1,2 0,0 0,1 0,2 1,0 1,1 2,1 1,0 2,-1 2,-1 0,-1 1,-2 1,-2l0 -2c0,0 0,-1 1,-2 0,0 1,-1 2,-1l2 0c0,0 1,1 2,1 0,1 1,2 1,2l0 2zm-39 73c-1,0 -2,0 -3,-1 -1,0 -2,-1 -2,-1l-3 -3c0,0 -1,-1 -1,-2 0,-1 -1,-2 -1,-2l0 -10c0,0 1,-1 1,-2 1,0 2,-1 2,-1l2 0c1,0 2,1 2,1 1,1 1,2 1,2l0 8c0,1 1,2 1,2 1,1 1,1 2,1l1 0c1,0 2,0 2,1 1,0 1,1 1,2l0 2c0,1 0,1 -1,2 0,0 -1,1 -2,1l-2 0zm5 -46c0,1 0,2 -1,2 0,1 -1,1 -2,1l-19 0c0,0 -1,1 -2,1 0,1 -1,1 -1,2l0 31c0,0 0,1 0,2 -1,1 -1,2 -2,2l-2 3c0,0 -1,1 -2,1 -1,1 -2,1 -3,1l-1 0c-1,0 -2,-1 -2,-1 -1,-1 -1,-1 -1,-2l0 -2c0,-1 0,-2 1,-2 0,-1 1,-1 2,-1 1,0 1,0 2,-1 0,0 1,-1 1,-2l0 -29c0,-1 -1,-1 -1,-2 -1,0 -1,-1 -2,-1l-18 0c-1,0 -2,0 -2,-1 -1,0 -1,-1 -1,-2l0 -2c0,0 0,-1 1,-2 0,0 1,-1 2,-1l39 0c1,0 2,0 2,0 1,-1 1,-2 1,-2 0,-1 0,-2 -1,-2 0,-1 -1,-1 -2,-1l-39 0c-1,0 -2,-1 -2,-1 -1,-1 -1,-1 -1,-2l0 -2c0,-1 0,-2 1,-2 0,-1 1,-1 2,-1l39 0c1,0 2,0 2,-1 1,0 1,-1 1,-2 0,-1 0,-1 -1,-2 0,-1 -1,-1 -2,-1l-39 0c-1,0 -2,0 -2,-1 -1,0 -1,-1 -1,-2l0 -2c0,-1 0,-1 1,-2 0,0 1,-1 2,-1l47 0c1,0 1,1 2,1 1,1 1,1 1,2l0 22c0,0 0,1 0,2 1,0 1,0 1,0 1,0 1,1 2,1 0,1 0,2 0,2l0 2zm-46 44c0,0 -1,1 -2,1 -1,1 -2,1 -3,1l-2 0c-1,0 -2,-1 -2,-1 -1,-1 -1,-1 -1,-2l0 -2c0,-1 0,-2 1,-2 0,-1 1,-1 2,-1l0 0c1,0 2,0 3,-1 0,0 0,-1 0,-2l0 -8c0,0 1,-1 1,-2 1,0 2,-1 2,-1l2 0c1,0 2,1 2,1 1,1 1,2 1,2l0 10c0,0 0,1 0,2 -1,1 -1,2 -2,2l-2 3zm-5 -38c1,0 1,0 2,1 0,0 1,1 1,2l0 0c0,1 0,1 0,2 1,1 2,1 3,1l4 0c0,0 1,0 2,1 0,0 0,1 0,2l0 2c0,1 0,1 0,2 -1,0 -2,1 -2,1l-6 0c-1,0 -2,-1 -3,-1 -1,0 -1,-1 -2,-1l-2 -3c-1,0 -1,-1 -2,-2 0,-1 0,-2 0,-3l0 -1c0,-1 0,-2 1,-2 0,-1 1,-1 2,-1l2 0zm51 4c0,1 0,2 -1,3 0,1 0,2 -1,2l-2 3c-1,0 -2,1 -3,1 -1,0 -1,1 -2,1l-6 0c-1,0 -1,-1 -2,-1 0,-1 -1,-1 -1,-2l0 -2c0,-1 1,-2 1,-2 1,-1 1,-1 2,-1l4 0c1,0 2,0 2,-1 1,-1 1,-1 1,-2l0 0c0,-1 0,-2 1,-2 1,-1 1,-1 2,-1l2 0c1,0 2,0 2,1 1,0 1,1 1,2l0 1z"/>
  <path class="fil2" d="M257 38l31 -13c1,-1 3,-1 4,-1 7,0 12,5 12,11 0,0 0,0 0,0l0 116c0,0 0,0 0,0 0,7 -5,12 -12,12 -1,0 -3,-1 -4,-1l-31 -14 0 15c0,0 0,0 0,0 0,13 -10,24 -23,24l-128 0c-13,0 -24,-11 -24,-24l0 -140c0,-13 11,-23 24,-23l128 0c13,0 23,10 23,23 0,0 0,0 0,0l0 15zm-116 20l0 71c0,3 2,6 6,6 1,0 2,0 3,-1l53 -36c2,-1 3,-3 3,-5 0,-2 -1,-3 -3,-5l-53 -35c-1,-1 -2,-1 -3,-1 -4,0 -6,2 -6,6l0 0z" p-id="4464"/>
 </g>
</svg>
