<?xml version="1.0" encoding="UTF-8"?>
<!DOCTYPE svg PUBLIC "-//W3C//DTD SVG 1.1//EN" "http://www.w3.org/Graphics/SVG/1.1/DTD/svg11.dtd">
<!-- Creator: CorelDRAW X8 -->
<svg xmlns="http://www.w3.org/2000/svg" xml:space="preserve" width="583.383mm" height="585.055mm" version="1.1" style="shape-rendering:geometricPrecision; text-rendering:geometricPrecision; image-rendering:optimizeQuality; fill-rule:evenodd; clip-rule:evenodd"
viewBox="0 0 885 887"
 xmlns:xlink="http://www.w3.org/1999/xlink">
 <defs>
  <style type="text/css">
   <![CDATA[
    .fil2 {fill:#FEFEFE}
    .fil0 {fill:#C2E105}
    .fil1 {fill:#FEFEFE;fill-rule:nonzero}
   ]]>
  </style>
 </defs>
 <g id="图层_x0020_1">
  <metadata id="CorelCorpID_0Corel-Layer"/>
  <path class="fil0" d="M832 588l-779 0c-29,0 -53,23 -53,52l0 194c0,29 24,53 53,53l779 0c29,0 53,-24 53,-53l0 -194c0,-29 -24,-52 -53,-52z"/>
  <path class="fil1" d="M548 798c-2,0 -3,-1 -5,-2 -1,-2 -2,-3 -2,-5l0 -136c0,-1 1,-3 2,-4 2,-1 3,-2 5,-2l4 0c2,0 4,1 5,2 2,1 2,3 2,4l0 136c0,2 0,3 -2,5 -1,1 -3,2 -5,2l-4 0zm37 7c0,2 0,4 -1,6 -1,2 -2,4 -4,5l-4 5c-2,1 -4,3 -6,4 -2,0 -4,1 -6,1l-16 0c-2,0 -3,-1 -5,-2 -1,-2 -2,-3 -2,-5l0 -4c0,-2 1,-4 2,-5 2,-1 3,-2 5,-2l13 0c1,0 3,-1 4,-2 2,-1 2,-3 2,-5l0 -146c0,-1 1,-3 2,-4 1,-1 3,-2 5,-2l4 0c2,0 4,1 5,2 1,1 2,3 2,4l0 150zm-80 -147c0,2 1,4 2,5 1,1 3,2 5,2l16 0c2,0 3,1 5,2 1,1 2,3 2,5l0 4c0,2 -1,4 -2,5 -2,1 -3,2 -5,2l-16 0c-2,0 -4,1 -5,2 -1,1 -2,3 -2,5l0 6c0,2 1,3 2,5 1,1 3,2 5,2l16 0c2,0 3,0 5,2 1,1 2,3 2,4l0 5c0,1 -1,3 -2,4 -2,2 -3,3 -5,3l-16 0c-2,0 -4,0 -5,2 -1,1 -2,2 -2,4l0 5c0,2 1,3 2,5 1,1 3,2 5,2l16 0c2,0 3,0 5,1 1,1 2,2 2,3l0 56c0,2 -1,4 -2,6 0,3 -2,4 -3,6l-5 4c-1,1 -3,3 -5,4 -1,0 -3,1 -4,1 -2,0 -3,-1 -4,-2 -1,-1 -1,-3 -1,-5l0 -4c0,-2 0,-3 0,-5 1,-1 2,-2 3,-2 1,0 1,0 2,-2 1,-1 1,-2 1,-4l0 -33c0,-2 -1,-3 -2,-5 -1,-1 -2,-2 -4,-2 -2,0 -3,1 -4,2 -1,2 -2,3 -2,5l0 56c0,2 -1,3 -2,5 -1,1 -3,2 -5,2l-4 0c-2,0 -4,-1 -5,-2 -1,-2 -2,-3 -2,-5l0 -56c0,-2 -1,-3 -2,-5 -1,-1 -2,-2 -4,-2 -1,0 -3,1 -4,2 -1,2 -2,3 -2,5l0 50c0,2 0,4 -2,5 -1,1 -3,2 -5,2l-4 0c-2,0 -3,-1 -5,-2 -1,-1 -2,-3 -2,-5l0 -68c0,-2 1,-3 2,-4 2,-2 3,-2 5,-2l16 0c2,0 4,-1 5,-2 1,-2 2,-3 2,-5l0 -5c0,-2 -1,-3 -2,-4 -1,-2 -3,-2 -5,-2l-16 0c-2,0 -3,-1 -5,-3 -1,-1 -2,-3 -2,-4l0 -5c0,-1 1,-3 2,-4 2,-2 3,-2 5,-2l16 0c2,0 4,-1 5,-2 1,-2 2,-3 2,-5l0 -6c0,-2 -1,-4 -2,-5 -1,-1 -3,-2 -5,-2l-2 0c-2,0 -4,0 -6,-1 -2,-1 -4,-2 -5,-4l-5 -5c-1,-1 -2,-3 -3,-5 -1,-2 -2,-4 -2,-6l0 -3c0,-2 1,-4 2,-5 2,-1 3,-2 5,-2l4 0c2,0 4,1 5,2 2,1 2,3 2,5 0,1 1,3 2,4 1,1 3,2 4,2 2,0 3,-1 4,-2 1,-1 2,-3 2,-5l0 -2c0,-2 1,-4 2,-5 1,-1 3,-2 5,-2l4 0c2,0 4,1 5,2 1,1 2,3 2,5l0 2zm-89 168c-2,0 -4,-1 -7,-1 -2,-1 -4,-3 -5,-4l-5 -5c-1,-1 -2,-3 -3,-5 -1,-2 -1,-4 -1,-6l0 -21c0,-2 0,-4 2,-5 1,-1 3,-2 4,-2l5 0c2,0 4,1 5,2 1,1 2,3 2,5l0 17c0,2 0,4 2,5 1,1 3,2 4,2l2 0c2,0 4,1 5,2 1,1 2,3 2,5l0 4c0,2 -1,3 -2,5 -1,1 -3,2 -5,2l-5 0zm12 -104c0,2 -1,3 -2,5 -1,1 -3,2 -5,2l-42 0c-2,0 -4,0 -5,2 -1,1 -2,2 -2,4l0 70c0,2 -1,4 -1,6 -1,2 -2,4 -4,5l-5 5c-1,1 -3,3 -5,4 -2,0 -4,1 -6,1l-4 0c-2,0 -3,-1 -5,-2 -1,-2 -2,-3 -2,-5l0 -4c0,-2 1,-4 2,-5 2,-1 3,-2 5,-2 2,0 4,-1 5,-2 1,-1 2,-3 2,-5l0 -66c0,-2 -1,-3 -2,-4 -1,-2 -3,-2 -5,-2l-41 0c-2,0 -3,-1 -5,-2 -1,-2 -2,-3 -2,-5l0 -4c0,-2 1,-4 2,-5 2,-2 3,-2 5,-2l90 0c2,0 4,-1 5,-2 1,-1 2,-3 2,-5 0,-2 -1,-3 -2,-4 -1,-2 -3,-2 -5,-2l-90 0c-2,0 -3,-1 -5,-2 -1,-2 -2,-3 -2,-5l0 -5c0,-1 1,-3 2,-4 2,-2 3,-2 5,-2l90 0c2,0 4,-1 5,-2 1,-1 2,-3 2,-5 0,-2 -1,-3 -2,-4 -1,-2 -3,-2 -5,-2l-90 0c-2,0 -3,-1 -5,-2 -1,-2 -2,-3 -2,-5l0 -5c0,-2 1,-3 2,-4 2,-2 3,-2 5,-2l108 0c2,0 4,0 5,2 1,1 2,2 2,4l0 49c0,2 0,3 1,5 1,1 1,2 3,2 1,0 1,0 2,2 1,1 1,3 1,4l0 5zm-105 99c-1,1 -3,3 -5,4 -2,0 -5,1 -6,1l-6 0c-2,0 -3,-1 -5,-2 -1,-2 -2,-3 -2,-5l0 -4c0,-2 1,-4 2,-5 2,-1 3,-2 5,-2l2 0c2,0 3,-1 5,-2 1,-1 2,-3 2,-5l0 -17c0,-2 0,-4 2,-5 1,-1 3,-2 4,-2l5 0c2,0 3,1 5,2 1,1 2,3 2,5l0 21c0,2 -1,4 -2,6 -1,2 -2,4 -3,5l-5 5zm-12 -87c1,0 3,1 4,2 2,2 2,3 2,5l0 0c0,2 1,4 2,5 2,1 3,2 5,2l9 0c2,0 3,1 5,2 1,1 2,3 2,5l0 4c0,2 -1,4 -2,5 -2,1 -3,2 -5,2l-13 0c-1,0 -3,0 -6,-1 -2,-1 -4,-2 -5,-4l-5 -4c-1,-2 -2,-4 -3,-6 -1,-2 -2,-4 -2,-6l0 -4c0,-2 1,-3 2,-5 2,-1 3,-2 5,-2l5 0zm117 11c0,2 0,4 -1,6 -1,2 -2,4 -4,6l-4 4c-2,2 -4,3 -6,4 -2,1 -4,1 -6,1l-13 0c-2,0 -3,-1 -5,-2 -1,-1 -2,-3 -2,-5l0 -4c0,-2 1,-4 2,-5 2,-1 3,-2 5,-2l9 0c2,0 4,-1 5,-2 1,-1 2,-3 2,-5l0 0c0,-2 1,-3 2,-5 1,-1 3,-2 5,-2l4 0c2,0 4,1 5,2 1,2 2,3 2,5l0 4z"/>
  <path class="fil2" d="M589 88l69 -31c4,-2 7,-3 11,-3 15,0 27,12 27,27 0,0 0,0 0,0l0 265c0,0 0,0 0,0 0,15 -12,27 -27,27 -4,0 -7,-1 -11,-3l-69 -30 0 34c0,0 0,0 0,0 0,29 -24,53 -53,53l-294 0c-29,0 -53,-24 -53,-53l0 -321c0,-29 24,-53 53,-53l294 0c29,0 53,24 53,53 0,0 0,0 0,0l0 35zm-267 44l0 163c0,8 6,14 13,14 3,0 6,-1 8,-3l123 -81c3,-3 6,-7 6,-11 0,-5 -3,-9 -6,-12l-123 -81c-2,-2 -5,-3 -8,-3 -7,0 -13,6 -13,14l0 0z" p-id="4464"/>
 </g>
</svg>
