<?xml version="1.0" encoding="UTF-8"?>
<!DOCTYPE svg PUBLIC "-//W3C//DTD SVG 1.1//EN" "http://www.w3.org/Graphics/SVG/1.1/DTD/svg11.dtd">
<!-- Creator: CorelDRAW X8 -->
<svg xmlns="http://www.w3.org/2000/svg" xml:space="preserve" width="385.826mm" height="386.931mm" version="1.1" style="shape-rendering:geometricPrecision; text-rendering:geometricPrecision; image-rendering:optimizeQuality; fill-rule:evenodd; clip-rule:evenodd"
viewBox="0 0 367 368"
 xmlns:xlink="http://www.w3.org/1999/xlink">
 <defs>
  <style type="text/css">
   <![CDATA[
    .fil2 {fill:#FEFEFE}
    .fil0 {fill:#9B72F4}
    .fil1 {fill:#FEFEFE;fill-rule:nonzero}
   ]]>
  </style>
 </defs>
 <g id="图层_x0020_1">
  <metadata id="CorelCorpID_0Corel-Layer"/>
  <path class="fil0" d="M345 244l-323 0c-12,0 -22,10 -22,22l0 80c0,12 10,22 22,22l323 0c12,0 22,-10 22,-22l0 -80c0,-12 -10,-22 -22,-22z"/>
  <path class="fil1" d="M158 342c-1,0 -2,0 -2,0 -1,-1 -1,-2 -1,-2l0 -27c0,0 0,-1 -1,-2 0,0 -1,0 -2,0l-10 0c-1,0 -2,-1 -2,-1 -1,-1 -1,-1 -1,-2l0 -2c0,-1 0,-2 1,-2 0,-1 1,-1 2,-1l10 0c1,0 2,0 2,-1 1,0 1,-1 1,-2l0 0c0,-1 0,-1 -1,-2 0,-1 -1,-1 -2,-1l-8 0c-1,0 -2,0 -2,-1 -1,0 -1,-1 -1,-2l0 -22c0,-1 0,-1 1,-2 0,-1 1,-1 2,-1l30 0c1,0 2,1 2,1 1,1 1,1 1,2l0 22c0,1 0,2 -1,2 0,1 -1,1 -2,1l-9 0c-1,0 -1,0 -2,1 0,1 -1,1 -1,2l0 0c0,1 1,2 1,2 1,1 1,1 2,1l10 0c1,0 1,0 2,1 0,0 1,1 1,2l0 2c0,1 -1,1 -1,2 -1,0 -1,1 -2,1l-10 0c-1,0 -1,0 -2,0 0,1 -1,2 -1,2l0 27c0,0 0,1 0,2 -1,0 -2,0 -2,0l-2 0zm-22 -48c0,1 0,1 -1,1 0,0 0,1 0,1 -1,1 -1,1 -1,2l0 42c0,0 0,1 -1,2 0,0 -1,0 -2,0l-1 0c-1,0 -2,0 -2,0 -1,-1 -1,-2 -1,-2l0 -42c0,-1 0,-1 -1,-2 0,-1 0,-1 0,-1 -1,0 -1,0 -1,-1 -1,0 -1,-1 -1,-2l0 -1c0,-1 0,-2 1,-2 0,-1 1,-1 2,-1 0,0 1,0 2,-1 0,-1 0,-1 0,-2l0 -13c0,-1 1,-2 1,-2 1,-1 1,-1 2,-1l2 0c1,0 1,0 2,1 0,0 1,1 1,2l0 20c0,1 0,2 -1,2zm13 -7c0,1 0,1 0,2 1,1 2,1 2,1l16 0c0,0 1,0 2,-1 0,-1 0,-1 0,-2l0 -8c0,0 0,-1 0,-2 -1,0 -2,0 -2,0l-16 0c0,0 -1,0 -2,0 0,1 0,2 0,2l0 8zm1 53c0,0 0,1 -1,2 0,0 -1,0 -2,0l-5 0c-1,0 -1,0 -2,0 0,-1 0,-2 0,-2l0 -2c0,-1 0,-2 0,-2 0,-1 1,-1 1,-1 1,0 1,0 1,-1 0,0 1,-1 1,-2l0 -15c0,-1 0,-2 0,-2 1,-1 2,-1 2,-1l2 0c1,0 2,0 2,1 1,0 1,1 1,2l0 23zm22 -26c1,0 1,0 2,1 0,0 1,1 1,2l0 15c0,1 0,2 0,2 0,1 1,1 1,1 0,0 1,0 1,1 0,0 0,1 0,2l0 2c0,0 0,1 0,2 -1,0 -1,0 -2,0l-5 0c-1,0 -1,0 -2,0 -1,-1 -1,-2 -1,-2l0 -23c0,-1 0,-2 1,-2 1,-1 1,-1 2,-1l2 0zm22 -20c1,0 1,-1 2,-1 0,-1 1,-2 1,-2l0 -5c0,-1 -1,-2 -1,-2 -1,-1 -1,-1 -2,-1l-2 0c0,0 -1,0 -1,-1 -1,0 -1,-1 -1,-2l0 -1c0,-1 0,-2 1,-2 0,-1 1,-1 1,-1l2 0c1,0 1,0 2,-1 0,-1 1,-1 1,-2l0 -1c0,-1 0,-2 1,-2 0,-1 1,-1 2,-1l1 0c1,0 2,0 2,1 1,0 1,1 1,2l0 1c0,1 0,1 1,2 1,1 1,1 2,1l33 0c1,0 1,0 2,1 0,0 1,1 1,2l0 1c0,1 -1,2 -1,2 -1,1 -1,1 -2,1l-33 0c-1,0 -1,0 -2,1 -1,0 -1,1 -1,2l0 12c0,1 0,1 0,2 -1,1 -1,1 -1,1 -1,0 -1,0 -1,1 -1,0 -1,1 -1,2l0 36c0,0 0,1 -1,2 0,0 -1,0 -2,0l-1 0c-1,0 -2,0 -2,0 -1,-1 -1,-2 -1,-2l0 -36c0,-1 0,-2 -1,-2 0,-1 -1,-1 -1,-1 -1,0 -1,0 -2,-1 0,-1 0,-1 0,-2l0 -2c0,0 0,-1 1,-2 0,0 1,0 1,0l2 0zm41 16c0,0 -1,1 -1,2 0,0 -1,1 -1,1 0,1 1,1 1,1 1,1 2,1 2,1l3 0c1,0 2,0 2,1 1,0 1,1 1,2l0 1c0,1 0,2 -1,2 0,1 -1,1 -2,1l-3 0c0,0 -1,0 -2,1 0,0 -1,1 -1,2l0 15c0,0 0,1 0,2 -1,0 -2,0 -2,0l-18 0c-1,0 -1,0 -2,0 0,-1 -1,-2 -1,-2l0 -2c0,-1 1,-2 1,-2 1,-1 1,-1 2,-1l10 0c1,0 2,0 2,-1 1,0 1,-1 1,-2l0 -7c0,-1 0,-2 -1,-2 0,-1 -1,-1 -2,-1l-14 0c0,0 -1,0 -2,-1 0,0 0,-1 0,-2l0 -1c0,-1 0,-2 0,-2 1,-1 2,-1 2,-1l14 0c1,0 2,0 2,-1 1,-1 1,-1 1,-2 0,-1 0,-1 1,-2 0,-1 0,-2 1,-3l4 -5c1,-1 1,-1 1,-2 -1,0 -1,0 -2,0l-22 0c0,0 -1,0 -2,-1 0,-1 0,-1 0,-2l0 -1c0,-1 0,-1 0,-2 1,-1 2,-1 2,-1l30 0c1,0 2,0 2,1 1,1 1,1 1,2l0 2c0,1 0,1 -1,2 0,1 0,2 -1,3l-5 7z"/>
  <g>
   <path class="fil2" d="M233 0l-118 0c-11,0 -20,9 -20,20l0 137c0,11 9,20 20,20l137 0c11,0 20,-9 20,-20l0 -118 -39 -39zm-50 157c-16,0 -29,-12 -29,-29 0,-17 13,-30 29,-30 17,0 30,13 30,30 0,17 -13,29 -30,29l0 0zm30 -98l-98 0 0 -39 98 0 0 39z" p-id="10455"/>
  </g>
 </g>
</svg>
