<?xml version="1.0" encoding="UTF-8"?>
<!DOCTYPE svg PUBLIC "-//W3C//DTD SVG 1.1//EN" "http://www.w3.org/Graphics/SVG/1.1/DTD/svg11.dtd">
<!-- Creator: CorelDRAW X8 -->
<svg xmlns="http://www.w3.org/2000/svg" xml:space="preserve" width="46.3035mm" height="38.7659mm" version="1.1" style="shape-rendering:geometricPrecision; text-rendering:geometricPrecision; image-rendering:optimizeQuality; fill-rule:evenodd; clip-rule:evenodd"
viewBox="0 0 19 16"
 xmlns:xlink="http://www.w3.org/1999/xlink"
 t="1651719436817"
 p-id="4002">
 <defs>
  <style type="text/css">
   <![CDATA[
    .fil0 {fill:#FEFEFE}
   ]]>
  </style>
 </defs>
 <g id="图层_x0020_1">
  <metadata id="CorelCorpID_0Corel-Layer"/>
  <g id="_1479960331376">
   <path class="fil0" d="M18 7c-2,0 -3,-1 -3,-2 0,-1 0,-1 -1,-1 0,0 0,0 0,1l0 4c-1,-1 -2,-1 -3,-1 -2,0 -4,2 -4,4 0,2 2,4 4,4 2,0 4,-2 4,-4 0,0 0,-1 0,-1 0,0 0,0 0,0l0 -3c1,0 2,1 3,1 0,0 1,-1 1,-1 0,0 -1,-1 -1,-1zm-7 7c-1,0 -2,-1 -2,-2 0,-2 1,-3 2,-3 2,0 3,1 3,3 0,1 -1,2 -3,2zm-10 -13l13 0c1,0 1,0 1,0 0,-1 0,-1 -1,-1l-13 0c-1,0 -1,0 -1,1 0,0 0,0 1,0zm0 4l11 0c0,0 1,0 1,0 0,-1 -1,-1 -1,-1l-11 0c-1,0 -1,0 -1,1 0,0 0,0 1,0zm4 3l-4 0c-1,0 -1,0 -1,0 0,1 0,1 1,1l4 0c1,0 1,0 1,-1 0,0 0,0 -1,0zm0 4l-4 0c-1,0 -1,0 -1,0 0,1 0,1 1,1l4 0c1,0 1,0 1,-1 0,0 0,0 -1,0z" p-id="4003"/>
  </g>
 </g>
</svg>
