<?xml version="1.0" encoding="UTF-8"?>
<!DOCTYPE svg PUBLIC "-//W3C//DTD SVG 1.1//EN" "http://www.w3.org/Graphics/SVG/1.1/DTD/svg11.dtd">
<!-- Creator: CorelDRAW X8 -->
<svg xmlns="http://www.w3.org/2000/svg" xml:space="preserve" width="22.9672mm" height="31.8487mm" version="1.1" style="shape-rendering:geometricPrecision; text-rendering:geometricPrecision; image-rendering:optimizeQuality; fill-rule:evenodd; clip-rule:evenodd"
viewBox="0 0 47 66"
 xmlns:xlink="http://www.w3.org/1999/xlink">
 <defs>
  <style type="text/css">
   <![CDATA[
    .fil0 {fill:#FEFEFE;fill-rule:nonzero}
   ]]>
  </style>
 </defs>
 <g id="图层_x0020_1">
  <metadata id="CorelCorpID_0Corel-Layer"/>
  <path class="fil0" d="M18 35c0,0 1,0 1,0 1,-1 1,-1 1,-2l0 -8c0,-1 0,-1 -1,-2 0,0 -1,-1 -1,-1l-16 0c0,0 -1,0 -1,0 -1,-1 -1,-1 -1,-2l0 -2c0,0 0,-1 1,-1 0,-1 1,-1 1,-1l43 0c0,0 1,0 2,1 0,0 0,1 0,1l0 2c0,1 0,1 0,2 -1,0 -2,0 -2,0l-16 0c0,0 -1,1 -1,1 -1,1 -1,1 -1,2l0 8c0,1 0,1 1,2 0,0 1,0 1,0l16 0c0,0 1,1 2,1 0,1 0,1 0,2l0 2c0,0 0,1 0,1 -1,1 -2,1 -2,1l-15 0c-1,0 -1,0 -1,1 -1,0 -1,0 0,1l9 13c1,0 1,1 2,1 1,1 2,1 2,1l3 0c0,0 1,0 2,1 0,0 0,1 0,1l0 2c0,1 0,1 0,2 -1,0 -2,1 -2,1l-5 0c-1,0 -2,-1 -3,-1 0,0 -1,-1 -1,-1l-11 -13c0,-1 -1,-1 -1,-1 -1,0 -2,0 -2,1l-10 13c-1,0 -1,1 -2,1 -1,0 -2,1 -2,1l-5 0c-1,0 -2,-1 -2,-1 -1,-1 -1,-1 -1,-2l0 -2c0,0 0,-1 1,-1 0,-1 1,-1 2,-1l2 0c1,0 1,0 2,-1 1,0 1,-1 2,-1l9 -13c1,-1 1,-1 1,-1 -1,-1 -1,-1 -2,-1l-15 0c0,0 -1,0 -1,-1 -1,0 -1,-1 -1,-1l0 -2c0,-1 0,-1 1,-2 0,0 1,-1 1,-1l16 0zm-18 -33c0,0 0,-1 1,-1 0,-1 1,-1 1,-1l2 0c1,0 1,0 2,1 0,0 1,1 1,1l0 1c0,1 0,1 0,2 1,0 1,1 2,1l8 0c1,0 1,0 2,0 0,1 0,1 0,2l0 2c0,0 0,1 0,2 -1,0 -1,0 -2,0l-15 0c0,0 -1,0 -1,0 -1,-1 -1,-2 -1,-2l0 -8zm45 10l-15 0c0,0 -1,0 -1,0 -1,-1 -1,-2 -1,-2l0 -2c0,-1 0,-1 1,-2 0,0 1,0 1,0l8 0c1,0 1,-1 2,-1 0,-1 1,-1 1,-2l0 -1c0,0 0,-1 0,-1 1,-1 1,-1 2,-1l2 0c0,0 1,0 2,1 0,0 0,1 0,1l0 8c0,0 0,1 0,2 -1,0 -2,0 -2,0z"/>
 </g>
</svg>
