<?xml version="1.0" encoding="UTF-8"?>
<!DOCTYPE svg PUBLIC "-//W3C//DTD SVG 1.1//EN" "http://www.w3.org/Graphics/SVG/1.1/DTD/svg11.dtd">
<!-- Creator: CorelDRAW X8 -->
<svg xmlns="http://www.w3.org/2000/svg" xml:space="preserve" width="23.0366mm" height="31.8834mm" version="1.1" style="shape-rendering:geometricPrecision; text-rendering:geometricPrecision; image-rendering:optimizeQuality; fill-rule:evenodd; clip-rule:evenodd"
viewBox="0 0 50 69"
 xmlns:xlink="http://www.w3.org/1999/xlink">
 <defs>
  <style type="text/css">
   <![CDATA[
    .fil0 {fill:#FEFEFE;fill-rule:nonzero}
   ]]>
  </style>
 </defs>
 <g id="图层_x0020_1">
  <metadata id="CorelCorpID_0Corel-Layer"/>
  <path class="fil0" d="M4 62c1,0 1,0 2,0 0,-1 1,-2 1,-2l0 -15c0,0 -1,-1 -1,-1 -1,-1 -1,-1 -2,-1l-1 0c-1,0 -2,-1 -2,-1 -1,-1 -1,-1 -1,-2l0 -2c0,0 0,-1 1,-2 0,0 1,0 2,0l1 0c1,0 1,-1 2,-1 0,-1 1,-1 1,-2l0 -23c0,-1 -1,-2 -1,-2 -1,-1 -1,-1 -2,-1l-1 0c-1,0 -2,0 -2,-1 -1,0 -1,-1 -1,-2l0 -1c0,-1 0,-2 1,-2 0,-1 1,-1 2,-1l44 0c1,0 2,0 2,1 1,0 1,1 1,2l0 1c0,1 0,2 -1,2 0,1 -1,1 -2,1l-1 0c0,0 -1,0 -1,1 -1,0 -1,1 -1,2l0 23c0,1 0,1 1,2 0,0 1,1 1,1l1 0c1,0 2,0 2,0 1,1 1,2 1,2l0 2c0,1 0,1 -1,2 0,0 -1,1 -2,1l-1 0c0,0 -1,0 -1,1 -1,0 -1,1 -1,1l0 22c0,0 0,1 -1,1 -1,1 -1,1 -2,1l-1 0c-1,0 -2,0 -2,-1 -1,0 -1,-1 -1,-1l0 -22c0,0 0,-1 -1,-1 0,-1 -1,-1 -2,-1l-18 0c0,0 -1,0 -2,1 0,0 0,1 0,1l0 16c0,1 -1,2 -1,3 0,0 -1,1 -1,2l-2 1c0,1 -1,1 -2,2 -1,0 -2,0 -2,0l-3 0c-1,0 -2,0 -2,0 -1,-1 -1,-2 -1,-2l0 -2c0,-1 0,-1 1,-2 0,0 1,-1 2,-1l1 0zm10 -29c0,1 0,1 0,2 1,0 2,1 2,1l18 0c1,0 2,-1 2,-1 1,-1 1,-1 1,-2l0 -23c0,-1 0,-2 -1,-2 0,-1 -1,-1 -2,-1l-18 0c0,0 -1,0 -2,1 0,0 0,1 0,2l0 23z"/>
 </g>
</svg>
