<?xml version="1.0" encoding="UTF-8"?>
<!DOCTYPE svg PUBLIC "-//W3C//DTD SVG 1.1//EN" "http://www.w3.org/Graphics/SVG/1.1/DTD/svg11.dtd">
<!-- Creator: CorelDRAW X8 -->
<svg xmlns="http://www.w3.org/2000/svg" xml:space="preserve" width="96.9823mm" height="32.9751mm" version="1.1" style="shape-rendering:geometricPrecision; text-rendering:geometricPrecision; image-rendering:optimizeQuality; fill-rule:evenodd; clip-rule:evenodd"
viewBox="0 0 49 17"
 xmlns:xlink="http://www.w3.org/1999/xlink">
 <defs>
  <style type="text/css">
   <![CDATA[
    .str0 {stroke:#332C2B;stroke-width:0.100226}
    .fil0 {fill:#FE87C1}
    .fil1 {fill:#FEFEFE;fill-rule:nonzero}
   ]]>
  </style>
 </defs>
 <g id="图层_x0020_1">
  <metadata id="CorelCorpID_0Corel-Layer"/>
  <path class="fil0 str0" d="M46 0l-43 0c-2,0 -3,1 -3,3l0 11c0,1 1,2 3,2l43 0c1,0 3,-1 3,-2l0 -11c0,-2 -2,-3 -3,-3z"/>
  <path class="fil1" d="M23 3c0,0 0,0 0,1 0,0 0,0 0,0l0 1c0,0 0,0 0,0 0,0 0,0 0,0 0,0 0,0 0,0 0,1 0,1 0,1l0 0c0,0 0,0 0,0 0,0 0,0 0,0 0,0 0,0 0,0 0,0 0,0 0,0l-1 0c0,0 0,0 0,-1 0,0 0,0 0,0l0 0c0,0 0,0 0,-1 0,0 0,0 0,0l-4 0c0,0 0,0 0,0 0,1 0,1 0,1l0 0c0,0 0,0 0,0 0,1 0,1 0,1l-1 0c0,0 0,0 0,0 0,0 0,0 0,0 0,0 0,0 0,0 -1,0 -1,0 -1,0l0 0c0,0 0,0 0,-1 1,0 1,0 1,0 0,0 0,0 0,0 0,0 0,0 0,0l0 -1c0,0 0,0 0,0 0,-1 0,-1 0,-1l6 0zm-4 9c0,0 0,0 0,0 0,0 1,0 1,0l0 -1c0,0 -1,0 -1,0 0,-1 0,-1 0,-1l-2 0c0,0 0,0 0,0 -1,0 -1,0 -1,0l0 0c0,0 0,0 1,0 0,-1 0,-1 0,-1l2 0c0,0 0,0 0,0 0,0 1,0 1,0l0 -1c0,0 -1,0 -1,0 0,0 0,0 0,0l-2 0c0,0 0,0 0,0 -1,0 -1,0 -1,-1l0 0c0,0 0,0 1,0 0,0 0,0 0,0l6 0c0,0 0,0 0,0 0,0 0,0 0,0l0 0c0,1 0,1 0,1 0,0 0,0 0,0l-2 0c0,0 0,0 0,0 0,0 0,0 0,0l0 1c0,0 0,0 0,0 0,0 0,0 0,0l2 0c0,0 0,0 0,1 0,0 0,0 0,0l0 0c0,0 0,0 0,0 0,0 0,0 0,0l-2 0c0,0 0,0 0,1 0,0 0,0 0,0l0 1c0,0 0,0 0,0 0,0 0,0 0,0l2 0c0,0 0,0 0,0 0,0 0,0 0,1l0 0c0,0 0,0 0,0 0,0 0,0 0,0l-6 0c0,0 0,0 0,0 -1,0 -1,0 -1,0l0 0c0,-1 0,-1 1,-1 0,0 0,0 0,0l2 0zm6 0l0 -6c0,0 0,0 0,0 0,0 0,0 0,0 0,0 0,0 0,0 0,0 0,0 0,0l0 0c0,-1 0,-1 0,-1 0,0 0,0 0,0l1 0c0,0 0,0 0,0 0,0 0,0 0,1l0 5c0,0 0,0 0,0 1,0 1,0 1,0 0,1 0,1 0,1 0,-1 0,-1 0,-1l0 0c0,0 0,0 0,0 0,0 0,0 0,0l0 0c0,0 1,0 1,0 0,0 0,0 0,-1l0 -1c0,0 0,0 0,-1 0,0 -1,0 -1,0l0 0c0,0 0,0 0,0 0,0 0,0 0,0l0 0c0,0 0,0 0,0 0,-1 0,-1 0,-1l2 0c0,0 0,0 0,0 0,0 0,0 0,0l0 -1c0,0 0,0 0,0 0,0 0,0 0,0l-1 0c0,0 0,0 0,0 0,0 -1,0 -1,0l0 -1c0,0 0,0 0,0 0,0 0,0 0,0l0 -1c0,0 0,0 0,0 0,0 0,0 0,0l1 0c0,0 0,0 0,0 0,0 0,0 0,0l0 0c0,1 0,1 0,1 0,0 0,0 0,0l1 0c0,0 0,0 0,0 0,0 0,0 0,-1l0 0c0,0 0,0 0,0 0,-1 1,-1 1,-1l0 0c0,0 0,0 0,1 0,0 0,0 0,0l0 0c0,1 0,1 0,1 0,0 1,0 1,0l1 0c0,0 0,0 0,0 0,0 0,0 0,0l0 0c0,0 0,1 0,1 0,0 0,0 0,0l-1 0c0,0 -1,0 -1,0 0,0 0,0 0,0l0 1c0,0 0,0 0,0 0,0 1,0 1,0l1 0c0,0 0,0 0,1 0,0 0,0 0,0l0 0c0,0 0,0 0,0 0,0 0,0 0,0l0 0c0,0 0,0 -1,0 0,1 0,1 0,1l0 1c0,1 0,1 0,1 1,0 1,0 1,0l0 0c0,0 0,0 0,0 0,0 0,0 0,0l0 0c0,1 0,1 0,1 0,0 0,0 0,0l0 0c-1,0 -1,0 -1,0 0,0 0,0 0,0l0 -1c0,0 -1,0 -1,0 0,0 0,0 0,0l0 -2c0,0 0,0 0,-1 0,0 0,0 0,0l-1 0c0,0 0,0 0,0 0,1 0,1 0,1l0 2c0,0 0,0 0,0 0,0 0,0 -1,0l0 1c0,0 0,0 0,0 0,0 0,0 0,0l-1 0c0,0 0,0 0,0 0,0 0,0 0,0 0,0 0,0 0,0 1,0 1,0 1,0l4 0c0,0 0,0 0,0 0,0 0,0 0,1l0 0c0,0 0,0 0,0 0,0 0,0 0,0l-5 0c0,0 0,0 0,0 0,0 0,0 0,0l0 0c0,0 -1,0 -1,0 0,0 0,0 0,0l0 0c0,0 0,0 0,0 0,0 -1,0 -1,0 0,0 0,0 0,0 0,0 0,0 0,0l0 0c0,-1 0,-1 0,-1 0,0 0,0 0,0 0,0 0,0 0,0 0,0 0,0 0,0zm0 -8c0,0 0,0 0,0 0,0 0,0 0,0l1 0c0,0 0,0 0,0 0,0 0,0 0,0l0 0c0,0 0,0 0,0 0,0 0,0 0,0l0 0c0,1 0,1 0,1 0,0 0,0 0,-1l-1 0z"/>
 </g>
</svg>
