<?xml version="1.0" encoding="UTF-8"?>
<!DOCTYPE svg PUBLIC "-//W3C//DTD SVG 1.1//EN" "http://www.w3.org/Graphics/SVG/1.1/DTD/svg11.dtd">
<!-- Creator: CorelDRAW X8 -->
<svg xmlns="http://www.w3.org/2000/svg" xml:space="preserve" width="221.481mm" height="92.3984mm" version="1.1" style="shape-rendering:geometricPrecision; text-rendering:geometricPrecision; image-rendering:optimizeQuality; fill-rule:evenodd; clip-rule:evenodd"
viewBox="0 0 259 108"
 xmlns:xlink="http://www.w3.org/1999/xlink">
 <defs>
  <style type="text/css">
   <![CDATA[
    .fil0 {fill:#FEB079}
    .fil1 {fill:#FEFEFE;fill-rule:nonzero}
   ]]>
  </style>
 </defs>
 <g id="图层_x0020_1">
  <metadata id="CorelCorpID_0Corel-Layer"/>
  <path class="fil0" d="M9 0l241 0c5,0 9,4 9,8l0 92c0,4 -4,8 -9,8l-241 0c-5,0 -9,-4 -9,-8l0 -92c0,-4 4,-8 9,-8z"/>
  <path class="fil1" d="M102 83c0,0 -1,1 -1,1 -1,1 -1,1 -2,1l-1 0c0,0 -1,0 -1,-1 -1,0 -1,-1 -1,-1l0 -30c0,0 0,-1 1,-2 0,0 1,0 1,0l1 0c1,0 1,0 2,0 0,1 1,2 1,2l0 30zm-12 2c-1,0 -1,0 -2,0 0,-1 0,-1 0,-2l0 -35c0,-1 -1,-1 -1,-2 0,0 -1,0 -2,0l-3 0c-1,0 -2,-1 -2,-1 -1,-1 -1,-1 -1,-2l0 -1c0,-1 0,-1 1,-2 0,0 1,-1 2,-1l3 0c1,0 2,0 2,0 0,-1 1,-1 1,-2l0 -2c0,-1 -1,-1 -1,-2 0,0 -1,0 -2,0l-3 0c-1,0 -2,-1 -2,-1 -1,-1 -1,-1 -1,-2l0 -3c0,0 0,-1 1,-1 0,-1 1,-1 2,-1l11 0c1,0 1,0 2,0 0,0 1,-1 1,-1 0,0 0,-1 0,-1 1,0 1,0 2,0l2 0c0,0 1,0 1,1 1,0 1,1 1,1 0,1 0,2 -1,2 0,1 0,2 -1,2l-1 2c-1,0 -1,1 -2,1 -1,0 -1,1 -1,1 -1,0 -1,0 -2,0 0,1 0,1 0,2l0 2c0,1 0,1 1,2 0,0 1,0 1,0l4 0c0,0 1,1 1,1 1,1 1,1 1,2l0 1c0,1 0,1 -1,2 0,0 -1,1 -1,1l-4 0c0,0 -1,0 -1,0 -1,1 -1,1 -1,2l0 35c0,1 0,1 -1,2 0,0 -1,0 -1,0l-2 0zm-8 0c-1,0 -1,0 -2,-1 0,0 -1,-1 -1,-1l0 -30c0,0 1,-1 1,-2 1,0 1,0 2,0l1 0c1,0 1,0 2,0 0,1 0,2 0,2l0 30c0,0 0,1 0,1 -1,1 -1,1 -2,1l-1 0zm40 -14c-1,0 -1,1 -2,1 0,1 0,1 0,1 -1,0 -1,0 -1,0 1,1 1,1 1,2l1 2c1,0 1,1 1,1 1,1 1,1 1,1 1,0 1,0 1,1 0,0 1,1 1,1l0 2c0,1 -1,1 -1,2 -1,0 -1,0 -2,0l-1 0c0,0 -1,0 -2,0 0,-1 -1,-1 -1,-2l-3 -4c0,-1 -1,-1 -1,-1 0,0 -1,0 -1,1l-3 4c0,1 -1,1 -1,2 -1,0 -2,0 -2,0l-1 0c-1,0 -1,0 -2,0 0,-1 -1,-1 -1,-2l0 -2c0,0 1,-1 1,-1 0,-1 0,-1 1,-1 0,0 0,0 1,-1 0,0 1,-1 1,-1l1 -2c0,-1 0,-1 1,-2 0,0 0,0 -1,0 0,0 0,0 0,-1 -1,0 -1,-1 -2,-1l-1 -2c0,0 -1,-1 -1,-2 0,0 -1,-1 -1,-2l0 -36c0,-1 1,-1 1,-2 1,0 1,-1 2,-1l1 0c0,0 1,1 1,1 1,1 1,1 1,2l0 35c0,1 0,1 0,2 1,0 1,0 1,0 0,0 0,0 1,0 0,-1 0,-1 0,-2l0 -39c0,0 0,-1 1,-1 0,-1 1,-1 1,-1l2 0c0,0 1,0 1,1 1,0 1,1 1,1l0 39c0,1 0,1 0,2 1,0 1,0 1,0 0,0 0,0 1,0 0,-1 0,-1 0,-2l0 -35c0,-1 0,-1 1,-2 0,0 1,-1 1,-1l1 0c1,0 1,1 2,1 0,1 1,1 1,2l0 36c0,1 -1,2 -1,2 0,1 -1,2 -1,2l-1 2zm13 -46c0,0 0,-1 0,-1 1,-1 1,-1 2,-1l41 0c0,0 1,0 1,1 1,0 1,1 1,1l0 2c0,1 0,1 -1,2 0,0 -1,0 -1,0l-15 0c-1,0 -1,0 -2,1 0,0 0,1 0,2l0 11c0,1 0,1 0,2 1,0 1,0 2,0l15 0c0,0 1,1 1,1 1,1 1,1 1,2l0 1c0,1 0,2 -1,2 0,0 -1,1 -1,1l-15 0c-1,0 -1,0 -2,0 0,0 0,0 0,1 0,0 0,0 0,1 0,1 0,1 1,2l11 21c0,0 1,1 1,1 1,1 2,1 2,1l2 0c0,0 1,0 1,1 1,0 1,1 1,1l0 2c0,1 0,1 -1,2 0,0 -1,0 -1,0l-6 0c0,0 -1,0 -2,0 0,-1 -1,-1 -1,-2l-10 -20c-1,0 -1,-1 -2,-1 0,0 0,1 -1,1l-10 20c0,1 -1,1 -2,2 0,0 -1,0 -1,0l-6 0c-1,0 -1,0 -2,0 0,-1 0,-1 0,-2l0 -2c0,0 0,-1 0,-1 1,-1 1,-1 2,-1l2 0c0,0 1,0 2,-1 0,0 1,-1 1,-1l11 -21c0,-1 1,-1 1,-2 0,-1 0,-1 0,-1 0,-1 0,-1 0,-1 -1,0 -1,0 -2,0l-15 0c-1,0 -1,-1 -2,-1 0,0 0,-1 0,-2l0 -1c0,-1 0,-1 0,-2 1,0 1,-1 2,-1l15 0c1,0 1,0 2,0 0,-1 0,-1 0,-2l0 -11c0,-1 0,-2 0,-2 -1,-1 -1,-1 -2,-1l-15 0c-1,0 -1,0 -2,0 0,-1 0,-1 0,-2l0 -2z"/>
 </g>
</svg>
