<?xml version="1.0" encoding="UTF-8"?>
<!DOCTYPE svg PUBLIC "-//W3C//DTD SVG 1.1//EN" "http://www.w3.org/Graphics/SVG/1.1/DTD/svg11.dtd">
<!-- Creator: CorelDRAW X8 -->
<svg xmlns="http://www.w3.org/2000/svg" xml:space="preserve" width="158.26mm" height="251.272mm" version="1.1" style="shape-rendering:geometricPrecision; text-rendering:geometricPrecision; image-rendering:optimizeQuality; fill-rule:evenodd; clip-rule:evenodd"
viewBox="0 0 129 204"
 xmlns:xlink="http://www.w3.org/1999/xlink">
 <defs>
  <style type="text/css">
   <![CDATA[
    .fil0 {fill:#9B72F4}
    .fil1 {fill:#FEFEFE;fill-rule:nonzero}
   ]]>
  </style>
 </defs>
 <g id="图层_x0020_1">
  <metadata id="CorelCorpID_0Corel-Layer"/>
  <path class="fil0" d="M10 0l109 0c5,0 10,4 10,10l0 184c0,6 -5,10 -10,10l-109 0c-6,0 -10,-4 -10,-10l0 -184c0,-6 4,-10 10,-10z"/>
  <path class="fil1" d="M61 123c0,1 0,1 0,1 -1,1 -1,1 -2,1l-27 0c0,0 -1,0 -1,-1 0,0 0,0 0,-1l0 -1c0,0 0,0 0,-1 0,0 1,0 1,0l11 0c1,0 1,0 1,-1 1,0 1,0 1,-1l0 -8c0,-1 0,-1 -1,-2 0,0 0,0 -1,0l-11 0c0,0 -1,0 -1,0 0,-1 0,-1 0,-2l0 -1c0,0 0,0 0,-1 0,0 1,0 1,0l11 0c1,0 1,0 1,-1 1,0 1,0 1,-1l0 -7c0,0 0,-1 -1,-1 0,0 0,0 -1,0l-7 0c-1,0 -1,0 -2,-1 0,0 -1,0 -1,0l-1 -1c0,-1 -1,-1 -1,-1 0,-1 0,-1 0,-2l0 -4c0,0 0,-1 0,-1 0,0 1,0 1,0l1 0c1,0 1,0 1,0 1,0 1,1 1,1l0 3c0,0 0,1 0,1 1,0 1,0 1,0l7 0c1,0 1,0 1,0 1,0 1,-1 1,-1l0 -4c0,-1 0,-1 0,-1 1,0 1,-1 1,-1l1 0c1,0 1,1 2,1 0,0 0,0 0,1l0 4c0,0 0,1 0,1 1,0 1,0 2,0l8 0c1,0 1,1 2,1 0,0 0,1 0,1l0 1c0,1 0,1 0,1 -1,1 -1,1 -2,1l-8 0c-1,0 -1,0 -2,0 0,0 0,1 0,1l0 7c0,1 0,1 0,1 1,1 1,1 2,1l8 0c1,0 1,0 2,0 0,1 0,1 0,1l0 1c0,1 0,1 0,2 -1,0 -1,0 -2,0l-8 0c-1,0 -1,0 -2,0 0,1 0,1 0,2l0 8c0,1 0,1 0,1 1,1 1,1 2,1l8 0c1,0 1,0 2,0 0,1 0,1 0,1l0 1zm7 -38c0,-1 0,-1 0,-1 1,0 1,-1 1,-1l27 0c1,0 1,1 1,1 1,0 1,0 1,1l0 35c0,1 0,1 -1,2 0,0 0,0 0,1l-1 1c-1,0 -1,0 -2,1 0,0 -1,0 -1,0l-24 0c0,0 0,0 -1,-1 0,0 0,0 0,-1l0 -38zm24 36c0,0 1,0 1,-1 0,0 1,0 1,-1l0 -12c0,-1 -1,-1 -1,-2 0,0 -1,0 -1,0l-18 0c-1,0 -1,0 -2,0 0,1 0,1 0,2l0 12c0,1 0,1 0,1 1,1 1,1 2,1l18 0zm-18 -33c-1,0 -1,0 -2,0 0,0 0,1 0,1l0 10c0,1 0,1 0,1 1,1 1,1 2,1l18 0c0,0 1,0 1,-1 0,0 1,0 1,-1l0 -10c0,0 -1,-1 -1,-1 0,0 -1,0 -1,0l-18 0z"/>
 </g>
</svg>
