<?xml version="1.0" encoding="UTF-8"?>
<!DOCTYPE svg PUBLIC "-//W3C//DTD SVG 1.1//EN" "http://www.w3.org/Graphics/SVG/1.1/DTD/svg11.dtd">
<!-- Creator: CorelDRAW X8 -->
<svg xmlns="http://www.w3.org/2000/svg" xml:space="preserve" width="158.26mm" height="251.272mm" version="1.1" style="shape-rendering:geometricPrecision; text-rendering:geometricPrecision; image-rendering:optimizeQuality; fill-rule:evenodd; clip-rule:evenodd"
viewBox="0 0 95 152"
 xmlns:xlink="http://www.w3.org/1999/xlink">
 <defs>
  <style type="text/css">
   <![CDATA[
    .fil0 {fill:#9B72F4}
    .fil1 {fill:#FEFEFE;fill-rule:nonzero}
   ]]>
  </style>
 </defs>
 <g id="图层_x0020_1">
  <metadata id="CorelCorpID_0Corel-Layer"/>
  <path class="fil0" d="M7 0l81 0c4,0 7,3 7,7l0 137c0,4 -3,8 -7,8l-81 0c-4,0 -7,-4 -7,-8l0 -137c0,-4 3,-7 7,-7z"/>
  <path class="fil1" d="M45 92c0,0 0,0 0,0 0,1 -1,1 -1,1l-20 0c0,0 -1,0 -1,-1 0,0 0,0 0,0l0 -1c0,-1 0,-1 0,-1 0,0 1,0 1,0l8 0c0,0 1,-1 1,-1 0,0 0,0 0,-1l0 -6c0,0 0,-1 0,-1 0,0 -1,0 -1,0l-8 0c0,0 -1,0 -1,0 0,-1 0,-1 0,-1l0 -1c0,0 0,-1 0,-1 0,0 1,0 1,0l8 0c0,0 1,0 1,-1 0,0 0,0 0,0l0 -6c0,0 0,0 0,0 0,-1 -1,-1 -1,-1l-6 0c0,0 0,0 -1,0 0,0 0,0 -1,-1l0 0c-1,0 -1,-1 -1,-1 0,0 0,-1 0,-1l0 -3c0,0 0,-1 0,-1 0,0 1,0 1,0l1 0c0,0 0,0 1,0 0,0 0,1 0,1l0 2c0,0 0,1 0,1 0,0 1,0 1,0l5 0c0,0 1,0 1,0 0,0 0,-1 0,-1l0 -3c0,0 0,-1 1,-1 0,0 0,0 0,0l1 0c1,0 1,0 1,0 0,0 0,1 0,1l0 3c0,0 0,1 1,1 0,0 0,0 1,0l6 0c0,0 1,0 1,0 0,1 0,1 0,1l0 1c0,0 0,1 0,1 0,0 -1,0 -1,0l-6 0c-1,0 -1,0 -1,1 -1,0 -1,0 -1,0l0 6c0,0 0,0 1,0 0,1 0,1 1,1l6 0c0,0 1,0 1,0 0,0 0,1 0,1l0 1c0,0 0,0 0,1 0,0 -1,0 -1,0l-6 0c-1,0 -1,0 -1,0 -1,0 -1,1 -1,1l0 6c0,1 0,1 1,1 0,0 0,1 1,1l6 0c0,0 1,0 1,0 0,0 0,0 0,1l0 1zm5 -29c0,0 0,-1 1,-1 0,0 0,0 0,0l20 0c1,0 1,0 1,0 0,0 1,1 1,1l0 26c0,0 -1,1 -1,1 0,1 0,1 0,1l-1 1c0,0 -1,0 -1,1 0,0 -1,0 -1,0l-18 0c0,0 0,0 0,-1 -1,0 -1,0 -1,0l0 -29zm18 27c1,0 1,-1 1,-1 0,0 0,0 0,-1l0 -9c0,0 0,-1 0,-1 0,0 0,0 -1,0l-13 0c-1,0 -1,0 -1,0 0,0 -1,1 -1,1l0 9c0,1 1,1 1,1 0,0 0,1 1,1l13 0zm-13 -25c-1,0 -1,0 -1,0 0,1 -1,1 -1,1l0 8c0,0 1,0 1,0 0,1 0,1 1,1l13 0c1,0 1,0 1,-1 0,0 0,0 0,0l0 -8c0,0 0,0 0,-1 0,0 0,0 -1,0l-13 0z"/>
 </g>
</svg>
