<?xml version="1.0" encoding="UTF-8"?>
<!DOCTYPE svg PUBLIC "-//W3C//DTD SVG 1.1//EN" "http://www.w3.org/Graphics/SVG/1.1/DTD/svg11.dtd">
<!-- Creator: CorelDRAW X8 -->
<svg xmlns="http://www.w3.org/2000/svg" xml:space="preserve" width="221.481mm" height="92.3984mm" version="1.1" style="shape-rendering:geometricPrecision; text-rendering:geometricPrecision; image-rendering:optimizeQuality; fill-rule:evenodd; clip-rule:evenodd"
viewBox="0 0 229 95"
 xmlns:xlink="http://www.w3.org/1999/xlink">
 <defs>
  <style type="text/css">
   <![CDATA[
    .fil0 {fill:#FE87C1}
    .fil1 {fill:#FEFEFE;fill-rule:nonzero}
   ]]>
  </style>
 </defs>
 <g id="图层_x0020_1">
  <metadata id="CorelCorpID_0Corel-Layer"/>
  <path class="fil0" d="M8 0l212 0c5,0 9,3 9,7l0 81c0,4 -4,7 -9,7l-212 0c-4,0 -8,-3 -8,-7l0 -81c0,-4 4,-7 8,-7z"/>
  <path class="fil1" d="M80 62c0,0 -1,1 -1,1 0,0 0,1 0,1l0 4c0,0 0,1 0,1 0,0 0,1 1,1 0,0 0,-1 0,-1 0,0 0,-1 0,-1l0 -2c0,0 0,-1 1,-1 0,-1 1,-1 1,-1 1,0 1,0 2,1 0,0 0,1 0,1l0 3c0,0 0,1 0,2 -1,0 -1,1 -1,1l-1 1c0,1 -1,1 -1,2 -1,0 -2,0 -2,0l-7 0c-1,0 -1,0 -2,0 0,-1 0,-1 0,-2l0 -1c0,-1 0,-1 0,-2 1,0 1,0 2,0l1 0c1,0 1,-1 1,-1 1,0 1,-1 1,-2l0 -3c0,0 0,-1 -1,-1 0,0 0,-1 -1,-1l-1 0c-1,0 -1,0 -2,0 0,-1 0,-1 0,-2l0 -35c0,0 0,0 0,-1 1,0 1,0 2,0l1 0c1,0 1,0 1,0 1,-1 1,-1 1,-2 0,0 0,-1 1,-1 0,-1 0,-1 1,-1 0,0 1,0 1,1 1,0 1,1 1,1 0,1 0,1 0,2 1,0 1,0 2,0l1 0c1,0 1,0 1,1 1,0 1,1 1,1l0 30c0,0 0,1 0,2 0,1 -1,1 -1,2l-1 1c0,0 0,1 -1,1 0,0 -1,0 -1,0zm24 8c1,0 1,-1 1,-1 0,0 0,-1 0,-2l0 -7c0,0 0,-1 0,-1 0,-1 -1,-1 -1,-1 0,0 -1,0 -1,1 0,0 0,1 0,1l0 13c0,1 0,1 -1,2 0,0 -1,0 -1,0l-1 0c0,0 -1,0 -1,0 0,-1 -1,-1 -1,-2l0 -51c0,0 1,-1 1,-1 0,-1 1,-1 1,-1l8 0c0,0 1,0 1,1 0,0 1,1 1,1l0 47c0,0 0,1 -1,2 0,0 0,1 -1,1l0 1c-1,1 -1,1 -2,2 0,0 -1,0 -1,0 0,0 -1,0 -1,0 0,-1 0,-1 0,-2l0 -1c0,-1 0,-1 0,-2 0,0 0,0 0,0zm-9 -41c0,0 0,1 -1,1 0,0 0,1 0,1l0 5c0,1 0,1 0,2 0,0 0,0 0,0l2 0c0,0 1,0 1,1 0,0 0,1 0,1l0 29c0,0 0,1 0,2 -1,0 -1,1 -1,1l-1 1c0,1 -1,1 -1,2 -1,0 -2,0 -2,0l-7 0 0 -35c0,0 0,-1 1,-1 0,-1 0,-1 0,-1l2 0c1,0 1,0 1,0 0,-1 0,-1 0,-2l0 -5c0,0 0,-1 0,-1 -1,0 -1,-1 -2,-1l0 0c-1,0 -1,0 -1,0 -1,-1 -1,-1 -1,-2l0 -1c0,-1 0,-1 1,-2 0,0 0,0 1,0l0 0c1,0 1,0 2,-1 0,0 0,0 0,-1 0,0 0,-1 1,-1 0,-1 1,-1 1,-1l1 0c0,0 1,0 1,1 0,0 1,1 1,1 0,1 0,1 0,1 1,1 1,1 1,1 1,0 1,0 2,0 0,1 0,1 0,2l0 1c0,1 0,1 0,2 -1,0 -1,0 -2,0zm-2 38l0 -21c0,-1 0,-1 -1,-2 0,0 0,0 -1,0 0,0 -1,0 -1,0 0,1 0,1 0,2l0 21c0,1 0,2 0,2 0,0 1,1 1,1 1,0 1,-1 1,-1 1,0 1,-1 1,-2zm-13 -37c-1,0 -1,0 -1,0 0,1 0,1 0,2l0 23c0,0 0,1 0,1 0,1 0,1 1,1 0,0 0,0 0,-1 0,0 0,-1 0,-1l0 -23c0,-1 0,-1 0,-2 0,0 0,0 0,0zm-5 25l0 -23c0,-1 0,-1 0,-2 0,0 -1,0 -1,0 0,0 0,0 0,0 0,1 0,1 0,2l0 23c0,0 0,1 0,1 0,1 0,1 0,1 0,0 1,0 1,-1 0,0 0,-1 0,-1zm28 -20c0,0 0,1 0,1 0,1 1,1 1,1 0,0 1,0 1,-1 0,0 0,-1 0,-1l0 -7c0,-1 0,-1 0,-2 0,0 -1,0 -1,0 0,0 -1,0 -1,0 0,1 0,1 0,2l0 7zm2 16l0 -6c0,-1 0,-1 0,-2 0,0 -1,-1 -1,-1 0,0 -1,1 -1,1 0,1 0,1 0,2l0 6c0,0 0,1 0,1 0,1 1,1 1,1 0,0 1,0 1,-1 0,0 0,-1 0,-1zm30 22c0,1 0,1 0,1 -1,1 -1,1 -2,1l-12 0c-1,0 -1,0 -2,-1 0,0 0,0 0,-1l0 -1c0,-1 0,-1 0,-2 1,0 1,-1 2,-1l2 0c1,0 1,0 1,0 1,-1 1,-1 1,-2l0 -3c0,-1 0,-1 -1,-2 0,0 0,0 -1,0l-2 0c-1,0 -1,-1 -2,-1 0,0 0,-1 0,-1l0 -34c0,-1 0,-1 0,-1 1,-1 1,-1 2,-1l2 0c1,0 1,0 1,0 1,-1 1,-1 1,-2 0,0 0,-1 1,-1 0,-1 0,-1 1,-1 0,0 1,0 1,1 1,0 1,1 1,1 0,1 0,1 1,2 0,0 0,0 1,0l2 0c1,0 1,0 2,1 0,0 0,0 0,1l0 34c0,0 0,1 0,1 -1,0 -1,1 -2,1l-2 0c-1,0 -1,0 -1,0 -1,1 -1,1 -1,2l0 3c0,1 0,1 0,2 0,0 1,0 1,0 0,0 0,0 1,0 0,-1 0,-1 0,-2l0 -1c0,-1 0,-1 1,-1 0,-1 0,-1 1,-1l0 0c1,0 1,0 2,1 0,0 0,0 0,1l0 7zm5 -53c1,0 1,0 2,1 0,0 0,1 0,1l0 1c0,0 0,1 1,1 0,1 0,1 1,1 0,0 0,0 0,-1 1,0 1,-1 1,-1l0 -1c0,0 0,-1 0,-1 1,-1 1,-1 2,-1l0 0c1,0 1,0 2,1 0,0 0,1 0,1l0 1c0,0 0,1 1,1 0,1 0,1 1,1 0,0 1,0 1,-1 0,0 0,-1 0,-1l0 -1c0,0 0,-1 1,-1 0,-1 1,-1 1,-1l1 0c0,0 1,0 1,1 0,0 1,1 1,1l0 1c0,1 0,1 0,1 0,1 0,1 1,1 0,0 0,0 0,1 0,0 1,1 1,1l0 1c0,1 -1,2 -1,2 0,0 0,1 0,1 -1,0 -1,0 -1,0 0,1 0,1 0,2l0 6c0,0 -1,1 -1,1 0,0 -1,0 -1,0l-8 0c-1,0 -1,0 -2,0 0,-1 0,-1 0,-2l0 -5c0,-1 0,-1 -1,-2 0,0 0,0 0,0 -1,0 -1,0 -1,0 -1,1 -1,1 -1,2l0 8c0,1 0,1 1,2 0,0 1,0 1,0l12 0c1,0 2,0 2,1 0,0 1,1 1,1l0 2c0,0 -1,1 -1,1 0,1 -1,1 -2,1l-3 0c-1,0 -1,0 -2,0 0,0 0,1 0,1 0,0 0,1 0,1 1,0 1,0 2,0l3 0c1,0 2,1 2,1 0,0 1,1 1,1l0 2c0,1 -1,1 -1,1 0,1 -1,1 -2,1l-3 0c-1,0 -1,0 -2,1 0,0 0,1 0,1l0 14c0,1 -1,1 -1,2 -1,0 -1,0 -2,0l0 0c-1,0 -2,0 -2,0 0,-1 0,-1 0,-2l0 -14c0,0 -1,-1 -1,-1 -1,-1 -1,-1 -2,-1l-3 0c-1,0 -2,0 -2,-1 0,0 -1,0 -1,-1l0 -2c0,0 1,-1 1,-1 0,0 1,-1 2,-1l3 0c1,0 1,0 2,0 0,0 1,-1 1,-1 0,0 -1,-1 -1,-1 -1,0 -1,0 -2,0l-3 0c-1,0 -1,0 -2,-1 0,0 0,-1 0,-1l0 -14c0,-1 0,-1 0,-2 -1,0 -1,0 -1,0 0,0 0,-1 0,-1 -1,0 -1,-1 -1,-2l0 -1c0,0 0,-1 1,-1 0,-1 0,-1 0,-1 0,0 0,0 1,-1 0,0 0,0 0,-1l0 -1c0,0 0,-1 0,-1 1,-1 1,-1 2,-1l0 0zm15 55c0,0 -1,0 -1,0 -1,-1 -1,-1 -1,-2l0 -11c0,-1 0,-1 1,-1 0,-1 1,-1 1,-1l1 0c1,0 1,0 2,1 0,0 0,0 0,1l0 11c0,1 0,1 0,2 -1,0 -1,0 -2,0l-1 0zm-15 0c0,0 -1,0 -1,0 -1,-1 -1,-1 -1,-2l0 -11c0,-1 0,-1 1,-1 0,-1 1,-1 1,-1l1 0c1,0 1,0 1,1 1,0 1,0 1,1l0 11c0,1 0,1 -1,2 0,0 0,0 -1,0l-1 0zm-10 -45c0,0 -1,0 -1,0 0,1 0,1 0,2l0 22c0,1 0,1 0,1 0,1 1,1 1,1 0,0 0,0 1,-1 0,0 0,0 0,-1l0 -22c0,-1 0,-1 0,-2 -1,0 -1,0 -1,0zm-7 26c1,0 1,0 1,0 0,0 1,0 1,0 0,-1 0,-1 0,-2l0 -22c0,-1 0,-1 0,-2 0,0 -1,0 -1,0 0,0 0,0 -1,0 0,1 0,1 0,2l0 22c0,1 0,1 0,2zm28 -25c-1,0 -1,0 -1,0 -1,1 -1,1 -1,2l0 0c0,1 0,1 1,2 0,0 0,0 1,0 0,0 1,0 1,0 0,-1 0,-1 0,-2l0 0c0,-1 0,-1 0,-2 0,0 -1,0 -1,0z"/>
 </g>
</svg>
