<?xml version="1.0" encoding="UTF-8"?>
<!DOCTYPE svg PUBLIC "-//W3C//DTD SVG 1.1//EN" "http://www.w3.org/Graphics/SVG/1.1/DTD/svg11.dtd">
<!-- Creator: CorelDRAW X8 -->
<svg xmlns="http://www.w3.org/2000/svg" xml:space="preserve" width="157.684mm" height="250.823mm" version="1.1" style="shape-rendering:geometricPrecision; text-rendering:geometricPrecision; image-rendering:optimizeQuality; fill-rule:evenodd; clip-rule:evenodd"
viewBox="0 0 126 200"
 xmlns:xlink="http://www.w3.org/1999/xlink">
 <defs>
  <style type="text/css">
   <![CDATA[
    .fil0 {fill:#00B4CC}
    .fil1 {fill:#FEFEFE;fill-rule:nonzero}
   ]]>
  </style>
 </defs>
 <g id="图层_x0020_1">
  <metadata id="CorelCorpID_0Corel-Layer"/>
  <path class="fil0" d="M10 0l106 0c5,0 10,4 10,10l0 180c0,5 -5,10 -10,10l-106 0c-6,0 -10,-5 -10,-10l0 -180c0,-6 4,-10 10,-10z"/>
  <path class="fil1" d="M59 121c0,0 0,0 0,1 0,0 -1,0 -1,0l-27 0c0,0 0,0 -1,0 0,-1 0,-1 0,-1l0 -1c0,-1 0,-1 0,-1 1,-1 1,-1 1,-1l10 0c0,0 1,0 1,0 0,-1 1,-1 1,-1l0 -4c0,0 -1,-1 -1,-1 0,0 -1,0 -1,0l-10 0c0,0 0,0 -1,-1 0,0 0,0 0,-1l0 -1c0,0 0,-1 0,-1 1,0 1,0 1,0l10 0c0,0 1,-1 1,-1 0,0 1,-1 1,-1l0 -1c0,0 0,0 0,-1 0,0 1,0 1,0l1 0c1,0 1,0 1,0 1,1 1,1 1,1l0 1c0,0 0,1 0,1 1,0 1,1 1,1l10 0c0,0 1,0 1,0 0,0 0,1 0,1l0 1c0,1 0,1 0,1 0,1 -1,1 -1,1l-10 0c0,0 0,0 -1,0 0,0 0,1 0,1l0 4c0,0 0,0 0,1 1,0 1,0 1,0l10 0c0,0 1,0 1,1 0,0 0,0 0,1l0 1zm-25 -22c1,0 1,0 2,0 0,0 1,-1 1,-1l1 0c1,0 1,-1 1,-1 0,0 0,0 0,-1l-7 -3c0,0 -1,0 -1,-1 0,0 0,-1 0,-1l0 -2c0,0 0,-1 0,-1 0,0 1,-1 1,-1l1 0c1,0 1,0 1,1 1,0 1,0 1,1 0,0 0,0 0,1 0,0 1,0 1,1l7 3c1,0 1,0 1,0 1,0 2,0 2,0l7 -3c1,-1 1,-1 1,-1 0,-1 1,-1 1,-2l0 -1c0,0 -1,-1 -1,-1 0,0 0,0 -1,0l-21 0c0,0 -1,-1 -1,-1 0,0 0,-1 0,-1l0 -1c0,0 0,-1 0,-1 0,0 1,-1 1,-1l25 0c1,0 1,1 1,1 1,0 1,1 1,1l0 8c0,0 0,1 -1,1 0,1 0,1 -1,1l-7 3c0,1 0,1 0,2l2 0c0,1 0,1 1,1 1,0 1,0 1,0l4 0c0,0 1,0 1,0 0,1 0,1 0,2l0 1c0,0 0,0 0,1 0,0 -1,0 -1,0l-5 0c0,0 0,0 -1,0 -1,0 -1,0 -2,-1l-4 -2c-1,0 -1,0 -2,0 0,0 -1,0 -1,0l-5 2c0,1 0,1 -1,1 -1,0 -1,0 -2,0l-4 0c0,0 0,0 -1,0 0,-1 0,-1 0,-2l0 -1c0,0 0,0 0,-1 1,0 1,0 1,0l3 0zm49 -7c1,0 1,0 2,0 0,0 0,1 0,1l0 17c0,1 0,1 0,1 0,1 1,1 1,1 0,0 0,0 1,-1 0,0 0,0 0,-1l0 -21c0,-1 0,-1 -1,-1 0,-1 0,-1 -1,-1l-4 0c0,0 0,0 -1,0 0,-1 0,-1 0,-1l0 -1c0,-1 0,-1 0,-1 1,-1 1,-1 1,-1l9 0c0,0 1,0 1,0 0,0 1,0 1,-1 0,0 0,0 0,0 0,0 1,0 1,0l1 0c0,0 1,0 1,0 0,0 1,1 1,1l0 3c0,0 -1,0 -1,1 0,0 0,0 -1,0l-1 0c-1,0 -1,0 -1,1 -1,0 -1,0 -1,1l0 5c0,0 0,0 1,1 0,0 0,0 1,0l1 0c1,0 1,0 1,1 0,0 1,0 1,1l0 1c0,0 -1,0 -1,1 0,0 0,0 -1,0l-1 0c-1,0 -1,0 -1,1 -1,0 -1,0 -1,1l0 9c0,1 0,1 1,1 0,1 0,1 1,1l1 0c1,0 1,0 1,0 0,0 1,1 1,1l0 1c0,1 -1,1 -1,1 0,1 -1,1 -1,1l-13 0c0,0 0,0 -1,-1 0,0 0,0 0,-1l0 -1c0,0 0,-1 0,-1 0,0 0,0 1,0 0,0 0,0 0,-1 0,0 0,0 0,-1l0 -17c0,0 0,-1 1,-1 0,0 0,0 1,0l0 0zm-10 27c0,-1 0,-1 1,-1 0,0 0,0 0,0 0,0 0,-1 0,-1l0 -11c0,-1 0,-1 0,-1 0,-1 0,-1 0,-1 -1,0 -1,0 -1,0 0,0 0,-1 0,-1l0 -1c0,-1 0,-1 0,-1 0,-1 0,-1 1,-1 0,0 0,0 0,0 0,-1 0,-1 0,-1l0 -12c0,0 0,-1 0,-1 0,0 0,0 0,0 -1,0 -1,-1 -1,-1 0,0 0,-1 0,-1l0 -1c0,0 0,-1 0,-1 1,0 1,0 2,0l2 0c0,0 1,0 1,0 0,0 0,1 0,1l0 16c0,1 0,1 0,2 0,0 0,0 0,1 0,0 -1,0 -1,0 0,0 1,1 1,1 0,0 0,0 0,1 0,0 0,1 0,1l0 7c0,1 0,1 1,2 0,0 0,1 0,1l2 2c0,0 0,1 1,1 0,0 1,0 1,0l11 0c0,0 1,0 1,1 0,0 1,0 1,1l0 1c0,0 -1,0 -1,1 0,0 -1,0 -1,0l-12 0c-1,0 -1,0 -2,0 0,0 -1,-1 -1,-1l0 0c-1,-1 -1,-1 -1,-1 -1,0 -1,0 -1,1l-1 0c0,0 -1,1 -1,1 0,0 -1,0 -1,0 0,0 -1,0 -1,0 0,-1 0,-1 0,-1l0 -1c0,-1 0,-1 0,-1zm-6 -1c0,0 0,0 0,0 1,-1 1,-1 1,-1l0 -22c0,-1 0,-1 -1,-1 0,-1 0,-1 0,-1 0,0 0,0 -1,0 0,0 0,-1 0,-1l0 -1c0,-1 0,-1 1,-1 0,-1 0,-1 1,-1l2 0c1,0 1,0 1,1 1,0 1,0 1,1l0 30c0,0 0,0 -1,1 0,0 0,0 -1,0l-2 0c-1,0 -1,0 -1,0 -1,-1 -1,-1 -1,-1l0 -1c0,-1 0,-1 0,-1 1,-1 1,-1 1,-1zm4 -34c0,0 1,0 1,1 0,0 -1,1 -1,1l-1 1c0,0 0,0 -1,0 0,0 -1,0 -1,0l-1 -1c0,0 0,-1 0,-1 0,-1 0,-1 0,-1l1 -1c0,0 1,-1 1,-1 1,0 1,1 1,1l1 1z"/>
 </g>
</svg>
