<?xml version="1.0" encoding="UTF-8"?>
<!DOCTYPE svg PUBLIC "-//W3C//DTD SVG 1.1//EN" "http://www.w3.org/Graphics/SVG/1.1/DTD/svg11.dtd">
<!-- Creator: CorelDRAW X8 -->
<svg xmlns="http://www.w3.org/2000/svg" xml:space="preserve" width="157.684mm" height="250.823mm" version="1.1" style="shape-rendering:geometricPrecision; text-rendering:geometricPrecision; image-rendering:optimizeQuality; fill-rule:evenodd; clip-rule:evenodd"
viewBox="0 0 96 153"
 xmlns:xlink="http://www.w3.org/1999/xlink">
 <defs>
  <style type="text/css">
   <![CDATA[
    .fil0 {fill:#E13F4F}
    .fil1 {fill:#FEFEFE;fill-rule:nonzero}
   ]]>
  </style>
 </defs>
 <g id="图层_x0020_1">
  <metadata id="CorelCorpID_0Corel-Layer"/>
  <path class="fil0" d="M7 0l81 0c5,0 8,3 8,7l0 138c0,4 -3,8 -8,8l-81 0c-4,0 -7,-4 -7,-8l0 -138c0,-4 3,-7 7,-7z"/>
  <path class="fil1" d="M45 72c0,1 0,1 0,1 0,0 0,0 -1,0 0,0 0,1 0,1l0 0c0,1 0,1 0,1 1,0 1,0 1,0 0,0 0,0 0,1 0,0 0,0 0,1l0 0c0,1 0,1 0,1 0,0 0,1 -1,1l-20 0c0,0 -1,-1 -1,-1 0,0 0,0 0,-1l0 0c0,-1 0,-1 0,-1 0,-1 0,-1 0,-1 1,0 1,0 1,0 0,0 0,0 0,-1l0 0c0,0 0,-1 0,-1 0,0 0,0 -1,0 0,0 0,0 0,-1 0,0 0,0 0,0l0 -1c0,0 0,-1 0,-1 0,0 0,0 0,0 1,0 1,0 1,-1 0,0 0,0 0,0 0,-1 0,-1 0,-1 1,0 1,0 1,0l1 0c0,0 1,0 1,0 0,0 0,0 0,1 0,0 0,0 1,0 0,1 0,1 0,1l1 0c0,0 0,0 0,-1 1,0 1,0 1,0 0,-1 0,-1 0,-1 0,0 1,0 1,0l1 0c0,0 0,0 1,0 0,0 0,0 0,1 0,0 0,0 0,0 0,1 1,1 1,1l0 0c1,0 1,0 1,-1 0,0 0,0 0,0 0,-1 1,-1 1,-1 0,0 0,0 1,0l0 0c1,0 1,0 1,0 0,0 1,0 1,1 0,0 0,0 0,0 0,1 0,1 1,1l0 0c0,0 0,0 1,-1 0,0 0,0 0,0 0,-1 0,-1 0,-1 1,0 1,0 1,0l1 0c0,0 1,0 1,0 0,0 0,0 0,1 0,0 0,0 0,0 1,1 1,1 1,1 0,0 0,0 0,0 0,0 0,1 0,1l0 1c0,0 0,0 0,0zm0 12c0,0 0,0 0,0 0,0 0,0 -1,0 0,0 0,1 0,1l0 3c0,0 0,1 0,1 1,0 1,0 1,0 0,0 0,0 0,0 0,1 0,1 0,1l0 1c0,0 0,1 0,1 0,0 0,0 0,0 0,0 0,0 -1,0 0,1 0,1 0,1 0,0 0,0 0,0 0,0 -1,1 -1,1l-1 0c0,0 0,-1 -1,-1 0,0 0,0 0,0 0,0 0,0 0,-1 -1,0 -1,0 -1,0l-4 0c0,0 -1,0 -1,0 0,0 0,-1 0,-1l0 -1c0,0 0,0 0,-1 0,0 0,0 0,0 0,0 0,0 1,0 0,0 0,-1 0,-1l0 -7c0,0 0,0 0,0 0,0 1,0 1,0l3 0c0,0 0,0 1,0 0,-1 0,-1 0,-1 0,0 0,0 0,0 1,0 1,-1 1,-1l1 0c0,0 1,1 1,1 0,0 0,0 0,0 0,0 0,0 0,1 1,0 1,0 1,0 0,0 0,0 0,0 0,0 0,1 0,1l0 1c0,0 0,0 0,1zm-12 9c-1,0 -1,0 -1,0 -1,0 -1,1 -2,1l-6 0c0,0 -1,-1 -1,-1 0,0 0,0 0,-1l0 0c0,-1 0,-1 0,-1 0,0 1,-1 1,-1l6 0c0,0 0,0 1,0 0,0 0,0 0,0 0,-1 0,-1 0,-1 -1,0 -1,0 -1,0l-3 0c-1,0 -1,0 -2,0 0,0 0,-1 -1,-1l0 0c-1,-1 -1,-1 -1,-1 0,-1 0,-1 0,-1 0,0 0,-1 0,-1 0,0 1,0 1,0l1 0c0,0 0,0 1,0 0,0 0,0 0,1 0,0 0,0 0,0 1,0 1,0 1,0l3 0c0,0 0,0 1,0 0,0 0,-1 0,-1 0,0 0,-1 0,-1 -1,0 -1,0 -1,0l-3 0c-1,0 -1,0 -2,0 0,-1 0,-1 0,-1l-1 -1c-1,0 -1,0 -1,-1 0,0 0,0 0,-1 0,0 0,0 0,0 0,0 1,-1 1,-1l1 0c0,0 0,1 1,1 0,0 0,0 0,0 0,0 0,0 0,0 1,1 1,1 1,1l6 0c0,0 1,0 1,0 0,0 0,0 0,1l0 8c0,0 0,1 0,1 0,0 0,1 -1,1l0 1zm12 -27c0,0 0,0 0,1 0,0 0,0 -1,0l-17 0c-1,0 -1,0 -2,0 0,-1 0,-1 -1,-1l0 -1c-1,0 -1,0 -1,0 0,-1 0,-1 0,-1 0,-1 0,-1 0,-1 0,0 1,-1 1,-1l1 0c0,0 0,1 1,1 0,0 0,0 0,0 0,0 0,0 0,1 1,0 1,0 1,0l17 0c1,0 1,0 1,0 0,0 0,1 0,1l0 1zm-4 19c0,0 0,-1 0,-1 0,0 -1,0 -1,0 0,0 -1,0 -1,0 0,0 0,1 0,1l0 3c0,0 0,1 0,1 0,0 1,0 1,0 0,0 1,0 1,0 0,0 0,-1 0,-1l0 -3zm-7 -12c0,0 -1,0 -1,0 0,0 0,1 0,1l0 0c0,1 0,1 0,1 0,0 1,0 1,0l0 0c1,0 1,0 1,0 0,0 0,0 0,-1l0 0c0,0 0,-1 0,-1 0,0 0,0 -1,0l0 0zm7 1c0,0 0,-1 0,-1 -1,0 -1,0 -1,0l0 0c-1,0 -1,0 -1,0 0,0 0,1 0,1l0 0c0,1 0,1 0,1 0,0 0,0 1,0l0 0c0,0 0,0 1,0 0,0 0,0 0,-1l0 0zm-14 0c0,1 0,1 1,1 0,0 0,0 0,0l1 0c0,0 0,0 0,0 1,0 1,0 1,-1l0 0c0,0 0,-1 -1,-1 0,0 0,0 0,0l-1 0c0,0 0,0 0,0 -1,0 -1,1 -1,1l0 0zm44 19c0,0 0,0 -1,0 0,0 0,1 -1,1l-17 0c-1,0 -1,0 -1,-1 0,0 0,0 0,0l0 -27c0,0 0,0 0,0 0,-1 0,-1 1,-1l4 0c0,0 0,0 0,0 1,0 1,-1 1,-1l0 0c0,-1 0,-1 0,-1 0,0 1,-1 1,-1l1 0c0,0 0,1 1,1 0,0 0,0 0,1l0 0c0,0 0,1 0,1 1,0 1,0 1,0l1 0c1,0 1,0 1,0 0,0 0,-1 0,-1l0 0c0,-1 1,-1 1,-1 0,0 0,-1 1,-1l0 0c1,0 1,1 1,1 0,0 1,0 1,1l0 0c0,0 0,1 0,1 0,0 0,0 1,0l4 0c0,0 0,0 1,1 0,0 0,0 0,0l0 24c0,0 0,1 0,1 0,0 -1,1 -1,1l-1 1zm-10 -12c0,0 0,0 -1,0 0,0 0,1 0,1l0 7c0,1 0,1 0,1 1,0 1,0 1,0l1 0c1,0 1,0 1,0 0,0 0,0 0,-1l0 -7c0,0 0,-1 0,-1 0,0 0,0 -1,0l-1 0zm0 -13c0,0 0,1 -1,1 0,0 0,0 0,1l0 7c0,0 0,0 0,0 1,1 1,1 1,1l1 0c1,0 1,0 1,-1 0,0 0,0 0,0l0 -7c0,-1 0,-1 0,-1 0,0 0,-1 -1,-1l-1 0zm8 22c0,0 0,0 0,0 1,0 1,0 1,-1l0 -7c0,0 0,-1 -1,-1 0,0 0,0 0,0l-1 0c-1,0 -1,0 -1,0 0,0 0,1 0,1l0 7c0,1 0,1 0,1 0,0 0,0 1,0l1 0zm-1 -22c-1,0 -1,1 -1,1 0,0 0,0 0,1l0 7c0,0 0,0 0,0 0,1 0,1 1,1l1 0c0,0 0,0 0,-1 1,0 1,0 1,0l0 -7c0,-1 0,-1 -1,-1 0,0 0,-1 0,-1l-1 0zm-14 21c0,1 0,1 0,1 0,0 1,0 1,0l1 0c0,0 0,0 0,0 1,0 1,0 1,-1l0 -7c0,0 0,-1 -1,-1 0,0 0,0 0,0l-1 0c0,0 -1,0 -1,0 0,0 0,1 0,1l0 7zm1 -21c0,0 -1,1 -1,1 0,0 0,0 0,1l0 7c0,0 0,0 0,0 0,1 1,1 1,1l1 0c0,0 0,0 0,-1 1,0 1,0 1,0l0 -7c0,-1 0,-1 -1,-1 0,0 0,-1 0,-1l-1 0z"/>
 </g>
</svg>
