<?xml version="1.0" encoding="UTF-8"?>
<!DOCTYPE svg PUBLIC "-//W3C//DTD SVG 1.1//EN" "http://www.w3.org/Graphics/SVG/1.1/DTD/svg11.dtd">
<!-- Creator: CorelDRAW X8 -->
<svg xmlns="http://www.w3.org/2000/svg" xml:space="preserve" width="96.9823mm" height="32.9751mm" version="1.1" style="shape-rendering:geometricPrecision; text-rendering:geometricPrecision; image-rendering:optimizeQuality; fill-rule:evenodd; clip-rule:evenodd"
viewBox="0 0 48 16"
 xmlns:xlink="http://www.w3.org/1999/xlink">
 <defs>
  <style type="text/css">
   <![CDATA[
    .str0 {stroke:#332C2B;stroke-width:0.0981114}
    .fil0 {fill:#69DCF7}
    .fil1 {fill:#FEFEFE;fill-rule:nonzero}
   ]]>
  </style>
 </defs>
 <g id="图层_x0020_1">
  <metadata id="CorelCorpID_0Corel-Layer"/>
  <path class="fil0 str0" d="M45 0l-42 0c-2,0 -3,1 -3,3l0 10c0,2 1,3 3,3l42 0c1,0 3,-1 3,-3l0 -10c0,-2 -2,-3 -3,-3z"/>
  <path class="fil1" d="M22 4c0,0 0,0 0,-1 0,0 0,0 1,0l0 0c0,0 0,0 0,0 0,1 0,1 0,1l0 8c0,0 0,0 0,0 0,0 0,0 0,0l0 1c0,0 -1,0 -1,0 0,0 0,0 0,0l0 0c-1,0 -1,0 -1,0 0,0 0,0 0,-1l0 0c0,0 0,0 0,0 0,0 0,0 1,0l0 0c0,0 0,0 0,0 0,0 0,0 0,0l0 -8zm-1 0c0,0 0,0 0,-1 0,0 0,0 1,0l0 0c0,0 0,0 0,0 0,1 0,1 0,1l0 7c0,0 0,0 0,0 0,1 0,1 0,1l0 0c-1,0 -1,0 -1,-1 0,0 0,0 0,0l0 -7zm-3 -1c0,0 0,0 0,0 0,1 0,1 0,1l0 3c0,0 0,0 0,0 0,0 1,0 1,0 0,0 0,0 0,0 0,0 0,0 0,0l0 -3c0,0 0,0 0,-1 0,0 0,0 0,0l1 0c0,0 1,0 1,0 0,1 0,1 0,1l0 3c0,0 0,0 0,0 0,0 0,0 0,0 0,0 0,0 0,1 0,0 0,0 0,0l0 0c0,0 0,0 0,0 0,0 0,0 0,0 0,0 0,0 0,0 0,1 0,1 0,1l0 3c0,0 0,0 0,0 0,0 0,0 0,0l-1 1c0,0 0,0 0,0 0,0 0,0 0,0 0,0 0,0 0,0 0,0 0,0 0,-1l0 0c0,0 0,0 0,0 0,0 0,0 0,0 0,0 0,0 0,0 0,0 0,0 0,0l0 -3c0,0 0,0 0,-1 0,0 0,0 0,0 0,0 0,0 0,0 0,1 -1,1 -1,1l0 3c0,1 0,1 0,1 0,0 0,0 0,0l0 0c0,0 0,0 0,0 0,0 0,0 0,-1l0 -3c0,0 0,0 0,-1 0,0 0,0 0,0 0,0 -1,0 -1,0 0,1 0,1 0,1l0 3c0,0 0,0 0,0 0,0 0,0 0,0l0 1c0,0 0,0 0,0 0,0 0,0 0,0 -1,0 -1,0 -1,0 0,0 0,0 0,-1l0 0c0,0 0,0 0,0 0,0 0,0 0,0 1,0 1,0 1,0 0,0 0,0 0,0l0 -3c0,0 0,0 0,-1 0,0 -1,0 -1,0 0,0 0,0 0,0 0,1 0,1 0,1l0 3c0,1 0,1 0,1 0,0 0,0 0,0l0 0c0,0 0,0 -1,0 0,0 0,0 0,-1l0 -3c0,0 0,0 0,-1 0,0 0,0 0,0 0,0 0,0 0,0 0,0 0,0 0,0l0 0c0,0 0,0 0,0 0,-1 0,-1 0,-1 0,0 0,0 0,0 0,0 0,0 0,0l0 -3c0,0 0,0 0,-1 1,0 1,0 1,0l1 0zm1 4c0,0 1,0 1,0 0,0 0,0 0,0 0,0 0,0 0,0 0,0 0,0 0,0l0 -2c0,0 0,-1 0,-1 0,0 0,0 0,0 0,0 0,0 0,0 0,0 -1,1 -1,1l0 2zm-2 0c0,0 1,0 1,0 0,0 0,0 0,0l0 -2c0,0 0,-1 0,-1 0,0 -1,0 -1,0 0,0 0,0 0,0 0,0 0,1 0,1l0 2c0,0 0,0 0,0 0,0 0,0 0,0zm9 6c0,0 0,0 -1,0 0,0 0,0 0,0l0 0c0,0 0,0 0,0 0,0 0,0 0,-1l0 -8c0,0 0,0 0,-1 0,0 0,0 0,0l2 0c0,0 0,0 0,0 0,1 0,1 0,1l0 3c0,0 0,0 0,0 0,0 0,0 0,0 0,1 0,1 0,1 0,0 0,0 0,0 0,0 0,0 0,0 0,0 0,0 0,1l0 3c0,0 0,0 0,0 0,0 0,0 0,0l-1 0c0,0 0,0 0,0 0,0 0,0 0,1zm4 -6c0,0 0,0 0,0 0,0 0,0 0,0l0 1c0,0 0,0 0,0 0,0 0,0 0,0l1 0c0,0 0,0 0,0 0,0 0,0 0,0l0 1c0,0 0,0 0,0 0,0 0,0 0,0l-1 0c0,0 0,0 0,0 0,0 0,0 0,0l0 3c0,1 0,1 0,1 0,0 0,0 -1,0l0 0c0,0 0,0 0,0 0,0 0,0 0,-1l0 0c0,0 0,0 0,0 0,0 0,0 0,0 0,0 0,0 0,0 0,0 0,0 0,0l0 -3c0,0 0,0 0,0 0,0 0,0 -1,0l0 0c-1,0 -1,0 -1,0 0,0 0,0 0,0l0 -1c0,0 0,0 0,0 0,0 0,0 1,0l0 0c1,0 1,0 1,0 0,0 0,0 0,0l0 -1c0,0 0,0 0,0 0,0 0,0 -1,0l0 0c-1,0 -1,0 -1,0 0,0 0,0 0,0l0 -1c0,0 0,0 0,0 0,0 0,0 1,0l3 0c0,0 0,0 0,0 0,0 0,0 0,0l0 1c0,0 0,0 0,0 0,0 0,0 0,0l-1 0zm1 -2c0,1 0,1 0,1 0,0 0,0 0,0l0 0c-1,0 -1,0 -1,0 0,0 0,0 0,-1l0 0c0,0 0,-1 0,-1 0,0 0,0 0,0l-1 0c0,0 0,0 0,0 0,0 0,1 0,1l0 0c0,1 -1,1 -1,1 0,0 0,0 0,0l0 0c-1,0 -1,0 -1,0 0,0 0,0 0,-1l0 0c0,0 0,0 0,0 0,0 0,0 0,0 0,0 1,0 1,0 0,0 0,0 0,-1l0 0c0,0 0,0 0,-1 0,0 0,0 0,0l3 0c0,0 0,0 0,0 0,1 0,1 0,1l0 0c0,1 0,1 0,1 0,0 0,0 0,0 0,0 0,0 0,0 0,0 0,0 0,0l0 0zm-4 7c0,0 0,0 0,0 0,0 0,0 0,0 0,0 0,0 0,0l0 -2c0,0 0,0 1,0 0,0 0,0 0,0l0 0c0,0 0,0 0,0 0,0 0,0 0,0l0 2c0,1 0,1 0,1 0,0 0,0 0,0l-1 0c0,0 0,0 0,0 0,0 0,0 0,-1l0 0c0,0 0,0 0,0zm4 -2c0,0 0,0 0,0 0,0 0,0 0,0l0 2c0,0 0,0 0,0 0,0 0,0 0,0 0,0 0,0 0,0 0,0 0,0 0,0l0 0c0,1 0,1 0,1 0,0 0,0 0,0l-1 0c0,0 0,0 0,0 0,0 0,0 0,-1l0 -2c0,0 0,0 0,0 0,0 0,0 1,0l0 0zm-5 1c0,0 0,0 0,0 0,0 0,0 0,0 0,0 0,0 0,0 0,0 0,0 0,0l0 -2c0,-1 0,-1 0,-1 0,0 0,0 0,0 0,0 0,0 0,0 0,0 0,0 0,1l0 2zm0 -4c0,0 0,0 0,0 0,0 0,0 0,0 0,0 0,0 0,0 0,0 0,0 0,0l0 -2c0,0 0,-1 0,-1 0,0 0,0 0,0 0,0 0,0 0,0 0,0 0,1 0,1l0 2z"/>
 </g>
</svg>
