<?xml version="1.0" encoding="UTF-8"?>
<!DOCTYPE svg PUBLIC "-//W3C//DTD SVG 1.1//EN" "http://www.w3.org/Graphics/SVG/1.1/DTD/svg11.dtd">
<!-- Creator: CorelDRAW X8 -->
<svg xmlns="http://www.w3.org/2000/svg" xml:space="preserve" width="221.481mm" height="92.3983mm" version="1.1" style="shape-rendering:geometricPrecision; text-rendering:geometricPrecision; image-rendering:optimizeQuality; fill-rule:evenodd; clip-rule:evenodd"
viewBox="0 0 273 114"
 xmlns:xlink="http://www.w3.org/1999/xlink">
 <defs>
  <style type="text/css">
   <![CDATA[
    .fil0 {fill:#FEB079}
    .fil1 {fill:#FEFEFE;fill-rule:nonzero}
   ]]>
  </style>
 </defs>
 <g id="图层_x0020_1">
  <metadata id="CorelCorpID_0Corel-Layer"/>
  <path class="fil0" d="M10 0l253 0c5,0 10,4 10,9l0 96c0,5 -5,9 -10,9l-253 0c-6,0 -10,-4 -10,-9l0 -96c0,-5 4,-9 10,-9z"/>
  <path class="fil1" d="M128 88c-1,0 -1,1 -2,1 -1,0 -2,1 -3,1l-26 0c0,0 -1,-1 -1,-1 -1,-1 -1,-1 -1,-2l0 -1c0,-1 0,-2 1,-2 0,-1 1,-1 1,-1l25 0c1,0 1,0 2,-1 0,0 1,-1 1,-2l0 -7c0,-1 0,-1 0,-2 1,0 1,-1 2,-1l2 0c0,0 1,1 1,1 1,1 1,1 1,2l0 9c0,1 0,1 0,2 -1,1 -1,2 -2,2l-1 2zm-45 -2c0,-1 0,-2 1,-2 0,-1 0,-1 0,-1 1,0 1,0 1,-1 0,0 0,-1 0,-2l0 -25c0,-1 0,-1 1,-2 0,0 1,0 2,0l1 0c1,0 2,0 2,0 1,1 1,1 1,2l0 27c0,1 0,1 -1,2 0,1 0,2 -1,2l-2 2c0,0 -1,1 -1,1 -1,0 -2,1 -2,1 -1,0 -1,-1 -1,-1 -1,-1 -1,-1 -1,-2l0 -1zm48 -21c0,0 0,1 0,1 -1,1 -1,1 -2,1 0,0 -1,0 -2,0 0,-1 -1,-1 -1,-2l-2 -1c-1,-1 -1,-2 -1,-2 -1,-1 -1,-2 -1,-3l0 -29c0,-1 0,-2 1,-2 0,-1 1,-1 2,-1l1 0c1,0 1,0 2,1 0,0 1,1 1,2l0 28c0,1 0,1 0,2 0,0 1,1 1,1 0,0 1,0 1,0 0,1 0,1 0,2l0 2zm-41 -18c0,0 -1,1 -2,1 0,0 -1,-1 -1,-1l-1 -1c-1,-1 -1,-1 -1,-2 0,-1 0,-1 1,-2l1 -1c0,-1 1,-1 1,-1 1,0 2,0 2,1l1 1c1,1 1,1 1,2 0,1 0,1 -1,2l-1 1zm24 31c-1,1 -2,1 -2,2 -1,0 -2,0 -3,0l-2 0c-1,0 -1,0 -2,-1 0,0 -1,-1 -1,-1l0 -2c0,-1 1,-1 1,-2 1,0 1,-1 2,-1l1 0c1,0 1,0 2,0 0,-1 0,-1 0,-2l0 -44c0,-1 1,-2 1,-2 1,-1 1,-1 2,-1l2 0c0,0 1,0 1,1 1,0 1,1 1,2l0 45c0,1 0,2 0,3 -1,0 -1,1 -2,2l-1 1zm-9 -13c0,0 0,1 0,2 -1,1 -1,2 -2,2l-1 2c-1,0 -2,1 -2,1 -1,0 -2,1 -2,1 -1,0 -1,-1 -2,-1 0,-1 0,-1 0,-2l0 -2c0,0 0,-1 0,-1 0,-1 1,-1 1,-1 0,0 1,0 1,-1 0,0 0,-1 0,-2l0 -33c0,-1 1,-2 1,-2 1,-1 1,-1 2,-1l2 0c0,0 1,0 1,1 1,0 1,1 1,2l0 35zm-18 -38c0,0 1,-1 1,-1 1,0 2,1 2,1l1 1c1,1 1,1 1,2 0,1 0,1 -1,2l-1 1c0,1 -1,1 -2,1 0,0 -1,0 -1,-1l-1 -1c-1,-1 -1,-1 -1,-2 0,-1 0,-1 1,-2l1 -1zm57 18c-1,0 -1,-1 -1,-2 0,0 0,-1 1,-1l1 -1c1,-1 1,-1 2,-1 1,0 1,0 2,1l1 1c0,0 0,1 0,1 0,1 0,2 0,2l-1 1c-1,1 -1,1 -2,1 -1,0 -1,0 -2,-1l-1 -1zm-2 41c0,-1 0,-2 0,-2 0,-1 0,-1 1,-1 0,0 0,0 0,-1 0,0 1,-1 1,-1l0 -27c0,0 0,-1 0,-1 1,-1 1,-1 2,-1l2 0c0,0 1,0 1,1 1,0 1,1 1,1l0 28c0,1 0,1 0,2 -1,1 -1,2 -2,2l-1 2c-1,0 -1,1 -2,1 -1,0 -1,1 -2,1 0,0 -1,-1 -1,-1 0,-1 0,-1 0,-2l0 -1zm7 -53c-1,0 -1,0 -2,0 -1,0 -1,0 -2,0l-1 -1c-1,-1 -1,-2 -1,-2 0,-1 0,-1 1,-2l1 -1c1,-1 1,-1 2,-1 1,0 1,0 2,1l1 1c0,1 0,1 0,2 0,0 0,1 0,2l-1 1zm32 6c0,0 -1,0 -2,-1 0,0 0,-1 0,-1 0,-1 -1,-1 -1,-1 0,-1 -1,-1 -2,-1l-9 0c-1,0 -2,0 -2,1 -1,0 -1,0 -1,1 0,0 0,1 0,1 -1,1 -2,1 -2,1l-2 0c-1,0 -1,0 -2,-1 0,0 0,-1 0,-1 0,-1 -1,-1 -1,-1 0,-1 -1,-1 -1,-1 -1,0 -1,0 -2,-1 0,0 0,-1 0,-1l0 -2c0,-1 0,-1 0,-2 1,0 1,0 2,0 0,0 1,-1 1,-1 0,0 1,-1 1,-2 0,0 0,-1 0,-1 1,-1 1,-1 2,-1l2 0c0,0 1,0 2,1 0,0 0,1 0,1 0,1 0,2 1,2 0,0 1,1 2,1l9 0c1,0 2,-1 2,-1 0,0 1,-1 1,-2 0,0 0,-1 0,-1 1,-1 2,-1 2,-1l2 0c1,0 1,0 2,1 0,0 0,1 0,1 0,1 1,2 1,2 0,0 1,1 1,1 1,0 1,0 2,0 0,1 0,1 0,2l0 2c0,0 0,1 0,1 -1,1 -1,1 -2,1 0,0 -1,0 -1,1 0,0 -1,0 -1,1 0,0 0,1 0,1 -1,1 -1,1 -2,1l-2 0zm-16 49c0,0 -1,1 -2,1 -1,0 -2,1 -2,1l-5 0c-1,0 -1,-1 -2,-1 0,-1 0,-1 0,-2l0 -1c0,-1 0,-2 0,-2 1,-1 1,-1 2,-1l2 0c1,0 1,0 2,0 1,-1 2,-1 2,-2l2 -1c1,-1 1,-1 1,-2 0,0 -1,0 -1,0l-8 0c-1,0 -1,0 -2,-1 0,0 0,-1 0,-2l0 -1c0,-1 0,-2 0,-2 1,-1 1,-1 2,-1l10 0c0,0 1,0 1,0 1,-1 1,-1 1,-2 0,0 0,-1 -1,-1 0,-1 -1,-1 -1,-1l-10 0c0,0 -1,0 -2,-1 0,0 0,-1 0,-1l0 -22c0,0 0,-1 0,-1 1,-1 2,-1 2,-1l31 0c1,0 1,0 2,1 0,0 0,1 0,1l0 16c0,1 0,2 0,3 -1,1 -1,1 -1,2l-2 1c-1,1 -1,1 -2,2 -1,0 -2,0 -2,0l-5 0c0,0 -1,0 -1,1 -1,0 -1,1 -1,1 0,1 0,1 1,2 0,0 1,0 1,0l10 0c1,0 1,0 2,1 0,0 0,1 0,2l0 1c0,1 0,2 0,2 -1,1 -1,1 -2,1l-8 0c0,0 -1,0 -1,0 0,1 0,1 1,2l2 1c0,1 1,1 2,2 0,0 1,0 2,0l2 0c1,0 1,0 2,1 0,0 0,1 0,2l0 1c0,1 0,1 0,2 -1,0 -1,1 -2,1l-5 0c0,0 -1,-1 -2,-1 -1,0 -2,-1 -2,-1l-5 -4c0,-1 -1,-1 -2,-1 0,0 -1,0 -1,1l-5 4zm-2 -41c-1,0 -1,1 -2,1 0,0 -1,1 -1,1 0,1 1,1 1,2 1,0 1,0 2,0l17 0c1,0 1,0 2,0 0,-1 1,-1 1,-2 0,0 -1,-1 -1,-1 -1,0 -1,-1 -2,-1l-17 0zm-3 12c0,0 1,1 1,1 1,0 1,1 2,1l17 0c1,0 1,-1 2,-1 0,0 1,-1 1,-1 0,-1 -1,-1 -1,-1 -1,-1 -1,-1 -2,-1l-17 0c-1,0 -1,0 -2,1 0,0 -1,0 -1,1z"/>
 </g>
</svg>
