<?xml version="1.0" encoding="UTF-8"?>
<!DOCTYPE svg PUBLIC "-//W3C//DTD SVG 1.1//EN" "http://www.w3.org/Graphics/SVG/1.1/DTD/svg11.dtd">
<!-- Creator: CorelDRAW X8 -->
<svg xmlns="http://www.w3.org/2000/svg" xml:space="preserve" width="221.481mm" height="92.3984mm" version="1.1" style="shape-rendering:geometricPrecision; text-rendering:geometricPrecision; image-rendering:optimizeQuality; fill-rule:evenodd; clip-rule:evenodd"
viewBox="0 0 489 204"
 xmlns:xlink="http://www.w3.org/1999/xlink">
 <defs>
  <style type="text/css">
   <![CDATA[
    .fil2 {fill:#FEFEFE}
    .fil0 {fill:#C2E105}
    .fil1 {fill:#FEFEFE;fill-rule:nonzero}
   ]]>
  </style>
 </defs>
 <g id="图层_x0020_1">
  <metadata id="CorelCorpID_0Corel-Layer"/>
  <path class="fil0" d="M18 0l454 0c9,0 17,7 17,16l0 172c0,9 -8,16 -17,16l-454 0c-10,0 -18,-7 -18,-16l0 -172c0,-9 8,-16 18,-16z"/>
  <path class="fil1" d="M88 130c-1,0 -3,0 -4,-1 -1,-1 -2,-3 -2,-4l0 -82c0,-2 1,-4 3,-6 1,-1 3,-2 6,-2l16 0c15,0 26,4 34,12 8,8 12,20 12,35 0,16 -4,28 -12,36 -8,8 -19,12 -33,12l-13 0 -7 0zm9 -12l9 0c10,0 18,-3 24,-9 5,-6 8,-15 8,-27 0,-23 -11,-35 -32,-35l-9 0 0 36 0 35zm86 14c-11,0 -19,-3 -24,-10 -3,-4 -2,-7 1,-9 2,-1 4,-2 6,-1 1,0 3,1 5,3 3,3 6,4 10,4 5,0 9,-1 11,-4 2,-3 3,-8 3,-15l0 -58c0,-5 3,-7 8,-7 5,0 7,2 7,7l0 26 0 33c0,9 -2,17 -6,22 -5,6 -12,9 -21,9zm59 -2c-4,0 -6,-1 -6,-5l0 -31 -4 2c-2,1 -4,1 -6,-2 -1,-2 -1,-5 2,-6l11 -6 5 0c1,0 2,0 3,1 0,1 1,2 1,3l0 20 0 19c0,4 -2,5 -6,5z"/>
  <path class="fil2" d="M39 66c10,0 18,8 18,18 0,9 -8,17 -18,17 -10,0 -18,-8 -18,-17 0,-10 8,-18 18,-18z"/>
  <path class="fil1" d="M361 157c0,1 -1,2 -1,2 0,1 -1,2 -1,2l-2 2c0,0 -1,0 -1,1 -1,0 -2,0 -2,0l-33 0c-1,0 -1,0 -2,0 0,-1 0,-1 0,-2l0 -11c0,-1 0,-1 0,-2 1,0 1,0 2,0l37 0c1,0 2,0 2,0 0,1 1,1 1,2l0 6zm0 30c0,1 -1,2 -1,2 0,1 -1,1 -2,1l-4 0c0,0 -1,0 -2,-1 -1,0 -1,0 -2,-1l-1 -2c-1,0 -1,0 -1,-1 -1,-1 -1,-2 -1,-2l0 -1c0,-1 0,-1 0,-2 -1,0 -1,0 -2,0l-11 0c-1,0 -1,0 -2,0 0,1 0,1 0,2l0 1c0,0 0,1 -1,2 0,1 0,1 -1,1l-1 2c-1,1 -1,1 -2,1 -1,1 -2,1 -2,1l-4 0c-1,0 -1,0 -2,-1 0,0 0,-1 0,-2l0 -1c0,-1 0,-1 0,-2 1,0 1,0 2,0l3 0c0,0 1,0 1,-1 1,0 1,-1 1,-1l0 -8c0,0 0,0 1,0 0,0 0,0 1,0l23 0c0,0 1,0 1,0 1,0 1,0 1,0l0 8c0,0 0,1 1,1 0,1 1,1 1,1l3 0c1,0 2,0 2,0 0,1 1,1 1,2l0 1zm0 -11c0,1 -1,1 -1,2 0,0 -1,0 -2,0l-1 0c-1,0 -1,0 -2,0 0,-1 0,-1 0,-2l0 -2c0,-1 0,-2 -1,-2 0,0 -1,-1 -1,-1l-26 0c-1,0 -1,1 -2,1 0,0 0,1 0,2l0 2c-1,1 -1,1 -1,2 -1,0 -1,0 -2,0l-1 0c-1,0 -1,0 -2,0 0,-1 0,-1 0,-2l0 -8c0,0 0,-1 0,-1 1,-1 1,-1 2,-1l37 0c1,0 2,0 2,1 0,0 1,1 1,1l0 8zm0 -32c0,1 -1,1 -1,2 0,0 -1,1 -2,1l-37 0c-1,0 -1,-1 -2,-1 0,-1 0,-1 0,-2l0 -1c0,0 0,-1 0,-1 1,0 1,-1 2,-1l37 0c1,0 2,1 2,1 0,0 1,1 1,1l0 1zm0 -11c0,0 -1,1 -1,2 0,0 -1,1 -1,1l-1 1c-1,1 -1,1 -2,1 -1,0 -2,1 -2,1l-33 0c-1,0 -1,-1 -2,-1 0,0 0,-1 0,-2l0 0c0,-1 0,-2 0,-2 1,0 1,-1 2,-1l32 0c0,0 1,0 1,0 1,0 1,0 1,-1 0,0 0,0 0,0 1,0 1,0 2,0l1 0c1,0 2,0 2,0 0,0 1,1 1,1zm-8 26c0,0 1,0 1,-1 1,0 1,-1 1,-1l0 -1c0,0 0,-1 -1,-1 0,-1 -1,-1 -1,-1l-26 0c-1,0 -1,0 -2,1 0,0 0,1 0,1l0 1c0,0 0,1 0,1 1,1 1,1 2,1l26 0zm18 27c0,-1 0,-1 0,-1 0,-1 1,-1 1,-1 0,0 1,0 1,-1 0,0 0,-1 0,-1l0 -1c0,-1 1,-2 1,-2 0,0 1,-1 2,-1l1 0c1,0 1,1 2,1 0,0 0,1 0,2l0 2c0,0 0,1 0,2 -1,1 -1,1 -1,2l-2 1c0,1 -1,1 -2,1 0,1 -1,1 -1,1 -1,0 -2,0 -2,-1 0,0 0,-1 0,-1l0 -2zm36 -8c1,0 1,1 2,1 0,0 1,1 1,2l0 1c0,0 0,1 0,1 0,1 1,1 1,1 0,0 1,0 1,1 0,0 0,0 0,1l0 2c0,0 0,1 0,1 -1,1 -1,1 -2,1 0,0 -1,0 -2,-1 0,0 -1,0 -1,-1l-2 -1c0,-1 -1,-1 -1,-2 0,-1 0,-2 0,-2l0 -2c0,-1 0,-2 0,-2 1,0 1,-1 2,-1l1 0zm-36 -5c0,-1 0,-1 0,-2 0,-1 0,-1 1,-2l1 -1c0,0 0,-1 0,-1 0,0 0,-1 -1,-1 0,0 -1,0 -1,0 0,0 0,0 0,-1l0 -2c0,-1 0,-1 0,-2 0,-1 1,-1 1,-2l0 0c0,0 0,-1 0,-1 0,0 0,-1 0,-1 0,0 -1,0 -1,0 0,-1 0,-1 0,-2l0 -1c0,-1 0,-1 0,-2 1,0 1,0 2,0l13 0c1,0 1,0 2,-1 0,0 0,0 0,-1 0,0 0,-1 0,-1 -1,0 -1,0 -2,0l-13 0c-1,0 -1,-1 -2,-1 0,0 0,-1 0,-2l0 -1c0,-1 0,-1 0,-2 1,0 1,0 2,0l13 0c1,0 1,0 2,-1 0,0 0,0 0,-1 0,0 0,-1 0,-1 -1,0 -1,0 -2,0l-13 0c-1,0 -1,-1 -2,-1 0,0 0,-1 0,-2l0 -1c0,-1 0,-1 0,-2 1,0 1,0 2,0l13 0c1,0 1,0 2,0 0,-1 0,-1 0,-1 0,-1 1,-1 1,-1 1,0 1,0 2,0l1 0c1,0 1,0 2,0 0,0 0,0 0,1 0,0 1,0 1,1 0,0 1,0 2,0l13 0c1,0 1,0 2,0 0,1 0,1 0,2l0 1c0,1 0,2 0,2 -1,0 -1,1 -2,1l-13 0c-1,0 -2,0 -2,0 0,0 -1,1 -1,1 0,1 1,1 1,1 0,1 1,1 2,1l13 0c1,0 1,0 2,0 0,1 0,1 0,2l0 1c0,1 0,2 0,2 -1,0 -1,1 -2,1l-13 0c-1,0 -2,0 -2,0 0,0 -1,1 -1,1 0,1 1,1 1,1 0,1 1,1 2,1l13 0c1,0 1,0 2,0 0,1 0,1 0,2l0 1c0,1 0,1 0,2 -1,0 -1,0 -2,0l-28 0c-1,0 -2,1 -2,1 -1,0 -2,1 -2,1l0 0c0,1 -1,1 0,1 0,1 0,1 1,1l31 0c1,0 1,0 2,1 0,0 0,1 0,1l0 1c0,1 0,1 0,2 -1,0 -1,0 -2,0l-28 0c0,0 -1,1 -2,1 0,0 -1,1 -1,1l-1 1c0,1 -1,1 0,1 0,1 0,1 1,1l25 0c1,0 2,0 2,-1 0,0 1,0 1,0 0,-1 0,-1 0,-1 1,-1 1,-1 2,-1l1 0c1,0 1,0 2,1 0,0 0,1 0,1 0,1 0,1 0,2 0,0 -1,1 -1,1l-2 2c0,0 -1,0 -1,1 -1,0 -2,0 -2,0l-9 0c0,0 -1,0 -1,1 -1,0 -1,1 -1,1l0 5c0,0 0,1 0,2 -1,1 -1,1 -1,2l-2 1c0,1 -1,1 -2,1 -1,1 -1,1 -2,1l-3 0c0,0 -1,0 -1,-1 -1,0 -1,-1 -1,-2l0 -1c0,-1 0,-1 1,-2 0,0 1,0 1,0l2 0c1,0 1,0 2,-1 0,0 0,-1 0,-1l0 -4c0,0 0,-1 0,-1 -1,-1 -1,-1 -2,-1l-14 0c-1,0 -1,0 -2,-1 0,0 0,-1 0,-1l0 -1zm80 -28c1,0 1,0 1,1 1,0 1,1 1,1l-5 41c0,0 0,1 -1,1 0,1 -1,1 -1,1l-3 0c0,0 -1,0 -1,-1 -1,0 -1,-1 -1,-1l0 -2c0,-1 0,-1 0,-2 0,0 1,0 1,0 0,0 1,0 1,-1 0,0 0,-1 0,-1l4 -35c0,0 0,-1 1,-1 0,-1 1,-1 1,-1l2 0zm12 -10c0,0 0,1 0,1 0,1 0,1 1,1 0,0 0,0 0,0 0,1 0,1 0,2l0 2c0,0 0,1 0,1 0,1 0,1 0,1 -1,0 -1,0 -1,0 0,1 0,1 0,2l0 43c0,0 -1,1 -1,1 -1,1 -1,1 -2,1l-7 0c-1,0 -1,0 -1,-1 -1,0 -1,-1 -1,-1l0 -2c0,-1 0,-1 0,-2 1,0 1,0 2,0l1 0c1,0 2,0 2,-1 0,0 1,-1 1,-1l0 -37c0,-1 -1,-1 -1,-2 0,0 -1,0 -2,0l-11 0c-1,0 -1,0 -2,-1 0,0 0,-1 0,-1l0 -2c0,-1 0,-1 0,-2 1,0 1,0 2,0l11 0c1,0 2,0 2,-1 0,0 1,-1 1,-1l0 -1c0,-1 0,-1 0,-2 1,0 1,0 2,0l1 0c1,0 1,0 2,0 0,1 1,1 1,2l0 1zm-27 -3c0,0 1,1 1,1 0,1 0,1 0,1 0,1 0,1 1,1 0,0 0,0 1,1 0,0 0,1 0,1l0 2c0,0 0,1 0,1 -1,1 -1,1 -1,1 -1,0 -1,0 -1,0 0,1 0,1 0,2l0 0c0,1 0,2 0,2 0,0 0,1 1,1 0,0 0,0 1,0 0,1 0,1 0,2l0 1c0,1 0,1 0,2 -1,0 -1,1 -1,1 -1,0 -1,0 -1,0 0,1 0,1 0,2l0 33c0,1 -1,2 -1,2 0,0 -1,1 -2,1l-1 0c-1,0 -1,-1 -2,-1 0,0 0,-1 0,-2l0 -33c0,-1 0,-1 -1,-2 0,0 0,0 -1,0 0,0 0,0 -1,0 0,1 0,1 0,2l0 34c0,0 0,1 -1,1 0,1 -1,1 -1,1l-1 0c-1,0 -1,0 -2,-1 0,0 0,-1 0,-1l0 -40c0,-1 0,-1 0,-2 1,0 1,0 2,0l4 0c0,0 1,-1 1,-1 1,0 1,-1 1,-2l0 0c0,-1 0,-1 -1,-2 0,0 -1,0 -1,0l-4 0c-1,0 -2,-1 -2,-1 0,0 -1,-1 -1,-2l0 -1c0,-1 1,-1 1,-1 0,-1 1,-1 2,-1l4 0c0,0 1,0 1,-1 1,0 1,0 1,-1 0,0 0,-1 0,-1 1,0 1,0 2,0l1 0c1,0 2,0 2,0z"/>
 </g>
</svg>
