<?xml version="1.0" encoding="UTF-8"?>
<!DOCTYPE svg PUBLIC "-//W3C//DTD SVG 1.1//EN" "http://www.w3.org/Graphics/SVG/1.1/DTD/svg11.dtd">
<!-- Creator: CorelDRAW X8 -->
<svg xmlns="http://www.w3.org/2000/svg" xml:space="preserve" width="221.481mm" height="92.3984mm" version="1.1" style="shape-rendering:geometricPrecision; text-rendering:geometricPrecision; image-rendering:optimizeQuality; fill-rule:evenodd; clip-rule:evenodd"
viewBox="0 0 468 195"
 xmlns:xlink="http://www.w3.org/1999/xlink">
 <defs>
  <style type="text/css">
   <![CDATA[
    .fil2 {fill:#FEFEFE}
    .fil0 {fill:#C2E105}
    .fil1 {fill:#FEFEFE;fill-rule:nonzero}
   ]]>
  </style>
 </defs>
 <g id="图层_x0020_1">
  <metadata id="CorelCorpID_0Corel-Layer"/>
  <path class="fil0" d="M17 0l434 0c9,0 17,7 17,15l0 165c0,8 -8,15 -17,15l-434 0c-9,0 -17,-7 -17,-15l0 -165c0,-8 8,-15 17,-15z"/>
  <path class="fil1" d="M93 125c-2,0 -4,-1 -5,-2 -1,-1 -1,-2 -1,-4l0 -78c0,-2 1,-4 2,-5 2,-2 4,-3 6,-3l16 0c14,0 25,4 32,12 8,8 12,19 12,34 0,14 -4,26 -12,34 -7,8 -18,12 -32,12l-12 0 -6 0zm8 -12l9 0c9,0 17,-3 22,-9 5,-5 8,-14 8,-25 0,-23 -10,-34 -30,-34l-9 0 0 34 0 34zm82 13c-10,0 -18,-3 -23,-10 -2,-3 -2,-6 1,-8 2,-1 3,-2 5,-1 2,0 4,1 5,3 3,3 6,4 10,4 5,0 8,-2 10,-4 3,-3 4,-8 4,-15l0 -54c0,-5 2,-8 7,-8 5,0 7,3 7,8l0 24 0 32c0,9 -2,15 -6,21 -5,5 -11,8 -20,8zm42 -1c-2,0 -3,-1 -3,-1 -1,-1 -1,-2 -1,-3l0 0c0,-2 0,-3 2,-5 6,-5 10,-9 12,-13 3,-4 5,-7 5,-10 0,-2 -1,-4 -2,-5 -1,-1 -2,-2 -4,-2 -2,0 -3,1 -5,2 -2,2 -4,2 -6,0 -1,-1 -1,-2 -1,-3 0,-1 0,-2 1,-3 4,-3 8,-4 12,-4 5,0 9,1 11,4 3,2 5,6 5,10 0,7 -5,15 -14,24 3,0 5,-1 7,-1l4 0c3,0 5,2 5,5 0,3 -2,5 -5,5l-11 0 -12 0z"/>
  <path class="fil2" d="M45 63c9,0 17,7 17,17 0,9 -8,17 -17,17 -10,0 -17,-8 -17,-17 0,-10 7,-17 17,-17z"/>
  <path class="fil1" d="M300 128c0,-1 1,-1 1,-2 0,0 1,0 1,0l11 0c0,0 1,0 1,0 1,1 1,1 1,2l0 51c0,1 0,1 -1,2 0,0 -1,0 -1,0l-11 0c0,0 -1,0 -1,0 0,-1 -1,-1 -1,-2l0 -51zm41 51c0,1 -1,1 -1,2 0,0 -1,0 -2,0l-19 0c-1,0 -1,0 -2,0 0,-1 0,-1 0,-2l0 -20c0,-1 0,-1 0,-2 1,0 1,0 2,0l19 0c1,0 2,0 2,0 0,1 1,1 1,2l0 20zm-2 -37c0,0 -1,0 -1,1 0,0 0,0 0,1l0 3c0,0 0,1 0,1 0,1 1,1 1,1 1,0 1,0 1,1 0,0 1,0 1,1l0 2c0,0 -1,1 -1,1 0,0 -1,1 -2,1l-19 0c-1,0 -1,-1 -2,-1 0,0 0,-1 0,-1l0 -2c0,-1 0,-1 0,-1 0,-1 1,-1 1,-1 1,0 1,0 1,-1 1,0 1,-1 1,-1l0 -3c0,-1 0,-1 -1,-1 0,-1 0,-1 -1,-1 0,0 -1,0 -1,-1 0,0 0,-1 0,-1l0 -2c0,0 0,-1 0,-1 1,-1 1,-1 2,-1l19 0c1,0 2,0 2,1 0,0 1,1 1,1l0 2c0,0 -1,1 -1,1 0,1 0,1 -1,1zm-22 -12c0,0 0,-1 0,-1 1,0 1,-1 2,-1l14 0c0,0 1,0 1,0 1,0 1,-1 1,-1 0,0 0,-1 1,-1 0,0 1,0 1,0l1 0c1,0 2,0 2,0 0,1 1,1 1,2l0 4c0,1 -1,1 -1,1 0,1 -1,1 -2,1l-19 0c-1,0 -1,0 -2,-1 0,0 0,0 0,-1l0 -2zm-11 45c1,0 1,1 2,1 0,0 0,-1 1,-1 0,0 0,-1 0,-1l0 -16c0,0 0,-1 0,-1 -1,0 -1,-1 -1,-1 -1,0 -1,1 -2,1 0,0 0,1 0,1l0 16c0,0 0,1 0,1zm3 -43c-1,0 -1,-1 -1,-1 -1,0 -1,1 -2,1 0,0 0,1 0,1l0 16c0,0 0,1 0,1 1,0 1,1 2,1 0,0 0,-1 1,-1 0,0 0,-1 0,-1l0 -16c0,0 0,-1 0,-1zm15 30c0,0 -1,0 -1,1 -1,0 -1,1 -1,1 0,1 0,1 1,2 0,0 1,0 1,0l9 0c0,0 1,0 1,0 1,-1 1,-1 1,-2 0,0 0,-1 -1,-1 0,-1 -1,-1 -1,-1l-9 0zm8 -18c0,-1 0,-1 0,-1 -1,-1 -1,-1 -2,-1l-3 0c0,0 -1,0 -1,1 -1,0 -1,0 -1,1l0 3c0,0 0,1 1,1 0,1 1,1 1,1l3 0c1,0 1,0 2,-1 0,0 0,-1 0,-1l0 -3zm1 32c0,0 1,-1 1,-1 1,0 1,-1 1,-1 0,-1 0,-1 -1,-1 0,-1 -1,-1 -1,-1l-9 0c0,0 -1,0 -1,1 -1,0 -1,0 -1,1 0,0 0,1 1,1 0,0 1,1 1,1l9 0zm17 2c0,-1 0,-1 0,-2 1,0 1,0 1,0 1,0 1,0 1,-1 0,0 1,-1 1,-1l0 -1c0,-1 0,-2 0,-2 1,0 1,-1 2,-1l1 0c1,0 1,1 2,1 0,0 0,1 0,2l0 2c0,0 0,1 0,2 -1,0 -1,1 -1,1l-2 2c0,0 -1,1 -1,1 -1,0 -2,0 -2,0 -1,0 -1,0 -2,0 0,-1 0,-1 0,-2l0 -1zm35 -8c1,0 1,1 2,1 0,0 0,1 0,2l0 1c0,0 0,1 1,1 0,1 0,1 1,1 0,0 0,0 1,0 0,1 0,1 0,2l0 1c0,1 0,1 -1,2 0,0 0,0 -1,0 -1,0 -1,0 -2,0 -1,0 -1,-1 -1,-1l-2 -2c0,0 -1,-1 -1,-1 0,-1 0,-2 0,-2l0 -2c0,-1 0,-2 0,-2 1,0 1,-1 2,-1l1 0zm-35 -5c0,0 0,-1 0,-2 0,0 1,-1 1,-1l1 -1c0,-1 0,-1 0,-1 0,-1 0,-1 0,-1 -1,0 -1,0 -2,0 0,0 0,-1 0,-1l0 -3c0,0 0,-1 0,-1 1,-1 1,-1 1,-2l0 0c1,0 1,-1 1,-1 0,0 0,-1 -1,-1 0,0 0,0 -1,0 0,-1 0,-1 0,-2l0 -1c0,-1 0,-1 0,-1 1,-1 1,-1 2,-1l13 0c1,0 1,0 1,-1 1,0 1,0 1,-1 0,0 0,0 -1,-1 0,0 0,0 -1,0l-13 0c-1,0 -1,0 -2,-1 0,0 0,-1 0,-1l0 -2c0,0 0,-1 0,-1 1,0 1,-1 2,-1l13 0c1,0 1,0 1,0 1,0 1,-1 1,-1 0,0 0,-1 -1,-1 0,0 0,-1 -1,-1l-13 0c-1,0 -1,0 -2,0 0,-1 0,-1 0,-2l0 -1c0,-1 0,-1 0,-2 1,0 1,0 2,0l13 0c1,0 1,0 1,0 1,-1 1,-1 1,-1 0,0 0,-1 1,-1 0,0 1,0 1,0l2 0c0,0 1,0 1,0 0,0 1,1 1,1 0,0 0,0 0,1 1,0 1,0 2,0l13 0c0,0 1,0 1,0 1,1 1,1 1,2l0 1c0,1 0,1 -1,2 0,0 -1,0 -1,0l-13 0c-1,0 -1,1 -2,1 0,0 0,1 0,1 0,0 0,1 0,1 1,0 1,0 2,0l13 0c0,0 1,1 1,1 1,0 1,1 1,1l0 2c0,0 0,1 -1,1 0,1 -1,1 -1,1l-13 0c-1,0 -1,0 -2,0 0,1 0,1 0,1 0,1 0,1 0,1 1,1 1,1 2,1l13 0c0,0 1,0 1,1 1,0 1,0 1,1l0 1c0,1 0,1 -1,2 0,0 -1,0 -1,0l-27 0c-1,0 -2,1 -2,1 -1,0 -2,1 -2,1l0 0c0,1 0,1 0,1 0,1 0,1 1,1l30 0c0,0 1,0 1,0 1,1 1,1 1,2l0 1c0,1 0,1 -1,1 0,1 -1,1 -1,1l-27 0c0,0 -1,0 -2,1 0,0 -1,0 -1,1l-1 1c0,0 0,0 0,1 0,0 0,0 1,0l24 0c1,0 1,0 2,0 0,0 0,-1 0,-1 0,0 1,-1 1,-1 0,0 1,0 1,0l2 0c0,0 1,0 1,0 1,1 1,1 1,1 0,1 0,2 -1,2 0,1 0,1 -1,2l-1 1c0,0 -1,1 -2,1 0,0 -1,0 -2,0l-7 0c-1,0 -2,0 -2,1 0,0 -1,1 -1,1l0 5c0,0 0,1 0,2 0,0 -1,1 -1,1l-2 2c0,0 -1,1 -1,1 -1,0 -2,0 -2,0l-3 0c-1,0 -1,0 -1,0 -1,-1 -1,-1 -1,-2l0 -1c0,-1 0,-1 1,-2 0,0 0,0 1,0l2 0c0,0 1,-1 1,-1 1,0 1,-1 1,-1l0 -4c0,0 0,-1 -1,-1 0,-1 -1,-1 -1,-1l-14 0c-1,0 -1,0 -2,0 0,-1 0,-1 0,-2l0 -1zm77 -26c0,0 1,0 1,0 0,1 1,1 1,2l-5 38c0,1 0,1 -1,2 0,0 -1,0 -1,0l-3 0c0,0 -1,0 -1,0 -1,-1 -1,-1 -1,-2l0 -1c0,-1 0,-1 0,-2 1,0 1,0 1,0 0,0 1,-1 1,-1 0,0 0,-1 1,-1l3 -33c0,-1 0,-1 1,-2 0,0 1,0 1,0l2 0zm11 -10c0,0 0,1 0,1 0,1 0,1 1,1 0,0 0,0 0,0 1,1 1,1 1,2l0 1c0,1 0,1 -1,2 0,0 0,0 0,0 -1,0 -1,1 -1,1 0,0 0,1 0,1l0 41c0,1 0,1 -1,2 0,0 -1,0 -1,0l-7 0c-1,0 -1,0 -2,0 0,-1 0,-1 0,-2l0 -1c0,-1 0,-1 0,-2 1,0 1,0 2,0l1 0c1,0 1,-1 2,-1 0,0 0,-1 0,-1l0 -36c0,0 0,-1 0,-1 -1,0 -1,-1 -2,-1l-11 0c0,0 -1,0 -1,0 -1,-1 -1,-1 -1,-2l0 -1c0,-1 0,-1 1,-2 0,0 1,0 1,0l11 0c1,0 1,0 2,-1 0,0 0,-1 0,-1l0 -1c0,-1 0,-1 1,-2 0,0 1,0 1,0l2 0c0,0 1,0 1,0 1,1 1,1 1,2l0 1zm-26 -3c1,1 1,1 1,1 0,1 0,1 0,1 1,1 1,1 1,1 0,0 1,0 1,1 0,0 0,0 0,1l0 1c0,1 0,1 0,2 0,0 -1,0 -1,0 0,0 0,1 -1,1 0,1 0,1 0,2l0 0c0,1 0,1 0,2 1,0 1,0 1,0 0,0 1,0 1,1 0,0 0,1 0,1l0 2c0,0 0,1 0,1 0,1 -1,1 -1,1 0,0 0,0 -1,0 0,1 0,1 0,2l0 32c0,1 0,1 -1,2 0,0 0,0 -1,0l-1 0c-1,0 -1,0 -2,0 0,-1 -1,-1 -1,-2l0 -32c0,-1 0,-1 0,-2 0,0 0,0 -1,0 0,0 -1,0 -1,0 0,1 0,1 0,2l0 32c0,1 0,1 -1,2 0,0 -1,0 -1,0l-1 0c-1,0 -1,0 -2,0 0,-1 0,-1 0,-2l0 -38c0,0 0,-1 0,-1 1,-1 1,-1 2,-1l3 0c1,0 1,0 2,0 0,-1 0,-1 0,-2l0 0c0,-1 0,-2 0,-2 -1,0 -1,-1 -2,-1l-4 0c0,0 -1,0 -1,0 0,-1 -1,-1 -1,-2l0 -1c0,-1 1,-1 1,-2 0,0 1,0 1,0l4 0c1,0 1,0 2,-1 0,0 0,0 0,-1 0,0 1,0 1,-1 1,0 1,0 2,0l1 0c1,0 1,0 1,0z"/>
 </g>
</svg>
