<?xml version="1.0" encoding="UTF-8"?>
<!DOCTYPE svg PUBLIC "-//W3C//DTD SVG 1.1//EN" "http://www.w3.org/Graphics/SVG/1.1/DTD/svg11.dtd">
<!-- Creator: CorelDRAW X8 -->
<svg xmlns="http://www.w3.org/2000/svg" xml:space="preserve" width="221.481mm" height="92.3983mm" version="1.1" style="shape-rendering:geometricPrecision; text-rendering:geometricPrecision; image-rendering:optimizeQuality; fill-rule:evenodd; clip-rule:evenodd"
viewBox="0 0 489 204"
 xmlns:xlink="http://www.w3.org/1999/xlink">
 <defs>
  <style type="text/css">
   <![CDATA[
    .fil2 {fill:#FEFEFE}
    .fil0 {fill:#C2E105}
    .fil1 {fill:#FEFEFE;fill-rule:nonzero}
   ]]>
  </style>
 </defs>
 <g id="图层_x0020_1">
  <metadata id="CorelCorpID_0Corel-Layer"/>
  <path class="fil0" d="M18 0l454 0c9,0 17,7 17,16l0 172c0,9 -8,16 -17,16l-454 0c-10,0 -18,-7 -18,-16l0 -172c0,-9 8,-16 18,-16z"/>
  <path class="fil1" d="M88 130c-2,0 -4,-1 -5,-2 -1,-1 -1,-2 -1,-4l0 -79c0,-2 1,-4 2,-6 2,-1 4,-2 6,-2l16 0c14,0 25,4 33,12 8,7 11,19 11,34 0,15 -3,26 -11,34 -8,9 -19,13 -32,13l-13 0 -6 0zm8 -12l9 0c10,0 17,-3 23,-9 5,-6 7,-15 7,-26 0,-23 -10,-34 -30,-34l-9 0 0 34 0 35zm83 13c-10,0 -18,-3 -23,-10 -3,-3 -2,-6 1,-8 2,-2 3,-2 5,-2 2,1 4,2 5,4 3,2 7,4 10,4 5,0 9,-2 11,-5 2,-3 3,-7 3,-14l0 -56c0,-5 3,-7 8,-7 4,0 7,2 7,7l0 25 0 32c0,9 -2,16 -7,21 -4,6 -11,9 -20,9zm53 0c-5,0 -10,-2 -13,-5 -2,-1 -2,-3 0,-5 0,-1 2,-2 3,-2 1,-1 2,0 3,1 2,1 4,1 6,1 2,0 4,0 5,-1 2,-1 2,-2 2,-4 0,-1 0,-3 -1,-4 0,-1 -2,-1 -4,-2 -1,0 -3,0 -4,-1 -2,-1 -3,-2 -3,-3 0,-2 1,-3 3,-3 1,-1 2,-2 4,-2 2,-1 4,-3 4,-5 0,-4 -2,-5 -5,-5 -2,0 -3,0 -5,1 -1,1 -2,1 -3,1 -2,0 -3,-1 -4,-2 -1,-2 -1,-4 1,-6 4,-2 7,-3 11,-3 5,0 9,1 12,3 3,2 4,6 4,10 0,5 -2,8 -7,10l0 0c2,1 5,3 6,4 2,2 3,5 3,8 0,4 -2,7 -5,10 -4,2 -8,4 -13,4z"/>
  <path class="fil2" d="M39 67c10,0 18,8 18,17 0,10 -8,18 -18,18 -10,0 -18,-8 -18,-18 0,-9 8,-17 18,-17z"/>
  <path class="fil1" d="M267 187c0,0 0,-1 0,-1 1,-1 1,-1 2,-1l1 0c1,0 1,0 2,0 1,-1 1,-1 1,-2l11 -31c0,0 1,-1 1,-2 0,-1 0,-2 0,-2l0 -13c0,-1 0,-1 1,-1 0,-1 1,-1 1,-1l2 0c0,0 1,0 1,1 1,0 1,0 1,1l0 13c0,0 0,1 0,2 0,1 0,2 1,2l11 31c0,1 0,1 1,2 0,0 1,0 2,0l1 0c0,0 1,0 1,1 1,0 1,1 1,1l0 2c0,0 0,1 -1,1 0,1 -1,1 -1,1l-5 0c-1,0 -2,0 -2,-1 -1,0 -1,0 -1,-1l-10 -28c-1,0 -1,-1 -1,-1 0,0 -1,1 -1,1l-10 28c0,1 0,1 -1,1 -1,1 -1,1 -2,1l-5 0c-1,0 -1,0 -2,-1 0,0 0,-1 0,-1l0 -2zm79 -2c0,0 0,0 1,-1 0,0 0,0 0,-1l0 -35c0,0 0,-1 1,-1 0,-1 1,-1 1,-1l2 0c0,0 1,0 1,1 1,0 1,1 1,1l0 36c0,1 0,1 -1,2 0,1 0,1 -1,2l-1 1c-1,1 -1,1 -2,2 0,0 -1,0 -1,0 -1,0 -1,0 -2,-1 0,0 0,-1 0,-1l0 -2c0,0 0,-1 0,-1 0,-1 1,-1 1,-1zm-22 -13c0,0 1,0 1,0 1,-1 1,-1 1,-2l0 -20c0,0 0,-1 0,-1 -1,-1 -1,-1 -1,-1 -1,0 -1,0 -2,0 0,-1 -1,-1 -1,-1l-2 -2c0,0 -1,0 -1,-1 0,-1 0,-2 0,-2l0 -6c0,0 0,-1 0,-1 1,-1 1,-1 2,-1l1 0c1,0 1,0 2,1 0,0 1,1 1,1l0 4c0,1 0,1 0,2 0,0 0,0 0,0 0,0 1,0 1,0 0,-1 0,-1 0,-2l0 -5c0,-1 0,-1 1,-1 0,-1 1,-1 1,-1l2 0c0,0 1,0 1,1 1,0 1,0 1,1l0 5c0,1 0,1 0,2 1,0 1,0 1,0 1,0 1,0 2,1 0,0 0,1 0,1l0 2c0,0 0,1 0,1 -1,1 -1,1 -2,1 0,0 0,0 -1,1 0,0 0,1 0,1l0 20c0,1 0,1 0,2 1,0 1,0 1,0 1,0 1,0 2,1 0,0 0,1 0,1l0 2c0,0 0,1 0,1 -1,1 -1,1 -2,1 0,0 0,0 -1,1 0,0 0,1 0,1l0 9c0,0 0,1 -1,1 0,1 -1,1 -1,1l-2 0c0,0 -1,0 -1,-1 -1,0 -1,-1 -1,-1l0 -9c0,0 0,-1 -1,-1 0,-1 -1,-1 -1,-1l-3 0c-1,0 -1,0 -2,-1 0,0 0,-1 0,-1l0 -2c0,0 0,-1 0,-1 1,-1 1,-1 2,-1l3 0zm20 12c0,1 0,1 -1,2 0,1 0,1 -1,2l-2 1c0,1 0,1 -1,2 -1,0 -1,0 -2,0 0,0 -1,0 -1,-1 0,0 0,-1 0,-1l0 -2c0,0 0,-1 0,-1 0,-1 0,-1 1,-1 0,0 0,0 1,-1 0,0 0,0 0,-1l0 -35c0,0 0,-1 0,-1 1,-1 1,-1 2,-1l2 0c0,0 1,0 1,1 1,0 1,1 1,1l0 36zm13 7c0,0 -1,0 -1,-1 -1,0 -1,-1 -1,-1l0 -46c0,-1 0,-1 -1,-1 0,-1 -1,-1 -1,-1l-10 0c0,0 -1,0 -2,-1 -1,0 -1,0 -2,-1l-1 -1c-1,-1 -1,-1 -1,-2 -1,0 -1,-1 -1,-1 0,-1 0,-1 1,-2 0,0 1,0 1,0l2 0c0,0 1,0 1,0 1,0 1,1 1,1 0,0 0,0 1,1 0,0 1,0 1,0l15 0c0,0 1,0 1,1 1,0 1,1 1,1l0 52c0,0 0,1 -1,1 0,1 -1,1 -1,1l-2 0zm14 -4c0,0 0,-1 0,-1 0,-1 1,-1 1,-1 0,0 1,0 1,0 0,-1 0,-1 0,-2l0 -1c0,-1 1,-1 1,-2 0,0 1,0 2,0l1 0c1,0 1,0 2,0 0,1 0,1 0,2l0 2c0,1 0,1 0,2 -1,1 -1,1 -1,2l-2 1c0,1 -1,1 -2,2 0,0 -1,0 -1,0 -1,0 -2,0 -2,-1 0,0 0,-1 0,-1l0 -2zm36 -7c1,0 1,0 2,0 0,1 1,1 1,2l0 1c0,1 0,1 0,2 0,0 1,0 1,0 0,0 1,0 1,1 0,0 0,1 0,1l0 2c0,0 0,1 0,1 -1,1 -1,1 -2,1 0,0 -1,0 -2,0 0,-1 -1,-1 -1,-2l-2 -1c0,-1 -1,-1 -1,-2 0,-1 0,-1 0,-2l0 -2c0,-1 0,-1 0,-2 1,0 1,0 2,0l1 0zm-36 -6c0,0 0,-1 0,-2 0,-1 0,-1 1,-2l1 0c0,-1 0,-1 0,-2 0,0 0,0 -1,0 0,0 -1,0 -1,-1 0,0 0,0 0,0l0 -3c0,0 0,-1 0,-2 0,0 1,-1 1,-1l0 -1c0,0 0,0 0,-1 0,0 0,0 0,0 0,0 -1,-1 -1,-1 0,0 0,-1 0,-1l0 -2c0,0 0,-1 0,-1 1,-1 1,-1 2,-1l13 0c1,0 1,0 2,-1 0,0 0,0 0,-1 0,0 0,0 0,-1 -1,0 -1,0 -2,0l-13 0c-1,0 -1,0 -2,-1 0,0 0,-1 0,-1l0 -2c0,0 0,-1 0,-1 1,-1 1,-1 2,-1l13 0c1,0 1,0 2,0 0,-1 0,-1 0,-1 0,-1 0,-1 0,-2 -1,0 -1,0 -2,0l-13 0c-1,0 -1,0 -2,-1 0,0 0,-1 0,-1l0 -2c0,0 0,-1 0,-1 1,-1 1,-1 2,-1l13 0c1,0 1,0 2,0 0,0 0,-1 0,-1 0,0 1,-1 1,-1 1,0 1,0 2,0l1 0c1,0 1,0 2,0 0,0 0,1 0,1 0,0 1,1 1,1 0,0 1,0 2,0l13 0c1,0 1,0 2,1 0,0 0,1 0,1l0 2c0,0 0,1 0,1 -1,1 -1,1 -2,1l-13 0c-1,0 -2,0 -2,0 0,1 -1,1 -1,2 0,0 1,0 1,1 0,0 1,0 2,0l13 0c1,0 1,0 2,1 0,0 0,1 0,1l0 2c0,0 0,1 0,1 -1,1 -1,1 -2,1l-13 0c-1,0 -2,0 -2,0 0,1 -1,1 -1,1 0,1 1,1 1,1 0,1 1,1 2,1l13 0c1,0 1,0 2,1 0,0 0,1 0,1l0 2c0,0 0,1 0,1 -1,0 -1,1 -2,1l-28 0c-1,0 -2,0 -2,0 -1,1 -2,1 -2,1l0 1c0,0 -1,0 0,1 0,0 0,0 1,0l31 0c1,0 1,0 2,1 0,0 0,1 0,1l0 2c0,0 0,1 0,1 -1,1 -1,1 -2,1l-28 0c0,0 -1,0 -2,0 0,1 -1,1 -1,1l-1 1c0,1 -1,1 0,2 0,0 0,0 1,0l25 0c1,0 2,0 2,0 0,0 1,-1 1,-1 0,-1 0,-1 0,-1 1,0 1,-1 2,-1l1 0c1,0 1,1 2,1 0,0 0,1 0,1 0,1 0,1 0,2 0,1 -1,1 -1,2l-2 1c0,0 -1,1 -1,1 -1,0 -2,0 -2,0l-9 0c0,0 -1,1 -1,1 -1,0 -1,1 -1,2l0 4c0,1 0,1 0,2 -1,1 -1,1 -1,2l-2 1c0,1 -1,1 -2,2 -1,0 -1,0 -2,0l-3 0c0,0 -1,0 -1,-1 -1,0 -1,-1 -1,-1l0 -2c0,0 0,-1 1,-1 0,-1 1,-1 1,-1l2 0c1,0 1,0 2,-1 0,0 0,0 0,-1l0 -3c0,-1 0,-2 0,-2 -1,0 -1,-1 -2,-1l-14 0c-1,0 -1,0 -2,0 0,-1 0,-1 0,-2l0 -1zm80 -28c1,0 1,1 1,1 1,1 1,1 1,2l-5 40c0,0 0,1 -1,1 0,1 -1,1 -1,1l-3 0c0,0 -1,0 -1,-1 -1,0 -1,-1 -1,-1l0 -2c0,0 0,-1 0,-1 0,-1 1,-1 1,-1 0,0 1,0 1,-1 0,0 0,0 0,-1l4 -34c0,-1 0,-1 1,-2 0,0 1,-1 1,-1l2 0zm12 -10c0,1 0,1 0,2 0,0 0,0 1,0 0,0 0,0 0,1 0,0 0,1 0,1l0 2c0,0 0,1 0,1 0,1 0,1 0,1 -1,0 -1,0 -1,1 0,0 0,1 0,1l0 43c0,0 -1,1 -1,1 -1,1 -1,1 -2,1l-7 0c-1,0 -1,0 -1,-1 -1,0 -1,-1 -1,-1l0 -2c0,0 0,-1 0,-1 1,-1 1,-1 2,-1l1 0c1,0 2,0 2,-1 0,0 1,0 1,-1l0 -37c0,0 -1,-1 -1,-1 0,-1 -1,-1 -2,-1l-11 0c-1,0 -1,0 -2,-1 0,0 0,-1 0,-1l0 -2c0,0 0,-1 0,-1 1,-1 1,-1 2,-1l11 0c1,0 2,0 2,0 0,-1 1,-1 1,-2l0 -1c0,0 0,-1 0,-1 1,-1 1,-1 2,-1l1 0c1,0 1,0 2,1 0,0 1,1 1,1l0 1zm-27 -3c0,1 1,1 1,2 0,0 0,0 0,1 0,0 0,0 1,0 0,0 0,0 1,1 0,0 0,1 0,1l0 2c0,0 0,1 0,1 -1,1 -1,1 -1,1 -1,0 -1,0 -1,1 0,0 0,1 0,1l0 1c0,0 0,1 0,1 0,1 0,1 1,1 0,0 0,0 1,1 0,0 0,1 0,1l0 2c0,0 0,1 0,1 -1,1 -1,1 -1,1 -1,0 -1,0 -1,1 0,0 0,0 0,1l0 34c0,0 -1,1 -1,1 0,1 -1,1 -2,1l-1 0c-1,0 -1,0 -2,-1 0,0 0,-1 0,-1l0 -34c0,-1 0,-1 -1,-1 0,-1 0,-1 -1,-1 0,0 0,0 -1,1 0,0 0,0 0,1l0 34c0,0 0,1 -1,1 0,1 -1,1 -1,1l-1 0c-1,0 -1,0 -2,-1 0,0 0,-1 0,-1l0 -40c0,0 0,-1 0,-1 1,-1 1,-1 2,-1l4 0c0,0 1,0 1,-1 1,0 1,-1 1,-1l0 -1c0,0 0,-1 -1,-1 0,-1 -1,-1 -1,-1l-4 0c-1,0 -2,0 -2,-1 0,0 -1,-1 -1,-1l0 -2c0,0 1,-1 1,-1 0,-1 1,-1 2,-1l4 0c0,0 1,0 1,0 1,-1 1,-1 1,-1 0,-1 0,-1 0,-2 1,0 1,0 2,0l1 0c1,0 2,0 2,0z"/>
 </g>
</svg>
