<?xml version="1.0" encoding="UTF-8"?>
<!DOCTYPE svg PUBLIC "-//W3C//DTD SVG 1.1//EN" "http://www.w3.org/Graphics/SVG/1.1/DTD/svg11.dtd">
<!-- Creator: CorelDRAW X8 -->
<svg xmlns="http://www.w3.org/2000/svg" xml:space="preserve" width="157.684mm" height="250.823mm" version="1.1" style="shape-rendering:geometricPrecision; text-rendering:geometricPrecision; image-rendering:optimizeQuality; fill-rule:evenodd; clip-rule:evenodd"
viewBox="0 0 130 207"
 xmlns:xlink="http://www.w3.org/1999/xlink">
 <defs>
  <style type="text/css">
   <![CDATA[
    .fil0 {fill:#E13F4F}
    .fil1 {fill:#FEFEFE;fill-rule:nonzero}
   ]]>
  </style>
 </defs>
 <g id="图层_x0020_1">
  <metadata id="CorelCorpID_0Corel-Layer"/>
  <path class="fil0" d="M10 0l110 0c5,0 10,5 10,10l0 186c0,6 -5,11 -10,11l-110 0c-5,0 -10,-5 -10,-11l0 -186c0,-5 5,-10 10,-10z"/>
  <path class="fil1" d="M61 161c0,1 0,1 0,1 0,0 -1,0 -1,0 0,0 0,1 0,1l0 0c0,1 0,1 0,2 0,0 1,0 1,0 0,0 0,0 0,1 1,0 1,0 1,1l0 1c0,0 0,1 -1,1 0,0 0,0 -1,0l-27 0c-1,0 -1,0 -2,0 0,0 0,-1 0,-1l0 -1c0,-1 0,-1 0,-1 0,-1 1,-1 1,-1 0,0 0,0 0,0 1,-1 1,-1 1,-2l0 0c0,0 0,-1 -1,-1 0,0 0,0 0,0 0,0 -1,0 -1,-1 0,0 0,0 0,-1l0 -1c0,0 0,-1 0,-1 0,0 1,-1 1,-1 0,0 0,0 0,0 1,0 1,-1 1,-1 0,0 0,-1 0,-1 0,0 1,0 1,0l1 0c1,0 1,0 1,0 1,0 1,1 1,1 0,0 0,1 0,1 1,0 1,0 2,0l0 0c0,0 1,0 1,0 0,0 0,-1 0,-1 0,0 1,-1 1,-1 0,0 0,0 1,0l1 0c0,0 1,0 1,0 0,0 1,1 1,1 0,0 0,1 0,1 0,0 1,0 1,0l0 0c1,0 1,0 2,0 0,0 0,-1 0,-1 0,0 0,-1 1,-1 0,0 0,0 1,0l1 0c0,0 1,0 1,0 0,0 0,1 0,1 0,0 0,1 1,1 0,0 0,0 1,0l0 0c1,0 1,0 1,0 1,0 1,-1 1,-1 0,0 0,-1 0,-1 1,0 1,0 1,0l1 0c1,0 1,0 1,0 1,0 1,1 1,1 0,0 0,1 0,1 0,0 1,0 1,0 0,0 0,1 0,1 1,0 1,1 1,1l0 1c0,1 0,1 -1,1zm0 15c0,1 0,1 0,1 0,0 -1,0 -1,0 0,0 0,1 0,1l0 4c0,1 0,1 0,1 0,1 1,1 1,1 0,0 0,0 0,0 1,0 1,1 1,1l0 1c0,1 0,1 -1,1 0,1 0,1 0,1 0,0 -1,0 -1,0 0,0 0,1 0,1 0,0 0,0 -1,0 0,1 0,1 -1,1l-1 0c0,0 0,0 -1,-1 0,0 0,0 0,0 0,0 0,-1 -1,-1 0,0 0,0 -1,0l-5 0c-1,0 -1,0 -1,-1 -1,0 -1,0 -1,-1l0 -1c0,0 0,-1 0,-1 1,0 1,0 1,0 0,0 0,0 0,-1 0,0 0,0 0,-1l0 -9c0,0 1,0 1,0 0,-1 1,-1 1,-1l4 0c1,0 1,0 1,0 1,0 1,0 1,0 0,-1 0,-1 0,-1 1,0 1,0 1,0l1 0c1,0 1,0 1,0 1,0 1,0 1,1 0,0 0,0 0,0 0,0 1,0 1,0 0,0 0,1 0,1 1,0 1,1 1,1l0 1c0,1 0,1 -1,1zm-17 13c0,0 -1,0 -1,0 -1,1 -1,1 -2,1l-8 0c-1,0 -1,0 -2,-1 0,0 0,0 0,-1l0 -1c0,0 0,-1 0,-1 1,0 1,-1 2,-1l7 0c1,0 1,0 2,0 0,0 0,0 0,0 0,-1 0,-1 0,-1 -1,0 -1,-1 -2,-1l-4 1c0,0 -1,-1 -1,-1 -1,0 -1,0 -2,0l-1 -1c0,-1 0,-1 -1,-1 0,-1 0,-1 0,-2 0,0 0,0 0,0 1,-1 1,-1 2,-1l1 0c0,0 0,0 1,0 0,1 0,1 0,1 0,0 0,0 1,1 0,0 0,0 1,0l3 0c1,0 1,0 2,-1 0,0 0,0 0,-1 0,0 0,-1 0,-1 -1,0 -1,-1 -2,-1l-4 0c0,0 -1,0 -1,0 -1,0 -1,0 -2,-1l-1 -1c0,0 0,-1 -1,-1 0,0 0,-1 0,-1 0,0 0,-1 0,-1 1,0 1,0 2,0l1 0c0,0 0,0 1,0 0,0 0,0 0,0 0,1 0,1 1,1 0,0 0,0 1,0l8 0c0,0 1,0 1,1 0,0 0,0 0,1l0 11c0,0 0,1 0,1 0,1 0,1 -1,1l-1 2zm18 -37c0,0 -1,1 -1,1 0,0 -1,1 -1,1l-24 0c0,0 -1,0 -1,-1 -1,0 -1,0 -2,0l-1 -1c0,-1 0,-1 -1,-2 0,0 0,0 0,-1 0,0 0,-1 0,-1 1,0 1,0 2,0l1 0c0,0 0,0 1,0 0,0 0,0 0,1 0,0 0,0 1,0 0,0 0,0 1,0l23 0c0,0 1,0 1,1 0,0 1,0 1,1l0 1zm-6 26c0,0 0,-1 -1,-1 0,0 0,0 -1,0 0,0 -1,0 -1,0 0,0 0,1 0,1l0 4c0,1 0,1 0,1 0,1 1,1 1,1 1,0 1,0 1,-1 1,0 1,0 1,-1l0 -4zm-10 -16c0,0 -1,0 -1,0 0,0 0,1 0,1l0 0c0,1 0,1 0,2 0,0 1,0 1,0l0 0c1,0 1,0 2,0 0,-1 0,-1 0,-2l0 0c0,0 0,-1 0,-1 -1,0 -1,0 -2,0l0 0zm10 1c0,0 -1,-1 -1,-1 0,0 0,0 -1,0l0 0c-1,0 -1,0 -1,0 -1,0 -1,1 -1,1l0 0c0,1 0,1 1,2 0,0 0,0 1,0l0 0c1,0 1,0 1,0 0,-1 1,-1 1,-2l0 0zm-19 0c0,1 0,1 0,2 1,0 1,0 2,0l0 0c0,0 1,0 1,0 0,-1 0,-1 0,-2l0 0c0,0 0,-1 0,-1 0,0 -1,0 -1,0l0 0c-1,0 -1,0 -2,0 0,0 0,1 0,1l0 0zm60 26c-1,0 -1,0 -2,0 0,1 -1,1 -1,1l-24 0c0,0 -1,0 -1,0 0,-1 0,-1 0,-1l0 -36c0,-1 0,-1 0,-1 0,0 1,-1 1,-1l5 0c1,0 1,0 2,0 0,0 0,-1 0,-1l0 -1c0,0 0,-1 1,-1 0,0 0,0 1,0l1 0c0,0 0,0 1,0 0,0 0,1 0,1l0 1c0,0 0,1 1,1 0,0 0,0 1,0l1 0c1,0 1,0 2,0 0,0 0,-1 0,-1l0 -1c0,0 0,-1 0,-1 1,0 1,0 2,0l1 0c0,0 0,0 1,0 0,0 0,1 0,1l0 1c0,0 0,1 1,1 0,0 0,0 1,0l5 0c1,0 1,1 1,1 1,0 1,1 1,1l0 32c0,0 0,1 0,1 -1,1 -1,1 -1,1l-1 2zm-14 -16c-1,0 -1,0 -1,0 -1,0 -1,1 -1,1l0 10c0,0 0,1 1,1 0,0 0,0 1,0l1 0c1,0 1,0 2,0 0,0 0,-1 0,-1l0 -10c0,0 0,-1 0,-1 -1,0 -1,0 -2,0l-1 0zm0 -17c-1,0 -1,0 -1,0 -1,0 -1,1 -1,1l0 10c0,0 0,1 1,1 0,0 0,0 1,0l1 0c1,0 1,0 2,0 0,0 0,-1 0,-1l0 -10c0,0 0,-1 0,-1 -1,0 -1,0 -2,0l-1 0zm10 29c0,0 1,0 1,0 0,0 1,-1 1,-1l0 -10c0,0 -1,-1 -1,-1 0,0 -1,0 -1,0l-1 0c-1,0 -1,0 -1,0 -1,0 -1,1 -1,1l0 10c0,0 0,1 1,1 0,0 0,0 1,0l1 0zm-1 -29c-1,0 -1,0 -1,0 -1,0 -1,1 -1,1l0 10c0,0 0,1 1,1 0,0 0,0 1,0l1 0c0,0 1,0 1,0 0,0 1,-1 1,-1l0 -10c0,0 -1,-1 -1,-1 0,0 -1,0 -1,0l-1 0zm-19 28c0,0 0,1 0,1 1,0 1,0 1,0l1 0c1,0 1,0 2,0 0,0 0,-1 0,-1l0 -10c0,0 0,-1 0,-1 -1,0 -1,0 -2,0l-1 0c0,0 0,0 -1,0 0,0 0,1 0,1l0 10zm1 -28c0,0 0,0 -1,0 0,0 0,1 0,1l0 10c0,0 0,1 0,1 1,0 1,0 1,0l1 0c1,0 1,0 2,0 0,0 0,-1 0,-1l0 -10c0,0 0,-1 0,-1 -1,0 -1,0 -2,0l-1 0z"/>
  <path class="fil1" d="M19 113c0,0 -1,0 -1,-1 0,0 0,0 0,-1l0 -19c0,-1 0,-1 0,-1 0,-1 1,-1 2,-1l4 0c3,0 6,1 8,3 2,2 3,5 3,8 0,4 -1,7 -3,9 -2,2 -5,3 -8,3l-3 0 -2 0zm3 -4l2 0c4,0 6,-3 6,-8 0,-5 -2,-7 -6,-7l-2 0 0 7 0 8zm21 4c-1,0 -2,-1 -2,-3l0 -18c0,-1 1,-2 2,-2 2,0 2,1 2,2l0 9 0 9c0,2 0,3 -2,3zm16 0c-2,0 -5,-1 -7,-2 -1,-1 -1,-2 0,-3 1,-1 2,-1 3,0 2,1 3,1 4,1 1,0 2,0 3,0 0,-1 1,-2 1,-2 0,-1 0,-2 -1,-2 0,-1 -1,-1 -2,-1 0,0 -1,0 -1,0l-3 -2c-3,-1 -4,-3 -4,-6 0,-2 1,-3 2,-5 1,-1 3,-1 6,-1 2,0 4,0 5,1 1,1 1,2 1,3 -1,1 -2,1 -3,0 -1,0 -2,-1 -3,-1 -1,0 -2,1 -3,1 0,1 -1,1 -1,2 0,1 1,1 1,2 1,0 2,0 3,1 0,0 0,0 0,0l3 1c1,1 2,1 3,2 1,1 1,3 1,4 0,2 0,4 -2,5 -1,1 -3,2 -6,2zm23 0c-3,0 -5,-1 -7,-3 -2,-2 -3,-5 -3,-9 0,-3 1,-6 3,-8 2,-2 4,-3 7,-3 2,0 4,0 6,1 0,1 1,2 0,3 -1,1 -2,1 -3,0 -1,0 -2,-1 -3,-1 -1,0 -3,1 -4,3 -1,1 -2,3 -2,5 0,3 1,5 2,6 1,1 2,2 4,2 1,0 2,0 3,-1 1,-1 2,-1 3,0 1,1 1,2 0,3 -2,1 -4,2 -6,2zm20 0c-3,0 -5,-1 -7,-3 -2,-2 -3,-5 -3,-9 0,-3 1,-6 3,-8 2,-2 4,-3 7,-3 3,0 6,1 7,3 2,2 3,5 3,8 0,4 -1,7 -3,9 -1,2 -4,3 -7,3zm0 -4c2,0 3,-1 4,-2 1,-1 2,-3 2,-6 0,-2 -1,-4 -2,-5 -1,-2 -2,-3 -4,-3 -2,0 -3,1 -4,3 -1,1 -1,3 -1,5 0,3 0,5 1,6 1,1 2,2 4,2z"/>
  <path class="fil1" d="M43 57c0,0 -1,0 -1,0 -1,-1 -1,-1 -1,-2l0 -28c0,-1 1,-2 1,-2 1,-1 1,-1 2,-1l6 0c5,0 9,2 12,4 2,3 4,7 4,12 0,6 -2,10 -4,13 -3,3 -7,4 -12,4l-4 0 -3 0zm4 -4l3 0c3,0 6,-1 8,-3 1,-2 2,-5 2,-10 0,-8 -3,-12 -10,-12l-3 0 0 13 0 12zm32 5c-4,0 -6,-1 -8,-4 -1,-1 -1,-2 0,-3 1,0 1,-1 2,0 1,0 1,0 2,1 1,1 2,1 3,1 2,0 3,0 4,-1 1,-1 1,-3 1,-5l0 -20c0,-2 1,-3 3,-3 2,0 3,1 3,3l0 9 0 11c0,3 -1,6 -3,8 -1,2 -4,3 -7,3z"/>
 </g>
</svg>
