<?xml version="1.0" encoding="UTF-8"?>
<!DOCTYPE svg PUBLIC "-//W3C//DTD SVG 1.1//EN" "http://www.w3.org/Graphics/SVG/1.1/DTD/svg11.dtd">
<!-- Creator: CorelDRAW X8 -->
<svg xmlns="http://www.w3.org/2000/svg" xml:space="preserve" width="158.26mm" height="251.272mm" version="1.1" style="shape-rendering:geometricPrecision; text-rendering:geometricPrecision; image-rendering:optimizeQuality; fill-rule:evenodd; clip-rule:evenodd"
viewBox="0 0 135 215"
 xmlns:xlink="http://www.w3.org/1999/xlink">
 <defs>
  <style type="text/css">
   <![CDATA[
    .fil0 {fill:#C2E105}
    .fil1 {fill:#FEFEFE;fill-rule:nonzero}
   ]]>
  </style>
 </defs>
 <g id="图层_x0020_1">
  <metadata id="CorelCorpID_0Corel-Layer"/>
  <path class="fil0" d="M11 0l114 0c6,0 10,5 10,11l0 194c0,5 -4,10 -10,10l-114 0c-6,0 -11,-5 -11,-10l0 -194c0,-6 5,-11 11,-11z"/>
  <path class="fil1" d="M40 103c-1,0 -2,-1 -2,-1 0,0 -1,-1 -1,-2l0 -35c0,-2 1,-2 1,-3 1,-1 2,-1 3,-1l7 0c7,0 12,2 15,5 4,4 5,9 5,16 0,6 -1,12 -5,15 -3,4 -8,6 -15,6l-5 0 -3 0zm4 -6l4 0c4,0 8,-1 10,-4 2,-2 4,-6 4,-11 0,-11 -5,-16 -14,-16l-4 0 0 16 0 15zm41 6c-4,0 -8,-1 -10,-4 -2,-2 -1,-3 0,-4 1,-1 2,-1 3,-1 0,1 1,1 2,2 1,1 3,2 4,2 2,0 4,-1 5,-2 1,-2 2,-4 2,-7l0 -25c0,-2 1,-3 3,-3 2,0 3,1 3,3l0 11 0 15c0,4 -1,7 -3,9 -2,3 -5,4 -9,4z"/>
  <path class="fil1" d="M52 124c0,0 -1,0 -1,0 0,0 -1,1 -1,1l0 3c0,0 1,1 1,1 0,0 1,0 1,0l2 0c0,0 1,1 1,1 0,0 1,0 1,1l2 6c0,1 0,1 0,1 0,1 1,1 1,1 0,0 0,0 0,-1 0,0 1,0 1,-1l0 -9c0,-1 0,-1 0,-1 0,-1 1,-1 1,-1l1 0c1,0 1,0 2,1 0,0 0,0 0,1l0 10c0,0 0,1 0,1 -1,1 -1,1 -1,2l-1 1c-1,0 -1,1 -1,1 -1,0 -1,0 -1,0 0,0 0,0 -1,1 0,0 0,0 1,1l0 2c0,1 1,1 1,1 0,1 1,1 1,1 1,0 1,0 2,0 0,1 0,1 0,2l0 1c0,0 0,0 0,1 -1,0 -1,0 -2,0l-3 0c-1,0 -1,0 -1,0 -1,-1 -1,-1 -1,-1l-5 -16c0,-1 0,-1 0,-2 0,0 -1,0 -1,0 0,0 0,0 0,0 -1,1 -1,1 -1,2l0 11c0,1 1,1 1,1 0,1 1,1 1,1l0 0c1,0 1,0 2,0 0,1 0,1 0,2l0 1c0,0 0,0 0,1 -1,0 -1,0 -2,0l-1 0c0,0 -1,0 -1,0 -1,0 -1,-1 -2,-1l-1 -1c0,0 0,-1 0,-1 -1,-1 -1,-1 -1,-2l0 -28c0,0 0,-1 1,-1 0,0 1,0 1,0l10 0c0,0 1,0 1,0 0,0 1,-1 1,-1 0,0 0,-1 0,-1 0,0 1,0 1,0l1 0c1,0 1,0 2,0 0,1 0,1 0,1 0,1 0,1 0,2 -1,0 -1,1 -1,1l-1 1c-1,1 -1,1 -2,1 0,0 -1,1 -1,1l-7 0zm8 -13c0,-1 0,-1 0,-1 0,0 1,-1 1,-1l1 0c1,0 1,1 2,1 0,0 0,0 0,1 0,0 0,1 0,1 -1,1 -1,1 -1,2l-1 1c-1,0 -1,0 -2,1 0,0 -1,0 -1,0l-12 0c-1,0 -1,0 -1,1 -1,0 -1,0 -1,1l0 30c0,1 0,1 0,2 0,0 -1,1 -1,1l-1 1c0,0 -1,1 -1,1 -1,0 -1,0 -1,0 -1,0 -1,0 -1,0 -1,-1 -1,-1 -1,-1l0 -1c0,-1 0,-1 1,-2 0,0 0,0 0,0 0,0 0,0 1,-1 0,0 0,0 0,-1l0 -34c0,0 0,-1 0,-1 0,0 0,0 0,0l17 0c0,0 1,-1 1,-1 0,0 1,0 1,0zm-28 40c0,-1 0,-1 0,-2 0,0 1,0 1,0 0,0 0,0 0,-1 0,0 0,0 0,-1l0 -18c0,0 1,-1 1,-1 0,0 1,0 1,0l1 0c1,0 1,0 1,0 1,0 1,1 1,1l0 19c0,1 0,1 -1,2 0,0 0,1 0,1l-2 1c0,0 0,1 -1,1 0,0 -1,0 -1,0 0,0 0,0 -1,0 0,-1 0,-1 0,-1l0 -1zm2 -31c1,0 1,-1 2,-1 0,0 0,1 1,1l1 1c0,0 0,0 0,1 0,0 0,1 0,1l-1 1c-1,0 -1,0 -1,0 -1,0 -1,0 -2,0l0 -1c-1,0 -1,-1 -1,-1 0,-1 0,-1 1,-1l0 -1zm0 -9c1,-1 1,-1 2,-1 0,0 0,0 1,1l1 1c0,0 0,0 0,1 0,0 0,1 0,1l-1 1c-1,0 -1,0 -1,0 -1,0 -1,0 -2,0l0 -1c-1,0 -1,-1 -1,-1 0,-1 0,-1 1,-1l0 -1zm50 26c0,1 0,1 0,2 0,0 -1,1 -1,1l-2 4c0,0 0,1 0,1 0,1 0,1 0,2l0 0c1,1 1,1 1,1 1,1 1,1 1,1 0,0 1,0 1,0 0,1 0,1 0,2l0 1c0,0 0,0 0,1 -1,0 -1,0 -2,0l-1 0c0,0 -1,0 -1,0 -1,0 -1,-1 -1,-1l-1 -1c0,0 0,0 0,0 -1,0 -1,0 -1,0l-1 1c0,0 0,1 -1,1 0,0 -1,0 -1,0l-1 0c-1,0 -1,0 -1,0 -1,-1 -1,-1 -1,-1l0 -1c0,-1 0,-1 0,-2 1,0 1,0 1,0 0,0 1,0 1,-1 0,0 0,0 1,-1l0 0c0,-1 0,-1 0,-2 0,0 0,-1 0,-1l-2 -4c0,0 0,-1 -1,-1 0,-1 0,-1 0,-2l0 -18c0,-1 0,-1 1,-2 0,0 0,0 1,0l1 0c0,0 1,0 1,0 1,1 1,1 1,2l0 17c0,0 0,1 0,1 0,1 0,2 0,2l1 0c0,1 0,1 1,1 0,0 0,0 0,-1l1 0c0,0 0,-1 0,-2 1,0 1,-1 1,-1l0 -20c0,-1 -1,-1 -1,-2 0,0 -1,0 -1,0l-5 0c-1,0 -1,0 -1,-1 -1,0 -1,0 -1,-1l0 -1c0,0 0,-1 1,-1 0,0 0,-1 1,-1l9 0c1,0 1,1 2,1 0,0 0,1 0,1l0 26zm1 -23c0,0 0,-1 1,-1 0,-1 0,-1 1,-1l8 0c1,0 1,0 1,0 1,0 1,-1 1,-1 0,-1 0,-1 0,-1 1,0 1,-1 1,-1l1 0c1,0 1,1 2,1 0,0 0,0 0,1 0,0 0,1 0,1 0,0 1,0 1,0 0,0 0,0 0,1 0,0 0,1 0,1l0 1c0,0 0,1 0,1 0,1 0,1 0,1 0,0 -1,0 -1,0 0,1 0,1 0,1l0 34c0,0 0,0 0,1 -1,0 -1,0 -2,0l-8 0c0,0 -1,0 -1,0 -1,-1 -1,-1 -1,-1l0 -2c0,0 0,0 1,-1 0,0 1,0 1,0l4 0c1,0 1,0 1,-1 1,0 1,0 1,-1l0 -29c0,0 0,0 -1,-1 0,0 0,0 -1,0l-8 0c-1,0 -1,0 -1,-1 -1,0 -1,0 -1,-1l0 -1zm5 6c1,0 1,1 1,1 1,0 1,1 1,1l0 17c0,0 0,0 0,1 0,0 1,0 1,0 0,0 1,0 1,1 0,0 0,0 0,1l0 1c0,0 0,1 0,1 0,0 -1,1 -1,1l-4 0c0,0 -1,-1 -1,-1 0,0 -1,-1 -1,-1l0 -21c0,0 1,-1 1,-1 0,0 1,-1 1,-1l1 0z"/>
 </g>
</svg>
