<?xml version="1.0" encoding="UTF-8"?>
<!DOCTYPE svg PUBLIC "-//W3C//DTD SVG 1.1//EN" "http://www.w3.org/Graphics/SVG/1.1/DTD/svg11.dtd">
<!-- Creator: CorelDRAW X8 -->
<svg xmlns="http://www.w3.org/2000/svg" xml:space="preserve" width="96.9823mm" height="32.9751mm" version="1.1" style="shape-rendering:geometricPrecision; text-rendering:geometricPrecision; image-rendering:optimizeQuality; fill-rule:evenodd; clip-rule:evenodd"
viewBox="0 0 47 16"
 xmlns:xlink="http://www.w3.org/1999/xlink"
 t="1652324013507"
 p-id="3515">
 <defs>
  <style type="text/css">
   <![CDATA[
    .str0 {stroke:#332C2B;stroke-width:0.0970981}
    .fil1 {fill:#FEFEFE}
    .fil0 {fill:#9B72F4}
   ]]>
  </style>
 </defs>
 <g id="图层_x0020_1">
  <metadata id="CorelCorpID_0Corel-Layer"/>
  <path class="fil0 str0" d="M44 0l-41 0c-2,0 -3,1 -3,3l0 10c0,2 1,3 3,3l41 0c2,0 3,-1 3,-3l0 -10c0,-2 -1,-3 -3,-3z"/>
  <g id="_1931432024656">
   <path class="fil1" d="M28 12l-9 0c0,0 0,1 0,1 0,0 0,0 0,0l9 0c0,0 1,0 1,0 0,0 -1,-1 -1,-1zm-7 -2c0,0 0,0 1,0 0,0 0,0 0,-1 0,0 0,0 0,0 -1,0 -1,0 -1,0 -1,0 -2,-1 -2,-2 0,0 0,-1 1,-1 0,0 0,-1 1,-1l0 0c0,0 0,0 0,0 0,0 0,0 0,0 1,-1 2,-1 3,-1 1,0 2,0 2,2 0,0 0,0 0,0 0,0 0,0 0,0 1,0 2,1 2,2 0,1 -1,1 -2,1 0,0 0,0 0,0 0,0 -1,0 -1,0 0,1 0,1 1,1 0,0 0,0 0,0 2,0 3,-1 3,-2 0,-2 -1,-3 -3,-3 0,-1 -1,-2 -2,-2 -2,0 -3,1 -3,2 -1,0 -1,0 -2,1 0,0 -1,1 -1,1 0,2 2,3 3,3l0 0z" p-id="3516"/>
   <path class="fil1" d="M24 8c-1,0 -1,0 -1,0l0 3 0 -1c0,0 -1,0 -1,0 0,0 0,1 0,1l1 1c0,0 0,0 1,0 0,0 0,0 0,0l1 -1c0,0 0,-1 0,-1 0,0 0,0 -1,0l0 1 0 -3c0,0 0,0 0,0z" p-id="3517"/>
  </g>
 </g>
</svg>
