<?xml version="1.0" encoding="UTF-8"?>
<!DOCTYPE svg PUBLIC "-//W3C//DTD SVG 1.1//EN" "http://www.w3.org/Graphics/SVG/1.1/DTD/svg11.dtd">
<!-- Creator: CorelDRAW X8 -->
<svg xmlns="http://www.w3.org/2000/svg" xml:space="preserve" width="221.481mm" height="92.3983mm" version="1.1" style="shape-rendering:geometricPrecision; text-rendering:geometricPrecision; image-rendering:optimizeQuality; fill-rule:evenodd; clip-rule:evenodd"
viewBox="0 0 247 103"
 xmlns:xlink="http://www.w3.org/1999/xlink">
 <defs>
  <style type="text/css">
   <![CDATA[
    .fil0 {fill:#FEB079}
    .fil1 {fill:#FEFEFE;fill-rule:nonzero}
   ]]>
  </style>
 </defs>
 <g id="图层_x0020_1">
  <metadata id="CorelCorpID_0Corel-Layer"/>
  <path class="fil0" d="M9 0l229 0c5,0 9,4 9,8l0 87c0,5 -4,8 -9,8l-229 0c-5,0 -9,-3 -9,-8l0 -87c0,-4 4,-8 9,-8z"/>
  <path class="fil1" d="M98 28c0,-1 1,-1 1,-2 0,0 1,-1 2,-1l2 0c1,0 2,0 2,0 1,0 1,-1 1,-1 0,-1 0,-1 0,-2 1,0 1,0 2,0l1 0c1,0 1,0 2,0 0,1 0,1 0,2 0,0 0,1 1,1 0,0 1,0 1,0l3 0c1,0 1,1 2,1 0,1 0,1 0,2l0 1c0,1 0,1 0,2 -1,0 -1,0 -2,0l-3 0c0,0 -1,1 -1,1 -1,1 -1,1 -1,2l0 17c0,1 0,1 0,1 -1,1 -1,1 -2,1l-1 0c-1,0 -1,0 -2,-1 0,0 0,0 0,-1l0 -17c0,-1 0,-1 -1,-2 0,0 -1,-1 -2,-1l-2 0c-1,0 -2,0 -2,0 0,-1 -1,-1 -1,-2l0 -1zm0 20c0,-1 0,-2 1,-2 0,0 0,-1 0,-1 0,0 0,0 1,0 0,-1 0,-1 0,-2l0 -6c0,-1 0,-1 0,-2 1,0 1,0 2,0l0 0c1,0 2,0 2,0 0,1 1,1 1,2l0 7c0,1 -1,2 -1,2 0,1 0,2 -1,2l-1 2c0,0 -1,0 -1,1 -1,0 -1,0 -1,0 -1,0 -1,0 -1,0 -1,-1 -1,-1 -1,-2l0 -1zm17 -13c1,0 1,0 2,0 0,1 0,1 0,2l0 6c0,1 0,1 0,2 1,0 1,0 1,0 0,0 0,1 0,1 1,0 1,1 1,2l0 1c0,1 0,1 -1,2 0,0 0,0 -1,0 0,0 0,0 -1,0 0,-1 -1,-1 -1,-1l-1 -2c-1,0 -1,-1 -1,-2 0,0 -1,-1 -1,-2l0 -7c0,-1 1,-1 1,-2 1,0 1,0 2,0l0 0zm-21 8c0,1 0,1 1,2 0,0 0,0 0,0 0,0 1,1 1,1 0,0 0,1 0,2l0 1c0,1 0,1 0,2 -1,0 -1,0 -1,0 -1,0 -1,0 -2,0 0,-1 -1,-1 -1,-1l-1 -2c0,0 -1,-1 -1,-2 0,0 0,-1 0,-2l0 -7c0,-1 0,-1 0,-2 1,0 1,0 2,0l0 0c1,0 1,0 2,0 0,1 0,1 0,2l0 6zm-6 -19c0,0 1,1 1,1 1,0 1,0 2,0l2 0c1,0 2,1 2,1 0,1 1,1 1,2l0 1c0,1 -1,1 -1,2 0,0 -1,0 -2,0l-2 0c-1,0 -1,1 -2,1 0,1 -1,1 -1,2l0 17c0,1 0,1 0,1 -1,1 -1,1 -2,1l-1 0c0,0 -1,0 -1,-1 -1,0 -1,0 -1,-1l0 -17c0,-1 0,-1 -1,-2 0,0 -1,-1 -1,-1l-3 0c-1,0 -1,0 -2,0 0,-1 0,-1 0,-2l0 -1c0,-1 0,-1 0,-2 1,0 1,-1 2,-1l3 0c0,0 1,0 1,0 1,0 1,-1 1,-1 0,-1 0,-1 1,-2 0,0 1,0 1,0l1 0c1,0 1,0 2,0 0,1 0,1 0,2zm-6 31c0,1 0,1 0,1 1,0 1,0 2,0l31 0c1,0 1,0 2,1 0,0 1,1 1,2l0 15c0,1 -1,2 -1,2 0,1 -1,2 -1,2l-2 2c0,0 -1,1 -1,1 -1,0 -2,0 -2,0l-33 0c-1,0 -1,0 -2,0 0,-1 0,-1 0,-2l0 -1c0,-1 0,-2 0,-2 1,0 1,-1 2,-1l21 0c1,0 1,0 2,0 0,-1 0,-1 0,-2 0,0 0,-1 0,-1 -1,-1 -1,-1 -2,-1l-21 0c-1,0 -1,0 -2,-1 0,0 0,-1 0,-1l0 -1c0,-1 0,-1 0,-2 1,0 1,0 2,0l22 0c1,0 2,0 3,0 0,0 1,1 1,1l2 1c0,1 1,1 1,2 0,1 0,2 0,2l0 1c0,1 1,1 1,2 0,0 1,0 1,0 1,0 2,0 2,0 0,-1 1,-1 1,-2l0 -9c0,0 -1,-1 -1,-1 -1,-1 -1,-1 -2,-1l-26 0c-1,0 -2,0 -2,0 -1,-1 -2,-1 -2,-1l-2 -2c0,0 -1,-1 -1,-2 0,0 0,-1 0,-1 0,-1 0,-1 0,-1 1,-1 1,-1 2,-1l1 0c1,0 1,0 2,0 0,1 1,1 1,1zm0 -11c0,1 0,2 -1,2 0,1 0,2 -1,2l-1 2c0,0 0,0 -1,1 -1,0 -1,0 -1,0 -1,0 -1,0 -1,0 0,-1 0,-1 0,-2l0 -1c0,-1 0,-2 0,-2 0,0 0,-1 0,-1 1,0 1,0 1,0 0,-1 0,-1 0,-2l0 -6c0,-1 0,-1 1,-2 0,0 1,0 1,0l1 0c0,0 1,0 1,0 1,1 1,1 1,2l0 7zm47 35c0,-1 0,-2 0,-3 0,0 0,-1 0,-2l7 -20c0,-1 0,-1 0,-1 0,-1 -1,-1 -1,-1l-4 0c-1,0 -1,0 -2,-1 0,0 0,-1 0,-1l0 -2c0,-1 0,-2 0,-3 0,-1 0,-1 0,-2l6 -19c1,-1 1,-1 2,-2 0,0 1,0 1,0l3 0c0,0 1,0 1,0 0,1 0,1 0,2l-7 20c0,0 0,1 0,1 1,1 1,1 2,1l2 0c1,0 2,0 2,1 1,0 1,0 1,1l1 2c0,0 0,1 0,2 0,0 0,1 0,2l-7 19c0,1 0,1 0,2 0,0 1,0 2,0l2 0c0,0 1,0 1,0 1,-1 1,-1 1,-2l0 -8c0,-1 0,-1 1,-1 0,-1 1,-1 1,-1l2 0c0,0 1,0 1,1 1,0 1,0 1,1l0 9c0,1 0,2 -1,2 0,1 0,2 -1,2l-1 2c-1,0 -1,1 -2,1 -1,0 -2,0 -2,0l-10 0c-1,0 -1,0 -2,0 0,-1 0,-1 0,-2l0 0zm18 -55c0,-1 0,-1 1,-1 0,-1 1,-1 1,-1l20 0c1,0 2,0 2,1 0,0 1,0 1,1l0 50c0,1 -1,2 -1,2 0,1 -1,2 -1,2l-2 2c0,0 -1,0 -1,1 -1,0 -2,0 -2,0l-12 0c0,0 -1,0 -1,0 0,-1 -1,-1 -1,-2l0 -2c0,0 1,-1 1,-1 0,-1 1,-1 1,-1l10 0c1,0 2,0 2,0 0,-1 1,-1 1,-2l0 -43c0,0 -1,-1 -1,-1 0,-1 -1,-1 -2,-1l-14 0c0,0 -1,0 -1,-1 -1,0 -1,-1 -1,-1l0 -2z"/>
 </g>
</svg>
