<?xml version="1.0" encoding="UTF-8"?>
<!DOCTYPE svg PUBLIC "-//W3C//DTD SVG 1.1//EN" "http://www.w3.org/Graphics/SVG/1.1/DTD/svg11.dtd">
<!-- Creator: CorelDRAW X8 -->
<svg xmlns="http://www.w3.org/2000/svg" xml:space="preserve" width="221.481mm" height="92.3984mm" version="1.1" style="shape-rendering:geometricPrecision; text-rendering:geometricPrecision; image-rendering:optimizeQuality; fill-rule:evenodd; clip-rule:evenodd"
viewBox="0 0 219 91"
 xmlns:xlink="http://www.w3.org/1999/xlink">
 <defs>
  <style type="text/css">
   <![CDATA[
    .fil0 {fill:#FE87C1}
    .fil1 {fill:#FEFEFE;fill-rule:nonzero}
   ]]>
  </style>
 </defs>
 <g id="图层_x0020_1">
  <metadata id="CorelCorpID_0Corel-Layer"/>
  <path class="fil0" d="M8 0l203 0c5,0 8,3 8,7l0 77c0,4 -3,7 -8,7l-203 0c-4,0 -8,-3 -8,-7l0 -77c0,-4 4,-7 8,-7z"/>
  <path class="fil1" d="M70 51c0,-1 -1,-1 -1,-1 0,-1 0,-1 -1,-1 0,0 0,0 -1,-1 0,0 0,0 0,-1l0 -1c0,-1 0,-1 1,-2 0,0 0,0 1,0l1 0c0,0 1,-1 1,-1 0,0 1,-1 1,-1l0 -7c0,0 0,-1 0,-1 1,0 1,-1 2,-1l1 0c1,0 1,1 1,1 1,0 1,1 1,1l0 8c0,0 0,1 0,1 0,1 -1,1 -1,2 0,0 -1,0 -1,1 0,1 0,1 0,2l0 21c0,1 0,1 -1,1 0,1 -1,1 -1,1l-1 0c-1,0 -1,0 -2,-1 0,0 0,0 0,-1l0 -19zm0 -21c0,-1 0,-1 -1,-1 0,-1 0,-1 -1,-1 0,0 0,0 -1,0 0,-1 0,-1 0,-2l0 -1c0,-1 0,-1 0,-1 1,-1 1,-1 1,-1 1,0 1,0 1,-1 1,0 1,0 1,-1 0,0 0,-1 1,-1 0,0 0,-1 1,-1l1 0c1,0 1,1 2,1 0,0 0,1 0,1 0,1 0,1 1,1 0,1 1,1 1,1l18 0c0,0 1,0 1,-1 1,0 1,0 1,-1 0,0 0,-1 0,-1 1,0 1,-1 2,-1l1 0c1,0 1,1 2,1 0,0 0,1 0,1 0,1 0,1 1,1 0,1 0,1 1,1 0,0 0,0 1,0 0,1 0,1 0,2l0 1c0,1 0,1 0,2 -1,0 -1,0 -1,0 -1,0 -1,0 -1,1 -1,0 -1,0 -1,1 0,0 0,0 0,1 -1,0 -1,0 -2,0l-1 0c-1,0 -1,0 -2,0 0,-1 0,-1 0,-1 0,-1 0,-1 -1,-1 0,-1 -1,-1 -1,-1l-18 0c0,0 -1,0 -1,1 -1,0 -1,0 -1,1 0,0 0,0 0,1 -1,0 -1,0 -2,0l-1 0c-1,0 -1,0 -1,0 -1,-1 -1,-1 -1,-1zm20 3c1,0 2,1 2,1 0,0 0,1 0,1l0 14c0,1 1,1 1,2 0,0 1,0 2,0l3 0c0,0 1,0 1,0 1,-1 1,-1 1,-2l0 -12c0,-1 0,-1 0,-2 1,0 1,0 2,0l1 0c1,0 1,0 2,0 0,1 0,1 0,2l0 13c0,1 0,1 0,2 -1,1 -1,1 -1,2l-2 1c0,0 -1,1 -1,1 -1,0 -2,0 -2,0l-4 0c-1,0 -1,1 -2,1 0,0 -1,1 -1,1l0 7c0,0 1,1 1,1 1,1 1,1 2,1l8 0c1,0 1,0 2,0 0,1 0,1 0,2l0 1c0,1 0,1 0,1 -1,1 -1,1 -2,1l-10 0c0,0 -1,0 -1,0 -1,-1 -2,-1 -2,-1l-1 -2c-1,0 -1,-1 -1,-1 -1,-1 -1,-2 -1,-2l0 -8c0,0 0,-1 0,-1 -1,0 -1,-1 -2,-1l-2 0c-1,0 -1,0 -2,0 0,-1 0,-1 0,-2l0 -1c0,0 0,-1 0,-1 1,-1 1,-1 2,-1l2 0c1,0 1,0 2,0 0,-1 0,-1 0,-2l0 -14c0,0 0,-1 1,-1 0,0 1,-1 1,-1l1 0zm42 30c0,1 0,1 0,1 -1,1 -1,1 -2,1 0,0 0,0 -1,-1 0,0 0,0 0,-1l0 -12c0,0 0,-1 0,-1 1,0 1,-1 1,-1 1,0 1,1 2,1 0,0 0,1 0,1l0 12zm13 -14c0,0 0,1 1,1 0,0 0,1 0,1l0 12c0,1 0,1 0,1 -1,1 -1,1 -1,1 -1,0 -1,0 -1,-1 -1,0 -1,0 -1,-1l0 -12c0,0 0,-1 1,-1 0,0 0,-1 1,-1zm-19 0c0,0 0,1 1,1 0,0 0,1 0,1l0 12c0,1 0,1 0,1 -1,1 -1,1 -1,1 -1,0 -1,0 -2,-1 0,0 0,0 0,-1l0 -12c0,0 0,-1 0,-1 1,0 1,-1 2,-1zm6 21c0,1 0,1 -1,1 0,1 -1,1 -1,1l-6 0c-1,0 -1,0 -2,0 -1,-1 -1,-1 -1,-2l-1 -1c0,0 0,-1 -1,-1 0,-1 0,-2 0,-2l0 -15c0,0 0,-1 1,-1 0,0 0,-1 1,-1 0,0 1,1 1,1 1,0 1,1 1,1l0 14c0,0 0,1 0,1 1,1 1,1 2,1l5 0c0,0 1,0 1,0 1,1 1,1 1,2l0 1zm11 2c-1,0 -1,0 -2,0 0,-1 -1,-1 -1,-2l-1 -1c0,0 0,-1 -1,-1 0,-1 0,-2 0,-2l0 -15c0,0 0,-1 1,-1 0,0 1,-1 1,-1 1,0 1,1 1,1 1,0 1,1 1,1l0 14c0,0 0,1 1,1 0,1 0,1 1,1l1 0c1,0 1,0 1,0 1,1 1,1 1,2l0 1c0,1 0,1 -1,1 0,1 0,1 -1,1l-2 0zm-9 -42c1,0 2,1 2,1 0,0 0,1 0,1l0 1c0,1 1,2 1,2 0,0 1,0 1,0l3 0c1,0 1,1 1,1 1,0 1,1 1,2l0 1c0,0 0,1 -1,1 0,1 0,1 -1,1l-4 0c0,0 -1,0 -1,-1 -1,0 -2,0 -2,-1l-1 -1c-1,0 -1,-1 -1,-2 -1,0 -1,-1 -1,-1l0 -3c0,0 0,-1 1,-1 0,0 1,-1 1,-1l1 0zm18 -5c0,1 0,1 0,2 -1,0 -1,0 -1,0 0,0 -1,0 -1,1 0,0 0,0 0,0 0,1 -1,1 -1,1 0,0 -1,0 -1,0l-2 0c0,0 -1,0 -1,0 0,0 -1,0 -1,-1 0,0 0,0 0,-1 -1,0 -1,0 -2,0l-18 0c-1,0 -1,0 -2,0 0,1 0,1 0,1 0,1 -1,1 -1,1 0,0 -1,0 -1,0l-2 0c0,0 -1,0 -1,0 -1,0 -1,0 -1,-1 0,0 0,0 0,-1 0,0 -1,0 -1,0 0,0 -1,0 -1,0 0,-1 0,-1 0,-2l0 -1c0,-1 0,-1 0,-2 0,0 1,0 1,0 0,0 1,0 1,-1 0,0 0,0 0,0 0,-1 0,-1 1,-1 0,0 1,-1 1,-1l2 0c0,0 1,1 1,1 0,0 1,0 1,1 0,0 0,0 0,0 1,1 1,1 2,1l18 0c1,0 1,0 2,-1 0,0 0,0 0,0 0,-1 1,-1 1,-1 0,0 1,-1 1,-1l2 0c0,0 1,1 1,1 0,0 1,0 1,1 0,0 0,0 0,0 0,1 1,1 1,1 0,0 0,0 1,0 0,1 0,1 0,2l0 1zm-3 24c1,0 1,1 2,1 0,0 0,1 0,1l0 14c0,0 0,1 0,1 0,1 0,1 1,1 0,0 0,0 0,0 0,1 0,1 0,2l0 1c0,1 0,1 0,1 0,1 -1,1 -1,1 0,0 -1,0 -1,0 0,-1 -1,-1 -1,-2l-1 0c0,-1 0,-2 0,-2 0,-1 -1,-2 -1,-2l0 -15c0,0 1,-1 1,-1 0,0 1,-1 1,-1zm-35 20c0,-1 0,-1 0,-2 0,0 0,0 0,0 0,0 0,0 0,-1 1,0 1,-1 1,-1l0 -14c0,0 0,-1 0,-1 0,0 1,-1 1,-1 1,0 1,1 2,1 0,0 0,1 0,1l0 15c0,0 0,1 0,2 0,0 0,1 -1,2l0 0c-1,1 -1,1 -1,2 -1,0 -1,0 -1,0 -1,0 -1,0 -1,-1 0,0 0,0 0,-1l0 -1zm4 -23c-1,1 -1,1 -2,1 0,1 -1,1 -1,1 0,0 -1,0 -1,-1 0,0 0,-1 0,-1l0 -1c0,-1 0,-1 0,-2 0,0 0,0 1,0 0,0 0,-1 0,-1 0,0 0,-1 0,-1l0 -9c0,0 1,-1 1,-1 0,0 1,-1 1,-1l2 0c0,0 1,1 1,1 1,0 1,1 1,1l0 10c0,0 0,1 -1,1 0,1 0,2 -1,2l-1 1zm34 0c0,0 0,1 0,1 -1,1 -1,1 -1,1 -1,0 -1,0 -2,-1 -1,0 -1,0 -2,-1l-1 -1c0,0 -1,-1 -1,-2 0,0 0,-1 0,-1l0 -10c0,0 0,-1 0,-1 1,0 1,-1 2,-1l1 0c0,0 1,1 1,1 1,0 1,1 1,1l0 9c0,0 0,1 0,1 1,0 1,0 1,0 0,0 1,1 1,1 0,0 0,1 0,1l0 2zm-9 0c0,0 0,1 -1,1 0,1 0,1 -1,1l-12 0c-1,0 -1,0 -2,-1 -1,0 -1,0 -2,-1l-1 -1c0,0 -1,-1 -1,-2 0,0 0,-1 0,-2l0 -9c0,0 0,-1 0,-1 1,0 1,-1 2,-1l1 0c0,0 1,1 1,1 1,0 1,1 1,1l0 8c0,1 0,1 0,2 1,0 1,0 2,0l11 0c1,0 1,1 1,1 1,0 1,1 1,1l0 2zm-7 26c-1,0 -1,0 -2,-1 0,0 0,0 0,-1l0 -19c0,0 0,-1 0,-1 1,0 1,-1 2,-1 0,0 1,1 1,1 0,0 0,1 0,1l0 19c0,1 0,1 0,1 0,1 -1,1 -1,1z"/>
 </g>
</svg>
