<?xml version="1.0" encoding="UTF-8"?>
<!DOCTYPE svg PUBLIC "-//W3C//DTD SVG 1.1//EN" "http://www.w3.org/Graphics/SVG/1.1/DTD/svg11.dtd">
<!-- Creator: CorelDRAW X8 -->
<svg xmlns="http://www.w3.org/2000/svg" xml:space="preserve" width="221.481mm" height="92.3984mm" version="1.1" style="shape-rendering:geometricPrecision; text-rendering:geometricPrecision; image-rendering:optimizeQuality; fill-rule:evenodd; clip-rule:evenodd"
viewBox="0 0 513 214"
 xmlns:xlink="http://www.w3.org/1999/xlink">
 <defs>
  <style type="text/css">
   <![CDATA[
    .fil2 {fill:#FEFEFE}
    .fil0 {fill:#C2E105}
    .fil1 {fill:#FEFEFE;fill-rule:nonzero}
   ]]>
  </style>
 </defs>
 <g id="图层_x0020_1">
  <metadata id="CorelCorpID_0Corel-Layer"/>
  <path class="fil0" d="M18 0l476 0c11,0 19,7 19,17l0 180c0,10 -8,17 -19,17l-476 0c-10,0 -18,-7 -18,-17l0 -180c0,-10 8,-17 18,-17z"/>
  <path class="fil1" d="M94 60c0,-1 0,-2 1,-3 0,-1 0,-1 1,-1 0,0 1,-1 1,-1 1,-1 1,-2 1,-3l0 -12c0,-1 0,-2 1,-2 1,-1 2,-1 3,-1l58 0c1,0 2,0 3,1 0,0 1,1 1,2l0 12c0,1 0,2 0,3 1,0 1,1 2,1 0,0 1,0 1,1 0,1 1,2 1,3l0 2c0,1 -1,2 -1,3 -1,1 -1,1 -2,1 -1,0 -2,0 -3,-1 -1,0 -2,-1 -3,-2l-3 -2c0,-1 -1,-2 -2,-4 0,-1 0,-2 0,-3l0 -3c0,-1 -1,-2 -1,-3 -1,-1 -2,-1 -3,-1l-38 0c-1,0 -2,0 -3,1 -1,1 -1,2 -1,3l0 3c0,1 0,2 -1,3 0,2 -1,3 -2,4l-2 2c-1,1 -2,2 -3,2 -1,1 -2,1 -3,1 -1,0 -2,0 -2,-1 -1,-1 -1,-2 -1,-3l0 -2zm0 16c0,-1 1,-2 1,-2 1,-1 2,-2 3,-2l66 0c1,0 2,1 2,2 1,0 2,1 2,2l0 3c0,1 -1,2 -2,2 0,1 -1,2 -2,2l-66 0c-1,0 -2,-1 -3,-2 0,0 -1,-1 -1,-2l0 -3zm6 32c0,-1 0,-2 0,-2 -1,-1 -2,-1 -2,-1 -1,0 -2,-1 -3,-2 -1,0 -1,-1 -1,-2l0 -3c0,-1 0,-2 1,-3 1,0 2,-1 3,-1l66 0c1,0 2,1 2,1 1,1 2,2 2,3l0 3c0,1 -1,2 -2,2 0,1 -1,2 -2,2l-49 0c-1,0 -2,0 -3,1 -1,0 -1,1 -2,2l-3 16c0,2 0,2 0,3 1,1 2,1 3,1l43 0c2,0 2,0 3,-1 1,-1 1,-2 1,-3l0 -9c0,-1 1,-2 1,-3 1,0 2,-1 3,-1l3 0c1,0 2,1 2,1 1,1 2,2 2,3l0 11c0,1 -1,3 -1,4 -1,1 -1,2 -2,3l-3 3c-1,1 -2,1 -3,2 -1,0 -2,1 -3,1l-55 0c-1,0 -2,-1 -3,-2 -1,0 -1,-1 -1,-2l0 -7c0,-1 0,-2 0,-4 0,-1 0,-2 1,-4l2 -12zm85 -64c0,-1 0,-1 1,-2 1,-1 2,-1 3,-1l56 0c1,0 2,-1 3,-1 0,0 1,-1 1,-1 0,-1 0,-1 1,-2 1,0 2,0 3,0l2 0c1,0 2,0 3,0 1,1 1,2 1,3 0,0 0,1 -1,2 0,2 -1,2 -2,3l-2 2c-1,1 -2,2 -3,2 -2,1 -3,1 -4,1l-58 0c-1,0 -2,-1 -3,-1 -1,-1 -1,-2 -1,-3l0 -2zm0 72c0,-1 0,-2 1,-3 1,-1 2,-1 3,-1l66 0c1,0 2,0 3,1 1,1 1,2 1,3l0 11c0,1 0,3 -1,4 0,1 -1,2 -2,3l-2 2c-1,1 -2,1 -3,2 -2,0 -3,1 -4,1l-58 0c-1,0 -2,-1 -3,-2 -1,0 -1,-1 -1,-2l0 -19zm11 9c0,2 0,2 1,3 0,1 1,1 2,1l46 0c1,0 2,0 3,-1 0,-1 1,-1 1,-3l0 0c0,-1 -1,-2 -1,-3 -1,0 -2,-1 -3,-1l-46 0c-1,0 -2,1 -2,1 -1,1 -1,2 -1,3l0 0zm-11 -66c0,-1 0,-2 1,-3 1,-1 2,-1 3,-1l66 0c1,0 2,0 3,1 1,1 1,2 1,3l0 6c0,1 0,2 -1,2 -1,1 -2,2 -3,2l-2 0c-1,0 -2,-1 -3,-1 -1,-1 -1,-1 -1,-2 0,0 -1,-1 -1,-1 -1,-1 -2,-1 -3,-1l-46 0c-1,0 -2,0 -2,0 -1,1 -1,1 -1,2 0,0 -1,1 -2,1 0,0 -1,1 -2,1l-3 0c-1,0 -2,-1 -3,-2 -1,0 -1,-1 -1,-2l0 -5zm13 40c1,0 2,0 3,0 2,-1 3,-1 4,-2 1,0 1,-1 1,-1 0,-1 0,-1 -1,-2l-1 0c-1,0 -2,-1 -4,-1 -1,0 -3,0 -4,0l-7 0c-1,0 -2,-1 -3,-1 -1,-1 -1,-2 -1,-3 0,-1 0,-2 1,-2 1,-1 2,-1 3,-1l10 0c1,0 3,0 4,0 2,0 3,1 4,1l8 3c1,0 2,0 4,0 1,0 2,0 3,-1l12 -5c1,0 2,-1 2,-1 -1,0 -1,0 -2,0l-37 0c-1,0 -2,-1 -3,-1 -2,-1 -3,-1 -4,-2l-2 -2c-1,-1 -1,-2 -2,-3 -1,-1 -1,-1 -1,-2 0,0 0,-1 1,-1 1,-1 2,-1 3,-1l2 0c2,0 3,0 3,0 1,1 1,1 1,1 0,1 1,1 2,1 0,0 1,0 2,0l56 0c1,0 2,1 3,2 1,0 1,1 1,2l0 2c0,1 0,2 -1,3 -1,1 -2,2 -3,2l-20 10c-1,0 -2,0 -2,1 0,1 1,1 2,1l4 2c1,0 2,0 4,1 1,0 2,0 4,0l8 0c1,0 2,0 3,1 1,1 1,2 1,3l0 1c0,1 0,2 -1,3 -1,1 -2,1 -3,1l-10 0c-1,0 -2,0 -3,0 -2,-1 -3,-1 -4,-1l-15 -6c-1,0 -2,0 -3,0 -1,0 -3,0 -4,1l-11 5c-1,0 -2,0 -4,1 -1,0 -2,0 -3,0l-9 0c-1,0 -2,0 -3,-1 -1,-1 -1,-2 -1,-3l0 -1c0,-1 0,-2 1,-3 1,-1 2,-1 3,-1l9 0z"/>
  <path class="fil2" d="M46 69c10,0 19,8 19,19 0,10 -9,18 -19,18 -10,0 -19,-8 -19,-18 0,-11 9,-19 19,-19z"/>
  <path class="fil1" d="M364 144c0,0 -1,0 -2,1 0,0 0,1 0,1l0 1c-1,1 0,2 0,2 1,1 1,1 2,1l1 0c0,0 1,0 1,0 1,1 1,1 1,1 0,1 0,1 1,1 0,0 1,1 1,1l2 0c0,0 1,0 1,0 1,1 1,1 1,2l2 31c0,1 1,1 1,2 0,0 0,1 1,1 0,0 0,0 1,0 0,1 0,1 0,2l0 1c0,1 0,2 -1,2 0,1 -1,1 -1,1l-4 0c0,0 -1,0 -1,-1 -1,0 -1,-1 -1,-2l-3 -36c0,-1 0,-1 0,-1 0,0 0,0 0,1l0 40c0,1 0,2 -1,2 0,1 -1,1 -1,1l-2 0c-1,0 -1,0 -2,-1 0,0 0,-1 0,-2l0 -37c0,0 0,-1 0,-1 0,0 0,1 0,1l-3 34c-1,1 -1,1 -1,2 -1,0 -1,1 -2,1l-3 0c-1,0 -1,-1 -2,-1 0,-1 -1,-1 -1,-2l0 -1c0,-1 0,-1 1,-2 0,0 0,-1 0,-1 1,0 1,0 1,0 0,-1 1,-1 1,-2l3 -41c0,0 0,-1 0,-1 -1,-1 -1,-1 -2,-1l-1 0c-1,0 -1,0 -2,-1 0,0 -1,-1 -1,-1l0 -2c0,0 1,-1 1,-1 1,-1 1,-1 2,-1l24 0c0,0 1,0 1,1 1,0 1,1 1,1l0 2c0,0 0,1 -1,1 0,1 -1,1 -1,1l-12 0zm-18 0c-1,0 -2,0 -2,1 0,0 0,1 0,1l0 14c0,1 0,2 0,2 0,0 1,1 2,1 0,0 0,0 1,0 0,1 0,1 0,2l0 2c0,0 0,1 0,1 -1,1 -1,1 -1,1 -1,0 -2,0 -2,1 0,0 0,1 0,1l0 19c0,1 0,2 0,2 0,1 1,1 2,1 0,0 0,0 1,0 0,1 0,1 0,2l0 2c0,0 0,1 0,1 -1,1 -1,1 -2,1l-9 0c-1,0 -1,0 -2,-1 0,0 0,-1 0,-1l0 -2c0,-1 0,-1 0,-2 1,0 1,0 1,0 1,0 1,0 2,-1 0,0 0,-1 0,-2l0 -19c0,0 0,-1 0,-1 -1,-1 -1,-1 -2,-1 0,0 0,0 -1,-1 0,0 0,-1 0,-1l0 -2c0,-1 0,-1 0,-2 1,0 1,0 1,0 1,0 1,-1 2,-1 0,0 0,-1 0,-2l0 -14c0,0 0,-1 0,-1 -1,-1 -1,-1 -2,-1 0,0 0,0 -1,-1 0,0 0,-1 0,-1l0 -2c0,0 0,-1 0,-1 1,-1 1,-1 2,-1l9 0c1,0 1,0 2,1 0,0 0,1 0,1l0 2c0,0 0,1 0,1 -1,1 -1,1 -1,1zm59 50c0,0 1,-1 1,-1 1,0 2,0 2,0 0,-1 1,-1 1,-2l0 -1c0,-1 -1,-1 -1,-2 0,0 -1,0 -2,0 0,0 -1,-1 -1,-1 -1,-1 -1,-1 -1,-2l0 -18c0,0 0,-1 1,-1 0,-1 1,-1 1,-1l24 0c1,0 1,0 2,1 0,0 0,1 0,1l0 14c0,1 0,1 0,2 -1,1 -1,1 -2,2l-1 1c0,0 -1,1 -1,2 0,0 0,1 0,2l0 1c0,1 0,1 0,2 1,0 1,0 2,0l0 0c1,0 1,1 2,1 0,1 0,1 0,2l0 1c0,0 0,1 0,1 -1,1 -1,1 -2,1l-1 0c-1,0 -2,0 -2,-1 -1,0 -2,0 -2,-1l-2 -1c0,-1 -1,-1 -1,-2 0,-1 -1,-2 -1,-2l0 -2c0,-1 0,-1 0,-2 -1,0 -1,0 -2,0l-2 0c0,0 -1,0 -1,0 -1,1 -1,1 -1,2l0 2c0,0 0,1 -1,2 0,1 0,1 -1,2l-1 1c-1,1 -1,1 -2,1 -1,1 -2,1 -2,1l-2 0c0,0 -1,0 -1,-1 -1,0 -1,-1 -1,-1l0 -1c0,-1 0,-1 1,-2zm-16 -1c0,0 0,0 1,0 1,0 1,0 2,-1 0,0 0,-1 0,-2l0 -37c0,0 0,-1 0,-1 -1,-1 -1,-1 -2,-1 -1,0 -1,0 -1,-1 -1,0 -1,-1 -1,-1l0 -2c0,0 0,-1 1,-1 0,-1 0,-1 1,-1 1,0 1,0 2,-1 0,0 0,-1 0,-1l0 -3c0,0 1,-1 1,-1 0,-1 1,-1 2,-1l1 0c1,0 1,0 2,1 0,0 0,1 0,1l0 3c0,0 1,1 1,1 0,1 1,1 1,1 0,0 1,0 1,1 1,0 1,1 1,1l0 2c0,0 0,1 -1,1 0,1 -1,1 -1,1 0,0 -1,0 -1,1 0,0 -1,1 -1,1l0 37c0,1 1,2 1,2 0,1 1,1 1,1 0,0 1,0 1,0 1,1 1,1 1,2l0 2c0,0 -1,1 -1,1 0,1 -1,1 -2,1l-9 0c0,0 -1,0 -1,-1 -1,0 -1,-1 -1,-1l0 -2c0,-1 0,-1 1,-2zm16 -35c0,0 0,0 1,0 0,0 1,-1 1,-1 0,-1 0,-1 0,-2l0 0c0,-1 0,-1 0,-2 0,0 -1,-1 -1,-1 -1,0 -1,0 -1,0 -1,-1 -1,-1 -1,-2l0 -1c0,0 0,-1 1,-1 0,-1 1,-1 1,-1l24 0c1,0 1,0 2,1 0,0 0,1 0,1l0 1c0,1 0,1 0,2 -1,0 -1,0 -2,0 0,0 0,1 -1,1 0,1 0,1 0,2l0 0c0,1 0,2 0,2 1,0 1,1 1,1 1,0 1,0 2,0 0,1 0,1 0,2l0 1c0,1 0,1 0,1 -1,1 -1,1 -2,1l-24 0c0,0 -1,0 -1,-1 -1,0 -1,0 -1,-1l0 -1c0,-1 0,-1 1,-2zm21 -19c0,0 0,-1 1,-1 0,0 1,0 1,0l2 0c1,0 1,0 2,0 0,1 0,1 0,1 0,1 0,1 0,2 -1,0 -1,1 -1,1l-1 1c-1,1 -1,1 -2,2 -1,0 -2,0 -2,0l-20 0c0,0 -1,0 -1,-1 -1,0 -1,-1 -1,-1l0 -1c0,-1 0,-1 1,-2 0,0 1,0 1,0l18 0c0,0 1,0 1,-1 1,0 1,0 1,0zm-14 32c0,0 -1,0 -1,0 -1,0 -1,1 -1,1 0,1 0,1 1,1 0,0 1,1 1,1l12 0c0,0 1,-1 1,-1 1,0 1,0 1,-1 0,0 0,-1 -1,-1 0,0 -1,0 -1,0l-12 0zm-2 10c0,0 0,0 1,1 0,0 1,0 1,0l12 0c0,0 1,0 1,0 1,-1 1,-1 1,-1 0,-1 0,-1 -1,-1 0,-1 -1,-1 -1,-1l-12 0c0,0 -1,0 -1,1 -1,0 -1,0 -1,1zm4 -26c0,1 0,2 0,2 1,0 1,1 2,1l4 0c1,0 2,-1 2,-1 0,0 1,-1 1,-2l0 0c0,-1 -1,-1 -1,-2 0,0 -1,-1 -2,-1l-4 0c-1,0 -1,1 -2,1 0,1 0,1 0,2l0 0zm34 38c0,0 1,0 1,-1 1,0 1,-1 1,-2l0 -17c0,0 0,-1 -1,-1 0,-1 -1,-1 -1,-1l-3 0c-1,0 -2,0 -2,-1 0,0 -1,-1 -1,-1l0 -2c0,0 1,-1 1,-1 0,-1 1,-1 2,-1l14 0c1,0 1,0 2,-1 0,0 0,-1 0,-1l0 -23c0,0 1,-1 1,-1 1,-1 1,-1 2,-1l1 0c1,0 1,0 2,1 0,0 1,1 1,1l0 23c0,0 0,1 0,1 1,1 1,1 2,1l14 0c1,0 1,0 2,1 0,0 1,1 1,1l0 2c0,0 -1,1 -1,1 -1,1 -1,1 -2,1l-3 0c0,0 -1,0 -1,1 -1,0 -1,1 -1,1l0 17c0,1 0,2 1,2 0,1 1,1 1,1l3 0c1,0 1,0 2,0 0,1 1,1 1,2l0 2c0,0 -1,1 -1,1 -1,1 -1,1 -2,1l-9 0c-1,0 -1,0 -2,-1 0,0 0,-1 0,-1l0 -24c0,0 -1,-1 -1,-1 0,-1 -1,-1 -2,-1l-12 0c0,0 -1,0 -1,1 -1,0 -1,1 -1,1l0 24c0,0 0,1 0,1 -1,1 -1,1 -2,1l-9 0c-1,0 -2,0 -2,-1 0,0 -1,-1 -1,-1l0 -2c0,-1 1,-1 1,-2 0,0 1,0 2,0l3 0zm32 -49c0,0 1,-1 1,-1 1,-1 1,-1 2,-1l1 0c1,0 1,0 2,1 0,0 1,1 1,1l0 14c0,1 -1,1 -1,2 -1,0 -1,0 -2,0l-10 0c0,0 -1,0 -1,0 -1,-1 -1,-1 -1,-2l0 -2c0,0 0,-1 1,-1 0,-1 1,-1 1,-1l4 0c1,0 1,0 2,-1 0,0 0,-1 0,-1l0 -8zm-38 0c0,0 1,-1 1,-1 0,-1 1,-1 2,-1l1 0c1,0 1,0 2,1 0,0 1,1 1,1l0 8c0,0 0,1 0,1 1,1 1,1 2,1l4 0c0,0 1,0 1,1 1,0 1,1 1,1l0 2c0,1 0,1 -1,2 0,0 -1,0 -1,0l-10 0c-1,0 -2,0 -2,0 0,-1 -1,-1 -1,-2l0 -14z"/>
 </g>
</svg>
