<?xml version="1.0" encoding="UTF-8"?>
<!DOCTYPE svg PUBLIC "-//W3C//DTD SVG 1.1//EN" "http://www.w3.org/Graphics/SVG/1.1/DTD/svg11.dtd">
<!-- Creator: CorelDRAW X8 -->
<svg xmlns="http://www.w3.org/2000/svg" xml:space="preserve" width="158.26mm" height="251.272mm" version="1.1" style="shape-rendering:geometricPrecision; text-rendering:geometricPrecision; image-rendering:optimizeQuality; fill-rule:evenodd; clip-rule:evenodd"
viewBox="0 0 138 219"
 xmlns:xlink="http://www.w3.org/1999/xlink">
 <defs>
  <style type="text/css">
   <![CDATA[
    .fil0 {fill:#FEB079}
    .fil1 {fill:#FEFEFE;fill-rule:nonzero}
   ]]>
  </style>
 </defs>
 <g id="图层_x0020_1">
  <metadata id="CorelCorpID_0Corel-Layer"/>
  <path class="fil0" d="M11 0l116 0c6,0 11,5 11,11l0 197c0,6 -5,11 -11,11l-116 0c-6,0 -11,-5 -11,-11l0 -197c0,-6 5,-11 11,-11z"/>
  <path class="fil1" d="M35 89l8 0c1,0 1,1 2,1 0,0 0,1 0,1l0 41c0,1 0,1 0,1 -1,1 -1,1 -2,1l-8 0c-1,0 -1,0 -2,-1 0,0 0,0 0,-1l0 -41c0,0 0,-1 0,-1 1,0 1,-1 2,-1zm30 43c0,1 0,1 0,1 -1,1 -1,1 -1,1l-16 0c0,0 -1,0 -1,-1 0,0 -1,0 -1,-1l0 -19c0,-1 1,-1 1,-1 0,-1 1,-1 1,-1l16 0c0,0 0,0 1,1 0,0 0,0 0,1l0 19zm-17 -43l16 0c0,0 0,1 1,1 0,0 0,1 0,1l0 16c0,1 0,1 0,2 -1,0 -1,0 -1,0l-16 0c0,0 -1,0 -1,0 0,-1 -1,-1 -1,-2l0 -16c0,0 1,-1 1,-1 0,0 1,-1 1,-1zm-9 5c-1,0 -1,0 -1,0 0,1 -1,1 -1,2l0 32c0,0 1,1 1,1 0,0 0,0 1,0 0,0 1,0 1,0 0,0 1,-1 1,-1l0 -32c0,-1 -1,-1 -1,-2 0,0 -1,0 -1,0zm14 22c-1,0 -1,0 -2,0 0,0 0,1 0,1l0 2c0,0 0,0 0,1 1,0 1,0 2,0l6 0c1,0 1,0 1,0 1,-1 1,-1 1,-1l0 -2c0,0 0,-1 -1,-1 0,0 0,0 -1,0l-6 0zm6 13c1,0 1,0 1,0 1,0 1,-1 1,-1l0 -1c0,-1 0,-1 -1,-2 0,0 0,0 -1,0l-6 0c-1,0 -1,0 -2,0 0,1 0,1 0,2l0 1c0,0 0,1 0,1 1,0 1,0 2,0l6 0zm-6 -35c-1,0 -1,0 -2,0 0,1 0,1 0,1 0,1 0,1 0,2 1,0 1,0 2,0l6 0c1,0 1,0 1,0 1,-1 1,-1 1,-2 0,0 0,0 -1,-1 0,0 0,0 -1,0l-6 0zm6 11c1,0 1,-1 1,-1 1,0 1,-1 1,-1 0,0 0,-1 -1,-1 0,0 0,-1 -1,-1l-6 0c-1,0 -1,1 -2,1 0,0 0,1 0,1 0,0 0,1 0,1 1,0 1,1 2,1l6 0zm29 11l0 16c0,1 0,1 0,1 0,1 -1,1 -1,1l-10 0c-1,0 -1,0 -1,-1 -1,0 -1,0 -1,-1l0 -1c0,0 0,-1 1,-1 0,0 0,-1 1,-1l6 0c0,0 1,0 1,0 0,0 0,-1 0,-1l0 -12c0,-1 0,-1 0,-1 0,-1 -1,-1 -1,-1l-9 0c0,0 -1,0 -1,0 0,-1 0,-1 0,-2l0 -1c0,0 0,-1 0,-1 0,0 1,0 1,0l9 0c0,0 1,-1 1,-1 0,0 0,-1 0,-1l0 -12c0,-1 0,-1 0,-2 0,0 -1,0 -1,0l-9 0c0,0 -1,0 -1,-1 0,0 0,0 0,-1l0 -1c0,0 0,-1 0,-1 0,0 1,-1 1,-1l14 0c0,0 1,1 1,1 1,0 1,1 1,1l0 1c0,1 0,1 0,1 -1,1 -1,1 -1,1 0,0 0,0 0,0 -1,1 -1,1 -1,2l0 12c0,0 0,1 1,1 0,0 0,1 0,1 0,0 0,0 1,0 0,0 0,1 0,1l0 1c0,1 0,1 0,2 -1,0 -1,0 -1,0 0,0 0,0 0,1 -1,0 -1,0 -1,1zm2 15c0,0 0,-1 0,-1 0,0 0,-1 1,-1 0,0 0,0 0,0 1,0 1,-1 1,-1l3 -12c1,0 1,-1 1,-1 0,-1 0,-2 0,-2l0 -11c0,0 0,-1 0,-1 1,0 1,0 2,0l0 0c0,0 1,0 1,0 0,0 1,1 1,1l0 11c0,0 0,1 0,2 0,0 0,1 0,1l3 12c0,0 0,1 0,1 1,0 1,0 1,0 0,0 1,1 1,1 0,0 0,1 0,1l0 1c0,1 0,1 -1,1 0,1 0,1 -1,1l-1 0c-1,0 -1,0 -1,0 -1,-1 -1,-1 -1,-2l-2 -7c0,-1 0,-1 0,-1 -1,0 -1,0 -1,1l-2 7c0,1 0,1 -1,2 0,0 -1,0 -1,0l-2 0c0,0 0,0 -1,-1 0,0 0,0 0,-1l0 -1zm3 -42c1,0 1,0 2,1 0,0 0,0 0,1 0,0 0,1 1,1 0,0 0,0 1,0l6 0c1,0 1,1 1,1 1,0 1,1 1,1l0 18c0,1 0,1 -1,1 0,1 0,1 -1,1l0 0c0,0 -1,0 -1,-1 -1,0 -1,0 -1,-1l0 -13c0,-1 0,-1 0,-1 -1,-1 -1,-1 -1,-1l-7 0c-1,0 -1,0 -1,0 -1,-1 -1,-1 -1,-2l0 -4c0,0 0,-1 1,-1 0,0 0,-1 1,-1l0 0zm-10 9l0 9c0,0 0,0 -1,1 0,0 -1,0 -1,0l-6 0c-1,0 -1,0 -1,0 -1,-1 -1,-1 -1,-2l0 -8c0,-1 0,-1 1,-1 0,-1 0,-1 1,-1l6 0c0,0 1,0 1,1 1,0 1,0 1,1zm0 28c0,1 0,1 -1,1 0,1 -1,1 -1,1l-6 0c-1,0 -1,0 -1,-1 -1,0 -1,0 -1,-1l0 -8c0,-1 0,-1 1,-2 0,0 0,0 1,0l6 0c0,0 1,0 1,0 1,1 1,1 1,2l0 8zm-4 -24c0,-1 0,-1 0,-1 -1,-1 -1,-1 -1,-1 0,0 -1,0 -1,1 0,0 0,0 0,1l0 0c0,1 0,1 0,2 0,0 1,0 1,0 0,0 0,0 1,0 0,-1 0,-1 0,-2l0 0zm0 20c0,-1 0,-1 0,-2 -1,0 -1,0 -1,0 0,0 -1,0 -1,0 0,1 0,1 0,2l0 0c0,1 0,1 0,1 0,1 1,1 1,1 0,0 0,0 1,-1 0,0 0,0 0,-1l0 0z"/>
 </g>
</svg>
