<?xml version="1.0" encoding="UTF-8"?>
<!DOCTYPE svg PUBLIC "-//W3C//DTD SVG 1.1//EN" "http://www.w3.org/Graphics/SVG/1.1/DTD/svg11.dtd">
<!-- Creator: CorelDRAW X8 -->
<svg xmlns="http://www.w3.org/2000/svg" xml:space="preserve" width="221.481mm" height="92.3983mm" version="1.1" style="shape-rendering:geometricPrecision; text-rendering:geometricPrecision; image-rendering:optimizeQuality; fill-rule:evenodd; clip-rule:evenodd"
viewBox="0 0 253 106"
 xmlns:xlink="http://www.w3.org/1999/xlink">
 <defs>
  <style type="text/css">
   <![CDATA[
    .fil0 {fill:#FEB079}
    .fil1 {fill:#FEFEFE;fill-rule:nonzero}
   ]]>
  </style>
 </defs>
 <g id="图层_x0020_1">
  <metadata id="CorelCorpID_0Corel-Layer"/>
  <path class="fil0" d="M9 0l235 0c5,0 9,4 9,8l0 89c0,5 -4,9 -9,9l-235 0c-5,0 -9,-4 -9,-9l0 -89c0,-4 4,-8 9,-8z"/>
  <path class="fil1" d="M106 49c0,0 -1,0 -1,1 -1,0 -1,1 -1,1l0 3c0,0 0,1 1,1 0,1 1,1 1,1l13 0c0,0 1,0 1,1 1,0 1,1 1,1l0 2c0,0 0,1 -1,2 0,0 -1,0 -1,0l-13 0c0,0 -1,0 -1,1 -1,0 -1,1 -1,1 0,1 0,1 1,2 0,0 1,0 1,0l13 0c0,0 1,1 1,1 1,1 1,1 1,2l0 1c0,1 0,1 -1,2 0,0 -1,1 -1,1l-13 0c0,0 -1,0 -1,0 -1,1 -1,1 -1,2 0,0 0,1 1,1 0,1 1,1 1,1l13 0c0,0 1,0 1,1 1,0 1,1 1,1l0 2c0,1 0,1 -1,2 0,0 -1,0 -1,0l-39 0c-1,0 -2,0 -2,0 0,-1 -1,-1 -1,-2l0 -2c0,0 1,-1 1,-1 0,-1 1,-1 2,-1l16 0c0,0 1,0 1,-1 1,0 1,-1 1,-1 0,-1 0,-1 -1,-2 0,0 -1,0 -1,0l-16 0c-1,0 -2,-1 -2,-1 0,-1 -1,-1 -1,-2l0 -1c0,-1 1,-1 1,-2 0,0 1,-1 2,-1l16 0c0,0 1,0 1,0 1,-1 1,-1 1,-2 0,0 0,-1 -1,-1 0,-1 -1,-1 -1,-1l-12 0c0,0 -1,0 -2,0 0,-1 -1,-1 -2,-1l-1 -2c0,0 -1,-1 -1,-1 0,-1 -1,-2 -1,-3l0 -1c0,-1 1,-1 1,-2 0,0 1,0 2,0l1 0c1,0 1,0 2,0 0,1 0,1 0,2 0,0 1,1 1,1 1,1 1,1 2,1l10 0c0,0 1,0 1,-1 1,0 1,-1 1,-1l0 -3c0,0 0,-1 -1,-1 0,-1 -1,-1 -1,-1l-16 0c-1,0 -2,0 -2,-1 0,0 -1,-1 -1,-1l0 -22c0,-1 1,-1 1,-2 0,0 1,-1 2,-1l39 0c0,0 1,1 1,1 1,1 1,1 1,2l0 17c0,1 0,1 0,2 -1,1 -1,1 -1,2l-2 1c-1,1 -1,1 -2,2 -1,0 -1,0 -2,0l-8 0zm-20 -21c-1,0 -1,1 -2,1 0,1 -1,1 -1,2 0,0 1,1 1,1 1,1 1,1 2,1l27 0c0,0 1,0 1,-1 1,0 1,-1 1,-1 0,-1 0,-1 -1,-2 0,0 -1,-1 -1,-1l-27 0zm-2 12c0,0 -1,0 -1,1 0,1 1,1 1,1 1,1 1,1 2,1l27 0c0,0 1,0 1,-1 1,0 1,0 1,-1 0,-1 0,-1 -1,-1 0,-1 -1,-1 -1,-1l-27 0c-1,0 -1,0 -2,1zm64 5c0,1 -1,2 -1,2 0,1 0,2 -1,2 0,0 0,1 0,1 0,1 0,1 0,2 1,0 1,1 1,1 0,1 1,2 1,2l0 17c0,1 -1,1 -1,2 0,1 -1,1 -1,2l-2 1c0,1 -1,1 -2,2 0,0 -1,0 -2,0l0 0c-1,0 -1,0 -2,1 0,0 0,1 0,1 0,1 -1,1 -1,2 0,0 -1,0 -2,0l-1 0c-1,0 -1,0 -2,0 0,-1 0,-1 0,-2l0 -56c0,-1 0,-2 0,-2 1,0 1,-1 2,-1l11 0c1,0 1,1 2,1 0,0 1,1 1,2l0 20zm2 -4c0,-1 0,-1 0,-2 1,0 1,-1 2,-1l22 0c0,0 1,1 1,1 1,1 1,1 1,2l0 1c0,1 0,1 -1,2 0,0 -1,1 -1,1l-6 0c-1,0 -1,0 -2,0 0,1 -1,1 -1,2l0 29c0,1 0,1 0,2 0,1 -1,2 -1,2l-1 1c-1,1 -1,1 -2,2 0,0 -1,0 -1,0 -1,0 -1,0 -1,0 -1,-1 -1,-1 -1,-2l0 -2c0,0 0,-1 1,-1 0,-1 0,-1 0,-1 0,0 1,0 1,-1 0,0 0,-1 0,-1l0 -28c0,-1 0,-1 -1,-2 0,0 -1,0 -1,0l-6 0c-1,0 -1,-1 -2,-1 0,-1 0,-1 0,-2l0 -1zm0 38c0,0 0,-1 0,-1 0,-1 0,-1 0,-1 0,0 1,0 1,-1 0,0 0,-1 0,-1l0 -24c0,0 0,-1 1,-1 0,-1 1,-1 1,-1l2 0c1,0 1,0 2,1 0,0 0,1 0,1l0 25c0,1 0,1 0,2 0,1 -1,2 -1,2l-2 1c0,1 -1,1 -1,2 -1,0 -1,0 -2,0 0,0 -1,0 -1,0 0,-1 0,-1 0,-2l0 -2zm22 -30c0,0 1,0 1,1 1,0 1,1 1,1l0 24c0,0 0,1 0,1 0,1 1,1 1,1 0,0 0,0 0,1 1,0 1,1 1,1l0 2c0,1 -1,1 -1,2 0,0 -1,0 -1,0 0,0 -1,0 -2,0 0,-1 -1,-1 -1,-2l-1 -1c-1,0 -1,-1 -2,-2 0,-1 0,-1 0,-2l0 -25c0,0 0,-1 1,-1 0,-1 1,-1 1,-1l2 0zm-22 -24c0,-1 0,-2 0,-2 1,0 1,-1 2,-1l22 0c0,0 1,1 1,1 1,0 1,1 1,2l0 1c0,1 0,1 -1,2 0,0 -1,1 -1,1l-22 0c-1,0 -1,-1 -2,-1 0,-1 0,-1 0,-2l0 -1zm-9 31c0,-1 0,-1 0,-2 -1,0 -1,0 -1,0 -1,0 -1,0 -2,0 0,1 0,1 0,2l0 15c0,0 0,1 0,1 1,1 1,1 2,1 0,0 0,0 1,-1 0,0 0,-1 0,-1l0 -15zm-3 -11c0,1 0,1 0,2 1,0 1,0 2,0 0,0 0,0 1,0 0,-1 0,-1 0,-2l0 -14c0,-1 0,-1 0,-2 -1,0 -1,0 -1,0 -1,0 -1,0 -2,0 0,1 0,1 0,2l0 14z"/>
 </g>
</svg>
