<?xml version="1.0" encoding="UTF-8"?>
<!DOCTYPE svg PUBLIC "-//W3C//DTD SVG 1.1//EN" "http://www.w3.org/Graphics/SVG/1.1/DTD/svg11.dtd">
<!-- Creator: CorelDRAW X8 -->
<svg xmlns="http://www.w3.org/2000/svg" xml:space="preserve" width="221.481mm" height="92.3984mm" version="1.1" style="shape-rendering:geometricPrecision; text-rendering:geometricPrecision; image-rendering:optimizeQuality; fill-rule:evenodd; clip-rule:evenodd"
viewBox="0 0 247 103"
 xmlns:xlink="http://www.w3.org/1999/xlink">
 <defs>
  <style type="text/css">
   <![CDATA[
    .fil0 {fill:#FEB079}
    .fil1 {fill:#FEFEFE;fill-rule:nonzero}
   ]]>
  </style>
 </defs>
 <g id="图层_x0020_1">
  <metadata id="CorelCorpID_0Corel-Layer"/>
  <path class="fil0" d="M9 0l229 0c5,0 9,4 9,8l0 87c0,5 -4,8 -9,8l-229 0c-5,0 -9,-3 -9,-8l0 -87c0,-4 4,-8 9,-8z"/>
  <path class="fil1" d="M100 31c0,0 0,1 1,1 0,1 1,1 1,1l14 0c1,0 2,0 2,0 0,1 1,1 1,2l0 23c0,1 -1,1 -1,2 0,1 -1,2 -1,2l-2 2c0,0 -1,0 -1,1 -1,0 -2,0 -2,0l-10 0c0,0 -1,0 -1,1 -1,0 -1,1 -1,1l0 12c0,1 0,1 -1,2 0,0 -1,0 -1,0l-2 0c0,0 -1,0 -1,0 -1,-1 -1,-1 -1,-2l0 -12c0,0 0,-1 -1,-1 0,-1 -1,-1 -1,-1l-14 0c-1,0 -1,0 -2,0 0,-1 0,-1 0,-2l0 -28c0,-1 0,-1 0,-2 1,0 1,0 2,0l14 0c0,0 1,0 1,-1 1,0 1,-1 1,-1l0 -7c0,0 0,-1 1,-1 0,-1 1,-1 1,-1l2 0c0,0 1,0 1,1 1,0 1,1 1,1l0 7zm-8 28c0,0 1,0 1,0 1,-1 1,-1 1,-2l0 -16c0,-1 0,-1 -1,-2 0,0 -1,0 -1,0l-8 0c-1,0 -1,0 -2,0 0,1 0,1 0,2l0 16c0,1 0,1 0,2 1,0 1,0 2,0l8 0zm10 -20c0,0 -1,0 -1,0 -1,1 -1,1 -1,2l0 16c0,1 0,1 1,2 0,0 1,0 1,0l8 0c1,0 2,0 2,0 0,-1 1,-1 1,-2l0 -16c0,-1 -1,-1 -1,-2 0,0 -1,0 -2,0l-8 0zm48 40c0,1 0,1 -1,2 0,0 -1,0 -1,0l-1 0c-1,0 -1,0 -2,0 0,-1 -1,-1 -1,-2l0 -28c0,-1 1,-1 1,-2 1,0 1,-1 2,-1l1 0c0,0 1,1 1,1 1,1 1,1 1,2l0 28zm-11 2c-1,0 -1,0 -2,0 0,-1 0,-1 0,-2l0 -33c0,-1 -1,-1 -1,-2 0,0 -1,0 -2,0l-3 0c-1,0 -1,-1 -2,-1 0,-1 0,-1 0,-2l0 -1c0,-1 0,-1 0,-2 1,0 1,0 2,0l3 0c1,0 2,-1 2,-1 0,-1 1,-1 1,-2l0 -2c0,0 -1,-1 -1,-1 0,-1 -1,-1 -2,-1l-3 0c-1,0 -1,0 -2,-1 0,0 0,-1 0,-1l0 -3c0,-1 0,-1 0,-2 1,0 1,0 2,0l11 0c1,0 1,0 2,0 0,-1 0,-1 0,-1 0,0 0,-1 1,-1 0,0 1,0 1,0l2 0c1,0 1,0 2,1 0,0 0,1 0,1 0,1 0,1 0,2 -1,1 -1,1 -1,2l-2 1c0,1 -1,1 -2,2 0,0 -1,0 -1,0 0,0 -1,0 -1,1 0,0 0,1 0,1l0 2c0,1 0,1 0,2 1,0 1,1 2,1l3 0c1,0 1,0 2,0 0,1 0,1 0,2l0 1c0,1 0,1 0,2 -1,0 -1,1 -2,1l-3 0c-1,0 -1,0 -2,0 0,1 0,1 0,2l0 33c0,1 -1,1 -1,2 0,0 -1,0 -2,0l-1 0zm-8 0c-1,0 -1,0 -2,0 0,-1 0,-1 0,-2l0 -28c0,-1 0,-1 0,-2 1,0 1,-1 2,-1l1 0c1,0 1,1 2,1 0,1 0,1 0,2l0 28c0,1 0,1 0,2 -1,0 -1,0 -2,0l-1 0zm38 -13c0,0 -1,0 -1,1 -1,0 -1,0 -1,0 0,0 0,1 0,1 0,0 0,1 0,1l1 2c1,1 1,1 2,2 0,0 0,0 1,0 0,0 0,1 0,1 1,0 1,1 1,2l0 1c0,1 0,1 -1,2 0,0 -1,0 -1,0l-1 0c-1,0 -2,0 -2,0 -1,-1 -1,-1 -2,-2l-2 -4c0,0 -1,-1 -1,-1 -1,0 -1,1 -1,1l-3 4c0,1 -1,1 -1,2 -1,0 -2,0 -2,0l-1 0c-1,0 -1,0 -2,0 0,-1 0,-1 0,-2l0 -1c0,-1 0,-2 0,-2 0,0 0,-1 1,-1 0,0 0,0 1,0 0,-1 1,-1 1,-2l1 -2c0,0 0,-1 0,-1 1,0 1,-1 0,-1 0,0 0,0 0,0 -1,-1 -1,-1 -2,-1l-1 -2c0,0 -1,-1 -1,-2 0,0 0,-1 0,-2l0 -35c0,0 0,-1 0,-1 1,-1 1,-1 2,-1l1 0c0,0 1,0 1,1 1,0 1,1 1,1l0 34c0,1 0,1 0,2 0,0 1,0 1,0 0,0 0,0 0,0 1,-1 1,-1 1,-2l0 -37c0,0 0,-1 0,-1 1,-1 1,-1 2,-1l1 0c1,0 2,0 2,1 0,0 1,1 1,1l0 37c0,1 0,1 0,2 0,0 0,0 1,0 0,0 0,0 0,0 0,-1 0,-1 0,-2l0 -34c0,0 1,-1 1,-1 0,-1 1,-1 2,-1l1 0c0,0 1,0 1,1 1,0 1,1 1,1l0 35c0,1 0,2 -1,2 0,1 0,2 -1,2l-1 2z"/>
 </g>
</svg>
