<?xml version="1.0" encoding="UTF-8"?>
<!DOCTYPE svg PUBLIC "-//W3C//DTD SVG 1.1//EN" "http://www.w3.org/Graphics/SVG/1.1/DTD/svg11.dtd">
<!-- Creator: CorelDRAW X8 -->
<svg xmlns="http://www.w3.org/2000/svg" xml:space="preserve" width="221.481mm" height="92.3984mm" version="1.1" style="shape-rendering:geometricPrecision; text-rendering:geometricPrecision; image-rendering:optimizeQuality; fill-rule:evenodd; clip-rule:evenodd"
viewBox="0 0 224 93"
 xmlns:xlink="http://www.w3.org/1999/xlink">
 <defs>
  <style type="text/css">
   <![CDATA[
    .fil0 {fill:#FE87C1}
    .fil1 {fill:#FEFEFE;fill-rule:nonzero}
   ]]>
  </style>
 </defs>
 <g id="图层_x0020_1">
  <metadata id="CorelCorpID_0Corel-Layer"/>
  <path class="fil0" d="M8 0l208 0c4,0 8,3 8,7l0 79c0,4 -4,7 -8,7l-208 0c-4,0 -8,-3 -8,-7l0 -79c0,-4 4,-7 8,-7z"/>
  <path class="fil1" d="M104 74l-24 0c0,0 0,-1 -1,-1 0,0 0,-1 0,-1l0 -15c0,-1 0,-1 -1,-1 0,-1 0,-1 0,-1 0,0 -1,0 -1,-1 0,0 0,-1 0,-1l0 -1c0,-1 0,-1 0,-2 0,0 1,0 1,0 0,0 0,-1 0,-1 1,0 1,-1 1,-1l0 -15c0,-1 0,-1 0,-2 1,0 1,0 2,0l23 0c0,0 1,0 1,0 1,1 1,1 1,2l0 15c0,0 0,1 0,1 0,0 0,1 1,1 0,0 0,0 0,0 0,1 0,1 0,2l0 1c0,0 0,1 0,1 0,1 0,1 0,1 -1,0 -1,0 -1,1 0,0 0,0 0,1l0 15c0,0 0,1 -1,1 0,0 -1,1 -1,1zm-20 -26c0,0 0,1 1,1 0,0 1,1 1,1l12 0c1,0 1,-1 2,-1 0,0 0,-1 0,-1l0 -10c0,0 0,-1 0,-1 -1,-1 -1,-1 -2,-1l-12 0c0,0 -1,0 -1,1 -1,0 -1,1 -1,1l0 10zm2 7c0,0 -1,0 -1,1 -1,0 -1,0 -1,1l0 9c0,1 0,1 1,2 0,0 1,0 1,0l12 0c1,0 1,0 2,0 0,-1 0,-1 0,-2l0 -9c0,-1 0,-1 0,-1 -1,-1 -1,-1 -2,-1l-12 0zm-18 15c0,0 0,-1 1,-1 0,-1 0,-1 0,-1 0,0 0,0 1,0 0,-1 0,-1 0,-2l0 -22c0,0 0,-1 0,-1 1,-1 1,-1 2,-1l1 0c1,0 1,0 2,1 0,0 0,1 0,1l0 28c0,0 0,1 0,1 -1,0 -1,1 -2,1l-3 0c-1,0 -1,-1 -1,-1 -1,0 -1,-1 -1,-1l0 -2zm13 -50c1,0 1,0 2,0 0,0 0,0 0,1 0,0 0,0 1,0 0,1 1,1 1,1l20 0c1,0 1,0 2,0 0,1 0,1 0,2l0 1c0,1 0,1 0,2 -1,0 -1,0 -2,0l-25 0c-1,0 -1,0 -2,0 0,-1 0,-1 0,-2l0 -4c0,0 0,0 0,-1 1,0 1,0 2,0l1 0zm13 22c0,0 1,0 1,0 1,0 1,1 1,1 1,0 1,1 1,1l0 2c0,0 0,1 -1,1 0,1 -1,1 -1,1l-5 0c-1,0 -1,0 -1,-1 -1,0 -1,-1 -1,-1l0 -5c0,-1 0,-1 1,-2 0,0 0,0 1,0l1 0c1,0 1,0 2,0 0,1 0,1 0,2 0,0 1,1 1,1zm-6 22l0 -5c0,0 0,-1 1,-1 0,0 0,-1 1,-1l1 0c1,0 1,1 2,1 0,0 0,1 0,1 0,1 1,1 1,1 0,1 1,1 1,1 1,0 1,0 1,1 1,0 1,0 1,1l0 1c0,1 0,1 -1,2 0,0 -1,0 -1,0l-5 0c-1,0 -1,0 -1,0 -1,-1 -1,-1 -1,-2zm-17 -42c0,-1 1,-1 2,-1 0,0 1,0 1,1l1 0c0,1 0,1 0,2 0,0 0,1 0,1l-1 1c0,1 -1,1 -1,1 -1,0 -2,0 -2,-1l-1 -1c0,0 0,-1 0,-1 0,-1 0,-1 0,-2l1 0zm-1 15c0,-1 0,-1 0,-2 0,0 0,-1 0,-1l1 -1c0,-1 1,-1 2,-1 0,0 1,0 1,1l1 1c0,0 0,1 0,1 0,1 0,1 0,2l-1 0c0,1 -1,1 -1,1 -1,0 -2,0 -2,-1l-1 0zm80 1c0,0 0,-1 0,-1 0,0 1,0 2,0l1 0c0,0 1,0 1,1 1,0 1,0 1,1l0 3c0,1 0,1 -1,2 0,0 -1,0 -1,0l0 0c-1,0 -1,1 -2,1 0,0 0,1 0,1l0 3c0,0 0,1 0,1 1,0 1,1 2,1l0 0c0,0 1,0 1,0 1,1 1,1 1,2l0 1c0,1 0,1 -1,2 0,0 -1,0 -1,0l0 0c-1,0 -1,0 -2,1 0,0 0,1 0,1l0 8c0,1 0,1 0,2 1,0 1,0 2,0l0 0c0,0 1,0 1,1 1,0 1,1 1,1l0 2c0,0 0,1 -1,1 0,0 -1,1 -1,1l-6 0c0,0 -1,-1 -1,-1 -1,0 -1,-1 -1,-1l0 -14c0,0 0,-1 0,-1 -1,-1 -1,-1 -2,-1l-10 0c0,0 -1,0 -1,1 -1,0 -1,1 -1,1l0 8c0,1 0,1 1,2 0,0 1,0 1,0 1,0 1,0 1,1 1,0 1,1 1,1l0 2c0,0 0,1 -1,1 0,0 -1,1 -1,1l-5 0c-1,0 -1,-1 -2,-1 0,0 0,-1 0,-1l0 -31c0,-1 0,-1 0,-2 1,0 1,0 2,0l19 0c1,0 2,0 2,0 0,-1 1,-1 1,-1zm-34 32c0,0 0,-1 1,-1 0,-1 0,-1 0,-1 0,0 1,0 1,0 0,-1 0,-1 0,-2l0 -34c0,0 0,-1 1,-1 0,-1 0,-1 1,-1l33 0c0,0 1,0 1,1 1,0 1,1 1,1l0 2c0,0 0,1 -1,1 0,0 -1,1 -1,1l-27 0c-1,0 -1,0 -2,0 0,0 0,1 0,2l0 34c0,0 -1,1 -1,1 0,0 -1,1 -2,1l-3 0c-1,0 -1,-1 -1,-1 -1,0 -1,-1 -1,-1l0 -2zm39 -44c0,0 0,1 -1,1 0,1 -1,1 -1,1l-33 0c0,0 -1,0 -1,-1 -1,0 -1,-1 -1,-1l0 -2c0,0 0,-1 1,-1 0,0 1,-1 1,-1l27 0c1,0 2,0 2,0 0,0 1,-1 1,-1 0,0 0,0 0,-1 0,0 1,0 2,0l1 0c0,0 1,0 1,0 1,1 1,1 1,2l0 4zm-10 20c0,0 0,-1 0,-1 -1,0 -1,-1 -2,-1l-10 0c0,0 -1,1 -1,1 -1,0 -1,1 -1,1l0 3c0,0 0,1 1,1 0,0 1,1 1,1l10 0c1,0 1,-1 2,-1 0,0 0,-1 0,-1l0 -3zm-6 13c1,0 1,1 2,1 0,0 1,1 1,1l0 5c0,1 0,1 0,2 0,0 0,0 1,0 0,0 0,0 1,1 0,0 0,1 0,1l0 2c0,0 0,1 -1,1 0,0 0,1 -1,1l-4 0c0,0 -1,-1 -1,-1 -1,0 -1,-1 -1,-1l0 -11c0,0 0,-1 1,-1 0,-1 1,-1 1,-1l1 0z"/>
 </g>
</svg>
