<?xml version="1.0" encoding="UTF-8"?>
<!DOCTYPE svg PUBLIC "-//W3C//DTD SVG 1.1//EN" "http://www.w3.org/Graphics/SVG/1.1/DTD/svg11.dtd">
<!-- Creator: CorelDRAW X8 -->
<svg xmlns="http://www.w3.org/2000/svg" xml:space="preserve" width="221.481mm" height="92.3983mm" version="1.1" style="shape-rendering:geometricPrecision; text-rendering:geometricPrecision; image-rendering:optimizeQuality; fill-rule:evenodd; clip-rule:evenodd"
viewBox="0 0 513 214"
 xmlns:xlink="http://www.w3.org/1999/xlink">
 <defs>
  <style type="text/css">
   <![CDATA[
    .fil2 {fill:#FEFEFE}
    .fil0 {fill:#C2E105}
    .fil1 {fill:#FEFEFE;fill-rule:nonzero}
   ]]>
  </style>
 </defs>
 <g id="图层_x0020_1">
  <metadata id="CorelCorpID_0Corel-Layer"/>
  <path class="fil0" d="M18 0l476 0c11,0 19,7 19,17l0 180c0,10 -8,17 -19,17l-476 0c-10,0 -18,-7 -18,-17l0 -180c0,-10 8,-17 18,-17z"/>
  <path class="fil1" d="M100 106c-4,0 -6,-2 -6,-5l0 -59c0,-2 1,-3 2,-5 1,-1 2,-1 4,-1l5 0 10 0c18,0 27,7 27,21 0,7 -2,13 -7,17 -5,4 -11,5 -19,5l-11 0 0 22c0,3 -2,5 -5,5zm5 -36l10 0c5,0 10,-1 12,-3 3,-2 4,-5 4,-10 0,-5 -1,-8 -4,-10 -3,-2 -7,-2 -13,-2l-9 0 0 13 0 12zm57 37c-4,0 -8,-1 -11,-4 -3,-3 -4,-6 -4,-11 0,-6 2,-10 7,-13 5,-3 13,-5 24,-6 0,-8 -3,-12 -10,-12 -3,0 -7,1 -11,3 -3,2 -5,1 -6,-1 -2,-3 -1,-5 1,-6 6,-3 12,-5 18,-5 6,0 11,2 14,6 4,4 5,9 5,16l0 16 0 12c0,3 -1,4 -5,4 -2,0 -4,-1 -5,-4l0 -2 0 0c-6,5 -11,7 -17,7zm3 -8c4,0 9,-2 13,-7l0 -6 0 -6c-7,0 -13,2 -16,4 -3,2 -5,4 -5,7 0,3 1,5 3,6 1,1 3,2 5,2zm55 8c-11,0 -16,-6 -16,-18l0 -27 -4 0c-3,0 -4,-1 -4,-4 0,-3 1,-4 4,-4l4 -1 1 -10c0,-3 2,-4 5,-4 3,0 5,1 5,4l0 10 9 0c3,0 4,2 4,5 0,3 -1,4 -4,4l-2 0 -7 0 0 27c0,6 2,10 7,10 1,0 1,-1 1,-1 3,0 5,1 6,4 1,2 0,4 -3,4 -2,1 -4,1 -6,1zm24 -1c-3,0 -5,-2 -5,-5l0 -21 0 -22c0,-3 1,-5 4,-5 3,0 5,2 5,5l1 5 0 0c2,-3 4,-6 7,-8 2,-2 5,-3 8,-3 1,0 2,0 2,0 3,1 4,3 3,6 -1,3 -3,5 -6,4 0,0 0,0 0,0 -3,0 -5,1 -7,2 -3,2 -5,5 -6,9l0 28c0,3 -2,5 -6,5zm37 22c0,0 -1,0 -3,0 -2,-1 -3,-2 -2,-5 1,-3 2,-4 5,-4 0,0 0,0 0,0 5,0 8,-3 11,-10l1 -3 -19 -46c-1,-4 0,-7 5,-7 3,0 5,2 6,5l8 23c0,1 1,3 2,6 1,4 2,6 3,8l0 0 4 -14 7 -23c1,-3 3,-5 6,-5 4,0 6,2 4,7l-7 21 -10 28c-2,6 -5,11 -8,14 -3,3 -7,5 -13,5z"/>
  <path class="fil2" d="M40 63c11,0 19,8 19,18 0,11 -8,19 -19,19 -10,0 -18,-8 -18,-19 0,-10 8,-18 18,-18z"/>
  <path class="fil1" d="M319 157c0,1 0,1 -1,2 0,0 -1,1 -1,1l-36 0c0,0 -1,-1 -1,-1 -1,-1 -1,-1 -1,-2l0 -1c0,-1 0,-1 1,-2 0,0 1,0 1,0l36 0c0,0 1,0 1,0 1,1 1,1 1,2l0 1zm4 41c0,1 0,1 -1,2 0,0 -1,0 -1,0l-2 0c-1,0 -2,0 -2,0 -1,-1 -2,-1 -2,-1l-2 -2c0,0 -1,-1 -1,-2 0,-1 0,-1 0,-2l0 -21c0,0 -1,-1 -1,-1 -1,-1 -1,-1 -2,-1l-28 0c0,0 -1,0 -1,-1 -1,0 -1,-1 -1,-1l0 -2c0,0 0,-1 1,-1 0,-1 1,-1 1,-1l34 0c1,0 2,0 2,1 1,0 1,1 1,1l0 26c0,0 0,1 0,1 1,1 1,1 2,1l1 0c0,0 1,0 1,1 1,0 1,1 1,1l0 2zm-4 -51c0,0 0,1 -1,1 0,1 -1,1 -1,1l-31 0c0,0 -1,0 -2,0 0,-1 -1,-1 -1,-2l-2 -2c-1,0 -1,-1 -1,-2 -1,0 -1,-1 -1,-2 0,0 0,-1 1,-1 0,-1 1,-1 1,-1l2 0c1,0 1,0 2,1 0,0 0,1 0,1 0,1 1,1 1,1 0,1 1,1 2,1l29 0c0,0 1,0 1,1 1,0 1,1 1,1l0 2zm50 17c0,0 -1,-1 -1,-1 -1,-1 -1,-1 -2,-1l-30 0c-1,0 -1,0 -2,-1 0,0 0,-1 0,-1l0 -1c0,-1 0,-1 0,-2 1,0 1,0 2,0l37 0c0,0 1,0 1,0 1,1 1,1 1,2l0 33c0,0 0,1 0,1 0,1 1,1 1,1 1,0 1,0 1,1 1,0 1,1 1,1l0 2c0,1 0,1 -1,2 0,0 -1,0 -1,0l-5 0c-1,0 -1,0 -2,0 0,-1 0,-1 0,-2l0 -34zm-27 36l-6 0c-1,0 -1,0 -2,0 0,-1 0,-1 0,-2l0 -2c0,0 0,-1 0,-1 1,-1 1,-1 2,-1 0,0 1,0 1,-1 1,0 1,-1 1,-1l0 -3c0,-1 0,-1 -1,-2 0,0 -1,-1 -1,-1 -1,0 -1,0 -2,0 0,-1 0,-1 0,-2l0 -1c0,0 0,-1 0,-1 1,-1 1,-1 2,-1l27 0c1,0 2,0 2,1 0,0 1,1 1,1l0 15c0,1 -1,1 -1,2 0,0 -1,0 -2,0l-11 0c-1,0 -1,0 -2,0 0,-1 0,-1 0,-2l0 -2c0,0 0,-1 0,-1 1,-1 1,-1 2,-1l5 0c1,0 1,0 2,-1 0,0 0,-1 0,-1l0 -3c0,-1 0,-1 0,-2 -1,0 -1,-1 -2,-1l-11 0c0,0 -1,1 -1,1 -1,1 -1,1 -1,2l0 9c0,1 0,1 -1,2 0,0 -1,0 -1,0zm-2 -21l-5 0c0,0 -1,0 -1,0 0,-1 0,-1 0,-2l0 -1c0,-1 0,-1 0,-2 0,0 0,0 1,0 0,0 0,0 0,-1 1,0 1,-1 1,-2l0 -5c0,0 0,-1 0,-1 1,-1 1,-1 2,-1l24 0c1,0 2,0 2,1 0,0 1,1 1,1l0 5c0,1 0,2 0,2 0,1 0,1 1,1 0,0 0,0 1,0 0,1 0,1 0,2l0 1c0,1 0,1 -1,2 0,0 0,0 -1,0l-4 0c-1,0 -1,0 -2,0 0,-1 0,-1 0,-2l0 -5c0,-1 -1,-1 -1,-2 -1,0 -1,0 -2,0l-12 0c0,0 -1,0 -1,0 -1,1 -1,1 -1,2l0 5c0,1 0,1 -1,2 0,0 -1,0 -1,0zm35 -32l-39 0c-1,0 -1,0 -2,0 0,-1 0,-1 0,-2l0 -3c0,-1 0,-2 0,-2 1,0 1,-1 2,-1l1 0c1,0 2,0 2,1 1,0 1,0 1,1 0,0 0,0 0,0 1,1 1,1 2,1l33 0c0,0 1,0 1,0 1,1 1,1 1,2l0 1c0,1 0,1 -1,2 0,0 -1,0 -1,0zm1 5c0,1 0,1 -1,2 0,0 -1,1 -1,1l-38 0c-1,0 -1,-1 -2,-1 0,-1 0,-1 0,-2l0 -1c0,0 0,-1 0,-1 1,-1 1,-1 2,-1l38 0c0,0 1,0 1,1 1,0 1,1 1,1l0 1zm52 5c0,1 -1,1 -1,2 0,0 -1,1 -2,1l-35 0c0,0 -1,-1 -1,-1 -1,-1 -1,-1 -1,-2l0 -1c0,-1 0,-1 1,-2 0,0 1,0 1,0l35 0c1,0 2,0 2,0 0,1 1,1 1,2l0 1zm4 41c0,1 0,1 -1,2 0,0 -1,0 -1,0l-3 0c0,0 -1,0 -2,0 0,-1 -1,-1 -1,-1l-2 -2c0,0 -1,-1 -1,-2 -1,-1 -1,-1 -1,-2l0 -21c0,0 0,-1 0,-1 -1,-1 -1,-1 -2,-1l-28 0c0,0 -1,0 -1,-1 -1,0 -1,-1 -1,-1l0 -2c0,0 0,-1 1,-1 0,-1 1,-1 1,-1l34 0c1,0 1,0 2,1 0,0 0,1 0,1l0 26c0,0 1,1 1,1 1,1 1,1 2,1l1 0c0,0 1,0 1,1 1,0 1,1 1,1l0 2zm-4 -51c0,0 -1,1 -1,1 0,1 -1,1 -2,1l-30 0c-1,0 -1,0 -2,0 -1,-1 -1,-1 -2,-2l-2 -2c0,0 0,-1 -1,-2 0,0 0,-1 0,-2 0,0 0,-1 1,-1 0,-1 1,-1 1,-1l2 0c0,0 1,0 1,1 1,0 1,1 1,1 0,1 0,1 1,1 0,1 1,1 1,1l29 0c1,0 2,0 2,1 0,0 1,1 1,1l0 2zm26 -2c0,0 -1,1 -1,1 -1,1 -1,1 -1,2l0 14c0,1 0,2 1,2 0,1 1,1 1,1 1,0 1,0 1,0 1,1 1,1 1,2l0 2c0,0 0,1 -1,1 0,1 0,1 -1,1 0,0 -1,0 -1,1 -1,0 -1,1 -1,1l0 19c0,0 0,1 1,1 0,1 1,1 1,1 1,0 1,0 1,1 1,0 1,1 1,1l0 2c0,1 0,1 -1,2 0,0 -1,0 -1,0l-9 0c-1,0 -2,0 -2,0 0,-1 -1,-1 -1,-2l0 -2c0,0 0,-1 1,-1 0,-1 1,-1 1,-1 1,0 1,0 2,-1 0,0 0,-1 0,-1l0 -19c0,0 0,-1 0,-1 -1,-1 -1,-1 -2,-1 0,0 -1,0 -1,-1 -1,0 -1,-1 -1,-1l0 -2c0,-1 0,-1 1,-2 0,0 1,0 1,0 1,0 1,0 2,-1 0,0 0,-1 0,-2l0 -14c0,-1 0,-1 0,-2 -1,0 -1,-1 -2,-1 0,0 -1,0 -1,0 -1,-1 -1,-1 -1,-2l0 -1c0,-1 1,-2 1,-2 0,0 1,-1 2,-1l9 0c0,0 1,1 1,1 1,0 1,1 1,2l0 1c0,1 0,1 -1,2 0,0 0,0 -1,0zm4 51c0,0 0,-1 0,-1 1,-1 1,-1 1,-1 1,0 1,0 1,-1 0,0 0,-1 0,-1l0 -16c0,-1 1,-1 1,-2 1,0 1,-1 2,-1l1 0c0,0 1,1 1,1 1,1 1,1 1,2l0 17c0,1 0,1 0,2 -1,1 -1,2 -2,2l-1 1c0,1 -1,1 -1,2 -1,0 -2,0 -2,0 -1,0 -1,0 -1,0 -1,-1 -1,-1 -1,-2l0 -2zm29 -33c0,1 -1,1 -1,2 0,1 -1,2 -1,2l-1 1c-1,1 -1,1 -2,2 -1,0 -1,0 -2,0l0 0c-1,0 -1,0 -2,0 0,-1 0,-1 0,-2l0 -2c0,0 0,-1 0,-1 0,-1 1,-1 1,-1 1,0 1,0 1,-1 1,0 1,-1 1,-1l0 -4c0,-1 0,-1 1,-2 0,0 1,0 1,0l1 0c1,0 1,0 2,0 0,1 1,1 1,2l0 5zm0 -19c0,1 -1,2 -1,2 0,1 -1,2 -1,2l-2 2c0,0 -1,1 -2,1 0,0 -1,1 -2,1l-1 0c-1,0 -1,0 -2,0 0,1 -1,1 -1,2l0 44c0,1 0,1 0,2 -1,0 -1,0 -2,0l-1 0c-1,0 -2,0 -2,0 -1,-1 -1,-1 -1,-2l0 -44c0,-1 0,-1 0,-2 -1,0 -1,0 -2,0l-7 0c-1,0 -1,-1 -2,-1 0,-1 0,-1 0,-2l0 -1c0,-1 0,-1 0,-2 1,0 1,-1 2,-1l7 0c1,0 1,0 2,0 0,-1 0,-1 0,-2l0 -1c0,-1 0,-2 1,-2 0,0 1,-1 2,-1l1 0c1,0 1,1 2,1 0,0 0,1 0,2l0 1c0,1 1,1 1,2 1,0 1,0 2,0l1 0c0,0 1,0 1,0 1,-1 1,-1 1,-2 0,0 0,-1 1,-1 0,-1 1,-1 1,-1l1 0c1,0 1,0 2,1 0,0 1,1 1,1l0 1zm0 54c0,1 -1,1 -1,2 0,0 -1,0 -1,0 -1,0 -1,0 -2,0 -1,-1 -1,-1 -2,-2l-1 -1c0,0 -1,-1 -1,-2 0,-1 0,-1 0,-2l0 -18c0,-1 0,-1 0,-2 1,0 1,0 2,0l1 0c0,0 1,0 1,0 1,1 1,1 1,2l0 17c0,0 0,1 0,1 1,1 1,1 1,1 1,0 1,0 1,1 0,0 1,1 1,1l0 2zm-26 -42c1,0 2,0 2,0 1,1 1,1 1,2l0 4c0,0 0,1 0,1 1,1 1,1 2,1 0,0 0,0 1,1 0,0 0,1 0,1l0 2c0,1 0,1 0,2 -1,0 -1,0 -2,0l0 0c-1,0 -1,0 -2,0 -1,-1 -1,-1 -2,-2l-1 -1c-1,0 -1,-1 -1,-2 -1,-1 -1,-1 -1,-2l0 -5c0,-1 1,-1 1,-2 0,0 1,0 2,0l0 0z"/>
 </g>
</svg>
