<?xml version="1.0" encoding="UTF-8"?>
<!DOCTYPE svg PUBLIC "-//W3C//DTD SVG 1.1//EN" "http://www.w3.org/Graphics/SVG/1.1/DTD/svg11.dtd">
<!-- Creator: CorelDRAW X8 -->
<svg xmlns="http://www.w3.org/2000/svg" xml:space="preserve" width="221.481mm" height="92.3984mm" version="1.1" style="shape-rendering:geometricPrecision; text-rendering:geometricPrecision; image-rendering:optimizeQuality; fill-rule:evenodd; clip-rule:evenodd"
viewBox="0 0 234 97"
 xmlns:xlink="http://www.w3.org/1999/xlink">
 <defs>
  <style type="text/css">
   <![CDATA[
    .fil0 {fill:#FE87C1}
    .fil1 {fill:#FEFEFE;fill-rule:nonzero}
   ]]>
  </style>
 </defs>
 <g id="图层_x0020_1">
  <metadata id="CorelCorpID_0Corel-Layer"/>
  <path class="fil0" d="M8 0l217 0c5,0 9,3 9,8l0 82c0,4 -4,7 -9,7l-217 0c-4,0 -8,-3 -8,-7l0 -82c0,-5 4,-8 8,-8z"/>
  <path class="fil1" d="M112 39c0,1 0,1 -1,2 0,0 -1,0 -1,0l-2 0c0,0 -1,0 -1,0 -1,-1 -1,-1 -1,-2l0 -1c0,0 0,-1 0,-1 -1,-1 -1,-1 -2,-1l-25 0c0,0 -1,0 -1,1 -1,0 -1,1 -1,1l0 1c0,1 0,1 0,2 -1,0 -1,0 -2,0l-1 0c-1,0 -2,0 -2,0 0,-1 -1,-1 -1,-2l0 -6c0,-1 1,-1 1,-2 0,0 1,0 2,0l36 0c0,0 1,0 1,0 1,1 1,1 1,2l0 6zm0 -17c0,1 0,1 -1,2 0,0 0,1 -1,1l-1 2c0,0 -1,1 -2,1 0,0 -1,0 -2,0l-31 0c-1,0 -2,0 -2,0 0,-1 -1,-1 -1,-2l0 -1c0,0 1,-1 1,-1 0,-1 1,-1 2,-1l30 0c1,0 1,0 2,0 0,0 0,-1 0,-1 0,0 0,-1 1,-1 0,0 1,0 1,0l2 0c0,0 1,0 1,0 1,0 1,1 1,1zm-15 37c-1,0 -1,1 -2,1 0,0 -1,1 -1,1l0 8c0,1 1,1 1,2 1,0 1,0 2,0l13 0c0,0 1,0 1,1 1,0 1,1 1,1l0 2c0,0 0,1 -1,1 0,1 -1,1 -1,1l-36 0c-1,0 -2,0 -2,-1 0,0 -1,-1 -1,-1l0 -2c0,0 1,-1 1,-1 0,-1 1,-1 2,-1l13 0c0,0 1,0 1,0 1,-1 1,-1 1,-2l0 -8c0,0 0,-1 -1,-1 0,0 -1,-1 -1,-1l-13 0c-1,0 -2,0 -2,0 0,-1 -1,-1 -1,-2l0 -1c0,-1 1,-1 1,-2 0,0 1,0 2,0l36 0c0,0 1,0 1,0 1,1 1,1 1,2l0 1c0,1 0,1 -1,2 0,0 -1,0 -1,0l-13 0zm-10 -16c0,1 -1,2 -1,2 0,1 0,2 -1,2l-1 2c-1,0 -1,0 -2,1 -1,0 -2,0 -2,0l-6 0c-1,0 -2,0 -2,0 0,-1 -1,-1 -1,-2l0 -1c0,-1 1,-1 1,-2 0,0 1,0 2,0l5 0c0,0 1,-1 1,-1 1,0 1,-1 1,-2l0 0c0,-1 0,-1 1,-2 0,0 0,0 1,0l1 0c1,0 2,0 2,0 0,1 1,1 1,2l0 1zm25 5c0,1 0,1 -1,2 0,0 -1,0 -1,0l-7 0c0,0 -1,0 -2,0 0,-1 -1,-1 -1,-1l-2 -2c0,0 -1,-1 -1,-2 0,0 0,-1 0,-2l0 -1c0,-1 0,-1 0,-2 1,0 1,0 2,0l1 0c1,0 1,0 2,0 0,1 0,1 0,2l0 0c0,1 1,2 1,2 0,0 1,1 2,1l5 0c0,0 1,0 1,0 1,1 1,1 1,2l0 1zm41 15c0,1 0,2 -1,2 0,1 0,2 -1,2l-1 1c-1,1 -1,1 -2,2 0,0 -1,0 -2,0l-13 0c0,0 -1,0 -1,-1 -1,0 -1,-1 -1,-1l0 -31c0,0 0,-1 1,-1 0,-1 1,-1 1,-1l18 0c0,0 1,0 1,1 1,0 1,1 1,1l0 26zm-31 -39c0,0 -1,-1 -1,-1 0,-1 1,-1 1,-2 1,0 1,0 2,0l1 0c1,0 1,0 2,0 0,0 0,1 0,1 0,0 0,1 1,1 0,0 1,1 1,1l31 0c1,0 1,0 2,0 0,1 0,1 0,2l0 44c0,1 0,1 0,2 -1,1 -1,1 -1,2l-2 1c0,1 -1,1 -2,1 0,1 -1,1 -1,1l-3 0c-1,0 -1,0 -2,-1 0,0 0,-1 0,-1l0 -2c0,0 0,-1 0,-1 1,-1 1,-1 2,-1l1 0c1,0 1,0 2,0 0,-1 0,-1 0,-2l0 -38c0,0 0,-1 0,-1 -1,-1 -1,-1 -2,-1l-26 0c0,0 -1,0 -2,0 0,-1 -1,-1 -1,-1l-2 -2c0,0 -1,-1 -1,-2zm-1 11c0,0 1,-1 1,-1 1,-1 1,-1 2,-1l1 0c1,0 1,0 2,1 0,0 0,1 0,1l0 40c0,0 0,1 0,1 -1,1 -1,1 -2,1l-1 0c-1,0 -1,0 -2,-1 0,0 -1,-1 -1,-1l0 -40zm24 29c1,0 1,0 2,0 0,-1 0,-1 0,-2l0 -5c0,0 0,-1 0,-1 -1,-1 -1,-1 -2,-1l-6 0c0,0 -1,0 -1,1 -1,0 -1,1 -1,1l0 5c0,1 0,1 1,2 0,0 1,0 1,0l6 0zm-6 -23c0,0 -1,0 -1,0 -1,1 -1,1 -1,2l0 4c0,1 0,1 1,2 0,0 1,1 1,1l6 0c1,0 1,-1 2,-1 0,-1 0,-1 0,-2l0 -4c0,-1 0,-1 0,-2 -1,0 -1,0 -2,0l-6 0z"/>
 </g>
</svg>
