<?xml version="1.0" encoding="UTF-8"?>
<!DOCTYPE svg PUBLIC "-//W3C//DTD SVG 1.1//EN" "http://www.w3.org/Graphics/SVG/1.1/DTD/svg11.dtd">
<!-- Creator: CorelDRAW X8 -->
<svg xmlns="http://www.w3.org/2000/svg" xml:space="preserve" width="221.481mm" height="92.3984mm" version="1.1" style="shape-rendering:geometricPrecision; text-rendering:geometricPrecision; image-rendering:optimizeQuality; fill-rule:evenodd; clip-rule:evenodd"
viewBox="0 0 273 114"
 xmlns:xlink="http://www.w3.org/1999/xlink">
 <defs>
  <style type="text/css">
   <![CDATA[
    .fil0 {fill:#FEB079}
    .fil1 {fill:#FEFEFE;fill-rule:nonzero}
   ]]>
  </style>
 </defs>
 <g id="图层_x0020_1">
  <metadata id="CorelCorpID_0Corel-Layer"/>
  <path class="fil0" d="M10 0l253 0c5,0 10,4 10,9l0 96c0,5 -5,9 -10,9l-253 0c-6,0 -10,-4 -10,-9l0 -96c0,-5 4,-9 10,-9z"/>
  <path class="fil1" d="M96 61c0,0 -1,0 -2,0 -1,1 -2,1 -2,1l-6 0c-1,0 -1,-1 -2,-1 0,-1 -1,-1 -1,-2l0 -2c0,0 1,-1 1,-1 1,-1 1,-1 2,-1l3 0c1,0 2,0 3,0 1,0 2,-1 2,-1l3 -2c1,0 1,0 1,0 0,0 0,-1 -1,-1l-11 0c-1,0 -1,0 -2,0 0,-1 -1,-1 -1,-2l0 -2c0,0 1,-1 1,-1 1,-1 1,-1 2,-1l15 0c1,0 1,0 2,-1 0,0 1,0 1,0 0,-1 -1,-1 -1,-1 -1,-1 -1,-1 -2,-1l-15 0c-1,0 -1,0 -2,0 0,-1 -1,-1 -1,-2l0 -1c0,-1 1,-1 1,-2 1,0 1,-1 2,-1l15 0c1,0 1,0 2,0 0,0 1,0 1,-1 0,0 -1,0 -1,-1 -1,0 -1,0 -2,0l-15 0c-1,0 -1,0 -2,-1 0,0 -1,-1 -1,-2l0 -1c0,-1 1,-1 1,-2 1,0 1,-1 2,-1l15 0c1,0 1,0 2,0 0,0 1,-1 1,-1 0,-1 0,-1 0,-1 1,-1 1,-1 2,-1l2 0c0,0 1,0 2,1 0,0 0,0 0,1 0,0 1,1 1,1 0,0 1,0 2,0l16 0c0,0 1,1 1,1 1,1 1,1 1,2l0 1c0,1 0,2 -1,2 0,1 -1,1 -1,1l-16 0c-1,0 -1,0 -2,0 0,1 -1,1 -1,1 0,1 1,1 1,1 1,0 1,0 2,0l16 0c0,0 1,1 1,1 1,1 1,1 1,2l0 1c0,1 0,1 -1,2 0,0 -1,0 -1,0l-16 0c-1,0 -2,0 -2,1 0,0 -1,0 -1,1 0,0 1,0 1,0 0,1 1,1 2,1l16 0c0,0 1,0 1,1 1,0 1,1 1,1l0 2c0,1 0,1 -1,2 0,0 -1,0 -1,0l-12 0c-1,0 -1,1 -1,1 0,0 0,0 1,1l2 1c1,0 2,0 3,1 1,0 1,0 2,0l5 0c0,0 1,0 1,1 1,0 1,1 1,1l0 2c0,1 0,1 -1,2 0,0 -1,1 -1,1l-7 0c0,0 -1,0 -2,-1 -1,0 -2,0 -2,0l-9 -5c0,0 -1,0 -2,0 -1,0 -2,0 -2,0l-9 5zm35 26c0,1 0,1 -1,2 0,0 -1,1 -1,1l-43 0c-1,0 -1,-1 -2,-1 0,-1 -1,-1 -1,-2l0 -21c0,0 1,-1 1,-1 1,-1 1,-1 2,-1l43 0c0,0 1,0 1,1 1,0 1,1 1,1l0 21zm-9 -4c1,0 1,0 2,-1 0,0 1,0 1,-1 0,0 -1,-1 -1,-1 -1,0 -1,-1 -2,-1l-29 0c-1,0 -2,1 -2,1 -1,0 -1,1 -1,1 0,1 0,1 1,1 0,1 1,1 2,1l29 0zm-29 -12c-1,0 -2,0 -2,0 -1,0 -1,1 -1,1 0,1 0,1 1,2 0,0 1,0 2,0l29 0c1,0 1,0 2,0 0,-1 1,-1 1,-2 0,0 -1,-1 -1,-1 -1,0 -1,0 -2,0l-29 0zm49 -44c0,-1 0,-2 1,-2 0,-1 1,-1 1,-1l43 0c1,0 1,0 2,1 0,0 0,1 0,2l0 1c0,1 0,2 0,2 -1,0 -1,1 -2,1l-16 0c0,0 -1,0 -1,0 -1,1 -1,2 -1,2l0 12c0,1 0,2 1,2 0,0 1,1 1,1l16 0c1,0 1,0 2,0 0,1 0,2 0,2l0 2c0,1 0,1 0,2 -1,0 -1,0 -2,0l-16 0c0,0 -1,0 -1,1 -1,0 -1,0 -1,0 0,1 0,1 0,2 1,0 1,1 1,2l12 22c0,0 1,1 1,1 1,1 2,1 2,1l2 0c1,0 1,0 2,1 0,0 0,1 0,2l0 1c0,1 0,1 0,2 -1,0 -1,1 -2,1l-6 0c0,0 -1,-1 -2,-1 0,0 -1,-1 -1,-2l-11 -20c-1,-1 -1,-1 -1,-1 -1,0 -1,0 -2,1l-10 20c-1,1 -1,2 -2,2 -1,0 -1,1 -2,1l-6 0c0,0 -1,-1 -1,-1 -1,-1 -1,-1 -1,-2l0 -1c0,-1 0,-2 1,-2 0,-1 1,-1 1,-1l2 0c1,0 1,0 2,-1 1,0 1,-1 2,-1l11 -22c0,-1 1,-2 1,-2 0,-1 0,-1 0,-2 0,0 0,0 0,0 -1,-1 -2,-1 -2,-1l-16 0c0,0 -1,0 -1,0 -1,-1 -1,-1 -1,-2l0 -2c0,0 0,-1 1,-2 0,0 1,0 1,0l16 0c0,0 1,-1 2,-1 0,0 0,-1 0,-2l0 -12c0,0 0,-1 0,-2 -1,0 -2,0 -2,0l-16 0c0,0 -1,-1 -1,-1 -1,0 -1,-1 -1,-2l0 -1z"/>
 </g>
</svg>
