<?xml version="1.0" encoding="UTF-8"?>
<!DOCTYPE svg PUBLIC "-//W3C//DTD SVG 1.1//EN" "http://www.w3.org/Graphics/SVG/1.1/DTD/svg11.dtd">
<!-- Creator: CorelDRAW X8 -->
<svg xmlns="http://www.w3.org/2000/svg" xml:space="preserve" width="221.481mm" height="92.3984mm" version="1.1" style="shape-rendering:geometricPrecision; text-rendering:geometricPrecision; image-rendering:optimizeQuality; fill-rule:evenodd; clip-rule:evenodd"
viewBox="0 0 266 111"
 xmlns:xlink="http://www.w3.org/1999/xlink">
 <defs>
  <style type="text/css">
   <![CDATA[
    .fil0 {fill:#FEB079}
    .fil1 {fill:#FEFEFE;fill-rule:nonzero}
   ]]>
  </style>
 </defs>
 <g id="图层_x0020_1">
  <metadata id="CorelCorpID_0Corel-Layer"/>
  <path class="fil0" d="M10 0l246 0c6,0 10,4 10,9l0 93c0,5 -4,9 -10,9l-246 0c-6,0 -10,-4 -10,-9l0 -93c0,-5 4,-9 10,-9z"/>
  <path class="fil1" d="M85 63c1,0 1,0 2,0 0,1 1,1 1,1 0,0 0,0 0,1 1,0 1,0 2,0l35 0c1,0 1,0 2,0 0,1 0,2 0,2l0 6c0,0 0,1 0,2 -1,0 -1,1 -2,1l-10 4c0,0 -1,0 -1,0 0,1 0,1 1,1 0,0 1,0 2,0 0,1 1,1 2,1l6 0c1,0 1,0 2,0 0,1 0,1 0,2l0 1c0,1 0,1 0,2 -1,0 -1,0 -2,0l-7 0c0,0 -1,0 -2,0 -1,0 -2,0 -3,0l-6 -3c0,0 -1,0 -2,0 -1,0 -2,0 -2,0l-6 3c-1,0 -1,0 -2,0 -1,0 -2,0 -3,0l-8 0c-1,0 -2,0 -2,0 -1,-1 -1,-1 -1,-2l0 -1c0,-1 0,-1 1,-2 0,0 1,0 2,0l6 0c1,0 2,0 3,-1 0,0 1,0 1,0 1,0 1,0 1,-1 0,0 -1,0 -1,0l-2 -1c0,0 -1,0 -2,0 -1,-1 -2,-1 -2,-1l-4 0c-1,0 -2,0 -2,0 -1,-1 -1,-2 -1,-2l0 -1c0,-1 0,-1 1,-2 0,0 1,-1 2,-1l4 0c1,0 2,1 3,1 1,0 1,0 2,0l9 3c1,1 2,1 3,1 0,0 1,0 2,-1l12 -4c1,0 1,0 2,-1 0,0 1,0 1,0 0,0 -1,0 -1,0 -1,0 -1,0 -2,0l-30 0c-1,0 -2,-1 -2,-1 -1,0 -2,-1 -2,-1l-2 -1c0,-1 -1,-1 -1,-2 -1,-1 -1,-1 -1,-1 0,-1 0,-1 1,-1 0,-1 1,-1 2,-1l1 0zm-4 -37c0,-1 0,-1 1,-2 0,0 1,0 2,0l41 0c1,0 1,0 2,0 0,1 0,1 0,2l0 2c0,0 0,1 0,1 -1,1 -1,1 -2,1l-15 0c0,0 -1,0 -1,0 -1,1 -1,1 -1,1 0,1 0,1 1,1 0,1 1,1 1,1l15 0c1,0 1,0 2,0 0,1 0,1 0,2l0 20c0,0 0,1 0,2 -1,1 -1,1 -1,2l-2 1c-1,1 -1,1 -2,1 -1,0 -2,1 -2,1l-36 0c-1,0 -2,-1 -2,-1 -1,-1 -1,-1 -1,-2l0 -24c0,-1 0,-1 1,-2 0,0 1,0 2,0l15 0c1,0 1,0 2,-1 0,0 1,0 1,-1 0,0 -1,0 -1,-1 -1,0 -1,0 -2,0l-15 0c-1,0 -2,0 -2,-1 -1,0 -1,-1 -1,-1l0 -2zm7 21c0,0 0,0 0,0 0,1 0,1 0,1 1,1 1,1 2,1l29 0c0,0 1,0 1,-1 1,0 1,0 1,-1 0,0 0,0 -1,0 0,-1 -1,-1 -1,-1l-29 0c-1,0 -1,0 -2,1zm31 9c0,0 1,0 1,0 1,-1 1,-1 1,-1 0,0 0,-1 -1,-1 0,0 -1,0 -1,0l-29 0c-1,0 -1,0 -2,0 0,0 0,1 0,1 0,0 0,0 0,1 1,0 1,0 2,0l29 0zm1 -15c1,-1 1,-1 1,-1 0,-1 0,-1 -1,-1 0,-1 -1,-1 -1,-1l-29 0c-1,0 -1,0 -2,1 0,0 0,0 0,1 0,0 0,0 0,1 1,0 1,0 2,0l29 0c0,0 1,0 1,0zm18 -15c0,-1 0,-1 1,-2 0,0 1,-1 2,-1l41 0c1,0 1,1 2,1 0,1 1,1 1,2l0 2c0,0 -1,1 -1,1 -1,1 -1,1 -2,1l-15 0c-1,0 -1,0 -2,1 0,0 0,1 0,1l0 12c0,1 0,1 0,2 1,0 1,1 2,1l15 0c1,0 1,0 2,0 0,1 1,1 1,2l0 2c0,0 -1,1 -1,1 -1,1 -1,1 -2,1l-15 0c-1,0 -1,0 -2,0 0,0 0,1 0,1 0,0 0,1 0,1 0,1 0,1 1,2l11 22c0,0 1,1 2,1 0,1 1,1 2,1l1 0c1,0 1,0 2,1 0,0 1,1 1,1l0 2c0,1 -1,1 -1,2 -1,0 -1,0 -2,0l-5 0c-1,0 -2,0 -2,0 -1,-1 -2,-1 -2,-2l-10 -20c-1,-1 -1,-1 -2,-1 0,0 0,0 -1,1l-10 20c-1,1 -1,1 -2,2 -1,0 -1,0 -2,0l-5 0c-1,0 -2,0 -2,0 -1,-1 -1,-1 -1,-2l0 -2c0,0 0,-1 1,-1 0,-1 1,-1 2,-1l1 0c1,0 2,0 2,-1 1,0 1,-1 2,-1l11 -22c0,0 1,-1 1,-2 0,0 0,-1 0,-1 0,0 0,-1 -1,-1 0,0 -1,0 -1,0l-15 0c-1,0 -2,0 -2,-1 -1,0 -1,-1 -1,-1l0 -2c0,-1 0,-1 1,-2 0,0 1,0 2,0l15 0c0,0 1,-1 1,-1 1,-1 1,-1 1,-2l0 -12c0,0 0,-1 -1,-1 0,-1 -1,-1 -1,-1l-15 0c-1,0 -2,0 -2,-1 -1,0 -1,-1 -1,-1l0 -2z"/>
 </g>
</svg>
