<?xml version="1.0" encoding="UTF-8"?>
<!DOCTYPE svg PUBLIC "-//W3C//DTD SVG 1.1//EN" "http://www.w3.org/Graphics/SVG/1.1/DTD/svg11.dtd">
<!-- Creator: CorelDRAW X8 -->
<svg xmlns="http://www.w3.org/2000/svg" xml:space="preserve" width="221.481mm" height="92.3983mm" version="1.1" style="shape-rendering:geometricPrecision; text-rendering:geometricPrecision; image-rendering:optimizeQuality; fill-rule:evenodd; clip-rule:evenodd"
viewBox="0 0 259 108"
 xmlns:xlink="http://www.w3.org/1999/xlink">
 <defs>
  <style type="text/css">
   <![CDATA[
    .fil0 {fill:#FEB079}
    .fil1 {fill:#FEFEFE;fill-rule:nonzero}
   ]]>
  </style>
 </defs>
 <g id="图层_x0020_1">
  <metadata id="CorelCorpID_0Corel-Layer"/>
  <path class="fil0" d="M9 0l241 0c5,0 9,4 9,8l0 92c0,4 -4,8 -9,8l-241 0c-5,0 -9,-4 -9,-8l0 -92c0,-4 4,-8 9,-8z"/>
  <path class="fil1" d="M120 85l-27 0c0,0 -1,0 -1,0 -1,-1 -1,-1 -1,-2l0 -17c0,-1 0,-1 0,-2 0,0 -1,0 -1,0 0,0 0,0 0,-1 -1,0 -1,-1 -1,-2l0 -1c0,-1 0,-1 1,-2 0,0 0,-1 0,-1 0,0 1,0 1,0 0,-1 0,-1 0,-2l0 -17c0,-1 0,-1 1,-2 0,0 1,0 2,0l26 0c1,0 1,0 2,0 0,1 1,1 1,2l0 17c0,1 0,1 0,2 0,0 0,0 0,0 1,0 1,1 1,1 0,1 0,1 0,2l0 1c0,1 0,2 0,2 0,1 0,1 -1,1 0,0 0,0 0,0 0,1 0,1 0,2l0 17c0,1 -1,1 -1,2 -1,0 -1,0 -2,0zm-22 -30c0,1 0,1 0,2 1,0 1,0 2,0l14 0c0,0 1,0 2,0 0,-1 0,-1 0,-2l0 -11c0,0 0,-1 0,-1 -1,-1 -2,-1 -2,-1l-14 0c-1,0 -1,0 -2,1 0,0 0,1 0,1l0 11zm2 9c-1,0 -1,0 -2,0 0,1 0,1 0,2l0 11c0,0 0,1 0,1 1,1 1,1 2,1l14 0c1,0 1,0 2,-1 0,0 0,-1 0,-1l0 -11c0,-1 0,-1 0,-2 -1,0 -2,0 -2,0l-14 0zm-21 17c0,0 0,-1 0,-1 1,-1 1,-1 1,-1 0,0 1,0 1,-1 0,0 0,-1 0,-1l0 -26c0,-1 0,-1 1,-2 0,0 1,0 1,0l2 0c1,0 1,0 2,0 0,1 0,1 0,2l0 32c0,1 0,1 0,2 -1,0 -1,0 -2,0l-4 0c-1,0 -1,0 -1,0 -1,-1 -1,-1 -1,-2l0 -2zm15 -58c1,0 1,0 2,0 0,0 0,1 0,1 0,0 1,1 1,1 1,0 1,0 2,0l23 0c1,0 1,0 2,1 0,0 0,1 0,2l0 1c0,1 0,1 0,2 -1,0 -1,0 -2,0l-29 0c-1,0 -2,0 -2,0 -1,-1 -1,-1 -1,-2l0 -4c0,-1 0,-1 1,-2 0,0 1,0 2,0l1 0zm15 26c0,0 1,0 1,0 1,0 1,0 2,1 0,0 0,1 0,2l0 1c0,1 0,1 0,2 -1,0 -1,0 -2,0l-6 0c0,0 -1,0 -1,0 -1,-1 -1,-1 -1,-2l0 -6c0,0 0,-1 1,-1 0,-1 1,-1 1,-1l2 0c1,0 1,0 2,1 0,0 0,1 0,1 0,1 0,1 1,2zm-7 26l0 -6c0,-1 0,-1 1,-2 0,0 1,-1 1,-1l2 0c1,0 1,1 2,1 0,0 0,1 0,2 0,0 0,1 1,1 0,0 1,1 1,1 1,0 1,0 2,0 0,1 0,1 0,2l0 2c0,0 0,1 0,1 -1,1 -1,1 -2,1l-6 0c0,0 -1,0 -1,-1 -1,0 -1,-1 -1,-1zm-20 -50c1,-1 1,-1 2,-1 1,0 1,0 2,1l1 1c0,1 1,1 1,2 0,0 -1,1 -1,1l-1 1c-1,1 -1,1 -2,1 -1,0 -1,0 -2,-1l-1 -1c0,0 0,-1 0,-1 0,-1 0,-1 0,-2l1 -1zm-1 17c0,0 0,-1 0,-1 0,-1 0,-2 0,-2l1 -1c1,-1 1,-1 2,-1 1,0 1,0 2,1l1 1c0,0 1,1 1,2 0,0 -1,1 -1,1l-1 1c-1,1 -1,1 -2,1 -1,0 -1,0 -2,-1l-1 -1zm70 -19c1,0 2,0 2,1 0,0 1,0 1,1 0,1 0,1 1,1 0,1 1,1 1,1l3 0c1,0 2,0 2,1 0,0 1,1 1,2l0 1c0,1 -1,1 -1,2 0,0 -1,0 -2,0l-4 0c-1,0 -1,0 -2,0 -1,0 -2,-1 -2,-1l-2 -2c0,0 -1,-1 -1,-2 0,-1 -1,-1 -1,-2l0 -1c0,0 1,-1 1,-1 1,-1 1,-1 2,-1l1 0zm-14 29c0,-1 0,-2 0,-2 1,-1 1,-1 2,-1l1 0c1,0 2,0 2,1 1,0 1,1 1,2l0 26c0,1 0,1 -1,2 0,1 0,1 -1,2l-1 2c-1,0 -1,0 -2,1 -1,0 -1,0 -2,0 0,0 0,0 -1,0 0,-1 0,-1 0,-2l0 -2c0,0 0,-1 0,-1 0,-1 0,-1 1,-1 0,0 0,0 0,-1 0,0 1,-1 1,-1l0 -25zm32 -9c0,0 -1,0 -1,1 -1,0 -1,1 -1,1l0 7c0,1 0,1 1,2 0,0 1,0 1,0l9 0c0,0 1,1 1,1 1,1 1,1 1,2l0 1c0,1 0,2 -1,2 0,1 -1,1 -1,1l-9 0c0,0 -1,0 -1,0 -1,1 -1,2 -1,2l0 8c0,0 0,1 1,1 0,1 1,1 1,1l9 0c0,0 1,0 1,1 1,0 1,1 1,2l0 1c0,1 0,1 -1,2 0,0 -1,0 -1,0l-9 0c0,0 -1,1 -1,1 -1,1 -1,1 -1,2l0 1c0,1 0,1 -1,2 0,0 -1,0 -1,0l-2 0c-1,0 -1,0 -2,0 0,-1 0,-1 0,-2l0 -1c0,-1 -1,-1 -1,-2 -1,0 -1,-1 -2,-1l-8 0c-1,0 -1,0 -2,0 0,-1 -1,-1 -1,-2l0 -1c0,-1 1,-2 1,-2 1,-1 1,-1 2,-1l8 0c1,0 1,0 2,-1 0,0 1,-1 1,-1l0 -8c0,0 -1,-1 -1,-2 -1,0 -1,0 -2,0l-8 0c-1,0 -1,0 -2,-1 0,0 -1,-1 -1,-2l0 -1c0,-1 1,-1 1,-2 1,0 1,-1 2,-1l8 0c1,0 1,0 2,0 0,-1 1,-1 1,-2l0 -7c0,0 -1,-1 -1,-1 -1,-1 -1,-1 -2,-1l-8 0c-1,0 -1,0 -2,-1 0,0 -1,-1 -1,-2l0 -1c0,-1 1,-1 1,-2 1,0 1,-1 2,-1l28 0c0,0 1,1 1,1 1,1 1,1 1,2l0 1c0,1 0,2 -1,2 0,1 -1,1 -1,1l-9 0zm-26 -17c0,1 0,2 0,2 0,1 0,1 0,2l-2 1c0,0 -1,1 -1,1 -1,0 -1,-1 -2,-1l-1 -1c-1,-1 -1,-1 -1,-2 0,0 0,-1 1,-2l1 -1c1,0 1,0 2,0 0,0 1,0 1,0l2 1zm0 13c0,1 0,1 0,2 0,1 0,1 0,2l-2 1c0,0 -1,1 -1,1 -1,0 -1,-1 -2,-1l-1 -1c-1,-1 -1,-1 -1,-2 0,-1 0,-1 1,-2l1 -1c1,0 1,0 2,0 0,0 1,0 1,0l2 1zm34 -7c-1,0 -1,1 -2,1 -1,0 -2,0 -2,0l-5 0c0,0 -1,0 -1,0 -1,-1 -1,-1 -1,-2l0 -1c0,-1 0,-2 1,-2 0,-1 1,-1 1,-1l3 0c1,0 2,0 2,-1 1,0 1,0 1,-1 0,-1 0,-1 1,-1 0,-1 1,-1 1,-1l2 0c0,0 1,0 1,1 1,0 1,1 1,1l0 1c0,1 0,1 0,2 -1,1 -1,2 -2,2l-1 2z"/>
 </g>
</svg>
