<?xml version="1.0" encoding="UTF-8"?>
<!DOCTYPE svg PUBLIC "-//W3C//DTD SVG 1.1//EN" "http://www.w3.org/Graphics/SVG/1.1/DTD/svg11.dtd">
<!-- Creator: CorelDRAW X8 -->
<svg xmlns="http://www.w3.org/2000/svg" xml:space="preserve" width="221.481mm" height="92.3983mm" version="1.1" style="shape-rendering:geometricPrecision; text-rendering:geometricPrecision; image-rendering:optimizeQuality; fill-rule:evenodd; clip-rule:evenodd"
viewBox="0 0 266 111"
 xmlns:xlink="http://www.w3.org/1999/xlink">
 <defs>
  <style type="text/css">
   <![CDATA[
    .fil0 {fill:#FEB079}
    .fil1 {fill:#FEFEFE;fill-rule:nonzero}
   ]]>
  </style>
 </defs>
 <g id="图层_x0020_1">
  <metadata id="CorelCorpID_0Corel-Layer"/>
  <path class="fil0" d="M10 0l246 0c6,0 10,4 10,9l0 93c0,5 -4,9 -10,9l-246 0c-6,0 -10,-4 -10,-9l0 -93c0,-5 4,-9 10,-9z"/>
  <path class="fil1" d="M125 43c0,1 -1,1 -1,2 -1,0 -1,1 -1,1 0,1 1,1 1,1 0,0 1,1 2,1 0,0 1,0 1,0 1,1 1,1 1,2l0 0c0,1 0,1 -1,2 0,1 -1,1 -1,1 -1,0 -2,0 -2,0 0,0 -1,1 -1,1 0,0 1,0 1,1 0,0 1,0 2,0 0,0 1,0 1,1 1,0 1,1 1,2l0 0c0,0 0,1 -1,1 0,1 -1,1 -2,1l0 0c-1,0 -2,0 -2,1 -1,0 -1,0 -1,0 0,1 0,1 1,1 0,1 1,1 2,1l0 0c1,0 2,0 2,0 1,1 1,1 1,2l0 0c0,1 0,2 -1,2 0,1 -1,1 -2,1l-2 0c0,0 -1,0 -2,-1 -1,0 -2,0 -2,-1l-1 -1c-1,0 -1,-1 -2,-1 0,-1 0,-1 0,-2 0,0 -1,-1 -1,-1 -1,-1 -1,-1 -2,-1l-5 0c-1,0 -2,0 -2,1 -1,0 -1,1 -1,1 0,1 0,1 -1,2 0,0 0,1 -1,1l-1 1c-1,1 -1,1 -2,1 -1,1 -2,1 -3,1l-2 0c0,0 -1,0 -1,-1 -1,0 -1,-1 -1,-2l0 0c0,-1 0,-1 1,-2 0,0 1,0 1,0l1 0c1,0 1,0 2,-1 0,0 1,0 1,-1 0,0 -1,0 -1,0 -1,-1 -1,-1 -2,-1l-1 0c0,0 -1,0 -1,-1 -1,0 -1,-1 -1,-1l0 0c0,-1 0,-2 1,-2 0,-1 1,-1 1,-1 1,0 1,0 2,0 0,-1 0,-1 0,-1 0,0 0,-1 0,-1 -1,0 -1,0 -2,0 0,0 -1,0 -1,-1 -1,-1 -1,-1 -1,-2l0 0c0,-1 0,-1 1,-2 0,0 1,0 1,0 1,0 1,-1 2,-1 0,0 0,0 0,-1 0,0 0,0 0,0 -1,0 -1,-1 -2,-1 0,0 -1,0 -1,0 -1,-1 -1,-1 -1,-2l0 -17c0,-1 0,-1 1,-2 0,0 1,0 1,0l30 0c1,0 2,0 2,0 1,1 1,1 1,2l0 12c0,1 0,2 -1,3 0,0 0,1 -1,1l-1 1zm-6 -3c1,0 1,0 2,-1 0,0 0,0 0,-1 0,0 0,0 0,-1 -1,0 -1,0 -2,0l-17 0c-1,0 -1,0 -2,0 0,1 -1,1 -1,1 0,1 1,1 1,1 1,1 1,1 2,1l17 0zm-17 -11c-1,0 -1,0 -2,1 0,0 -1,0 -1,1 0,0 1,0 1,0 1,1 1,1 2,1l17 0c1,0 1,0 2,-1 0,0 0,0 0,0 0,-1 0,-1 0,-1 -1,-1 -1,-1 -2,-1l-17 0zm15 25c0,0 0,-1 -1,-1 0,0 -1,0 -2,0l-8 0c0,0 -1,0 -1,0 -1,0 -1,1 -1,1 0,0 0,0 1,1 0,0 1,0 1,0l8 0c1,0 2,0 2,0 1,-1 1,-1 1,-1zm-3 -6c1,0 2,-1 2,-1 1,0 1,0 1,-1 0,0 0,0 -1,0 0,0 -1,-1 -2,-1l-8 0c0,0 -1,1 -1,1 -1,0 -1,0 -1,0 0,1 0,1 1,1 0,0 1,1 1,1l8 0zm-25 -22c1,1 1,1 1,2 0,1 0,1 -1,2l-1 1c-1,0 -1,1 -2,1 0,0 -1,-1 -1,-1l-2 -1c0,-1 0,-1 0,-2 0,-1 0,-1 0,-2l2 -1c0,0 1,-1 1,-1 1,0 1,1 2,1l1 1zm8 44c1,0 1,0 2,0 0,0 0,0 0,1 0,0 1,0 1,1 1,0 1,0 2,0l1 0c1,0 1,0 2,1 1,0 1,1 1,1l0 1c0,0 0,1 -1,1 -1,1 -1,1 -2,1l-2 0c-1,0 -2,0 -3,0 -1,-1 -1,-1 -2,-1l-1 -1c-1,-1 -1,-1 -2,-2 0,-1 0,-1 0,-2 0,0 0,-1 1,-1 0,0 1,0 1,0l2 0zm-12 -31c0,-1 1,-1 1,-1 1,0 1,0 2,1l1 1c1,0 1,1 1,1 0,1 0,2 -1,2l-1 1c-1,1 -1,1 -2,1 0,0 -1,0 -1,-1l-2 -1c0,0 0,-1 0,-2 0,0 0,-1 0,-1l2 -1zm1 47c0,0 -1,1 -2,1 0,0 -1,0 -1,0 -1,0 -1,0 -1,0 -1,-1 -1,-1 -1,-2l0 -2c0,0 0,-1 0,-1 1,-1 1,-1 1,-1 0,0 1,0 1,-1 0,0 0,-1 0,-1l0 -27c0,0 0,-1 1,-2 0,0 1,0 1,0l2 0c1,0 1,0 2,0 0,1 1,2 1,2l0 28c0,0 -1,1 -1,2 0,1 -1,1 -1,2l-2 2zm42 -15c0,1 0,1 -1,2 0,1 -1,1 -1,2l-1 1c-1,0 -2,0 -2,1 -1,0 -2,0 -3,0l-3 0c0,0 -1,0 -1,-1 -1,0 -1,-1 -1,-1l0 -1c0,0 0,-1 1,-1 0,-1 1,-1 1,-1l2 0c1,0 1,0 2,0 0,-1 0,-1 0,-1 0,-1 1,-1 1,-1 1,0 1,0 2,0l1 0c1,0 2,0 2,0 1,0 1,1 1,1zm0 14c0,0 0,1 -1,1 0,1 -1,1 -2,1l-2 0c-1,0 -2,0 -3,0 -1,-1 -1,-1 -2,-2l-1 0c-1,-1 -1,-1 -1,-2 -1,-1 -1,-2 -1,-2 0,-1 0,-1 1,-2 0,0 1,0 1,0l2 0c1,0 1,0 2,0 0,0 0,0 0,0l0 2c0,0 1,0 1,0 1,1 1,1 2,1l1 0c1,0 2,0 2,0 1,1 1,2 1,2l0 1zm-20 2c0,0 -1,0 -1,0 -1,0 -1,0 -2,0 0,0 0,-1 0,-1 0,-1 -1,-1 -1,-1 0,0 -1,0 -1,0l-1 0c0,1 -1,1 -2,2 0,0 -1,0 -2,0l-3 0c0,0 -1,0 -1,-1 -1,0 -1,-1 -1,-1l0 -1c0,0 0,-1 1,-2 0,0 1,0 1,0l2 0c1,0 1,0 2,-1 0,0 0,0 0,0l0 -2c0,0 1,0 1,0 0,0 1,0 2,0l1 0c1,0 1,0 2,0 0,0 1,1 1,1 0,1 0,1 0,1 0,0 0,1 0,1 1,0 1,-1 1,-1 0,-1 0,-1 0,-2l0 -11c0,-1 0,-1 1,-2 0,0 1,0 2,0l1 0c1,0 1,0 2,0 0,1 1,1 1,2l0 13c0,0 -1,1 -1,2 0,0 -1,1 -1,2l-2 1c0,0 -1,1 -2,1zm67 -9c0,0 0,0 1,0 1,0 1,-1 1,-1 1,0 1,-1 1,-2l0 -22c0,-1 0,-2 -1,-2 0,0 -1,-1 -2,-1l-2 0c-1,0 -1,1 -2,1 0,0 0,1 0,2l0 32c0,1 -1,1 -1,2 -1,0 -1,0 -2,0l-1 0c-1,0 -2,0 -2,0 -1,-1 -1,-1 -1,-2l0 -32c0,-1 0,-2 0,-2 -1,0 -1,-1 -2,-1l-2 0c-1,0 -2,1 -2,1 -1,0 -1,1 -1,2l0 29c0,0 0,1 -1,1 0,1 -1,1 -1,1l-2 0c-1,0 -1,0 -2,-1 0,0 0,-1 0,-1l0 -36c0,0 0,-1 0,-1 1,-1 1,-1 2,-1l9 0c1,0 1,0 2,-1 0,0 0,-1 0,-1l0 -1c0,-1 0,-1 1,-2 0,0 1,0 2,0l1 0c1,0 1,0 2,0 0,1 1,1 1,2l0 1c0,0 0,1 0,1 1,1 1,1 2,1l9 0c0,0 1,0 2,1 0,0 0,1 0,1l0 36c0,0 0,1 0,1 -1,1 -2,1 -2,1l-5 0c-1,0 -2,0 -2,-1 -1,0 -1,-1 -1,-1l0 -2c0,-1 0,-1 1,-2zm9 -46c0,1 0,1 0,2 -1,0 -2,0 -2,0l-32 0c-1,0 -2,1 -2,1 -1,1 -1,1 -1,2l0 48c0,0 0,1 -1,1 0,1 -1,1 -1,1l-4 0c-1,0 -2,0 -2,-1 -1,0 -1,-1 -1,-1l0 -2c0,-1 0,-1 1,-2 0,0 0,0 0,0 1,0 1,-1 1,-1 1,-1 1,-1 1,-2l0 -41c0,-1 0,-1 -1,-2 0,0 0,-1 -1,-1 0,0 0,0 0,0 -1,-1 -1,-1 -1,-2l0 -1c0,-1 0,-2 1,-2 0,-1 0,-1 0,-1 1,0 1,0 1,-1 1,0 1,-1 1,-1 0,-1 0,-1 1,-2 0,0 1,0 1,0l2 0c0,0 1,0 1,0 1,1 1,1 1,2 0,0 0,1 1,1 0,1 1,1 2,1l32 0c0,0 1,0 2,1 0,0 0,1 0,1l0 2z"/>
 </g>
</svg>
