<?xml version="1.0" encoding="UTF-8"?>
<!DOCTYPE svg PUBLIC "-//W3C//DTD SVG 1.1//EN" "http://www.w3.org/Graphics/SVG/1.1/DTD/svg11.dtd">
<!-- Creator: CorelDRAW X8 -->
<svg xmlns="http://www.w3.org/2000/svg" xml:space="preserve" width="221.481mm" height="92.3984mm" version="1.1" style="shape-rendering:geometricPrecision; text-rendering:geometricPrecision; image-rendering:optimizeQuality; fill-rule:evenodd; clip-rule:evenodd"
viewBox="0 0 253 106"
 xmlns:xlink="http://www.w3.org/1999/xlink">
 <defs>
  <style type="text/css">
   <![CDATA[
    .fil0 {fill:#FEB079}
    .fil1 {fill:#FEFEFE;fill-rule:nonzero}
   ]]>
  </style>
 </defs>
 <g id="图层_x0020_1">
  <metadata id="CorelCorpID_0Corel-Layer"/>
  <path class="fil0" d="M9 0l235 0c5,0 9,4 9,8l0 89c0,5 -4,9 -9,9l-235 0c-5,0 -9,-4 -9,-9l0 -89c0,-4 4,-8 9,-8z"/>
  <path class="fil1" d="M83 23c0,0 1,1 1,1 0,1 0,1 0,1 1,1 1,1 2,1l33 0c1,0 1,0 2,1 0,0 1,1 1,1l0 9c0,1 -1,1 -1,2 0,1 -1,1 -2,1l-11 6c-1,0 -1,0 -1,1 0,0 0,0 1,1l3 1c0,0 1,0 2,0 1,1 2,1 2,1l4 0c1,0 1,0 2,0 0,1 0,1 0,2l0 2c0,0 0,1 0,1 -1,1 -1,1 -2,1l-5 0c-1,0 -1,0 -2,0 -1,-1 -2,-1 -3,-1l-8 -4c-1,0 -1,0 -2,0 -1,0 -2,0 -2,0l-8 4c0,0 -1,0 -2,1 -1,0 -1,0 -2,0l-5 0c-1,0 -1,0 -2,-1 0,0 -1,-1 -1,-1l0 -2c0,-1 1,-1 1,-2 1,0 1,0 2,0l4 0c0,0 1,0 2,-1 1,0 1,0 2,0l1 -1c1,0 1,0 1,-1 0,0 0,0 -1,-1l-10 -4c0,0 -1,-1 -1,-1 0,-1 -1,-2 -1,-2l0 -2c0,-1 1,-1 1,-2 0,0 1,-1 2,-1l1 0c1,0 1,1 2,1 0,0 1,1 1,1 0,0 0,1 0,1 1,1 1,1 2,1l10 5c1,0 2,0 3,0 0,0 1,0 2,0l12 -6c1,-1 1,-1 2,-2 0,0 0,-1 0,-1 0,-1 0,-1 0,-1 -1,-1 -1,-1 -2,-1l-29 0c0,0 -1,0 -2,0 0,-1 -1,-1 -1,-1l-2 -2c-1,-1 -1,-1 -1,-2 -1,-1 -1,-1 -1,-2l0 0c0,-1 1,-1 1,-2 0,0 1,-1 2,-1l1 0c1,0 1,1 2,1zm-6 56c0,0 1,-1 1,-1 1,-1 1,-1 2,-1l33 0c1,0 1,0 2,-1 0,0 0,0 0,-1 0,-1 1,-1 1,-2 1,0 1,0 2,0l1 0c1,0 1,0 2,0 0,1 1,1 1,2l0 6c0,1 -1,1 -1,2 -1,0 -1,0 -2,0l-39 0c-1,0 -1,0 -2,0 0,-1 -1,-1 -1,-2l0 -2zm38 -18c0,0 1,-1 1,-1 1,-1 1,-1 2,-1l1 0c1,0 1,0 2,1 0,0 1,1 1,2l0 5c0,1 -1,2 -1,2 -1,1 -1,1 -2,1l-39 0c-1,0 -1,0 -2,-1 0,0 -1,-1 -1,-2l0 -1c0,-1 1,-1 1,-2 1,0 1,0 2,0l33 0c1,0 1,-1 2,-1 0,0 0,-1 0,-2zm17 -36c0,-1 0,-2 0,-2 1,0 1,-1 2,-1l40 0c0,0 1,1 1,1 1,0 1,1 1,2l0 1c0,1 0,1 -1,2 0,0 -1,1 -1,1l-15 0c0,0 -1,0 -1,0 -1,1 -1,1 -1,2l0 11c0,1 0,1 1,2 0,0 1,0 1,0l15 0c0,0 1,1 1,1 1,0 1,1 1,2l0 1c0,1 0,1 -1,2 0,0 -1,0 -1,0l-15 0c0,0 -1,1 -1,1 -1,0 -1,0 -1,0 0,1 0,1 0,2 0,0 1,1 1,1l11 21c0,1 0,1 1,1 1,1 1,1 2,1l2 0c0,0 1,0 1,1 1,0 1,1 1,1l0 2c0,1 0,1 -1,2 0,0 -1,0 -1,0l-6 0c0,0 -1,0 -2,0 0,-1 -1,-1 -1,-2l-10 -19c-1,-1 -1,-1 -1,-1 -1,0 -1,0 -1,1l-10 19c-1,1 -1,1 -2,2 -1,0 -1,0 -2,0l-5 0c-1,0 -1,0 -2,0 0,-1 0,-1 0,-2l0 -2c0,0 0,-1 0,-1 1,-1 1,-1 2,-1l1 0c1,0 2,0 2,-1 1,0 1,0 2,-1l11 -21c0,0 0,-1 0,-1 1,-1 1,-1 1,-2 0,0 -1,0 -1,0 -1,0 -1,-1 -2,-1l-14 0c-1,0 -1,0 -2,0 0,-1 0,-1 0,-2l0 -1c0,-1 0,-2 0,-2 1,0 1,-1 2,-1l14 0c1,0 1,0 2,0 0,-1 1,-1 1,-2l0 -11c0,-1 -1,-1 -1,-2 -1,0 -1,0 -2,0l-14 0c-1,0 -1,-1 -2,-1 0,-1 0,-1 0,-2l0 -1z"/>
 </g>
</svg>
