<?xml version="1.0" encoding="UTF-8"?>
<!DOCTYPE svg PUBLIC "-//W3C//DTD SVG 1.1//EN" "http://www.w3.org/Graphics/SVG/1.1/DTD/svg11.dtd">
<!-- Creator: CorelDRAW X8 -->
<svg xmlns="http://www.w3.org/2000/svg" xml:space="preserve" width="78.9677mm" height="74.8427mm" version="1.1" style="shape-rendering:geometricPrecision; text-rendering:geometricPrecision; image-rendering:optimizeQuality; fill-rule:evenodd; clip-rule:evenodd"
viewBox="0 0 353 334"
 xmlns:xlink="http://www.w3.org/1999/xlink">
 <defs>
  <style type="text/css">
   <![CDATA[
    .fil1 {fill:none}
    .fil0 {fill:#FEFEFE}
    .fil3 {fill:#332C2B}
    .fil2 {fill:#FEFEFE;fill-rule:nonzero}
   ]]>
  </style>
 </defs>
 <g id="图层_x0020_1">
  <metadata id="CorelCorpID_0Corel-Layer"/>
  <path class="fil0" d="M256 138c-1,2 -3,2 -5,2l-26 -15 6 22c1,3 0,4 -3,5 -2,1 -4,-1 -4,-3l-8 -30 -36 -20 0 41 22 23c1,1 1,3 0,5 -2,1 -4,1 -6,0l-16 -17 0 29c0,2 -1,4 -4,4 -2,0 -4,-2 -4,-4l0 -29 -16 16c-1,2 -3,2 -5,0 -1,-1 -1,-4 0,-5l22 -22 0 -42 -36 21 -7 30c-1,2 -3,3 -5,3 -2,-1 -3,-2 -3,-5l6 -22 -25 15c-2,0 -4,0 -6,-2 0,-1 0,-4 2,-5l25 -15 -22 -6c-2,-1 -3,-2 -3,-5 1,-2 2,-3 5,-3l29 8 36 -21 -36 -20 -30 8c-2,1 -4,-1 -5,-3 -1,-1 1,-4 3,-4l22 -6 -25 -14c-2,-2 -2,-4 -1,-6 0,-1 3,-2 5,-1l25 14 -6 -22c-1,-2 1,-5 2,-5 2,0 4,1 5,4l8 29 36 21 0 -42 -22 -22c0,-1 0,-4 0,-6 1,-1 4,-1 6,0l16 17 0 -29c0,-2 2,-4 4,-4 3,0 4,2 4,4l0 29 16 -17c2,-1 4,-1 6,0 1,2 1,4 0,6l-22 22 0 41 36 -20 8 -30c0,-3 2,-3 4,-3 3,0 3,2 3,4l-6 22 26 -14c1,-1 3,-1 5,1 1,3 1,4 -2,6l-25 14 22 6c3,1 3,3 3,5 0,2 -2,3 -4,3l-30 -8 -36 21 36 21 30 -9c2,0 4,1 4,3 1,3 0,4 -3,5l-22 6 25 15c3,1 3,4 2,5l0 0z" p-id="4943"/>
  <rect class="fil1" width="353" height="334"/>
  <path class="fil2" d="M177 225c0,1 0,1 -1,2 0,1 -1,1 -2,1l-2 0c-1,0 -2,0 -3,-1 0,0 0,-1 0,-2l0 -1c0,-1 -1,-2 -1,-2 -1,-1 -2,-1 -3,-1l-38 0c-1,0 -2,0 -2,1 -1,0 -1,1 -1,2l0 1c0,1 -1,2 -1,2 -1,1 -2,1 -3,1l-2 0c-1,0 -2,0 -2,-1 -1,-1 -1,-1 -1,-2l0 -10c0,-1 0,-2 1,-2 0,-1 1,-1 2,-1l56 0c1,0 2,0 2,1 1,0 1,1 1,2l0 10zm0 -26c0,1 0,1 0,2 -1,1 -1,2 -2,3l-2 2c-1,1 -2,1 -3,2 -1,0 -2,0 -3,0l-49 0c-1,0 -2,0 -2,-1 -1,0 -1,-1 -1,-2l0 -1c0,-1 0,-2 1,-3 0,0 1,-1 2,-1l47 0c1,0 2,0 3,0 0,0 1,-1 1,-1 0,-1 0,-1 0,-2 1,0 2,0 3,0l2 0c1,0 2,0 2,0 1,1 1,1 1,2zm-23 57c-1,0 -2,0 -3,1 0,1 -1,1 -1,2l0 12c0,1 1,2 1,2 1,1 2,1 3,1l20 0c1,0 2,1 2,1 1,1 1,2 1,3l0 2c0,1 0,1 -1,2 0,1 -1,1 -2,1l-56 0c-1,0 -2,0 -2,-1 -1,-1 -1,-1 -1,-2l0 -2c0,-1 0,-2 1,-3 0,0 1,-1 2,-1l20 0c1,0 2,0 3,-1 0,0 1,-1 1,-2l0 -12c0,-1 -1,-1 -1,-2 -1,-1 -2,-1 -3,-1l-20 0c-1,0 -2,0 -2,-1 -1,0 -1,-1 -1,-2l0 -2c0,-1 0,-2 1,-3 0,0 1,-1 2,-1l56 0c1,0 2,1 2,1 1,1 1,2 1,3l0 2c0,1 0,2 -1,2 0,1 -1,1 -2,1l-20 0zm-16 -24c0,1 0,2 0,3 -1,1 -1,2 -2,2l-2 3c-1,0 -2,1 -3,1 -1,1 -2,1 -3,1l-10 0c-1,0 -2,0 -2,-1 -1,-1 -1,-1 -1,-2l0 -2c0,-1 0,-2 1,-3 0,0 1,-1 2,-1l8 0c1,0 2,0 3,-1 0,0 0,-1 0,-2l0 -1c0,-1 1,-1 1,-2 1,-1 2,-1 3,-1l2 0c1,0 2,0 2,1 1,1 1,1 1,2l0 3zm39 7c0,1 0,1 -1,2 0,1 -1,1 -2,1l-10 0c-1,0 -2,0 -3,-1 -1,0 -2,-1 -2,-1l-3 -3c0,0 -1,-1 -1,-2 -1,-1 -1,-2 -1,-3l0 -3c0,-1 0,-1 1,-2 1,-1 1,-1 2,-1l2 0c1,0 2,0 3,1 0,1 1,1 1,2l0 1c0,1 0,2 1,2 0,1 1,1 2,1l8 0c1,0 2,1 2,1 1,1 1,2 1,3l0 2zm39 41c0,1 0,1 -1,2 0,1 -1,1 -2,1l-1 0c-1,0 -2,0 -3,-1 0,-1 -1,-1 -1,-2l0 -80c0,-1 1,-2 1,-3 1,0 2,-1 3,-1l40 0c1,0 1,1 2,1 1,0 1,0 1,1l0 82c0,1 0,1 -1,2 -1,1 -1,1 -2,1l-6 0c-1,0 -2,0 -2,-1 -1,-1 -1,-1 -1,-2l0 -2c0,-1 0,-2 0,-2 -1,0 -1,1 -2,1l-19 0c-1,0 -2,-1 -3,-1 0,-1 -1,-2 -1,-3l0 -26c0,-1 1,-2 1,-3 1,0 2,0 3,0l19 0c1,0 2,0 2,0 1,1 1,2 1,3l0 26c0,1 0,1 0,1 0,0 1,0 1,0 0,0 1,0 1,-1 1,0 1,-1 1,-2l0 -62c0,-1 0,-2 -1,-3 -1,0 -1,-1 -2,-1l-25 0c-1,0 -1,1 -2,1 -1,1 -1,2 -1,3l0 71zm-14 3l-7 0c-1,0 -2,0 -2,-1 -1,-1 -1,-1 -1,-2l0 -2c0,0 0,-1 1,-2 0,0 1,-1 1,-1 1,0 1,0 1,-1 1,0 1,-1 1,-2l0 -48c0,-1 0,-1 -1,-2 0,-1 0,-1 -1,-1 0,0 -1,0 -1,-1 -1,-1 -1,-1 -1,-2l0 -2c0,-1 0,-2 1,-3 1,0 1,-1 2,-1l7 0c0,0 1,1 2,1 0,1 1,2 1,3l0 64c0,1 -1,1 -1,2 -1,1 -2,1 -2,1zm22 -51c1,0 2,0 3,-1 0,-1 1,-1 1,-2l0 -2c0,-1 -1,-2 -1,-3 -1,0 -2,0 -3,0l-2 0c-1,0 -2,-1 -3,-1 0,-1 -1,-2 -1,-3l0 -2c0,-1 1,-2 1,-2 1,-1 2,-1 3,-1l2 0c1,0 2,-1 3,-1 0,-1 1,-1 1,-2 0,-1 0,-1 1,-2 0,-1 1,-1 2,-1l1 0c1,0 2,0 3,1 0,1 1,1 1,2 0,1 0,1 1,2 0,0 1,1 2,1l2 0c1,0 2,0 2,1 1,0 1,1 1,2l0 2c0,1 0,2 -1,3 0,0 -1,1 -2,1l-2 0c-1,0 -2,0 -2,0 -1,1 -1,2 -1,3l0 2c0,1 0,1 1,2 0,1 1,1 2,1l2 0c1,0 2,0 2,1 1,0 1,1 1,2l0 2c0,1 0,2 -1,3 0,0 -1,1 -2,1l-19 0c-1,0 -2,-1 -3,-1 0,-1 -1,-2 -1,-3l0 -2c0,-1 1,-2 1,-2 1,-1 2,-1 3,-1l2 0zm6 20c-1,0 -2,1 -3,1 0,1 -1,2 -1,3l0 9c0,0 1,1 1,2 1,1 2,1 3,1l3 0c1,0 2,0 3,-1 0,-1 1,-2 1,-2l0 -9c0,-1 -1,-2 -1,-3 -1,0 -2,-1 -3,-1l-3 0zm-29 -45c-1,0 -2,1 -2,1 -1,0 -2,-1 -3,-1l-1 -2c-1,-1 -1,-1 -1,-2 0,-1 0,-2 1,-3l1 -1c1,-1 2,-1 3,-1 0,0 1,0 2,1l1 1c1,1 1,2 1,3 0,1 0,1 -1,2l-1 2z"/>
  <path class="fil3" d="M70 229c9,0 17,7 17,16 0,9 -8,16 -17,16 -9,0 -16,-7 -16,-16 0,-9 7,-16 16,-16z"/>
  <path class="fil2" d="M48 330c0,1 0,1 0,1 0,0 0,0 0,1 0,0 0,0 -1,0 0,0 0,0 -1,0 0,0 -1,0 -1,0 0,0 0,0 -1,0 0,0 0,-1 0,-1 0,0 0,0 0,0l-3 -7 -12 0 -3 7c0,0 0,0 0,0 0,0 0,1 0,1 0,0 -1,0 -1,0 0,0 0,0 -1,0 0,0 -1,0 -1,0 0,0 0,0 -1,-1 0,0 0,0 0,0 0,0 0,0 0,-1l11 -28c0,0 0,0 0,0 0,0 0,0 0,0 0,0 1,-1 1,-1 0,0 1,0 1,0 1,0 1,0 1,0 1,0 1,1 1,1 0,0 1,0 1,0 0,0 0,0 0,0l10 28zm-13 -24l0 0 -5 15 10 0 -5 -15zm24 25c0,0 0,0 -1,0 0,0 0,1 0,1 0,0 0,0 0,0 -1,0 -1,0 -1,0 -1,0 -1,0 -1,0 -1,0 -1,0 -1,0 0,0 0,-1 0,-1 0,0 0,0 0,0l0 -21c0,0 0,0 0,0 0,0 0,0 0,0 0,0 0,0 1,-1 0,0 0,0 1,0 0,0 0,0 1,0 0,1 0,1 0,1 0,0 0,0 0,0 1,0 1,0 1,0l0 21zm0 -28c0,1 0,2 -1,2 0,0 0,0 -1,0 -1,0 -2,0 -2,0 -1,0 -1,-1 -1,-2 0,-1 0,-1 1,-2 0,0 1,0 2,0 1,0 1,0 1,0 1,1 1,1 1,2zm21 9c0,0 0,0 0,0 0,1 0,1 0,1 0,0 0,0 0,0 0,0 0,0 -1,0 0,0 0,0 0,0 0,0 0,0 -1,0 0,0 0,0 0,0 -1,0 -1,0 -1,0 -1,0 -1,0 -1,0 -1,0 -1,0 -2,1 0,0 0,1 -1,1 0,1 -1,1 -1,2l0 14c0,0 0,0 0,0 -1,0 -1,1 -1,1 0,0 0,0 0,0 -1,0 -1,0 -1,0 -1,0 -1,0 -1,0 -1,0 -1,0 -1,0 0,0 0,-1 0,-1 0,0 0,0 0,0l0 -21c0,0 0,0 0,0 0,0 0,0 0,0 0,0 0,-1 1,-1 0,0 0,0 1,0 0,0 0,0 0,0 1,0 1,1 1,1 0,0 0,0 0,0 0,0 0,0 0,0l0 3c1,-1 1,-1 2,-2 0,0 1,-1 1,-1 1,0 1,-1 2,-1 0,0 0,0 1,0 0,0 0,0 1,0 0,0 0,0 0,0 1,0 1,0 1,0 0,1 1,1 1,1 0,0 0,0 0,0 0,0 0,0 0,0 0,0 0,0 0,1 0,0 0,0 0,1zm30 16c0,0 0,0 0,1 0,0 0,0 0,0 0,0 0,0 0,0 0,0 0,1 -1,1 0,0 0,0 0,1 -1,0 -1,0 -2,0 -1,1 -1,1 -2,1 -1,0 -1,0 -2,0 -2,0 -3,0 -4,-1 -1,0 -2,-1 -3,-2 -1,-1 -1,-2 -2,-3 0,-2 0,-3 0,-5 0,-2 0,-4 0,-5 1,-2 2,-3 2,-4 1,-1 2,-2 4,-2 1,-1 2,-1 3,-1 1,0 2,0 2,0 1,0 2,1 2,1 1,0 1,0 1,1 1,0 1,0 1,0 1,0 1,1 1,1 0,0 0,0 0,0 0,0 0,0 0,1 0,0 0,0 0,0 0,1 0,1 0,1 0,1 0,1 -1,1 0,0 0,0 -1,-1 0,0 0,0 -1,0 0,-1 -1,-1 -1,-1 -1,0 -2,-1 -3,-1 -2,0 -3,1 -4,2 -1,2 -1,4 -1,7 0,1 0,2 0,3 0,1 1,2 1,3 1,0 1,1 2,1 1,1 1,1 2,1 1,0 2,0 3,-1 0,0 1,0 1,-1 1,0 1,0 2,-1 0,0 0,0 0,0 1,0 1,0 1,0 0,0 0,0 0,0 0,1 0,1 0,1 0,0 0,1 0,1zm26 -8c0,2 0,4 0,5 -1,1 -1,3 -2,4 -1,1 -2,2 -4,2 -1,1 -3,1 -4,1 -2,0 -4,0 -5,-1 -1,0 -2,-1 -3,-2 -1,-1 -1,-2 -2,-3 0,-2 -1,-3 -1,-5 0,-2 1,-3 1,-5 1,-1 1,-3 2,-4 1,-1 2,-1 3,-2 2,-1 3,-1 5,-1 2,0 3,0 5,1 1,0 2,1 3,2 1,1 1,2 2,4 0,1 0,3 0,4zm-4 1c0,-2 0,-3 0,-4 0,-1 -1,-1 -1,-2 0,-1 -1,-2 -2,-2 -1,0 -2,-1 -3,-1 -1,0 -2,0 -3,1 -1,0 -1,1 -2,2 -1,0 -1,1 -1,2 0,1 -1,2 -1,4 0,1 1,2 1,3 0,1 0,2 1,2 0,1 1,2 2,2 1,1 2,1 3,1 1,0 2,0 3,-1 1,0 1,-1 2,-1 0,-1 1,-2 1,-3 0,-1 0,-2 0,-3zm30 10c0,0 0,0 0,0 0,0 0,1 0,1 0,0 -1,0 -1,0 0,0 0,0 -1,0 0,0 0,0 -1,0 0,0 0,0 0,0 0,0 -1,-1 -1,-1 0,0 0,0 0,0l0 -12c0,-1 0,-2 0,-3 0,-1 0,-1 -1,-2 0,0 -1,-1 -1,-1 -1,0 -1,-1 -2,-1 -1,0 -2,1 -3,1 -1,1 -2,2 -3,3l0 15c0,0 0,0 0,0 0,0 0,1 0,1 -1,0 -1,0 -1,0 0,0 -1,0 -1,0 0,0 -1,0 -1,0 0,0 0,0 0,0 -1,0 -1,-1 -1,-1 0,0 0,0 0,0l0 -21c0,0 0,0 0,0 0,0 0,0 1,0 0,0 0,-1 0,-1 0,0 1,0 1,0 0,0 1,0 1,0 0,0 0,1 0,1 0,0 1,0 1,0 0,0 0,0 0,0l0 3c1,-1 2,-2 3,-3 1,-1 2,-1 4,-1 1,0 2,0 3,1 1,0 2,1 2,2 1,0 2,1 2,2 0,2 0,3 0,4l0 13zm27 0c0,0 0,0 0,0 0,0 0,1 0,1 0,0 -1,0 -1,0 0,0 0,0 -1,0 0,0 0,0 0,0 -1,0 -1,0 -1,0 0,0 0,-1 0,-1 0,0 0,0 0,0l0 -3c-1,1 -2,2 -4,3 -1,1 -2,1 -4,1 -1,0 -2,0 -3,-1 -2,0 -2,-1 -3,-2 -1,-1 -1,-2 -2,-4 0,-1 0,-3 0,-4 0,-2 0,-4 1,-5 0,-1 0,-3 1,-4 1,-1 2,-2 3,-2 1,-1 2,-1 4,-1 1,0 2,0 3,1 1,0 2,1 3,2l0 -12c0,0 0,0 0,0 0,0 1,0 1,0 0,0 0,-1 0,-1 1,0 1,0 1,0 1,0 1,0 1,0 0,0 1,1 1,1 0,0 0,0 0,0 0,0 0,0 0,0l0 31zm-4 -15c-1,-1 -2,-2 -3,-3 -1,0 -2,-1 -3,-1 -1,0 -1,1 -2,1 -1,1 -1,1 -2,2 0,1 -1,2 -1,2 0,1 0,2 0,3 0,1 0,2 0,3 0,2 1,2 1,3 0,1 1,2 2,2 0,1 1,1 2,1 1,0 1,0 2,0 0,-1 1,-1 1,-1 1,0 1,-1 2,-1 0,-1 1,-2 1,-2l0 -9zm17 15c0,0 0,0 0,0 0,0 0,1 0,1 0,0 0,0 -1,0 0,0 0,0 -1,0 0,0 0,0 -1,0 0,0 0,0 0,0 0,0 0,-1 -1,-1 0,0 0,0 0,0l0 -21c0,0 0,0 0,0 1,0 1,0 1,0 0,0 0,0 0,-1 1,0 1,0 1,0 1,0 1,0 1,0 1,1 1,1 1,1 0,0 0,0 0,0 0,0 0,0 0,0l0 21zm1 -28c0,1 0,2 -1,2 0,0 -1,0 -2,0 -1,0 -1,0 -2,0 0,0 0,-1 0,-2 0,-1 0,-1 0,-2 1,0 1,0 2,0 1,0 2,0 2,0 1,1 1,1 1,2zm27 7c0,0 0,0 1,0 0,0 0,0 0,1l0 20c0,0 0,0 0,0 0,0 0,1 -1,1 0,0 0,0 0,0 0,0 -1,0 -1,0 0,0 -1,0 -1,0 0,0 0,0 -1,0 0,0 0,-1 0,-1 0,0 0,0 0,0l0 -18 -11 0 0 11c0,2 0,3 1,4 0,0 1,1 2,1 1,0 1,0 1,0 0,0 1,-1 1,-1 0,0 0,0 0,0 1,0 1,0 1,0 0,0 0,0 0,0 0,0 0,0 0,0 0,0 0,1 0,1 0,0 0,0 0,0 0,1 0,1 0,2 0,0 0,0 0,0 0,0 0,0 -1,0 0,1 0,1 0,1 -1,0 -1,0 -1,0 -1,0 -1,0 -2,0 -1,0 -2,0 -2,0 -1,-1 -2,-1 -2,-2 -1,0 -1,-1 -1,-2 -1,-1 -1,-2 -1,-3l0 -12 -3 0c0,0 0,0 0,-1 0,0 0,0 0,-1 0,0 0,0 0,-1 0,0 0,0 0,0 0,0 0,0 0,0 0,0 0,0 0,0l3 0 0 -5c0,-1 0,-1 0,-1 1,0 1,0 1,0 0,0 0,0 0,0 1,0 1,0 1,0 1,0 1,0 1,0 0,0 1,0 1,0 0,0 0,0 0,0 0,0 0,0 0,1l0 5 14 0zm1 -7c0,1 0,2 0,2 -1,0 -1,0 -2,0 -1,0 -2,0 -2,0 0,0 0,-1 0,-2 0,-1 0,-1 0,-2 0,0 1,0 2,0 1,0 1,0 2,0 0,1 0,1 0,2zm29 17c0,2 -1,4 -1,5 -1,1 -1,3 -2,4 -1,1 -2,2 -4,2 -1,1 -2,1 -4,1 -2,0 -3,0 -5,-1 -1,0 -2,-1 -3,-2 -1,-1 -1,-2 -2,-3 0,-2 0,-3 0,-5 0,-2 0,-3 0,-5 1,-1 1,-3 2,-4 1,-1 2,-1 4,-2 1,-1 3,-1 4,-1 2,0 3,0 5,1 1,0 2,1 3,2 1,1 1,2 2,4 0,1 1,3 1,4zm-4 1c0,-2 -1,-3 -1,-4 0,-1 0,-1 -1,-2 0,-1 -1,-2 -2,-2 -1,0 -2,-1 -3,-1 -1,0 -2,0 -3,1 -1,0 -1,1 -2,2 0,0 -1,1 -1,2 0,1 0,2 0,4 0,1 0,2 0,3 0,1 1,2 1,2 0,1 1,2 2,2 1,1 2,1 3,1 1,0 2,0 3,-1 1,0 1,-1 2,-1 1,-1 1,-2 1,-3 0,-1 1,-2 1,-3zm29 10c0,0 0,0 0,0 0,0 0,1 0,1 0,0 0,0 -1,0 0,0 0,0 -1,0 0,0 0,0 -1,0 0,0 0,0 0,0 0,0 0,-1 0,-1 -1,0 -1,0 -1,0l0 -12c0,-1 0,-2 0,-3 0,-1 0,-1 -1,-2 0,0 0,-1 -1,-1 -1,0 -1,-1 -2,-1 -1,0 -2,1 -3,1 -1,1 -2,2 -3,3l0 15c0,0 0,0 0,0 0,0 0,1 0,1 0,0 -1,0 -1,0 0,0 0,0 -1,0 0,0 0,0 -1,0 0,0 0,0 0,0 0,0 -1,-1 -1,-1 0,0 0,0 0,0l0 -21c0,0 0,0 0,0 0,0 1,0 1,0 0,0 0,-1 0,-1 0,0 1,0 1,0 0,0 1,0 1,0 0,0 0,1 0,1 1,0 1,0 1,0 0,0 0,0 0,0l0 3c1,-1 2,-2 3,-3 1,-1 3,-1 4,-1 1,0 2,0 3,1 1,0 2,1 3,2 0,0 1,1 1,2 0,2 0,3 0,4l0 13zm27 -11c0,0 0,1 0,1 -1,0 -1,0 -1,0l-14 0c0,2 0,3 0,3 1,1 1,2 2,3 0,1 1,1 2,1 1,1 2,1 3,1 1,0 2,0 2,0 1,0 2,-1 2,-1 1,0 2,0 2,0 0,-1 1,-1 1,-1 0,0 0,0 0,0 0,1 0,1 0,1 0,0 0,0 0,0 0,0 0,1 0,1 0,0 0,0 0,0 0,1 0,1 0,1 0,0 0,0 0,0 0,0 0,0 0,0 0,0 0,1 -1,1 0,0 -1,0 -1,0 -1,1 -2,1 -3,1 -1,0 -2,0 -3,0 -1,0 -3,0 -4,-1 -1,0 -2,-1 -3,-2 -1,-1 -2,-2 -2,-3 -1,-2 -1,-3 -1,-5 0,-2 0,-4 1,-5 0,-2 1,-3 2,-4 1,-1 2,-2 3,-2 1,-1 3,-1 4,-1 2,0 3,0 4,1 1,0 2,1 3,2 1,1 1,2 2,3 0,1 0,3 0,4l0 1zm-4 -1c0,-2 0,-4 -1,-5 -1,-1 -2,-2 -4,-2 -1,0 -2,0 -3,1 0,0 -1,0 -1,1 -1,1 -1,1 -2,2 0,1 0,2 0,3l11 0zm24 -7c0,0 0,0 0,0 0,1 0,1 0,1 0,0 0,0 0,0 0,0 0,0 0,0 0,0 0,0 -1,0 0,0 0,0 0,0 0,0 -1,0 -1,0 0,0 0,0 -1,0 0,0 -1,0 -1,0 0,0 -1,0 -1,1 -1,0 -1,1 -1,1 -1,1 -1,1 -2,2l0 14c0,0 0,0 0,0 0,0 0,1 0,1 0,0 -1,0 -1,0 0,0 0,0 -1,0 0,0 -1,0 -1,0 0,0 0,0 0,0 -1,0 -1,-1 -1,-1 0,0 0,0 0,0l0 -21c0,0 0,0 0,0 0,0 0,0 1,0 0,0 0,-1 0,-1 0,0 1,0 1,0 0,0 1,0 1,0 0,0 0,1 0,1 1,0 1,0 1,0 0,0 0,0 0,0l0 3c0,-1 1,-1 1,-2 1,0 1,-1 2,-1 0,0 1,-1 1,-1 1,0 1,0 1,0 1,0 1,0 1,0 0,0 1,0 1,0 0,0 0,0 1,0 0,1 0,1 0,1 0,0 0,0 0,0 0,0 0,0 0,0 0,0 0,0 0,1 0,0 0,0 0,1z"/>
 </g>
</svg>
