<?xml version="1.0" encoding="UTF-8"?>
<!DOCTYPE svg PUBLIC "-//W3C//DTD SVG 1.1//EN" "http://www.w3.org/Graphics/SVG/1.1/DTD/svg11.dtd">
<!-- Creator: CorelDRAW X8 -->
<svg xmlns="http://www.w3.org/2000/svg" xml:space="preserve" width="78.9677mm" height="75.2721mm" version="1.1" style="shape-rendering:geometricPrecision; text-rendering:geometricPrecision; image-rendering:optimizeQuality; fill-rule:evenodd; clip-rule:evenodd"
viewBox="0 0 275 262"
 xmlns:xlink="http://www.w3.org/1999/xlink">
 <defs>
  <style type="text/css">
   <![CDATA[
    .fil2 {fill:none}
    .fil0 {fill:#FEFEFE}
    .fil1 {fill:#FEFEFE;fill-rule:nonzero}
   ]]>
  </style>
 </defs>
 <g id="图层_x0020_1">
  <metadata id="CorelCorpID_0Corel-Layer"/>
  <g id="_2789743182576">
   <path class="fil0" d="M96 63l0 -58c0,-3 2,-5 5,-5 2,0 5,2 5,5l0 58 -5 0 0 -58c0,-1 0,-1 0,-1 0,0 -1,0 -1,1l0 58 -4 0z" p-id="4703"/>
   <path class="fil1" d="M96 63l0 -58c0,-2 1,-3 1,-4 1,0 3,-1 4,-1 1,0 2,1 3,1 1,1 2,2 2,4l0 58 -5 0 0 -58c0,0 0,0 0,-1 0,0 0,0 0,0 0,0 0,0 0,0 -1,1 -1,1 -1,1l0 58 -4 0 0 0zm0 -58l0 58 4 0 0 -58c0,0 0,-1 0,-1 1,0 1,0 1,0 0,0 0,0 0,0 0,0 0,1 0,1l0 58 5 0 0 -58c0,-2 -1,-3 -2,-4 -1,0 -2,-1 -3,-1 -1,0 -3,1 -3,1 -1,1 -2,2 -2,4z"/>
   <path class="fil0" d="M83 63l-9 -46c-1,-3 1,-5 3,-6 3,-1 5,1 6,4l10 48 -4 0 -10 -47c0,-1 -1,-1 -1,-1 0,0 0,0 0,0 0,0 0,0 0,1l10 47 -5 0z" p-id="4705"/>
   <path class="fil1" d="M83 63l-9 -46c-1,-2 0,-3 0,-4 1,-1 2,-2 3,-2l0 0c2,0 3,0 4,1 1,0 2,1 2,3 3,16 7,32 10,48l-4 0 -10 -47c0,-1 0,-1 -1,-1 0,0 0,0 0,0 0,0 0,0 0,0l0 0c0,0 0,0 0,0 0,0 0,1 0,1l10 47 -5 0 0 0zm-9 -46l9 46 4 0 -9 -47c0,0 0,-1 0,-1 0,0 0,0 0,0 0,0 0,0 0,0 0,0 0,0 1,0 0,0 0,0 0,1l10 47 4 0 -10 -48c-1,-2 -1,-3 -2,-3 -1,-1 -3,-1 -4,-1l0 0c-1,0 -2,1 -3,2 0,1 -1,2 0,4z"/>
   <path class="fil1" d="M130 90l-15 0 0 -10c0,-1 0,-2 -1,-3 -1,-1 -2,-2 -4,-2l-30 0c-2,0 -3,1 -4,2 -1,1 -1,2 -1,3l0 10 -15 0c-1,0 -2,0 -3,1 0,1 -1,2 -1,3l0 43c0,1 1,2 1,3 1,1 2,1 3,1l70 0c1,0 2,0 3,-1 0,-1 1,-2 1,-3l0 -43c0,-1 -1,-2 -1,-3 -1,-1 -2,-1 -3,-1l0 0zm-15 0l15 0c1,0 2,0 3,1 1,1 1,1 1,3l0 43c0,1 0,2 -1,3 -1,1 -2,1 -3,1l-70 0c-1,0 -2,0 -3,-1 0,-1 -1,-2 -1,-3l0 -43c0,-2 1,-2 1,-3 1,-1 2,-1 3,-1l15 0 0 -10c0,-1 0,-2 1,-3 1,-1 2,-2 4,-2l30 0c2,0 3,1 4,2 1,1 1,2 1,3l0 10z"/>
   <path class="fil0" d="M130 143l-70 0c-3,0 -6,-3 -6,-6l0 -43c0,-4 3,-6 6,-6l13 0 0 -8c0,-4 3,-7 7,-7l30 0c4,0 8,3 8,7l0 8 12 0c3,0 6,2 6,6l0 43c0,3 -3,6 -6,6zm-70 -51c-1,0 -2,1 -2,2l0 43c0,1 1,2 2,2l70 0c1,0 2,-1 2,-2l0 -43c0,-1 -1,-2 -2,-2l-15 0c-1,0 -2,-1 -2,-2l0 -10c0,-1 -1,-3 -3,-3l-30 0c-2,0 -3,2 -3,3l0 10c0,1 -1,2 -2,2l-15 0z" p-id="4707"/>
   <path class="fil1" d="M130 143l-70 0c-2,0 -3,0 -4,-2 -1,-1 -2,-2 -2,-4l0 -43c0,-2 1,-4 2,-5 1,-1 2,-1 4,-1l13 0 0 -8c0,-2 0,-3 2,-5 1,-1 3,-2 5,-2l30 0c2,0 4,1 5,2 2,2 3,3 3,5l0 8 12 0c2,0 3,0 4,1 1,1 2,3 2,5l0 43c0,2 -1,3 -2,4 -1,2 -2,2 -4,2zm-70 0l70 0c2,0 3,-1 4,-2 1,-1 2,-2 2,-4l0 -43c0,-2 -1,-4 -2,-5 -1,-1 -2,-1 -4,-1l-13 0 0 -8c0,-2 0,-3 -2,-5 -1,-1 -3,-2 -5,-2l-30 0c-2,0 -4,1 -5,2 -2,2 -2,3 -2,5l0 8 -13 0c-2,0 -3,0 -4,1 -1,1 -2,3 -2,5l0 43c0,2 1,3 2,4 1,1 2,2 4,2zm0 -51c0,0 -1,0 -1,0 0,1 -1,1 -1,2l0 43c0,1 1,1 1,1 0,1 1,1 1,1l70 0c1,0 1,0 1,-1 1,0 1,0 1,-1l0 -43c0,-1 0,-1 -1,-2 0,0 0,0 -1,0l-15 0c0,0 -1,0 -1,-1 0,0 -1,-1 -1,-1l0 -10c0,0 0,-1 -1,-2 0,0 -1,0 -2,0l-30 0c-1,0 -2,0 -2,0 -1,1 -1,2 -1,2l0 10c0,0 0,1 -1,1 0,1 -1,1 -1,1l-15 0zm-1 0c0,0 1,0 1,0l15 0c0,0 1,0 1,-1 0,0 1,-1 1,-1l0 -10c0,0 0,-1 1,-2 0,0 1,-1 2,-1l30 0c1,0 2,1 3,1 0,1 0,2 0,2l0 10c0,0 1,1 1,1 0,1 1,1 1,1l15 0c1,0 1,0 1,0 1,1 1,1 1,2l0 43c0,1 0,1 -1,1 0,1 0,1 -1,1l-70 0c0,0 -1,0 -1,-1 -1,0 -1,0 -1,-1l0 -43c0,-1 0,-1 1,-2z"/>
   <path class="fil0" d="M119 77l-47 0c-2,0 -3,-1 -3,-2l0 -11c0,-1 1,-2 3,-2l47 0c1,0 2,1 2,2l0 11c0,1 -1,2 -2,2l0 0zm-46 -4l44 0 0 -7 -44 0 0 7zm46 -7z" p-id="4709"/>
   <path class="fil1" d="M118 77l-46 0c-1,0 -2,0 -2,0 -1,-1 -1,-1 -1,-2l0 -11c0,-1 0,-1 1,-2 0,0 1,0 2,0l47 0c0,0 1,0 1,0 1,1 1,1 1,2l0 11c0,1 0,1 -1,2 0,0 -1,0 -1,0l-1 0zm-46 0l47 0c0,0 1,0 1,0 1,-1 1,-1 1,-2l0 -11c0,-1 0,-1 -1,-2 0,0 -1,0 -1,0l-47 0c-1,0 -2,0 -2,0 0,1 -1,1 -1,2l0 11c0,1 1,1 1,2 0,0 1,0 2,0zm1 -4l44 0 0 -7 -44 0 0 7zm44 0l-44 0 0 -7 44 0 0 7 0 0z"/>
   <path class="fil1" d="M69 106l52 0 0 20 -52 0c0,-7 0,-13 0,-20l0 0zm52 1l-52 0 0 19 52 0 0 -19z"/>
   <path class="fil0" d="M121 128l-52 0c-1,0 -2,-1 -2,-2l0 -19c0,-2 1,-3 2,-3l52 0c1,0 2,1 2,3l0 19c0,1 -1,2 -2,2l0 0zm-50 -4l48 0 0 -15 -48 0 0 15z" p-id="4713"/>
   <path class="fil1" d="M121 128l-52 0c0,0 -1,-1 -1,-1 -1,0 -1,-1 -1,-1l0 -19c0,-1 0,-2 1,-2 0,0 1,-1 1,-1l52 0c0,0 1,1 1,1 1,0 1,1 1,2l0 19c0,0 0,1 -1,1 0,0 -1,1 -1,1l0 0zm-52 0l52 0c0,0 1,-1 1,-1 1,0 1,-1 1,-1l0 -19c0,-1 0,-2 -1,-2 0,0 -1,0 -1,0l-52 0c0,0 -1,0 -1,0 -1,0 -1,1 -1,2l0 19c0,0 0,1 1,1 0,0 1,1 1,1zm2 -5l48 0 0 -14 -48 0 0 14zm48 1l-48 0 0 -15 48 0 0 15 0 0z"/>
   <path class="fil0" d="M171 83l0 -44c0,-2 1,-3 3,-3 2,0 4,1 4,3l0 44 -3 0 0 -44c0,0 0,0 -1,0 0,0 0,0 0,0l0 44 -3 0z" p-id="4703"/>
   <path class="fil1" d="M171 83l0 -44c0,-1 0,-2 1,-2 0,-1 1,-1 2,-1 1,0 2,0 3,1 1,0 1,1 1,2l0 44 -3 0 0 -44c0,0 0,0 0,0 0,0 -1,0 -1,0 0,0 0,0 0,0 0,0 0,0 0,0l0 44c-1,0 -2,0 -3,0l0 0zm0 -44l0 44 3 0 0 -44c0,0 0,0 0,0 0,0 0,0 0,0 0,0 1,0 1,0 0,0 0,0 0,0l0 44 3 0 0 -44c0,-1 -1,-2 -1,-2 -1,-1 -2,-1 -3,-1 -1,0 -2,0 -2,1 -1,0 -1,1 -1,2z"/>
   <path class="fil0" d="M161 83l-7 -35c-1,-2 1,-4 3,-4 1,0 3,1 4,3l7 36 -3 0 -7 -36c0,0 -1,0 -1,0 0,0 0,0 0,0 0,0 0,0 0,1l7 35 -3 0z" p-id="4705"/>
   <path class="fil1" d="M161 83l-7 -35c0,-1 0,-2 0,-3 1,0 2,-1 3,-1l0 0c1,0 1,0 2,0 1,1 2,2 2,3 2,12 5,24 7,36l-3 0 -7 -36c0,0 0,0 0,0 -1,0 -1,0 -1,0 0,0 0,0 0,0l0 0c0,0 0,0 0,0 0,0 0,0 0,1l7 35 -3 0 0 0zm-7 -35l7 35 3 0 -7 -35c0,-1 0,-1 0,-1 0,0 0,0 0,0 0,0 0,0 0,0 0,0 1,0 1,0 0,0 0,0 0,0l7 36 3 0 -7 -36c0,-1 -1,-2 -2,-2 -1,-1 -1,-1 -2,-1l0 0c-1,0 -2,1 -3,2 0,0 0,1 0,2z"/>
   <path class="fil1" d="M196 103l-11 0 0 -7c0,-1 0,-2 -1,-3 -1,0 -1,-1 -2,-1l-24 0c-1,0 -2,1 -2,1 -1,1 -1,2 -1,3l0 7 -11 0c-1,0 -2,0 -2,1 -1,0 -1,1 -1,2l0 33c0,0 0,1 1,2 0,0 1,0 2,0l52 0c1,0 2,0 2,0 1,-1 1,-2 1,-2l0 -33c0,-1 0,-2 -1,-2 0,-1 -1,-1 -2,-1l0 0zm-11 0l11 0c1,0 2,0 2,1 1,0 1,1 1,2l0 33c0,0 0,1 -1,2 0,0 -1,1 -2,1l-52 0c-1,0 -2,-1 -2,-1 -1,-1 -1,-2 -1,-2l0 -33c0,-1 0,-2 1,-2 0,-1 1,-1 2,-1l11 0 0 -7c0,-1 0,-2 1,-3 0,0 1,-1 2,-1l24 0c1,0 2,1 2,1 1,1 1,2 1,3l0 7z"/>
   <path class="fil0" d="M196 143l-52 0c-3,0 -5,-2 -5,-4l0 -33c0,-3 2,-5 5,-5l9 0 0 -5c0,-3 2,-5 5,-5l24 0c2,0 5,2 5,5l0 5 9 0c3,0 5,2 5,5l0 33c0,2 -2,4 -5,4zm-52 -38c-1,0 -2,0 -2,1l0 33c0,0 1,1 2,1l52 0c1,0 2,-1 2,-1l0 -33c0,-1 -1,-1 -2,-1l-11 0c-1,0 -1,-1 -1,-2l0 -7c0,-1 -1,-2 -2,-2l-24 0c-1,0 -2,1 -2,2l0 7c0,1 0,2 -1,2l-11 0z" p-id="4707"/>
   <path class="fil1" d="M196 143l-52 0c-2,0 -3,0 -4,-1 0,-1 -1,-2 -1,-3l0 -33c0,-1 1,-2 1,-3 1,-1 2,-2 4,-2l9 0 0 -5c0,-1 1,-3 2,-4 1,-1 2,-1 3,-1l24 0c1,0 2,0 3,1 1,1 2,3 2,4l0 5 9 0c1,0 3,1 3,2 1,1 2,2 2,3l0 33c0,1 -1,2 -2,3 0,1 -2,1 -3,1zm-52 0l52 0c1,0 3,0 3,-1 1,-1 2,-2 2,-3l0 -33c0,-1 -1,-2 -2,-3 0,-1 -2,-1 -3,-1l-9 0 0 -6c0,-1 -1,-3 -2,-4 -1,-1 -2,-1 -3,-1l-24 0c-1,0 -2,0 -3,1 -1,1 -2,3 -2,4l0 6 -9 0c-2,0 -3,0 -3,1 -1,1 -2,2 -2,3l0 33c0,1 1,2 2,3 0,1 1,1 3,1zm0 -38c-1,0 -1,0 -1,0 0,0 -1,1 -1,1l0 33c0,0 1,0 1,1 0,0 0,0 1,0l52 0c1,0 1,0 1,0 0,-1 1,-1 1,-1l0 -33c0,0 -1,-1 -1,-1 0,0 0,0 -1,0l-11 0c0,0 -1,-1 -1,-1 0,0 0,-1 0,-1l0 -7c0,-1 -1,-1 -1,-1 0,-1 -1,-1 -1,-1l-24 0c0,0 -1,0 -1,1 0,0 -1,0 -1,1l0 7c0,0 0,1 0,1 0,0 -1,1 -1,1l-11 0zm-1 0c0,0 0,0 1,0l11 0c0,0 0,-1 1,-1 0,0 0,-1 0,-1l0 -7c0,-1 0,-1 1,-2 0,0 1,0 1,0l24 0c0,0 1,0 1,0 1,1 1,1 1,2l0 7c0,0 0,1 0,1 0,0 1,1 1,1l11 0c1,0 1,0 1,0 0,0 1,1 1,1l0 33c0,0 -1,0 -1,1 0,0 0,0 -1,0l-52 0c-1,0 -1,0 -1,0 -1,-1 -1,-1 -1,-1l0 -33c0,0 0,-1 1,-1z"/>
   <path class="fil0" d="M188 94l-36 0c-1,0 -1,-1 -1,-2l0 -8c0,-1 0,-2 1,-2l36 0c1,0 1,1 1,2l0 8c0,1 0,2 -1,2l0 0zm-34 -3l32 0 0 -6 -32 0 0 6zm34 -6z" p-id="4709"/>
   <path class="fil1" d="M188 94l-36 0c0,0 -1,0 -1,-1 0,0 0,0 0,-1l0 -8c0,-1 0,-1 0,-2 0,0 1,0 1,0l36 0c0,0 1,0 1,0 0,1 0,1 0,2l0 8c0,1 0,1 0,1 0,1 -1,1 -1,1l0 0zm-36 0l36 0c0,0 0,0 1,-1 0,0 0,0 0,-1l0 -8c0,-1 0,-1 0,-1 -1,-1 -1,-1 -1,-1l-36 0c0,0 -1,0 -1,1 0,0 0,0 0,1l0 8c0,0 0,1 0,1 0,1 1,1 1,1zm2 -3l32 0 0 -6 -32 0 0 6zm32 0l-32 0 0 -6 32 0 0 6 0 0z"/>
   <path class="fil1" d="M151 116l38 0 0 14 -38 0 0 -14 0 0zm38 0l-38 0 0 14 38 0 0 -14z"/>
   <path class="fil0" d="M189 132l-38 0c-1,0 -2,-1 -2,-2l0 -14c0,-1 1,-2 2,-2l38 0c1,0 2,1 2,2l0 14c0,1 -1,2 -2,2l0 0zm-37 -4l36 0 0 -11 -36 0 0 11z" p-id="4713"/>
   <path class="fil1" d="M189 132l-38 0c-1,0 -1,-1 -2,-1 0,0 0,-1 0,-1l0 -14c0,-1 0,-1 0,-1 1,-1 1,-1 2,-1l38 0c1,0 1,0 1,1 1,0 1,0 1,1l0 14c0,0 0,1 -1,1 0,0 0,1 -1,1l0 0zm-38 -1l38 0c1,0 1,0 1,0 1,0 1,-1 1,-1l0 -14c0,-1 0,-1 -1,-1 0,-1 0,-1 -1,-1l-38 0c-1,0 -1,0 -1,1 -1,0 -1,0 -1,1l0 14c0,0 0,1 1,1 0,0 0,0 1,0zm1 -3l36 0 0 -11 -36 0 0 11zm36 0l-36 0 0 -11 36 0 0 11 0 0z"/>
  </g>
  <rect class="fil2" width="275" height="261"/>
  <path class="fil1" d="M142 221c0,1 -1,1 -2,1 -1,1 -1,1 -2,1l-39 0c0,0 -1,0 -1,-1 -1,0 -1,0 -1,-1l0 -26c0,-1 0,-1 1,-2 0,0 1,-1 1,-1l16 0c1,0 1,0 2,0 0,-1 1,-1 1,-2l0 -10c0,-1 -1,-2 -1,-2 -1,-1 -1,-1 -2,-1l-4 0c0,0 -1,0 -1,1 -1,0 -1,1 -1,2l0 1c0,1 0,1 -1,2 0,1 0,2 -1,2l-2 2c0,1 -1,1 -2,1 -1,1 -1,1 -2,1l-2 0c0,0 -1,0 -1,-1 -1,0 -1,-1 -1,-2l0 -1c0,-1 0,-2 1,-2 0,-1 1,-1 1,-1l1 0c0,0 1,0 1,-1 1,0 1,-1 1,-1 0,-1 0,-2 -1,-2 0,-1 -1,-1 -1,-1l-1 0c0,0 -1,0 -1,-1 -1,0 -1,-1 -1,-1l0 -2c0,-1 0,-1 1,-2 0,0 1,-1 1,-1l16 0c1,0 1,0 2,0 0,-1 1,-2 1,-2l0 0c0,-1 -1,-2 -1,-2 -1,-1 -1,-1 -2,-1l-15 0c-1,0 -2,0 -2,-1 -1,0 -1,-1 -1,-2l0 -1c0,-1 0,-2 1,-2 0,-1 1,-1 2,-1l37 0c0,0 1,0 1,0 1,0 1,-1 1,-1 0,-1 0,-1 1,-1 0,0 1,0 2,0l1 0c1,0 2,0 2,0 1,0 1,1 1,1 0,1 0,2 0,2 -1,1 -1,2 -2,2l-2 2c0,1 -1,1 -2,1 -1,1 -1,1 -2,1l-11 0c-1,0 -1,0 -2,1 0,0 -1,1 -1,2l0 0c0,0 1,1 1,2 1,0 1,0 2,0l16 0c1,0 2,1 2,1 1,1 1,1 1,2l0 2c0,0 0,1 -1,1 0,1 -1,1 -2,1l0 0c0,0 -1,0 -1,1 -1,0 -1,1 -1,2 0,0 0,1 1,1 0,1 1,1 1,1l0 0c1,0 2,0 2,1 1,0 1,1 1,2l0 1c0,1 0,2 -1,2 0,1 -1,1 -2,1l-1 0c-1,0 -2,0 -2,-1 -1,0 -2,0 -2,-1l-2 -2c-1,0 -1,-1 -1,-2 -1,-1 -1,-1 -1,-2l0 -1c0,-1 0,-2 -1,-2 0,-1 -1,-1 -2,-1l-4 0c-1,0 -1,0 -2,1 0,0 -1,1 -1,2l0 10c0,1 1,1 1,2 1,0 1,0 2,0l16 0c1,0 2,1 2,1 1,1 1,1 1,2l0 20c0,1 0,1 -1,2 0,1 0,2 -1,2l-2 2zm-36 -22c0,0 -1,0 -2,1 0,0 0,1 0,2 0,0 0,1 0,2 1,0 2,0 2,0l31 0c0,0 1,0 1,0 1,-1 1,-2 1,-2 0,-1 0,-2 -1,-2 0,-1 -1,-1 -1,-1l-31 0zm31 17c0,0 1,0 1,-1 1,0 1,-1 1,-1 0,-1 0,-2 -1,-2 0,-1 -1,-1 -1,-1l-31 0c0,0 -1,0 -2,1 0,0 0,1 0,2 0,0 0,1 0,1 1,1 2,1 2,1l31 0zm62 -58c1,0 1,-1 1,-1 0,-1 1,-1 1,-1 1,0 1,0 2,0l2 0c0,0 1,0 1,0 1,1 1,1 1,2 0,0 0,1 0,2 -1,0 -1,1 -2,1l-1 2c-1,0 -2,1 -3,1 0,0 -1,1 -2,1l-11 0c0,0 -1,0 -2,0 0,0 0,0 0,1 0,0 0,0 0,1 1,0 2,0 2,0l16 0c1,0 2,0 2,1 1,0 1,1 1,2l0 0c0,1 0,1 -1,2 0,0 -1,1 -2,1l-16 0c0,0 -1,0 -2,0 0,0 0,1 0,1 0,0 0,1 0,1 1,0 2,0 2,0l16 0c1,0 2,0 2,1 1,0 1,1 1,2l0 12c0,1 0,2 0,3 -1,1 -1,1 -2,2l-1 1c-1,0 -2,1 -3,1 -1,0 -1,0 -2,0l-11 0c0,0 -1,0 -2,1 0,0 0,0 0,0 0,1 0,1 0,1 1,0 2,1 2,1l16 0c1,0 2,0 2,0 1,1 1,1 1,2l0 0c0,1 0,2 -1,2 0,1 -1,1 -2,1l-16 0c0,0 -1,0 -2,0 0,1 0,1 0,1 0,0 0,1 0,1 1,0 2,0 2,0l16 0c1,0 2,0 2,1 1,0 1,1 1,2l0 1c0,1 0,1 -1,2 0,0 -1,0 -2,0l-44 0c-1,0 -2,0 -2,0 -1,-1 -1,-1 -1,-2l0 -1c0,-1 0,-2 1,-2 0,-1 1,-1 2,-1l16 0c1,0 1,0 2,0 0,0 1,-1 1,-1 0,0 -1,0 -1,-1 -1,0 -1,0 -2,0l-16 0c-1,0 -2,0 -2,-1 -1,0 -1,-1 -1,-2l0 0c0,-1 0,-1 1,-2 0,0 1,0 2,0l16 0c1,0 1,-1 2,-1 0,0 1,0 1,-1 0,0 -1,0 -1,0 -1,-1 -1,-1 -2,-1l-16 0c-1,0 -2,0 -2,0 -1,-1 -1,-2 -1,-2l0 -17c0,-1 0,-2 1,-2 0,-1 1,-1 2,-1l16 0c1,0 1,0 2,0 0,0 1,-1 1,-1 0,0 -1,-1 -1,-1 -1,0 -1,0 -2,0l-16 0c-1,0 -2,-1 -2,-1 -1,-1 -1,-1 -1,-2l0 0c0,-1 0,-2 1,-2 0,-1 1,-1 2,-1l16 0c1,0 1,0 2,0 0,-1 1,-1 1,-1 0,-1 -1,-1 -1,-1 -1,0 -1,0 -2,0l-16 0c-1,0 -2,-1 -2,-1 -1,-1 -1,-1 -1,-2l0 -1c0,-1 0,-1 1,-2 0,-1 1,-1 2,-1l38 0c0,0 1,0 1,0zm-23 34c1,0 1,-1 2,-1 0,-1 1,-1 1,-2l0 -6c0,0 -1,-1 -1,-1 -1,-1 -1,-1 -2,-1l-9 0c-1,0 -2,0 -2,1 -1,0 -1,1 -1,1l0 6c0,1 0,1 1,2 0,0 1,1 2,1l9 0zm12 -11c0,0 -1,0 -2,1 0,0 0,1 0,1l0 6c0,1 0,1 0,2 1,0 2,1 2,1l10 0c0,0 1,-1 1,-1 1,-1 1,-1 1,-2l0 -6c0,0 0,-1 -1,-1 0,-1 -1,-1 -1,-1l-10 0zm-14 3c1,1 1,1 1,2 0,1 0,1 -1,2l-1 1c0,0 -1,1 -2,1 0,0 -1,-1 -1,-1l-1 -1c-1,0 -1,-1 -1,-2 0,0 0,-1 1,-2l1 -1c0,0 1,0 2,0 0,0 1,0 1,0l1 1zm27 33c0,-1 1,-1 2,-1 1,0 1,0 2,1l1 1c0,0 0,1 0,1 0,1 0,2 -1,2l0 1c-1,1 -2,1 -2,1 -1,0 -2,0 -2,-1l-1 -1c-1,0 -1,-1 -1,-1 0,-1 0,-2 1,-2l1 -1zm-27 0c0,-1 1,-1 2,-1 0,0 1,0 1,1l1 1c1,0 1,1 1,1 0,1 0,2 -1,2l-1 1c0,1 -1,1 -2,1 0,0 -1,0 -1,-1l-1 -1c-1,0 -1,-1 -1,-1 0,-1 0,-2 1,-2l1 -1zm16 -29c0,0 -1,-1 -1,-2 0,0 1,-1 1,-2l1 -1c1,0 1,0 2,0 1,0 1,0 2,0l1 1c0,1 0,1 0,2 0,1 0,1 0,2l-1 1c-1,0 -2,1 -2,1 -1,0 -2,-1 -2,-1l-1 -1zm-26 30c1,0 1,1 1,1 0,1 0,2 -1,2l-1 1c0,1 -1,1 -2,1 0,0 -1,0 -1,-1l-1 -1c-1,0 -1,-1 -1,-1 0,-1 0,-2 1,-2l1 -1c0,-1 1,-1 2,-1 0,0 1,0 1,1l1 1zm27 4c0,1 -1,1 -2,1 0,0 -1,0 -1,-1l-1 -1c-1,0 -1,-1 -1,-1 0,-1 0,-2 1,-2l1 -1c0,-1 1,-1 2,-1 0,0 1,0 1,1l1 1c1,0 1,1 1,1 0,1 0,2 -1,2l-1 1z"/>
  <path class="fil0" d="M62 178c7,0 13,5 13,12 0,7 -6,13 -13,13 -7,0 -12,-6 -12,-13 0,-7 5,-12 12,-12z"/>
  <path class="fil1" d="M45 255c0,0 0,0 0,0 0,0 0,1 0,1 0,0 -1,0 -1,0 0,0 0,0 -1,0 0,0 0,0 -1,0 0,0 0,0 0,0 0,0 0,0 0,0 0,-1 0,-1 0,-1l-2 -5 -10 0 -2 5c0,0 0,0 0,0 0,1 0,1 -1,1 0,0 0,0 0,0 0,0 -1,0 -1,0 0,0 0,0 -1,0 0,0 0,0 0,0 0,0 0,-1 0,-1 0,0 0,0 0,0l8 -22c0,0 0,0 0,0 0,-1 0,-1 0,-1 0,0 1,0 1,0 0,0 0,0 1,0 0,0 0,0 1,0 0,0 0,0 0,0 0,0 1,0 1,1 0,0 0,0 0,0l8 22zm-10 -20l0 0 -4 12 8 0 -4 -12zm24 5c0,0 0,1 0,1 0,0 0,0 0,0 0,0 0,0 0,0 0,0 0,0 0,0 0,0 0,0 0,0 0,0 -1,0 -1,0 0,0 0,0 0,0 -1,0 -1,0 -1,0 0,0 -1,0 -1,0 0,0 -1,0 -1,1 0,0 -1,0 -1,1 0,0 -1,1 -1,2l0 10c0,0 0,0 0,1 0,0 0,0 0,0 0,0 -1,0 -1,0 0,0 0,0 -1,0 0,0 0,0 0,0 0,0 -1,0 -1,0 0,0 0,0 0,0 0,-1 0,-1 0,-1l0 -16c0,0 0,0 0,0 0,0 0,0 0,0 0,-1 0,-1 1,-1 0,0 0,0 0,0 1,0 1,0 1,0 0,0 0,0 0,1 0,0 1,0 1,0 0,0 0,0 0,0l0 2c0,0 1,-1 1,-1 0,-1 1,-1 1,-1 0,0 1,-1 1,-1 0,0 1,0 1,0 0,0 0,0 1,0 0,0 0,0 0,0 0,0 1,0 1,0 0,1 0,1 0,1 0,0 0,0 0,0 0,0 0,0 0,0 0,0 0,0 0,0 0,1 0,1 0,1zm20 7c0,1 0,2 0,4 -1,1 -1,2 -2,2 -1,1 -2,2 -3,2 -1,1 -2,1 -3,1 -2,0 -3,0 -4,-1 -1,0 -2,-1 -2,-1 -1,-1 -1,-2 -2,-3 0,-1 0,-2 0,-4 0,-1 0,-2 0,-3 1,-2 1,-2 2,-3 1,-1 1,-2 2,-2 2,-1 3,-1 4,-1 1,0 3,0 4,1 1,0 1,1 2,1 1,1 1,2 2,3 0,1 0,3 0,4zm-3 0c0,-1 0,-2 0,-2 0,-1 -1,-2 -1,-2 0,-1 -1,-2 -2,-2 0,0 -1,0 -2,0 -1,0 -2,0 -2,0 -1,0 -1,1 -2,1 0,1 -1,2 -1,2 0,1 0,2 0,3 0,1 0,2 0,3 0,0 1,1 1,2 0,0 1,1 2,1 0,0 1,1 2,1 1,0 2,-1 2,-1 1,0 1,-1 2,-1 0,-1 0,-2 1,-2 0,-1 0,-2 0,-3zm33 8c0,0 0,0 0,1 0,0 0,0 0,0 0,0 0,0 0,0 -1,0 -1,0 -1,0 0,0 -1,0 -1,0 0,0 0,0 0,0 0,0 -1,0 -1,0 0,-1 0,-1 0,-1l0 -10c0,0 0,-1 0,-2 0,0 0,-1 0,-1 -1,0 -1,-1 -1,-1 -1,0 -1,0 -2,0 -1,0 -1,0 -2,1 -1,0 -1,1 -2,2l0 11c0,0 0,0 0,1 0,0 0,0 -1,0 0,0 0,0 0,0 0,0 0,0 -1,0 0,0 0,0 0,0 -1,0 -1,0 -1,0 0,0 0,0 0,0 0,-1 0,-1 0,-1l0 -10c0,0 0,-1 0,-2 -1,0 -1,-1 -1,-1 0,0 -1,-1 -1,-1 0,0 -1,0 -1,0 -1,0 -2,0 -3,1 0,0 -1,1 -2,2l0 11c0,0 0,0 0,1 0,0 0,0 0,0 0,0 0,0 -1,0 0,0 0,0 0,0 -1,0 -1,0 -1,0 0,0 0,0 -1,0 0,0 0,0 0,0 0,-1 0,-1 0,-1l0 -16c0,0 0,0 0,0 0,0 0,0 0,0 1,-1 1,-1 1,-1 0,0 0,0 1,0 0,0 0,0 0,0 0,0 1,0 1,1 0,0 0,0 0,0 0,0 0,0 0,0l0 2c1,-1 2,-2 3,-2 0,-1 1,-1 2,-1 1,0 1,0 2,0 1,1 1,1 1,1 1,0 1,1 1,1 1,0 1,1 1,1 1,0 1,-1 2,-1 0,-1 1,-1 1,-1 1,0 1,-1 1,-1 1,0 1,0 2,0 1,0 2,0 2,1 1,0 2,1 2,1 1,1 1,2 1,2 0,1 0,2 0,3l0 10zm20 0c0,0 0,1 0,1 0,0 -1,0 -1,0 0,0 0,0 -1,0 0,0 0,0 0,0 0,0 -1,0 -1,0 0,0 0,-1 0,-1l0 -1c-1,0 -1,1 -2,1 -1,1 -2,1 -3,1 -1,0 -2,0 -2,0 -1,0 -2,-1 -2,-1 -1,-1 -1,-1 -1,-2 0,0 -1,-1 -1,-2 0,-1 1,-2 1,-2 0,-1 1,-2 2,-2 0,0 1,-1 2,-1 1,0 2,0 4,0l2 0 0 -2c0,0 0,-1 0,-1 -1,-1 -1,-1 -1,-1 0,-1 -1,-1 -1,-1 -1,0 -1,0 -2,0 -1,0 -1,0 -2,0 -1,0 -1,0 -1,0 -1,1 -1,1 -2,1 0,0 0,0 0,0 0,0 0,0 0,0 -1,0 -1,0 -1,0 0,0 0,0 0,0 0,-1 0,-1 0,-1 0,0 0,0 0,-1 0,0 0,0 1,0 0,0 0,0 0,-1 1,0 1,0 2,0 0,0 1,-1 1,-1 1,0 2,0 2,0 1,0 2,0 3,1 1,0 2,0 2,1 1,0 1,1 1,2 1,0 1,1 1,2l0 11zm-3 -7l-3 0c-1,0 -1,0 -2,0 0,0 -1,0 -1,1 -1,0 -1,0 -1,1 0,0 -1,0 -1,1 0,1 1,1 1,2 1,0 2,1 3,1 0,0 1,0 2,-1 0,0 1,-1 2,-2l0 -3zm18 6c0,0 0,1 0,1 0,0 0,0 0,0 0,0 -1,1 -1,1 0,0 0,0 0,0 -1,0 -1,0 -1,0 0,0 -1,0 -1,0 -1,0 -2,0 -2,0 -1,-1 -1,-1 -2,-1 0,-1 0,-1 0,-2 -1,-1 -1,-2 -1,-2l0 -10 -2 0c0,0 0,0 0,0 -1,0 -1,-1 -1,-1 0,0 0,-1 0,-1 0,0 0,0 1,0 0,0 0,0 0,0 0,0 0,0 0,0l2 0 0 -4c0,0 0,-1 0,-1 0,0 0,0 1,0 0,0 0,0 0,0 0,0 0,0 1,0 0,0 0,0 1,0 0,0 0,0 0,0 0,0 0,0 0,0 0,0 0,1 0,1l0 4 4 0c1,0 1,0 1,0 0,0 0,0 0,0 0,0 0,0 0,0 0,0 0,1 0,1 0,0 0,1 0,1 0,0 0,0 -1,0l-4 0 0 9c0,1 0,2 1,3 0,0 1,0 2,0 0,0 0,0 0,0 0,0 1,0 1,0 0,0 0,0 0,0 0,0 1,0 1,0 0,0 0,0 0,0 0,0 0,0 0,0 0,0 0,0 0,1 0,0 0,0 0,0zm20 1c0,0 0,0 0,1 0,0 -1,0 -1,0 0,0 0,0 0,0 0,0 -1,0 -1,0 0,0 0,0 -1,0 0,0 0,0 0,0 0,0 0,0 0,0 0,-1 0,-1 0,-1l0 -9c0,-1 0,-2 -1,-3 0,0 0,-1 0,-1 0,0 -1,-1 -1,-1 -1,0 -1,0 -2,0 -1,0 -1,0 -2,1 -1,0 -2,1 -2,2l0 11c0,0 0,0 0,1 0,0 -1,0 -1,0 0,0 0,0 0,0 0,0 -1,0 -1,0 0,0 0,0 -1,0 0,0 0,0 0,0 0,0 0,0 0,0 0,-1 0,-1 0,-1l0 -24c0,0 0,0 0,0 0,0 0,0 0,0 0,0 0,0 0,0 1,0 1,0 1,0 0,0 1,0 1,0 0,0 0,0 0,0 0,0 1,0 1,0 0,0 0,0 0,0l0 10c1,-1 1,-2 2,-2 1,-1 2,-1 3,-1 1,0 2,0 3,1 0,0 1,1 1,1 1,1 1,2 1,2 1,1 1,2 1,3l0 10zm21 -9c0,1 0,1 -1,1 0,1 0,1 0,1l-11 0c0,1 0,1 0,2 0,1 1,2 1,2 0,1 1,1 2,1 0,1 1,1 2,1 1,0 2,0 2,-1 1,0 1,0 2,0 0,0 1,0 1,0 0,-1 0,-1 0,-1 1,0 1,0 1,0 0,1 0,1 0,1 0,0 0,0 0,0 0,0 0,0 0,1 0,0 0,0 0,0 0,0 0,0 0,0 0,0 0,0 0,1 0,0 0,0 0,0 0,0 -1,0 -1,0 0,0 -1,0 -1,1 -1,0 -1,0 -2,0 -1,0 -1,0 -2,0 -2,0 -3,0 -4,-1 -1,0 -2,0 -2,-1 -1,-1 -1,-2 -2,-3 0,-1 0,-2 0,-4 0,-1 0,-2 0,-4 1,-1 1,-2 2,-2 0,-1 1,-2 2,-2 1,-1 2,-1 4,-1 1,0 2,0 3,1 1,0 1,1 2,1 1,1 1,2 1,3 1,1 1,2 1,3l0 0zm-3 0c0,-2 -1,-3 -1,-4 -1,-1 -2,-2 -4,-2 0,0 -1,1 -2,1 0,0 -1,1 -1,1 0,0 -1,1 -1,2 0,0 0,1 0,2l9 0zm18 -6c0,0 0,1 0,1 0,0 0,0 0,0 0,0 0,0 0,0 0,0 0,0 0,0 0,0 0,0 0,0 0,0 -1,0 -1,0 0,0 0,0 0,0 -1,0 -1,0 -1,0 0,0 -1,0 -1,0 0,0 -1,0 -1,1 0,0 -1,0 -1,1 0,0 -1,1 -1,2l0 10c0,0 0,0 0,1 0,0 0,0 0,0 0,0 -1,0 -1,0 0,0 0,0 -1,0 0,0 0,0 0,0 0,0 -1,0 -1,0 0,0 0,0 0,0 0,-1 0,-1 0,-1l0 -16c0,0 0,0 0,0 0,0 0,0 0,0 0,-1 0,-1 1,-1 0,0 0,0 0,0 1,0 1,0 1,0 0,0 0,0 0,1 0,0 1,0 1,0 0,0 0,0 0,0l0 2c0,0 1,-1 1,-1 0,-1 1,-1 1,-1 0,0 1,-1 1,-1 0,0 1,0 1,0 0,0 0,0 1,0 0,0 0,0 0,0 0,0 1,0 1,0 0,1 0,1 0,1 0,0 0,0 0,0 0,0 0,0 0,0 0,0 0,0 0,0 0,1 0,1 0,1zm17 15c0,0 0,1 0,1 0,0 0,0 0,0 -1,0 -1,0 -1,0 -1,0 -1,0 -1,0 0,0 0,0 0,0 0,0 -1,-1 -1,-1l0 -1c0,0 -1,1 -2,1 -1,1 -2,1 -3,1 -1,0 -1,0 -2,0 -1,0 -1,-1 -2,-1 0,-1 -1,-1 -1,-2 0,0 0,-1 0,-2 0,-1 0,-2 0,-2 1,-1 1,-2 2,-2 1,0 1,-1 2,-1 1,0 3,0 4,0l2 0 0 -2c0,0 0,-1 0,-1 0,-1 0,-1 -1,-1 0,-1 0,-1 -1,-1 0,0 -1,0 -2,0 0,0 -1,0 -2,0 0,0 -1,0 -1,0 -1,1 -1,1 -1,1 -1,0 -1,0 -1,0 0,0 0,0 0,0 0,0 0,0 0,0 0,0 0,0 0,0 -1,-1 -1,-1 -1,-1 0,0 0,0 1,-1 0,0 0,0 0,0 0,0 0,0 1,-1 0,0 1,0 1,0 1,0 1,-1 2,-1 0,0 1,0 2,0 1,0 2,0 3,1 0,0 1,0 2,1 0,0 0,1 1,2 0,0 0,1 0,2l0 11zm-3 -7l-2 0c-1,0 -2,0 -3,0 0,0 -1,0 -1,1 -1,0 -1,0 -1,1 0,0 0,0 0,1 0,1 0,1 1,2 0,0 1,1 2,1 1,0 1,0 2,-1 1,0 1,-1 2,-2l0 -3zm25 -1c0,1 0,3 0,4 -1,1 -1,2 -2,3 0,0 -1,1 -2,1 -1,1 -2,1 -3,1 0,0 -1,0 -1,0 -1,0 -1,0 -1,-1 -1,0 -1,0 -2,0 0,-1 0,-1 -1,-1l0 8c0,0 0,0 0,0 0,0 0,0 0,0 0,0 0,0 -1,0 0,0 0,0 0,0 -1,0 -1,0 -1,0 0,0 0,0 0,0 -1,0 -1,0 -1,0 0,0 0,0 0,0l0 -23c0,0 0,0 0,0 0,0 0,0 0,0 1,-1 1,-1 1,-1 0,0 0,0 1,0 0,0 0,0 0,0 0,0 0,0 1,1 0,0 0,0 0,0 0,0 0,0 0,0l0 2c0,0 1,-1 1,-1 1,-1 1,-1 2,-1 0,0 1,-1 1,-1 1,0 1,0 2,0 1,0 2,0 3,1 0,0 1,1 2,2 0,1 1,1 1,3 0,1 0,2 0,3zm-3 0c0,-1 0,-1 0,-2 0,-1 0,-2 -1,-2 0,-1 0,-1 -1,-2 -1,0 -1,0 -2,0 0,0 -1,0 -1,0 0,0 -1,0 -1,0 -1,1 -1,1 -1,1 -1,1 -1,1 -2,2l0 6c1,1 2,2 3,3 0,0 1,0 2,0 1,0 1,0 2,0 0,0 1,-1 1,-1 0,-1 1,-2 1,-3 0,0 0,-1 0,-2zm17 9l-3 6c0,0 0,0 0,0 0,0 -1,0 -1,0 -1,0 -1,0 -1,0 0,0 -1,0 -1,0 0,0 0,0 0,0 0,0 0,0 0,-1l2 -5c0,0 0,0 0,-1 0,0 0,0 0,0l-6 -15c0,-1 0,-1 0,-1 0,0 0,0 0,0 0,0 0,-1 1,-1 0,0 0,0 1,0 0,0 0,0 0,0 1,0 1,0 1,1 0,0 0,0 0,0 0,0 0,0 0,0l5 13 0 0 4 -13c1,0 1,0 1,0 0,0 0,-1 0,-1 0,0 1,0 1,0 0,0 1,0 1,0 0,0 0,1 0,1 0,0 1,0 1,0 0,0 0,0 -1,1l-5 16z"/>
 </g>
</svg>
