<?xml version="1.0" encoding="UTF-8"?>
<!DOCTYPE svg PUBLIC "-//W3C//DTD SVG 1.1//EN" "http://www.w3.org/Graphics/SVG/1.1/DTD/svg11.dtd">
<!-- Creator: CorelDRAW X8 -->
<svg xmlns="http://www.w3.org/2000/svg" xml:space="preserve" width="78.9677mm" height="74.868mm" version="1.1" style="shape-rendering:geometricPrecision; text-rendering:geometricPrecision; image-rendering:optimizeQuality; fill-rule:evenodd; clip-rule:evenodd"
viewBox="0 0 226 214"
 xmlns:xlink="http://www.w3.org/1999/xlink">
 <defs>
  <style type="text/css">
   <![CDATA[
    .fil1 {fill:none}
    .fil0 {fill:#FEFEFE}
    .fil2 {fill:#FEFEFE;fill-rule:nonzero}
   ]]>
  </style>
 </defs>
 <g id="图层_x0020_1">
  <metadata id="CorelCorpID_0Corel-Layer"/>
  <path class="fil0" d="M139 18l1 0c0,0 0,0 0,0 2,0 4,2 4,4l0 1 0 22 9 0c10,0 18,8 18,18l0 46c3,0 5,1 5,4l0 0c0,0 0,0 0,0 0,2 -2,4 -4,5l0 0 -118 0c-3,0 -5,-2 -5,-5 0,-2 2,-4 5,-4l0 0 0 -46c0,-10 8,-18 18,-18l9 0 0 -22c0,0 0,0 0,0 0,-3 2,-5 4,-5l0 0c1,0 1,0 1,0 2,0 4,2 4,4l0 1 0 22 18 0 0 -22c0,0 0,0 0,0 0,-3 2,-5 4,-5l1 0c0,0 0,0 0,0 2,0 4,2 4,4l0 1 0 22 18 0 0 -22c0,0 0,0 0,0 0,-3 2,-5 4,-5l1 0 -1 0zm-2 69c-8,4 -16,6 -24,6 -8,0 -16,-2 -24,-6 -5,4 -11,6 -16,6 -3,0 -7,-1 -10,-2l0 17 99 0 0 -17c-3,2 -6,2 -10,2 -5,0 -10,-2 -15,-6l0 0zm16 -33l-13 0c0,0 0,0 0,0 0,0 -1,0 -1,0l-26 0c0,0 0,0 0,0 -1,0 -1,0 -1,0l-26 0c0,0 0,0 0,0 -1,0 -1,0 -1,0l-13 0c-5,0 -9,4 -9,9l0 16c4,4 7,5 10,5 3,0 7,-1 11,-5l1 -1 2 -2 3 2c8,4 15,6 23,6 6,0 13,-2 21,-6l1 0 3 -2 3 2c4,4 8,6 11,6 4,0 7,-1 10,-4l0 -17c0,-5 -4,-9 -9,-9l0 0zm-40 -54c2,0 4,2 4,5 0,2 -2,4 -4,4 -3,0 -5,-2 -5,-4 0,-3 2,-5 5,-5zm27 9c2,0 4,2 4,5 0,2 -2,4 -4,4 -3,0 -5,-2 -5,-4 0,-3 2,-5 5,-5l0 0zm-54 -9c2,0 4,2 4,5 0,2 -2,4 -4,4 -3,0 -5,-2 -5,-4 0,-3 2,-5 5,-5l0 0z" p-id="4174"/>
  <rect class="fil1" width="226" height="214"/>
  <path class="fil0" d="M38 147c6,0 10,5 10,11 0,5 -4,10 -10,10 -6,0 -11,-5 -11,-10 0,-6 5,-11 11,-11z"/>
  <path class="fil2" d="M113 181c0,0 0,1 0,1 -1,1 -1,1 -2,1l-36 0c-1,0 -1,0 -1,-1 -1,0 -1,-1 -1,-1l0 -2c0,0 0,-1 1,-1 0,-1 0,-1 1,-1l15 0c0,0 1,0 1,0 0,-1 1,-1 1,-2l0 -11c0,-1 -1,-1 -1,-2 0,0 -1,0 -1,0l-15 0c-1,0 -1,-1 -1,-1 -1,0 -1,-1 -1,-1l0 -2c0,0 0,-1 1,-1 0,-1 0,-1 1,-1l15 0c0,0 1,0 1,-1 0,0 1,-1 1,-1l0 -9c0,-1 -1,-1 -1,-2 0,0 -1,0 -1,0l-10 0c-1,0 -2,0 -2,-1 -1,0 -2,0 -2,-1l-1 -1c-1,0 -1,-1 -2,-2 0,0 0,-1 0,-1l0 -6c0,0 0,-1 1,-1 0,-1 0,-1 1,-1l1 0c1,0 2,0 2,1 0,0 1,1 1,1l0 4c0,1 0,1 0,1 1,1 1,1 2,1l9 0c0,0 1,0 1,-1 0,0 1,0 1,-1l0 -5c0,-1 0,-1 0,-2 1,0 1,0 2,0l1 0c1,0 1,0 2,0 0,1 0,1 0,2l0 5c0,1 0,1 1,1 0,1 1,1 1,1l12 0c1,0 1,0 2,1 0,0 0,1 0,1l0 2c0,0 0,1 0,1 -1,0 -1,1 -2,1l-12 0c0,0 -1,0 -1,0 -1,1 -1,1 -1,2l0 9c0,0 0,1 1,1 0,1 1,1 1,1l12 0c1,0 1,0 2,1 0,0 0,1 0,1l0 2c0,0 0,1 0,1 -1,0 -1,1 -2,1l-12 0c0,0 -1,0 -1,0 -1,1 -1,1 -1,2l0 11c0,1 0,1 1,2 0,0 1,0 1,0l12 0c1,0 1,0 2,1 0,0 0,1 0,1l0 2zm9 -51c0,-1 0,-1 1,-2 0,0 1,0 1,0l36 0c1,0 1,0 1,0 1,1 1,1 1,2l0 46c0,1 0,2 0,2 -1,1 -1,1 -1,2l-2 1c0,1 -1,1 -2,1 0,1 -1,1 -1,1l-32 0c0,0 -1,0 -1,-1 -1,0 -1,-1 -1,-1l0 -51zm32 47c1,0 1,0 2,0 0,-1 0,-1 0,-2l0 -17c0,0 0,-1 0,-1 -1,0 -1,-1 -2,-1l-24 0c-1,0 -1,1 -2,1 0,0 0,1 0,1l0 17c0,1 0,1 0,2 1,0 1,0 2,0l24 0zm-24 -44c-1,0 -1,0 -2,1 0,0 0,1 0,1l0 14c0,0 0,1 0,1 1,1 1,1 2,1l24 0c1,0 1,0 2,-1 0,0 0,-1 0,-1l0 -14c0,0 0,-1 0,-1 -1,-1 -1,-1 -2,-1l-24 0z"/>
  <path class="fil2" d="M84 204c0,0 0,1 0,1 0,1 -1,1 -1,2 0,0 0,0 -1,0 0,1 0,1 -1,1 0,0 -1,0 -1,1 -1,0 -1,0 -2,0l-4 0c0,0 -1,0 -1,-1 0,0 0,0 0,0l0 -15c0,0 0,-1 0,-1 0,0 1,0 1,0l4 0c1,0 1,0 2,0 1,1 1,1 2,1 0,1 0,1 1,2 0,0 0,1 0,1 0,1 0,1 0,1 0,1 -1,1 -1,1 0,1 0,1 0,1 -1,0 -1,1 -1,1 0,0 1,0 1,0 0,0 1,1 1,1 0,0 0,1 1,1 0,1 0,1 0,2zm-3 -8c0,0 0,0 -1,-1 0,0 0,0 0,0 0,-1 -1,-1 -1,-1 0,0 -1,0 -2,0l-2 0 0 5 3 0c0,0 1,0 1,0 0,0 1,0 1,-1 0,0 0,0 0,0 1,-1 1,-1 1,-2zm1 8c0,0 0,-1 -1,-1 0,-1 0,-1 0,-1 -1,0 -1,-1 -1,-1 -1,0 -1,0 -2,0l-3 0 0 6 3 0c1,0 1,0 2,0 0,0 0,-1 1,-1 0,0 0,0 0,-1 1,0 1,0 1,-1zm8 4c0,0 0,0 0,1 0,0 0,0 0,0 0,0 0,0 0,0 0,0 -1,0 -1,0 0,0 0,0 0,0 0,0 -1,0 -1,0 0,0 0,0 0,0 0,-1 0,-1 0,-1l0 -11c0,0 0,0 0,0 0,0 0,0 0,0 0,-1 1,-1 1,-1 0,0 0,0 0,0 0,0 1,0 1,0 0,0 0,0 0,1 0,0 0,0 0,0 0,0 0,0 0,0l0 11zm1 -15c0,0 -1,1 -1,1 0,0 0,0 -1,0 0,0 -1,0 -1,0 0,0 0,-1 0,-1 0,-1 0,-1 0,-1 0,0 1,0 1,0 1,0 1,0 1,0 0,0 1,0 1,1zm11 5c0,0 0,0 0,0 0,0 0,0 0,0 0,0 0,0 0,1 0,0 0,0 0,0 0,0 0,0 0,0 -1,-1 -1,-1 -1,-1 0,0 0,0 0,0 0,0 0,0 -1,0 0,0 0,0 0,0 0,0 -1,1 -1,1 0,0 0,0 -1,1 0,0 0,0 0,1l0 7c0,0 0,0 -1,1 0,0 0,0 0,0 0,0 0,0 0,0 0,0 0,0 -1,0 0,0 0,0 0,0 0,0 0,0 0,0 0,0 -1,0 -1,0 0,-1 0,-1 0,-1l0 -11c0,0 0,0 0,0 0,0 1,0 1,0 0,-1 0,-1 0,-1 0,0 0,0 0,0 1,0 1,0 1,0 0,0 0,0 0,1 0,0 0,0 0,0 0,0 0,0 0,0l0 1c1,0 1,0 1,-1 1,0 1,0 1,0 0,0 1,-1 1,-1 0,0 0,0 0,0 1,0 1,0 1,0 0,0 0,0 0,0 0,0 1,0 1,0 0,0 0,1 0,1 0,0 0,0 0,0 0,0 0,0 0,0 0,0 0,0 0,0 0,0 0,0 0,1zm10 9c0,1 0,1 0,1 0,0 0,0 0,0 -1,0 -1,1 -1,1 0,0 0,0 0,0 0,0 -1,0 -1,0 0,0 0,0 0,0 -1,0 -1,0 -2,0 0,-1 -1,-1 -1,-1 0,0 0,-1 -1,-1 0,-1 0,-1 0,-2l0 -7 -1 0c0,0 -1,0 -1,0 0,0 0,0 0,-1 0,0 0,0 0,0 0,0 0,0 0,0 0,0 0,0 0,0 1,0 1,-1 1,-1l1 0 0 -2c0,0 0,0 0,0 0,0 0,-1 0,-1 1,0 1,0 1,0 0,0 0,0 0,0 1,0 1,0 1,0 0,0 0,0 0,0 0,0 0,1 0,1 0,0 0,0 0,0l0 2 3 0c0,0 0,1 0,1 1,0 1,0 1,0 0,0 0,0 0,0 0,0 0,0 0,0 0,1 0,1 0,1 0,0 -1,0 -1,0l-3 0 0 7c0,0 0,1 1,1 0,1 0,1 1,1 0,0 0,0 1,0 0,0 0,0 0,0 0,0 0,0 0,0 0,0 0,0 0,0 0,0 1,0 1,0 0,0 0,0 0,0 0,0 0,0 0,0 0,0 0,0 0,0zm14 1c0,0 0,0 0,1 0,0 0,0 -1,0 0,0 0,0 0,0 0,0 0,0 0,0 -1,0 -1,0 -1,0 0,0 0,0 0,0 0,0 0,0 0,0 0,-1 0,-1 0,-1l0 -6c0,-1 -1,-2 -1,-2 0,0 0,-1 0,-1 0,0 -1,-1 -1,-1 0,0 0,0 -1,0 0,0 -1,0 -1,1 -1,0 -2,1 -2,1l0 8c0,0 0,0 0,1 0,0 0,0 0,0 0,0 -1,0 -1,0 0,0 0,0 0,0 0,0 -1,0 -1,0 0,0 0,0 0,0 0,0 0,0 0,0 0,-1 0,-1 0,-1l0 -17c0,0 0,0 0,0 0,0 0,0 0,0 0,0 0,0 0,0 0,0 1,0 1,0 0,0 0,0 0,0 0,0 1,0 1,0 0,0 0,0 0,0 0,0 0,0 0,0l0 7c0,-1 1,-1 2,-1 0,-1 1,-1 2,-1 0,0 1,0 1,1 1,0 1,0 2,1 0,0 0,1 0,1 1,1 1,1 1,2l0 7zm15 0c0,0 0,0 0,1 0,0 -1,0 -1,0 0,0 0,0 0,0 0,0 0,0 0,0 -1,0 -1,0 -1,0 0,0 0,0 0,0 0,0 0,0 0,0 0,-1 0,-1 0,-1l0 -1c-1,0 -2,1 -2,1 -1,1 -2,1 -2,1 -1,0 -2,0 -3,-1 0,0 -1,0 -1,-1 0,0 -1,-1 -1,-2 0,-1 0,-1 0,-2 0,-1 0,-2 0,-3 1,-1 1,-1 1,-2 1,-1 1,-1 2,-1 0,-1 1,-1 2,-1 1,0 1,0 2,1 0,0 1,0 1,1l0 -7c0,0 0,0 0,0 1,0 1,0 1,0 0,0 0,0 0,0 0,0 0,0 1,0 0,0 0,0 0,0 0,0 0,0 0,0 0,0 0,0 1,0 0,0 0,0 0,0l0 17zm-3 -8c0,0 -1,-1 -1,-1 -1,-1 -1,-1 -2,-1 0,0 -1,0 -1,0 -1,1 -1,1 -1,1 0,1 -1,1 -1,2 0,0 0,1 0,1 0,1 0,2 0,2 0,1 1,1 1,2 0,0 0,0 1,1 0,0 0,0 1,0 0,0 1,0 1,0 0,0 0,0 1,0 0,-1 0,-1 1,-1 0,0 0,-1 0,-1l0 -5zm16 8c0,0 0,1 0,1 0,0 0,0 0,0 0,0 0,0 -1,0 0,0 0,0 0,0 0,0 0,0 0,0 0,0 0,-1 0,-1l0 -1c-1,1 -2,1 -2,1 -1,1 -1,1 -2,1 -1,0 -1,0 -2,0 0,0 -1,-1 -1,-1 0,0 -1,-1 -1,-1 0,-1 0,-1 0,-2 0,0 0,-1 0,-1 1,-1 1,-1 1,-1 1,-1 2,-1 2,-1 1,0 2,0 3,0l1 0 0 -1c0,-1 0,-1 0,-2 0,0 0,0 0,0 -1,-1 -1,-1 -1,-1 0,0 -1,0 -1,0 -1,0 -1,0 -2,0 0,0 -1,0 -1,1 0,0 0,0 -1,0 0,0 0,0 0,0 0,0 0,0 0,0 0,0 0,0 0,0 0,0 0,0 0,0 -1,0 -1,-1 -1,-1 0,0 0,0 1,0 0,0 0,0 0,-1 0,0 0,0 0,0 1,0 1,0 1,0 1,0 1,-1 2,-1 0,0 0,0 1,0 1,0 1,0 2,1 1,0 1,0 1,0 1,1 1,1 1,2 0,0 0,1 0,2l0 7zm-2 -5l-2 0c0,0 -1,0 -1,0 0,0 -1,0 -1,1 0,0 -1,0 -1,0 0,1 0,1 0,1 0,1 0,1 1,2 0,0 1,0 1,0 1,0 1,0 2,0 0,0 1,-1 1,-1l0 -3zm12 6l-1 4c0,0 -1,0 -1,0 0,0 0,0 -1,0 0,0 0,0 0,0 0,0 0,0 -1,0 0,0 0,0 0,0 0,0 0,0 0,0l2 -4c0,0 0,0 0,0 0,-1 0,-1 0,-1l-4 -11c-1,0 -1,0 -1,0 0,0 0,0 1,0 0,0 0,-1 0,-1 0,0 0,0 0,0 1,0 1,0 1,0 0,0 0,0 0,1 1,0 1,0 1,0 0,0 0,0 0,0l3 9 0 0 3 -9c0,0 0,0 0,0 1,0 1,-1 1,-1 0,0 0,0 0,0 1,0 1,0 1,0 0,0 0,1 0,1 0,0 0,0 0,0 0,0 0,0 0,0l-4 12zm15 -4c0,1 0,1 0,2 -1,0 -1,1 -1,1 -1,0 -1,1 -2,1 0,0 -1,0 -1,0 -1,0 -1,0 -2,0 0,0 0,0 -1,0 0,-1 0,-1 0,-1 -1,0 -1,0 -1,0 0,0 0,0 0,0 0,-1 0,-1 0,-1 0,0 0,0 0,0 0,-1 0,-1 0,-1 0,0 0,0 0,0 0,0 0,0 0,0 0,0 0,0 1,0 0,0 0,1 0,1 1,0 1,0 1,0 1,0 1,0 2,0 0,0 0,0 1,0 0,0 0,0 0,0 0,0 1,-1 1,-1 0,0 0,0 0,-1 0,0 0,0 0,0 0,-1 -1,-1 -1,-1 0,0 -1,0 -1,0 0,-1 -1,-1 -1,-1 0,0 -1,0 -1,0 0,-1 -1,-1 -1,-1 0,0 0,-1 -1,-1 0,0 0,-1 0,-1 0,-1 0,-1 0,-2 1,0 1,0 1,-1 1,0 1,0 2,0 0,-1 1,-1 1,-1 1,0 1,0 1,0 1,0 1,0 1,1 0,0 1,0 1,0 0,0 0,0 0,0 0,0 0,0 0,0 0,0 0,0 0,0 0,0 0,1 0,1 0,0 0,0 0,0 0,0 0,0 0,0 0,0 0,1 0,1 0,0 0,0 0,0 0,0 0,0 0,0 0,0 0,0 0,0 0,0 -1,-1 -1,-1 0,0 0,0 -1,0 0,0 0,0 -1,0 0,0 0,0 -1,0 0,0 0,0 0,0 0,0 -1,1 -1,1 0,0 0,0 0,1 0,0 0,0 0,0 1,1 1,1 1,1 0,0 1,0 1,0 0,1 1,1 1,1 0,0 1,0 1,0 1,1 1,1 1,1 0,0 1,1 1,1 0,0 0,1 0,1z"/>
 </g>
</svg>
