<?xml version="1.0" encoding="UTF-8"?>
<!DOCTYPE svg PUBLIC "-//W3C//DTD SVG 1.1//EN" "http://www.w3.org/Graphics/SVG/1.1/DTD/svg11.dtd">
<!-- Creator: CorelDRAW X8 -->
<svg xmlns="http://www.w3.org/2000/svg" xml:space="preserve" width="53.0845mm" height="74.5174mm" version="1.1" style="shape-rendering:geometricPrecision; text-rendering:geometricPrecision; image-rendering:optimizeQuality; fill-rule:evenodd; clip-rule:evenodd"
viewBox="0 0 101 142"
 xmlns:xlink="http://www.w3.org/1999/xlink">
 <defs>
  <style type="text/css">
   <![CDATA[
    .fil0 {fill:#FEFEFE}
    .fil1 {fill:#332C2B}
    .fil2 {fill:#FEFEFE;fill-rule:nonzero}
   ]]>
  </style>
 </defs>
 <g id="图层_x0020_1">
  <metadata id="CorelCorpID_0Corel-Layer"/>
  <path class="fil0" d="M75 12l0 0c0,0 0,0 0,0 2,0 3,1 3,3l0 0 0 15 6 0c7,0 12,6 12,12l0 31c2,0 3,1 3,2l0 1c0,0 0,0 0,0 0,1 -1,2 -2,3l-1 0 -78 0c-2,0 -3,-2 -3,-3 0,-2 1,-3 3,-3l0 0 0 -31c0,-6 5,-12 12,-12l6 0 0 -15c0,0 0,0 0,0 0,-1 1,-3 3,-3l0 0c0,0 0,0 0,0 2,0 3,1 3,3l0 0 0 15 12 0 0 -15c0,0 0,0 0,0 0,-1 1,-3 3,-3l0 0c0,0 0,0 0,0 2,0 3,1 3,3l0 0 0 15 12 0 0 -15c0,0 0,0 0,0 0,-1 1,-3 3,-3l0 0 0 0zm-2 46c-5,3 -10,4 -16,4 -5,0 -11,-1 -16,-4 -3,3 -7,4 -10,4 -3,0 -5,0 -7,-1l0 11 66 0 0 -11c-2,1 -4,1 -6,1 -4,0 -7,-1 -11,-4l0 0zm11 -22l-8 0c0,0 -1,0 -1,0 0,0 0,0 0,0l-17 0c-1,0 -1,0 -1,0 0,0 0,0 0,0l-18 0c0,0 0,0 0,0 0,0 0,0 0,0l-9 0c-3,0 -6,3 -6,6l0 11c2,2 5,3 7,3 2,0 4,-1 7,-3l1 -1 1 -1 2 1c5,3 10,4 15,4 5,0 9,-1 14,-4l1 0 2 -1 2 1c3,3 5,4 8,4 2,0 4,-1 6,-3l0 -11c0,-3 -2,-6 -6,-6l0 0zm-27 -36c2,0 3,1 3,3 0,2 -1,3 -3,3 -1,0 -3,-1 -3,-3 0,-2 2,-3 3,-3zm18 6c2,0 3,1 3,3 0,2 -1,3 -3,3 -1,0 -3,-1 -3,-3 0,-2 2,-3 3,-3l0 0zm-36 -6c2,0 3,1 3,3 0,2 -1,3 -3,3 -2,0 -3,-1 -3,-3 0,-2 1,-3 3,-3l0 0z" p-id="4174"/>
  <path class="fil1" d="M7 98c4,0 7,3 7,7 0,4 -3,7 -7,7 -4,0 -7,-3 -7,-7 0,-4 3,-7 7,-7z"/>
  <path class="fil2" d="M57 121c0,0 0,0 0,1 0,0 0,0 -1,0l-24 0c0,0 -1,0 -1,0 0,-1 0,-1 0,-1l0 -1c0,-1 0,-1 0,-1 0,-1 1,-1 1,-1l10 0c0,0 0,0 1,0 0,0 0,-1 0,-1l0 -8c0,0 0,0 0,-1 -1,0 -1,0 -1,0l-10 0c0,0 -1,0 -1,0 0,-1 0,-1 0,-2l0 0c0,-1 0,-1 0,-1 0,-1 1,-1 1,-1l10 0c0,0 0,0 1,0 0,-1 0,-1 0,-1l0 -6c0,-1 0,-1 0,-1 -1,-1 -1,-1 -1,-1l-7 0c0,0 -1,0 -1,0 -1,0 -1,0 -1,-1l-1 0c-1,-1 -1,-1 -1,-2 0,0 0,0 0,-1l0 -3c0,-1 0,-1 0,-1 0,-1 1,-1 1,-1l1 0c0,0 1,0 1,1 0,0 0,0 0,1l0 2c0,1 1,1 1,1 0,0 0,1 1,1l6 0c0,0 0,-1 1,-1 0,0 0,0 0,-1l0 -3c0,-1 0,-1 1,-1 0,-1 0,-1 1,-1l0 0c1,0 1,0 1,1 1,0 1,0 1,1l0 3c0,1 0,1 0,1 1,0 1,1 1,1l8 0c1,0 1,0 1,0 0,0 0,1 0,1l0 1c0,0 0,1 0,1 0,0 0,0 -1,0l-8 0c0,0 0,0 -1,1 0,0 0,0 0,1l0 6c0,0 0,0 0,1 1,0 1,0 1,0l8 0c1,0 1,0 1,1 0,0 0,0 0,1l0 0c0,1 0,1 0,2 0,0 0,0 -1,0l-8 0c0,0 0,0 -1,0 0,1 0,1 0,1l0 8c0,0 0,1 0,1 1,0 1,0 1,0l8 0c1,0 1,0 1,1 0,0 0,0 0,1l0 1zm7 -34c0,-1 0,-1 0,-1 0,-1 1,-1 1,-1l24 0c0,0 0,0 1,1 0,0 0,0 0,1l0 31c0,0 0,1 0,1 0,0 -1,1 -1,1l-1 1c0,0 0,1 -1,1 0,0 -1,0 -1,0l-21 0c0,0 -1,0 -1,0 0,-1 0,-1 0,-1l0 -34zm21 31c0,0 1,0 1,0 0,0 0,-1 0,-1l0 -11c0,-1 0,-1 0,-1 0,0 -1,-1 -1,-1l-16 0c-1,0 -1,1 -1,1 -1,0 -1,0 -1,1l0 11c0,0 0,1 1,1 0,0 0,0 1,0l16 0zm-16 -29c-1,0 -1,0 -1,0 -1,1 -1,1 -1,1l0 9c0,1 0,1 1,1 0,1 0,1 1,1l16 0c0,0 1,0 1,-1 0,0 0,0 0,-1l0 -9c0,0 0,0 0,-1 0,0 -1,0 -1,0l-16 0z"/>
  <path class="fil2" d="M38 136c0,0 0,1 0,1 0,0 0,1 -1,1 0,0 0,0 0,1 0,0 -1,0 -1,0 0,0 0,0 -1,0 0,0 0,0 -1,0l-3 0c0,0 0,0 0,0 0,0 0,0 0,0l0 -10c0,0 0,-1 0,-1 0,0 0,0 0,0l3 0c0,0 1,0 1,0 1,1 1,1 1,1 1,0 1,1 1,1 0,0 0,1 0,1 0,0 0,1 0,1 0,0 0,0 0,0 0,1 0,1 -1,1 0,0 0,0 0,0 0,0 0,1 1,1 0,0 0,0 0,0 1,1 1,1 1,1 0,0 0,1 0,1zm-2 -5c0,0 0,0 0,-1 0,0 -1,0 -1,0 0,0 0,0 0,0 -1,-1 -1,-1 -1,-1l-2 0 0 4 2 0c0,0 0,0 1,0 0,0 0,0 0,-1 0,0 1,0 1,0 0,0 0,-1 0,-1zm0 5c0,0 0,0 0,-1 0,0 0,0 0,0 0,0 -1,-1 -1,-1 0,0 -1,0 -1,0l-2 0 0 4 2 0c1,0 1,0 1,0 0,0 1,0 1,0 0,-1 0,-1 0,-1 0,0 0,0 0,-1zm6 3c0,0 0,0 0,0 0,0 0,0 0,0 0,0 0,0 0,0 0,0 0,0 0,0 -1,0 -1,0 -1,0 0,0 0,0 0,0 0,0 0,0 0,0 0,0 0,0 0,0l0 -8c0,0 0,0 0,0 0,0 0,0 0,0 0,0 0,0 0,0 0,0 0,0 1,0 0,0 0,0 0,0 0,0 0,0 0,0 0,0 0,0 0,0 0,0 0,0 0,0l0 8zm0 -10c0,0 0,0 0,0 0,1 0,1 0,1 -1,0 -1,0 -1,-1 0,0 0,0 0,0 0,-1 0,-1 0,-1 0,0 0,0 1,0 0,0 0,0 0,0 0,0 0,0 0,1zm8 3c0,0 0,0 0,0 0,0 0,0 0,0 0,0 0,1 0,1 0,0 0,0 0,0 0,0 0,0 0,0 0,0 0,-1 0,-1 -1,0 -1,0 -1,0 0,0 0,0 0,0 0,0 0,0 0,0 -1,0 -1,1 -1,1 0,0 0,0 0,0 -1,0 -1,1 -1,1l0 5c0,0 0,0 0,0 0,0 0,0 0,0 0,0 0,0 0,0 0,0 -1,0 -1,0 0,0 0,0 0,0 0,0 0,0 0,0 0,0 0,0 0,0 0,0 0,0 0,0l0 -8c0,0 0,0 0,0 0,0 0,0 0,0 0,0 0,0 0,0 0,0 0,0 0,0 0,0 1,0 1,0 0,0 0,0 0,0 0,0 0,0 0,0 0,0 0,0 0,0l0 2c0,-1 0,-1 1,-1 0,0 0,-1 0,-1 0,0 0,0 1,0 0,0 0,0 0,0 0,0 0,0 0,0 0,0 0,0 1,0 0,0 0,0 0,0 0,0 0,0 0,0 0,0 0,0 0,0 0,0 0,0 0,0 0,0 0,1 0,1 0,0 0,0 0,0zm7 7c0,0 0,0 0,0 -1,0 -1,0 -1,0 0,0 0,0 0,0 0,0 0,0 0,0 0,0 0,0 0,0 -1,0 -1,0 -1,0 0,0 -1,0 -1,0 0,0 0,0 -1,0 0,0 0,-1 0,-1 0,0 0,-1 0,-1l0 -5 -1 0c0,0 0,0 0,0 0,0 0,0 0,0 0,0 0,0 0,0 0,-1 0,-1 0,-1 0,0 0,0 0,0 0,0 0,0 0,0l1 0 0 -2c0,0 0,0 0,0 0,0 0,0 0,0 0,0 0,0 0,0 0,0 0,0 1,0 0,0 0,0 0,0 0,0 0,0 0,0 0,0 0,0 0,0 0,0 0,0 0,0l0 2 2 0c0,0 0,0 0,0 0,0 0,0 0,0 0,0 1,0 1,1 0,0 0,0 0,0 0,0 0,0 -1,0 0,0 0,0 0,0l-2 0 0 5c0,0 0,1 1,1 0,0 0,0 0,0 1,0 1,0 1,0 0,0 0,0 0,0 0,0 0,0 0,0 0,0 0,0 0,0 0,0 0,0 0,0 0,0 0,0 0,0 1,0 1,0 1,0 0,0 0,0 0,1zm9 0c0,0 0,0 0,0 0,0 0,0 0,0 0,0 0,0 -1,0 0,0 0,0 0,0 0,0 0,0 0,0 0,0 0,0 0,0 0,0 -1,0 -1,0 0,0 0,0 0,0l0 -4c0,-1 0,-1 0,-1 0,-1 0,-1 0,-1 0,0 0,-1 0,-1 -1,0 -1,0 -1,0 -1,0 -1,0 -1,1 -1,0 -1,0 -1,1l0 5c0,0 0,0 0,0 0,0 0,0 -1,0 0,0 0,0 0,0 0,0 0,0 0,0 0,0 0,0 0,0 -1,0 -1,0 -1,0 0,0 0,0 0,0 0,0 0,0 0,0l0 -11c0,0 0,0 0,0 0,0 0,-1 0,-1 0,0 0,0 1,0 0,0 0,0 0,0 0,0 0,0 0,0 0,0 0,0 0,0 1,0 1,1 1,1 0,0 0,0 0,0l0 4c0,0 0,0 1,-1 0,0 1,0 1,0 1,0 1,0 1,0 1,0 1,1 1,1 0,0 1,1 1,1 0,0 0,1 0,1l0 5zm10 0c0,0 0,0 0,0 0,0 0,0 0,0 0,0 0,0 -1,0 0,0 0,0 0,0 0,0 0,0 0,0 0,0 0,0 0,0 0,0 0,0 0,0 0,0 0,0 0,0l0 -1c-1,1 -1,1 -2,1 0,0 -1,0 -1,0 -1,0 -1,0 -2,0 0,0 0,0 -1,-1 0,0 0,-1 0,-1 0,-1 0,-1 0,-2 0,0 0,-1 0,-1 0,-1 0,-1 1,-2 0,0 0,0 1,-1 0,0 0,0 1,0 0,0 1,0 1,0 1,1 1,1 1,1l0 -4c0,0 0,0 0,0 0,0 0,0 1,0 0,-1 0,-1 0,-1 0,0 0,0 0,0 0,0 0,0 0,0 1,0 1,0 1,1 0,0 0,0 0,0 0,0 0,0 0,0l0 11zm-2 -5c0,-1 0,-1 -1,-1 0,-1 0,-1 -1,-1 0,0 0,0 -1,0 0,1 0,1 0,1 -1,0 -1,1 -1,1 0,0 0,1 0,1 0,1 0,1 0,1 0,1 0,1 1,1 0,1 0,1 0,1 0,0 1,0 1,0 0,0 0,0 1,0 0,0 0,0 0,0 0,0 1,0 1,-1 0,0 0,0 0,0l0 -3zm11 5c0,0 0,0 0,0 0,0 0,0 0,0 0,0 0,0 -1,0 0,0 0,0 0,0 0,0 0,0 0,0 0,0 0,0 0,0l0 -1c-1,1 -1,1 -1,1 -1,0 -1,0 -2,0 0,0 0,0 -1,0 0,0 0,0 -1,0 0,0 0,-1 0,-1 0,0 0,0 0,-1 0,0 0,-1 0,-1 0,0 0,-1 1,-1 0,0 0,0 1,0 0,0 1,0 2,0l1 0 0 -1c0,0 0,-1 0,-1 -1,0 -1,0 -1,0 0,-1 0,-1 0,-1 -1,0 -1,0 -1,0 -1,0 -1,0 -1,0 0,0 -1,0 -1,1 0,0 0,0 0,0 0,0 -1,0 -1,0 0,0 0,0 0,0 0,0 0,0 0,0 0,0 0,0 0,0 0,0 0,0 0,-1 0,0 0,0 0,0 0,0 0,0 0,0 0,0 0,0 1,0 0,-1 0,-1 0,-1 1,0 1,0 1,0 0,0 1,0 1,0 1,0 1,0 1,0 1,0 1,1 1,1 1,0 1,0 1,1 0,0 0,0 0,1l0 5zm-1 -3l-2 0c0,0 0,0 -1,0 0,0 0,0 0,0 -1,0 -1,0 -1,0 0,1 0,1 0,1 0,0 0,1 1,1 0,0 0,0 1,0 0,0 0,0 1,0 0,0 0,0 1,-1l0 -1zm8 3l-1 3c0,0 -1,0 -1,0 0,0 0,0 0,0 0,0 -1,0 -1,0 0,0 0,0 0,0 0,0 0,0 0,0 0,0 0,0 0,0l1 -3c0,0 0,0 0,0 0,0 0,0 0,0l-3 -7c0,0 0,-1 0,-1 0,0 0,0 0,0 0,0 0,0 0,0 0,0 1,0 1,0 0,0 0,0 0,0 0,0 0,0 0,0 0,0 0,0 1,0 0,0 0,0 0,0l2 7 0 0 2 -7c0,0 0,0 0,0 0,0 0,0 0,0 0,0 1,0 1,0 0,0 0,0 0,0 0,0 0,0 0,0 0,0 0,0 0,0 0,0 0,1 0,1l-2 7zm9 -2c0,0 0,1 0,1 0,0 0,1 0,1 -1,0 -1,0 -1,0 -1,0 -1,0 -2,0 0,0 0,0 0,0 -1,0 -1,0 -1,0 0,0 0,0 0,0 -1,0 -1,0 -1,0 0,0 0,0 0,0 0,0 0,-1 0,-1 0,0 0,0 0,0 0,0 0,0 0,0 0,0 0,0 0,0 0,0 0,0 0,0 0,0 0,0 1,0 0,0 0,0 0,0 0,0 0,0 1,0 0,0 0,0 0,0 1,0 1,0 1,0 0,0 0,0 1,0 0,0 0,0 0,0 0,0 0,-1 0,-1 0,0 0,0 0,0 0,-1 0,-1 -1,-1 0,0 0,0 0,0 0,0 -1,0 -1,0 0,-1 0,-1 -1,-1 0,0 0,0 0,0 0,0 -1,-1 -1,-1 0,0 0,0 0,-1 0,0 0,0 0,-1 1,0 1,0 1,0 0,-1 0,-1 1,-1 0,0 1,0 1,0 0,0 0,0 1,0 0,0 0,0 0,0 0,0 1,0 1,0 0,0 0,0 0,1 0,0 0,0 0,0 0,0 0,0 0,0 0,0 0,0 0,0 0,0 0,0 0,0 0,0 0,0 0,0 0,0 0,1 0,1 0,0 0,0 0,0 0,0 0,0 0,0 0,0 0,0 0,0 0,0 -1,-1 -1,-1 0,0 0,0 0,0 0,0 -1,0 -1,0 0,0 0,0 -1,0 0,0 0,0 0,0 0,1 0,1 0,1 0,0 0,0 0,0 0,0 0,1 0,1 0,0 0,0 0,0 0,0 1,0 1,0 0,1 0,1 1,1 0,0 0,0 0,0 0,0 1,0 1,1 0,0 0,0 0,0 0,0 0,1 0,1z"/>
 </g>
</svg>
