<?xml version="1.0" encoding="UTF-8"?>
<!DOCTYPE svg PUBLIC "-//W3C//DTD SVG 1.1//EN" "http://www.w3.org/Graphics/SVG/1.1/DTD/svg11.dtd">
<!-- Creator: CorelDRAW X8 -->
<svg xmlns="http://www.w3.org/2000/svg" xml:space="preserve" width="78.9677mm" height="74.8427mm" version="1.1" style="shape-rendering:geometricPrecision; text-rendering:geometricPrecision; image-rendering:optimizeQuality; fill-rule:evenodd; clip-rule:evenodd"
viewBox="0 0 768 728"
 xmlns:xlink="http://www.w3.org/1999/xlink"
 t="1666937055010"
 p-id="31978">
 <defs>
  <style type="text/css">
   <![CDATA[
    .fil1 {fill:none}
    .fil0 {fill:#FEFEFE}
    .fil2 {fill:white;fill-rule:nonzero}
   ]]>
  </style>
 </defs>
 <g id="图层_x0020_1">
  <metadata id="CorelCorpID_0Corel-Layer"/>
  <g id="_2789743220336">
   <path class="fil0" d="M448 200l86 87 -113 112 -39 0 0 -133 -87 87 -28 -28 115 -115 0 -19 -115 -115 28 -28 87 86 0 -133 39 0 113 113 -86 86 0 0 0 0zm-27 30l0 113 57 -56 -57 -57zm0 -60l57 -56 -57 -56 0 112 0 0z" p-id="31979"/>
  </g>
  <rect class="fil1" width="768" height="728"/>
  <path class="fil0" d="M35 498c20,0 35,15 35,35 0,19 -15,35 -35,35 -19,0 -35,-16 -35,-35 0,-20 16,-35 35,-35z"/>
  <path class="fil2" d="M262 620c0,2 0,4 -2,5 -1,2 -3,2 -5,2l-123 0c-2,0 -3,0 -5,-2 -1,-1 -2,-3 -2,-5l0 -4c0,-3 0,-4 1,-6 0,-1 0,-2 1,-2 0,0 1,0 1,-2 1,-1 1,-3 1,-5l0 -37c0,-2 0,-4 1,-5 1,-1 2,-2 4,-2l117 0c2,0 4,1 5,2 2,1 2,3 2,5l0 37c0,2 1,4 1,5 1,2 1,2 1,2 1,0 1,1 2,2 0,2 0,3 0,6l0 4zm1 -161c0,2 -1,3 -2,5 -1,1 -3,2 -5,2 -1,0 -3,0 -4,1 -1,1 -2,2 -2,3 0,1 -1,2 -2,3 -2,0 -3,1 -5,1l-5 0c-2,0 -4,-1 -5,-1 -1,-1 -2,-2 -2,-3 0,-1 -1,-2 -2,-3 -2,-1 -3,-1 -5,-1l-60 0c-2,0 -4,0 -5,1 -1,1 -2,2 -2,3 0,1 -1,2 -2,3 -2,0 -3,1 -5,1l-5 0c-2,0 -4,-1 -5,-1 -2,-1 -2,-2 -2,-3 0,-1 -1,-2 -2,-3 -1,-1 -3,-1 -4,-1 -2,0 -4,-1 -5,-2 -1,-2 -2,-3 -2,-5l0 -5c0,-2 1,-4 2,-5 1,-2 3,-2 5,-2 1,0 3,-1 4,-2 1,0 2,-1 2,-2 0,-2 0,-3 2,-4 1,-1 3,-1 5,-1l5 0c2,0 3,0 5,1 1,1 2,2 2,4 0,1 1,2 2,2 1,1 3,2 5,2l60 0c2,0 3,-1 5,-2 1,0 2,-1 2,-2 0,-2 1,-3 2,-4 1,-1 3,-1 5,-1l5 0c2,0 3,0 5,1 1,1 2,2 2,4 0,1 1,2 2,2 1,1 3,2 4,2 2,0 4,0 5,2 1,1 2,3 2,5l0 5zm-5 36c0,2 0,4 -2,5 -1,1 -3,2 -5,2l-28 0c-2,0 -3,1 -5,2 -1,2 -2,3 -2,5l0 17c0,2 0,4 -1,6 -1,3 -2,5 -4,6l-5 5c-2,2 -3,3 -5,4 -2,1 -4,1 -5,1 -2,0 -3,0 -4,-2 -1,-1 -1,-3 -1,-5l0 -5c0,-2 0,-3 1,-5 0,-1 1,-2 2,-2 1,0 2,0 2,-2 1,-1 1,-3 1,-5l0 -32c0,-2 1,-3 2,-5 1,-1 3,-2 5,-2l47 0c2,0 4,1 5,2 2,2 2,3 2,5l0 5zm-110 46c0,2 -1,4 -2,5 -1,2 -3,2 -5,2l-5 0c-2,0 -4,0 -5,-2 -1,-1 -2,-3 -2,-5l0 -51c0,-2 1,-3 2,-5 1,-1 3,-2 5,-2l5 0c2,0 4,1 5,2 1,2 2,3 2,5l0 51zm24 -58c2,0 3,1 5,2 1,2 2,3 2,5l0 51c0,2 -1,4 -2,5 -2,2 -3,2 -5,2l-5 0c-2,0 -4,0 -5,-2 -2,-1 -2,-3 -2,-5l0 -51c0,-2 0,-3 2,-5 1,-1 3,-2 5,-2l5 0zm69 28c2,0 4,0 5,2 1,1 2,3 2,5l0 4c0,2 1,4 2,5 1,2 2,2 3,2 2,0 3,1 4,2 1,2 1,3 1,5l0 5c0,2 0,4 -2,5 -1,2 -3,2 -5,2l0 0c-2,0 -4,0 -6,-1 -3,-1 -5,-2 -6,-4l-5 -5c-1,-1 -2,-3 -4,-6 -1,-2 -1,-4 -1,-6l0 -8c0,-2 1,-4 2,-5 2,-2 3,-2 5,-2l5 0zm-38 72c0,-2 -1,-3 -2,-5 -2,-1 -3,-2 -5,-2l-4 0c-2,0 -4,1 -5,2 -1,2 -2,3 -2,5l0 18c0,2 1,4 2,5 1,2 3,2 5,2l4 0c2,0 3,0 5,-2 1,-1 2,-3 2,-5l0 -18zm36 0c0,-2 0,-3 -2,-5 -1,-1 -3,-2 -5,-2l-3 0c-2,0 -4,1 -5,2 -1,2 -2,3 -2,5l0 18c0,2 1,4 2,5 1,2 3,2 5,2l3 0c2,0 4,0 5,-2 2,-1 2,-3 2,-5l0 -18zm-91 18c0,2 1,4 2,5 1,2 3,2 5,2l3 0c2,0 4,0 5,-2 2,-1 3,-3 3,-5l0 -18c0,-2 -1,-3 -3,-5 -1,-1 -3,-2 -5,-2l-3 0c-2,0 -4,1 -5,2 -1,2 -2,3 -2,5l0 18zm211 -66c2,0 4,1 5,2 1,1 1,3 0,4l-35 80c-1,2 -3,3 -5,5 -2,1 -4,1 -5,1l-18 0c-2,0 -3,0 -5,-2 -1,-1 -2,-3 -2,-5l0 -4c0,-3 1,-4 2,-6 2,-1 3,-2 5,-2l6 0c2,0 4,0 6,-2 2,-1 3,-2 4,-4l25 -61c1,-1 2,-3 4,-4 2,-1 4,-2 6,-2l7 0zm60 -78c-2,0 -4,1 -5,2 -2,2 -3,3 -3,5l0 35c0,2 1,4 3,5 1,2 3,3 5,3l6 0c2,0 4,0 5,2 1,1 2,3 2,5l0 5c0,1 -1,3 -2,5 -1,1 -3,2 -5,2l-6 0c-2,0 -4,0 -5,2 -2,1 -3,3 -3,5l0 72c0,2 0,4 -1,7 -1,2 -2,4 -3,6l-4 4c-2,1 -3,3 -6,4 -2,1 -5,1 -6,1l-24 0c-2,0 -4,0 -5,-2 -2,-1 -3,-3 -3,-5l0 -4c0,-3 1,-4 3,-6 1,-1 3,-2 5,-2l18 0c2,0 4,0 5,-2 2,-1 2,-3 2,-5l0 -68c0,-2 0,-4 -2,-5 -1,-2 -3,-2 -5,-2l-68 0c-2,0 -4,-1 -7,-2 -2,-1 -4,-2 -5,-4l-6 -4c-1,-2 -2,-4 -3,-6 -1,-2 -2,-5 -2,-7l0 -25c0,-2 1,-4 2,-5 2,-1 3,-2 5,-2l5 0c2,0 4,1 5,2 2,1 2,3 2,5l0 21c0,2 1,4 2,5 2,2 4,3 6,3l64 0c2,0 4,-1 5,-3 2,-1 2,-3 2,-5l0 -35c0,-2 0,-3 -2,-5 -1,-1 -3,-2 -5,-2l-84 0c-2,0 -3,-1 -5,-2 -1,-1 -2,-3 -2,-5l0 -5c0,-2 1,-4 2,-5 2,-2 3,-2 5,-2l124 0c2,0 4,0 5,2 1,1 2,3 2,5l0 5c0,2 -1,4 -2,5 -1,1 -3,2 -5,2l-6 0zm130 42c-1,0 -3,1 -5,2 -1,2 -2,3 -2,5l0 11c0,2 1,3 2,5 2,1 4,2 5,2l8 0c2,0 3,1 5,2 2,1 3,3 4,5l7 27c1,2 1,3 2,5 1,1 2,2 3,2 1,0 2,-1 3,-3 1,-1 1,-3 1,-4l0 -40c0,-2 1,-4 2,-5 2,-2 3,-2 5,-2l5 0c2,0 4,0 5,2 1,1 2,3 2,5l0 43c0,2 0,4 -1,7 -1,2 -3,4 -4,6l-5 5c-2,1 -3,2 -4,3 -2,1 -3,2 -4,2 -1,0 -1,1 -1,2 -1,1 0,3 0,5l3 10c1,2 2,4 4,5 1,2 3,2 5,2 2,0 4,1 5,2 1,2 2,3 2,6l0 4c0,2 -1,4 -2,5 -1,2 -3,2 -5,2l-15 0c-2,0 -4,0 -6,-2 -1,-1 -3,-3 -3,-5l-19 -69c-1,-2 -1,-4 -2,-5 -1,-2 -2,-3 -3,-3 -1,0 -2,1 -3,3 -1,1 -1,3 -1,5l0 50c0,2 1,4 2,5 2,2 4,2 6,2l1 0c2,0 4,1 6,2 1,2 2,3 2,6l0 4c0,2 -1,4 -2,5 -2,2 -4,2 -6,2l-5 0c-2,0 -4,0 -7,-1 -2,-1 -4,-3 -6,-4l-3 -4c-2,-2 -3,-4 -4,-6 -1,-3 -1,-5 -1,-7l0 -122c0,-1 0,-2 2,-2 1,-1 3,-1 5,-1l43 0c2,0 3,-1 5,-2 1,-1 2,-2 2,-3 0,-1 1,-2 2,-3 2,-1 3,-2 5,-2l5 0c2,0 4,1 5,2 1,2 2,3 2,5 0,2 0,4 -1,6 -1,3 -3,5 -4,6l-5 5c-2,1 -3,3 -6,4 -2,1 -4,1 -6,1l-30 0zm33 -56c0,-2 1,-3 2,-4 2,-1 3,-1 5,-1l5 0c2,0 4,0 5,2 1,1 2,2 2,4 0,2 0,4 -1,7 -1,2 -3,4 -4,5l-5 5c-2,2 -3,3 -6,4 -2,1 -4,1 -6,1l-52 0c-2,0 -4,1 -5,3 -2,1 -2,3 -2,5l0 131c0,2 -1,4 -2,7 -1,2 -2,4 -3,6l-4 4c-2,1 -3,3 -5,4 -2,1 -4,1 -6,1 -1,0 -3,0 -4,-2 -1,-1 -2,-3 -2,-5l0 -4c0,-3 1,-4 1,-6 1,-1 2,-2 2,-2 1,0 2,0 3,-2 0,-1 0,-3 0,-5l0 -147c0,-2 1,-3 1,-5 0,-1 1,-2 1,-2l73 0c2,0 3,0 5,-1 1,-1 2,-2 2,-3zm-119 173c0,-3 0,-4 1,-6 0,-1 1,-2 2,-2 1,0 1,0 2,-2 0,-1 1,-3 1,-5l0 -78c0,-2 0,-3 2,-5 1,-1 3,-2 5,-2l5 0c2,0 3,1 5,2 1,2 2,3 2,5l0 82c0,2 -1,4 -2,6 -1,3 -2,5 -3,6l-5 5c-2,2 -3,3 -5,4 -2,1 -4,1 -5,1 -1,0 -3,0 -3,-2 -1,-1 -2,-3 -2,-5l0 -4zm10 -133c2,-1 3,-2 5,-2 2,0 4,1 5,2l4 3c1,2 2,4 2,6 0,2 -1,3 -2,5l-4 3c-1,2 -3,2 -5,2 -2,0 -3,0 -5,-2l-3 -3c-2,-2 -2,-3 -2,-5 0,-2 0,-4 2,-6l3 -3zm0 -39c2,-2 3,-2 5,-2 2,0 4,0 5,2l4 3c1,1 2,3 2,5 0,2 -1,4 -2,5l-4 4c-1,1 -3,2 -5,2 -2,0 -3,-1 -5,-2l-3 -4c-2,-1 -2,-3 -2,-5 0,-2 0,-4 2,-5l3 -3zm215 114c0,2 0,4 -1,7 -1,3 -2,5 -3,7l-9 15c-1,1 -2,4 -2,6 0,3 1,5 2,6l1 3c2,2 3,3 4,4 2,2 3,2 4,2 1,0 2,1 3,2 1,2 1,3 1,6l0 4c0,2 -1,4 -2,5 -2,2 -3,2 -5,2l-5 0c-2,0 -4,0 -6,-1 -2,-2 -4,-3 -5,-5l-2 -3c-1,-2 -2,-2 -3,-2 -2,0 -3,0 -4,2l-2 3c-1,2 -2,3 -5,5 -2,1 -4,1 -6,1l-3 0c-2,0 -4,0 -5,-2 -2,-1 -3,-3 -3,-5l0 -4c0,-3 1,-4 1,-6 1,-1 2,-2 3,-2 1,0 2,0 3,-2 2,-1 3,-2 4,-4l2 -3c1,-1 2,-4 2,-6 0,-2 -1,-5 -2,-6l-9 -15c-1,-2 -2,-4 -2,-7 -1,-3 -2,-5 -2,-7l0 -80c0,-2 1,-4 3,-6 1,-1 3,-2 5,-2l4 0c2,0 4,1 6,2 1,2 2,4 2,6l0 75c0,1 0,4 1,6 0,3 1,5 2,7l1 2c1,2 3,3 4,3 1,0 3,-1 4,-3l1 -2c1,-2 2,-4 3,-7 0,-2 1,-5 1,-6l0 -89c0,-2 -1,-3 -2,-5 -2,-1 -4,-2 -6,-2l-22 0c-2,0 -3,-1 -5,-2 -1,-1 -2,-3 -2,-5l0 -5c0,-2 1,-4 2,-5 2,-2 3,-2 5,-2l42 0c2,0 3,0 5,2 1,1 2,3 2,5l0 113zm5 -100c0,-2 1,-4 2,-5 2,-2 3,-3 5,-3l36 0c2,0 3,0 5,-2 1,-1 2,-2 2,-4 0,-2 0,-3 2,-4 1,-2 3,-2 5,-2l5 0c1,0 3,0 5,2 1,1 2,2 2,4 0,2 0,3 1,4 0,2 0,2 1,2 1,0 2,1 2,2 1,2 1,4 1,6l0 4c0,2 0,4 -1,5 0,2 -1,2 -2,2 -1,0 -1,1 -1,3 -1,1 -1,3 -1,5l0 143c0,2 -1,4 -2,5 -2,1 -4,2 -6,2l-36 0c-2,0 -4,-1 -5,-2 -2,-1 -2,-3 -2,-5l0 -5c0,-2 0,-4 2,-5 1,-2 3,-2 5,-2l18 0c2,0 3,-1 5,-2 1,-2 2,-3 2,-5l0 -124c0,-2 -1,-4 -2,-5 -2,-2 -3,-2 -5,-2l-36 0c-2,0 -3,-1 -5,-3 -1,-1 -2,-3 -2,-5l0 -4zm21 27c2,0 4,1 6,3 1,1 2,3 2,5l0 71c0,2 0,3 1,5 1,1 2,2 4,2 1,0 3,1 4,2 1,1 2,3 2,5l0 5c0,2 -1,3 -3,5 -1,1 -3,2 -5,2l-15 0c-2,0 -4,-1 -5,-2 -2,-2 -3,-3 -3,-5l0 -90c0,-2 1,-4 3,-5 1,-2 3,-3 5,-3l4 0z"/>
  <path class="fil2" d="M165 702c0,2 0,3 -1,5 0,1 -1,2 -2,4 -1,1 -2,2 -3,3 -1,1 -2,1 -4,2 -1,1 -3,1 -4,1 -2,1 -4,1 -6,1l-14 0c-1,0 -2,0 -2,-1 -1,0 -1,-1 -1,-2l0 -50c0,-1 0,-2 1,-2 0,-1 1,-1 2,-1l12 0c4,0 6,0 9,1 2,1 3,1 5,3 1,1 2,2 3,4 1,2 1,4 1,6 0,1 0,3 0,4 -1,1 -1,2 -2,3 0,1 -1,2 -2,3 -1,1 -2,1 -3,2 1,0 3,1 4,1 1,1 3,2 4,3 1,2 1,3 2,5 0,1 1,3 1,5zm-11 -25c0,-2 -1,-3 -1,-4 0,-1 -1,-2 -2,-3 -1,0 -2,-1 -3,-1 -1,-1 -3,-1 -5,-1l-8 0 0 18 9 0c2,0 3,0 4,-1 2,0 3,-1 3,-2 1,-1 2,-2 2,-3 0,-1 1,-2 1,-3zm3 25c0,-1 0,-3 -1,-4 0,-1 -1,-3 -2,-3 -1,-1 -2,-2 -4,-2 -2,-1 -3,-1 -6,-1l-9 0 0 20 11 0c2,0 3,-1 5,-1 1,0 2,-1 3,-2 1,-1 2,-2 2,-3 1,-1 1,-2 1,-4zm29 15c0,0 0,0 0,0 0,0 0,1 0,1 -1,0 -1,0 -2,0 0,0 -1,0 -1,0 -1,0 -2,0 -2,0 0,0 -1,0 -1,0 0,0 -1,-1 -1,-1 0,0 0,0 0,0l0 -58c0,0 0,0 0,-1 0,0 1,0 1,0 0,0 1,0 1,0 0,0 1,0 2,0 0,0 1,0 1,0 1,0 1,0 2,0 0,0 0,0 0,0 0,1 0,1 0,1l0 58zm51 0c0,0 0,0 -1,0 0,0 0,1 0,1 0,0 -1,0 -1,0 0,0 -1,0 -2,0 0,0 -1,0 -1,0 -1,0 -1,0 -1,0 0,0 -1,-1 -1,-1 0,0 0,0 0,0l0 -5c-2,2 -4,4 -6,5 -3,1 -5,2 -7,2 -3,0 -5,-1 -6,-2 -2,-1 -4,-2 -5,-3 -1,-2 -2,-3 -2,-5 -1,-2 -1,-5 -1,-8l0 -23c0,0 0,-1 0,-1 0,0 1,0 1,0 0,0 1,0 1,0 0,0 1,0 2,0 0,0 1,0 1,0 1,0 1,0 2,0 0,0 0,0 0,0 0,0 0,1 0,1l0 22c0,3 0,5 1,6 0,1 1,2 1,3 1,1 2,2 3,3 1,0 2,0 4,0 1,0 3,0 5,-1 2,-2 3,-4 5,-6l0 -27c0,0 1,-1 1,-1 0,0 0,0 0,0 0,0 1,0 1,0 1,0 1,0 2,0 1,0 1,0 2,0 0,0 1,0 1,0 0,0 0,0 0,0 1,0 1,1 1,1l0 39zm50 -21c0,1 0,1 -1,2 -1,0 -1,1 -2,1l-25 0c0,2 0,4 0,6 1,1 1,3 2,4 1,1 3,2 4,3 2,0 4,1 6,1 2,0 4,0 5,-1 2,0 3,0 4,-1 1,0 2,0 2,-1 1,0 2,0 2,0 0,0 0,0 1,0 0,0 0,0 0,1 0,0 0,0 0,0 0,1 0,1 0,2 0,0 0,0 0,1 0,0 0,0 0,0 0,1 0,1 0,1 0,0 0,0 -1,0 0,1 0,1 -1,1 -1,1 -2,1 -3,1 -1,1 -3,1 -4,1 -2,0 -4,1 -5,1 -4,0 -6,-1 -9,-2 -2,-1 -4,-2 -6,-4 -2,-2 -3,-4 -4,-6 0,-3 -1,-6 -1,-10 0,-3 1,-6 1,-9 1,-2 3,-4 4,-6 2,-2 4,-4 6,-5 2,-1 5,-1 8,-1 3,0 5,0 8,1 2,1 3,3 5,4 1,2 2,4 3,6 1,2 1,5 1,7l0 2zm-7 -3c0,-3 -1,-6 -3,-8 -2,-2 -4,-4 -8,-4 -1,0 -3,1 -4,1 -2,1 -3,2 -4,3 0,1 -1,2 -2,4 0,1 0,3 0,4l21 0zm41 21c0,1 0,1 0,2 0,0 0,1 0,1 -1,0 -1,0 -1,1 -1,0 -1,0 -2,0 0,0 -1,0 -2,0 0,0 -1,0 -2,0 -2,0 -3,0 -5,0 -1,-1 -3,-2 -3,-3 -1,-1 -2,-2 -2,-4 -1,-1 -1,-3 -1,-6l0 -22 -6 0c0,0 0,-1 -1,-1 0,0 0,-1 0,-2 0,-1 0,-1 0,-2 0,0 0,0 0,-1 1,0 1,0 1,0 0,0 0,0 1,0l5 0 0 -9c0,-1 0,-1 0,-1 0,0 0,0 1,0 0,-1 0,-1 1,-1 0,0 1,0 2,0 0,0 1,0 1,0 1,0 1,0 1,1 1,0 1,0 1,0 0,0 0,0 0,1l0 9 10 0c0,0 0,0 1,0 0,0 0,0 0,0 0,1 0,1 0,1 0,1 0,1 0,2 0,1 0,2 0,2 0,0 -1,1 -1,1l-10 0 0 21c0,3 0,5 1,6 1,2 2,2 4,2 1,0 2,0 2,0 1,0 1,0 2,0 0,0 0,-1 1,-1 0,0 0,0 0,0 1,0 1,0 1,0 0,0 0,0 0,1 0,0 0,0 0,1 0,0 0,0 0,1zm49 -17c0,3 0,6 -1,9 -1,2 -2,5 -4,6 -2,2 -4,4 -6,5 -3,1 -6,2 -9,2 -3,0 -6,-1 -8,-2 -3,-1 -4,-2 -6,-4 -2,-2 -3,-4 -4,-7 0,-2 -1,-5 -1,-8 0,-4 1,-6 1,-9 1,-3 3,-5 4,-7 2,-2 4,-3 6,-5 3,-1 6,-1 9,-1 3,0 6,0 8,1 3,1 5,3 6,4 2,2 3,4 4,7 1,3 1,6 1,9zm-7 0c0,-2 -1,-4 -1,-6 0,-2 -1,-3 -2,-5 -1,-1 -2,-2 -4,-3 -1,-1 -3,-1 -5,-1 -2,0 -4,0 -6,1 -1,1 -2,2 -3,3 -1,1 -2,3 -3,5 0,2 0,4 0,6 0,2 0,4 0,6 1,2 1,4 2,5 1,1 2,3 4,3 1,1 3,2 6,2 2,0 3,-1 5,-2 1,0 3,-1 4,-3 1,-1 1,-3 2,-5 0,-1 1,-3 1,-6zm58 0c0,3 -1,6 -2,9 -1,2 -2,5 -3,6 -2,2 -4,4 -7,5 -2,1 -5,2 -8,2 -3,0 -6,-1 -9,-2 -2,-1 -4,-2 -6,-4 -1,-2 -2,-4 -3,-7 -1,-2 -1,-5 -1,-8 0,-4 0,-6 1,-9 1,-3 2,-5 4,-7 1,-2 3,-3 6,-5 2,-1 5,-1 9,-1 3,0 6,0 8,1 2,1 4,3 6,4 1,2 3,4 3,7 1,3 2,6 2,9zm-8 0c0,-2 0,-4 0,-6 -1,-2 -1,-3 -2,-5 -1,-1 -2,-2 -4,-3 -2,-1 -3,-1 -6,-1 -2,0 -4,0 -5,1 -2,1 -3,2 -4,3 -1,1 -2,3 -2,5 -1,2 -1,4 -1,6 0,2 0,4 1,6 0,2 1,4 2,5 1,1 2,3 3,3 2,1 4,2 6,2 2,0 4,-1 6,-2 1,0 2,-1 3,-3 1,-1 2,-3 2,-5 1,-1 1,-3 1,-6zm42 17c0,1 0,1 0,2 0,0 0,1 0,1 -1,0 -1,0 -1,1 -1,0 -1,0 -2,0 -1,0 -1,0 -2,0 -1,0 -1,0 -2,0 -2,0 -4,0 -5,0 -2,-1 -3,-2 -4,-3 -1,-1 -1,-2 -2,-4 0,-1 0,-3 0,-6l0 -22 -6 0c0,0 0,-1 -1,-1 0,0 0,-1 0,-2 0,-1 0,-1 0,-2 0,0 0,0 0,-1 0,0 1,0 1,0 0,0 0,0 0,0l6 0 0 -9c0,-1 0,-1 0,-1 0,0 0,0 0,0 1,-1 1,-1 2,-1 0,0 1,0 1,0 1,0 2,0 2,0 1,0 1,0 1,1 0,0 1,0 1,0 0,0 0,0 0,1l0 9 10 0c0,0 0,0 0,0 1,0 1,0 1,0 0,1 0,1 0,1 0,1 0,1 0,2 0,1 0,2 0,2 0,0 -1,1 -1,1l-10 0 0 21c0,3 0,5 1,6 1,2 2,2 4,2 1,0 2,0 2,0 1,0 1,0 1,0 1,0 1,-1 1,-1 1,0 1,0 1,0 0,0 1,0 1,0 0,0 0,0 0,1 0,0 0,0 0,1 0,0 0,0 0,1zm47 3c0,0 0,0 0,0 0,0 0,1 -1,1 0,0 0,0 -1,0 0,0 -1,0 -1,0 -1,0 -2,0 -2,0 -1,0 -1,0 -1,0 -1,0 -1,-1 -1,-1 0,0 0,0 0,0l0 -23c0,-2 0,-4 -1,-5 0,-2 0,-3 -1,-4 -1,-1 -2,-2 -3,-2 -1,-1 -2,-1 -3,-1 -2,0 -4,1 -6,2 -1,1 -3,3 -5,6l0 27c0,0 0,0 0,0 0,0 -1,1 -1,1 0,0 -1,0 -1,0 0,0 -1,0 -2,0 0,0 -1,0 -2,0 0,0 0,0 -1,0 0,0 0,-1 0,-1 0,0 0,0 0,0l0 -58c0,0 0,0 0,-1 0,0 0,0 0,0 1,0 1,0 1,0 1,0 2,0 2,0 1,0 2,0 2,0 0,0 1,0 1,0 0,0 1,0 1,0 0,1 0,1 0,1l0 23c2,-2 4,-3 6,-5 2,-1 4,-1 6,-1 3,0 5,0 7,1 1,1 3,2 4,4 1,1 2,3 2,5 1,2 1,4 1,7l0 24z"/>
 </g>
</svg>
