<?xml version="1.0" encoding="UTF-8"?>
<!DOCTYPE svg PUBLIC "-//W3C//DTD SVG 1.1//EN" "http://www.w3.org/Graphics/SVG/1.1/DTD/svg11.dtd">
<!-- Creator: CorelDRAW X8 -->
<svg xmlns="http://www.w3.org/2000/svg" xml:space="preserve" width="78.9677mm" height="74.8427mm" version="1.1" style="shape-rendering:geometricPrecision; text-rendering:geometricPrecision; image-rendering:optimizeQuality; fill-rule:evenodd; clip-rule:evenodd"
viewBox="0 0 208 197"
 xmlns:xlink="http://www.w3.org/1999/xlink">
 <defs>
  <style type="text/css">
   <![CDATA[
    .fil1 {fill:none}
    .fil0 {fill:#FEFEFE}
    .fil2 {fill:#FEFEFE;fill-rule:nonzero}
   ]]>
  </style>
 </defs>
 <g id="图层_x0020_1">
  <metadata id="CorelCorpID_0Corel-Layer"/>
  <path class="fil0" d="M151 83l-5 -12c1,-1 3,-2 4,-3 2,-2 2,-5 1,-8l-8 -17c1,0 3,-1 4,-3 1,-1 1,-3 0,-4l-11 -32c0,-2 -2,-3 -3,-4 -2,0 -4,0 -6,1l-27 21c-1,1 -2,3 -2,4 1,2 1,3 2,4l-17 10 0 0c-2,2 -3,4 -3,7 0,1 1,3 2,4l-11 7 0 0c-3,2 -4,5 -4,7l0 0c0,1 0,2 0,2 2,6 8,11 12,15 4,2 9,5 14,7l-3 8c0,1 0,2 0,4 2,2 5,5 9,6 2,1 5,1 6,1 2,0 4,0 5,-1 2,-1 2,-2 3,-3l2 -8c6,1 11,1 16,1 1,0 2,0 3,0 7,0 12,-2 15,-5 2,-2 3,-5 2,-8l0 -1zm-12 2c-2,-1 -4,-2 -7,-3 -2,0 -4,0 -7,-1 -3,0 -5,0 -8,-1 -2,-1 -5,-2 -7,-4 -2,-1 -3,-3 -5,-4 -2,-1 -4,-1 -6,-2 -3,-1 -6,-2 -8,-4 -2,-3 -3,-6 -4,-10 1,1 2,2 3,2 6,4 13,8 22,10 6,2 12,4 18,4l0 0c3,0 6,1 8,3 3,1 5,4 6,6l1 4c0,1 0,1 0,2 -2,-1 -4,-1 -6,-2zm6 -22c1,1 0,1 0,1 -1,1 -4,2 -10,2l0 0c-6,0 -14,-1 -21,-3 -8,-3 -15,-6 -21,-10 -1,0 -2,-1 -3,-2 2,1 4,2 7,3 0,0 1,0 2,0 3,0 5,-1 7,-1 2,0 4,-1 6,-1 1,0 1,0 2,0l0 3c0,1 1,2 2,2 1,0 1,-1 1,-2l0 -3c0,0 1,0 1,0 3,1 6,1 9,0 0,0 1,0 2,0l0 2c0,1 1,2 1,2 1,0 1,0 1,0 1,0 1,-1 1,-2l-1 -3c2,-1 4,-2 5,-4 1,0 1,0 1,0 1,1 2,3 3,4l5 12zm-4 -27c-1,-1 -1,-1 -2,-1 -1,-1 -2,-2 -4,-3 -1,0 -3,0 -5,-1 -1,0 -3,0 -4,-1 -2,-1 -3,-3 -4,-5 0,-1 -1,-2 -1,-3 -1,-1 -2,-2 -2,-3 -1,-1 -2,-1 -2,-2l8 -7c2,-1 3,-1 5,-1 1,1 2,2 3,4l8 23zm-27 -17c1,0 2,1 2,2 1,1 2,2 2,3l0 0 -2 2c-1,0 -1,1 0,2 0,0 1,0 1,0 0,0 1,0 1,0l2 -1c1,2 2,4 4,6 2,1 4,1 6,1 1,1 3,1 4,1 1,1 2,1 4,2 0,0 0,1 0,1 0,0 -1,0 -1,0 -2,0 -7,-1 -15,-3 -12,-4 -16,-7 -17,-9l9 -7zm-9 15c4,3 9,5 15,7 3,1 5,1 7,2l1 0c2,0 4,1 6,2 -2,2 -5,4 -8,5 -2,0 -5,0 -8,-1 -2,0 -4,0 -6,0 -2,0 -4,1 -6,1 -3,1 -6,1 -9,1 -3,-1 -5,-3 -8,-4 -1,-1 -2,-1 -3,-2 0,0 0,0 0,0l19 -11zm3 66l-1 2c-1,0 -3,1 -6,-1 -3,0 -5,-2 -5,-2l2 -8c2,1 6,2 6,2 2,0 3,1 4,3 0,1 0,2 0,4zm26 -9c-6,1 -13,0 -20,-2 -3,0 -6,-1 -8,-2 -9,-3 -17,-6 -23,-10 -6,-4 -9,-8 -10,-11 0,-1 0,-2 1,-3l10 -6c1,4 2,8 5,11 1,1 1,1 2,1l-2 3c-1,1 -1,2 0,2 0,0 1,1 1,1 0,0 1,-1 1,-1l3 -3c1,1 2,1 4,2 2,0 4,1 5,2 1,0 1,1 2,1l-1 4c0,0 0,1 1,2 0,0 0,0 0,0 1,0 1,-1 2,-1l1 -3c0,0 0,0 0,0 3,2 5,4 8,5 2,1 5,1 7,1l0 3c0,1 0,2 1,2 1,0 2,-1 2,-2l0 -2c2,0 4,0 6,0 2,1 4,2 6,2 2,1 3,2 5,2 -2,1 -5,2 -9,2z"/>
  <rect class="fil1" width="208" height="197"/>
  <path class="fil0" d="M46 135c5,0 9,4 9,9 0,5 -4,9 -9,9 -5,0 -9,-4 -9,-9 0,-5 4,-9 9,-9z"/>
  <path class="fil2" d="M112 165c0,0 -1,1 -1,1 0,1 -1,1 -1,1l-33 0c-1,0 -1,0 -2,-1 0,0 0,-1 0,-1l0 -1c0,-1 0,-1 0,-2 1,0 1,0 2,0l12 0c0,0 1,0 1,-1 0,0 1,-1 1,-1l0 -4c0,-1 -1,-1 -1,-2 0,0 -1,0 -1,0l-12 0c-1,0 -1,-1 -2,-1 0,0 0,-1 0,-1l0 -2c0,0 0,-1 0,-1 1,0 1,0 2,0l12 0c0,0 1,-1 1,-1 0,0 1,-1 1,-1l0 -1c0,-1 0,-1 0,-1 1,-1 1,-1 2,-1l1 0c0,0 1,0 1,1 1,0 1,0 1,1l0 1c0,0 0,1 0,1 1,0 1,1 2,1l12 0c0,0 1,0 1,0 0,0 1,1 1,1l0 2c0,0 -1,1 -1,1 0,0 -1,1 -1,1l-12 0c-1,0 -1,0 -2,0 0,1 0,1 0,2l0 4c0,0 0,1 0,1 1,1 1,1 2,1l12 0c0,0 1,0 1,0 0,1 1,1 1,2l0 1zm-32 -27c1,0 2,0 2,0 1,-1 2,-1 2,-1l1 -1c1,0 1,0 1,-1 0,0 0,0 0,0l-8 -4c-1,-1 -1,-1 -2,-2 0,0 0,-1 0,-1l0 -3c0,0 0,-1 0,-1 1,0 1,-1 2,-1l1 0c1,0 1,1 1,1 1,0 1,1 1,1 0,0 0,1 0,1 1,1 1,1 2,1l8 5c1,0 1,0 2,0 1,0 1,0 2,0l9 -5c0,0 1,0 1,-1 0,0 1,-1 1,-1l0 -2c0,0 -1,-1 -1,-1 0,-1 -1,-1 -1,-1l-26 0c-1,0 -1,0 -2,0 0,-1 0,-1 0,-2l0 -1c0,-1 0,-1 0,-1 1,-1 1,-1 2,-1l31 0c0,0 1,0 1,1 1,0 1,0 1,1l0 10c0,0 0,1 -1,1 0,1 -1,1 -1,1l-9 5c-1,0 -1,1 0,1l2 1c0,0 1,1 2,1 0,0 1,0 1,0l5 0c0,0 1,0 1,0 0,1 1,1 1,2l0 1c0,1 -1,1 -1,2 0,0 -1,0 -1,0l-6 0c0,0 -1,0 -2,0 0,0 -1,-1 -2,-1l-5 -3c-1,0 -1,0 -2,0 -1,0 -1,0 -2,0l-6 3c0,0 -1,0 -1,1 -1,0 -2,0 -2,0l-5 0c-1,0 -1,0 -2,-1 0,0 0,0 0,-1l0 -1c0,-1 0,-1 0,-2 1,0 1,0 2,0l3 0zm62 -9c0,0 0,0 1,0 0,1 0,1 0,2l0 21c0,0 1,1 1,1 0,1 0,1 1,1 0,0 0,0 0,-1 1,0 1,-1 1,-1l0 -27c0,0 0,-1 -1,-1 0,-1 -1,-1 -1,-1l-5 0c0,0 -1,0 -1,0 -1,-1 -1,-1 -1,-2l0 -1c0,-1 0,-1 1,-1 0,-1 1,-1 1,-1l11 0c0,0 1,0 1,0 0,0 1,-1 1,-1 0,0 0,0 0,-1 0,0 1,0 1,0l2 0c0,0 1,0 1,1 0,0 1,1 1,1l0 3c0,1 -1,1 -1,2 0,0 -1,0 -1,0l-2 0c-1,0 -1,0 -1,1 -1,0 -1,1 -1,1l0 6c0,1 0,1 1,2 0,0 0,0 1,0l2 0c0,0 1,0 1,1 0,0 1,1 1,1l0 1c0,1 -1,1 -1,2 0,0 -1,0 -1,0l-2 0c-1,0 -1,0 -1,1 -1,0 -1,1 -1,1l0 12c0,0 0,1 1,1 0,1 0,1 1,1l2 0c0,0 1,0 1,0 0,1 1,1 1,2l0 1c0,0 -1,1 -1,1 0,1 -1,1 -1,1l-16 0c0,0 -1,0 -1,-1 -1,0 -1,-1 -1,-1l0 -1c0,-1 0,-1 0,-2 1,0 1,0 1,0 0,0 0,0 1,-1 0,0 0,-1 0,-1l0 -21c0,-1 0,-1 0,-2 1,0 1,0 2,0l1 0zm-13 33c0,0 0,0 0,0 0,0 1,0 1,-1 0,0 0,0 0,-1l0 -14c0,0 0,-1 0,-1 0,0 -1,0 -1,0 0,0 0,-1 0,-1 0,0 -1,-1 -1,-1l0 -2c0,0 1,-1 1,-1 0,0 0,-1 0,-1 0,0 1,0 1,0 0,-1 0,-1 0,-2l0 -14c0,0 0,-1 0,-1 0,-1 -1,-1 -1,-1 0,0 0,0 0,0 0,-1 -1,-1 -1,-2l0 -1c0,0 1,-1 1,-1 0,-1 1,-1 1,-1l3 0c1,0 1,0 2,1 0,0 0,1 0,1l0 20c0,1 0,2 0,2 0,1 0,1 -1,1 0,0 0,1 0,1 0,0 0,1 0,1 1,0 1,0 1,1 0,0 0,1 0,1l0 10c0,0 0,1 0,1 1,1 1,2 1,2l2 2c1,1 1,1 2,1 0,1 1,1 1,1l14 0c0,0 1,0 1,0 0,1 1,1 1,2l0 1c0,0 -1,1 -1,1 0,1 -1,1 -1,1l-16 0c0,0 -1,0 -1,-1 -1,0 -1,0 -2,-1l0 0c-1,0 -1,-1 -2,-1 0,0 -1,0 -1,1l-1 1c0,0 0,0 -1,0 0,1 -1,1 -1,1 -1,0 -1,0 -1,-1 0,0 -1,-1 -1,-1l0 -1c0,-1 1,-1 1,-2zm-8 0c0,0 0,0 1,-1 0,0 0,-1 0,-1l0 -27c0,-1 0,-1 0,-2 -1,0 -1,0 -1,0 0,0 -1,0 -1,-1 0,0 0,-1 0,-1l0 -1c0,-1 0,-1 1,-2 0,0 0,0 1,0l3 0c1,0 1,0 1,0 1,1 1,1 1,2l0 37c0,0 0,1 -1,1 0,1 0,1 -1,1l-3 0c-1,0 -1,0 -1,-1 -1,0 -1,-1 -1,-1l0 -1c0,-1 0,-1 0,-2 0,0 1,0 1,0zm5 -43c0,0 1,1 1,1 0,1 -1,1 -1,2l-1 0c0,1 -1,1 -1,1 -1,0 -1,0 -2,-1l0 0c-1,-1 -1,-1 -1,-2 0,0 0,-1 1,-1l0 -1c1,0 1,-1 2,-1 0,0 1,1 1,1l1 1z"/>
  <path class="fil2" d="M57 192c0,0 0,1 0,1 0,0 0,0 0,0 0,0 0,0 0,0 -1,0 -1,0 -1,0 0,1 0,1 0,1 -1,0 -1,0 -1,0 -1,1 -1,1 -2,1 -1,0 -1,0 -2,0 -1,0 -2,0 -3,-1 -1,0 -2,-1 -3,-1 0,-1 -1,-2 -1,-3 -1,-1 -1,-3 -1,-4 0,-2 0,-3 1,-4 0,-1 1,-2 2,-3 0,-1 1,-2 2,-2 1,-1 2,-1 3,-1 1,0 1,0 2,0 0,0 1,1 1,1 1,0 1,0 2,0 0,0 0,1 0,1 0,0 0,0 0,0 0,0 1,0 1,0 0,0 0,0 0,1 0,0 0,0 0,0 0,0 0,0 0,0 0,1 0,1 0,1 -1,0 -1,0 -1,0 0,0 0,0 0,0 0,0 0,0 0,0 -1,0 -1,-1 -1,-1 -1,0 -1,0 -2,0 0,-1 -1,-1 -2,-1 0,0 -1,0 -2,1 -1,0 -1,1 -2,1 0,1 0,2 -1,3 0,1 0,2 0,3 0,1 0,2 0,3 1,1 1,1 1,2 1,1 1,1 2,1 1,1 2,1 2,1 1,0 2,0 2,0 1,-1 1,-1 2,-1 0,0 0,0 1,-1 0,0 0,0 0,0 0,0 0,0 0,0 1,0 1,0 1,0 0,0 0,1 0,1 0,0 0,0 0,0zm15 2c0,1 0,1 0,1 0,0 0,0 0,0 0,0 0,0 -1,0 0,0 0,0 0,0 0,0 -1,0 -1,0 0,0 0,0 0,0 0,0 0,0 0,0 0,0 0,0 0,-1l0 -7c0,-1 0,-1 -1,-2 0,0 0,-1 0,-1 0,0 -1,-1 -1,-1 0,0 -1,0 -1,0 -1,0 -1,0 -2,1 0,0 -1,1 -2,2l0 8c0,1 0,1 0,1 0,0 0,0 0,0 0,0 0,0 0,0 0,0 -1,0 -1,0 0,0 0,0 0,0 -1,0 -1,0 -1,0 0,0 0,0 0,0 0,0 0,0 0,-1l0 -19c0,0 0,0 0,0 0,0 0,0 0,0 0,0 0,0 1,0 0,0 0,0 0,0 0,0 1,0 1,0 0,0 0,0 0,0 0,0 0,0 0,0 0,0 0,0 0,0l0 8c1,-1 2,-1 2,-1 1,-1 2,-1 2,-1 1,0 2,0 3,0 0,1 1,1 1,2 0,0 1,1 1,1 0,1 0,2 0,3l0 7zm13 -11c0,0 0,0 0,0 0,0 0,0 0,0 0,0 0,1 0,1 0,0 0,0 0,0 0,0 0,0 -1,0 0,0 0,-1 0,-1 0,0 0,0 0,0 -1,0 -1,0 -1,0 0,0 0,0 -1,0 0,0 0,1 0,1 -1,0 -1,0 -1,1 0,0 -1,1 -1,1l0 8c0,1 0,1 0,1 0,0 0,0 0,0 0,0 0,0 -1,0 0,0 0,0 0,0 0,0 -1,0 -1,0 0,0 0,0 0,0 0,0 0,0 0,0 0,0 0,0 0,-1l0 -12c0,0 0,0 0,-1 0,0 0,0 0,0 0,0 0,0 0,0 0,0 0,0 1,0 0,0 0,0 0,0 0,0 0,0 1,0 0,0 0,0 0,0 0,1 0,1 0,1l0 2c0,-1 0,-1 1,-2 0,0 0,0 1,0 0,-1 0,-1 0,-1 1,0 1,0 1,0 0,0 1,0 1,0 0,0 0,0 0,0 0,0 0,0 1,0 0,0 0,0 0,0 0,0 0,0 0,1 0,0 0,0 0,0 0,0 0,0 0,0 0,0 0,0 0,1zm6 11c0,1 0,1 0,1 0,0 0,0 0,0 0,0 0,0 0,0 0,0 0,0 -1,0 0,0 0,0 0,0 0,0 -1,0 -1,0 0,0 0,0 0,0 0,0 0,0 0,-1l0 -12c0,0 0,0 0,-1 0,0 0,0 0,0 0,0 1,0 1,0 0,0 0,0 0,0 1,0 1,0 1,0 0,0 0,0 0,0 0,0 0,0 0,0 0,1 0,1 0,1l0 12zm1 -17c0,1 0,1 -1,1 0,1 0,1 -1,1 0,0 -1,0 -1,-1 0,0 0,0 0,-1 0,0 0,-1 0,-1 0,0 1,0 1,0 1,0 1,0 1,0 1,0 1,1 1,1zm13 14c0,1 0,1 0,2 0,0 -1,1 -1,1 -1,0 -1,1 -2,1 0,0 -1,0 -2,0 0,0 -1,0 -1,0 -1,0 -1,0 -1,0 -1,0 -1,0 -1,-1 0,0 -1,0 -1,0 0,0 0,0 0,0 0,0 0,-1 0,-1 0,0 0,0 0,0 0,-1 0,-1 0,-1 0,0 0,0 0,0 0,0 0,0 0,0 1,0 1,0 1,0 0,0 0,0 1,1 0,0 0,0 1,0 0,0 1,0 1,0 1,0 1,0 1,0 1,0 1,0 1,0 0,0 1,-1 1,-1 0,0 0,0 0,-1 0,0 0,0 0,-1 -1,0 -1,0 -1,0 0,-1 -1,-1 -1,-1 -1,0 -1,0 -1,0 -1,-1 -1,-1 -2,-1 0,0 0,0 -1,-1 0,0 0,0 0,-1 0,0 -1,-1 -1,-1 0,-1 1,-1 1,-2 0,0 0,0 1,-1 0,0 0,0 1,-1 1,0 1,0 2,0 0,0 1,0 1,0 0,0 1,0 1,0 0,0 1,1 1,1 0,0 0,0 0,0 0,0 0,0 0,0 0,0 0,0 0,0 0,0 0,0 1,1 0,0 0,0 0,0 0,0 0,0 0,0 -1,0 -1,1 -1,1 0,0 0,0 0,0 0,0 0,0 0,0 0,0 0,0 0,0 0,0 -1,-1 -1,-1 0,0 0,0 -1,0 0,0 0,0 -1,0 0,0 -1,0 -1,0 0,0 -1,0 -1,0 0,1 0,1 0,1 0,0 0,0 0,1 0,0 0,0 0,1 0,0 0,0 1,0 0,0 0,1 1,1 0,0 1,0 1,0 0,0 1,1 1,1 1,0 1,0 1,1 0,0 1,0 1,1 0,0 0,0 0,1zm11 3c0,0 0,0 0,0 0,0 0,0 0,1 0,0 0,0 0,0 -1,0 -1,0 -1,0 0,0 0,0 -1,0 0,0 0,0 0,0 -1,0 -1,0 -2,0 0,0 -1,-1 -1,-1 0,0 -1,-1 -1,-1 0,-1 0,-2 0,-2l0 -8 -2 0c0,0 0,0 0,0 0,0 0,0 0,-1 0,0 0,0 0,0 0,0 0,0 0,0 0,-1 0,-1 0,-1 0,0 0,0 0,0l2 0 0 -3c0,0 0,0 0,0 0,0 0,0 0,0 0,0 1,0 1,0 0,0 0,0 0,0 0,0 1,0 1,0 0,0 0,0 0,0 0,0 0,0 0,0 0,0 0,0 0,0l0 3 4 0c0,0 0,0 0,0 0,0 0,0 0,1 0,0 0,0 0,0 0,0 0,0 0,0 0,1 0,1 0,1 0,0 0,0 0,0l-4 0 0 7c0,1 1,2 1,2 0,1 1,1 1,1 0,0 1,0 1,0 0,0 0,0 0,0 0,0 0,0 1,0 0,0 0,0 0,0 0,0 0,0 0,0 0,0 0,0 0,0 0,0 0,0 0,0 0,0 0,0 0,1zm24 0c0,1 0,1 0,1 0,0 -1,0 -1,0 0,0 0,0 0,0 0,0 0,0 -1,0 0,0 0,0 0,0 0,0 0,0 0,0 -1,0 -1,0 -1,0 0,0 0,0 0,-1l0 -7c0,-1 0,-1 0,-2 0,0 0,-1 0,-1 -1,0 -1,-1 -1,-1 0,0 -1,0 -1,0 -1,0 -1,0 -2,1 0,0 -1,1 -2,2l0 8c0,1 0,1 0,1 0,0 0,0 0,0 0,0 0,0 0,0 0,0 -1,0 -1,0 0,0 0,0 0,0 -1,0 -1,0 -1,0 0,0 0,0 0,0 0,0 0,0 0,-1l0 -7c0,-1 0,-1 0,-2 0,0 0,-1 -1,-1 0,0 0,-1 0,-1 -1,0 -1,0 -2,0 0,0 -1,0 -1,1 -1,0 -1,1 -2,2l0 8c0,1 0,1 0,1 0,0 0,0 0,0 0,0 0,0 -1,0 0,0 0,0 0,0 0,0 -1,0 -1,0 0,0 0,0 0,0 0,0 0,0 0,0 0,0 0,0 0,-1l0 -12c0,0 0,0 0,-1 0,0 0,0 0,0 0,0 0,0 0,0 0,0 0,0 1,0 0,0 0,0 0,0 0,0 0,0 1,0 0,0 0,0 0,0 0,1 0,1 0,1l0 1c0,0 1,-1 2,-1 1,-1 1,-1 2,-1 0,0 1,0 1,0 1,0 1,1 1,1 1,0 1,0 1,1 1,0 1,0 1,1 0,-1 1,-1 1,-2 0,0 1,0 1,0 1,-1 1,-1 1,-1 1,0 1,0 1,0 1,0 2,0 2,0 1,1 1,1 2,2 0,0 0,1 0,1 1,1 1,2 1,2l0 8zm15 1c0,0 0,0 0,0 0,0 0,0 -1,0 0,0 0,0 0,0 0,0 -1,0 -1,0 0,0 0,0 0,0 0,0 0,0 0,0l0 -2c-1,1 -1,1 -2,2 -1,0 -1,0 -2,0 -1,0 -2,0 -2,0 -1,0 -1,-1 -1,-1 -1,0 -1,-1 -1,-1 -1,-1 -1,-1 -1,-2 0,-1 0,-1 1,-2 0,0 0,-1 1,-1 1,0 1,-1 2,-1 1,0 2,0 3,0l2 0 0 -1c0,-1 -1,-1 -1,-1 0,-1 0,-1 0,-1 0,-1 -1,-1 -1,-1 0,0 -1,0 -1,0 -1,0 -1,0 -2,0 0,0 -1,0 -1,1 -1,0 -1,0 -1,0 0,0 0,0 -1,0 0,0 0,0 0,0 0,0 0,0 0,0 0,0 0,0 0,0 0,0 0,-1 0,-1 0,0 0,0 0,0 0,0 0,0 0,-1 0,0 1,0 1,0 0,0 1,0 1,0 0,-1 1,-1 1,-1 1,0 1,0 2,0 1,0 2,0 2,0 1,1 1,1 2,1 0,1 0,1 1,2 0,0 0,1 0,2l0 9zm-2 -6l-2 0c-1,0 -2,0 -2,0 -1,0 -1,0 -1,0 -1,1 -1,1 -1,1 0,0 0,1 0,1 0,1 0,1 0,2 1,0 1,0 2,0 1,0 1,0 2,0 0,-1 1,-1 2,-2l0 -2zm16 2c0,1 -1,1 -1,2 0,0 0,1 -1,1 0,0 -1,1 -1,1 -1,0 -2,0 -2,0 -1,0 -1,0 -2,0 0,0 -1,0 -1,0 0,0 0,0 -1,-1 0,0 0,0 0,0 0,0 0,0 0,0 0,0 -1,-1 -1,-1 0,0 0,0 1,0 0,-1 0,-1 0,-1 0,0 0,0 0,0 0,0 0,0 0,0 0,0 0,0 0,0 1,0 1,0 1,1 0,0 1,0 1,0 1,0 1,0 2,0 0,0 0,0 1,0 0,0 0,0 0,0 1,0 1,-1 1,-1 0,0 0,0 0,-1 0,0 0,0 0,-1 0,0 0,0 -1,0 0,-1 0,-1 -1,-1 0,0 -1,0 -1,0 0,-1 -1,-1 -1,-1 -1,0 -1,0 -1,-1 0,0 -1,0 -1,-1 0,0 0,-1 0,-1 0,-1 0,-1 0,-2 0,0 1,0 1,-1 0,0 1,0 1,-1 1,0 2,0 2,0 1,0 1,0 2,0 0,0 0,0 0,0 1,0 1,1 1,1 0,0 0,0 1,0 0,0 0,0 0,0 0,0 0,0 0,0 0,0 0,0 0,1 0,0 0,0 0,0 0,0 0,0 0,0 0,0 0,1 0,1 0,0 0,0 0,0 0,0 0,0 0,0 -1,0 -1,0 -1,0 0,0 0,-1 0,-1 -1,0 -1,0 -1,0 -1,0 -1,0 -2,0 0,0 0,0 -1,0 0,0 0,0 0,0 -1,1 -1,1 -1,1 0,0 0,0 0,1 0,0 0,0 0,1 1,0 1,0 1,0 0,0 1,1 1,1 1,0 1,0 1,0 1,0 1,1 1,1 1,0 1,0 2,1 0,0 0,0 0,1 0,0 1,0 1,1z"/>
 </g>
</svg>
