<?xml version="1.0" encoding="UTF-8"?>
<!DOCTYPE svg PUBLIC "-//W3C//DTD SVG 1.1//EN" "http://www.w3.org/Graphics/SVG/1.1/DTD/svg11.dtd">
<!-- Creator: CorelDRAW X8 -->
<svg xmlns="http://www.w3.org/2000/svg" xml:space="preserve" width="79.5053mm" height="74.9672mm" version="1.1" style="shape-rendering:geometricPrecision; text-rendering:geometricPrecision; image-rendering:optimizeQuality; fill-rule:evenodd; clip-rule:evenodd"
viewBox="0 0 148 140"
 xmlns:xlink="http://www.w3.org/1999/xlink">
 <defs>
  <style type="text/css">
   <![CDATA[
    .fil1 {fill:none}
    .fil0 {fill:#FEFEFE}
    .fil2 {fill:#332C2B}
    .fil3 {fill:#FEFEFE;fill-rule:nonzero}
   ]]>
  </style>
 </defs>
 <g id="图层_x0020_1">
  <metadata id="CorelCorpID_0Corel-Layer"/>
  <path class="fil0" d="M75 10c1,-1 2,-2 3,-2 2,0 3,0 4,1 1,2 1,3 2,5 0,0 1,1 1,2 1,1 1,2 0,4 0,0 0,0 0,0 1,1 2,3 2,4 0,2 1,3 1,5 0,0 0,1 1,1 2,1 3,2 5,3 2,2 2,5 3,7 0,2 0,4 0,6 0,2 1,5 2,8 1,3 1,6 2,10 0,1 0,3 1,4 0,2 0,4 0,6 0,1 0,1 0,2 -1,0 -2,0 -3,-1 0,0 0,0 0,0 -1,-2 0,-5 -1,-7 0,0 0,0 0,0 1,-1 0,-2 0,-3 0,-2 -1,-3 -2,-4 0,-2 -1,-3 -1,-5 0,-1 0,-2 -1,-3 -1,-1 -1,-3 -1,-5 -1,-2 -2,-5 -2,-7 0,0 0,0 -1,0 -1,0 -2,1 -3,2 -1,2 -2,4 -4,6 -1,1 -1,2 -2,4 0,0 0,1 0,1 0,3 -1,6 -2,9 0,0 0,1 0,2 0,1 -1,2 0,3 1,1 1,2 0,3 0,1 -1,2 -1,3 0,2 -1,3 -3,3 -1,-1 -1,-1 -1,-1 0,0 -1,1 -1,0 0,-1 -1,-1 -1,-2 0,-1 -1,-3 -1,-4 -1,1 -1,1 -1,2 0,1 0,1 0,2 0,1 0,1 0,1 0,0 0,0 0,-1 -1,-2 -1,-4 -1,-6 -1,0 0,-1 0,-2 1,0 1,0 0,-1 -1,-3 -2,-5 -3,-8 0,-1 0,-3 0,-4 -3,4 -7,7 -9,11 -1,2 -2,4 -3,6 0,1 0,1 0,1 0,1 0,2 0,2 -1,0 -2,1 -3,1 -1,0 -1,-1 -2,-2 0,-1 0,-1 1,-1 0,-1 1,-2 1,-3 0,0 0,-1 0,-1 0,0 0,0 -1,0 0,1 -1,2 -2,2 0,1 -1,1 -1,1 0,-1 0,-1 0,-1 2,-2 3,-3 5,-5 0,0 1,-1 1,-1 1,0 2,-1 2,-2 1,-1 2,-3 2,-4 1,-2 2,-3 3,-4 1,-1 1,-1 0,-2 -1,-2 -2,-3 -4,-4 -2,-2 -3,-3 -5,-5 -1,-2 -2,-4 -1,-6 0,-1 1,-2 2,-2 1,-1 2,-1 4,-1 2,-1 3,-3 3,-5 0,-1 -1,-1 -1,-1 0,0 0,0 0,-1 -1,-2 0,-4 0,-7 1,-1 1,-1 0,-2 0,-1 0,-2 0,-3 1,-1 1,-2 1,-3 0,-1 2,-3 3,-3 2,0 3,1 4,2 1,2 2,4 3,6 0,0 1,1 0,1 0,1 0,3 0,4 0,0 2,0 3,0 0,0 0,0 0,-1 1,-2 1,-4 1,-6 0,-1 -1,-2 0,-2 0,-4 0,-8 0,-11 0,-1 0,-1 1,-1 0,0 1,0 1,1 0,1 0,3 0,5 0,1 0,2 0,3 0,1 0,1 0,1zm-2 55c0,0 0,-1 0,-1 0,-4 0,-7 0,-11 0,-1 0,-3 -1,-4 0,0 0,-1 0,-1 0,-1 0,-2 0,-3 0,0 0,0 -1,0 0,0 0,0 0,0 0,-1 0,-1 0,-1 1,-1 2,-1 2,-2 0,-6 0,-11 0,-16 0,0 0,-1 -1,-1 -1,0 -2,0 -3,0 1,2 1,3 0,4 -1,1 -2,2 -2,3 0,1 -1,1 -1,2 -1,1 -3,3 -4,4 -2,1 -2,1 0,2 2,2 4,4 6,7 1,1 2,2 2,3 0,3 1,7 2,10 0,2 0,3 1,5zm2 6c1,-5 1,-9 1,-13 0,-3 1,-5 1,-8 1,-4 2,-7 4,-10 0,-1 1,-2 0,-3 -2,2 -4,4 -5,6 -1,0 -1,1 -1,1 0,2 1,3 0,5 -1,0 -1,0 -1,1 0,6 0,13 0,20 1,0 0,0 1,1zm0 -43c0,4 0,8 0,12 0,-1 0,-1 1,-1 0,-2 1,-3 2,-4 0,0 1,-1 -1,-1 0,-1 0,-1 0,-1 -1,-2 -2,-3 -2,-5z"/>
  <rect class="fil1" width="147" height="124"/>
  <rect class="fil1" x="1" width="147" height="140"/>
  <path class="fil2" d="M30 96c4,0 7,3 7,6 0,4 -3,7 -7,7 -3,0 -6,-3 -6,-7 0,-3 3,-6 6,-6z"/>
  <path class="fil3" d="M68 120c-4,0 -8,-1 -10,-5 -3,-3 -4,-7 -4,-13 0,-6 1,-10 4,-13 2,-4 6,-5 10,-5 3,0 5,1 7,3 1,0 1,1 1,1 0,1 0,2 -1,2 -1,2 -2,2 -3,1 -1,-1 -3,-1 -4,-1 -3,0 -5,1 -6,3 -2,2 -2,5 -2,9 0,4 0,7 2,9 1,2 3,3 6,3 2,0 3,0 4,-1l0 -7 -3 0c-1,0 -2,-1 -2,-3 0,-2 1,-3 2,-3l3 0 3 0c0,0 1,0 2,1 0,0 0,1 0,2l0 11c0,1 0,2 -1,3 -2,2 -5,3 -8,3zm30 0c-4,0 -8,-1 -10,-5 -3,-3 -4,-7 -4,-13 0,-6 1,-10 4,-13 3,-4 6,-5 10,-5 3,0 5,1 8,3 0,0 0,1 0,1 0,1 0,2 0,2 -2,2 -3,2 -4,1 -1,-1 -2,-1 -4,-1 -2,0 -4,1 -6,3 -1,2 -2,5 -2,9 0,4 1,7 2,9 1,2 4,3 6,3 2,0 3,0 4,-1l0 -7 -3 0c-1,0 -2,-1 -2,-3 0,-2 1,-3 2,-3l3 0 3 0c1,0 1,0 2,1 0,0 0,1 0,2l0 11c0,1 0,2 -1,3 -2,2 -5,3 -8,3z"/>
  <path class="fil3" d="M65 132c0,1 0,2 0,3 -1,1 -1,2 -2,3 -1,0 -1,1 -2,1 -1,0 -2,1 -4,1l-3 0c0,0 0,-1 0,-1 0,0 0,0 0,0l0 -13c0,-1 0,-1 0,-1 0,0 0,0 0,0l4 0c1,0 2,0 3,0 1,1 2,1 2,2 1,0 1,1 2,2 0,1 0,2 0,3zm-2 0c0,-1 0,-2 0,-2 -1,-1 -1,-2 -1,-2 -1,-1 -1,-1 -2,-1 -1,-1 -1,-1 -2,-1l-2 0 0 12 2 0c1,0 1,0 2,0 1,-1 1,-1 2,-2 0,0 0,-1 1,-1 0,-1 0,-2 0,-3zm14 7c0,0 0,0 0,0 0,1 -1,1 -1,1 0,0 0,0 0,0 0,0 0,0 -1,0 0,0 0,0 0,-1 0,0 0,0 0,0l0 -1c0,1 -1,1 -1,1 -1,1 -2,1 -2,1 -1,0 -1,0 -2,0 0,-1 0,-1 -1,-1 0,0 0,-1 -1,-1 0,0 0,-1 0,-1 0,-1 0,-1 1,-2 0,0 0,-1 1,-1 0,0 1,0 1,-1 1,0 2,0 2,0l2 0 0 -1c0,0 0,0 0,-1 0,0 -1,0 -1,0 0,-1 0,-1 0,-1 -1,0 -1,0 -2,0 0,0 0,0 -1,0 0,0 -1,0 -1,0 0,1 0,1 0,1 -1,0 -1,0 -1,0 0,0 0,0 0,0 0,0 0,0 0,0 0,0 0,0 0,0 0,0 0,-1 0,-1 0,0 0,0 0,0 0,0 0,0 0,0 0,-1 0,-1 0,-1 1,0 1,0 1,0 1,0 1,0 1,0 1,-1 1,-1 2,-1 0,0 1,0 2,1 0,0 0,0 1,0 0,1 0,1 0,2 1,0 1,1 1,1l0 7zm-2 -4l-2 0c0,0 -1,0 -1,0 -1,0 -1,0 -1,0 0,0 -1,0 -1,1 0,0 0,0 0,1 0,0 0,0 1,1 0,0 0,0 1,0 1,0 1,0 1,0 1,0 1,-1 2,-1l0 -2zm15 4c0,0 0,0 0,0 0,0 0,0 0,1 0,0 0,0 0,0 -1,0 -1,0 -1,0 0,0 0,0 0,0 0,0 -1,0 -1,0 0,-1 0,-1 0,-1 0,0 0,0 0,0l0 -6c0,0 0,-1 0,-1 0,-1 0,-1 0,-1 -1,0 -1,-1 -1,-1 0,0 -1,0 -1,0 0,0 -1,0 -1,1 -1,0 -1,0 -2,1l0 7c0,0 0,0 0,0 0,0 0,0 0,1 0,0 0,0 0,0 0,0 -1,0 -1,0 0,0 0,0 0,0 0,0 -1,0 -1,0 0,-1 0,-1 0,-1 0,0 0,0 0,0l0 -10c0,0 0,0 0,0 0,0 0,0 0,0 0,0 1,0 1,0 0,0 0,0 0,0 0,0 0,0 1,0 0,0 0,0 0,0 0,0 0,0 0,0 0,0 0,0 0,0l0 1c1,0 1,-1 2,-1 0,0 1,-1 1,-1 1,0 2,1 2,1 1,0 1,0 1,1 1,0 1,1 1,1 0,1 0,1 0,2l0 6zm11 -1c0,0 0,0 0,0 0,0 0,0 0,0 0,0 0,1 0,1 0,0 0,0 0,0 -1,0 -1,0 -1,0 0,0 0,0 -1,0 0,1 0,1 0,1 -1,0 -1,0 -1,0 -1,0 -1,0 -2,-1 0,0 -1,0 -1,-1 -1,0 -1,0 -1,-1 0,-1 0,-1 0,-2 0,-1 0,-2 0,-2 0,-1 1,-1 1,-2 0,0 1,-1 1,-1 1,0 1,0 2,0 0,0 0,0 1,0 0,0 0,0 0,0 1,0 1,0 1,1 0,0 0,0 0,0 1,0 1,0 1,0 0,0 0,0 0,0 0,0 0,0 0,0 0,1 0,1 0,1 0,0 0,0 0,0 0,0 0,0 -1,0 0,0 0,0 0,0 0,0 0,0 0,0 -1,0 -1,0 -1,0 0,-1 -1,-1 -1,-1 -1,0 -2,1 -2,1 0,1 -1,2 -1,3 0,0 1,1 1,1 0,1 0,1 0,1 0,1 1,1 1,1 0,0 1,0 1,0 0,0 1,0 1,0 0,0 0,0 1,0 0,0 0,-1 0,-1 0,0 0,0 0,0 1,0 1,0 1,0 0,0 0,0 0,0 0,0 0,0 0,1 0,0 0,0 0,0zm10 -4c0,1 0,1 0,1 0,0 0,0 0,0l-6 0c0,1 0,1 0,2 0,0 0,0 1,1 0,0 0,0 0,0 1,0 1,0 2,0 0,0 1,0 1,0 0,0 1,0 1,0 0,0 0,0 0,0 1,0 1,0 1,0 0,0 0,0 0,0 0,0 0,0 0,0 0,0 0,0 0,0 0,0 0,0 0,0 0,0 0,1 0,1 0,0 0,0 0,0 0,0 0,0 0,0 0,0 0,0 0,0 0,0 0,0 0,0 -1,0 -1,0 -1,0 0,1 -1,1 -1,1 -1,0 -1,0 -1,0 -1,0 -2,0 -2,-1 -1,0 -1,0 -2,0 0,-1 0,-1 0,-2 -1,-1 -1,-1 -1,-2 0,-1 0,-2 1,-2 0,-1 0,-1 0,-2 1,0 1,0 2,-1 0,0 1,0 1,0 1,0 2,0 2,0 1,1 1,1 1,1 1,1 1,1 1,2 0,0 0,1 0,1l0 0zm-1 0c0,-1 0,-2 -1,-2 0,-1 -1,-1 -2,-1 0,0 0,0 -1,0 0,1 0,1 0,1 -1,0 -1,1 -1,1 0,0 0,1 0,1l5 0z"/>
 </g>
</svg>
