<?xml version="1.0" encoding="UTF-8"?>
<!DOCTYPE svg PUBLIC "-//W3C//DTD SVG 1.1//EN" "http://www.w3.org/Graphics/SVG/1.1/DTD/svg11.dtd">
<!-- Creator: CorelDRAW X8 -->
<svg xmlns="http://www.w3.org/2000/svg" xml:space="preserve" width="78.9677mm" height="74.8427mm" version="1.1" style="shape-rendering:geometricPrecision; text-rendering:geometricPrecision; image-rendering:optimizeQuality; fill-rule:evenodd; clip-rule:evenodd"
viewBox="0 0 155 147"
 xmlns:xlink="http://www.w3.org/1999/xlink">
 <defs>
  <style type="text/css">
   <![CDATA[
    .fil1 {fill:none}
    .fil0 {fill:#FEFEFE}
    .fil2 {fill:#332C2B}
    .fil3 {fill:#FEFEFE;fill-rule:nonzero}
   ]]>
  </style>
 </defs>
 <g id="图层_x0020_1">
  <metadata id="CorelCorpID_0Corel-Layer"/>
  <path class="fil0" d="M106 26c-2,0 -2,1 -2,2l0 11c0,2 0,3 -3,3 -5,0 -7,2 -7,5 0,1 1,5 7,5 6,0 6,-5 6,-7l0 -11c0,-1 0,-2 1,-2 3,0 4,2 7,2 0,0 2,0 2,-2l0 -3c0,-1 -1,-1 -2,-1 -5,0 -4,-2 -9,-2l0 0zm-50 13c-1,0 -1,0 -1,0l-14 -3c-2,-1 -3,-3 -3,-4 1,-2 2,-3 4,-3l12 3 6 -12 0 0c0,-1 1,-2 2,-2l9 -1c1,0 2,1 2,2l11 6 10 -7c2,-1 4,-1 5,0 1,2 0,4 -1,5l-12 8c0,1 -1,1 -2,1l0 0c0,0 -1,0 -1,-1l-9 -5 1 18c0,0 0,1 0,1l1 12 10 14c1,1 0,3 -1,4 -1,1 -1,1 -2,1 -1,0 -2,-1 -3,-2l-10 -14c0,-1 -1,-1 -1,-2l-1 -11 -2 0 -5 13 6 16c1,2 0,4 -2,4 0,1 0,1 -1,1l0 0c-1,0 -2,-1 -3,-2l-6 -18c-1,-1 0,-2 0,-2l6 -16c0,0 0,-1 1,-1l-1 -10 -3 5c0,1 -1,2 -2,2l0 0zm2 -32c0,4 3,8 7,8 4,0 7,-4 7,-8 0,-4 -3,-7 -7,-7 -4,0 -7,3 -7,7l0 0z" p-id="31802"/>
  <rect class="fil1" width="155" height="131"/>
  <path class="fil2" d="M25 101c4,0 7,3 7,7 0,4 -3,7 -7,7 -4,0 -7,-3 -7,-7 0,-4 3,-7 7,-7z"/>
  <path class="fil3" d="M78 99c0,0 -1,0 -1,0 0,0 0,1 0,1 -1,0 -1,1 -1,1l0 0c0,1 0,1 1,1 0,0 0,1 0,1 0,0 1,0 1,0 0,0 0,1 0,1l0 1c0,0 0,1 -1,1 0,0 0,1 -1,1l-25 0c0,0 -1,-1 -1,-1 0,0 -1,-1 -1,-1l0 -1c0,0 1,-1 1,-1 0,0 0,0 0,0 0,0 1,-1 1,-1 0,0 0,0 0,-1l0 0c0,0 0,-1 0,-1 0,0 -1,-1 -1,-1 0,0 0,0 0,0 0,0 -1,-1 -1,-1l0 -1c0,0 1,-1 1,-1 0,0 0,0 0,0 0,0 1,-1 1,-1 0,0 0,0 0,-1 0,0 0,-1 1,-1 0,0 0,0 1,0l1 0c0,0 0,0 1,0 0,0 0,1 0,1 0,1 0,1 0,1 1,0 1,1 1,1l1 0c0,0 0,-1 1,-1 0,0 0,0 0,-1 0,0 0,-1 1,-1 0,0 0,0 1,0l1 0c0,0 0,0 1,0 0,0 0,1 0,1 0,1 0,1 1,1 0,0 0,1 1,1l0 0c0,0 1,-1 1,-1 0,0 0,0 0,-1 0,0 0,-1 1,-1 0,0 0,0 1,0l1 0c0,0 0,0 1,0 0,0 0,1 0,1 0,1 0,1 1,1 0,0 0,1 1,1l0 0c0,0 1,-1 1,-1 0,0 0,0 0,-1 0,0 0,-1 1,-1 0,0 0,0 1,0l1 0c0,0 1,0 1,0 0,0 0,1 0,1 0,1 0,1 1,1 0,0 0,1 0,1 0,0 1,0 1,0 0,0 0,1 0,1l0 1c0,0 0,1 0,1zm0 14c0,0 -1,0 -1,0 0,0 0,0 0,1 -1,0 -1,0 -1,1l0 3c0,1 0,1 1,1 0,1 0,1 0,1 0,0 1,0 1,0 0,1 0,1 0,1l0 1c0,1 0,1 0,1 0,1 -1,1 -1,1 0,0 0,0 0,0 -1,0 -1,0 -1,1 0,0 0,0 0,0 0,0 -1,0 -1,0l-1 0c-1,0 -1,0 -1,0 -1,0 -1,0 -1,0 0,-1 0,-1 0,-1 0,0 -1,0 -1,0l-5 0c0,0 -1,0 -1,-1 0,0 0,0 0,-1l0 -1c0,0 0,0 0,-1 0,0 0,0 0,0 0,0 0,0 0,-1 1,0 1,0 1,-1l0 -8c0,0 0,0 0,0 0,-1 1,-1 1,-1l4 0c0,0 1,0 1,0 0,0 0,0 0,0 0,-1 0,-1 1,-1 0,0 0,0 1,0l1 0c0,0 1,0 1,0 0,0 0,0 0,1 0,0 0,0 1,0 0,0 0,0 0,0 0,0 1,0 1,1 0,0 0,0 0,1l0 1c0,0 0,1 0,1zm-16 11c-1,1 -1,1 -2,1 0,0 0,0 -1,0l-8 0c0,0 -1,0 -1,0 0,0 -1,-1 -1,-1l0 -1c0,0 1,-1 1,-1 0,0 1,-1 1,-1l7 0c1,0 1,0 1,0 1,0 1,0 1,0 0,-1 0,-1 -1,-1 0,0 0,0 -1,0l-4 0c0,0 -1,0 -1,-1 -1,0 -1,0 -1,0l-1 -1c-1,0 -1,-1 -1,-1 0,-1 -1,-1 -1,-1 0,0 1,-1 1,-1 0,0 1,0 1,0l1 0c0,0 1,0 1,0 0,0 0,0 0,0 0,1 1,1 1,1 0,0 0,0 1,0l3 0c1,0 1,0 1,0 1,-1 1,-1 1,-1 0,-1 0,-1 -1,-1 0,-1 0,-1 -1,-1l-4 0c0,0 -1,0 -1,0 -1,0 -1,-1 -1,-1l-2 -1c0,0 0,-1 0,-1 0,0 -1,-1 -1,-1 0,0 1,-1 1,-1 0,0 1,0 1,0l1 0c0,0 1,0 1,0 0,0 0,0 0,0 0,1 1,1 1,1 0,0 0,0 1,0l7 0c1,0 1,0 1,1 1,0 1,0 1,1l0 10c0,0 0,1 -1,1 0,1 0,1 0,1l-1 1zm16 -34c0,1 0,1 -1,1 0,1 0,1 -1,1l-22 0c0,0 -1,0 -1,0 -1,-1 -1,-1 -1,-1l-1 -1c-1,0 -1,-1 -1,-1 0,0 -1,-1 -1,-1 0,-1 1,-1 1,-1 0,0 1,-1 1,-1l1 0c0,0 1,0 1,1 0,0 0,0 0,0 0,0 1,1 1,1 0,0 0,0 1,0l21 0c1,0 1,0 1,0 1,1 1,1 1,1l0 1zm-6 25c0,-1 0,-1 0,-1 0,-1 -1,-1 -1,-1 0,0 -1,0 -1,1 0,0 0,0 0,1l0 3c0,1 0,1 0,1 0,1 1,1 1,1 0,0 1,0 1,-1 0,0 0,0 0,-1l0 -3zm-8 -16c-1,0 -1,1 -1,1 -1,0 -1,1 -1,1l0 0c0,1 0,1 1,1 0,0 0,1 1,1l0 0c0,0 0,-1 1,-1 0,0 0,0 0,-1l0 0c0,0 0,-1 0,-1 -1,0 -1,-1 -1,-1l0 0zm8 2c0,0 0,-1 0,-1 0,0 -1,-1 -1,-1l0 0c-1,0 -1,1 -1,1 -1,0 -1,1 -1,1l0 0c0,1 0,1 1,1 0,0 0,1 1,1l0 0c0,0 1,-1 1,-1 0,0 0,0 0,-1l0 0zm-17 0c0,1 0,1 0,1 1,0 1,1 1,1l1 0c0,0 0,-1 1,-1 0,0 0,0 0,-1l0 0c0,0 0,-1 0,-1 -1,0 -1,-1 -1,-1l-1 0c0,0 0,1 -1,1 0,0 0,1 0,1l0 0zm55 23c0,1 0,1 -1,1 0,0 -1,0 -1,0l-22 0c-1,0 -1,0 -1,0 -1,0 -1,0 -1,0l0 -34c0,0 0,0 1,-1 0,0 0,0 1,0l5 0c0,0 0,0 1,0 0,-1 0,-1 0,-2l0 0c0,-1 0,-1 1,-1 0,0 0,-1 1,-1l1 0c0,0 0,1 1,1 0,0 0,0 0,1l0 0c0,1 0,1 0,2 1,0 1,0 2,0l1 0c0,0 1,0 1,0 0,-1 0,-1 0,-2l0 0c0,-1 1,-1 1,-1 0,0 0,-1 1,-1l1 0c0,0 1,1 1,1 0,0 0,0 0,1l0 0c0,1 0,1 1,2 0,0 0,0 1,0l5 0c0,0 1,0 1,0 0,1 0,1 0,1l0 30c0,0 0,1 0,1 0,1 0,1 -1,1l-1 1zm-12 -14c-1,0 -1,0 -2,0 0,0 0,1 0,1l0 9c0,0 0,1 0,1 1,0 1,0 2,0l1 0c0,0 1,0 1,0 0,0 0,-1 0,-1l0 -9c0,0 0,-1 0,-1 0,0 -1,0 -1,0l-1 0zm0 -16c-1,0 -1,0 -2,0 0,1 0,1 0,1l0 9c0,1 0,1 0,1 1,0 1,1 2,1l1 0c0,0 1,-1 1,-1 0,0 0,0 0,-1l0 -9c0,0 0,0 0,-1 0,0 -1,0 -1,0l-1 0zm9 27c0,0 1,0 1,0 0,0 0,-1 0,-1l0 -9c0,0 0,-1 0,-1 0,0 -1,0 -1,0l-1 0c-1,0 -1,0 -1,0 -1,0 -1,1 -1,1l0 9c0,0 0,1 1,1 0,0 0,0 1,0l1 0zm-1 -27c-1,0 -1,0 -1,0 -1,1 -1,1 -1,1l0 9c0,1 0,1 1,1 0,0 0,1 1,1l1 0c0,0 1,-1 1,-1 0,0 0,0 0,-1l0 -9c0,0 0,0 0,-1 0,0 -1,0 -1,0l-1 0zm-18 26c0,0 0,1 1,1 0,0 0,0 1,0l1 0c0,0 0,0 1,0 0,0 0,-1 0,-1l0 -9c0,0 0,-1 0,-1 -1,0 -1,0 -1,0l-1 0c-1,0 -1,0 -1,0 -1,0 -1,1 -1,1l0 9zm2 -26c-1,0 -1,0 -1,0 -1,1 -1,1 -1,1l0 9c0,1 0,1 1,1 0,0 0,1 1,1l1 0c0,0 0,-1 1,-1 0,0 0,0 0,-1l0 -9c0,0 0,0 0,-1 -1,0 -1,0 -1,0l-1 0z"/>
  <path class="fil3" d="M31 136c0,1 0,2 -1,3 0,1 -1,2 -1,2 -1,1 -2,1 -2,2 -1,0 -2,0 -4,0l-3 0c0,0 0,0 0,0 0,0 0,0 0,-1l0 -12c0,-1 0,-1 0,-1 0,0 0,0 0,0l4 0c1,0 2,0 3,0 1,1 1,1 2,2 0,0 1,1 1,2 1,1 1,2 1,3zm-2 0c0,-1 0,-2 -1,-2 0,-1 0,-2 -1,-2 0,-1 0,-1 -1,-1 -1,-1 -2,-1 -3,-1l-1 0 0 12 1 0c1,0 2,-1 3,-1 0,0 1,0 1,-1 1,0 1,-1 1,-2 1,0 1,-1 1,-2zm13 7c0,0 0,0 0,0 0,0 0,0 0,0 0,0 -1,0 -1,0 0,0 0,0 0,0 0,0 0,0 -1,0 0,0 0,0 0,0l0 -1c0,0 -1,1 -1,1 -1,0 -1,0 -2,0 0,0 -1,0 -1,0 -1,0 -1,0 -1,0 -1,-1 -1,-1 -1,-1 0,-1 0,-1 0,-2 0,0 0,-1 0,-1 0,-1 1,-1 1,-1 1,0 1,-1 2,-1 0,0 1,0 2,0l1 0 0 -1c0,0 0,-1 0,-1 0,0 0,0 0,-1 -1,0 -1,0 -1,0 0,0 -1,0 -1,0 -1,0 -1,0 -1,0 -1,0 -1,0 -1,0 -1,0 -1,1 -1,1 0,0 0,0 0,0 0,0 0,0 -1,0 0,0 0,0 0,0 0,0 0,0 0,-1 0,0 0,0 0,0 0,0 0,0 0,0 0,0 0,0 1,-1 0,0 0,0 0,0 0,0 1,0 1,0 0,0 1,0 1,-1 0,0 1,0 1,0 1,0 1,0 2,1 0,0 1,0 1,0 0,1 1,1 1,1 0,1 0,2 0,2l0 7zm-2 -5l-1 0c-1,0 -1,0 -2,0 0,1 0,1 -1,1 0,0 0,0 0,0 0,1 0,1 0,1 0,1 0,1 0,1 0,1 1,1 2,1 0,0 0,0 1,0 0,-1 1,-1 1,-2l0 -2zm15 5c0,0 0,0 0,0 0,0 0,0 0,0 0,0 0,0 0,0 -1,0 -1,0 -1,0 0,0 0,0 0,0 0,0 -1,0 -1,0 0,0 0,0 0,0 0,0 0,0 0,0l0 -6c0,-1 0,-1 0,-1 0,-1 0,-1 0,-1 -1,-1 -1,-1 -1,-1 0,0 -1,0 -1,0 0,0 -1,0 -1,0 -1,1 -1,1 -2,2l0 7c0,0 0,0 0,0 0,0 0,0 0,0 0,0 0,0 0,0 0,0 0,0 -1,0 0,0 0,0 0,0 0,0 0,0 0,0 0,0 -1,0 -1,0 0,0 0,0 0,0l0 -10c0,0 0,0 0,0 0,0 1,0 1,0 0,0 0,0 0,0 0,0 0,0 0,0 0,0 1,0 1,0 0,0 0,0 0,0 0,0 0,0 0,0 0,0 0,0 0,0l0 1c1,0 1,-1 2,-1 0,0 1,-1 1,-1 1,0 2,0 2,1 1,0 1,0 1,1 1,0 1,0 1,1 0,0 0,1 0,2l0 6zm12 -2c0,0 0,1 0,1 0,0 0,0 0,0 0,0 0,0 -1,0 0,0 0,0 0,0 0,0 0,0 0,1 0,0 -1,0 -1,0 0,0 0,0 -1,0 0,0 0,0 -1,0 -1,0 -1,0 -2,0 0,0 -1,-1 -1,-1 -1,0 -1,-1 -1,-2 0,0 0,-1 0,-2 0,-1 0,-2 0,-3 0,0 1,-1 1,-1 0,-1 1,-1 2,-1 0,-1 1,-1 1,-1 1,0 1,0 1,0 1,1 1,1 1,1 0,0 1,0 1,0 0,0 0,0 0,0 0,0 0,1 0,1 0,0 0,0 1,0 0,0 0,0 0,0 0,0 0,0 0,0 0,1 0,1 -1,1 0,0 0,0 0,0 0,0 0,0 0,0 0,0 0,0 -1,0 0,-1 0,-1 -1,-1 0,0 0,0 -1,0 -1,0 -1,0 -2,1 0,1 0,2 0,3 0,1 0,1 0,2 0,0 0,0 0,1 1,0 1,0 1,1 1,0 1,0 1,0 1,0 1,0 2,0 0,-1 0,-1 0,-1 1,0 1,0 1,0 0,0 0,-1 0,-1 0,0 0,1 0,1 0,0 1,0 1,0 0,0 0,0 0,0 0,0 0,0 0,0zm12 -4c0,1 0,1 -1,1 0,0 0,0 0,0l-7 0c0,1 0,1 0,2 1,0 1,1 1,1 0,0 1,0 1,1 0,0 1,0 2,0 0,0 0,0 1,0 0,0 1,0 1,0 0,-1 0,-1 0,-1 1,0 1,0 1,0 0,0 0,0 0,0 0,0 0,0 0,0 0,0 0,0 0,0 0,1 0,1 0,1 0,0 0,0 0,0 0,0 0,0 0,0 0,0 0,0 0,0 0,0 0,1 0,1 0,0 0,0 0,0 -1,0 -1,0 -1,0 0,0 -1,0 -1,0 -1,0 -1,0 -2,0 0,0 -1,0 -2,0 0,0 -1,-1 -1,-1 -1,0 -1,-1 -1,-2 -1,0 -1,-1 -1,-2 0,-1 1,-2 1,-2 0,-1 0,-2 1,-2 0,-1 1,-1 1,-1 1,-1 1,-1 2,-1 1,0 2,0 2,1 1,0 1,0 2,1 0,0 0,1 0,1 1,1 1,1 1,2l0 0zm-2 0c0,-1 0,-2 -1,-2 0,-1 -1,-1 -2,-1 0,0 -1,0 -1,0 0,0 -1,0 -1,1 0,0 0,0 0,1 -1,0 -1,0 -1,1l6 0zm24 6c0,0 0,0 0,0 0,0 0,0 0,0 0,0 0,0 0,0 0,0 0,0 0,0 -1,0 -1,0 -1,0 0,0 0,0 0,0 0,0 0,0 0,0 0,0 0,0 0,0l0 -6c0,-1 0,-1 -1,-1 0,-1 0,-1 0,-1 0,-1 0,-1 -1,-1 0,0 0,0 0,0 -1,0 -1,0 -2,0 0,1 -1,1 -1,2l0 7c0,0 0,0 0,0 0,0 0,0 0,0 0,0 0,0 -1,0 0,0 0,0 0,0 0,0 0,0 0,0 -1,0 -1,0 -1,0 0,0 0,0 0,0 0,0 0,0 0,0l0 -6c0,-1 0,-1 0,-1 0,-1 0,-1 0,-1 -1,-1 -1,-1 -1,-1 0,0 -1,0 -1,0 0,0 -1,0 -1,0 -1,1 -1,1 -2,2l0 7c0,0 0,0 0,0 0,0 0,0 0,0 0,0 0,0 0,0 0,0 0,0 -1,0 0,0 0,0 0,0 0,0 0,0 0,0 0,0 0,0 0,0 0,0 0,0 0,0l0 -10c0,0 0,0 0,0 0,0 0,0 0,0 0,0 0,0 0,0 0,0 0,0 0,0 1,0 1,0 1,0 0,0 0,0 0,0 0,0 0,0 0,0 0,0 0,0 0,0l0 1c1,0 1,-1 2,-1 0,0 1,-1 1,-1 1,0 1,0 2,1 0,0 0,0 0,0 1,0 1,0 1,1 0,0 0,0 1,0 0,0 0,0 1,-1 0,0 0,0 0,0 1,0 1,0 1,-1 0,0 1,0 1,0 1,0 1,0 2,1 0,0 0,0 1,1 0,0 0,0 0,1 0,0 0,1 0,2l0 6zm13 0c0,0 0,0 0,0 0,0 0,0 0,0 0,0 0,0 0,0 0,0 0,0 0,0 -1,0 -1,0 -1,0 0,0 0,0 0,0 0,0 0,0 0,0 0,0 0,0 0,0l0 -1c-1,0 -1,1 -2,1 -1,0 -1,0 -2,0 0,0 -1,0 -1,0 -1,0 -1,0 -1,-1 -1,0 -1,-1 -1,-1 0,-1 0,-1 0,-2l0 -6c0,0 0,0 0,0 0,0 0,0 0,0 0,0 0,0 0,0 0,0 0,0 1,0 0,0 0,0 0,0 0,0 0,0 0,0 0,0 1,0 1,0 0,0 0,0 0,0l0 6c0,0 0,1 0,1 0,0 0,1 0,1 0,0 0,0 1,1 0,0 0,0 1,0 0,0 1,0 1,-1 1,0 1,-1 2,-1l0 -7c0,0 0,0 0,0 0,0 0,0 0,0 0,0 0,0 0,0 0,0 0,0 0,0 1,0 1,0 1,0 0,0 0,0 0,0 0,0 0,0 0,0 0,0 0,0 0,0l0 10zm11 -3c0,1 0,1 0,2 0,0 -1,0 -1,1 0,0 -1,0 -1,0 -1,0 -1,0 -2,0 0,0 -1,0 -1,0 0,0 0,0 -1,0 0,0 0,0 0,0 -1,0 -1,0 -1,0 0,-1 0,-1 0,-1 0,0 0,0 0,0 0,0 0,-1 0,-1 0,0 0,0 0,0 0,0 0,0 0,0 0,0 0,0 0,0 0,0 1,0 1,0 0,0 0,0 0,0 1,1 1,1 1,1 0,0 1,0 1,0 1,0 1,0 1,0 0,0 1,0 1,0 0,-1 0,-1 0,-1 0,0 0,0 0,-1 0,0 0,0 0,0 0,-1 0,-1 -1,-1 0,0 0,0 0,0 -1,0 -1,-1 -1,-1 -1,0 -1,0 -1,0 0,0 -1,0 -1,-1 0,0 0,0 -1,-1 0,0 0,0 0,-1 0,0 0,0 0,-1 1,0 1,0 1,-1 0,0 1,0 1,0 1,-1 1,-1 2,-1 0,0 0,0 1,0 0,0 0,1 0,1 1,0 1,0 1,0 0,0 0,0 0,0 0,0 0,0 0,0 1,0 1,0 1,0 0,0 0,0 0,1 0,0 0,0 0,0 0,0 0,0 0,0 0,0 0,0 0,0 -1,0 -1,1 -1,1 0,0 0,0 0,0 0,0 0,0 0,-1 0,0 0,0 0,0 -1,0 -1,0 -1,0 0,0 -1,0 -1,0 0,0 -1,0 -1,0 0,0 0,0 -1,0 0,0 0,0 0,1 0,0 0,0 0,0 0,1 0,1 0,1 0,0 1,0 1,0 0,1 0,1 1,1 0,0 0,0 1,0 0,0 0,1 0,1 1,0 1,0 1,0 1,0 1,1 1,1 0,0 0,1 0,1zm6 3c0,0 0,0 0,0 0,0 -1,0 -1,0 0,0 0,0 0,0 0,0 0,0 0,0 -1,0 -1,0 -1,0 0,0 0,0 0,0 0,0 0,0 0,0 0,0 0,0 0,0l0 -10c0,0 0,0 0,0 0,0 0,0 0,0 0,0 0,0 0,0 0,0 0,0 1,0 0,0 0,0 0,0 0,0 0,0 0,0 0,0 1,0 1,0 0,0 0,0 0,0l0 10zm0 -14c0,1 0,1 0,1 -1,1 -1,1 -1,1 -1,0 -1,0 -1,-1 0,0 0,0 0,0 0,-1 0,-1 0,-1 0,-1 0,-1 1,-1 0,0 0,0 1,1 0,0 0,0 0,0zm11 12c0,0 0,1 0,1 0,0 0,0 0,0 0,0 0,0 0,0 0,0 0,0 0,0 0,0 0,0 -1,1 0,0 0,0 0,0 -1,0 -1,0 -1,0 -1,0 -1,0 -1,0 -1,0 -2,0 -2,0 -1,0 -1,-1 -2,-1 0,0 0,-1 0,-2 -1,0 -1,-1 -1,-2 0,-1 0,-2 1,-3 0,0 0,-1 1,-1 0,-1 1,-1 1,-1 1,-1 1,-1 2,-1 0,0 1,0 1,0 0,1 0,1 1,1 0,0 0,0 0,0 1,0 1,0 1,0 0,0 0,1 0,1 0,0 0,0 0,0 0,0 0,0 0,0 0,0 0,0 0,0 0,1 0,1 0,1 0,0 0,0 0,0 0,0 0,0 -1,0 0,0 0,0 0,0 0,-1 -1,-1 -1,-1 0,0 -1,0 -1,0 -1,0 -2,0 -2,1 -1,1 -1,2 -1,3 0,1 0,1 0,2 1,0 1,0 1,1 0,0 0,0 1,1 0,0 1,0 1,0 0,0 1,0 1,0 0,-1 1,-1 1,-1 0,0 0,0 1,0 0,0 0,-1 0,-1 0,0 0,1 0,1 0,0 0,0 0,0 0,0 0,0 0,0 0,0 0,0 0,0z"/>
  <rect class="fil1" width="155" height="147"/>
 </g>
</svg>
