<?xml version="1.0" encoding="UTF-8"?>
<!DOCTYPE svg PUBLIC "-//W3C//DTD SVG 1.1//EN" "http://www.w3.org/Graphics/SVG/1.1/DTD/svg11.dtd">
<!-- Creator: CorelDRAW X8 -->
<svg xmlns="http://www.w3.org/2000/svg" xml:space="preserve" width="78.9976mm" height="74.8427mm" version="1.1" style="shape-rendering:geometricPrecision; text-rendering:geometricPrecision; image-rendering:optimizeQuality; fill-rule:evenodd; clip-rule:evenodd"
viewBox="0 0 1094 1037"
 xmlns:xlink="http://www.w3.org/1999/xlink"
 t="1651556559555"
 p-id="11866">
 <defs>
  <style type="text/css">
   <![CDATA[
    .fil1 {fill:none}
    .fil0 {fill:#FEFEFE}
    .fil2 {fill:#FEFEFE;fill-rule:nonzero}
   ]]>
  </style>
 </defs>
 <g id="图层_x0020_1">
  <metadata id="CorelCorpID_0Corel-Layer"/>
  <g id="_2789597328224">
   <path class="fil0" d="M579 118c-4,-17 -16,-31 -32,-37l0 -49 43 0c8,0 15,-7 15,-15 0,-8 -7,-15 -15,-15l-121 0c-8,0 -15,7 -15,15 0,8 7,15 15,15l48 0 0 47c-19,5 -33,21 -37,40 -78,23 -135,94 -135,180 0,98 77,179 173,186 4,1 9,2 13,2 0,0 0,0 0,0 1,0 1,0 1,0 1,0 2,-1 4,-1 2,0 4,0 6,-1 99,-5 177,-87 177,-186 0,-87 -60,-160 -140,-181l0 0zm-204 181c0,-12 1,-23 4,-34l60 0c-1,10 -2,20 -2,31 0,12 1,25 2,36l-60 0c-3,-10 -4,-22 -4,-33zm93 -3c0,-11 0,-21 1,-31l48 0 0 67 -48 0c-1,-11 -1,-23 -1,-36l0 0zm79 -148c17,13 34,43 42,87l-42 0 0 -87zm-30 -1l0 88 -44 0c8,-46 26,-77 44,-88zm0 216l0 89c-18,-11 -35,-44 -43,-89l43 0zm30 87l0 -87 41 0c-8,43 -24,75 -41,87l0 0zm0 -118l0 -67 45 0c1,10 2,20 2,31 0,13 -1,25 -2,36l-45 0 0 0zm76 -67l62 0c3,11 4,22 4,34 0,11 -1,23 -4,33l-63 0c1,-11 2,-24 2,-36 0,-11 -1,-21 -1,-31zm52 -30l-56 0c-5,-33 -15,-61 -28,-82 38,16 68,45 84,82zm-206 -80c-12,20 -22,48 -27,80l-53 0c16,-36 44,-64 80,-80l0 0zm-80 208l54 0c5,31 15,59 27,80 -36,-16 -65,-45 -81,-80zm202 81c12,-21 22,-49 27,-81l57 0c-16,37 -47,66 -84,81l0 0zm-283 -171l-40 0c-8,0 -15,6 -15,15 0,8 7,15 15,15l40 0c8,0 15,-7 15,-15 0,-9 -7,-15 -15,-15zm491 0l-40 0c-8,0 -15,6 -15,15 0,8 7,15 15,15l40 0c8,0 15,-7 15,-15 0,-9 -7,-15 -15,-15z" p-id="11867"/>
   <path class="fil0" d="M364 437l-29 28c-6,6 -6,15 0,21 3,3 7,5 11,5 0,0 0,0 0,0 4,0 8,-2 11,-5l28 -28c6,-6 6,-16 0,-21 -6,-6 -16,-6 -21,0l0 0zm347 -348l-29 29c-5,6 -5,15 0,21 3,3 7,4 11,4 0,0 0,0 0,0 4,0 8,-1 11,-4l28 -28c6,-6 6,-16 0,-22 -6,-6 -15,-6 -21,0l0 0zm-347 50c3,3 6,4 10,4 4,0 8,-1 11,-4 6,-6 6,-15 0,-21l-28 -29c-6,-6 -16,-6 -22,0 -6,6 -6,16 0,22l29 28 0 0zm340 298c-6,-6 -16,-6 -22,0 -5,5 -5,15 0,21l29 28c3,3 6,5 10,5 0,0 0,0 0,0 4,0 8,-2 11,-5 6,-6 6,-15 0,-21l-28 -28zm-170 61c-9,0 -15,7 -15,15l0 40c0,9 6,15 15,15 8,0 15,-6 15,-15l0 -40c0,-8 -7,-15 -15,-15z" p-id="11868"/>
  </g>
  <rect class="fil1" width="1094" height="1037"/>
  <path class="fil0" d="M50 709c27,0 49,22 49,49 0,28 -22,50 -49,50 -28,0 -50,-22 -50,-50 0,-27 22,-49 50,-49z"/>
  <path class="fil2" d="M534 784l0 101c0,3 -1,5 -3,7 -2,2 -5,3 -8,3l-61 0c-2,0 -5,-1 -7,-2 -2,-2 -3,-5 -3,-8l0 -7c0,-3 1,-5 3,-7 2,-2 5,-3 7,-3l37 0c2,0 5,-1 7,-3 2,-2 3,-5 3,-8l0 -73c0,-3 -1,-5 -3,-7 -2,-2 -5,-3 -7,-3l-52 0c-3,0 -5,-1 -7,-4 -2,-2 -3,-4 -3,-7l0 -7c0,-3 1,-5 3,-7 2,-2 4,-3 7,-3l52 0c2,0 5,-1 7,-3 2,-2 3,-5 3,-8l0 -76c0,-3 -1,-5 -3,-7 -2,-3 -5,-4 -7,-4l-52 0c-3,0 -5,-1 -7,-3 -2,-2 -3,-4 -3,-7l0 -7c0,-3 1,-5 3,-7 2,-2 4,-3 7,-3l85 0c3,0 5,1 7,3 2,2 3,4 3,7l0 7c0,3 0,5 -1,7 -1,2 -2,3 -3,3 -1,0 -2,1 -3,4 0,2 -1,4 -1,7l0 76c0,3 1,6 1,8 1,2 2,3 3,3 1,0 2,1 3,3 1,2 1,4 1,7l0 7c0,3 0,5 -1,7 -1,3 -2,4 -3,4 -1,0 -2,1 -3,3 0,2 -1,4 -1,7zm9 94c0,-3 0,-5 1,-7 1,-2 2,-3 4,-3 1,0 3,-1 5,-3 1,-2 2,-4 3,-7l21 -72c1,-2 2,-6 3,-10 0,-4 1,-7 1,-10l0 -66c0,-3 1,-5 3,-7 2,-2 4,-3 7,-3l2 0c3,0 5,1 7,3 2,2 3,4 3,7l0 66c0,3 0,6 1,10 0,4 1,8 2,10l17 72c1,3 2,5 3,7 2,2 3,3 5,3 1,0 2,1 4,3 1,2 1,4 1,7l0 8c0,2 -1,5 -3,7 -2,2 -5,3 -8,3l-7 0c-3,0 -6,-1 -9,-3 -2,-2 -4,-4 -4,-7l-12 -46c0,-3 -1,-4 -2,-4 -1,0 -2,1 -3,4l-13 46c-1,3 -3,5 -5,7 -3,2 -6,3 -9,3l-8 0c-3,0 -5,-1 -7,-3 -2,-2 -3,-5 -3,-7l0 -8zm22 -257c3,0 6,0 8,2 2,2 3,4 3,7 0,3 1,5 3,7 2,2 4,3 7,3l39 0c3,0 6,1 8,3 2,2 3,4 3,7l0 112c0,3 -1,5 -3,7 -2,2 -5,3 -8,3l-1 0c-3,0 -5,-1 -7,-3 -3,-2 -4,-4 -4,-7l0 -83c0,-3 -1,-6 -3,-8 -2,-2 -4,-3 -7,-3l-42 0c-3,0 -5,-1 -7,-3 -2,-2 -3,-5 -3,-8l0 -26c0,-3 1,-5 3,-7 2,-2 4,-3 7,-3l4 0zm-66 52l0 54c0,3 -1,5 -3,7 -2,2 -5,3 -8,3l-38 0c-3,0 -5,-1 -7,-3 -2,-2 -3,-5 -3,-8l0 -53c0,-2 1,-5 3,-7 2,-2 4,-3 7,-3l38 0c3,0 6,1 8,3 2,2 3,5 3,7zm0 176c0,2 -1,5 -3,6 -2,2 -5,3 -8,3l-38 0c-3,0 -5,-1 -7,-3 -2,-2 -3,-4 -3,-7l0 -53c0,-3 1,-5 3,-7 2,-2 4,-3 7,-3l38 0c3,0 6,1 8,3 2,2 3,4 3,7l0 54zm-22 -151c0,-3 -1,-5 -3,-7 -1,-2 -3,-3 -5,-3 -2,0 -4,1 -5,3 -2,2 -2,4 -2,7l0 3c0,3 0,6 2,8 1,2 3,3 5,3 2,0 4,-1 5,-3 2,-2 3,-5 3,-8l0 -3zm0 122c0,-3 -1,-6 -3,-8 -1,-2 -3,-3 -5,-3 -2,0 -4,1 -5,3 -2,2 -2,5 -2,8l0 3c0,3 0,5 2,7 1,2 3,3 5,3 2,0 4,-1 5,-3 2,-2 3,-4 3,-7l0 -3zm500 -25c0,3 -1,6 -2,10 -1,4 -3,7 -4,10l-14 22c-1,2 -2,6 -2,9 0,4 1,7 2,9l3 4c1,2 3,5 5,6 2,2 4,3 6,3 1,0 3,1 4,3 1,2 2,5 2,8l0 7c0,2 -2,5 -4,7 -2,2 -4,3 -7,3l-7 0c-3,0 -6,-1 -9,-3 -3,-1 -5,-4 -7,-6l-2 -4c-2,-3 -4,-4 -6,-4 -2,0 -4,1 -5,4l-2 4c-2,2 -4,5 -7,6 -4,2 -6,3 -9,3l-6 0c-3,0 -5,-1 -7,-3 -2,-2 -3,-5 -3,-7l0 -7c0,-3 0,-6 1,-8 1,-2 2,-3 4,-3 1,0 3,-1 5,-3 2,-1 4,-4 5,-6l3 -4c1,-2 2,-5 2,-9 0,-4 -1,-7 -2,-9l-13 -22c-1,-3 -3,-6 -4,-10 -1,-4 -1,-7 -1,-10l0 -117c0,-3 1,-5 3,-7 2,-2 4,-3 7,-3l7 0c3,0 6,1 8,3 2,2 3,4 3,7l0 109c0,3 0,6 1,10 1,4 2,7 4,10l1 2c2,3 4,4 6,4 2,0 4,-1 5,-4l2 -2c2,-3 3,-6 4,-10 1,-4 2,-7 2,-10l0 -128c0,-3 -1,-5 -4,-7 -2,-3 -4,-4 -7,-4l-32 0c-3,0 -5,-1 -7,-3 -2,-2 -3,-4 -3,-7l0 -7c0,-3 1,-5 3,-7 2,-2 4,-3 7,-3l60 0c3,0 5,1 7,3 2,2 4,4 4,7l0 164zm7 -145c0,-3 1,-6 3,-8 2,-2 5,-3 8,-3l51 0c3,0 5,-1 7,-3 2,-2 3,-4 3,-6 0,-3 1,-5 3,-7 2,-2 4,-2 7,-2l7 0c3,0 5,0 8,2 2,2 3,4 3,7 0,2 0,4 1,6 0,2 1,3 2,3 1,0 2,1 3,3 1,2 2,4 2,7l0 7c0,3 -1,5 -2,7 -1,2 -2,3 -3,3 -1,0 -2,2 -2,4 -1,2 -1,4 -1,7l0 208c0,3 -1,5 -3,7 -3,2 -5,3 -8,3l-53 0c-3,0 -5,-1 -7,-3 -2,-2 -4,-4 -4,-7l0 -7c0,-3 2,-5 4,-7 2,-3 4,-4 7,-4l26 0c3,0 5,-1 7,-3 2,-2 3,-4 3,-7l0 -180c0,-3 -1,-5 -3,-7 -2,-2 -4,-3 -7,-3l-51 0c-3,0 -6,-1 -8,-3 -2,-3 -3,-5 -3,-8l0 -6zm31 40c3,0 5,1 7,3 2,2 3,4 3,7l0 104c0,3 1,5 3,7 1,2 3,3 5,3 2,0 4,1 6,3 1,2 2,4 2,7l0 7c0,3 -1,6 -3,8 -2,2 -4,3 -7,3l-23 0c-3,0 -5,-1 -7,-3 -2,-2 -3,-5 -3,-8l0 -131c0,-3 1,-5 3,-7 2,-2 4,-3 7,-3l7 0zm-224 20c-2,0 -5,1 -7,3 -2,2 -3,4 -3,7l0 15c0,3 1,6 3,8 2,2 5,3 7,3l11 0c3,0 5,1 8,3 3,2 4,4 5,7l11 39c1,3 2,5 3,7 2,2 3,3 5,3 1,0 2,-1 3,-3 1,-2 2,-5 2,-8l0 -57c0,-3 1,-6 3,-8 2,-2 4,-3 7,-3l7 0c3,0 5,1 7,3 2,2 3,5 3,8l0 63c0,3 0,6 -2,9 -1,4 -3,7 -5,9l-7 7c-2,2 -5,4 -7,6 -2,1 -3,2 -4,2 -2,0 -3,1 -3,3 0,2 0,4 1,7l4 15c1,3 3,5 5,7 3,2 5,3 8,3 3,0 5,1 7,3 2,2 3,5 3,8l0 7c0,2 -1,5 -3,7 -2,2 -4,3 -7,3l-21 0c-3,0 -6,-1 -9,-3 -2,-2 -4,-4 -5,-7l-27 -101c-1,-3 -2,-6 -4,-8 -1,-2 -2,-3 -4,-3 -1,0 -3,1 -4,3 -1,2 -1,5 -1,8l0 73c0,3 1,5 3,7 2,2 5,3 8,3l2 0c3,0 6,1 8,3 2,2 3,5 3,8l0 7c0,2 -1,5 -3,7 -2,2 -5,3 -8,3l-8 0c-3,0 -6,-1 -10,-2 -3,-2 -6,-4 -8,-6l-5 -6c-2,-3 -4,-5 -6,-9 -1,-4 -1,-7 -1,-10l0 -177c0,-1 1,-2 3,-3 2,-1 4,-1 7,-1l62 0c3,0 6,-1 8,-2 2,-2 3,-3 3,-5 0,-2 1,-4 3,-5 2,-1 4,-2 7,-2l7 0c3,0 5,1 7,3 2,1 3,4 3,7 0,2 0,5 -2,9 -1,3 -3,6 -5,8l-7 7c-2,2 -5,4 -9,5 -3,2 -6,3 -9,3l-43 0zm48 -83c0,-2 1,-3 3,-5 2,-1 4,-1 7,-1l7 0c3,0 5,0 7,2 2,2 3,4 3,7 0,3 0,6 -2,9 -1,3 -3,6 -5,8l-7 8c-2,2 -5,4 -9,5 -3,2 -6,2 -9,2l-76 0c-2,0 -5,1 -7,3 -2,2 -3,5 -3,8l0 190c0,3 -1,6 -2,10 -1,4 -3,6 -5,9l-5 6c-3,2 -5,4 -8,6 -3,1 -6,2 -8,2 -2,0 -4,-1 -6,-3 -2,-2 -3,-5 -3,-7l0 -7c0,-3 1,-6 2,-8 1,-2 2,-3 3,-3 1,0 2,-1 3,-3 1,-2 1,-4 1,-7l0 -213c0,-3 0,-6 1,-8 0,-2 1,-3 1,-3l106 0c3,0 6,0 8,-2 2,-1 3,-3 3,-5zm-173 252c0,-3 1,-6 1,-8 1,-2 2,-3 3,-3 1,0 2,-1 3,-3 1,-2 1,-4 1,-7l0 -113c0,-3 1,-6 3,-8 2,-2 4,-3 7,-3l8 0c2,0 5,1 7,3 2,2 3,5 3,8l0 118c0,3 -1,6 -2,10 -2,3 -3,6 -5,8l-8 8c-2,2 -4,4 -7,5 -3,1 -5,2 -7,2 -2,0 -4,-1 -5,-3 -1,-2 -2,-5 -2,-7l0 -7zm15 -192c2,-3 4,-4 7,-4 3,0 5,1 7,4l5 4c2,2 3,5 3,8 0,3 -1,5 -3,7l-5 5c-2,2 -4,3 -7,3 -3,0 -5,-1 -7,-3l-5 -5c-2,-2 -3,-4 -3,-7 0,-3 1,-6 3,-8l5 -4zm0 -57c2,-3 4,-4 7,-4 3,0 5,1 7,4l5 4c2,2 3,4 3,7 0,3 -1,6 -3,8l-5 5c-2,2 -4,3 -7,3 -3,0 -5,-1 -7,-3l-5 -5c-2,-2 -3,-5 -3,-8 0,-3 1,-5 3,-7l5 -4z"/>
  <path class="fil2" d="M271 968c0,7 -1,13 -3,19 -2,5 -4,9 -8,13 -3,3 -8,6 -13,8 -5,1 -11,2 -18,2l-17 0c-1,0 -2,0 -3,-1 -1,0 -1,-2 -1,-3l0 -74c0,-1 0,-2 1,-3 1,-1 2,-1 3,-1l18 0c8,0 14,1 18,3 5,2 10,4 13,8 3,3 6,7 7,12 2,5 3,11 3,17zm-11 0c0,-4 -1,-8 -2,-12 -1,-4 -3,-7 -5,-10 -3,-3 -6,-5 -9,-7 -4,-1 -9,-2 -14,-2l-11 0 0 64 11 0c5,0 10,0 13,-2 4,-1 7,-3 9,-6 3,-3 5,-6 6,-10 1,-4 2,-9 2,-15zm43 41c0,0 0,0 0,1 0,0 -1,0 -1,0 0,0 -1,0 -2,1 0,0 -1,0 -2,0 -1,0 -2,0 -3,0 0,-1 -1,-1 -1,-1 -1,0 -1,0 -1,0 0,-1 0,-1 0,-1l0 -58c0,0 0,0 0,0 0,-1 0,-1 1,-1 0,0 1,0 1,0 1,0 2,-1 3,-1 1,0 2,1 2,1 1,0 2,0 2,0 0,0 1,0 1,1 0,0 0,0 0,0l0 58zm1 -77c0,3 0,4 -1,5 -1,1 -3,2 -5,2 -3,0 -5,-1 -5,-2 -1,-1 -2,-2 -2,-5 0,-2 1,-4 2,-5 1,-1 2,-1 5,-1 2,0 4,0 5,1 1,1 1,3 1,5zm60 61c0,3 0,6 -1,8 -1,2 -3,4 -5,6 -2,1 -4,2 -7,3 -3,1 -6,1 -9,1 -2,0 -4,0 -6,0 -2,0 -4,-1 -5,-1 -1,-1 -3,-1 -4,-2 -1,0 -1,-1 -2,-1 0,-1 -1,-1 -1,-2 0,-1 0,-2 0,-3 0,-1 0,-2 0,-2 0,-1 0,-1 0,-1 0,-1 0,-1 1,-1 0,0 0,0 1,0 0,0 1,0 2,1 0,0 2,1 3,1 1,1 3,2 5,2 1,1 4,1 6,1 2,0 3,0 5,0 1,-1 2,-1 4,-2 1,-1 1,-2 2,-3 1,-1 1,-3 1,-4 0,-2 -1,-3 -1,-4 -1,-1 -2,-2 -4,-3 -1,-1 -3,-2 -4,-2 -2,-1 -4,-2 -5,-2 -2,-1 -4,-2 -6,-3 -1,-1 -3,-2 -4,-3 -2,-2 -3,-3 -4,-5 0,-2 -1,-4 -1,-6 0,-3 1,-5 1,-7 1,-2 3,-4 4,-5 2,-2 4,-3 7,-4 3,-1 6,-1 9,-1 2,0 3,0 5,0 1,0 2,1 4,1 1,0 2,1 3,1 1,1 1,1 2,1 0,1 1,1 1,1 0,1 0,1 0,1 0,1 0,1 0,1 0,1 0,1 0,2 0,1 0,1 0,2 0,0 0,1 0,1 0,1 0,1 -1,1 0,0 0,0 0,0 -1,0 -1,0 -2,-1 -1,0 -2,0 -3,-1 -1,-1 -2,-1 -4,-2 -1,0 -3,0 -5,0 -2,0 -3,0 -5,0 -1,1 -2,1 -3,2 -1,1 -2,2 -2,3 -1,1 -1,2 -1,3 0,2 1,3 1,4 1,1 2,2 4,3 1,1 3,2 4,2 2,1 4,2 6,2 1,1 3,2 5,3 2,1 3,2 5,3 1,1 2,3 3,5 1,1 1,4 1,6zm62 7c0,1 0,1 0,2 0,0 0,1 0,1 0,0 0,1 0,1 -1,0 -1,1 -1,1 -1,1 -2,1 -3,2 -1,1 -3,2 -4,2 -2,1 -4,2 -6,2 -1,0 -3,0 -5,0 -5,0 -8,0 -11,-2 -4,-1 -6,-3 -8,-6 -2,-2 -4,-5 -5,-9 -1,-4 -2,-8 -2,-13 0,-6 1,-11 2,-15 2,-4 3,-7 6,-10 2,-2 5,-4 8,-5 4,-2 7,-2 11,-2 2,0 3,0 5,0 2,1 3,1 5,2 1,0 3,1 4,1 1,1 2,2 2,2 1,1 1,1 1,2 0,0 1,0 1,1 0,0 0,0 0,1 0,0 0,1 0,2 0,2 0,3 -1,3 0,1 0,1 -1,1 -1,0 -1,0 -2,-1 -1,0 -2,-1 -3,-2 -2,-1 -3,-2 -5,-2 -2,-1 -4,-1 -6,-1 -5,0 -9,1 -12,5 -3,4 -4,10 -4,17 0,4 0,7 1,10 1,3 2,5 3,7 1,2 3,3 5,4 2,1 4,1 7,1 2,0 4,0 6,-1 2,-1 4,-1 5,-2 1,-1 2,-2 3,-3 1,-1 2,-1 3,-1 0,0 0,0 0,0 0,0 1,1 1,1 0,1 0,1 0,2 0,0 0,1 0,2zm72 -21c0,5 -1,9 -2,13 -1,4 -3,8 -5,10 -3,3 -6,5 -9,7 -4,2 -8,2 -13,2 -5,0 -9,0 -12,-2 -4,-1 -7,-3 -9,-6 -2,-2 -4,-6 -5,-9 -2,-4 -2,-9 -2,-13 0,-5 1,-9 2,-13 1,-4 3,-8 5,-10 3,-3 6,-5 9,-7 4,-2 8,-2 13,-2 5,0 9,0 12,2 4,1 7,3 9,6 2,2 4,6 5,9 1,4 2,9 2,13zm-11 1c0,-3 0,-6 -1,-9 0,-2 -1,-5 -3,-7 -1,-2 -3,-4 -5,-5 -2,-1 -5,-2 -8,-2 -3,0 -6,1 -8,2 -3,1 -4,3 -6,5 -1,2 -2,4 -3,7 -1,3 -1,6 -1,9 0,3 0,6 1,9 0,2 1,5 3,7 1,2 3,4 5,5 2,1 5,2 8,2 3,0 6,-1 8,-2 3,-1 4,-3 6,-5 1,-2 2,-4 3,-7 1,-3 1,-6 1,-9zm138 -1c0,5 -1,10 -2,14 -1,4 -2,7 -4,10 -2,3 -5,5 -8,6 -3,2 -7,2 -11,2 -1,0 -3,0 -4,0 -2,0 -3,-1 -5,-2 -1,0 -2,-1 -4,-2 -1,-1 -2,-3 -4,-4l0 28c0,1 0,1 0,1 0,1 -1,1 -1,1 0,0 -1,0 -2,0 0,0 -1,0 -2,0 -1,0 -2,0 -3,0 -1,0 -1,0 -2,0 0,0 0,0 0,-1 0,0 -1,0 -1,-1l0 -80c0,0 1,0 1,0 0,-1 0,-1 0,-1 1,0 1,0 2,0 0,0 1,-1 2,-1 1,0 2,1 2,1 1,0 1,0 2,0 0,0 0,0 0,1 1,0 1,0 1,0l0 8c1,-2 3,-3 5,-5 1,-1 3,-2 5,-3 1,-1 3,-1 5,-2 1,0 3,0 5,0 4,0 8,0 11,2 3,2 5,4 7,7 2,2 3,6 4,9 1,4 1,8 1,12zm-11 1c0,-3 0,-5 -1,-8 0,-3 -1,-5 -2,-7 -1,-3 -2,-4 -4,-6 -2,-1 -4,-1 -7,-1 -1,0 -3,0 -4,0 -1,1 -3,1 -4,2 -1,1 -3,2 -4,4 -2,1 -3,3 -5,5l0 23c3,3 6,6 8,8 3,2 5,2 8,2 3,0 5,0 7,-1 2,-2 4,-3 5,-6 1,-2 2,-4 2,-7 1,-2 1,-5 1,-8zm76 29c0,0 0,1 -1,1 0,0 0,0 -1,0 -1,1 -2,1 -3,1 -1,0 -2,0 -2,-1 -1,0 -1,0 -2,0 0,0 0,-1 0,-1l0 -6c-3,3 -5,5 -9,6 -3,2 -6,2 -9,2 -3,0 -6,0 -9,-1 -2,0 -4,-2 -6,-3 -1,-2 -3,-3 -4,-6 -1,-2 -1,-4 -1,-7 0,-3 0,-6 2,-8 1,-3 3,-5 5,-6 3,-2 6,-3 9,-4 4,-1 8,-1 12,-1l8 0 0 -4c0,-3 0,-5 0,-6 -1,-2 -2,-3 -3,-5 -1,-1 -2,-2 -4,-2 -1,-1 -3,-1 -6,-1 -2,0 -5,0 -7,1 -2,1 -4,1 -5,2 -2,1 -3,1 -4,2 -1,1 -2,1 -2,1 -1,0 -1,0 -1,0 0,0 -1,-1 -1,-1 0,0 0,-1 0,-1 0,-1 0,-1 0,-2 0,-1 0,-2 0,-3 0,0 0,-1 1,-1 1,-1 2,-1 3,-2 1,-1 3,-2 5,-2 2,-1 4,-1 6,-2 2,0 4,0 6,0 4,0 8,0 11,1 3,1 5,2 7,4 2,2 3,4 4,7 0,2 1,6 1,9l0 39zm-11 -26l-9 0c-2,0 -5,0 -7,0 -2,1 -4,2 -5,2 -2,1 -3,3 -3,4 -1,1 -1,3 -1,5 0,2 1,5 2,7 2,1 5,2 8,2 3,0 6,0 8,-2 2,-1 5,-3 7,-6l0 -12zm69 -28c0,1 0,2 0,3 0,0 0,1 0,1 0,0 0,1 0,1 -1,0 -1,0 -1,0 -1,0 -1,0 -1,0 -1,0 -1,-1 -2,-1 -1,0 -1,0 -2,0 -1,0 -2,-1 -3,-1 -1,0 -2,1 -3,1 -1,1 -2,1 -3,2 -1,1 -2,3 -3,4 -2,2 -3,4 -4,6l0 38c0,0 -1,0 -1,1 0,0 0,0 -1,0 0,0 0,0 -1,1 -1,0 -2,0 -3,0 -1,0 -2,0 -2,0 -1,-1 -2,-1 -2,-1 0,0 -1,0 -1,0 0,-1 0,-1 0,-1l0 -58c0,0 0,0 0,0 0,-1 1,-1 1,-1 0,0 1,0 1,0 1,0 2,-1 3,-1 1,0 1,1 2,1 1,0 1,0 2,0 0,0 0,0 0,1 0,0 0,0 0,0l0 9c2,-3 4,-4 5,-6 1,-1 3,-2 4,-3 1,-1 2,-2 3,-2 2,0 3,0 4,0 1,0 1,0 2,0 1,0 1,0 2,0 1,0 2,0 2,1 1,0 1,0 2,0 0,0 0,1 0,1 0,0 0,0 0,1 0,0 0,0 0,1 0,0 0,1 0,2zm48 49c0,2 0,3 0,3 0,1 -1,2 -1,2 0,0 -1,1 -2,1 0,0 -1,0 -2,1 -1,0 -2,0 -3,0 -1,0 -2,0 -3,0 -3,0 -5,0 -7,-1 -2,-1 -4,-2 -5,-3 -2,-2 -3,-4 -3,-6 -1,-3 -1,-6 -1,-9l0 -33 -8 0c-1,0 -1,-1 -2,-1 0,-1 0,-2 0,-4 0,-1 0,-1 0,-2 0,0 0,-1 0,-1 0,0 1,-1 1,-1 0,0 0,0 1,0l8 0 0 -14c0,0 0,0 0,-1 0,0 0,0 1,0 0,0 1,-1 1,-1 1,0 2,0 3,0 1,0 2,0 3,0 0,0 1,1 1,1 1,0 1,0 1,0 0,1 0,1 0,1l0 14 15 0c0,0 0,0 1,0 0,0 0,1 0,1 1,0 1,1 1,1 0,1 0,1 0,2 0,2 0,3 -1,4 0,0 -1,1 -1,1l-15 0 0 31c0,4 1,7 2,9 1,2 3,3 6,3 1,0 2,0 3,0 1,0 1,0 2,-1 0,0 1,0 1,0 1,0 1,0 1,0 1,0 1,0 1,0 0,0 0,0 1,0 0,1 0,1 0,2 0,0 0,1 0,1zm46 6l-8 21c0,1 -1,2 -2,2 -1,0 -2,0 -5,0 -1,0 -2,0 -2,0 -1,0 -1,0 -2,0 0,0 0,-1 0,-1 0,-1 0,-1 0,-2l8 -20c-1,0 -1,0 -1,-1 -1,0 -1,0 -1,-1l-20 -54c-1,-1 -1,-2 -1,-3 0,0 0,0 1,-1 0,0 1,0 1,0 1,0 2,-1 3,-1 2,0 3,1 3,1 1,0 2,0 2,0 0,0 1,0 1,1 0,0 0,0 1,1l16 46 0 0 16 -46c0,-1 0,-2 1,-2 0,0 1,0 1,0 1,0 2,-1 4,-1 1,0 2,1 2,1 1,0 2,0 2,0 0,1 1,1 1,1 0,1 0,2 -1,2l-20 57z"/>
  <path class="fil2" d="M230 887c-13,0 -20,-7 -20,-20l0 -109 0 -108c0,-13 7,-20 20,-20 14,0 20,7 20,20l0 101 1 0 90 -111c5,-7 12,-10 21,-10 22,0 26,8 12,25l-59 74 77 132c11,17 6,26 -15,26 -10,0 -17,-5 -22,-13l-65 -113 -40 48 0 58c0,13 -6,20 -20,20z"/>
 </g>
</svg>
