<?xml version="1.0" encoding="UTF-8"?>
<!DOCTYPE svg PUBLIC "-//W3C//DTD SVG 1.1//EN" "http://www.w3.org/Graphics/SVG/1.1/DTD/svg11.dtd">
<!-- Creator: CorelDRAW X8 -->
<svg xmlns="http://www.w3.org/2000/svg" xml:space="preserve" width="83.3575mm" height="74.8427mm" version="1.1" style="shape-rendering:geometricPrecision; text-rendering:geometricPrecision; image-rendering:optimizeQuality; fill-rule:evenodd; clip-rule:evenodd"
viewBox="0 0 2121 1904"
 xmlns:xlink="http://www.w3.org/1999/xlink">
 <defs>
  <style type="text/css">
   <![CDATA[
    .fil1 {fill:none}
    .fil0 {fill:#FEFEFE}
    .fil2 {fill:#332C2B}
    .fil3 {fill:#FEFEFE;fill-rule:nonzero}
    .fil4 {fill:#332C2B;fill-rule:nonzero}
   ]]>
  </style>
 </defs>
 <g id="图层_x0020_1">
  <metadata id="CorelCorpID_0Corel-Layer"/>
  <path class="fil0" d="M1043 851l118 -345 214 36c26,-182 -80,-363 -261,-424 -204,-70 -427,40 -496,244 -70,204 40,426 244,496 20,6 40,11 60,15 23,-20 56,-30 93,-27 10,1 19,2 28,5zm129 -680l-99 160 -40 -13 31 -183c49,-7 108,36 108,36zm-231 454c-76,-26 -116,-108 -90,-184 25,-76 108,-116 184,-91 76,26 116,109 90,185 -26,75 -108,116 -184,90zm83 -242c-58,-20 -121,11 -141,69 -19,58 12,121 69,140 58,20 121,-11 141,-69 19,-57 -12,-120 -69,-140zm-62 180c-41,-14 -63,-59 -49,-101 14,-41 59,-63 100,-49 42,14 64,59 50,100 -14,41 -59,64 -101,50zm-73 370c-1,11 -1,21 2,31 -20,-4 -40,-9 -60,-16 -254,-86 -390,-363 -304,-617 87,-254 364,-390 618,-304 225,77 358,304 324,531l-47 -8c30,-204 -90,-408 -293,-478 -229,-77 -478,45 -556,274 -78,229 45,479 274,557 15,5 30,10 46,13 -2,5 -3,11 -4,17zm619 -334l-136 400c-11,33 -45,51 -87,47 -46,-4 -80,-35 -77,-70 3,-36 42,-61 88,-57 21,2 39,9 53,20l82 -241 -230 -34 -103 299 0 0c-9,29 -44,48 -84,44 -46,-3 -82,-38 -77,-69 3,-35 42,-60 87,-57 21,2 39,9 52,20l121 -354 311 52z" p-id="27182"/>
  <rect class="fil1" width="2009" height="1904"/>
  <path class="fil2" d="M120 1300c51,0 92,42 92,93 0,51 -41,93 -92,93 -51,0 -93,-42 -93,-93 0,-51 42,-93 93,-93z"/>
  <path class="fil3" d="M530 1778c0,13 -2,25 -5,34 -4,10 -9,18 -15,25 -6,6 -14,11 -24,14 -9,3 -20,5 -33,5l-32 0c-2,0 -3,-1 -5,-2 -2,-1 -2,-3 -2,-6l0 -135c0,-3 0,-5 2,-6 2,-2 3,-2 5,-2l34 0c13,0 24,2 33,5 9,3 17,8 23,15 6,6 11,14 14,23 3,9 5,19 5,30zm-21 1c0,-8 -1,-16 -3,-23 -2,-7 -6,-13 -10,-18 -4,-5 -10,-9 -16,-12 -7,-3 -15,-4 -26,-4l-20 0 0 117 20 0c10,0 18,-1 25,-3 6,-3 12,-7 16,-12 5,-5 8,-11 10,-18 3,-8 4,-17 4,-27zm82 79c0,7 -1,14 -2,19 -1,4 -3,8 -5,12 -3,3 -6,5 -10,7 -4,2 -9,2 -14,2 -3,0 -5,0 -6,0 -2,0 -3,-1 -4,-1 -1,0 -2,-1 -2,-1 -1,-1 -1,-1 -1,-2 0,-1 0,-2 0,-2 0,-1 0,-2 0,-3 0,-1 0,-2 0,-3 0,-1 0,-2 0,-3 1,0 1,-1 1,-1 1,0 1,-1 2,-1 0,0 1,0 2,1 2,0 3,0 5,0 3,0 5,0 7,-1 1,-1 3,-2 4,-4 1,-2 2,-4 3,-7 0,-3 0,-7 0,-12l0 -110c0,-1 1,-1 1,-2 0,0 1,0 1,-1 1,0 2,0 3,0 2,-1 3,-1 5,-1 2,0 4,0 5,1 1,0 2,0 3,0 0,1 1,1 1,1 1,1 1,1 1,2l0 110zm2 -146c0,5 -1,8 -3,10 -1,1 -4,2 -9,2 -5,0 -8,-1 -9,-2 -2,-2 -3,-5 -3,-9 0,-5 1,-8 3,-10 1,-1 5,-2 9,-2 5,0 8,1 10,2 1,2 2,5 2,9zm238 87c0,9 -1,17 -3,25 -2,7 -5,13 -9,18 -3,5 -8,9 -14,12 -6,3 -12,4 -19,4 -3,0 -6,0 -9,-1 -3,0 -5,-1 -8,-3 -2,-1 -5,-3 -7,-5 -3,-2 -5,-4 -8,-7l0 53c0,0 0,1 -1,1 0,1 0,1 -1,2 -1,0 -2,0 -3,0 -1,0 -3,0 -5,0 -2,0 -3,0 -5,0 -1,0 -2,0 -3,0 0,-1 -1,-1 -1,-2 0,0 0,-1 0,-1l0 -147c0,-1 0,-1 0,-2 0,0 1,-1 1,-1 1,0 2,0 3,-1 1,0 2,0 4,0 2,0 3,0 4,0 1,1 2,1 3,1 0,0 1,1 1,1 0,1 1,1 1,2l0 14c3,-3 6,-6 9,-9 3,-2 6,-4 9,-6 3,-1 6,-2 9,-3 3,-1 6,-1 10,-1 7,0 14,1 19,4 6,3 10,7 13,12 4,5 6,11 8,18 1,7 2,14 2,22zm-20 2c0,-5 0,-11 -1,-16 -1,-5 -2,-9 -4,-13 -2,-4 -5,-7 -8,-9 -4,-3 -8,-4 -13,-4 -2,0 -5,0 -7,1 -3,1 -5,2 -8,4 -2,1 -5,3 -7,6 -3,3 -6,6 -9,10l0 42c5,6 10,11 15,14 5,4 10,6 15,6 5,0 9,-2 12,-4 4,-2 7,-5 9,-9 2,-4 3,-9 5,-13 1,-5 1,-10 1,-15zm139 52c0,1 0,2 -1,2 -1,1 -1,1 -2,1 -2,1 -3,1 -5,1 -2,0 -4,0 -5,-1 -1,0 -2,0 -3,-1 0,0 -1,-1 -1,-2l0 -10c-4,4 -9,8 -15,11 -6,3 -12,4 -18,4 -5,0 -10,-1 -15,-2 -4,-2 -8,-4 -11,-6 -3,-3 -6,-6 -8,-10 -1,-4 -2,-9 -2,-14 0,-6 1,-11 3,-15 3,-5 6,-8 11,-11 4,-3 10,-5 16,-7 7,-1 14,-2 22,-2l15 0 0 -8c0,-4 -1,-8 -1,-11 -1,-3 -3,-6 -5,-8 -1,-2 -4,-3 -7,-4 -3,-1 -7,-2 -11,-2 -5,0 -9,1 -13,2 -4,1 -7,2 -10,4 -3,1 -5,2 -7,3 -2,2 -3,2 -4,2 -1,0 -1,0 -2,0 0,-1 -1,-1 -1,-2 0,0 -1,-1 -1,-2 0,-1 0,-2 0,-3 0,-2 0,-4 0,-5 1,-1 1,-2 2,-3 1,-1 3,-2 6,-4 2,-1 5,-2 9,-3 3,-2 7,-3 11,-3 4,-1 8,-1 12,-1 7,0 14,0 19,2 5,2 9,4 13,8 3,3 5,7 7,12 1,5 2,11 2,17l0 71zm-19 -48l-17 0c-5,0 -9,0 -13,1 -4,1 -7,3 -10,4 -3,2 -4,4 -6,7 -1,2 -1,5 -1,8 0,6 1,10 5,13 3,3 8,5 14,5 5,0 10,-1 14,-4 5,-2 9,-6 14,-12l0 -22zm127 -50c0,1 0,3 0,4 -1,1 -1,2 -1,3 0,0 0,1 -1,1 0,1 -1,1 -1,1 -1,0 -2,0 -3,-1 0,0 -1,0 -3,-1 -1,0 -2,0 -3,-1 -2,0 -3,0 -5,0 -2,0 -4,0 -6,1 -1,1 -3,2 -5,4 -3,2 -5,4 -7,7 -2,3 -5,7 -7,11l0 69c0,1 -1,1 -1,2 0,0 -1,0 -1,1 -1,0 -2,0 -3,0 -2,1 -3,1 -5,1 -2,0 -4,0 -5,-1 -1,0 -2,0 -3,0 -1,-1 -1,-1 -1,-1 -1,-1 -1,-1 -1,-2l0 -105c0,-1 0,-1 1,-2 0,0 0,0 1,-1 1,0 2,0 3,-1 1,0 2,0 4,0 2,0 3,0 4,0 1,1 2,1 3,1 1,1 1,1 1,1 1,1 1,1 1,2l0 15c3,-4 5,-7 8,-10 2,-3 5,-5 7,-6 2,-2 4,-3 7,-4 2,0 4,0 6,0 1,0 3,0 4,0 1,0 2,0 4,0 1,1 3,1 4,1 1,1 2,1 2,2 1,0 1,0 1,1 0,0 0,1 0,1 0,1 1,1 1,2 0,2 0,3 0,5zm87 90c0,2 0,4 -1,6 0,1 0,2 -1,2 -1,1 -2,2 -3,2 -1,1 -2,1 -4,2 -2,0 -3,0 -5,0 -2,1 -4,1 -5,1 -6,0 -11,-1 -14,-2 -4,-2 -7,-4 -10,-7 -2,-3 -4,-6 -5,-11 -2,-4 -2,-10 -2,-16l0 -61 -15 0c-1,0 -2,-1 -3,-2 0,-1 -1,-3 -1,-6 0,-1 0,-3 1,-4 0,-1 0,-2 0,-2 1,-1 1,-1 2,-2 0,0 1,0 1,0l15 0 0 -25c0,-1 0,-1 0,-1 1,-1 1,-1 2,-2 1,0 2,0 3,0 1,-1 3,-1 5,-1 2,0 3,0 4,1 2,0 3,0 3,0 1,1 1,1 2,2 0,0 0,0 0,1l0 25 27 0c1,0 1,0 2,0 0,1 1,1 1,2 0,0 0,1 1,2 0,1 0,3 0,4 0,3 0,5 -1,6 -1,1 -2,2 -3,2l-27 0 0 58c0,8 1,13 3,17 3,3 6,5 12,5 2,0 3,0 5,0 1,-1 2,-1 3,-1 1,-1 2,-1 3,-1 1,-1 2,-1 2,-1 1,0 1,0 1,0 1,1 1,1 1,1 0,1 0,2 1,3 0,1 0,2 0,3zm84 11l-14 39c0,1 -2,2 -4,2 -1,1 -4,1 -8,1 -2,0 -4,0 -5,0 -1,0 -2,0 -3,-1 -1,0 -1,-1 -1,-2 0,0 0,-1 0,-3l15 -36c-1,0 -1,-1 -2,-2 -1,0 -1,-1 -1,-2l-38 -100c0,-2 -1,-3 -1,-4 0,-1 1,-2 1,-2 1,-1 2,-1 3,-1 2,-1 4,-1 6,-1 2,0 4,0 5,0 2,1 3,1 4,1 0,0 1,1 1,1 1,1 1,2 1,3l30 84 1 0 29 -85c0,-1 1,-2 1,-2 1,-1 2,-1 3,-1 2,-1 4,-1 6,-1 2,0 4,0 5,1 2,0 3,0 3,1 1,0 1,1 1,2 0,1 0,2 0,3l-38 105z"/>
  <path class="fil4" d="M2120 1393c0,0 0,0 0,0 0,0 1,0 1,0 0,0 0,0 0,0 0,0 0,0 0,0 0,0 0,0 0,0 0,0 0,0 0,0 0,0 -1,0 -1,0 0,0 0,0 0,0z"/>
  <path class="fil3" d="M1437 1306c-5,0 -9,2 -13,6 -4,4 -6,8 -6,13l0 27c0,5 2,10 6,13 4,4 8,6 13,6l19 0c5,0 9,2 14,5 5,3 8,8 9,13l19 69c1,5 4,9 6,12 3,4 5,6 8,6 3,0 5,-2 7,-6 1,-3 2,-8 2,-13l0 -103c0,-5 2,-9 6,-12 3,-4 8,-6 13,-6l12 0c5,0 10,2 13,6 4,3 6,7 6,12l0 113c0,5 -2,11 -4,17 -3,6 -6,11 -9,15l-14 13c-3,4 -7,7 -11,10 -4,2 -7,4 -8,4 -3,0 -4,1 -5,5 0,3 0,7 2,12l7 28c1,5 4,9 9,12 5,4 9,6 14,6 5,0 10,2 13,5 4,4 6,8 6,13l0 13c0,5 -2,9 -6,13 -3,4 -7,5 -12,5l-39 0c-5,0 -10,-1 -15,-5 -5,-3 -8,-8 -9,-13l-49 -180c-1,-5 -4,-10 -6,-13 -3,-4 -5,-6 -8,-6 -2,0 -4,2 -6,6 -2,3 -3,8 -3,13l0 130c0,5 2,10 6,13 4,4 8,6 13,6l5 0c5,0 10,2 14,5 3,4 5,8 5,13l0 13c0,5 -2,9 -5,13 -4,4 -9,5 -14,5l-15 0c-5,0 -11,-1 -17,-4 -6,-3 -11,-6 -15,-10l-9 -11c-4,-4 -7,-9 -10,-16 -2,-6 -3,-12 -3,-17l0 -315c0,-3 2,-5 6,-6 3,-2 8,-2 13,-2l111 0c5,0 9,-2 13,-4 3,-3 5,-6 5,-9 0,-3 2,-6 6,-9 3,-2 8,-3 13,-3l12 0c5,0 10,2 13,5 4,3 6,7 6,12 0,5 -2,11 -4,16 -3,6 -6,11 -9,15l-14 13c-3,4 -8,7 -15,10 -6,2 -11,3 -16,3l-76 0zm84 -146c0,-4 2,-7 6,-9 3,-2 8,-3 13,-3l12 0c5,0 10,1 13,4 4,4 6,8 6,13 0,5 -2,10 -4,16 -3,6 -6,10 -9,14l-14 14c-3,4 -8,7 -15,9 -6,3 -11,4 -16,4l-135 0c-5,0 -9,2 -13,5 -3,4 -5,8 -5,14l0 339c0,5 -1,11 -4,17 -2,7 -5,12 -8,16l-11 11c-3,4 -8,7 -13,10 -5,3 -10,4 -15,4 -3,0 -7,-1 -10,-5 -3,-4 -4,-8 -4,-13l0 -13c0,-5 0,-9 2,-13 2,-3 3,-5 5,-5 2,0 4,-2 6,-6 1,-3 2,-8 2,-13l0 -380c0,-5 0,-9 1,-12 1,-4 2,-6 3,-6l189 0c5,0 9,-1 13,-4 3,-2 5,-5 5,-8zm-307 447c0,-5 0,-9 2,-13 1,-3 3,-5 5,-5 2,0 4,-2 5,-6 1,-3 2,-8 2,-13l0 -201c0,-5 2,-10 5,-13 4,-4 8,-5 13,-5l13 0c5,0 9,1 13,5 4,3 5,8 5,13l0 211c0,5 -1,11 -3,17 -3,6 -6,11 -10,14l-13 14c-4,4 -8,7 -13,10 -5,2 -9,3 -12,3 -4,0 -6,-1 -9,-5 -2,-4 -3,-8 -3,-13l0 -13zm25 -342c4,-4 8,-6 14,-6 5,0 9,2 13,6l8 8c4,4 6,9 6,14 0,5 -2,9 -6,13l-8 9c-4,4 -8,6 -13,6 -6,0 -10,-2 -14,-6l-8 -9c-4,-4 -6,-8 -6,-13 0,-5 2,-10 6,-14l8 -8zm0 -101c4,-4 8,-6 14,-6 5,0 9,2 13,6l8 8c4,3 6,8 6,13 0,5 -2,9 -6,13l-8 9c-4,4 -8,6 -13,6 -6,0 -10,-2 -14,-6l-8 -9c-4,-4 -6,-8 -6,-13 0,-5 2,-10 6,-13l8 -8zm528 295c0,5 -1,11 -4,17 -2,7 -4,13 -7,18l-24 39c-2,5 -4,10 -4,16 0,7 1,12 4,17l5 6c3,5 6,9 10,12 3,3 7,5 9,5 3,0 5,2 7,5 3,4 4,8 4,13l0 13c0,5 -2,9 -6,13 -4,4 -9,5 -14,5l-11 0c-5,0 -11,-1 -16,-4 -6,-4 -10,-7 -12,-12l-5 -8c-3,-4 -6,-7 -10,-7 -3,0 -7,3 -9,7l-5 8c-2,5 -7,8 -12,12 -6,3 -11,4 -16,4l-9 0c-6,0 -10,-1 -14,-5 -3,-4 -5,-8 -5,-13l0 -13c0,-5 1,-9 2,-13 2,-3 4,-5 6,-5 3,0 7,-2 10,-5 4,-3 7,-7 10,-12l4 -7c3,-4 4,-9 4,-16 0,-6 -1,-12 -4,-16l-23 -39c-2,-5 -5,-11 -6,-17 -2,-7 -3,-13 -3,-18l0 -208c0,-6 2,-10 5,-14 4,-3 8,-5 14,-5l12 0c5,0 9,2 13,5 4,4 6,8 6,14l0 194c0,5 1,10 2,17 2,7 4,12 7,17l2 5c3,5 7,7 10,7 4,0 7,-2 10,-7l3 -5c3,-5 5,-10 7,-17 2,-7 3,-12 3,-17l0 -229c0,-5 -2,-9 -6,-13 -3,-4 -8,-6 -13,-6l-57 0c-5,0 -10,-1 -13,-5 -4,-4 -6,-8 -6,-14l0 -12c0,-5 2,-9 6,-13 3,-4 8,-5 12,-5l107 0c5,0 10,1 14,5 4,4 6,8 6,13l0 293zm13 -260c0,-5 2,-9 6,-13 3,-4 8,-6 13,-6l91 0c5,0 9,-1 13,-5 3,-3 5,-7 5,-11 0,-4 2,-8 5,-11 4,-4 8,-5 14,-5l12 0c5,0 9,1 13,4 4,4 6,7 6,12 0,4 0,8 1,11 1,3 3,5 5,5 1,0 3,2 5,5 2,4 3,9 3,14l0 12c0,5 -1,9 -3,13 -2,4 -4,5 -5,5 -2,0 -4,2 -5,6 -1,4 -1,8 -1,13l0 371c0,5 -2,9 -6,13 -4,4 -8,5 -13,5l-94 0c-6,0 -10,-1 -14,-5 -4,-4 -6,-8 -6,-13l0 -13c0,-5 2,-9 6,-13 4,-4 8,-6 14,-6l45 0c5,0 9,-2 13,-5 3,-4 5,-8 5,-13l0 -320c0,-5 -2,-10 -5,-14 -4,-3 -8,-5 -13,-5l-91 0c-5,0 -10,-2 -13,-6 -4,-3 -6,-8 -6,-13l0 -12zm55 72c5,0 9,2 13,5 4,4 6,8 6,14l0 184c0,5 1,9 3,13 3,3 6,5 10,5 4,0 8,2 11,5 3,4 4,8 4,14l0 12c0,5 -2,9 -6,13 -3,3 -8,5 -13,5l-40 0c-5,0 -10,-2 -13,-5 -4,-4 -6,-8 -6,-13l0 -233c0,-6 2,-10 6,-14 3,-3 8,-5 13,-5l12 0z"/>
  <path class="fil3" d="M450 1618c-9,0 -16,-3 -21,-8 -5,-5 -7,-12 -7,-21l0 -388c0,-12 3,-22 11,-30 7,-7 17,-11 29,-11l78 0c71,0 126,19 163,57 39,39 58,96 58,170 0,74 -19,131 -57,171 -38,40 -91,60 -160,60l-62 0 -32 0zm44 -59l41 0c50,0 87,-15 113,-43 26,-29 38,-72 38,-129 0,-112 -50,-168 -151,-168l-41 0 0 170 0 170zm450 67c-49,0 -87,-17 -115,-50 -12,-17 -10,-32 5,-43 9,-6 18,-8 28,-5 9,2 17,8 24,17 15,12 31,18 50,18 23,0 41,-7 51,-21 12,-15 18,-38 18,-71l0 -275c0,-24 12,-36 36,-36 24,0 36,12 36,36l0 123 0 159c0,44 -11,79 -32,104 -23,29 -57,44 -101,44z"/>
 </g>
</svg>
