<?xml version="1.0" encoding="UTF-8"?>
<!DOCTYPE svg PUBLIC "-//W3C//DTD SVG 1.1//EN" "http://www.w3.org/Graphics/SVG/1.1/DTD/svg11.dtd">
<!-- Creator: CorelDRAW X8 -->
<svg xmlns="http://www.w3.org/2000/svg" xml:space="preserve" width="78.9677mm" height="74.8649mm" version="1.1" style="shape-rendering:geometricPrecision; text-rendering:geometricPrecision; image-rendering:optimizeQuality; fill-rule:evenodd; clip-rule:evenodd"
viewBox="0 0 310 294"
 xmlns:xlink="http://www.w3.org/1999/xlink">
 <defs>
  <style type="text/css">
   <![CDATA[
    .fil1 {fill:none}
    .fil0 {fill:#FEFEFE}
    .fil2 {fill:#FEFEFE;fill-rule:nonzero}
   ]]>
  </style>
 </defs>
 <g id="图层_x0020_1">
  <metadata id="CorelCorpID_0Corel-Layer"/>
  <g>
   <path class="fil0" d="M235 56c-1,-7 -3,-14 -8,-21 -4,-7 -9,-12 -15,-15 -16,-8 -30,-6 -42,7 -4,4 -7,9 -9,15 -3,6 -5,12 -5,18 0,0 -1,1 -1,1 -1,0 -2,-1 -2,-1 -2,-4 -2,-7 -2,-11 0,-5 1,-10 3,-14 6,-9 5,-18 -1,-25 -5,-8 -13,-11 -22,-10 -8,1 -15,4 -22,8 -7,5 -12,9 -15,15 -8,16 -5,31 8,43 4,3 9,6 14,9 6,3 12,5 18,5 1,0 1,0 1,1 0,1 0,2 -1,2 -9,3 -17,2 -24,-2l-1 0c-9,-5 -17,-4 -25,1 -7,6 -10,13 -9,23 1,7 4,14 8,21 4,7 9,12 15,15 16,9 30,6 42,-7 4,-4 7,-9 10,-14 3,-6 5,-12 5,-18 0,-1 0,-2 1,-2 1,0 1,1 2,2 3,9 2,17 -2,24 -5,10 -5,18 1,26 6,7 13,10 22,9 8,-1 15,-4 22,-8 7,-4 12,-9 15,-15 8,-16 6,-30 -7,-42 -4,-4 -9,-7 -14,-10 -7,-3 -13,-4 -19,-5 0,0 -1,0 -1,-1 0,0 1,-1 1,-1 4,-2 8,-2 11,-2 5,0 10,1 14,3 9,5 18,5 26,-1 6,-6 9,-13 8,-23l0 0zm-26 -31c6,2 10,7 14,13 4,6 6,12 7,19 1,7 -2,13 -7,17 -6,5 -13,5 -20,1 -5,-3 -10,-4 -16,-4 -4,0 -9,1 -13,2 -3,1 -5,4 -5,7 0,4 3,6 7,6 5,0 11,2 16,5 5,2 9,5 13,8 11,10 13,22 6,36 -3,5 -7,9 -13,13 -6,4 -12,6 -19,7 -7,1 -13,-1 -18,-7 -4,-6 -4,-13 0,-20l0 1c5,-9 5,-19 2,-30 -2,-3 -4,-5 -7,-5 -4,0 -6,3 -6,7 -1,5 -2,11 -5,16 -2,5 -5,9 -8,13 -10,11 -22,13 -36,6 -5,-3 -9,-7 -13,-13 -4,-6 -6,-12 -7,-19 -1,-7 1,-13 7,-18 6,-4 12,-4 19,-1 10,6 19,6 29,3 4,-2 5,-4 5,-8 0,-3 -2,-6 -7,-6 -5,0 -10,-1 -16,-4 -4,-2 -9,-5 -13,-8 -11,-11 -13,-22 -6,-36 3,-5 7,-9 13,-13 6,-4 13,-6 20,-7 7,-1 12,1 17,7 4,6 4,12 0,20 -2,4 -4,10 -4,16 0,4 1,9 2,13 2,3 4,5 8,5 4,0 6,-2 6,-7 0,-5 2,-11 4,-16 3,-5 5,-9 8,-13 11,-11 23,-13 36,-6l0 0zm-43 56c0,-3 -2,-6 -3,-8 -3,-2 -5,-3 -8,-3 -3,0 -5,1 -8,3 -2,2 -3,5 -3,8 0,3 1,5 3,7 3,2 5,3 8,3 3,0 5,-1 7,-3l1 0c2,-2 3,-5 3,-7l0 0zm-7 -4c1,1 1,2 1,4 0,1 0,2 -1,3 -1,1 -3,2 -4,2 -1,0 -3,-1 -4,-2 -1,-1 -1,-2 -1,-3 0,-2 0,-3 1,-4 1,-1 2,-2 4,-2 1,0 3,1 4,2z" p-id="3927"/>
  </g>
  <rect class="fil1" width="310" height="294"/>
  <path class="fil0" d="M69 201c8,0 14,6 14,14 0,8 -6,14 -14,14 -8,0 -14,-6 -14,-14 0,-8 6,-14 14,-14z"/>
  <path class="fil2" d="M133 235c1,0 2,-1 2,-1 1,-1 1,-1 1,-2l0 -14c0,-1 0,-1 -1,-2 0,-1 -1,-1 -2,-1l-1 0c-1,0 -2,0 -2,-1 -1,0 -1,-1 -1,-2l0 -1c0,-1 0,-2 1,-3 0,0 1,0 2,0l1 0c1,0 2,-1 2,-1 1,-1 1,-2 1,-2l0 -13c0,-1 0,-2 -1,-3 0,0 -1,0 -2,0l-1 0c-1,0 -2,-1 -2,-1 -1,-1 -1,-1 -1,-2l0 -2c0,-1 0,-2 1,-2 0,-1 1,-1 2,-1l1 0c1,0 2,0 2,-1 1,0 1,-1 1,-2l0 -2c0,-1 1,-2 1,-2 1,-1 1,-1 2,-1l2 0c1,0 2,0 2,1 1,0 1,1 1,2l0 70c0,1 0,1 -1,2 0,1 -1,1 -2,1l-2 0c-1,0 -1,0 -2,-1 0,-1 -1,-1 -1,-2l0 -1c0,-1 0,-1 -1,-2 0,0 -1,-1 -2,-1l-1 0c-1,0 -2,0 -2,-1 -1,0 -1,-1 -1,-2l0 -1c0,-1 0,-2 1,-3 0,0 1,0 2,0l1 0zm-8 -47c0,1 0,1 -1,1 0,0 -1,1 -1,1 0,1 0,1 0,2l0 27c0,1 0,1 0,2 0,1 1,1 1,1 1,0 1,0 1,1 1,0 1,1 1,2l0 2c0,0 0,1 -1,2 0,0 0,1 -1,1 0,0 -1,0 -1,0 0,1 0,2 0,2l0 8c0,1 -1,2 -1,2 0,1 -1,2 -1,3l-2 2c-1,0 -2,1 -3,1 -1,1 -2,1 -2,1 -1,0 -2,0 -2,-1 -1,-1 -1,-1 -1,-2l0 -2c0,-1 0,-1 1,-2 0,-1 0,-1 1,-1 0,0 1,0 1,-1 1,0 1,-1 1,-2l0 -6c0,0 0,-1 -1,-2 0,0 -1,0 -1,0 -1,0 -1,-1 -1,-1 -1,-1 -1,-2 -1,-2l0 -2c0,-1 0,-2 1,-2 0,-1 0,-1 1,-1 0,0 1,0 1,-1 1,-1 1,-1 1,-2l0 -27c0,-1 0,-1 -1,-2 0,0 -1,-1 -1,-1 -1,0 -1,0 -1,-1 -1,0 -1,-1 -1,-2l0 -1c0,-1 0,-2 1,-3 0,0 0,0 1,0 0,0 1,-1 1,-1 1,-1 1,-2 1,-2l0 -3c0,-1 0,-2 1,-2 0,-1 1,-1 2,-1l2 0c0,0 1,0 2,1 0,0 1,1 1,2l0 3c0,0 0,1 0,2 0,0 1,1 1,1 1,0 1,0 1,0 1,1 1,2 1,3l0 1c0,1 0,2 -1,2zm37 1c-1,0 -2,0 -2,0 -1,1 -1,2 -1,3l0 12c0,1 0,2 1,2 0,1 1,1 2,1l1 0c1,0 2,1 2,1 1,1 1,1 1,2l0 2c0,1 0,1 -1,2 0,1 -1,1 -2,1l-1 0c-1,0 -2,0 -2,1 -1,0 -1,1 -1,2l0 14c0,1 0,1 1,2 0,0 1,1 2,1l1 0c1,0 2,0 2,0 1,1 1,2 1,3l0 1c0,1 0,2 -1,2 0,1 -1,1 -2,1l-1 0c-1,0 -2,1 -2,1 -1,1 -1,1 -1,2l0 1c0,1 -1,1 -1,2 -1,1 -1,1 -2,1l-2 0c-1,0 -2,0 -2,-1 -1,-1 -1,-1 -1,-2l0 -70c0,-1 0,-2 1,-2 0,-1 1,-1 2,-1l2 0c1,0 1,0 2,1 0,0 1,1 1,2l0 2c0,1 0,2 1,2 0,1 1,1 2,1l1 0c1,0 2,0 2,1 1,0 1,1 1,2l0 2c0,1 0,1 -1,2 0,0 -1,1 -2,1l-1 0zm20 -13c0,-1 0,-2 1,-2 0,-1 1,-1 2,-1l42 0c1,0 2,0 2,1 1,0 1,1 1,2l0 62c0,1 0,2 1,2 0,1 0,1 1,1 0,0 1,0 1,1 1,1 1,1 1,2l0 2c0,1 0,1 -1,2 0,1 -1,1 -2,1l-6 0c-1,0 -1,0 -2,-1 0,-1 -1,-1 -1,-2l0 -63c0,0 0,-1 -1,-2 0,0 -1,-1 -2,-1l-27 0c0,0 -1,1 -2,1 0,1 -1,2 -1,2l0 63c0,1 0,1 0,2 -1,1 -2,1 -2,1l-6 0c-1,0 -1,0 -2,-1 0,-1 0,-1 0,-2l0 -2c0,-1 0,-1 0,-2 0,-1 1,-1 1,-1 1,0 1,0 1,-1 1,0 1,-1 1,-2l0 -62zm12 57c0,0 0,0 1,0 0,-1 1,-2 1,-2l5 -16c1,-1 1,-2 1,-3 0,-1 0,-2 -1,-2l-4 -14c0,-1 -1,-1 -1,-2 -1,0 -1,0 -2,0 0,0 -1,-1 -1,-1 -1,-1 -1,-2 -1,-2l0 -2c0,-1 1,-2 1,-2 1,-1 1,-1 2,-1l3 0c1,0 2,0 2,1 1,0 2,1 2,2l3 10c0,0 1,1 1,1 1,0 1,-1 1,-1l4 -10c0,-1 0,-2 1,-2 1,-1 2,-1 3,-1l2 0c0,0 1,0 2,1 0,0 1,1 1,2l0 2c0,0 -1,1 -1,2 0,0 -1,1 -1,1 0,0 -1,0 -1,0 -1,1 -1,1 -1,2l-5 14c0,0 -1,1 -1,3 0,1 0,2 1,2l5 16c0,0 1,1 1,2 0,0 1,0 1,0 1,0 1,1 1,1 0,1 1,2 1,2l0 2c0,1 -1,2 -1,2 -1,1 -2,1 -2,1l-2 0c-1,0 -2,0 -3,-1 0,0 -1,-1 -1,-2l-4 -12c0,0 -1,-1 -1,-1 0,0 -1,1 -1,1l-4 12c0,1 -1,2 -2,2 0,1 -1,1 -2,1l-2 0c-1,0 -1,0 -2,-1 0,0 -1,-1 -1,-2l0 -2c0,0 0,-1 1,-2 0,0 0,-1 1,-1z"/>
  <path class="fil2" d="M126 291c0,0 0,0 0,0 0,0 0,1 -1,1 0,0 0,0 0,0 0,0 0,0 0,0l-13 0c0,0 0,0 -1,0 0,-1 0,-1 0,-1l0 -24c0,-1 0,-1 0,-1 1,0 1,0 1,0l13 0c0,0 0,0 0,0 0,0 0,0 0,0 0,0 0,0 0,0 0,1 0,1 0,1 0,0 0,1 0,1 0,0 0,0 0,0 0,0 0,0 0,0 0,0 0,1 0,1l-11 0 0 8 9 0c0,0 1,0 1,0 0,0 0,0 0,0 0,0 0,0 0,1 0,0 0,0 0,0 0,1 0,1 0,1 0,0 0,0 0,0 0,0 0,1 0,1 0,0 -1,0 -1,0l-9 0 0 9 11 0c0,0 0,0 0,0 0,0 0,0 0,0 1,1 1,1 1,1 0,0 0,0 0,1zm21 0c0,0 0,0 0,1 0,0 0,0 0,0 0,0 -1,0 -1,0 0,0 0,0 -1,0 0,0 -1,0 -1,0 0,0 0,0 0,0 -1,0 -1,0 -1,0 0,0 0,0 0,0l-4 -8 -5 8c0,0 0,0 0,0 0,0 0,0 0,0 0,0 -1,0 -1,0 0,0 0,0 -1,0 0,0 0,0 -1,0 0,0 0,0 0,0 0,0 0,0 0,0 0,-1 0,-1 0,-1l5 -9 -5 -8c0,-1 0,-1 0,-1 0,0 0,0 0,0 0,0 0,0 1,0 0,0 0,-1 1,-1 0,0 0,0 1,1 0,0 0,0 0,0 0,0 0,0 1,0 0,0 0,0 0,0l4 7 4 -7c0,0 0,0 0,0 0,0 0,0 1,0 0,0 0,0 0,0 0,-1 1,-1 1,-1 0,0 1,1 1,1 0,0 0,0 0,0 1,0 1,0 1,0 0,0 0,0 -1,1l-5 8 6 9zm22 0c0,1 0,1 0,1 -1,0 -1,0 -1,0 0,0 0,0 0,0 0,0 -1,0 -1,0 0,0 -1,0 -1,0 0,0 0,0 0,0 -1,0 -1,0 -1,0 0,0 0,0 0,-1l0 -10c0,-1 0,-2 0,-3 0,0 0,-1 -1,-1 0,-1 0,-1 -1,-2 0,0 -1,0 -2,0 0,0 -1,0 -2,1 -1,1 -2,1 -3,3l0 12c0,1 0,1 0,1 0,0 0,0 0,0 0,0 0,0 -1,0 0,0 0,0 0,0 -1,0 -1,0 -1,0 -1,0 -1,0 -1,0 0,0 0,0 0,0 0,0 0,0 0,-1l0 -27c0,0 0,0 0,0 0,0 0,0 0,0 0,0 0,0 1,0 0,0 0,0 1,0 0,0 0,0 0,0 1,0 1,0 1,0 0,0 0,0 0,0 0,0 0,0 0,0l0 11c1,-1 2,-2 3,-2 1,-1 2,-1 3,-1 1,0 2,0 3,1 1,0 2,1 2,1 1,1 1,2 1,3 1,1 1,2 1,3l0 11zm22 1c0,0 -1,0 -1,0 0,0 0,0 0,0 0,0 -1,0 -1,0 0,0 -1,0 -1,0 0,0 0,0 0,0 0,0 0,0 0,0l0 -2c-1,1 -2,1 -3,2 -1,0 -2,0 -3,0 -1,0 -2,0 -3,0 -1,0 -1,-1 -2,-1 0,-1 -1,-1 -1,-2 0,-1 -1,-1 -1,-2 0,-1 1,-2 1,-3 0,-1 1,-1 2,-2 1,0 2,-1 3,-1 1,0 2,0 4,0l2 0 0 -2c0,0 0,-1 0,-2 0,0 0,-1 -1,-1 0,0 -1,-1 -1,-1 -1,0 -1,0 -2,0 -1,0 -2,0 -2,0 -1,0 -2,1 -2,1 0,0 -1,0 -1,1 -1,0 -1,0 -1,0 0,0 0,0 0,0 0,0 0,0 0,0 -1,-1 -1,-1 -1,-1 0,0 0,0 0,0 0,-1 0,-1 0,-1 0,0 1,-1 1,-1 0,0 0,0 1,0 0,-1 1,-1 1,-1 1,0 1,0 2,-1 1,0 2,0 2,0 2,0 3,0 4,1 1,0 1,0 2,1 0,1 1,1 1,2 0,1 1,2 1,3l0 13zm-4 -9l-3 0c-1,0 -1,0 -2,0 -1,0 -1,1 -2,1 0,0 -1,1 -1,1 0,1 0,1 0,2 0,1 0,1 1,2 0,0 1,1 2,1 1,0 2,0 3,-1 1,0 1,-1 2,-2l0 -4zm27 8c0,1 0,1 0,1 0,0 0,0 0,0 0,0 0,0 -1,0 0,0 0,0 0,0 -1,0 -1,0 -1,0 0,0 0,0 0,0 -1,0 -1,0 -1,0 0,0 0,0 0,-1l0 -2c-1,1 -2,2 -3,3 -1,0 -2,0 -3,0 -1,0 -2,0 -3,0 -1,-1 -2,-1 -2,-2 -1,-1 -1,-1 -1,-2 0,-1 -1,-2 -1,-4l0 -11c0,0 0,0 1,0 0,0 0,0 0,0 0,0 0,0 0,0 1,-1 1,-1 1,-1 0,0 1,0 1,1 0,0 0,0 0,0 1,0 1,0 1,0 0,0 0,0 0,0l0 11c0,1 0,2 0,2 0,1 0,2 1,2 0,1 1,1 1,1 0,0 1,0 2,0 1,0 1,0 2,0 1,-1 2,-2 3,-3l0 -13c0,0 0,0 0,0 0,0 0,0 0,0 0,0 1,0 1,0 0,-1 0,-1 1,-1 0,0 0,0 0,1 1,0 1,0 1,0 0,0 0,0 0,0 0,0 0,0 0,0l0 18zm20 -5c0,1 0,2 -1,3 0,1 0,1 -1,2 -1,0 -1,1 -2,1 -1,0 -2,0 -3,0 -1,0 -2,0 -2,0 -1,0 -1,0 -2,0 0,0 -1,0 -1,-1 0,0 0,0 -1,0 0,0 0,0 0,-1 0,0 0,0 0,-1 0,0 0,0 0,0 0,0 0,-1 0,-1 0,0 0,0 0,0 0,0 0,0 1,0 0,0 0,0 0,0 0,0 1,1 1,1 1,0 1,0 2,0 0,1 1,1 2,1 0,0 1,0 1,0 1,-1 1,-1 2,-1 0,0 0,-1 0,-1 1,0 1,-1 1,-1 0,-1 -1,-1 -1,-2 0,0 0,0 -1,0 0,-1 -1,-1 -1,-1 -1,0 -1,-1 -2,-1 -1,0 -1,0 -2,-1 0,0 -1,0 -1,-1 -1,0 -1,-1 -1,-1 0,-1 -1,-2 -1,-2 0,-1 1,-2 1,-2 0,-1 1,-2 1,-2 1,-1 1,-1 2,-1 1,-1 2,-1 3,-1 1,0 1,0 2,0 0,0 1,1 1,1 0,0 1,0 1,0 0,0 0,0 1,0 0,1 0,1 0,1 0,0 0,0 0,0 0,0 0,0 0,0 0,1 0,1 0,1 0,0 0,0 0,1 0,0 0,0 0,0 0,0 0,0 0,0 0,0 0,0 0,0 -1,0 -1,0 -1,0 0,0 -1,0 -1,0 0,-1 -1,-1 -1,-1 -1,0 -1,0 -2,0 -1,0 -1,0 -1,0 -1,0 -1,0 -2,1 0,0 0,0 0,0 0,1 0,1 0,1 0,1 0,1 0,2 0,0 1,0 1,1 1,0 1,0 2,0 0,1 1,1 1,1 1,0 1,1 2,1 1,0 1,1 2,1 0,0 0,1 1,1 0,1 0,2 0,2zm16 4c0,1 0,1 0,1 0,0 -1,0 -1,1 0,0 0,0 0,0 0,0 -1,0 -1,0 0,0 0,0 -1,0 0,0 0,0 -1,0 -1,0 -1,0 -2,0 -1,0 -1,-1 -2,-1 0,-1 -1,-1 -1,-2 0,-1 0,-2 0,-3l0 -11 -3 0c0,0 0,0 0,0 0,0 0,0 0,-1 0,0 0,0 0,-1 0,0 0,0 0,0 0,0 0,0 0,0 0,0 0,0 0,0l3 0 0 -5c0,0 0,0 0,0 0,0 0,0 0,0 0,0 1,0 1,0 0,0 0,0 1,0 0,0 0,0 0,0 1,0 1,0 1,0 0,0 0,0 0,0 0,0 0,0 0,0l0 5 5 0c0,0 0,0 0,0 0,0 0,0 1,0 0,0 0,0 0,0 0,1 0,1 0,1 0,1 0,1 0,1 -1,0 -1,0 -1,0l-5 0 0 11c0,1 1,2 1,2 0,1 1,1 2,1 0,0 0,0 1,0 0,0 0,0 0,0 1,0 1,0 1,0 0,0 0,0 0,0 0,0 0,0 0,0 0,0 1,0 1,0 0,0 0,0 0,1 0,0 0,0 0,0z"/>
 </g>
</svg>
