<?xml version="1.0" encoding="UTF-8"?>
<!DOCTYPE svg PUBLIC "-//W3C//DTD SVG 1.1//EN" "http://www.w3.org/Graphics/SVG/1.1/DTD/svg11.dtd">
<!-- Creator: CorelDRAW X8 -->
<svg xmlns="http://www.w3.org/2000/svg" xml:space="preserve" width="79.0689mm" height="77.1094mm" version="1.1" style="shape-rendering:geometricPrecision; text-rendering:geometricPrecision; image-rendering:optimizeQuality; fill-rule:evenodd; clip-rule:evenodd"
viewBox="0 0 249 243"
 xmlns:xlink="http://www.w3.org/1999/xlink">
 <defs>
  <style type="text/css">
   <![CDATA[
    .str0 {stroke:white;stroke-width:0.315019;stroke-linecap:round;stroke-linejoin:round}
    .fil1 {fill:none}
    .fil0 {fill:#FEFEFE}
    .fil3 {fill:#332C2B}
    .fil2 {fill:#FEFEFE;fill-rule:nonzero}
   ]]>
  </style>
 </defs>
 <g id="图层_x0020_1">
  <metadata id="CorelCorpID_0Corel-Layer"/>
  <g>
   <path class="fil0" d="M88 20l0 0 0 0zm153 94c0,0 -6,5 -20,5 -11,0 -16,-4 -22,-7 -6,-4 -14,-8 -28,-8 -24,0 -36,15 -37,16 -1,1 0,3 1,4 1,1 3,1 4,-1 1,0 11,-13 32,-13 13,0 19,4 25,7 6,4 13,8 25,8 16,0 23,-6 24,-6 1,-1 1,-3 0,-4 0,-1 -2,-2 -4,-1zm-44 -64c7,6 11,14 11,24 0,8 -3,16 -9,22 -1,1 -1,3 0,4 1,0 1,1 2,1 1,0 2,-1 2,-1 7,-7 11,-16 11,-26 0,-9 -3,-17 -9,-24 -6,-7 -16,-12 -27,-12 -1,0 -3,0 -5,1 -3,-12 -9,-22 -18,-29 -9,-6 -19,-10 -30,-10 -10,0 -20,3 -28,9 -2,1 -2,3 -1,4 1,1 3,2 4,1 7,-5 16,-8 25,-8l0 0c11,0 22,4 30,12 6,6 11,15 13,25 0,0 0,1 1,2 1,0 2,0 2,0 3,-1 5,-1 7,-1 7,0 14,3 19,6zm-60 25c0,0 0,0 0,0 1,1 2,1 3,1 1,0 2,0 2,0 11,0 20,6 23,16 1,2 2,2 4,2 2,-1 2,-2 2,-4 -2,-6 -7,-12 -12,-15l0 0 0 0c-5,-3 -10,-5 -16,-5l0 -1c0,-27 -23,-49 -50,-49 -2,0 -3,0 -5,0l0 0c-21,3 -38,18 -43,39 -2,-1 -4,-1 -5,-1 -13,0 -24,7 -31,17l0 0 0 0c-3,5 -5,12 -5,19 0,19 16,36 36,36l0 0 48 0 33 0c0,0 0,0 0,0 2,0 3,-2 3,-3 0,-2 -1,-3 -3,-3l-33 0 -48 0 0 0c-17,0 -30,-14 -30,-30 0,-7 2,-14 7,-19l0 0 0 0c5,-7 13,-11 23,-11 2,0 4,0 7,1l0 0c1,0 1,0 2,-1 1,0 1,-1 1,-2 4,-19 19,-33 38,-36 2,0 3,0 5,0l0 0c24,0 44,19 44,43 0,1 0,3 0,4 0,0 0,1 0,2l0 0z"/>
   <path id="1" class="fil1 str0" d="M88 20l0 0m153 94c0,0 -6,5 -20,5 -11,0 -16,-4 -22,-7 -6,-4 -14,-8 -28,-8 -24,0 -36,15 -37,16 -1,1 0,3 1,4 1,1 3,1 4,-1 1,0 11,-13 32,-13 13,0 19,4 25,7 6,4 13,8 25,8 16,0 23,-6 24,-6 1,-1 1,-3 0,-4 0,-1 -2,-2 -4,-1zm-44 -64c7,6 11,14 11,24 0,8 -3,16 -9,22 -1,1 -1,3 0,4 1,0 1,1 2,1 1,0 2,-1 2,-1 7,-7 11,-16 11,-26 0,-9 -3,-17 -9,-24 -6,-7 -16,-12 -27,-12 -1,0 -3,0 -5,1 -3,-12 -9,-22 -18,-29 -9,-6 -19,-10 -30,-10 -10,0 -20,3 -28,9 -2,1 -2,3 -1,4 1,1 3,2 4,1 7,-5 16,-8 25,-8l0 0c11,0 22,4 30,12 6,6 11,15 13,25 0,0 0,1 1,2 1,0 2,0 2,0 3,-1 5,-1 7,-1 7,0 14,3 19,6zm-60 25c0,0 0,0 0,0 1,1 2,1 3,1 1,0 2,0 2,0 11,0 20,6 23,16 1,2 2,2 4,2 2,-1 2,-2 2,-4 -2,-6 -7,-12 -12,-15l0 0 0 0c-5,-3 -10,-5 -16,-5l0 -1c0,-27 -23,-49 -50,-49 -2,0 -3,0 -5,0l0 0c-21,3 -38,18 -43,39 -2,-1 -4,-1 -5,-1 -13,0 -24,7 -31,17l0 0 0 0c-3,5 -5,12 -5,19 0,19 16,36 36,36l0 0 48 0 33 0c0,0 0,0 0,0 2,0 3,-2 3,-3 0,-2 -1,-3 -3,-3l-33 0 -48 0 0 0c-17,0 -30,-14 -30,-30 0,-7 2,-14 7,-19l0 0 0 0c5,-7 13,-11 23,-11 2,0 4,0 7,1l0 0c1,0 1,0 2,-1 1,0 1,-1 1,-2 4,-19 19,-33 38,-36 2,0 3,0 5,0l0 0c24,0 44,19 44,43 0,1 0,3 0,4 0,0 0,1 0,2l0 0z"/>
  </g>
  <rect class="fil1" width="249" height="210"/>
  <rect class="fil1" width="249" height="236"/>
  <path class="fil2" d="M81 143c0,-1 1,-1 1,-2 1,0 1,0 2,0l39 0c1,0 2,0 2,0 0,1 1,1 1,2l0 1c0,1 -1,1 -1,2 0,0 -1,0 -2,0l-14 0c-1,0 -2,0 -2,0 0,1 -1,1 -1,1 0,0 1,1 1,1 0,0 1,0 2,0l14 0c1,0 2,0 2,1 0,0 1,1 1,2l0 10c0,0 -1,1 -1,1 0,1 -1,1 -2,1l-1 0c-1,0 -1,0 -2,0 0,0 0,0 0,0l0 -8c0,0 -1,-1 -1,-1 -1,-1 -1,-1 -2,-1l-8 0c-1,0 -2,0 -2,1 0,0 -1,1 -1,1l0 6c0,1 0,2 0,2 -1,0 -1,1 -2,1l-2 0c0,0 -1,-1 -1,-1 -1,0 -1,-1 -1,-2l0 -6c0,0 0,-1 -1,-1 0,-1 -1,-1 -1,-1l-8 0c-1,0 -1,0 -2,1 0,0 0,1 0,1l0 6c0,0 -1,1 -1,1 -1,1 -1,1 -2,1l-1 0c-1,0 -1,0 -2,-1 0,0 -1,-1 -1,-1l0 -10c0,-1 1,-2 1,-2 1,-1 1,-1 2,-1l14 0c1,0 1,0 1,0 1,0 1,-1 1,-1 0,0 0,0 -1,-1 0,0 0,0 -1,0l-14 0c-1,0 -1,0 -2,0 0,-1 -1,-1 -1,-2l0 -1zm45 29c0,1 0,2 -1,2 0,1 -1,1 -1,1l-9 3c-1,0 -1,0 -1,0 0,0 0,0 1,1 0,0 1,0 2,0 1,0 1,0 2,0l4 0c1,0 2,0 2,1 0,0 1,1 1,1l0 1c0,0 -1,1 -1,1 0,1 -1,1 -2,1l-5 0c-1,0 -1,0 -2,0 -1,0 -2,0 -3,-1l-8 -2c-1,0 -1,0 -2,0 -1,0 -2,0 -2,0l-9 2c0,1 -1,1 -2,1 -1,0 -2,0 -2,0l-4 0c-1,0 -1,0 -2,-1 0,0 -1,-1 -1,-1l0 -1c0,0 1,-1 1,-1 1,-1 1,-1 2,-1l3 0c1,0 2,0 2,0 1,0 2,0 2,0 1,-1 1,-1 1,-1 -1,0 -1,0 -2,0l-1 -1c-1,0 -2,0 -3,0 -1,0 -1,-1 -2,-1l0 0c-1,0 -1,0 -2,0 0,-1 -1,-1 -1,-2l0 0c0,-1 1,-1 1,-2 1,0 1,0 2,0l1 0c0,0 1,0 2,0 1,0 2,0 2,0l11 3c1,0 1,0 2,0 1,0 2,0 3,0l13 -4c1,0 1,0 2,0 0,-1 0,-1 0,-1 0,0 0,0 -1,0l-30 0c-1,0 -2,0 -3,0 0,-1 -1,-1 -2,-1l-1 -1c0,0 -1,-1 -1,-1 0,-1 -1,-1 -1,-2 0,0 1,0 1,-1 1,0 1,0 2,0l1 0c1,0 1,0 2,0 0,0 1,0 1,0 0,1 0,1 0,1 1,0 1,0 2,0l34 0c1,0 1,0 1,1 1,0 1,1 1,1l0 5zm-9 24c1,0 1,0 2,-1 0,0 1,-1 1,-1 0,-1 -1,-1 -1,-2 -1,0 -1,-1 -2,-1l-18 0c-1,0 -2,1 -2,1 -1,1 -1,1 -1,2l0 1c0,1 0,1 0,2 -1,1 -1,1 -2,2l-1 1c0,1 -1,1 -2,1 -1,1 -1,1 -2,1l-5 0c-1,0 -1,-1 -2,-1 0,0 -1,-1 -1,-2l0 -1c0,0 1,-1 1,-1 1,-1 1,-1 2,-1l4 0c0,0 1,0 1,-1 1,0 1,-1 1,-1 0,-1 0,-1 -1,-2 0,0 -1,-1 -1,-1l-4 0c-1,0 -1,0 -2,0 0,-1 -1,-1 -1,-2l0 0c0,-1 1,-1 1,-2 1,0 1,0 2,0l4 0c0,0 1,0 1,-1 1,0 1,0 1,0 0,0 0,-1 1,-1 0,0 1,0 1,0l2 0c0,0 1,0 2,0 0,0 0,1 0,1 0,0 0,0 1,0 0,1 1,1 2,1l24 0c1,0 2,0 2,0 0,0 1,0 1,0l0 8c0,1 0,1 -1,2 0,1 -1,1 -1,2l-1 1c-1,1 -2,1 -2,1 -1,1 -2,1 -2,1l-15 0c0,0 -1,-1 -1,-1 -1,0 -1,-1 -1,-2l0 -1c0,0 0,-1 1,-1 0,-1 1,-1 1,-1l13 0zm0 -40c0,1 0,1 0,1 -1,1 -1,1 -2,1l-4 0c-1,0 -1,0 -2,-1 0,0 0,0 0,-1 0,0 0,-1 0,-1 1,-1 1,-1 2,-1l4 0c1,0 1,0 2,1 0,0 0,1 0,1zm-8 6c0,0 0,0 0,-1 0,0 0,-1 0,-1 1,-1 1,-1 2,-1l4 0c1,0 1,0 2,1 0,0 0,1 0,1 0,1 0,1 0,1 -1,1 -1,1 -2,1l-4 0c-1,0 -1,0 -2,-1zm-11 -6c0,1 0,1 -1,1 0,1 -1,1 -1,1l-4 0c-1,0 -1,0 -2,-1 0,0 0,0 0,-1 0,0 0,-1 0,-1 1,-1 1,-1 2,-1l4 0c0,0 1,0 1,1 1,0 1,1 1,1zm-8 6c0,0 0,0 0,-1 0,0 0,-1 0,-1 1,-1 1,-1 2,-1l4 0c0,0 1,0 1,1 1,0 1,1 1,1 0,1 0,1 -1,1 0,1 -1,1 -1,1l-4 0c-1,0 -1,0 -2,-1zm88 40c-1,0 -1,0 -2,-1 -1,0 -1,-1 -2,-1l-1 -2c-1,0 -1,-1 -2,-1 0,-1 0,-2 0,-3l0 -45c0,0 0,-1 -1,-1 0,-1 -1,-1 -1,-1l-4 0c0,0 -1,0 -1,1 -1,0 -1,1 -1,1l0 45c0,1 0,2 0,3 -1,0 -1,1 -2,1l-1 2c-1,0 -1,1 -2,1 -1,1 -1,1 -2,1 -1,0 -1,-1 -2,-1 0,-1 0,-1 0,-2l0 -1c0,-1 0,-1 0,-2 1,0 1,-1 1,-1 1,0 1,0 1,0 1,-1 1,-1 1,-2l0 -50c0,-1 0,-1 1,-2 0,0 1,0 1,0l16 0c0,0 1,0 1,0 1,1 1,1 1,2l0 50c0,1 0,1 0,2 1,0 1,0 2,0 0,0 0,1 1,1 0,1 0,1 0,2l0 1c0,1 0,1 0,2 -1,0 -1,1 -2,1zm-36 -47c1,0 2,0 2,0 0,-1 1,-1 1,-2l0 0c0,-1 -1,-2 -1,-2 0,-1 -1,-1 -2,-1l-4 0c-1,0 -1,0 -2,0 0,-1 0,-1 0,-2l0 -2c0,0 0,-1 0,-1 1,-1 1,-1 2,-1l4 0c1,0 2,0 2,0 0,-1 1,-1 1,-2 0,0 0,0 0,-1 1,0 1,0 2,0l2 0c0,0 1,0 1,0 1,1 1,1 1,1 0,1 0,1 0,2 0,0 1,0 1,0 0,0 1,0 1,1 0,0 0,1 0,1l0 2c0,1 0,1 0,2 0,0 -1,0 -1,0 0,0 -1,0 -1,1 0,0 0,1 0,2l0 0c0,1 0,1 0,2 0,0 1,0 1,0 0,0 1,1 1,1 0,1 0,1 0,2l0 1c0,0 0,1 0,1 0,1 -1,1 -1,1 0,0 -1,0 -1,1 0,0 0,1 0,1l0 36c0,1 0,1 -1,2 0,0 -1,1 -1,1l-2 0c-1,0 -1,-1 -2,-1 0,-1 0,-1 0,-2l0 -36c0,0 0,-1 -1,-1 0,-1 0,-1 -1,-1 0,0 -1,0 -1,1 0,0 0,1 0,1l0 36c0,1 -1,1 -1,2 0,0 -1,1 -2,1l-1 0c0,0 -1,-1 -1,-1 -1,-1 -1,-1 -1,-2l0 -41c0,-1 0,-1 1,-2 0,0 1,-1 1,-1l4 0z"/>
  <path class="fil3" d="M48 161c6,0 11,5 11,12 0,6 -5,11 -11,11 -6,0 -11,-5 -11,-11 0,-7 5,-12 11,-12z"/>
  <path class="fil2" d="M95 211c0,0 0,0 0,0 0,1 0,1 0,1 0,0 0,0 0,0 0,0 0,0 0,0l-10 0 0 9 9 0c0,0 0,0 0,0 0,0 0,0 1,0 0,0 0,1 0,1 0,0 0,0 0,1 0,0 0,0 0,0 0,0 0,1 0,1 -1,0 -1,0 -1,0 0,0 0,0 0,0l-9 0 0 11c0,0 0,0 0,0 0,0 0,0 0,0 -1,0 -1,1 -1,1 0,0 0,0 -1,0 0,0 0,0 -1,0 0,0 0,-1 0,-1 0,0 0,0 -1,0 0,0 0,0 0,0l0 -24c0,-1 1,-1 1,-2 0,0 0,0 1,0l12 0c0,0 0,0 0,0 0,0 0,0 0,0 0,1 0,1 0,1 0,0 0,0 0,1zm24 15c0,1 -1,2 -1,4 0,1 -1,2 -2,3 -1,1 -2,2 -3,2 -1,1 -2,1 -4,1 -1,0 -3,0 -4,-1 -1,0 -2,-1 -3,-2 0,-1 -1,-2 -1,-3 -1,-1 -1,-2 -1,-4 0,-2 0,-3 1,-4 0,-1 1,-2 2,-3 0,-1 1,-2 2,-3 2,0 3,0 5,0 1,0 2,0 3,0 2,1 3,2 3,2 1,1 2,2 2,3 0,2 1,3 1,5zm-4 0c0,-1 0,-2 0,-3 0,-1 -1,-2 -1,-2 -1,-1 -1,-2 -2,-2 -1,0 -2,0 -3,0 -1,0 -1,0 -2,0 -1,0 -1,1 -2,2 0,0 -1,1 -1,2 0,1 0,2 0,3 0,1 0,2 0,3 0,0 0,1 1,2 0,1 1,1 2,1 0,1 1,1 2,1 1,0 2,0 3,0 1,-1 1,-1 2,-2 0,-1 0,-1 1,-2 0,-1 0,-2 0,-3zm26 -8c0,0 0,0 -1,1 0,0 0,0 0,0l-3 0c1,0 1,1 1,1 1,1 1,2 1,2 0,1 -1,2 -1,3 0,1 -1,2 -1,2 -1,1 -2,1 -3,1 0,1 -1,1 -2,1 -1,0 -2,0 -3,0 0,-1 -1,-1 -1,-1 0,0 -1,0 -1,1 0,0 0,0 0,1 0,0 0,1 1,1 0,0 1,0 1,0l5 1c1,0 2,0 3,0 0,0 1,1 2,1 0,0 1,1 1,2 0,0 0,1 0,2 0,0 0,1 0,2 0,1 -1,1 -2,2 0,1 -1,1 -2,1 -2,1 -3,1 -4,1 -2,0 -3,0 -4,0 -1,-1 -2,-1 -3,-1 0,-1 -1,-1 -1,-2 -1,-1 -1,-1 -1,-2 0,0 0,-1 0,-1 1,-1 1,-1 1,-2 0,0 0,0 1,-1 0,0 1,0 1,-1 -1,0 -1,0 -1,-1 -1,0 -1,-1 -1,-2 0,0 0,-1 1,-2 0,0 0,-1 1,-2 -1,0 -1,-1 -1,-1 0,-1 -1,-2 -1,-3 0,-1 1,-2 1,-2 0,-1 1,-2 1,-2 1,-1 2,-1 3,-2 1,0 1,0 3,0 0,0 1,0 1,0 1,0 1,0 1,0l6 0c0,0 0,0 0,0 1,1 1,1 1,2zm-6 4c0,-1 0,-2 -1,-3 0,0 -1,-1 -3,-1 0,0 -1,0 -1,1 -1,0 -1,0 -1,1 -1,0 -1,0 -1,1 0,0 0,1 0,1 0,2 0,3 1,3 0,1 1,1 3,1 0,0 1,0 1,0 1,0 1,0 1,-1 1,0 1,-1 1,-1 0,-1 0,-1 0,-2zm2 15c0,-1 0,-2 -1,-2 -1,0 -1,-1 -3,-1l-4 0c-1,0 -1,1 -1,1 -1,0 -1,1 -1,1 0,0 0,1 0,1 0,0 0,0 0,1 0,1 0,1 1,2 1,0 2,0 4,0 1,0 2,0 2,0 1,0 1,0 2,-1 0,0 1,0 1,-1 0,0 0,-1 0,-1z"/>
 </g>
</svg>
