<?xml version="1.0" encoding="UTF-8"?>
<!DOCTYPE svg PUBLIC "-//W3C//DTD SVG 1.1//EN" "http://www.w3.org/Graphics/SVG/1.1/DTD/svg11.dtd">
<!-- Creator: CorelDRAW X8 -->
<svg xmlns="http://www.w3.org/2000/svg" xml:space="preserve" width="78.9677mm" height="74.8427mm" version="1.1" style="shape-rendering:geometricPrecision; text-rendering:geometricPrecision; image-rendering:optimizeQuality; fill-rule:evenodd; clip-rule:evenodd"
viewBox="0 0 415 393"
 xmlns:xlink="http://www.w3.org/1999/xlink">
 <defs>
  <style type="text/css">
   <![CDATA[
    .fil1 {fill:none}
    .fil3 {fill:#332C2B}
    .fil2 {fill:#FEFEFE;fill-rule:nonzero}
    .fil0 {fill:#FEFEFE;fill-rule:nonzero}
   ]]>
  </style>
 </defs>
 <g id="图层_x0020_1">
  <metadata id="CorelCorpID_0Corel-Layer"/>
  <path class="fil0" d="M123 183l13 7 30 -53 -12 -7 -31 53zm12 18l-25 -15 40 -69 29 16 -40 70 -4 -2zm-6 -108l-53 30 7 13 53 -31 -7 -12zm-62 24l66 -37 17 28 -70 41 -17 -29 4 -3zm128 19l29 0 0 81 -33 0 0 -81 4 0zm19 10l-14 0 0 61 14 0 0 -61zm35 -9l30 53 12 -7 -30 -53 -12 7zm24 62l-38 -66 29 -16 40 69 -28 17 -3 -4zm5 -94l53 31 7 -13 -53 -30 -7 12zm53 41l-66 -38 17 -28 70 40 -17 29 -4 -3zm-81 -81l0 -39 12 0 0 -15 -109 0 0 15 12 0 0 39c0,5 2,10 6,13 3,4 8,6 13,6l47 0c5,0 10,-2 13,-6 3,-3 6,-8 6,-13zm9 -30l0 30c0,8 -3,15 -8,20 -5,5 -12,8 -20,8l-47 0c-8,0 -15,-3 -20,-8 -5,-5 -9,-12 -9,-20l0 -30 -12 0 0 -34 129 0 0 34 -13 0z"/>
  <rect class="fil1" width="415" height="393"/>
  <path class="fil2" d="M170 314c0,1 -1,2 -3,2 -1,1 -2,1 -3,1l-16 0c-1,0 -2,0 -3,-1 -1,-1 -1,-2 -1,-3l0 -68c0,-1 0,-2 1,-3 1,0 2,-1 3,-1l24 0c1,0 2,1 3,1 0,1 1,2 1,3l0 60c0,1 -1,2 -1,3 -1,2 -1,3 -2,4l-3 2zm47 -9c0,1 0,2 0,3 -1,2 -2,3 -2,4l-3 2c-1,1 -2,2 -3,2 -1,1 -3,1 -4,1l-26 0c0,0 0,0 0,-1 0,-1 0,-2 0,-3l0 -28c0,-1 0,-2 1,-2 1,-1 2,-2 3,-2l31 0c1,0 2,1 2,2 1,0 1,1 1,2l0 20zm-38 -37c1,-1 1,-1 2,-1 0,0 1,-1 1,-1 1,-1 1,-2 1,-3l0 -7c0,-1 0,-2 -1,-3 0,-1 -1,-1 -1,-1 -1,0 -1,-1 -2,-1 0,-1 0,-2 0,-3l0 -3c0,-1 0,-2 1,-2 0,-1 1,-2 2,-2l32 0c1,0 2,1 2,2 1,0 1,1 1,2l0 20c0,1 0,2 0,3 -1,2 -2,3 -2,4l-3 2c-1,1 -2,2 -3,2 -1,1 -3,1 -4,1l-3 0c-1,0 -2,0 -3,-1 -1,-1 -1,-2 -1,-3l0 -2c0,-1 0,-2 1,-3 1,-1 2,-1 3,-1l1 0c1,0 2,-1 3,-1 1,-1 1,-2 1,-3l0 -7c0,-1 0,-2 -1,-3 -1,-1 -2,-1 -3,-1l-6 0c-1,0 -2,0 -3,1 -1,1 -1,2 -1,3l0 9c0,1 0,2 -1,3 0,2 -1,3 -2,4l-2 2c-1,1 -2,2 -3,2 -1,1 -2,1 -3,1 -1,0 -2,0 -2,-1 -1,-1 -1,-2 -1,-3l0 -2c0,-1 0,-2 0,-3zm24 39c1,0 2,-1 3,-1 1,-1 1,-2 1,-3l0 -8c0,-1 0,-1 -1,-2 -1,-1 -2,-1 -3,-1l-10 0c-1,0 -2,0 -3,1 0,1 -1,1 -1,2l0 8c0,1 1,2 1,3 1,0 2,1 3,1l10 0zm-45 -56c-1,0 -2,1 -3,2 -1,0 -1,1 -1,2l0 16c0,1 0,2 1,3 1,0 2,1 3,1l4 0c1,0 2,-1 2,-1 1,-1 2,-2 2,-3l0 -16c0,-1 -1,-2 -2,-2 0,-1 -1,-2 -2,-2l-4 0zm4 56c1,0 2,-1 2,-1 1,-1 2,-2 2,-3l0 -14c0,-1 -1,-2 -2,-3 0,-1 -1,-1 -2,-1l-4 0c-1,0 -2,0 -3,1 -1,1 -1,2 -1,3l0 14c0,1 0,2 1,3 1,0 2,1 3,1l4 0zm13 21c0,2 0,2 1,3 0,1 1,1 1,1 1,0 2,1 2,1 0,1 1,2 1,3l0 3c0,1 -1,2 -1,2 -1,1 -2,2 -3,2 -1,0 -2,-1 -3,-1 -1,-1 -2,-1 -2,-2l-3 -3c-1,-1 -2,-2 -2,-3 -1,-1 -1,-2 -1,-3l0 -7c0,-1 0,-2 1,-3 1,-1 2,-1 3,-1l2 0c1,0 2,0 3,1 1,1 1,2 1,3l0 4zm34 -8c1,0 2,0 3,1 1,1 1,2 1,3l0 4c0,2 0,2 1,3 0,1 1,1 1,1 1,0 1,1 2,1 0,1 0,2 0,3l0 3c0,1 0,2 0,2 -1,1 -2,2 -3,2 -1,0 -2,-1 -3,-1 -1,-1 -2,-1 -3,-2l-3 -3c0,-1 -1,-2 -1,-3 -1,-1 -1,-2 -1,-3l0 -7c0,-1 0,-2 1,-3 1,-1 2,-1 3,-1l2 0zm-19 0c1,0 2,0 3,1 0,1 1,2 1,3l0 4c0,2 0,2 0,3 1,1 1,1 2,1 1,0 1,1 2,1 0,1 0,2 0,3l0 3c0,1 0,2 -1,2 0,1 -1,2 -2,2 -1,0 -2,-1 -3,-1 -1,-1 -2,-1 -3,-2l-3 -3c-1,-1 -1,-2 -2,-3 0,-1 0,-2 0,-3l0 -7c0,-1 0,-2 1,-3 0,-1 1,-1 2,-1l3 0zm-43 4c0,-1 1,-2 2,-3 0,-1 1,-1 2,-1l3 0c1,0 2,0 2,1 1,1 2,2 2,3l0 7c0,1 -1,2 -1,3 -1,1 -1,2 -2,3l-3 3c-1,1 -2,1 -3,2 -1,0 -2,1 -2,1 -1,0 -2,-1 -2,-2 -1,0 -1,-1 -1,-2l0 -3c0,-1 0,-2 0,-3 1,0 1,-1 2,-1 0,0 0,0 1,-1 0,-1 0,-1 0,-3l0 -4zm160 7c0,1 0,2 -1,3 0,1 -1,2 -2,3l-3 3c0,1 -1,1 -2,2 -2,0 -3,1 -4,1l-7 0c-1,0 -2,-1 -3,-2 -1,0 -1,-1 -1,-2l0 -3c0,-1 0,-2 1,-3 1,0 2,-1 3,-1l5 0c1,0 2,0 3,-1 0,-1 1,-1 1,-3l0 -12c0,-2 -1,-2 -1,-3 -1,-1 -2,-1 -3,-1l-9 0c-1,0 -2,0 -3,1 0,1 -1,2 -1,3l0 23c0,1 0,2 -1,2 -1,1 -2,2 -3,2l-2 0c-1,0 -2,-1 -3,-2 -1,0 -1,-1 -1,-2l0 -94c0,-1 0,-2 1,-3 1,0 2,-1 3,-1l29 0c1,0 2,1 3,1 1,1 1,2 1,3l0 86zm-10 -45c0,-1 -1,-2 -1,-3 -1,-1 -2,-1 -3,-1l-9 0c-1,0 -2,0 -3,1 0,1 -1,2 -1,3l0 12c0,1 1,2 1,2 1,1 2,1 3,1l9 0c1,0 2,0 3,-1 0,0 1,-1 1,-2l0 -12zm0 -31c0,-1 -1,-2 -1,-2 -1,-1 -2,-2 -3,-2l-9 0c-1,0 -2,1 -3,2 0,0 -1,1 -1,2l0 13c0,1 1,2 1,3 1,0 2,1 3,1l9 0c1,0 2,-1 3,-1 0,-1 1,-2 1,-3l0 -13zm-37 85c0,1 -1,1 -3,2 -1,0 -2,1 -3,1l-16 0c-1,0 -2,-1 -3,-2 -1,0 -1,-1 -1,-2l0 -94c0,-1 0,-2 1,-3 1,0 2,-1 3,-1l24 0c1,0 2,1 3,1 0,1 1,2 1,3l0 86c0,1 0,2 -1,3 -1,1 -1,2 -2,3l-3 3zm-12 -89c-1,0 -2,1 -3,2 0,0 -1,1 -1,2l0 28c0,1 1,2 1,3 1,1 2,1 3,1l4 0c1,0 2,0 2,-1 1,-1 2,-2 2,-3l0 -28c0,-1 -1,-2 -2,-2 0,-1 -1,-2 -2,-2l-4 0zm4 81c1,0 2,0 2,-1 1,-1 2,-1 2,-3l0 -27c0,-1 -1,-2 -2,-2 0,-1 -1,-1 -2,-1l-4 0c-1,0 -2,0 -3,1 0,0 -1,1 -1,2l0 27c0,2 1,2 1,3 1,1 2,1 3,1l4 0z"/>
  <path class="fil2" d="M60 390c0,0 0,1 0,1 0,0 0,0 0,1 -1,0 -1,0 -1,0 0,0 0,0 0,0l-18 0c0,0 -1,0 -1,0 0,-1 -1,-1 -1,-2l0 -36c0,0 0,-1 1,-1 0,0 0,0 0,0 0,0 0,0 1,0 0,0 1,0 1,0 1,0 1,0 1,0 1,0 1,0 1,0 0,0 0,0 0,0 1,0 1,1 1,1l0 34 14 0c0,0 0,0 0,0 0,0 0,0 1,0 0,0 0,1 0,1 0,0 0,1 0,1zm13 1c0,1 0,1 0,1 0,0 0,0 -1,0 0,0 0,0 0,0 -1,0 -1,0 -2,0 0,0 -1,0 -1,0 0,0 -1,0 -1,0 0,0 0,0 0,0 0,0 0,0 0,-1l0 -40c0,0 0,0 0,-1 0,0 0,0 0,0 0,0 1,0 1,0 0,0 1,0 1,0 1,0 1,0 2,0 0,0 0,0 0,0 1,0 1,0 1,0 0,1 0,1 0,1l0 40zm17 0c0,1 0,1 0,1 0,0 0,0 -1,0 0,0 0,0 0,0 -1,0 -1,0 -2,0 0,0 -1,0 -1,0 0,0 0,0 -1,0 0,0 0,0 0,0 0,0 0,0 0,-1l0 -40c0,0 0,0 0,-1 0,0 0,0 0,0 1,0 1,0 1,0 0,0 1,0 1,0 1,0 1,0 2,0 0,0 0,0 0,0 1,0 1,0 1,0 0,1 0,1 0,1l0 40zm35 0c0,1 0,1 0,1 0,0 0,0 0,0 0,0 -1,0 -1,0 0,0 -1,0 -1,0 0,0 -1,0 -1,0 0,0 -1,0 -1,0 0,0 0,0 0,0 0,0 0,0 0,-1l0 -3c-2,2 -3,3 -5,4 -1,0 -3,1 -4,1 -2,0 -4,-1 -5,-1 -1,-1 -2,-2 -3,-3 -1,-1 -1,-2 -2,-3 0,-2 0,-3 0,-5l0 -17c0,0 0,0 0,0 0,0 0,-1 0,-1 0,0 1,0 1,0 0,0 1,0 1,0 1,0 1,0 2,0 0,0 0,0 0,0 0,0 1,1 1,1 0,0 0,0 0,0l0 16c0,2 0,3 0,4 0,1 1,2 1,2 1,1 1,2 2,2 1,0 2,0 3,0 1,0 2,0 3,-1 2,-1 3,-2 4,-4l0 -19c0,0 0,0 0,0 0,0 1,-1 1,-1 0,0 0,0 1,0 0,0 0,0 1,0 0,0 1,0 1,0 0,0 1,0 1,0 0,0 0,1 0,1 0,0 0,0 0,0l0 27zm53 0c0,1 0,1 0,1 0,0 0,0 -1,0 0,0 0,0 0,0 -1,0 -1,0 -1,0 -1,0 -1,0 -2,0 0,0 0,0 0,0 -1,0 -1,0 -1,0 0,0 0,0 0,-1l0 -16c0,-1 0,-2 0,-3 -1,-1 -1,-2 -1,-3 -1,0 -1,-1 -2,-1 -1,-1 -1,-1 -2,-1 -2,0 -3,1 -4,1 -1,1 -2,3 -4,4l0 19c0,1 0,1 0,1 0,0 0,0 0,0 0,0 -1,0 -1,0 0,0 -1,0 -1,0 -1,0 -1,0 -1,0 -1,0 -1,0 -1,0 0,0 -1,0 -1,0 0,0 0,0 0,-1l0 -16c0,-1 0,-2 0,-3 0,-1 -1,-2 -1,-3 -1,0 -1,-1 -2,-1 0,-1 -1,-1 -2,-1 -1,0 -3,1 -4,1 -1,1 -2,3 -4,4l0 19c0,1 0,1 0,1 0,0 0,0 0,0 0,0 0,0 -1,0 0,0 -1,0 -1,0 -1,0 -1,0 -1,0 -1,0 -1,0 -1,0 0,0 0,0 0,0 -1,0 -1,0 -1,-1l0 -27c0,0 0,0 1,0 0,0 0,-1 0,-1 0,0 0,0 1,0 0,0 0,0 1,0 0,0 1,0 1,0 0,0 0,0 1,0 0,0 0,1 0,1 0,0 0,0 0,0l0 4c2,-2 3,-3 4,-4 2,-1 3,-1 5,-1 1,0 2,0 3,0 1,0 2,1 2,1 1,1 2,1 2,2 1,1 1,1 1,2 1,-1 2,-2 3,-2 1,-1 2,-2 2,-2 1,0 2,-1 2,-1 1,0 2,0 3,0 1,0 3,0 4,1 1,0 2,1 3,2 1,1 1,2 2,4 0,1 0,3 0,4l0 17zm17 0c0,1 0,1 0,1 0,0 0,0 -1,0 0,0 0,0 0,0 -1,0 -1,0 -2,0 0,0 0,0 -1,0 0,0 0,0 -1,0 0,0 0,0 0,0 0,0 0,0 0,-1l0 -27c0,0 0,0 0,0 0,0 0,-1 0,-1 1,0 1,0 1,0 1,0 1,0 1,0 1,0 1,0 2,0 0,0 0,0 0,0 1,0 1,1 1,1 0,0 0,0 0,0l0 27zm1 -36c0,1 -1,2 -1,2 -1,1 -1,1 -3,1 -1,0 -2,0 -2,-1 0,0 -1,-1 -1,-2 0,-1 1,-2 1,-2 0,-1 1,-1 2,-1 2,0 2,0 3,1 0,0 1,1 1,2zm35 36c0,1 0,1 -1,1 0,0 0,0 0,0 0,0 0,0 -1,0 0,0 0,0 -1,0 0,0 -1,0 -1,0 -1,0 -1,0 -1,0 0,0 0,0 0,0 0,0 0,0 0,-1l0 -16c0,-1 -1,-2 -1,-3 0,-1 0,-2 -1,-3 0,0 -1,-1 -2,-1 0,-1 -1,-1 -2,-1 -2,0 -3,1 -4,1 -1,1 -3,3 -4,4l0 19c0,1 0,1 0,1 0,0 0,0 0,0 -1,0 -1,0 -1,0 -1,0 -1,0 -1,0 -1,0 -1,0 -2,0 0,0 0,0 0,0 -1,0 -1,0 -1,0 0,0 0,0 0,-1l0 -27c0,0 0,0 0,0 0,0 0,-1 0,-1 1,0 1,0 1,0 0,0 1,0 1,0 1,0 1,0 1,0 1,0 1,0 1,0 0,0 0,1 0,1 1,0 1,0 1,0l0 4c1,-2 3,-3 4,-4 2,-1 3,-1 5,-1 2,0 3,0 4,1 2,0 3,1 3,2 1,1 2,2 2,4 0,1 1,3 1,5l0 16zm32 0c0,1 0,1 0,1 0,0 -1,0 -1,0 0,0 0,0 -1,0 -1,0 -1,0 -1,0 -1,0 -1,0 -1,0 0,0 0,0 0,-1l0 -2c-1,1 -3,2 -4,3 -2,0 -3,1 -5,1 -1,0 -3,0 -4,-1 -1,0 -2,-1 -3,-1 -1,-1 -1,-2 -2,-3 0,-1 0,-2 0,-4 0,-1 0,-2 1,-4 0,-1 1,-2 2,-2 1,-1 3,-2 5,-2 1,0 3,-1 5,-1l4 0 0 -2c0,-1 0,-2 0,-3 0,0 -1,-1 -1,-2 -1,0 -1,-1 -2,-1 -1,0 -2,0 -3,0 -1,0 -2,0 -3,0 -1,1 -2,1 -3,1 -1,1 -1,1 -2,1 0,0 -1,1 -1,1 0,0 0,0 0,0 -1,-1 -1,-1 -1,-1 0,0 0,0 0,0 0,-1 0,-1 0,-1 0,-1 0,-1 0,-1 0,-1 0,-1 1,-1 0,-1 0,-1 1,-1 1,-1 2,-1 2,-1 1,-1 2,-1 3,-1 1,0 2,0 3,0 2,0 4,0 5,0 2,1 3,2 4,2 1,1 1,2 2,4 0,1 0,2 0,4l0 18zm-5 -12l-4 0c-2,0 -3,0 -4,0 -1,1 -2,1 -2,1 -1,1 -1,1 -2,2 0,1 0,1 0,2 0,2 0,3 1,4 1,0 2,1 4,1 1,0 2,0 4,-1 1,-1 2,-2 3,-3l0 -6zm40 -16c1,0 1,0 2,1 0,0 0,0 0,1l0 26c0,1 0,1 0,1 0,0 0,0 -1,0 0,0 0,0 0,0 -1,0 -1,0 -2,0 0,0 0,0 -1,0 0,0 0,0 -1,0 0,0 0,0 0,0 0,0 0,0 0,-1l0 -23 -14 0 0 15c0,2 0,3 1,4 0,1 1,1 3,1 0,0 0,0 1,0 0,0 1,0 1,0 0,0 0,0 1,0 0,0 0,0 0,0 0,0 0,0 0,0 0,0 1,0 1,0 0,0 0,0 0,1 0,0 0,0 0,0 0,1 0,1 0,2 0,0 -1,0 -1,1 0,0 0,0 0,0 -1,0 -1,0 -2,0 0,0 0,1 -1,1 0,0 -1,0 -1,0 -2,0 -3,0 -4,-1 -1,0 -2,-1 -2,-2 -1,0 -2,-1 -2,-2 0,-2 0,-3 0,-5l0 -15 -4 0c0,0 -1,-1 -1,-1 0,0 0,-1 0,-2 0,0 0,0 0,-1 0,0 0,0 0,0 0,0 0,0 0,-1 1,0 1,0 1,0l4 0 0 -6c0,0 0,0 0,-1 0,0 0,0 0,0 0,0 1,0 1,0 0,0 1,0 1,0 1,0 1,0 1,0 1,0 1,0 1,0 0,0 1,0 1,0 0,1 0,1 0,1l0 6 17 0zm2 -8c0,1 0,2 0,2 -1,1 -1,1 -3,1 -1,0 -2,0 -2,-1 -1,0 -1,-1 -1,-2 0,-1 1,-2 1,-2 0,-1 1,-1 2,-1 2,0 2,0 3,1 0,0 0,1 0,2zm37 22c0,3 0,5 0,7 -1,1 -2,3 -3,4 -1,2 -3,3 -4,4 -2,0 -4,1 -7,1 -2,0 -4,-1 -5,-1 -2,-1 -3,-2 -5,-3 -1,-1 -2,-3 -2,-5 -1,-2 -1,-4 -1,-6 0,-2 0,-4 1,-6 1,-2 1,-4 3,-5 1,-1 2,-2 4,-3 2,-1 4,-1 6,-1 2,0 4,0 6,1 2,0 3,1 4,3 1,1 2,2 3,4 0,2 0,4 0,6zm-5 1c0,-2 0,-3 0,-4 -1,-2 -1,-3 -2,-4 0,-1 -1,-2 -2,-2 -1,-1 -3,-1 -4,-1 -2,0 -3,0 -4,1 -1,0 -2,1 -3,2 0,1 -1,2 -1,3 -1,2 -1,3 -1,5 0,1 0,3 1,4 0,1 0,2 1,3 1,1 2,2 3,3 1,0 2,1 4,1 1,0 2,-1 4,-1 1,-1 1,-2 2,-2 1,-1 1,-3 2,-4 0,-1 0,-3 0,-4zm39 13c0,1 0,1 0,1 0,0 0,0 0,0 -1,0 -1,0 -1,0 0,0 -1,0 -1,0 -1,0 -1,0 -2,0 0,0 0,0 0,0 -1,0 -1,0 -1,0 0,0 0,0 0,-1l0 -16c0,-1 0,-2 0,-3 0,-1 -1,-2 -1,-3 -1,0 -1,-1 -2,-1 -1,-1 -2,-1 -3,-1 -1,0 -2,1 -3,1 -2,1 -3,3 -4,4l0 19c0,1 0,1 0,1 -1,0 -1,0 -1,0 0,0 0,0 -1,0 0,0 0,0 -1,0 0,0 -1,0 -1,0 0,0 -1,0 -1,0 0,0 0,0 0,0 0,0 0,0 0,-1l0 -27c0,0 0,0 0,0 0,0 0,-1 0,-1 0,0 1,0 1,0 0,0 0,0 1,0 0,0 1,0 1,0 0,0 1,0 1,0 0,0 0,1 0,1 0,0 0,0 0,0l0 4c2,-2 3,-3 5,-4 1,-1 3,-1 4,-1 2,0 4,0 5,1 1,0 2,1 3,2 1,1 1,2 2,4 0,1 0,3 0,5l0 16z"/>
  <path class="fil3" d="M91 268c10,0 19,8 19,19 0,10 -9,19 -19,19 -11,0 -19,-9 -19,-19 0,-11 8,-19 19,-19z"/>
 </g>
</svg>
