<?xml version="1.0" encoding="UTF-8"?>
<!DOCTYPE svg PUBLIC "-//W3C//DTD SVG 1.1//EN" "http://www.w3.org/Graphics/SVG/1.1/DTD/svg11.dtd">
<!-- Creator: CorelDRAW X8 -->
<svg xmlns="http://www.w3.org/2000/svg" xml:space="preserve" width="78.9677mm" height="74.8427mm" version="1.1" style="shape-rendering:geometricPrecision; text-rendering:geometricPrecision; image-rendering:optimizeQuality; fill-rule:evenodd; clip-rule:evenodd"
viewBox="0 0 7659 7259"
 xmlns:xlink="http://www.w3.org/1999/xlink">
 <defs>
  <style type="text/css">
   <![CDATA[
    .fil1 {fill:none}
    .fil0 {fill:#FEFEFE}
    .fil2 {fill:#FEFEFE;fill-rule:nonzero}
   ]]>
  </style>
 </defs>
 <g id="图层_x0020_1">
  <metadata id="CorelCorpID_0Corel-Layer"/>
  <g id="_2789854970768">
   <path class="fil0" d="M4748 3664l-188 -61 588 -1773c25,-79 -17,-165 -96,-190 -2,-2 -6,-1 -8,-1l-1210 -325c-78,-21 -157,23 -183,100l-509 1597 -285 -91 715 -2245c23,-76 103,-118 181,-99l1806 454c81,21 129,102 110,182 -1,4 -1,6 -3,11l-786 2374c-18,55 -77,85 -132,67l0 0z" p-id="2961"/>
   <path class="fil0" d="M1990 2859c24,328 309,572 634,548 316,-23 559,-293 549,-611 -12,-327 -284,-583 -612,-571 -328,11 -583,284 -572,611l1 23 0 0zm1741 571c18,327 297,578 624,559 328,-18 578,-297 559,-624 -20,-328 -297,-578 -624,-559 -325,17 -576,296 -559,624z" p-id="2962"/>
   <path class="fil0" d="M2538 1552l-539 -1167c-34,-72 -2,-157 69,-190 4,-3 8,-3 10,-5l487 -177c63,-24 136,4 168,65l68 128c35,67 10,150 -57,185 -5,2 -11,5 -15,7l-332 131c-30,12 -43,44 -33,75 0,2 0,2 2,4l365 802c12,25 0,52 -22,64l-171 78z" p-id="2963"/>
   <path class="fil0" d="M1991 1581c12,215 194,379 409,368 214,-12 378,-194 367,-409 -11,-215 -194,-379 -409,-367 -214,11 -378,194 -367,408z" p-id="2964"/>
  </g>
  <rect class="fil1" width="7659" height="7259"/>
  <path class="fil2" d="M2721 4375l374 0c20,0 38,7 51,20 14,14 21,30 21,49l0 1730c0,19 -7,36 -21,50 -13,15 -31,22 -51,22l-374 0c-19,0 -36,-7 -49,-22 -14,-14 -21,-31 -21,-50l0 -1730c0,-19 7,-35 21,-49 13,-13 30,-20 49,-20zm1288 1799c0,19 -6,36 -20,50 -13,15 -30,22 -49,22l-651 0c-19,0 -36,-7 -50,-22 -14,-14 -22,-31 -22,-50l0 -818c0,-19 8,-36 22,-50 14,-14 31,-21 50,-21l651 0c19,0 36,7 49,21 14,14 20,31 20,50l0 818zm-720 -1799l651 0c19,0 36,7 49,20 14,14 20,30 20,49l0 688c0,20 -6,37 -20,51 -13,14 -30,20 -49,20l-651 0c-19,0 -36,-6 -50,-20 -14,-14 -22,-31 -22,-51l0 -688c0,-19 8,-35 22,-49 14,-13 31,-20 50,-20zm-383 189c-19,0 -35,7 -47,21 -12,15 -18,31 -18,50l0 1350c0,20 6,37 18,51 12,14 28,20 47,20 20,0 37,-6 51,-20 13,-14 20,-31 20,-51l0 -1350c0,-19 -7,-35 -20,-50 -14,-14 -31,-21 -51,-21zm572 910c-20,0 -37,7 -51,21 -13,15 -20,31 -20,50l0 55c0,19 7,36 20,50 14,14 31,22 51,22l271 0c20,0 37,-8 51,-22 13,-14 20,-31 20,-50l0 -55c0,-19 -7,-35 -20,-50 -14,-14 -31,-21 -51,-21l-271 0zm271 582c20,0 37,-6 51,-20 13,-14 20,-31 20,-51l0 -53c0,-20 -7,-37 -20,-51 -14,-13 -31,-20 -51,-20l-271 0c-20,0 -37,7 -51,20 -13,14 -20,31 -20,51l0 53c0,20 7,37 20,51 14,14 31,20 51,20l271 0zm-271 -1492c-20,0 -37,7 -51,19 -13,13 -20,29 -20,46 0,19 7,35 20,47 14,12 31,18 51,18l271 0c20,0 37,-6 51,-18 13,-12 20,-28 20,-47 0,-17 -7,-33 -20,-46 -14,-12 -31,-19 -51,-19l-271 0zm271 450c20,0 37,-6 51,-19 13,-12 20,-28 20,-47 0,-18 -7,-33 -20,-46 -14,-12 -31,-18 -51,-18l-271 0c-20,0 -37,6 -51,18 -13,13 -20,28 -20,46 0,19 7,35 20,47 14,13 31,19 51,19l271 0zm1232 470l0 686c0,21 -8,38 -22,51 -14,14 -32,21 -53,21l-414 0c-19,0 -36,-7 -50,-20 -14,-14 -21,-31 -21,-51l0 -46c0,-19 7,-36 21,-51 14,-14 31,-22 50,-22l246 0c19,0 36,-6 50,-20 14,-14 22,-30 22,-49l0 -498c0,-20 -8,-36 -22,-50 -14,-13 -31,-20 -50,-20l-350 0c-19,0 -35,-7 -49,-22 -13,-15 -20,-32 -20,-51l0 -45c0,-20 7,-37 20,-51 14,-13 30,-20 49,-20l350 0c19,0 36,-7 50,-22 14,-14 22,-31 22,-52l0 -517c0,-19 -8,-35 -22,-50 -14,-14 -31,-21 -50,-21l-350 0c-19,0 -35,-7 -49,-21 -13,-13 -20,-31 -20,-51l0 -47c0,-19 7,-36 20,-50 14,-13 30,-20 49,-20l576 0c19,0 36,7 49,20 14,14 20,31 20,50l0 47c0,20 -2,38 -7,51 -4,14 -10,21 -17,21 -8,0 -15,7 -20,21 -6,15 -8,31 -8,50l0 517c0,21 2,38 8,52 5,15 12,22 20,22 7,0 13,7 17,20 5,14 7,31 7,51l0 45c0,19 -2,36 -7,51 -4,15 -10,22 -17,22 -8,0 -15,7 -20,20 -6,14 -8,30 -8,49zm57 641c0,-19 3,-36 10,-51 7,-14 15,-22 26,-22 10,0 20,-6 31,-18 11,-12 19,-28 26,-47l143 -485c7,-19 12,-42 16,-70 4,-27 6,-51 6,-71l0 -445c0,-20 7,-37 20,-51 14,-13 30,-20 49,-20l13 0c19,0 35,7 48,20 14,14 21,31 21,51l0 445c0,20 2,44 6,71 4,28 9,51 14,70l116 483c6,20 13,37 24,49 10,12 19,18 27,18 11,0 20,8 28,22 7,15 11,32 11,51l0 50c0,19 -7,35 -22,50 -14,14 -31,21 -52,21l-52 0c-21,0 -39,-7 -56,-21 -17,-13 -28,-30 -32,-49l-77 -311c-4,-19 -10,-29 -18,-30 -7,0 -14,9 -21,28l-88 313c-6,19 -18,36 -35,49 -17,14 -36,21 -56,21l-55 0c-21,0 -37,-7 -51,-21 -14,-15 -20,-31 -20,-50l0 -50zm154 -1750c19,0 36,6 49,18 14,13 20,28 20,46 0,19 8,35 22,47 14,13 31,19 50,19l266 0c21,0 38,7 52,20 15,14 22,30 22,49l0 760c0,19 -7,35 -22,50 -14,14 -31,21 -52,21l-10 0c-19,0 -35,-7 -50,-21 -14,-15 -21,-31 -21,-50l0 -564c0,-21 -7,-38 -21,-51 -15,-14 -31,-21 -50,-21l-283 0c-19,0 -36,-7 -50,-21 -14,-15 -21,-32 -21,-52l0 -181c0,-19 7,-35 21,-49 14,-13 31,-20 50,-20l28 0zm-452 358l0 367c0,17 -7,32 -21,45 -15,13 -32,20 -52,20l-258 0c-21,0 -38,-7 -51,-21 -14,-13 -21,-30 -21,-51l0 -360c0,-19 7,-35 21,-49 13,-13 30,-20 51,-20l258 0c20,0 37,7 52,20 14,14 21,30 21,49zm0 1191c0,18 -7,33 -21,46 -15,13 -32,19 -52,19l-258 0c-21,0 -38,-7 -51,-20 -14,-14 -21,-30 -21,-49l0 -360c0,-21 7,-38 21,-51 13,-14 30,-21 51,-21l258 0c20,0 37,7 52,21 14,13 21,30 21,51l0 364zm-150 -1020c0,-20 -5,-37 -16,-51 -10,-13 -23,-20 -38,-20 -13,0 -24,7 -34,20 -9,14 -14,31 -14,51l0 20c0,21 5,38 14,51 10,14 21,21 34,21 15,0 28,-7 38,-21 11,-13 16,-30 16,-51l0 -20zm0 823c0,-19 -5,-36 -16,-49 -10,-14 -23,-21 -38,-21 -13,0 -24,7 -34,21 -9,13 -14,30 -14,49l0 22c0,19 5,36 14,50 10,14 21,21 34,21 15,0 28,-7 38,-21 11,-14 16,-31 16,-50l0 -22z"/>
  <path class="fil0" d="M1528 4956c195,0 354,159 354,354 0,196 -159,354 -354,354 -196,0 -354,-158 -354,-354 0,-195 158,-354 354,-354z"/>
  <path class="fil2" d="M3095 7211c0,3 -1,6 -2,8 -1,3 -4,5 -8,6 -4,2 -9,3 -15,4 -6,1 -15,1 -25,1 -13,0 -24,0 -32,-1 -8,-2 -15,-4 -19,-7 -4,-3 -7,-6 -10,-10l-269 -366 0 366c0,3 -1,5 -3,8 -1,2 -4,4 -8,5 -3,2 -8,3 -15,4 -6,1 -14,1 -23,1 -9,0 -17,0 -23,-1 -7,-1 -12,-2 -16,-4 -3,-1 -6,-3 -8,-5 -1,-3 -2,-5 -2,-8l0 -703c0,-3 1,-6 2,-8 2,-2 5,-4 8,-5 4,-2 9,-3 16,-4 6,-1 14,-1 23,-1 9,0 17,0 23,1 7,1 12,2 15,4 4,1 7,3 8,5 2,2 3,5 3,8l0 325 259 -325c2,-4 5,-6 8,-9 3,-2 6,-4 11,-5 4,-1 9,-2 16,-3 6,-1 14,-1 24,-1 9,0 17,0 24,1 5,1 10,2 14,4 4,1 6,3 7,6 2,2 2,4 2,7 0,5 -1,10 -3,15 -3,4 -8,11 -14,20l-243 290 261 348c7,10 11,17 12,20 1,4 2,7 2,9zm636 -675c0,7 -1,13 -1,18 -1,6 -2,10 -4,13 -2,3 -4,6 -6,7 -3,2 -5,2 -8,2l-206 0 0 636c0,3 -1,6 -2,8 -2,2 -4,4 -8,5 -4,2 -9,3 -15,4 -7,1 -14,1 -24,1 -9,0 -17,0 -23,-1 -6,-1 -11,-2 -15,-4 -4,-1 -7,-3 -8,-5 -2,-2 -2,-5 -2,-8l0 -636 -206 0c-3,0 -6,0 -8,-2 -3,-1 -5,-4 -6,-7 -2,-3 -3,-7 -4,-13 -1,-5 -1,-11 -1,-18 0,-7 0,-14 1,-19 1,-5 2,-10 4,-13 1,-4 3,-6 6,-7 2,-2 5,-3 8,-3l509 0c3,0 5,1 8,3 2,1 4,3 6,7 2,3 3,8 4,13 0,5 1,12 1,19zm454 674c-1,4 -4,8 -6,10 -3,3 -6,5 -11,6 -5,2 -11,3 -18,4 -8,0 -17,0 -28,0 -9,0 -16,0 -22,0 -6,0 -12,-1 -16,-1 -5,-1 -9,-2 -12,-3 -3,-1 -6,-2 -8,-4 -2,-1 -4,-3 -5,-5 -2,-2 -3,-5 -4,-8l-240 -680c-3,-9 -4,-15 -4,-21 0,-5 1,-8 4,-11 4,-3 9,-4 17,-5 7,-1 18,-1 30,-1 11,0 19,0 26,0 6,1 11,2 14,4 3,1 6,3 8,6 1,2 3,5 4,9l210 617 2 0 204 -616c1,-4 2,-8 4,-10 1,-3 4,-5 8,-6 4,-2 9,-3 16,-4 6,0 16,0 27,0 12,0 21,0 28,1 6,1 11,3 13,5 3,3 4,7 3,12 0,5 -2,12 -5,20l-239 681z"/>
 </g>
</svg>
