<?xml version="1.0" encoding="UTF-8"?>
<!DOCTYPE svg PUBLIC "-//W3C//DTD SVG 1.1//EN" "http://www.w3.org/Graphics/SVG/1.1/DTD/svg11.dtd">
<!-- Creator: CorelDRAW X8 -->
<svg xmlns="http://www.w3.org/2000/svg" xml:space="preserve" width="78.9677mm" height="75.9535mm" version="1.1" style="shape-rendering:geometricPrecision; text-rendering:geometricPrecision; image-rendering:optimizeQuality; fill-rule:evenodd; clip-rule:evenodd"
viewBox="0 0 192 184"
 xmlns:xlink="http://www.w3.org/1999/xlink">
 <defs>
  <style type="text/css">
   <![CDATA[
    .fil1 {fill:none}
    .fil0 {fill:#FEFEFE}
    .fil2 {fill:#332C2B}
    .fil3 {fill:#FEFEFE;fill-rule:nonzero}
   ]]>
  </style>
 </defs>
 <g id="图层_x0020_1">
  <metadata id="CorelCorpID_0Corel-Layer"/>
  <g id="_2789675412848">
   <path class="fil0" d="M81 0c1,1 2,2 2,2 0,1 -1,2 -2,2 0,0 -1,-1 -1,-2 0,0 1,-1 1,-2z" p-id="15145"/>
   <path class="fil0" d="M147 55c0,9 -1,15 -5,20 -1,1 -1,3 -1,4 0,2 2,3 2,4 1,3 2,5 6,4l2 0 5 2 -3 3c-6,3 -12,5 -18,7 -1,1 -2,0 -4,0 0,-1 0,-3 1,-4 0,-1 1,-2 1,-2 2,-1 4,-3 4,-4 -1,-3 -3,-6 -4,-9 0,-1 -2,-1 -2,-1 -9,-1 -15,-7 -21,-14 -6,-8 -10,-17 -13,-27 -1,-2 0,-3 2,-4 11,-4 22,-9 33,-13 1,-1 3,1 4,2 6,10 11,22 11,32l0 0zm-10 -18c-2,-3 -3,-5 -4,-7 -1,-1 -3,-2 -4,-2l-23 9c-1,0 -2,3 -2,3 1,4 2,6 3,9 10,-4 19,-8 30,-12l0 0zm-96 50c2,0 5,0 6,-1 1,-2 3,-6 3,-9 0,-1 0,-2 0,-2 -8,-9 -7,-20 -4,-30 2,-8 5,-15 8,-22 2,-3 3,-4 7,-2 10,5 20,9 31,13 3,1 3,3 2,6 -4,11 -8,21 -16,29 -4,6 -10,10 -18,11 -1,0 -3,1 -3,2 0,2 -1,4 -2,6 -1,2 -1,3 2,4 1,1 3,3 4,4 0,1 0,3 0,3l-4 0c-6,-2 -13,-5 -19,-7l-2 -3c0,0 2,-1 3,-2l2 0zm43 -37c1,-3 2,-6 3,-9 0,-1 -1,-3 -2,-3 -7,-3 -15,-7 -23,-10 -1,0 -3,0 -3,1 -2,2 -3,5 -5,8 10,5 20,9 30,13zm12 -32c-2,1 -4,4 -5,3 -2,0 -3,-2 -4,-3 1,-2 2,-4 4,-4 1,0 3,2 5,4zm18 5c-2,-2 -4,-4 -4,-5 0,-2 3,-3 4,-4 1,2 3,2 4,4 0,1 -2,3 -4,5zm-10 6c-2,1 -3,3 -5,3 -1,0 -4,-2 -4,-4 0,-2 3,-3 4,-4 2,0 3,2 5,3l0 2 0 0zm-15 -24c1,1 3,2 3,3 0,1 -2,1 -3,2 -1,-1 -2,-1 -2,-2 0,-1 1,-2 2,-3zm14 10c1,1 3,2 2,3 0,1 -2,1 -3,2 0,-1 -1,-1 -1,-2 0,-1 1,-2 2,-3zm-13 14c1,1 2,1 2,1 0,1 -1,1 -1,2 -1,0 -2,-1 -2,-1 0,-1 0,-1 1,-2l0 0zm-5 -5c0,2 0,2 0,3 0,1 -2,1 -3,1 0,-1 -1,-2 -1,-2 1,-1 2,-1 4,-2l0 0z" p-id="15146"/>
  </g>
  <rect class="fil1" width="192" height="162"/>
  <rect class="fil1" width="192" height="182"/>
  <path class="fil2" d="M49 123c5,0 9,4 9,9 0,5 -4,9 -9,9 -6,0 -10,-4 -10,-9 0,-5 4,-9 10,-9z"/>
  <path class="fil3" d="M74 152c0,0 0,-1 1,-1 0,0 0,-1 1,-1l8 0c1,0 1,0 2,0 0,0 0,-1 0,-1l0 -39c0,0 0,-1 1,-1 0,0 1,-1 1,-1l1 0c1,0 1,1 1,1 1,0 1,1 1,1l0 8c0,1 0,1 1,2 0,0 0,0 1,0l11 0c1,0 1,0 2,1 0,0 0,0 0,1l0 1c0,1 0,1 0,1 -1,1 -1,1 -2,1l-11 0c-1,0 -1,0 -1,0 -1,1 -1,1 -1,2l0 22c0,0 0,1 1,1 0,0 0,0 1,0l13 0c1,0 1,1 1,1 1,0 1,1 1,1l0 1c0,1 0,1 -1,2 0,0 0,0 -1,0l-30 0c-1,0 -1,0 -1,0 -1,-1 -1,-1 -1,-2l0 -1zm70 -39c0,0 -1,0 -1,1 0,0 -1,0 -1,1l0 2c0,0 1,1 1,1 0,0 0,1 1,1l4 0c1,0 1,0 1,0 1,0 1,1 1,1l0 30c0,0 0,1 -1,1 0,1 0,1 0,2l-2 1c0,0 0,1 -1,1 -1,0 -1,0 -2,0l-18 0c0,0 -1,0 -1,0 0,-1 -1,-1 -1,-2l0 -33c0,0 1,-1 1,-1 0,0 1,0 1,0l4 0c1,0 1,-1 1,-1 1,0 1,-1 1,-1l0 -2c0,-1 0,-1 -1,-1 0,-1 0,-1 -1,-1l-4 0c0,0 -1,0 -1,0 0,-1 0,-1 0,-2l0 -1c0,0 0,-1 0,-1 0,0 1,-1 1,-1l22 0c1,0 1,1 1,1 1,0 1,1 1,1l0 1c0,1 0,1 -1,2 0,0 0,0 -1,0l-4 0zm-28 39c0,0 0,-1 0,-1 0,0 0,-1 1,-1 0,0 0,0 0,0 0,0 0,-1 0,-1l0 -19c0,-1 0,-1 1,-2 0,0 0,0 1,0l1 0c1,0 1,0 1,0 1,1 1,1 1,2l0 20c0,0 0,1 0,1 -1,1 -1,1 -1,2l-2 1c0,0 0,1 -1,1 0,0 -1,0 -1,0 0,0 -1,0 -1,0 0,-1 0,-1 0,-2l0 -1zm23 -14c0,0 0,-1 -1,-2 0,0 0,-1 0,-1l0 -10c0,0 0,-1 0,-1 0,-1 -1,-1 -1,-1 0,0 0,0 -1,1 0,0 0,1 0,1l0 10c0,0 0,1 0,1 -1,1 -1,2 -1,2l-1 1c0,0 -1,1 -1,1 -1,0 -2,0 -2,0 -1,0 -1,0 -1,1 -1,0 -1,0 -1,1 0,0 0,0 1,1 0,0 0,0 1,0l12 0c1,0 1,0 2,0 0,-1 0,-1 0,-1 0,-1 0,-1 0,-1 -1,-1 -1,-1 -2,-1l0 0c0,0 -1,0 -1,0 -1,0 -1,-1 -2,-1l-1 -1zm4 12c1,0 1,0 2,0 0,0 0,0 0,-1 0,0 0,0 0,-1 -1,0 -1,0 -2,0l-12 0c-1,0 -1,0 -1,0 -1,1 -1,1 -1,1 0,1 0,1 1,1 0,0 0,0 1,0l12 0zm2 -26c-1,-1 -1,-1 -1,-1 -1,0 -1,0 -1,1 0,0 -1,1 -1,1l0 9c0,0 1,1 1,1 0,0 0,1 1,1 0,0 0,-1 1,-1 0,0 0,-1 0,-1l0 -9c0,0 0,-1 0,-1zm-15 -1c0,0 0,0 0,1 -1,0 -1,1 -1,1l0 9c0,0 0,1 1,1 0,0 0,1 0,1 1,0 1,-1 1,-1 1,0 1,-1 1,-1l0 -9c0,0 0,-1 -1,-1 0,-1 0,-1 -1,-1zm-9 -9c-1,0 -1,1 -1,1 -1,0 -1,-1 -2,-1l0 -1c-1,0 -1,-1 -1,-1 0,0 0,-1 1,-1l0 -1c1,0 1,-1 2,-1 0,0 0,1 1,1l1 1c0,0 0,1 0,1 0,0 0,1 0,1l-1 1zm-3 9c-1,0 -1,-1 -1,-1 0,-1 0,-1 1,-2l0 0c1,-1 1,-1 2,-1 0,0 0,0 1,1l1 0c0,1 0,1 0,2 0,0 0,1 0,1l-1 1c-1,0 -1,0 -1,0 -1,0 -1,0 -2,0l0 -1zm20 -8c0,-1 0,-1 0,-1 0,-1 -1,-1 -1,-1 0,0 0,0 -1,1 0,0 0,0 0,1l0 2c0,0 0,1 0,1 1,0 1,1 1,1 0,0 1,-1 1,-1 0,0 0,-1 0,-1l0 -2z"/>
  <path class="fil3" d="M83 179c0,0 0,0 0,0 0,0 0,0 0,0 0,1 0,1 0,1 -1,0 -1,0 -1,0l-7 0c0,0 0,0 -1,-1 0,0 0,0 0,0l0 -16c0,0 0,0 0,0 0,0 0,0 0,0 1,0 1,0 1,0 0,0 0,0 0,0 1,0 1,0 1,0 0,0 0,0 0,0 0,0 0,0 0,0 0,0 0,0 0,0l0 15 6 0c0,0 0,0 1,0 0,0 0,0 0,0 0,0 0,0 0,0 0,0 0,1 0,1zm5 0c0,0 0,1 0,1 0,0 0,0 0,0 0,0 0,0 0,0 0,0 -1,0 -1,0 0,0 0,0 0,0 0,0 -1,0 -1,0 0,0 0,0 0,0 0,0 0,-1 0,-1l0 -11c0,0 0,0 0,0 0,0 0,0 0,0 0,0 1,0 1,-1 0,0 0,0 0,0 0,0 1,0 1,0 0,1 0,1 0,1 0,0 0,0 0,0 0,0 0,0 0,0l0 11zm1 -15c0,0 -1,1 -1,1 0,0 0,0 -1,0 0,0 -1,0 -1,0 0,0 0,0 0,-1 0,0 0,-1 0,-1 0,0 1,0 1,0 1,0 1,0 1,0 0,0 1,1 1,1zm14 20c0,0 0,0 0,0 0,0 0,0 0,0 0,0 0,0 0,0 -1,0 -1,0 -1,0 0,0 0,0 0,0 -1,0 -1,0 -1,0 0,0 0,0 0,0 0,0 0,0 0,0l0 -6c0,0 -1,1 -1,1 0,0 -1,0 -1,1 0,0 0,0 -1,0 0,0 0,0 -1,0 -1,0 -1,0 -2,-1 0,0 -1,0 -1,-1 -1,0 -1,-1 -1,-2 0,-1 0,-1 0,-2 0,-1 0,-2 0,-3 0,-1 0,-1 1,-2 0,-1 1,-1 1,-1 1,-1 2,-1 3,-1 0,0 0,0 1,0 0,0 0,1 0,1 1,0 1,0 1,0 1,1 1,1 1,1l0 -1c0,0 0,0 0,0 0,0 0,0 1,0 0,0 0,0 0,-1 0,0 0,0 0,0 0,0 1,0 1,0 0,1 0,1 0,1 0,0 0,0 0,0 0,0 0,0 0,0l0 16zm-2 -13c-1,0 -1,-1 -2,-1 0,-1 -1,-1 -1,-1 -1,0 -1,0 -2,0 0,1 0,1 -1,1 0,1 0,1 0,2 0,0 0,1 0,2 0,0 0,1 0,1 0,1 0,1 0,2 1,0 1,0 1,1 1,0 1,0 2,0 0,0 0,0 0,0 1,0 1,0 1,0 1,-1 1,-1 1,-1 0,0 1,-1 1,-1l0 -5zm17 8c0,0 0,1 0,1 0,0 0,0 0,0 0,0 0,0 0,0 -1,0 -1,0 -1,0 0,0 0,0 0,0 0,0 -1,0 -1,0 0,0 0,0 0,0 0,0 0,-1 0,-1l0 -1c0,1 -1,1 -2,1 0,1 -1,1 -2,1 0,0 -1,0 -2,0 0,-1 -1,-1 -1,-1 0,-1 0,-1 -1,-2 0,-1 0,-1 0,-2l0 -7c0,0 0,0 0,0 0,0 0,0 0,0 0,0 1,0 1,-1 0,0 0,0 0,0 0,0 1,0 1,0 0,1 0,1 0,1 0,0 0,0 0,0 0,0 0,0 0,0l0 7c0,0 0,1 0,1 1,1 1,1 1,1 0,1 0,1 1,1 0,0 0,0 1,0 0,0 1,0 1,0 1,-1 1,-1 2,-2l0 -8c0,0 0,0 0,0 0,0 0,0 0,0 0,0 0,0 1,-1 0,0 0,0 0,0 0,0 0,0 1,0 0,1 0,1 0,1 0,0 0,0 0,0 0,0 0,0 0,0l0 11zm16 -6c0,1 0,2 -1,3 0,1 0,2 -1,2 0,1 -1,1 -1,1 -1,1 -2,1 -3,1 -1,0 -2,0 -2,0 -1,-1 -2,-1 -2,-2 -1,0 -1,-1 -1,-2 -1,0 -1,-1 -1,-2 0,-1 1,-2 1,-3 0,-1 0,-1 1,-2 0,0 1,-1 2,-1 0,-1 1,-1 2,-1 1,0 2,0 3,1 0,0 1,0 1,1 1,0 1,1 2,2 0,1 0,2 0,2zm-2 1c0,-1 0,-2 -1,-2 0,-1 0,-1 0,-2 0,0 -1,0 -1,-1 -1,0 -1,0 -2,0 0,0 -1,0 -1,0 -1,1 -1,1 -2,1 0,1 0,1 0,2 0,0 0,1 0,2 0,0 0,1 0,1 0,1 0,1 0,2 1,0 1,1 1,1 1,0 1,0 2,0 1,0 1,0 2,0 0,0 1,-1 1,-1 0,-1 0,-1 0,-2 1,0 1,-1 1,-1zm13 -5c0,0 0,0 0,0 0,0 0,0 0,0 0,0 0,1 0,1 0,0 0,0 0,0 0,0 -1,0 -1,0 0,0 0,-1 0,-1 0,0 0,0 0,0 -1,0 -1,0 -1,0 0,0 0,0 -1,0 0,0 0,1 0,1 0,0 -1,0 -1,1 0,0 0,0 -1,1l0 7c0,0 0,1 0,1 0,0 0,0 0,0 0,0 0,0 0,0 0,0 -1,0 -1,0 0,0 0,0 0,0 0,0 -1,0 -1,0 0,0 0,0 0,0 0,0 0,-1 0,-1l0 -11c0,0 0,0 0,0 0,0 0,0 0,0 0,0 1,0 1,-1 0,0 0,0 0,0 0,0 0,0 1,0 0,1 0,1 0,1 0,0 0,0 0,0 0,0 0,0 0,0l0 2c0,-1 1,-1 1,-2 0,0 1,0 1,0 0,0 0,-1 0,-1 1,0 1,0 1,0 0,0 0,0 1,0 0,0 0,0 0,0 0,0 0,0 0,0 1,1 1,1 1,1 0,0 0,0 0,0 0,0 0,0 0,0 0,0 0,0 0,0 0,0 0,0 0,1z"/>
 </g>
</svg>
