<?xml version="1.0" encoding="UTF-8"?>
<!DOCTYPE svg PUBLIC "-//W3C//DTD SVG 1.1//EN" "http://www.w3.org/Graphics/SVG/1.1/DTD/svg11.dtd">
<!-- Creator: CorelDRAW X8 -->
<svg xmlns="http://www.w3.org/2000/svg" xml:space="preserve" width="78.9677mm" height="74.8427mm" version="1.1" style="shape-rendering:geometricPrecision; text-rendering:geometricPrecision; image-rendering:optimizeQuality; fill-rule:evenodd; clip-rule:evenodd"
viewBox="0 0 495 469"
 xmlns:xlink="http://www.w3.org/1999/xlink">
 <defs>
  <style type="text/css">
   <![CDATA[
    .fil1 {fill:none}
    .fil2 {fill:#FEFEFE}
    .fil0 {fill:#FEFEFE;fill-rule:nonzero}
   ]]>
  </style>
 </defs>
 <g id="图层_x0020_1">
  <metadata id="CorelCorpID_0Corel-Layer"/>
  <g id="_2789675421200">
   <path class="fil0" d="M147 0l202 0c7,0 13,3 18,8 5,4 8,11 8,18l0 205c0,8 -3,14 -8,19 -5,5 -11,8 -18,8l-202 0c-7,0 -14,-3 -19,-8 -4,-5 -7,-11 -7,-19l0 -205c0,-7 3,-14 7,-18 5,-5 12,-8 19,-8zm202 9l-202 0c-5,0 -9,2 -12,5 -3,3 -5,7 -5,12l0 205c0,5 2,9 5,12 3,3 7,5 12,5l202 0c4,0 8,-2 11,-5 3,-3 5,-7 5,-12l0 -205c0,-5 -2,-9 -5,-12 -3,-3 -7,-5 -11,-5z"/>
   <path class="fil0" d="M215 47l64 0c5,0 9,1 12,5 3,3 5,7 5,11l0 132c0,5 -2,9 -5,12 -3,3 -7,5 -12,5l-64 0c-5,0 -9,-2 -12,-5 -3,-3 -5,-7 -5,-12l0 -132c0,-4 2,-8 5,-11 3,-4 7,-5 12,-5zm64 9l-64 0c-2,0 -4,1 -6,2 -1,1 -2,3 -2,5l0 132c0,2 1,4 2,6 2,1 4,2 6,2l64 0c3,0 4,-1 6,-2 1,-2 2,-4 2,-6l0 -132c0,-2 -1,-4 -2,-5 -2,-1 -3,-2 -6,-2z"/>
   <path class="fil0" d="M247 75c7,0 13,3 17,8 5,4 7,10 7,17 0,6 -2,12 -7,17 -4,4 -10,7 -17,7 -7,0 -13,-3 -17,-7 -4,-5 -7,-11 -7,-17 0,-7 3,-13 7,-17l0 0c4,-5 10,-8 17,-8zm11 14c-3,-3 -7,-4 -11,-4 -4,0 -8,1 -11,4 -2,3 -4,7 -4,11 0,4 2,8 4,10 3,3 7,5 11,5 4,0 8,-2 11,-5 2,-2 4,-6 4,-10 0,-4 -2,-8 -4,-11z"/>
   <path class="fil0" d="M248 145c1,0 3,1 4,2 1,1 2,2 2,4l0 25c0,1 -1,3 -2,4 -1,1 -3,2 -4,2 -2,0 -4,-1 -5,-2 -1,-1 -2,-3 -2,-4l0 -25c0,-2 1,-3 2,-4 1,-1 3,-2 5,-2z"/>
   <path class="fil0" d="M150 24c3,0 5,1 6,3 1,1 2,3 2,5 0,2 -1,4 -2,6 -1,1 -3,2 -6,2 -2,0 -4,-1 -5,-2 -2,-2 -3,-4 -3,-6 0,-2 1,-4 3,-5 1,-2 3,-3 5,-3zm3 5c0,-1 -1,-1 -3,-1 -1,0 -2,0 -3,1 0,1 -1,2 -1,3 0,1 1,2 1,3 1,1 2,1 3,1 2,0 3,0 3,-1 1,-1 2,-2 2,-3 0,-1 -1,-2 -2,-3z"/>
   <path class="fil0" d="M346 24c2,0 4,1 5,3 2,1 3,3 3,5 0,2 -1,4 -3,6 -1,1 -3,2 -5,2 -3,0 -5,-1 -6,-2 -2,-2 -2,-4 -2,-6 0,-2 0,-4 2,-5 1,-2 3,-3 6,-3zm3 5c-1,-1 -2,-1 -3,-1 -2,0 -3,0 -3,1 -1,1 -2,2 -2,3 0,1 1,2 2,3 0,1 1,1 3,1 1,0 2,0 3,-1 0,-1 1,-2 1,-3 0,-1 -1,-2 -1,-3z"/>
   <path class="fil0" d="M150 220c3,0 5,1 6,2 1,2 2,4 2,6 0,2 -1,4 -2,5 -1,2 -3,3 -6,3 -2,0 -4,-1 -5,-3 -2,-1 -3,-3 -3,-5 0,-2 1,-4 3,-6 1,-1 3,-2 5,-2zm3 5c0,-1 -1,-2 -3,-2 -1,0 -2,1 -3,2 0,1 -1,2 -1,3 0,1 1,2 1,3 1,1 2,1 3,1 2,0 3,0 3,-1 1,-1 2,-2 2,-3 0,-1 -1,-2 -2,-3z"/>
   <path class="fil0" d="M346 220c2,0 4,1 5,2 2,2 3,4 3,6 0,2 -1,4 -3,5 -1,2 -3,3 -5,3 -3,0 -5,-1 -6,-3 -2,-1 -2,-3 -2,-5 0,-2 0,-4 2,-6 1,-1 3,-2 6,-2zm3 5c-1,-1 -2,-2 -3,-2 -2,0 -3,1 -3,2 -1,1 -2,2 -2,3 0,1 1,2 2,3 0,1 1,1 3,1 1,0 2,0 3,-1 0,-1 1,-2 1,-3 0,-1 -1,-2 -1,-3z"/>
  </g>
  <rect class="fil1" width="495" height="469"/>
  <path class="fil0" d="M82 399c0,-2 0,-3 1,-4 0,0 1,-1 1,-1 1,0 2,0 2,-1 1,-1 1,-2 1,-4l0 -20c0,-1 0,-2 1,-3 1,-1 2,-1 3,-1l4 0c1,0 2,0 3,1 1,1 1,2 1,3l0 23c0,1 0,2 -1,4 0,2 -1,3 -2,4l-3 3c-1,1 -2,2 -4,2 -1,1 -2,1 -3,1 -1,0 -2,0 -3,-1 0,-1 -1,-2 -1,-3l0 -3zm5 -86c0,-1 1,-2 1,-3 1,-1 2,-2 4,-2l68 0c2,0 3,1 4,2 1,1 1,2 1,3l0 32c0,1 0,3 -1,4 0,2 -1,3 -2,4l-3 3c-1,1 -3,2 -4,2 -2,1 -3,1 -4,1l-59 0c-2,0 -3,0 -4,-1 0,-1 -1,-2 -1,-3l0 -42zm12 30c0,1 1,2 2,3 1,1 2,1 3,1l44 0c2,0 3,0 4,-1 1,-1 1,-2 1,-3l0 -18c0,-1 0,-2 -1,-3 -1,-1 -2,-1 -4,-1l-44 0c-1,0 -2,0 -3,1 -1,1 -2,2 -2,3l0 18zm60 -43c-1,0 -3,1 -4,2 -2,0 -3,1 -4,1l-16 0c-1,0 -2,-1 -3,-2 -1,-1 -2,-2 -2,-3l0 -3c0,-1 1,-2 2,-3 1,-1 2,-2 3,-2l13 0c2,0 3,0 4,0 1,-1 1,-2 1,-2 0,-1 1,-2 1,-2 1,-1 2,-1 4,-1l2 0c2,0 3,0 4,1 1,1 1,2 1,3 0,1 0,2 -1,4 0,1 -1,2 -2,3l-3 4zm-64 -15c1,0 2,0 3,1 1,0 1,1 1,2 0,0 1,1 2,2 0,0 2,0 3,0l13 0c1,0 3,1 3,2 1,1 2,2 2,3l0 3c0,1 -1,2 -2,3 0,1 -2,2 -3,2l-16 0c-1,0 -2,-1 -4,-1 -1,-1 -3,-2 -4,-2l-3 -4c-1,-1 -1,-2 -2,-3 -1,-2 -1,-3 -1,-4 0,-1 1,-2 1,-3 1,-1 2,-1 4,-1l3 0zm33 79c1,0 2,1 3,2 1,1 2,2 2,3l0 4c0,1 0,2 1,3 1,1 2,2 3,2l7 0c2,0 3,0 4,1 1,1 1,2 1,3l0 3c0,2 0,3 -1,4 -1,1 -2,1 -4,1l-9 0c-1,0 -3,0 -4,-1 -2,0 -3,-1 -4,-2l-3 -3c-1,-1 -2,-3 -3,-4 0,-2 -1,-3 -1,-4l0 -7c0,-1 1,-2 2,-3 1,-1 2,-2 3,-2l3 0zm-17 1c1,0 2,0 3,1 1,1 2,2 2,3l0 20c0,2 0,3 1,4 1,1 2,1 3,1l25 0c1,0 2,0 3,1 1,1 1,2 1,4l0 3c0,1 0,2 -1,3 -1,1 -2,1 -3,1l-27 0c-1,0 -3,0 -4,-1 -2,0 -3,-1 -4,-2l-3 -3c-1,-1 -2,-2 -3,-4 0,-2 -1,-3 -1,-4l0 -23c0,-1 1,-2 2,-3 1,-1 2,-1 3,-1l3 0zm49 0c1,0 3,0 3,1 1,1 2,2 2,3l0 20c0,2 0,3 1,4 0,1 1,1 2,1 0,0 1,1 1,1 1,1 1,2 1,4l0 3c0,1 0,2 -1,3 -1,1 -2,1 -3,1 -1,0 -2,0 -3,-1 -2,0 -3,-1 -4,-2l-3 -3c-1,-1 -2,-2 -3,-4 0,-2 0,-3 0,-4l0 -23c0,-1 0,-2 1,-3 1,-1 2,-1 3,-1l3 0zm60 -70c0,-1 0,-2 1,-3 1,-1 2,-1 3,-1l37 0c1,0 3,-1 3,-1 1,-1 2,-1 2,-2 0,-1 0,-2 1,-2 1,-1 2,-1 3,-1l3 0c2,0 3,0 4,1 0,1 1,1 1,2 0,1 0,2 -1,4 -1,1 -1,2 -2,3l-4 3c-1,1 -2,2 -3,3 -2,0 -3,1 -4,1l-40 0c-1,0 -2,-1 -3,-2 -1,-1 -1,-2 -1,-3l0 -2zm-14 -10c1,0 2,0 3,1 1,1 1,2 1,3l0 5c0,1 0,2 1,3 1,1 1,1 2,1 1,0 1,1 2,2 0,1 1,2 1,3l0 3c0,1 -1,2 -1,3 -1,1 -1,1 -2,1 -1,0 -1,1 -2,2 -1,1 -1,2 -1,3l0 44c0,1 0,2 1,3 1,1 1,1 2,1 1,0 1,1 2,2 0,1 1,2 1,3l0 3c0,1 -1,2 -1,3 -1,1 -1,2 -2,2 -1,0 -1,0 -2,1 -1,1 -1,2 -1,3l0 12c0,1 0,3 -1,4 0,2 -1,3 -2,4l-3 3c-1,1 -3,2 -4,2 -2,1 -3,1 -4,1l-1 0c-1,0 -2,0 -3,-1 -1,-1 -1,-2 -1,-3l0 -3c0,-2 0,-3 1,-4 0,-1 1,-1 2,-1 1,0 2,0 3,-1 1,-1 1,-2 1,-4l0 -9c0,-1 0,-2 -1,-3 -1,-1 -2,-1 -3,-1 -1,0 -2,-1 -2,-2 -1,-1 -1,-2 -1,-3l0 -3c0,-1 0,-2 1,-3 0,-1 1,-2 2,-2 1,0 2,0 3,-1 1,-1 1,-2 1,-3l0 -44c0,-1 0,-2 -1,-3 -1,-1 -2,-2 -3,-2 -1,0 -2,0 -2,-1 -1,-1 -1,-2 -1,-3l0 -3c0,-1 0,-2 1,-3 0,-1 1,-2 2,-2 1,0 2,0 3,-1 1,-1 1,-2 1,-3l0 -5c0,-1 0,-2 1,-3 1,-1 2,-1 3,-1l4 0zm53 82c-1,0 -2,1 -3,2 -1,0 -1,2 -1,3l0 17c0,2 0,3 1,4 1,1 2,1 3,1l14 0c2,0 3,0 4,1 1,1 1,2 1,4l0 3c0,1 0,2 -1,3 -1,1 -2,1 -4,1l-49 0c-1,0 -2,0 -3,-1 -1,-1 -1,-2 -1,-3l0 -3c0,-2 0,-3 1,-4 1,-1 2,-1 3,-1l14 0c1,0 2,0 3,-1 1,-1 2,-2 2,-4l0 -17c0,-1 -1,-3 -2,-3 -1,-1 -2,-2 -3,-2l-14 0c-1,0 -2,0 -3,-1 -1,-1 -1,-2 -1,-4l0 -2c0,-2 0,-3 1,-4 1,-1 2,-1 3,-1l49 0c2,0 3,0 4,1 1,1 1,2 1,4l0 3c0,1 0,2 -1,3 -1,1 -2,1 -4,1l-14 0zm14 -39c-1,0 -2,0 -3,1 -1,1 -2,2 -2,3 0,1 1,2 2,3 1,1 2,1 3,1l0 0c2,0 3,1 4,2 0,1 1,2 1,3l0 3c0,1 -1,3 -1,3 -1,1 -2,2 -4,2l-3 0c-1,0 -2,-1 -4,-1 -1,-1 -3,-1 -4,-2l-3 -4c0,-1 -1,-2 -2,-3 0,-2 -1,-3 -1,-5l0 -3c0,-1 1,-2 2,-3 0,-1 2,-2 3,-2l0 0c1,0 3,0 3,-1 1,-1 2,-2 2,-3 0,-1 -1,-2 -2,-3 0,-1 -2,-2 -3,-2l-25 0c-1,0 -2,1 -3,2 -1,1 -1,2 -1,3 0,1 0,2 1,3 1,1 2,1 3,1l1 0c1,0 2,1 3,2 1,1 1,2 1,3l0 3c0,2 0,3 0,5 -1,1 -2,2 -3,3l-3 4c-1,1 -2,1 -4,2 -1,0 -3,1 -4,1l-3 0c-1,0 -2,-1 -3,-2 -1,0 -1,-2 -1,-3l0 -3c0,-1 0,-2 1,-3 1,-1 2,-2 3,-2l1 0c1,0 2,0 3,-1 1,-1 1,-2 1,-3 0,-1 0,-2 -1,-3 -1,-1 -2,-1 -3,-1l-1 0c-1,0 -2,-1 -3,-1 -1,-1 -1,-2 -1,-4l0 -13c0,-2 0,-3 1,-4 1,0 2,-1 3,-1l49 0c2,0 3,1 4,1 0,1 1,2 1,4l0 13c0,2 -1,3 -1,4 -1,0 -2,1 -4,1l0 0zm33 66c1,0 2,0 3,-1 1,-1 1,-2 1,-4l0 -25c0,-1 0,-2 -1,-3 -1,-1 -2,-1 -3,-1l-3 0c-1,0 -2,-1 -3,-2 -1,-1 -1,-2 -1,-3l0 -3c0,-1 0,-2 1,-3 1,-1 2,-2 3,-2l3 0c1,0 2,0 3,-1 1,-1 1,-2 1,-3l0 -41c0,-2 0,-3 -1,-4 -1,-1 -2,-1 -3,-1l-3 0c-1,0 -2,0 -3,-1 -1,-1 -1,-2 -1,-4l0 -3c0,-1 0,-2 1,-3 1,-1 2,-1 3,-1l79 0c1,0 2,0 3,1 1,1 2,2 2,3l0 3c0,2 -1,3 -2,4 -1,1 -2,1 -3,1l-2 0c-1,0 -2,0 -3,1 -1,1 -1,2 -1,4l0 41c0,1 0,2 1,3 1,1 2,1 3,1l2 0c1,0 2,1 3,2 1,1 2,2 2,3l0 3c0,1 -1,2 -2,3 -1,1 -2,2 -3,2l-2 0c-1,0 -2,0 -3,1 -1,1 -1,2 -1,3l0 38c0,1 -1,2 -2,3 -1,1 -2,1 -3,1l-3 0c-1,0 -2,0 -3,-1 -1,-1 -2,-2 -2,-3l0 -38c0,-1 0,-2 -1,-3 -1,-1 -2,-1 -3,-1l-32 0c-1,0 -2,0 -3,1 -1,1 -1,2 -1,3l0 28c0,1 -1,2 -1,4 -1,2 -2,3 -2,4l-3 3c-1,1 -3,2 -4,2 -2,1 -3,1 -4,1l-6 0c-1,0 -2,0 -3,-1 -1,-1 -1,-2 -1,-3l0 -3c0,-2 0,-3 1,-4 1,-1 2,-1 3,-1l3 0zm17 -51c0,1 0,2 1,3 1,1 2,1 3,1l32 0c1,0 2,0 3,-1 1,-1 1,-2 1,-3l0 -41c0,-2 0,-3 -1,-4 -1,-1 -2,-1 -3,-1l-32 0c-1,0 -2,0 -3,1 -1,1 -1,2 -1,4l0 41zm117 7c1,0 2,0 3,-1 1,-1 2,-2 2,-3l0 -15c0,-1 -1,-2 -2,-3 -1,-1 -2,-1 -3,-1l-28 0c-2,0 -3,-1 -3,-2 -1,-1 -2,-2 -2,-3l0 -3c0,-1 1,-3 2,-3 0,-1 1,-2 3,-2l78 0c1,0 2,1 3,2 1,0 2,2 2,3l0 3c0,1 -1,2 -2,3 -1,1 -2,2 -3,2l-28 0c-2,0 -3,0 -4,1 -1,1 -1,2 -1,3l0 15c0,1 0,2 1,3 1,1 2,1 4,1l28 0c1,0 2,1 3,2 1,1 2,2 2,3l0 3c0,1 -1,2 -2,3 -1,1 -2,2 -3,2l-28 0c-1,0 -2,0 -2,1 0,0 0,1 1,2l17 24c1,1 2,2 4,3 1,1 2,1 4,1l4 0c1,0 2,0 3,1 1,1 2,2 2,4l0 3c0,1 -1,2 -2,3 -1,1 -2,1 -3,1l-10 0c-1,0 -2,0 -4,-1 -1,0 -2,-1 -3,-2l-19 -24c-1,-1 -2,-2 -3,-2 -1,0 -2,1 -3,2l-19 24c-1,1 -2,2 -4,2 -1,1 -2,1 -4,1l-9 0c-1,0 -2,0 -3,-1 -1,-1 -2,-2 -2,-3l0 -3c0,-2 1,-3 2,-4 1,-1 2,-1 3,-1l4 0c2,0 3,0 4,-1 2,-1 3,-2 4,-3l17 -24c1,-1 1,-2 1,-2 -1,-1 -1,-1 -3,-1l-27 0c-2,0 -3,-1 -3,-2 -1,-1 -2,-2 -2,-3l0 -3c0,-1 1,-2 2,-3 0,-1 1,-2 3,-2l28 0zm-33 -61c0,-1 1,-2 2,-3 0,-1 1,-1 3,-1l3 0c1,0 2,0 3,1 1,1 1,2 1,3l0 2c0,1 1,2 2,3 1,1 2,1 3,1l14 0c2,0 3,1 4,2 1,1 1,2 1,3l0 3c0,1 0,2 -1,3 -1,1 -2,2 -4,2l-26 0c-2,0 -3,-1 -3,-2 -1,-1 -2,-2 -2,-3l0 -14zm83 19l-27 0c-1,0 -2,-1 -3,-2 -1,-1 -1,-2 -1,-3l0 -3c0,-1 0,-2 1,-3 1,-1 2,-2 3,-2l15 0c1,0 2,0 3,-1 1,-1 1,-2 1,-3l0 -2c0,-1 1,-2 2,-3 1,-1 2,-1 3,-1l3 0c1,0 2,0 3,1 1,1 2,2 2,3l0 14c0,1 -1,2 -2,3 -1,1 -2,2 -3,2z"/>
  <path class="fil2" d="M24 324c12,0 22,10 22,23 0,12 -10,22 -22,22 -13,0 -23,-10 -23,-22 0,-13 10,-23 23,-23z"/>
  <g id="_2789675425328">
   <path class="fil0" d="M128 464c0,1 0,1 0,1 0,0 0,0 -1,0 0,0 0,0 0,0 -1,0 -1,0 -2,0 0,0 -1,0 -1,0 0,0 -1,0 -1,0 0,0 0,0 0,0 -1,0 -1,0 -1,-1l0 -36 0 0 -14 37c-1,0 -1,0 -1,0 0,0 0,0 0,0 0,0 -1,0 -1,0 0,0 -1,0 -1,0 -1,0 -1,0 -1,0 -1,0 -1,0 -1,0 0,0 -1,0 -1,0 0,0 0,0 0,0l-14 -37 0 0 0 36c0,1 0,1 0,1 0,0 -1,0 -1,0 0,0 0,0 -1,0 0,0 0,0 -1,0 -1,0 -1,0 -1,0 -1,0 -1,0 -1,0 0,0 -1,0 -1,0 0,0 0,0 0,-1l0 -38c0,-1 0,-2 1,-2 0,-1 1,-1 2,-1l3 0c1,0 1,0 2,0 0,0 1,1 1,1 1,0 1,0 1,1 1,0 1,1 1,1l12 31 0 0 13 -30c0,-1 0,-2 0,-2 1,-1 1,-1 1,-1 1,0 1,-1 2,-1 0,0 0,0 1,0l4 0c0,0 0,0 1,0 0,0 0,0 0,1 1,0 1,0 1,0 0,1 0,1 0,2l0 38zm36 0c0,1 0,1 0,1 -1,0 -1,0 -1,0 -1,0 -1,0 -2,0 0,0 -1,0 -1,0 0,0 0,0 -1,0 0,0 0,0 0,-1l0 -3c-1,2 -3,3 -4,4 -2,0 -3,1 -5,1 -2,0 -3,0 -4,-1 -2,0 -3,-1 -4,-2 0,0 -1,-1 -2,-2 0,-1 0,-3 0,-4 0,-2 0,-3 1,-4 0,-2 1,-3 3,-3 1,-1 2,-2 4,-2 2,-1 4,-1 6,-1l4 0 0 -2c0,-1 0,-2 0,-3 0,-1 -1,-2 -1,-2 -1,-1 -1,-1 -2,-2 -1,0 -2,0 -3,0 -2,0 -3,0 -4,0 -1,1 -2,1 -3,1 0,1 -1,1 -2,2 0,0 -1,0 -1,0 0,0 0,0 0,0 0,0 0,0 -1,-1 0,0 0,0 0,0 0,0 0,-1 0,-1 0,-1 0,-1 0,-1 0,-1 1,-1 1,-1 0,-1 1,-1 1,-1 1,-1 2,-1 3,-1 1,-1 2,-1 3,-1 1,0 2,0 3,0 2,0 4,0 6,0 1,1 2,1 3,2 1,1 2,2 2,4 1,1 1,3 1,5l0 19zm-6 -13l-4 0c-2,0 -3,0 -4,0 -1,1 -2,1 -3,1 0,1 -1,2 -1,2 -1,1 -1,2 -1,3 0,1 1,2 2,3 1,1 2,2 4,2 1,0 2,-1 4,-1 1,-1 2,-2 3,-4l0 -6zm37 5c0,2 0,3 -1,4 0,2 -1,3 -2,3 -1,1 -2,2 -4,2 -1,1 -3,1 -4,1 -1,0 -2,0 -3,0 -1,-1 -2,-1 -3,-1 -1,0 -1,-1 -2,-1 0,0 -1,0 -1,-1 0,0 0,0 -1,0 0,-1 0,-1 0,-2 0,0 0,-1 0,-1 0,0 0,-1 1,-1 0,0 0,0 0,0 0,0 0,0 0,0 0,0 1,0 1,0 1,0 1,1 2,1 1,0 2,1 2,1 1,0 2,1 4,1 1,0 1,-1 2,-1 1,0 1,0 2,-1 1,0 1,0 1,-1 1,-1 1,-1 1,-2 0,-1 0,-2 -1,-2 0,-1 -1,-1 -2,-2 0,0 -1,-1 -2,-1 -1,0 -2,-1 -3,-1 -1,0 -1,-1 -2,-1 -1,-1 -2,-1 -3,-2 0,-1 -1,-1 -1,-2 -1,-1 -1,-2 -1,-4 0,-1 0,-2 1,-3 0,-1 1,-2 2,-3 1,-1 2,-1 3,-2 1,0 3,0 5,0 1,0 1,0 2,0 1,0 2,0 2,0 1,0 1,1 2,1 0,0 1,0 1,1 0,0 0,0 0,0 0,0 0,0 0,0 0,1 1,1 1,1 0,0 0,1 0,1 0,0 0,1 0,1 0,0 -1,0 -1,1 0,0 0,0 0,0 0,0 0,0 0,0 0,0 -1,0 -1,0 0,-1 -1,-1 -2,-1 0,0 -1,-1 -2,-1 0,0 -1,0 -2,0 -1,0 -2,0 -3,0 0,0 -1,1 -1,1 -1,0 -1,1 -1,1 -1,1 -1,1 -1,2 0,1 0,2 1,2 0,1 1,1 2,2 0,0 1,0 2,1 1,0 2,1 3,1 1,0 1,1 2,1 1,1 2,1 3,2 0,0 1,1 1,2 1,1 1,2 1,3zm25 6c0,1 0,1 0,2 0,0 0,0 0,1 0,0 -1,0 -1,0 0,0 -1,0 -1,0 -1,0 -1,1 -2,1 0,0 -1,0 -1,0 -2,0 -3,0 -4,-1 -1,0 -2,-1 -3,-2 0,0 -1,-2 -1,-3 -1,-1 -1,-2 -1,-4l0 -17 -4 0c0,0 0,0 -1,-1 0,0 0,-1 0,-2 0,0 0,0 0,-1 0,0 0,0 0,0 0,0 1,-1 1,-1 0,0 0,0 0,0l4 0 0 -7c0,0 0,0 0,0 0,0 1,0 1,0 0,-1 0,-1 1,-1 0,0 0,0 1,0 1,0 1,0 1,0 1,0 1,0 1,1 0,0 0,0 1,0 0,0 0,0 0,0l0 7 7 0c0,0 0,0 1,0 0,0 0,1 0,1 0,0 0,0 0,0 0,1 0,1 0,1 0,1 0,2 0,2 0,1 -1,1 -1,1l-7 0 0 16c0,2 0,4 1,5 0,1 1,1 3,1 0,0 1,0 1,0 0,0 1,0 1,0 0,0 1,-1 1,-1 0,0 0,0 0,0 1,0 1,0 1,0 0,0 0,0 0,1 0,0 0,0 0,0 0,0 0,1 0,1zm35 -14c0,1 -1,2 -1,2 0,1 -1,1 -1,1l-20 0c0,1 0,3 1,4 0,2 1,3 1,4 1,1 2,1 3,2 2,0 3,0 5,0 1,0 2,0 4,0 1,0 2,0 2,-1 1,0 2,0 2,0 1,-1 1,-1 1,-1 1,0 1,0 1,0 0,0 0,1 0,1 0,0 0,0 0,0 0,1 0,1 0,1 0,1 0,1 0,1 0,0 0,0 0,1 0,0 0,0 0,0 0,0 0,0 0,0 0,1 -1,1 -1,1 -1,0 -2,1 -3,1 0,0 -2,0 -3,0 -1,1 -2,1 -4,1 -2,0 -4,-1 -6,-1 -2,-1 -3,-2 -5,-3 -1,-2 -2,-3 -2,-5 -1,-2 -1,-5 -1,-7 0,-3 0,-5 1,-7 0,-2 1,-4 2,-5 2,-1 3,-3 5,-3 2,-1 4,-1 6,-1 2,0 4,0 6,1 1,0 3,1 4,3 1,1 1,2 2,4 0,2 1,4 1,5l0 1zm-6 -1c0,-3 0,-5 -2,-7 -1,-1 -3,-2 -6,-2 -1,0 -2,0 -3,1 -1,0 -2,1 -3,2 0,0 -1,1 -1,2 0,2 -1,3 -1,4l16 0zm34 -10c0,0 0,1 0,1 0,0 0,1 0,1 0,0 0,0 0,0 0,0 -1,0 -1,0 0,0 0,0 0,0 -1,0 -1,0 -1,0 -1,0 -1,0 -1,0 -1,0 -1,0 -2,0 0,0 -1,0 -1,0 -1,0 -1,1 -2,1 0,1 -1,1 -2,2 0,1 -1,2 -2,3l0 19c0,1 0,1 0,1 0,0 0,0 0,0 0,0 -1,0 -1,0 0,0 -1,0 -1,0 -1,0 -1,0 -2,0 0,0 0,0 -1,0 0,0 0,0 0,0 0,0 0,0 0,-1l0 -29c0,0 0,0 0,0 0,0 0,-1 0,-1 1,0 1,0 1,0 0,0 1,0 1,0 1,0 1,0 2,0 0,0 0,0 0,0 0,0 1,1 1,1 0,0 0,0 0,0l0 4c1,-1 1,-2 2,-3 1,0 1,-1 2,-1 1,-1 1,-1 2,-1 0,0 1,0 2,0 0,0 0,0 1,0 0,0 0,0 1,0 0,0 1,0 1,0 0,0 0,0 1,0 0,1 0,1 0,1 0,0 0,0 0,0 0,0 0,0 0,1 0,0 0,0 0,1zm44 16c0,2 0,4 -1,6 0,1 -1,2 -3,4 -1,1 -2,1 -4,2 -2,1 -4,1 -6,1 -1,0 -3,0 -4,-1 -1,0 -2,0 -3,0 -1,-1 -2,-1 -2,-2 -1,0 -1,0 -2,0 0,-1 0,-1 0,-1 0,-1 0,-1 0,-2 0,-1 0,-1 0,-1 0,-1 0,-1 0,-1 0,0 0,0 0,0 0,-1 0,-1 1,-1 0,0 0,1 1,1 0,0 1,1 2,1 1,1 2,1 3,1 1,1 3,1 4,1 2,0 3,0 4,0 1,-1 2,-1 2,-2 1,0 2,-1 2,-2 0,-1 1,-2 1,-3 0,-1 -1,-2 -1,-3 -1,-1 -1,-2 -2,-2 -1,-1 -2,-2 -3,-2 -2,-1 -3,-1 -4,-2 -1,0 -2,-1 -3,-2 -2,0 -3,-1 -3,-2 -1,-1 -2,-2 -3,-3 0,-1 0,-3 0,-5 0,-1 0,-3 1,-4 0,-2 1,-3 2,-4 1,-1 3,-1 4,-2 2,0 4,-1 5,-1 1,0 2,1 3,1 1,0 2,0 3,0 1,1 1,1 2,1 1,1 1,1 1,1 1,0 1,0 1,1 0,0 0,0 0,0 0,0 0,0 0,1 0,0 0,0 0,1 0,0 0,0 0,1 0,0 0,0 0,1 0,0 0,0 0,0 0,0 -1,0 -1,0 0,0 0,0 -1,0 0,-1 -1,-1 -2,-1 -1,-1 -1,-1 -2,-1 -1,-1 -3,-1 -4,-1 -1,0 -2,0 -3,1 -1,0 -1,0 -2,1 -1,0 -1,1 -1,2 -1,0 -1,1 -1,2 0,1 1,2 1,3 1,1 1,2 2,2 1,1 2,1 3,2 1,1 3,1 4,2 1,0 2,1 3,1 2,1 3,2 3,3 1,1 2,2 3,3 0,1 0,3 0,4zm51 -18c0,0 0,0 0,1 0,0 0,0 0,0l-9 28c0,0 0,1 0,1 0,0 0,0 0,0 -1,0 -1,0 -2,0 0,0 -1,0 -1,0 -1,0 -1,0 -2,0 0,0 -1,0 -1,0 0,0 0,0 -1,0 0,0 0,-1 0,-1l-6 -21 0 0 0 0 -6 21c0,0 0,1 0,1 0,0 0,0 -1,0 0,0 0,0 -1,0 0,0 -1,0 -2,0 0,0 -1,0 -1,0 -1,0 -1,0 -1,0 0,0 -1,0 -1,0 0,0 0,-1 0,-1l-9 -28c0,0 0,0 0,0 0,-1 0,-1 0,-1 0,0 0,0 0,0 0,-1 0,-1 1,-1 0,0 0,0 0,0 1,0 1,0 2,0 0,0 1,0 1,0 1,0 1,0 1,0 0,0 0,0 0,1 1,0 1,0 1,0l7 24 0 1 0 -1 6 -24c0,0 0,0 1,0 0,-1 0,-1 0,-1 0,0 0,0 1,0 0,0 1,0 1,0 1,0 1,0 1,0 1,0 1,0 1,0 0,0 1,0 1,1 0,0 0,0 0,0l7 24 0 1 0 -1 7 -24c0,0 0,0 0,0 0,-1 0,-1 1,-1 0,0 0,0 0,0 1,0 1,0 2,0 0,0 1,0 1,0 0,0 1,0 1,0 0,0 0,0 0,1 0,0 0,0 0,0zm15 29c0,1 0,1 0,1 0,0 0,0 0,0 0,0 -1,0 -1,0 0,0 -1,0 -1,0 -1,0 -1,0 -2,0 0,0 0,0 0,0 -1,0 -1,0 -1,0 0,0 0,0 0,-1l0 -29c0,0 0,0 0,0 0,0 0,-1 1,-1 0,0 0,0 0,0 1,0 1,0 2,0 0,0 1,0 1,0 0,0 1,0 1,0 0,0 0,1 0,1 0,0 0,0 0,0l0 29zm1 -39c0,1 0,2 -1,3 0,0 -1,0 -2,0 -2,0 -2,0 -3,0 0,-1 -1,-2 -1,-3 0,-1 1,-2 1,-2 1,-1 1,-1 3,-1 1,0 2,0 2,1 1,0 1,1 1,2zm28 37c0,1 0,1 -1,2 0,0 0,0 0,1 0,0 0,0 -1,0 0,0 0,0 -1,0 0,0 -1,1 -1,1 -1,0 -1,0 -2,0 -1,0 -3,0 -4,-1 -1,0 -2,-1 -2,-2 -1,0 -2,-2 -2,-3 0,-1 0,-2 0,-4l0 -17 -4 0c-1,0 -1,0 -1,-1 0,0 -1,-1 -1,-2 0,0 0,0 1,-1 0,0 0,0 0,0 0,0 0,-1 0,-1 0,0 0,0 1,0l4 0 0 -7c0,0 0,0 0,0 0,0 0,0 0,0 0,-1 1,-1 1,-1 0,0 1,0 1,0 1,0 1,0 2,0 0,0 0,0 0,1 1,0 1,0 1,0 0,0 0,0 0,0l0 7 8 0c0,0 0,0 0,0 0,0 0,1 0,1 0,0 0,0 1,0 0,1 0,1 0,1 0,1 -1,2 -1,2 0,1 0,1 0,1l-8 0 0 16c0,2 0,4 1,5 1,1 2,1 3,1 1,0 1,0 1,0 1,0 1,0 1,0 1,0 1,-1 1,-1 0,0 1,0 1,0 0,0 0,0 0,0 0,0 0,0 0,1 0,0 0,0 1,0 0,0 0,1 0,1zm30 -2c0,0 0,1 0,1 0,0 0,0 0,1 0,0 0,0 0,0 0,0 -1,0 -1,1 0,0 -1,0 -1,1 -1,0 -2,0 -2,1 -1,0 -2,0 -3,1 -1,0 -2,0 -3,0 -2,0 -4,-1 -6,-1 -1,-1 -3,-2 -4,-3 -1,-2 -2,-3 -2,-5 -1,-2 -1,-4 -1,-7 0,-3 0,-5 1,-7 1,-2 2,-4 3,-5 1,-2 2,-3 4,-3 2,-1 4,-1 6,-1 0,0 1,0 2,0 1,0 2,0 3,1 0,0 1,0 2,1 0,0 1,0 1,1 0,0 0,0 0,0 1,0 1,0 1,1 0,0 0,0 0,0 0,1 0,1 0,1 0,1 0,2 0,2 -1,0 -1,1 -1,1 0,0 -1,-1 -1,-1 -1,0 -1,-1 -2,-1 -1,-1 -1,-1 -2,-1 -1,-1 -2,-1 -4,-1 -2,0 -4,1 -5,3 -2,2 -3,5 -3,9 0,2 1,3 1,5 0,1 1,2 2,3 0,1 1,2 2,2 1,1 2,1 4,1 1,0 2,0 3,0 1,-1 2,-1 2,-2 1,0 2,-1 2,-1 0,0 1,-1 1,-1 0,0 0,0 1,1 0,0 0,0 0,0 0,0 0,0 0,1 0,0 0,0 0,1z"/>
   <path class="fil0" d="M487 464c0,1 0,1 0,1 0,0 0,0 0,0 0,0 -1,0 -1,0 0,0 -1,0 -1,0 -1,0 -1,0 -2,0 0,0 0,0 0,0 -1,0 -1,0 -1,0 0,0 0,0 0,-1l0 -17c0,-1 0,-3 0,-4 -1,-1 -1,-2 -2,-2 0,-1 -1,-2 -1,-2 -1,-1 -2,-1 -3,-1 -2,0 -3,1 -4,2 -2,1 -3,2 -4,4l0 20c0,1 0,1 -1,1 0,0 0,0 0,0 0,0 0,0 -1,0 0,0 -1,0 -1,0 -1,0 -1,0 -1,0 -1,0 -1,0 -1,0 -1,0 -1,0 -1,0 0,0 0,0 0,-1l0 -43c0,0 0,0 0,-1 0,0 0,0 1,0 0,0 0,0 1,0 0,0 0,0 1,0 0,0 1,0 1,0 1,0 1,0 1,0 0,0 0,0 0,0 1,1 1,1 1,1l0 17c1,-1 3,-2 4,-3 2,-1 3,-1 5,-1 2,0 3,0 5,1 1,0 2,1 3,2 1,1 1,3 2,4 0,2 0,3 0,6l0 17z"/>
  </g>
 </g>
</svg>
