<?xml version="1.0" encoding="UTF-8"?>
<!DOCTYPE svg PUBLIC "-//W3C//DTD SVG 1.1//EN" "http://www.w3.org/Graphics/SVG/1.1/DTD/svg11.dtd">
<!-- Creator: CorelDRAW X8 -->
<svg xmlns="http://www.w3.org/2000/svg" xml:space="preserve" width="78.9677mm" height="74.8427mm" version="1.1" style="shape-rendering:geometricPrecision; text-rendering:geometricPrecision; image-rendering:optimizeQuality; fill-rule:evenodd; clip-rule:evenodd"
viewBox="0 0 138 131"
 xmlns:xlink="http://www.w3.org/1999/xlink">
 <defs>
  <style type="text/css">
   <![CDATA[
    .fil1 {fill:none}
    .fil0 {fill:#FEFEFE}
    .fil2 {fill:#FEFEFE;fill-rule:nonzero}
   ]]>
  </style>
 </defs>
 <g id="图层_x0020_1">
  <metadata id="CorelCorpID_0Corel-Layer"/>
  <g id="_2789675437520">
   <path class="fil0" d="M46 53c0,0 0,1 1,1 0,2 0,3 0,4l0 5c0,1 0,1 0,1 -1,0 -2,0 -3,-1 -3,0 -5,-2 -8,-2 -1,0 -2,1 -2,2 0,2 0,3 1,5 0,2 0,2 2,2 2,0 2,0 2,-1 1,0 1,0 1,0l3 1c1,0 1,0 1,0 0,0 0,0 1,0 1,0 6,2 7,1 1,-1 1,-1 1,-2 1,-2 1,-4 1,-6l0 -3c0,0 0,-1 0,-1 1,-2 0,-2 2,-2 1,0 3,1 4,1 0,2 -2,4 -3,6 0,0 0,0 -1,1 -1,2 -2,3 -2,5 0,1 -1,0 3,1 2,0 4,0 6,0 0,0 0,-1 0,-1 -1,-1 -1,-1 -2,-1 1,-2 4,-6 5,-9 1,-2 1,-4 0,-6 0,0 -1,-1 -1,-1 -1,-1 -2,-1 -4,-2 0,0 -1,0 -1,0 -2,-1 -2,-3 -1,-5 0,0 0,-1 0,-1l0 -1c3,0 6,0 8,-1 0,0 0,-1 1,-1 1,-1 1,-3 2,-4 0,0 0,0 0,0 0,0 0,0 0,0l1 -1c0,0 0,0 1,-1 0,0 -1,-1 -1,-2 1,0 3,0 4,0 1,-1 3,-1 3,-2 1,0 1,0 1,0 0,0 1,-1 1,-2 0,-1 -2,-2 -3,-2 0,0 -1,0 -1,0 -1,0 -1,0 -1,0 -1,-1 -1,-2 -2,-3 -2,-2 -4,0 -4,2 0,1 0,2 0,3 0,1 0,1 1,1 0,1 0,2 0,3 0,0 -1,0 -1,0 -1,1 -2,2 -3,3l-1 1c0,0 -1,1 -2,1 0,0 -2,-2 -2,-2 -1,-1 -1,-2 -2,-2 0,-1 0,-2 0,-3 0,-1 0,0 0,-1l1 0c0,0 0,0 0,-1 1,-1 0,-5 -1,-7 0,0 0,-1 -1,-1 -4,0 -7,1 -6,6 1,1 1,2 1,3 0,0 0,1 0,1 -2,2 -3,5 -3,8 0,2 -1,3 -1,5 -1,2 -3,6 -3,8z"/>
   <path class="fil0" d="M88 5c0,2 0,3 0,4 1,1 1,1 1,1 0,1 0,1 1,1 1,0 2,0 2,2 0,1 -1,2 -2,3 -1,0 -3,2 -3,3 0,1 1,2 2,4 0,0 0,1 0,1 -1,0 -1,0 -2,0l-2 0c-1,0 -4,0 -5,1 -1,0 -2,1 -2,1 3,2 7,0 10,1 1,0 1,0 1,2 0,2 -1,3 -1,4 -1,4 -2,7 -2,10 0,1 0,2 0,3 0,0 0,0 1,0 1,1 1,1 2,2 0,2 0,6 -1,8 0,0 0,1 0,1 0,2 0,4 0,5 -1,2 -1,5 -2,6 0,1 -1,1 -2,1 0,1 0,1 0,2 1,0 2,1 4,0 1,-1 2,-2 2,-3 0,1 0,2 1,2 0,1 0,1 0,1 0,0 0,0 0,0 1,-1 1,-3 1,-4 0,0 1,-1 1,-2 0,0 -1,-1 -1,-2 0,-1 0,-3 0,-5 1,-1 1,-1 1,-2l1 2c0,0 0,0 0,0l1 4c0,2 1,4 1,7 0,0 -1,1 -1,1 0,0 -1,1 -1,1 0,1 0,0 0,1 1,0 1,0 2,0l0 0c1,0 2,-1 2,-1 0,0 1,0 1,-1 0,0 0,0 0,0 0,0 0,0 0,-1 0,0 0,0 0,0l1 1c0,0 0,0 1,0 0,0 0,0 0,0 0,0 0,0 0,-1 0,-1 0,-2 0,-3 -1,-4 -2,-2 -2,-5 -1,-1 -1,-2 -1,-2 0,-2 0,-4 0,-6 0,-1 -1,-1 -1,-2 0,-1 0,-1 -1,-2 0,0 0,-1 0,-1 0,0 0,0 1,0 1,0 1,0 2,-1 1,0 1,0 1,-2 0,0 0,0 0,-1 0,0 0,-1 0,-1l-1 -4c0,0 0,0 0,-1 0,-2 0,-4 -1,-7 -1,-2 -2,-3 -2,-6 0,0 0,-1 0,-2 2,0 0,1 3,1 0,-1 0,-1 0,-1 0,0 -1,-1 -1,-1l2 0c0,-1 0,-1 1,-1 0,0 0,-1 0,-1 0,0 2,0 2,0 1,0 0,0 1,0l0 0 -1 0c0,-1 0,-1 0,-2 -1,0 0,-1 0,-1 0,0 0,0 0,0 0,0 0,1 0,1 1,-1 1,-1 1,-1 0,-1 0,-1 0,-2 0,-1 0,-1 0,-1 -1,0 -2,-1 -2,-2 0,0 2,0 2,-2 0,0 -1,1 -2,0 0,0 0,-1 0,-1 0,0 0,0 -1,0l0 -2c0,0 -1,-1 -1,-1l-2 -3c-1,-3 -4,-4 -7,-3 -2,1 -3,3 -3,5z"/>
  </g>
  <rect class="fil1" width="138" height="117"/>
  <rect class="fil1" width="138" height="131"/>
  <path class="fil2" d="M54 87c0,0 1,0 1,1 0,0 0,0 0,1l0 1c0,0 0,1 1,1 0,0 0,0 1,0l1 0c0,0 1,0 1,1 0,0 0,0 0,1l0 0c0,1 0,1 0,1 0,1 -1,1 -1,1l-2 0c0,0 -1,0 -1,-1 -1,0 -1,0 -1,0l-1 -1c0,0 -1,-1 -1,-1 0,-1 0,-1 0,-1l0 -2c0,-1 0,-1 0,-1 0,-1 1,-1 1,-1l1 0zm-3 22c0,0 0,0 0,-1 0,0 1,0 1,0l1 0c0,0 1,0 1,0 0,-1 0,-1 0,-1l0 -9c0,0 0,0 1,-1 0,0 0,0 1,0l0 0c1,0 1,0 1,0 1,1 1,1 1,1l0 9c0,1 0,1 -1,2 0,0 0,0 0,1l-1 0c0,1 -1,1 -1,1 -1,0 -1,0 -1,0l-2 0c0,0 -1,0 -1,0 0,0 0,-1 0,-1l0 -1zm24 1c0,0 0,1 0,1 0,0 0,0 -1,0l-1 0c-1,0 -1,0 -1,0 -1,0 -1,0 -2,-1l0 0c-1,-1 -1,-1 -1,-1 0,-1 0,-1 0,-2l0 -9c0,-1 0,-1 0,-1 0,0 1,-1 1,-1l1 0c0,0 0,1 1,1 0,0 0,0 0,1l0 9c0,0 0,0 0,1 1,0 1,0 1,0l1 0c1,0 1,0 1,0 0,1 0,1 0,1l0 1zm0 -29c0,0 0,0 0,1 0,0 0,1 0,1l-1 1c-1,0 -1,0 -1,0 -1,1 -1,1 -2,1l-5 0c0,0 -1,0 -1,0 0,0 0,1 0,1l0 21c0,1 0,1 0,2 -1,0 -1,0 -1,1l-1 0c0,1 -1,1 -1,1 0,0 -1,0 -1,0l-1 0c0,0 -1,0 -1,0 0,0 0,-1 0,-1l0 -1c0,0 0,0 0,-1 0,0 1,0 1,0l0 0c0,0 1,0 1,0 0,-1 0,-1 0,-1l0 -21c0,0 0,-1 0,-1 0,0 -1,0 -1,0l-8 0c0,0 -1,0 -1,-1 0,0 0,0 0,-1l0 -1c0,0 0,0 0,0 0,-1 1,-1 1,-1l8 0c0,0 1,0 1,0 0,0 0,-1 0,-1l0 -1c0,-1 1,-1 1,-1 0,0 0,-1 1,-1l1 0c0,0 0,1 0,1 1,0 1,0 1,1l0 1c0,0 0,1 0,1 0,0 1,0 1,0l5 0c0,0 0,0 1,0 0,0 0,-1 0,-1 0,0 0,-1 0,-1 1,0 1,0 1,0l1 0c1,0 1,0 1,0 0,0 0,1 0,1l0 1zm-4 8c0,-1 0,-1 0,-1 1,-1 1,-1 1,-1l1 0c1,0 1,0 1,1 0,0 0,0 0,1l0 2c0,0 0,0 0,1 0,0 0,1 0,1l-1 1c-1,0 -1,0 -1,0 -1,1 -1,1 -2,1l-2 0c0,0 0,0 -1,-1 0,0 0,0 0,-1l0 0c0,-1 0,-1 0,-1 1,-1 1,-1 1,-1l2 0c0,0 0,0 1,0 0,0 0,-1 0,-1l0 -1zm19 12c0,1 0,1 0,2 0,0 -1,1 -1,1l0 0c0,1 -1,1 -1,1 0,1 1,1 1,1l0 1c0,0 0,0 1,1 0,0 0,0 0,0 1,0 1,0 1,0 0,1 0,1 0,1l0 1c0,0 0,1 0,1 -1,0 -1,0 -1,0l0 0c-1,0 -1,0 -2,0 0,0 0,0 -1,-1l0 -1c0,0 -1,0 -1,0 0,0 -1,0 -1,0l-1 1c0,1 0,1 0,1 -1,0 -1,0 -2,0l0 0c0,0 0,0 -1,0 0,0 0,-1 0,-1l0 -1c0,0 0,0 0,-1 0,0 0,0 1,0 0,0 0,0 0,0 0,-1 1,-1 1,-1l0 -1c0,0 1,0 1,-1 0,0 -1,0 -1,-1l0 0c0,0 -1,-1 -1,-1 0,-1 0,-1 0,-2l0 -17c0,0 0,0 0,0 0,-1 0,-1 0,-1 -1,0 -1,0 -1,0 0,-1 0,-1 0,-1l0 -1c0,0 0,-1 0,-1 0,0 0,0 1,0 0,0 0,0 0,-1 0,0 0,0 0,0 0,-1 0,-1 0,-1 1,0 1,-1 1,-1l1 0c0,0 1,1 1,1 0,0 0,0 0,1 0,0 0,0 0,0 1,1 1,1 1,1 0,0 0,0 1,-1 0,0 0,0 0,0 0,-1 0,-1 0,-1 0,0 1,-1 1,-1l1 0c0,0 0,1 1,1 0,0 0,0 0,1 0,0 0,0 0,0 0,1 0,1 0,1 1,0 1,0 1,0 0,0 0,1 0,1l0 1c0,0 0,0 0,1 0,0 0,0 -1,0 0,0 0,0 0,1 0,0 0,0 0,0l0 17zm16 6c0,1 0,1 -1,2 0,0 0,0 0,1l-1 0c0,1 -1,1 -1,1 0,0 -1,0 -1,0l-9 0c0,0 0,0 -1,0 0,0 0,-1 0,-1l0 -12c0,-1 0,-1 0,-1 1,-1 1,-1 1,-1l11 0c1,0 1,0 1,1 0,0 1,0 1,1l0 9zm-2 -26c0,0 -1,1 -1,1 0,1 0,1 0,1l0 1c0,1 0,1 0,1 1,1 1,1 1,1 1,0 1,0 1,0 0,0 1,1 1,1l0 1c0,0 -1,0 -1,1 0,0 0,0 -1,0 0,0 0,0 -1,0 0,1 0,1 0,1l0 1c0,0 0,1 0,1 1,0 1,0 1,0 1,0 1,0 1,1 0,0 1,0 1,1l0 0c0,0 -1,1 -1,1 0,0 0,0 -1,0l0 0c-1,0 -1,0 -2,0 0,0 0,0 -1,-1l0 0c-1,0 -1,-1 -1,-1 0,-1 0,-1 0,-1l0 -2c0,0 -1,0 -1,-1 0,0 0,0 -1,0l-2 0c0,0 0,0 -1,0 0,1 0,1 0,1l0 1c0,0 0,1 0,1 1,0 1,0 1,0l1 0c1,0 1,0 1,1 1,0 1,0 1,1l0 0c0,0 0,1 -1,1 0,0 0,0 -1,0l-1 0c-1,0 -1,0 -2,0 0,0 0,0 -1,-1l0 0c0,0 -1,-1 -1,-1 0,-1 0,-1 0,-1l0 -12c0,0 0,-1 0,-1 1,0 1,0 1,0l8 0c0,0 1,0 1,0 0,-1 0,-1 0,-1 0,0 0,0 1,0 0,0 0,-1 0,-1l1 0c1,0 1,1 1,1 0,0 1,0 1,0 0,1 -1,1 -1,1 0,1 0,1 0,1l-1 1zm-18 21c0,0 0,0 0,0 0,0 0,0 0,0 1,0 1,0 1,-1 0,0 0,-1 0,-1l0 -16c0,0 0,0 0,0 -1,-1 -1,-1 -1,-1 0,0 0,0 -1,1 0,0 0,0 0,0l0 16c0,0 0,1 0,1 0,1 0,1 1,1zm15 6c1,0 1,0 1,0 0,-1 0,-1 0,-1 0,-1 0,-1 0,-1 0,0 0,0 -1,0l-5 0c0,0 0,0 -1,0 0,0 0,0 0,1 0,0 0,0 0,1 1,0 1,0 1,0l5 0zm-5 -8c0,0 0,0 -1,0 0,0 0,1 0,1 0,0 0,1 0,1 1,0 1,0 1,0l5 0c1,0 1,0 1,0 0,0 0,-1 0,-1 0,0 0,-1 0,-1 0,0 0,0 -1,0l-5 0zm2 -14c1,0 1,0 1,-1 0,0 1,0 1,-1l0 0c0,-1 -1,-1 -1,-1 0,-1 0,-1 -1,-1l-2 0c0,0 0,0 -1,1 0,0 0,0 0,1l0 0c0,1 0,1 0,1 1,1 1,1 1,1l2 0z"/>
  <path class="fil0" d="M29 90c4,0 7,3 7,6 0,4 -3,7 -7,7 -3,0 -6,-3 -6,-7 0,-3 3,-6 6,-6z"/>
  <path class="fil2" d="M58 120c0,1 0,1 -1,2 0,0 0,0 0,1 -1,0 -1,0 -2,0 0,1 -1,1 -1,1l-2 0 0 4c0,0 0,0 0,0 0,0 0,0 0,0 0,0 0,0 0,0 0,0 0,0 0,0 -1,0 -1,0 -1,0 0,0 0,0 0,0 0,0 0,0 0,0 0,0 0,0 0,0l0 -11c0,0 0,0 0,0 0,0 0,0 0,0l3 0c0,0 0,0 0,0 1,0 1,0 1,0 1,0 1,0 1,0 0,1 1,1 1,1 0,0 0,1 0,1 1,0 1,1 1,1zm-2 0c0,0 0,-1 0,-1 0,0 -1,0 -1,-1 0,0 0,0 -1,0 0,0 0,0 0,0l-2 0 0 4 2 0c0,0 0,0 1,0 0,0 0,0 0,0 1,0 1,-1 1,-1 0,0 0,-1 0,-1zm9 0c0,1 0,1 0,1 0,0 0,0 0,0 0,0 0,0 0,0 0,0 0,0 0,0 0,0 0,0 0,0 0,0 -1,0 -1,0 0,0 0,0 0,0 0,0 0,0 0,0 0,0 -1,0 -1,0 0,0 0,0 0,0 0,0 0,1 -1,1 0,0 0,0 0,1l0 5c0,0 0,0 0,0 0,0 0,0 0,0 0,0 0,0 0,0 -1,0 -1,0 -1,0 0,0 0,0 0,0 0,0 0,0 0,0 0,0 0,0 0,0 0,0 -1,0 -1,0l0 -8c0,0 1,0 1,0 0,0 0,0 0,0 0,0 0,0 0,0 0,0 0,0 0,0 0,0 0,0 0,0 1,0 1,0 1,0 0,0 0,0 0,0 0,0 0,0 0,0l0 1c0,0 0,0 0,-1 1,0 1,0 1,0 0,0 0,0 0,0 1,0 1,0 1,0 0,0 0,0 0,0 0,0 0,0 0,0 1,0 1,0 1,0 0,0 0,0 0,0 0,0 0,0 0,0 0,0 0,0 0,0 0,0 0,0 0,0 0,0 0,0 0,0zm9 4c0,0 0,1 0,1 0,1 0,1 -1,2 0,0 -1,0 -1,1 0,0 -1,0 -2,0 0,0 -1,0 -1,0 -1,0 -1,-1 -2,-1 0,0 0,-1 0,-1 0,-1 0,-1 0,-2 0,-1 0,-1 0,-2 0,0 0,-1 1,-1 0,-1 0,-1 1,-1 0,0 1,0 1,0 1,0 2,0 2,0 1,0 1,0 1,1 1,0 1,0 1,1 0,0 0,1 0,2zm-1 0c0,-1 0,-1 0,-1 0,-1 -1,-1 -1,-1 0,-1 0,-1 0,-1 -1,0 -1,0 -2,0 0,0 0,0 -1,0 0,0 0,0 0,1 -1,0 -1,0 -1,1 0,0 0,0 0,1 0,0 0,1 0,1 0,0 0,1 1,1 0,0 0,0 0,1 1,0 1,0 1,0 1,0 1,0 1,0 1,-1 1,-1 1,-1 0,0 1,-1 1,-1 0,0 0,-1 0,-1zm11 0c0,0 0,1 0,1 0,1 0,1 -1,2 0,0 0,1 -1,1 0,0 -1,0 -1,0 0,0 -1,0 -1,0 0,0 0,0 0,0 -1,0 -1,0 -1,-1 0,0 0,0 -1,0l0 4c0,0 0,0 0,0 0,0 0,0 0,0 0,0 0,0 0,0 0,0 0,0 0,0 0,0 0,0 -1,0 0,0 0,0 0,0 0,0 0,0 0,0 0,0 0,0 0,0l0 -11c0,0 0,0 0,0 0,0 0,0 0,0 0,0 0,0 0,0 0,0 1,0 1,0 0,0 0,0 0,0 0,0 0,0 0,0 0,0 0,0 0,0 0,0 0,0 0,0l0 1c1,0 1,0 1,-1 0,0 0,0 1,0 0,0 0,0 0,0 1,0 1,0 1,0 1,0 1,0 1,0 1,0 1,0 1,1 1,0 1,1 1,1 0,1 0,1 0,2zm-1 0c0,-1 0,-1 0,-1 0,-1 -1,-1 -1,-1 0,-1 0,-1 0,-1 -1,0 -1,0 -1,0 0,0 -1,0 -1,0 0,0 0,0 0,0 0,0 -1,0 -1,1 0,0 0,0 -1,0l0 3c1,1 1,1 2,1 0,1 0,1 1,1 0,0 0,0 1,0 0,-1 0,-1 0,-1 0,0 0,-1 1,-1 0,0 0,-1 0,-1zm11 0c0,0 0,1 0,1 0,1 -1,1 -1,2 0,0 -1,0 -1,1 -1,0 -1,0 -2,0 0,0 -1,0 -1,0 -1,0 -1,-1 -2,-1 0,0 0,-1 0,-1 0,-1 -1,-1 -1,-2 0,-1 1,-1 1,-2 0,0 0,-1 0,-1 1,-1 1,-1 2,-1 0,0 1,0 1,0 1,0 2,0 2,0 1,0 1,0 1,1 1,0 1,0 1,1 0,0 0,1 0,2zm-1 0c0,-1 0,-1 0,-1 -1,-1 -1,-1 -1,-1 0,-1 0,-1 -1,-1 0,0 0,0 -1,0 0,0 0,0 -1,0 0,0 0,0 0,1 -1,0 -1,0 -1,1 0,0 0,0 0,1 0,0 0,1 0,1 0,0 0,1 0,1 1,0 1,0 1,1 0,0 1,0 1,0 1,0 1,0 1,0 1,-1 1,-1 1,-1 0,0 0,-1 1,-1 0,0 0,-1 0,-1zm9 2c0,0 0,0 0,1 -1,0 -1,0 -1,0 0,1 -1,1 -1,1 0,0 -1,0 -1,0 0,0 -1,0 -1,0 0,0 0,0 -1,0 0,0 0,0 0,0 0,0 0,-1 0,-1 0,0 -1,0 -1,0 0,0 0,0 0,0 0,0 0,0 0,-1 0,0 0,0 0,0 0,0 1,0 1,0 0,0 0,0 0,0 0,0 0,0 0,0 0,0 0,0 0,1 1,0 1,0 1,0 0,0 1,0 1,0 0,0 0,0 0,0 1,0 1,0 1,0 0,-1 0,-1 0,-1 0,0 0,0 0,0 0,-1 0,-1 0,-1 0,0 0,0 0,0 0,0 -1,0 -1,-1 0,0 0,0 0,0 -1,0 -1,0 -1,0 0,0 -1,0 -1,-1 0,0 0,0 0,0 0,-1 0,-1 0,-1 0,0 0,-1 0,-1 0,0 0,-1 0,-1 1,0 1,0 1,0 1,0 1,0 1,0 1,0 1,0 1,0 0,0 0,0 1,0 0,0 0,0 0,0 0,0 0,0 0,0 0,0 0,0 0,0 0,0 0,0 0,0 0,0 0,0 0,0 0,1 0,1 0,1 0,0 0,0 0,0 0,0 0,0 0,0 0,0 0,0 0,0 0,0 0,0 0,0 0,0 0,0 0,0 0,0 0,0 0,0 -1,0 -1,0 -1,0 0,0 0,0 -1,0 0,0 0,0 0,0 0,0 -1,0 -1,0 0,0 0,0 0,0 0,0 0,1 0,1 0,0 0,0 0,0 0,0 0,1 1,1 0,0 0,0 0,0 0,0 1,0 1,0 0,0 0,1 1,1 0,0 0,0 0,0 0,0 1,0 1,1 0,0 0,0 0,1zm9 -3c0,1 0,1 0,1 0,0 0,0 0,0l-5 0c0,1 0,1 0,1 0,1 0,1 0,1 0,0 1,1 1,1 0,0 1,0 1,0 0,0 1,0 1,0 0,0 1,0 1,0 0,0 0,-1 0,-1 0,0 1,0 1,0 0,0 0,0 0,0 0,0 0,0 0,0 0,0 0,1 0,1 0,0 0,0 0,0 0,0 0,0 0,0 0,0 0,0 0,0 0,0 0,0 0,0 0,0 0,0 0,0 0,0 0,0 -1,1 0,0 0,0 0,0 0,0 -1,0 -1,0 0,0 -1,0 -1,0 -1,0 -1,0 -2,0 0,0 -1,-1 -1,-1 0,0 0,-1 -1,-1 0,-1 0,-1 0,-2 0,-1 0,-1 0,-2 1,0 1,-1 1,-1 0,-1 1,-1 1,-1 1,0 1,0 2,0 0,0 1,0 1,0 1,0 1,0 1,1 1,0 1,0 1,1 0,0 0,1 0,1l0 0zm-1 0c0,-1 0,-1 -1,-2 0,0 -1,0 -1,0 -1,0 -1,0 -1,0 0,0 -1,0 -1,0 0,1 0,1 0,1 0,0 0,1 0,1l4 0z"/>
 </g>
</svg>
