<?xml version="1.0" encoding="UTF-8"?>
<!DOCTYPE svg PUBLIC "-//W3C//DTD SVG 1.1//EN" "http://www.w3.org/Graphics/SVG/1.1/DTD/svg11.dtd">
<!-- Creator: CorelDRAW X8 -->
<svg xmlns="http://www.w3.org/2000/svg" xml:space="preserve" width="85.9857mm" height="25.9234mm" version="1.1" style="shape-rendering:geometricPrecision; text-rendering:geometricPrecision; image-rendering:optimizeQuality; fill-rule:evenodd; clip-rule:evenodd"
viewBox="0 0 2327 702"
 xmlns:xlink="http://www.w3.org/1999/xlink">
 <defs>
  <style type="text/css">
   <![CDATA[
    .str0 {stroke:white;stroke-width:20.2972}
    .fil0 {fill:none}
    .fil1 {fill:#FEFEFE;fill-rule:nonzero}
   ]]>
  </style>
 </defs>
 <g id="图层_x0020_1">
  <metadata id="CorelCorpID_0Corel-Layer"/>
  <path class="fil0 str0" d="M1260 243c40,0 73,32 73,72 0,40 -33,73 -73,73 -20,0 -38,-8 -51,-22 -11,21 -28,40 -49,58l-84 0 -83 0c-43,-34 -65,-77 -65,-119l0 -82 148 0 149 0 0 29c10,-6 22,-9 35,-9zm0 36c20,0 36,16 36,36 0,20 -16,36 -36,36 -19,0 -36,-16 -36,-36 0,-20 17,-36 36,-36z"/>
  <polygon class="fil0 str0" points="1076,450 866,448 938,490 1076,490 1215,490 1287,448 "/>
  <path class="fil0 str0" d="M977 10c0,0 64,27 24,93 -29,49 -2,76 -2,77 -1,0 -63,-14 -16,-92 27,-46 -6,-78 -6,-78z"/>
  <path class="fil0 str0" d="M1063 10c1,0 64,27 25,93 -30,49 -3,76 -3,77 -1,0 -62,-14 -16,-92 27,-46 -6,-78 -6,-78z"/>
  <path class="fil0 str0" d="M1150 10c0,0 63,27 24,93 -30,49 -2,76 -3,77 -1,0 -62,-14 -16,-92 28,-46 -6,-78 -5,-78z"/>
  <path class="fil1" d="M266 161c4,0 8,-1 12,-5 3,-3 5,-7 5,-12l0 -54c0,-5 -2,-9 -5,-13 -4,-3 -7,-4 -12,-4l-60 0c-5,0 -9,1 -12,4 -3,4 -5,8 -5,13l0 123c0,5 2,9 5,12 4,4 7,5 12,5l104 0c5,0 9,2 12,5 3,3 5,7 5,12l0 96c0,5 -1,10 -3,17 -2,6 -4,11 -7,15l-15 21c-2,3 -4,8 -4,13 0,6 1,10 4,14 3,4 5,7 9,9 3,3 6,4 8,4 3,0 4,2 6,5 1,4 2,8 2,13l0 10c0,5 -2,9 -5,12 -3,4 -7,5 -12,5l-1 0c-5,0 -10,-1 -16,-4 -5,-3 -9,-6 -12,-10l-5 -6c-3,-4 -6,-6 -10,-6 -4,0 -7,2 -10,6l-5 6c-2,4 -6,7 -12,10 -5,3 -10,4 -15,4l-6 0c-5,0 -9,-1 -12,-5 -4,-3 -5,-7 -5,-12l0 -10c0,-5 1,-9 3,-13 2,-3 4,-5 7,-5 3,0 6,-1 10,-4 3,-3 6,-6 9,-10 3,-3 4,-8 4,-13 0,-6 -2,-10 -4,-14l-14 -20c-3,-4 -5,-9 -8,-15 -2,-7 -3,-12 -3,-17l0 -32c0,-4 2,-8 5,-12 4,-3 8,-5 13,-5l7 0c4,0 8,2 12,5 3,4 5,8 5,12l0 18c0,5 1,10 2,16 2,6 4,11 7,15 2,3 6,5 9,4 4,0 7,-2 10,-6l1 -1c3,-5 5,-10 7,-16 2,-6 3,-12 3,-17l0 -30c0,-5 -2,-9 -5,-13 -4,-3 -8,-5 -12,-5l-63 0c-5,0 -9,2 -12,5 -3,4 -5,8 -5,13l0 168c0,5 -2,9 -5,12 -4,3 -8,5 -13,5l-11 0c-4,0 -8,-2 -12,-5 -4,-3 -5,-7 -5,-12l0 -418c0,-5 1,-9 5,-12 3,-4 7,-6 12,-6l151 0c5,0 9,2 13,6 3,3 5,7 5,12l0 146c0,4 -2,8 -5,11 -4,4 -8,5 -13,5l-77 0c-5,0 -9,-1 -13,-5 -3,-3 -5,-7 -5,-11l0 -11c0,-5 2,-9 5,-13 4,-3 8,-5 13,-5l32 0zm-199 278c2,-3 4,-5 7,-5 2,0 5,-2 7,-6 2,-3 3,-7 3,-12l0 -53c0,-5 -2,-10 -5,-13 -3,-3 -7,-5 -12,-5l-4 0c-5,0 -9,2 -12,5 -3,3 -5,8 -5,13l0 99c0,5 -2,9 -5,12 -4,3 -8,5 -13,5l-11 0c-5,0 -9,-2 -12,-5 -3,-3 -5,-7 -5,-12l0 -419c0,-4 2,-8 5,-12 3,-3 7,-5 12,-5l96 0c4,0 9,2 12,5 3,4 5,8 5,12l0 419c0,5 -2,9 -5,12 -3,3 -8,5 -12,5l-32 0c-5,0 -9,-2 -12,-5 -4,-3 -6,-7 -6,-12l0 -11c0,-4 2,-8 4,-12zm-21 -287c0,4 2,8 5,12 3,3 7,5 12,5l4 0c5,0 9,-2 12,-5 3,-4 5,-8 5,-12l0 -63c0,-4 -2,-8 -5,-12 -3,-3 -7,-5 -12,-5l-4 0c-5,0 -9,2 -12,5 -3,4 -5,8 -5,12l0 63zm21 148c5,0 9,-2 12,-6 3,-3 5,-7 5,-12l0 -50c0,-5 -2,-9 -5,-13 -3,-3 -7,-5 -12,-5l-4 0c-5,0 -9,2 -12,5 -3,4 -5,8 -5,13l0 50c0,5 2,9 5,12 3,4 7,6 12,6l4 0zm656 -253c4,0 7,1 9,5 3,3 4,7 4,12l0 52c0,4 -1,9 -4,14 -3,5 -7,9 -11,11l-90 46c-5,2 -7,4 -7,7 0,3 2,5 7,7l23 11c4,2 9,4 16,6 6,1 12,2 17,2l31 0c5,0 9,2 13,5 3,4 5,8 5,13l0 11c0,4 -2,8 -5,11 -4,4 -8,5 -13,5l-41 0c-5,0 -10,0 -16,-2 -7,-1 -12,-3 -16,-5l-64 -30c-5,-3 -10,-4 -16,-4 -6,0 -11,2 -16,4l-59 30c-5,2 -10,4 -17,5 -6,2 -12,2 -16,2l-33 0c-5,0 -9,-1 -13,-5 -3,-3 -5,-7 -5,-11l0 -11c0,-5 2,-9 5,-13 4,-3 8,-5 13,-5l23 0c5,0 10,-1 17,-2 7,-2 12,-4 16,-6l18 -9c4,-2 6,-5 6,-8 0,-3 -2,-5 -6,-7l-33 -16c-4,-2 -10,-4 -16,-5 -7,-2 -12,-2 -17,-2l-8 0c-5,0 -9,-2 -13,-6 -3,-3 -5,-7 -5,-12l0 -11c0,-5 2,-9 5,-12 4,-4 8,-5 13,-5l18 0c5,0 11,0 18,2 6,1 12,3 16,5l72 35c5,2 10,3 16,3 6,0 11,-1 15,-4l96 -49c4,-2 8,-5 11,-7 3,-2 4,-4 4,-6 0,-2 -2,-3 -5,-4 -4,-1 -8,-1 -13,-1l-212 0c-5,0 -10,-1 -16,-3 -6,-3 -11,-5 -14,-9l-11 -9c-3,-3 -6,-7 -9,-13 -3,-5 -4,-11 -4,-16 0,-4 2,-8 5,-12 3,-3 7,-5 12,-5l11 0c5,0 9,1 13,3 3,2 5,5 5,7 0,3 1,6 5,8 3,2 7,3 12,3l254 0zm-228 232c4,0 8,1 12,3 3,3 5,5 5,8 0,3 1,5 5,7 3,2 7,4 12,4l189 0c5,0 9,0 13,1 3,1 5,2 5,4l0 121c0,5 -1,10 -3,16 -3,6 -6,10 -9,13l-12 13c-4,4 -9,7 -15,9 -6,2 -11,3 -15,3l-119 0c-5,0 -9,-1 -13,-5 -4,-3 -6,-7 -6,-12l0 -11c0,-5 2,-9 6,-13 4,-3 8,-5 13,-5l109 0c5,0 9,-1 13,-5 3,-3 5,-7 5,-12l0 -54c0,-5 -2,-9 -5,-12 -4,-4 -8,-5 -13,-5l-143 0c-5,0 -9,1 -12,5 -4,3 -5,7 -5,12l0 63c0,5 -2,10 -4,16 -3,6 -6,11 -9,13l-12 13c-4,4 -8,7 -14,9 -5,2 -11,3 -15,3l-35 0c-5,0 -9,-1 -12,-5 -3,-3 -5,-7 -5,-12l0 -11c0,-5 2,-9 5,-13 3,-3 7,-5 12,-5l25 0c5,0 9,-1 12,-5 4,-3 5,-7 5,-12l0 -54c0,-5 -1,-9 -5,-12 -3,-4 -7,-5 -12,-5l-25 0c-5,0 -9,-2 -12,-6 -3,-3 -5,-7 -5,-12l0 -11c0,-5 2,-9 5,-12 3,-4 7,-5 12,-5l25 0c5,0 9,-2 12,-4 4,-2 5,-4 5,-7 0,-3 2,-5 5,-8 4,-2 8,-3 13,-3l12 0z"/>
  <path class="fil1" d="M97 658c0,7 -1,13 -4,18 -2,6 -6,10 -10,14 -5,4 -10,7 -17,9 -6,2 -12,3 -19,3 -5,0 -10,-1 -14,-2 -5,-1 -8,-2 -12,-3 -3,-1 -6,-2 -8,-4 -2,-1 -4,-2 -5,-3 -1,-1 -1,-2 -2,-3 0,-2 0,-4 0,-6 0,-2 0,-3 0,-4 0,-1 0,-2 1,-3 0,-1 0,-1 1,-1 0,-1 1,-1 1,-1 1,0 3,1 5,2 2,1 4,3 7,4 3,2 7,3 11,5 5,1 10,2 15,2 5,0 9,-1 12,-2 4,-1 7,-3 9,-5 3,-2 5,-5 6,-8 2,-3 2,-6 2,-10 0,-4 -1,-8 -2,-11 -2,-3 -5,-5 -8,-8 -3,-2 -7,-4 -11,-6 -4,-2 -8,-4 -12,-6 -4,-2 -8,-4 -12,-6 -4,-2 -8,-5 -11,-8 -3,-4 -6,-7 -8,-12 -2,-4 -3,-9 -3,-15 0,-7 2,-12 4,-17 2,-5 5,-9 9,-12 4,-3 9,-6 15,-8 5,-1 11,-2 17,-2 4,0 7,0 10,1 4,0 7,1 10,2 3,1 5,2 8,3 2,1 3,2 4,3 1,1 1,1 2,2 0,0 0,1 0,1 0,1 0,2 0,3 1,1 1,2 1,3 0,2 0,3 -1,4 0,1 0,2 0,3 0,0 -1,1 -1,1 0,1 -1,1 -1,1 -1,0 -3,-1 -4,-2 -2,-1 -4,-2 -7,-3 -3,-2 -6,-3 -9,-4 -4,-1 -8,-2 -12,-2 -4,0 -8,1 -11,2 -3,1 -6,2 -8,4 -2,2 -3,4 -4,7 -1,2 -2,5 -2,8 0,4 1,8 3,10 2,3 5,6 8,8 3,3 7,5 11,7 4,2 8,4 12,6 4,1 9,4 13,6 4,2 7,5 10,8 4,3 6,7 8,11 2,5 3,10 3,16zm125 -18c0,3 -1,5 -3,7 -1,1 -3,2 -5,2l-68 0c0,5 1,11 2,15 1,5 3,9 6,12 2,3 6,6 10,8 5,1 10,2 16,2 5,0 9,0 13,-1 4,-1 7,-2 10,-3 3,-1 5,-1 7,-2 2,-1 3,-1 4,-1 1,0 1,0 1,0 1,0 1,1 1,1 1,1 1,1 1,2 0,1 0,2 0,4 0,1 0,2 0,2 0,1 0,2 0,2 0,1 -1,1 -1,2 0,0 0,1 -1,1 0,1 -2,1 -4,2 -2,1 -4,2 -8,3 -3,1 -7,2 -11,2 -4,1 -9,2 -14,2 -8,0 -16,-2 -22,-4 -7,-2 -12,-6 -16,-11 -5,-4 -8,-10 -10,-17 -2,-7 -3,-15 -3,-25 0,-9 1,-17 3,-24 2,-7 6,-13 10,-18 4,-5 10,-8 16,-11 6,-3 13,-4 20,-4 8,0 15,1 21,4 6,3 10,6 14,10 4,5 6,10 8,16 2,6 3,12 3,19l0 3zm-19 -5c0,-10 -2,-18 -7,-24 -5,-5 -12,-8 -21,-8 -4,0 -9,1 -12,2 -4,2 -7,5 -9,8 -2,2 -4,6 -5,10 -2,4 -2,8 -3,12l57 0zm119 -35c0,2 0,3 -1,4 0,1 0,2 0,3 0,1 0,1 -1,1 0,1 -1,1 -1,1 -1,0 -2,0 -2,-1 -1,0 -2,0 -3,-1 -2,0 -3,0 -4,-1 -2,0 -3,0 -5,0 -2,0 -3,0 -5,1 -2,1 -4,2 -6,4 -2,2 -4,4 -6,7 -3,3 -5,6 -8,11l0 68c0,0 0,1 0,1 -1,1 -1,1 -2,1 0,1 -1,1 -3,1 -1,0 -2,0 -4,0 -2,0 -4,0 -5,0 -1,0 -2,0 -3,-1 -1,0 -1,0 -1,-1 -1,0 -1,-1 -1,-1l0 -104c0,0 0,-1 1,-1 0,-1 0,-1 1,-1 1,-1 2,-1 3,-1 1,0 2,0 4,0 2,0 3,0 4,0 1,0 2,0 3,1 0,0 1,0 1,1 0,0 0,1 0,1l0 15c3,-4 6,-7 8,-10 3,-2 5,-5 7,-6 3,-2 5,-3 7,-3 2,-1 4,-1 7,-1 1,0 2,0 3,0 1,0 3,1 4,1 1,0 3,0 4,1 1,0 2,1 2,1 0,0 1,1 1,1 0,0 0,1 0,1 0,1 1,2 1,3 0,1 0,2 0,4zm119 -7c0,0 0,1 0,1 -1,0 -1,1 -1,1 0,0 0,1 0,1 0,1 0,1 0,2l-36 98c0,1 0,2 -1,2 0,1 -1,1 -2,1 -1,1 -2,1 -4,1 -1,0 -3,0 -6,0 -2,0 -4,0 -5,0 -2,0 -3,0 -4,-1 -1,0 -2,0 -2,-1 -1,-1 -1,-1 -2,-2l-35 -98c0,-1 0,-2 0,-3 -1,0 -1,-1 -1,-1 0,0 0,-1 0,-1 0,-1 0,-1 1,-2 0,0 0,0 1,-1 1,0 2,0 3,0 1,0 3,0 5,0 2,0 4,0 5,0 1,0 2,0 3,0 1,1 1,1 2,2 0,0 0,1 1,1l29 86 0 1 0 -1 29 -86c0,0 1,-1 1,-1 0,-1 1,-1 2,-2 0,0 1,0 3,0 1,0 3,0 5,0 1,0 3,0 4,0 1,0 2,0 3,0 0,1 1,1 1,1 0,1 1,1 1,2zm51 104c0,0 0,1 -1,1 0,1 -1,1 -1,1 -1,1 -2,1 -3,1 -1,0 -3,0 -5,0 -2,0 -3,0 -4,0 -2,0 -3,0 -3,-1 -1,0 -2,0 -2,-1 0,0 0,-1 0,-1l0 -104c0,0 0,-1 0,-1 0,-1 1,-1 2,-1 0,-1 1,-1 3,-1 1,0 2,0 4,0 2,0 4,0 5,0 1,0 2,0 3,1 0,0 1,0 1,1 1,0 1,1 1,1l0 104zm2 -139c0,5 -1,8 -3,10 -1,1 -4,2 -9,2 -4,0 -8,-1 -9,-2 -2,-2 -3,-5 -3,-9 0,-5 1,-8 3,-9 2,-2 5,-3 9,-3 5,0 8,1 9,2 2,2 3,5 3,9zm118 123c0,1 -1,2 -1,3 0,1 0,2 0,2 0,1 0,2 -1,2 0,1 -1,1 -2,2 0,1 -2,3 -4,4 -3,1 -5,3 -8,4 -3,1 -6,2 -10,2 -3,1 -6,2 -10,2 -7,0 -14,-2 -20,-4 -5,-3 -10,-6 -14,-11 -4,-5 -7,-10 -9,-17 -2,-7 -3,-15 -3,-24 0,-10 1,-19 4,-26 2,-7 6,-13 10,-18 4,-5 9,-8 15,-10 6,-3 12,-4 19,-4 4,0 7,1 10,1 3,1 6,2 8,3 3,1 5,2 7,3 2,1 4,3 5,3 1,1 1,2 2,3 0,0 0,1 1,2 0,0 0,1 0,2 0,1 0,2 0,3 0,3 0,5 -1,7 -1,1 -1,1 -3,1 -1,0 -2,0 -3,-1 -2,-2 -4,-3 -6,-5 -2,-1 -5,-3 -8,-4 -4,-1 -8,-2 -12,-2 -9,0 -16,4 -21,11 -5,7 -7,17 -7,30 0,7 0,13 2,18 1,5 3,9 5,12 3,3 6,6 9,8 4,1 8,2 12,2 5,0 9,-1 12,-2 3,-1 6,-3 8,-5 3,-1 5,-3 7,-4 1,-1 2,-2 3,-2 1,0 1,0 2,0 0,1 1,1 1,2 0,1 0,2 0,3 0,1 1,2 1,4zm123 -41c0,3 -1,5 -2,7 -2,1 -3,2 -5,2l-68 0c0,5 1,11 2,15 1,5 3,9 5,12 3,3 7,6 11,8 4,1 9,2 16,2 4,0 9,0 13,-1 4,-1 7,-2 10,-3 2,-1 5,-1 7,-2 1,-1 3,-1 4,-1 0,0 1,0 1,0 0,0 1,1 1,1 0,1 0,1 1,2 0,1 0,2 0,4 0,1 0,2 0,2 0,1 -1,2 -1,2 0,1 0,1 0,2 -1,0 -1,1 -1,1 -1,1 -2,1 -4,2 -2,1 -5,2 -8,3 -3,1 -7,2 -11,2 -5,1 -9,2 -14,2 -9,0 -16,-2 -23,-4 -6,-2 -11,-6 -16,-11 -4,-4 -7,-10 -9,-17 -3,-7 -4,-15 -4,-25 0,-9 1,-17 4,-24 2,-7 5,-13 10,-18 4,-5 9,-8 15,-11 6,-3 13,-4 21,-4 8,0 15,1 20,4 6,3 11,6 15,10 3,5 6,10 8,16 1,6 2,12 2,19l0 3zm-19 -5c0,-10 -2,-18 -6,-24 -5,-5 -12,-8 -21,-8 -5,0 -9,1 -12,2 -4,2 -7,5 -9,8 -3,2 -5,6 -6,10 -1,4 -2,8 -2,12l56 0z"/>
  <path class="fil1" d="M1751 196c26,0 48,5 66,16 18,10 32,25 41,44 10,19 14,41 14,67 0,19 -2,36 -7,52 -6,15 -13,29 -24,40 -10,11 -22,20 -37,26 -15,6 -33,9 -52,9 -19,0 -36,-3 -51,-9 -16,-6 -28,-15 -39,-26 -10,-12 -17,-25 -23,-41 -5,-16 -7,-33 -7,-51 0,-19 2,-37 8,-52 5,-16 13,-30 23,-41 11,-11 23,-19 38,-25 15,-6 31,-9 50,-9zm71 127c0,-18 -3,-34 -9,-47 -6,-13 -14,-23 -25,-30 -10,-7 -23,-10 -37,-10 -10,0 -19,2 -27,5 -9,4 -16,9 -22,17 -6,7 -11,16 -15,27 -3,11 -5,24 -5,38 0,14 2,26 5,37 4,12 9,21 15,29 7,7 14,13 22,16 9,4 18,6 28,6 13,0 24,-3 35,-10 11,-6 19,-16 25,-29 7,-14 10,-30 10,-49zm257 -84l-98 0 0 63 82 0c7,0 13,1 17,5 4,3 5,8 5,13 0,6 -1,11 -5,14 -4,3 -10,5 -17,5l-82 0 0 81c0,10 -2,18 -7,23 -5,5 -11,7 -18,7 -7,0 -13,-2 -18,-7 -5,-5 -7,-13 -7,-23l0 -189c0,-7 1,-13 3,-18 2,-4 6,-8 10,-10 5,-2 11,-3 18,-3l117 0c8,0 14,2 18,6 3,3 5,8 5,13 0,6 -2,11 -5,14 -4,4 -10,6 -18,6zm225 0l-99 0 0 63 82 0c8,0 14,1 17,5 4,3 6,8 6,13 0,6 -2,11 -6,14 -3,3 -9,5 -17,5l-82 0 0 81c0,10 -2,18 -7,23 -4,5 -10,7 -17,7 -8,0 -14,-2 -18,-7 -5,-5 -7,-13 -7,-23l0 -189c0,-7 1,-13 3,-18 2,-4 5,-8 10,-10 4,-2 10,-3 17,-3l118 0c8,0 13,2 17,6 4,3 6,8 6,13 0,6 -2,11 -6,14 -4,4 -9,6 -17,6z"/>
 </g>
</svg>
