<?xml version="1.0" encoding="UTF-8"?>
<!DOCTYPE svg PUBLIC "-//W3C//DTD SVG 1.1//EN" "http://www.w3.org/Graphics/SVG/1.1/DTD/svg11.dtd">
<!-- Creator: CorelDRAW X8 -->
<svg xmlns="http://www.w3.org/2000/svg" xml:space="preserve" width="79.3155mm" height="25.9234mm" version="1.1" style="shape-rendering:geometricPrecision; text-rendering:geometricPrecision; image-rendering:optimizeQuality; fill-rule:evenodd; clip-rule:evenodd"
viewBox="0 0 1980 647"
 xmlns:xlink="http://www.w3.org/1999/xlink">
 <defs>
  <style type="text/css">
   <![CDATA[
    .str0 {stroke:white;stroke-width:18.7226}
    .fil0 {fill:none}
    .fil1 {fill:#FEFEFE;fill-rule:nonzero}
    .fil2 {fill:#332C2B;fill-rule:nonzero}
   ]]>
  </style>
 </defs>
 <g id="图层_x0020_1">
  <metadata id="CorelCorpID_0Corel-Layer"/>
  <path class="fil0 str0" d="M1163 224c37,0 67,30 67,67 0,37 -30,67 -67,67 -19,0 -36,-8 -48,-20 -10,19 -25,37 -45,53l-77 0 -77 0c-39,-31 -60,-71 -60,-110l0 -75 137 0 137 0 0 26c9,-5 21,-8 33,-8zm0 34c18,0 33,14 33,33 0,18 -15,33 -33,33 -19,0 -34,-15 -34,-33 0,-19 15,-33 34,-33z"/>
  <polygon class="fil0 str0" points="993,415 799,413 865,452 993,452 1120,452 1187,413 "/>
  <path class="fil0 str0" d="M901 9c1,0 59,26 23,86 -28,45 -2,70 -3,71 0,0 -57,-13 -14,-85 25,-42 -6,-72 -6,-72z"/>
  <path class="fil0 str0" d="M981 9c0,0 59,26 22,86 -27,45 -2,70 -2,71 -1,0 -58,-13 -15,-85 25,-42 -5,-72 -5,-72z"/>
  <path class="fil0 str0" d="M1060 9c1,0 59,26 23,86 -27,45 -2,70 -3,71 0,0 -57,-13 -14,-85 25,-42 -6,-72 -6,-72z"/>
  <path class="fil1" d="M246 149c3,0 7,-2 10,-5 3,-3 5,-7 5,-11l0 -50c0,-5 -2,-8 -5,-12 -3,-3 -6,-4 -10,-4l-56 0c-4,0 -8,1 -11,4 -3,4 -5,7 -5,12l0 113c0,5 2,9 5,12 3,3 7,4 11,4l96 0c4,0 8,2 11,5 3,3 5,7 5,11l0 89c0,4 -1,9 -3,15 -2,5 -4,10 -7,14l-13 19c-3,3 -4,8 -4,13 0,5 1,9 3,12 3,4 6,6 8,9 3,2 6,3 8,3 3,0 4,2 6,5 1,3 2,7 2,12l0 9c0,4 -2,8 -5,11 -3,4 -7,5 -11,5l-1 0c-4,0 -9,-1 -14,-4 -6,-3 -9,-6 -12,-9l-4 -6c-3,-4 -6,-6 -9,-6 -4,0 -7,2 -10,6l-4 6c-3,3 -6,6 -11,9 -5,3 -10,4 -14,4l-6 0c-4,0 -8,-1 -11,-5 -3,-3 -5,-7 -5,-11l0 -9c0,-5 1,-9 3,-12 2,-3 4,-5 7,-5 2,0 5,-1 8,-4 4,-2 7,-5 9,-8 3,-4 4,-8 4,-13 0,-5 -2,-9 -4,-13l-13 -18c-3,-4 -5,-9 -7,-14 -2,-6 -3,-11 -3,-15l0 -30c0,-4 2,-8 5,-11 3,-3 7,-5 11,-5l7 0c4,0 8,2 11,5 3,3 5,7 5,11l0 17c0,4 0,9 2,14 2,6 3,10 6,14 2,3 5,5 9,4 3,0 6,-2 8,-6l2 -1c2,-4 4,-9 6,-15 2,-5 3,-10 3,-15l0 -28c0,-5 -2,-9 -5,-12 -3,-3 -7,-4 -11,-4l-58 0c-4,0 -8,1 -11,4 -3,3 -5,7 -5,12l0 155c0,5 -1,8 -5,11 -3,3 -7,5 -11,5l-10 0c-4,0 -8,-2 -11,-5 -4,-3 -5,-6 -5,-11l0 -386c0,-4 1,-8 4,-11 4,-3 7,-5 12,-5l139 0c5,0 9,2 12,5 3,3 5,7 5,11l0 135c0,4 -2,8 -5,11 -3,3 -7,4 -12,4l-71 0c-5,0 -9,-1 -12,-4 -3,-3 -5,-7 -5,-11l0 -10c0,-5 2,-8 5,-11 3,-4 7,-5 12,-5l30 0zm-185 256c2,-3 5,-5 7,-5 3,0 5,-1 7,-5 1,-3 2,-7 2,-11l0 -50c0,-4 -1,-8 -4,-11 -3,-3 -7,-5 -11,-5l-3 0c-5,0 -9,2 -12,5 -3,3 -4,7 -4,11l0 92c0,5 -2,8 -5,11 -3,3 -7,5 -12,5l-10 0c-5,0 -8,-2 -11,-5 -3,-3 -5,-6 -5,-11l0 -386c0,-4 2,-8 5,-11 3,-3 6,-5 11,-5l88 0c4,0 8,2 11,5 3,3 5,7 5,11l0 386c0,5 -2,8 -5,11 -3,3 -7,5 -11,5l-29 0c-5,0 -8,-2 -12,-5 -3,-3 -4,-6 -4,-11l0 -10c0,-4 1,-8 2,-11zm-18 -265c0,4 1,8 4,11 3,3 7,5 12,5l3 0c4,0 8,-2 11,-5 3,-3 4,-7 4,-11l0 -58c0,-4 -1,-8 -4,-11 -3,-3 -7,-5 -11,-5l-3 0c-5,0 -9,2 -12,5 -3,3 -4,7 -4,11l0 58zm19 136c4,0 8,-1 11,-4 3,-4 4,-7 4,-12l0 -46c0,-5 -1,-8 -4,-12 -3,-3 -7,-4 -11,-4l-3 0c-5,0 -9,1 -12,4 -3,4 -4,7 -4,12l0 46c0,5 1,8 4,12 3,3 7,4 12,4l3 0zm605 -233c3,0 6,2 9,5 2,3 3,7 3,11l0 48c0,4 -1,8 -4,13 -3,5 -6,8 -10,10l-83 42c-4,2 -6,4 -6,7 0,3 2,5 6,7l21 10c4,2 9,3 15,5 6,1 11,2 15,2l29 0c5,0 9,2 12,5 3,3 5,7 5,11l0 10c0,4 -2,8 -5,11 -3,3 -7,5 -11,5l-39 0c-4,0 -9,-1 -15,-2 -5,-1 -10,-3 -14,-5l-59 -28c-5,-2 -10,-3 -15,-3 -6,0 -10,1 -15,3l-54 28c-5,2 -10,4 -16,5 -6,1 -11,2 -15,2l-30 0c-5,0 -8,-2 -11,-5 -4,-3 -5,-7 -5,-11l0 -10c0,-4 1,-8 5,-11 3,-3 6,-5 11,-5l21 0c5,0 10,-1 16,-2 6,-2 11,-3 15,-6l16 -8c4,-2 6,-4 6,-7 0,-3 -2,-5 -6,-7l-30 -14c-4,-2 -9,-4 -15,-5 -6,-1 -11,-2 -16,-2l-7 0c-5,0 -8,-2 -11,-5 -4,-4 -5,-7 -5,-11l0 -11c0,-4 1,-8 5,-11 3,-3 6,-5 11,-5l17 0c4,0 10,1 16,2 6,1 11,3 15,5l67 32c4,2 8,3 14,3 5,0 10,-1 14,-3l88 -46c4,-2 8,-4 10,-6 3,-2 4,-4 4,-6 0,-1 -1,-2 -4,-3 -4,-1 -7,-1 -12,-1l-196 0c-4,0 -9,-1 -14,-3 -6,-2 -10,-5 -14,-8l-9 -8c-4,-3 -6,-7 -9,-12 -2,-6 -4,-10 -4,-15 0,-4 2,-8 5,-11 3,-3 7,-5 11,-5l11 0c4,0 8,1 11,3 3,2 5,4 5,7 0,2 1,5 4,6 4,2 7,3 12,3l234 0zm-211 215c5,0 8,1 11,3 3,2 5,4 5,7 0,2 1,4 4,6 3,2 7,3 12,3l175 0c4,0 8,1 11,2 3,1 5,2 5,3l0 112c0,4 -1,9 -3,15 -2,5 -5,9 -9,12l-11 12c-3,3 -7,6 -13,8 -5,2 -10,3 -14,3l-110 0c-4,0 -8,-1 -12,-5 -3,-3 -5,-7 -5,-11l0 -10c0,-5 2,-9 5,-12 4,-3 8,-4 12,-4l101 0c5,0 8,-2 12,-5 3,-3 4,-7 4,-12l0 -49c0,-5 -1,-8 -4,-11 -4,-4 -7,-5 -12,-5l-132 0c-5,0 -9,1 -12,5 -3,3 -4,6 -4,11l0 58c0,5 -1,9 -4,15 -2,5 -5,9 -8,12l-11 12c-3,3 -7,6 -12,8 -6,2 -10,3 -15,3l-32 0c-4,0 -8,-1 -11,-5 -3,-3 -5,-7 -5,-11l0 -10c0,-5 2,-9 5,-12 3,-3 7,-4 11,-4l23 0c5,0 9,-2 12,-5 3,-3 4,-7 4,-12l0 -49c0,-5 -1,-8 -4,-11 -3,-4 -7,-5 -12,-5l-23 0c-4,0 -8,-2 -11,-5 -3,-3 -5,-7 -5,-11l0 -11c0,-4 2,-8 5,-11 3,-3 7,-5 11,-5l23 0c5,0 9,-1 12,-3 3,-2 4,-4 4,-6 0,-3 2,-5 5,-7 3,-2 7,-3 11,-3l11 0z"/>
  <path class="fil1" d="M90 607c0,6 -2,12 -4,17 -2,5 -6,9 -10,13 -4,3 -9,6 -15,7 -5,2 -11,3 -18,3 -5,0 -9,0 -13,-1 -4,-1 -7,-2 -10,-3 -3,-1 -6,-2 -8,-3 -2,-2 -4,-3 -4,-4 -1,0 -2,-1 -2,-3 -1,-1 -1,-3 -1,-5 0,-1 0,-3 0,-4 1,-1 1,-2 1,-2 0,-1 1,-1 1,-2 1,0 1,0 2,0 1,0 2,1 4,2 2,1 4,2 7,4 3,1 6,2 10,4 4,1 9,2 14,2 4,0 7,-1 11,-2 3,-1 6,-3 8,-5 2,-1 4,-4 6,-7 1,-2 1,-6 1,-9 0,-4 0,-7 -2,-10 -2,-3 -4,-5 -7,-7 -3,-3 -6,-4 -10,-6 -4,-2 -8,-4 -11,-5 -4,-2 -8,-4 -12,-6 -3,-3 -7,-5 -10,-8 -2,-3 -5,-7 -7,-11 -1,-4 -2,-8 -2,-14 0,-6 1,-11 3,-15 2,-5 5,-8 8,-11 4,-4 9,-6 14,-7 5,-2 10,-3 16,-3 3,0 6,0 9,1 3,1 6,1 9,2 3,1 5,2 7,3 2,1 4,2 4,3 1,0 2,1 2,1 0,1 0,1 0,2 0,0 1,1 1,2 0,1 0,2 0,3 0,2 0,3 0,4 -1,1 -1,2 -1,2 0,1 0,1 -1,2 0,0 -1,0 -1,0 -1,0 -2,0 -4,-1 -1,-1 -3,-2 -6,-4 -2,-1 -5,-2 -8,-3 -4,-1 -7,-2 -11,-2 -4,0 -8,1 -10,2 -3,1 -6,2 -7,4 -2,2 -4,4 -5,6 0,2 -1,5 -1,7 0,4 1,7 3,10 2,3 4,5 7,8 3,2 6,4 10,5 4,2 7,4 11,6 4,1 8,3 12,6 3,2 7,4 10,7 3,3 5,7 7,11 2,4 3,8 3,14zm114 -16c0,2 0,4 -2,6 -1,1 -3,1 -4,1l-63 0c0,6 1,10 2,15 1,4 2,8 5,11 2,3 6,5 10,7 3,1 8,2 14,2 5,0 9,0 12,-1 4,-1 7,-2 9,-3 3,0 5,-1 7,-2 1,-1 3,-1 3,-1 1,0 1,0 2,0 0,1 0,1 1,1 0,1 0,2 0,2 0,1 0,2 0,4 0,1 0,1 0,2 0,1 0,1 0,2 0,0 0,1 -1,1 0,1 0,1 -1,1 0,1 -1,1 -3,2 -2,1 -4,2 -7,3 -3,1 -7,1 -11,2 -4,1 -8,1 -13,1 -8,0 -14,-1 -20,-3 -6,-2 -11,-6 -15,-10 -4,-4 -7,-10 -9,-16 -2,-7 -3,-14 -3,-23 0,-8 1,-15 3,-22 2,-6 5,-12 9,-16 4,-5 9,-8 15,-11 5,-2 12,-4 18,-4 8,0 14,2 20,4 5,2 9,6 13,10 3,4 5,9 7,14 2,5 2,11 2,18l0 3zm-17 -5c0,-10 -2,-17 -6,-22 -5,-5 -11,-8 -19,-8 -5,0 -8,1 -12,3 -3,1 -6,3 -8,6 -2,3 -4,6 -5,9 -1,4 -2,8 -2,12l52 0zm110 -33c0,2 0,3 0,4 -1,1 -1,2 -1,3 0,0 0,1 -1,1 0,0 0,1 -1,1 -1,0 -1,-1 -2,-1 -1,0 -2,0 -3,-1 -1,0 -2,0 -3,-1 -1,0 -3,0 -4,0 -2,0 -4,0 -6,1 -1,1 -3,2 -5,3 -2,2 -4,4 -6,7 -2,3 -4,6 -6,10l0 63c0,0 -1,1 -1,1 0,0 -1,1 -1,1 -1,0 -2,0 -3,1 -1,0 -3,0 -4,0 -2,0 -3,0 -5,0 -1,-1 -2,-1 -2,-1 -1,0 -1,-1 -2,-1 0,0 0,-1 0,-1l0 -96c0,0 0,-1 0,-1 0,-1 1,-1 2,-1 0,-1 1,-1 2,-1 1,0 2,0 4,0 1,0 3,0 4,0 1,0 2,0 2,1 1,0 1,0 1,1 1,0 1,1 1,1l0 14c2,-4 5,-7 7,-9 2,-3 5,-5 7,-6 2,-1 4,-2 6,-3 2,0 4,-1 6,-1 1,0 2,0 3,1 1,0 2,0 4,0 1,0 2,1 3,1 1,0 2,1 2,1 1,1 1,1 1,1 0,0 0,1 0,1 1,1 1,2 1,3 0,1 0,2 0,3zm109 -6c0,0 0,1 0,1 0,0 0,1 0,1 0,0 0,1 0,1 0,1 0,1 0,1l-33 91c0,1 -1,1 -1,2 -1,0 -1,1 -2,1 -1,0 -2,1 -4,1 -1,0 -3,0 -5,0 -2,0 -4,0 -5,0 -2,-1 -3,-1 -4,-1 -1,0 -1,-1 -2,-1 0,-1 -1,-1 -1,-2l-32 -91c-1,0 -1,-1 -1,-2 0,0 0,-1 0,-1 0,-1 0,-1 0,-1 0,-1 0,-1 0,-1 0,-1 1,-1 2,-1 0,-1 1,-1 2,-1 1,0 3,0 4,0 2,0 4,0 5,0 1,0 2,0 3,1 1,0 1,0 1,1 1,0 1,1 1,1l27 79 1 1 0 -1 27 -79c0,0 0,-1 0,-1 1,-1 1,-1 2,-1 1,-1 1,-1 3,-1 1,0 2,0 4,0 2,0 3,0 4,0 1,0 2,0 3,1 0,0 1,0 1,1 0,0 0,0 0,1zm48 96c0,0 -1,1 -1,1 0,0 -1,1 -1,1 -1,0 -2,0 -3,1 -1,0 -2,0 -4,0 -2,0 -3,0 -4,0 -2,-1 -3,-1 -3,-1 -1,0 -1,-1 -2,-1 0,0 0,-1 0,-1l0 -96c0,0 0,-1 0,-1 1,-1 1,-1 2,-1 0,0 1,-1 3,-1 1,0 2,0 4,0 2,0 3,0 4,0 1,0 2,1 3,1 0,0 1,0 1,1 0,0 1,1 1,1l0 96zm2 -128c0,4 -1,7 -3,8 -1,2 -4,3 -8,3 -5,0 -7,-1 -9,-2 -1,-2 -2,-5 -2,-9 0,-4 1,-7 2,-8 2,-2 5,-2 9,-2 4,0 7,0 8,2 2,1 3,4 3,8zm108 113c0,1 0,2 0,3 0,1 0,2 0,2 -1,1 -1,1 -1,2 0,0 -1,1 -2,2 -1,1 -2,2 -4,3 -2,1 -5,3 -7,4 -3,1 -6,2 -9,2 -3,1 -6,1 -10,1 -7,0 -13,-1 -18,-3 -5,-3 -10,-6 -13,-10 -4,-4 -6,-10 -8,-16 -2,-6 -3,-14 -3,-22 0,-9 1,-17 3,-24 3,-7 6,-12 10,-17 4,-4 8,-7 14,-9 5,-2 11,-3 17,-3 3,0 6,0 9,1 3,0 6,1 8,2 2,1 5,2 7,3 1,1 3,2 4,3 0,1 1,2 1,2 1,1 1,1 1,2 0,0 0,1 1,2 0,1 0,2 0,3 0,3 -1,5 -1,6 -1,1 -2,2 -3,2 -1,0 -2,-1 -3,-2 -2,-1 -3,-3 -6,-4 -2,-1 -4,-3 -7,-4 -3,-1 -7,-2 -11,-2 -8,0 -15,4 -19,10 -5,6 -7,16 -7,28 0,6 1,12 2,16 1,5 3,9 5,12 2,3 5,5 8,7 4,1 7,2 12,2 4,0 7,-1 10,-2 3,-1 6,-3 8,-4 2,-2 4,-3 6,-4 1,-2 2,-2 3,-2 1,0 1,0 1,0 1,1 1,1 1,2 1,0 1,1 1,2 0,1 0,2 0,4zm114 -37c0,2 -1,4 -2,6 -1,1 -3,1 -5,1l-62 0c0,6 0,10 1,15 1,4 3,8 6,11 2,3 5,5 9,7 4,1 9,2 15,2 4,0 8,0 12,-1 3,-1 6,-2 9,-3 3,0 5,-1 6,-2 2,-1 3,-1 4,-1 1,0 1,0 1,0 1,1 1,1 1,1 1,1 1,2 1,2 0,1 0,2 0,4 0,1 0,1 0,2 0,1 0,1 0,2 0,0 -1,1 -1,1 0,1 0,1 -1,1 0,1 -1,1 -3,2 -2,1 -5,2 -8,3 -3,1 -6,1 -10,2 -4,1 -8,1 -13,1 -8,0 -15,-1 -20,-3 -6,-2 -11,-6 -15,-10 -4,-4 -7,-10 -9,-16 -2,-7 -3,-14 -3,-23 0,-8 1,-15 3,-22 2,-6 5,-12 9,-16 4,-5 9,-8 14,-11 6,-2 12,-4 19,-4 8,0 14,2 19,4 6,2 10,6 13,10 4,4 6,9 8,14 1,5 2,11 2,18l0 3zm-17 -5c0,-10 -2,-17 -7,-22 -4,-5 -10,-8 -19,-8 -4,0 -8,1 -11,3 -3,1 -6,3 -8,6 -2,3 -4,6 -5,9 -1,4 -2,8 -2,12l52 0z"/>
  <path class="fil2" d="M1616 419c-33,0 -60,-11 -80,-33 -20,-21 -31,-51 -31,-88 0,-38 11,-67 31,-89 20,-21 47,-31 80,-31 33,0 60,10 80,31 21,22 31,52 31,89 0,37 -10,67 -31,88 -20,22 -47,33 -80,33zm0 -40c18,0 33,-7 44,-22 11,-15 16,-34 16,-59 0,-25 -5,-45 -16,-59 -11,-14 -25,-21 -44,-21 -18,0 -33,7 -44,21 -11,14 -16,34 -16,58 0,25 5,45 16,60 11,15 26,22 44,22zm198 36c-16,0 -23,-8 -23,-22l0 -190c0,-6 2,-11 6,-15 4,-4 9,-6 15,-6l4 0 13 0c8,0 14,4 18,10l66 114 25 50 2 0c-1,-1 -1,-3 -1,-5 -4,-35 -6,-60 -6,-76l0 -71c0,-14 8,-22 24,-22 15,0 23,8 23,22l0 187c0,8 -3,14 -9,18 -5,4 -12,6 -21,6 -6,0 -11,-1 -16,-4 -6,-2 -10,-6 -13,-10l-63 -111 -25 -50 -2 0c1,4 1,10 2,17 3,29 4,50 4,64l0 72c0,14 -7,22 -23,22z"/>
 </g>
</svg>
