<?xml version="1.0" encoding="UTF-8"?>
<!DOCTYPE svg PUBLIC "-//W3C//DTD SVG 1.1//EN" "http://www.w3.org/Graphics/SVG/1.1/DTD/svg11.dtd">
<!-- Creator: CorelDRAW X8 -->
<svg xmlns="http://www.w3.org/2000/svg" xml:space="preserve" width="78.9677mm" height="75.1654mm" version="1.1" style="shape-rendering:geometricPrecision; text-rendering:geometricPrecision; image-rendering:optimizeQuality; fill-rule:evenodd; clip-rule:evenodd"
viewBox="0 0 602 573"
 xmlns:xlink="http://www.w3.org/1999/xlink">
 <defs>
  <style type="text/css">
   <![CDATA[
    .fil2 {fill:none}
    .fil0 {fill:#FEFEFE}
    .fil1 {fill:#FEFEFE;fill-rule:nonzero}
   ]]>
  </style>
 </defs>
 <g id="图层_x0020_1">
  <metadata id="CorelCorpID_0Corel-Layer"/>
  <path class="fil0" d="M433 20l0 30c2,1 3,3 5,4l0 0c19,20 19,52 0,71 -16,16 -28,27 -43,43 -4,4 -10,4 -14,0l-28 -29 -29 -28c-2,-2 -3,-4 -3,-7 0,-3 1,-5 3,-7l43 -43c12,-12 30,-16 46,-13l0 -21 -222 0 0 22c17,-5 37,-1 50,12l42 43 0 0c2,2 3,4 3,7 0,3 -1,5 -3,7l-28 28 -29 29c-1,2 -4,3 -7,3 -2,0 -5,-1 -7,-3 -15,-16 -27,-27 -42,-43 -20,-19 -20,-51 0,-71 0,0 1,0 1,-1 0,0 0,-1 0,-2l0 -31 -30 0c-6,0 -10,-4 -10,-10 0,-6 4,-10 10,-10l322 0c6,0 10,4 10,10 0,6 -4,10 -10,10l-30 0zm-98 115l-29 25 -30 -25 -22 25 21 26 -146 126 104 1 73 -89 72 89 105 -1 -147 -126 21 -26 -22 -25z" p-id="1997"/>
  <path class="fil1" d="M168 483c2,0 3,-1 4,-2 1,-1 2,-2 2,-4l0 -30c0,-2 -1,-3 -2,-4 -1,-1 -2,-2 -4,-2l-3 0c-2,0 -3,0 -4,-1 -1,-2 -2,-3 -2,-5l0 -3c0,-2 1,-3 2,-4 1,-1 2,-2 4,-2l3 0c2,0 3,0 4,-1 1,-2 2,-3 2,-4l0 -50c0,-1 -1,-3 -2,-4 -1,-1 -2,-2 -4,-2l-3 0c-2,0 -3,0 -4,-1 -1,-1 -2,-3 -2,-4l0 -4c0,-2 1,-3 2,-4 1,-1 2,-2 4,-2l95 0c2,0 3,1 4,2 1,1 2,2 2,4l0 4c0,1 -1,3 -2,4 -1,1 -2,1 -4,1l-2 0c-1,0 -3,1 -4,2 -1,1 -1,3 -1,4l0 50c0,1 0,2 1,4 1,1 3,1 4,1l2 0c2,0 3,1 4,2 1,1 2,2 2,4l0 3c0,2 -1,3 -2,5 -1,1 -2,1 -4,1l-2 0c-1,0 -3,1 -4,2 -1,1 -1,2 -1,4l0 45c0,2 -1,3 -2,4 -1,1 -3,2 -4,2l-4 0c-1,0 -2,-1 -4,-2 -1,-1 -1,-2 -1,-4l0 -45c0,-2 -1,-3 -2,-4 -1,-1 -2,-2 -4,-2l-38 0c-1,0 -3,1 -4,2 -1,1 -2,2 -2,4l0 33c0,2 0,4 -1,6 0,1 -1,3 -2,4l-4 4c-1,1 -3,2 -5,3 -2,1 -3,1 -5,1l-6 0c-2,0 -3,-1 -4,-2 -1,-1 -2,-2 -2,-4l0 -3c0,-2 1,-3 2,-4 1,-1 2,-2 4,-2l3 0zm20 -62c0,1 1,2 2,4 1,1 3,1 4,1l38 0c2,0 3,0 4,-1 1,-2 2,-3 2,-4l0 -50c0,-1 -1,-3 -2,-4 -1,-1 -2,-2 -4,-2l-38 0c-1,0 -3,1 -4,2 -1,1 -2,3 -2,4l0 50zm209 -61c0,1 -1,3 -1,5 -1,2 -1,4 -2,5l-11 18c-1,1 -1,2 -1,3 1,1 2,1 3,1l6 0c2,0 3,1 4,2 1,1 2,2 2,4l0 94c0,2 -1,3 -2,4 -1,1 -2,2 -4,2l-11 0c-1,0 -2,-1 -3,-2 -1,-1 -2,-2 -2,-4l0 -3c0,-2 1,-3 1,-4 1,-1 2,-2 3,-2 1,0 1,-1 2,-2 1,-1 1,-2 1,-4l0 -64c0,-2 -1,-3 -2,-4 -1,-1 -2,-2 -3,-2 -1,0 -2,1 -3,2 -1,1 -1,2 -1,4l0 79c0,2 -1,3 -2,4 -1,1 -2,2 -4,2l-11 0c-1,0 -2,-1 -3,-2 -1,-1 -1,-2 -1,-4l0 -3c0,-2 0,-3 1,-4 0,-1 1,-2 2,-2 1,0 1,-1 2,-2 0,-1 1,-2 1,-4l0 -64c0,-2 -1,-3 -2,-4 0,-1 -1,-2 -3,-2 -1,0 -2,1 -3,2 -1,1 -1,2 -1,4l0 79c0,2 -1,3 -2,4 -1,1 -2,2 -4,2l-10 0c-1,0 -3,-1 -3,-2 -1,-1 -2,-2 -2,-4l0 -3c0,-2 1,-3 1,-4 1,-1 1,-2 2,-2 1,0 2,-1 2,-2 1,-1 1,-2 1,-4l0 -64c0,-2 0,-3 -1,-4 -1,-1 -1,-2 -3,-2 0,0 -1,0 -2,-1 -1,-2 -1,-3 -1,-4l0 -4c0,-1 0,-3 2,-4 1,-1 2,-2 3,-2l27 0c2,0 3,0 5,-1 2,-1 3,-2 4,-3l11 -18c1,-1 1,-2 0,-3 0,-1 -1,-2 -3,-2l-45 0c-1,0 -3,0 -4,-1 -1,-1 -2,-3 -2,-4l0 -4c0,-1 1,-3 2,-4 1,-1 3,-2 4,-2l60 0c2,0 3,1 4,2 1,1 2,3 2,4l0 4zm-101 123c2,0 3,-1 4,-2 1,-1 1,-2 1,-4l0 -86c0,-2 0,-3 -1,-4 -1,-1 -2,-2 -4,-2 -1,0 -3,-1 -4,-2 -1,-1 -1,-2 -1,-4l0 -3c0,-2 0,-3 1,-4 1,-1 3,-2 4,-2 2,0 3,-1 4,-2 1,-1 1,-2 1,-4l0 -8c0,-2 1,-3 2,-4 1,-1 2,-2 4,-2l4 0c1,0 2,1 4,2 1,1 1,2 1,4l0 8c0,2 1,3 1,4 1,1 2,2 3,2 1,0 2,1 3,2 0,1 1,2 1,4l0 3c0,2 -1,3 -1,4 -1,1 -2,2 -3,2 -1,0 -2,1 -3,2 0,1 -1,2 -1,4l0 86c0,2 1,3 1,4 1,1 2,2 3,2 1,0 2,1 3,2 0,1 1,2 1,4l0 3c0,2 -1,3 -1,4 -1,1 -2,2 -3,2l-24 0c-1,0 -3,-1 -4,-2 -1,-1 -1,-2 -1,-4l0 -3c0,-2 0,-3 1,-4 1,-1 3,-2 4,-2zm130 -71c1,0 2,-1 3,-2 1,-1 1,-3 1,-4l0 -2c0,-2 0,-3 -1,-4 -1,-1 -2,-2 -3,-2 -1,0 -2,0 -3,-1 0,-2 -1,-3 -1,-4l0 -4c0,-2 1,-3 2,-4 1,-1 2,-2 4,-2l35 0c1,0 3,0 4,-1 1,-1 1,-3 1,-4l0 -3c0,-1 0,-2 -1,-4 -1,-1 -3,-1 -4,-1l-35 0c-2,0 -3,-1 -4,-2 -1,-1 -2,-2 -2,-4l0 -3c0,-2 1,-3 2,-4 1,-1 2,-2 4,-2l81 0c1,0 3,0 4,-1 1,0 1,-1 1,-1 0,-1 1,-1 2,-2 1,0 3,0 4,0l4 0c1,0 3,0 4,1 1,0 1,1 1,2 0,1 0,3 -1,4 -1,2 -1,3 -3,4l-4 4c-1,1 -2,2 -4,3 -2,0 -4,1 -5,1l-23 0c-2,0 -3,0 -4,1 -1,2 -2,3 -2,4l0 3c0,1 1,3 2,4 1,1 2,1 4,1l35 0c1,0 3,1 4,2 1,1 1,2 1,4l0 4c0,1 0,2 -1,4 -1,1 -2,1 -3,1 -1,0 -2,1 -3,2 -1,1 -1,2 -1,4l0 2c0,1 0,3 1,4 1,1 2,2 3,2 1,0 2,0 3,1 1,1 1,3 1,4l0 4c0,1 0,3 -1,4 -1,1 -3,2 -4,2l0 0c-2,0 -4,-1 -6,-2 -1,0 -3,-1 -4,-2l-4 -4c-1,-2 -2,-3 -3,-5 -1,-2 -1,-4 -1,-5l0 -5c0,-2 0,-3 -2,-4 -1,-1 -2,-2 -3,-2l-12 0c-2,0 -3,1 -4,2 -1,1 -2,2 -2,4l0 18c0,1 0,3 -1,4 -2,1 -3,2 -4,2l-4 0c-2,0 -3,-1 -4,-2 -1,-1 -2,-3 -2,-4l0 -18c0,-2 0,-3 -1,-4 -1,-1 -3,-2 -4,-2l-12 0c-2,0 -3,1 -4,2 -1,1 -2,2 -2,4l0 5c0,1 0,3 -1,5 -1,2 -1,3 -3,5l-3 4c-2,1 -3,2 -5,2 -2,1 -3,2 -5,2l0 0c-2,0 -3,-1 -4,-2 -1,-1 -2,-3 -2,-4l0 -4c0,-1 1,-3 1,-4 1,-1 2,-1 3,-1zm82 42c0,-2 -1,-3 -2,-4 -1,-1 -2,-1 -4,-1l-47 0c-1,0 -2,0 -4,1 -1,1 -1,2 -1,4l0 26c0,2 -1,4 -1,6 -1,1 -2,3 -3,4l-4 4c-1,1 -3,2 -4,3 -2,1 -4,1 -6,1l-4 0c-2,0 -3,-1 -4,-2 -1,-1 -2,-2 -2,-4l0 -3c0,-2 1,-3 2,-4 1,-1 2,-2 4,-2l1 0c2,0 3,-1 4,-2 1,-1 2,-2 2,-4l0 -23c0,-2 -1,-3 -2,-4 -1,-1 -2,-1 -4,-1l-1 0c-2,0 -3,-1 -4,-2 -1,-1 -2,-3 -2,-4l0 -4c0,-1 1,-3 2,-4 1,-1 2,-1 4,-1l89 0c2,0 3,0 4,1 1,1 2,3 2,4l0 9c0,2 0,3 1,4 0,1 1,2 2,2 1,0 2,0 2,2 1,1 1,2 1,4l0 21c0,1 0,3 -1,5 -1,1 -1,3 -3,4l-4 4c-1,1 -2,2 -4,3 -2,1 -4,1 -5,1l-42 0c-2,0 -3,-1 -4,-2 -1,-1 -2,-2 -2,-4l0 -3c0,-2 1,-3 2,-4 1,-1 2,-2 4,-2l39 0c1,0 3,-1 4,-2 1,-1 1,-2 1,-4l0 -4c0,-2 0,-3 -1,-4 0,-1 -1,-2 -2,-2 -1,0 -2,0 -2,-1 -1,-1 -1,-3 -1,-4l0 -8z"/>
  <path class="fil1" d="M194 556c0,3 0,5 -1,7 -1,3 -2,4 -4,6 -2,1 -4,2 -6,3 -3,1 -5,1 -8,1 -2,0 -4,0 -5,0 -2,-1 -4,-1 -5,-1 -1,-1 -2,-1 -3,-2 -1,0 -2,-1 -2,-1 0,-1 0,-1 -1,-2 0,0 0,-1 0,-2 0,0 0,-1 0,-1 0,-1 0,-1 0,-1 1,-1 1,-1 1,-1 0,0 0,0 1,0 0,0 1,0 1,1 1,0 2,1 3,1 1,1 3,1 4,2 2,0 4,1 6,1 2,0 3,-1 5,-1 1,0 2,-1 3,-2 1,-1 2,-2 3,-3 0,-1 0,-2 0,-4 0,-2 0,-3 -1,-4 0,-1 -1,-2 -3,-3 -1,-1 -2,-2 -4,-2 -1,-1 -3,-2 -4,-3 -2,0 -4,-1 -5,-2 -2,-1 -3,-2 -4,-3 -2,-2 -3,-3 -3,-5 -1,-2 -1,-4 -1,-6 0,-2 0,-4 1,-6 1,-2 2,-4 3,-5 2,-1 4,-2 6,-3 2,-1 5,-1 7,-1 1,0 3,0 4,0 1,1 2,1 3,1 2,1 3,1 4,2 0,0 1,0 1,1 1,0 1,0 1,0 0,1 0,1 0,1 0,0 0,1 0,1 0,0 0,1 0,1 0,1 0,1 0,2 0,0 0,0 0,1 0,0 0,0 0,0 -1,0 -1,1 -1,1 0,0 -1,-1 -2,-1 0,0 -1,-1 -2,-1 -1,-1 -2,-1 -4,-2 -1,0 -3,-1 -4,-1 -2,0 -3,1 -4,1 -2,1 -3,1 -3,2 -1,1 -2,1 -2,2 -1,1 -1,2 -1,3 0,2 1,3 1,5 1,1 2,2 3,3 2,1 3,1 5,2 1,1 3,2 4,2 2,1 4,2 5,3 2,1 3,2 4,3 2,1 3,3 3,4 1,2 1,4 1,6zm49 15c0,1 0,1 0,1 0,0 0,0 -1,0 0,0 0,1 -1,1 0,0 -1,0 -2,0 0,0 -1,0 -1,0 -1,0 -1,-1 -2,-1 0,0 0,0 0,0 0,0 0,0 0,-1l0 -23c0,-2 0,-4 -1,-6 0,-1 -1,-2 -1,-3 -1,-1 -2,-2 -3,-3 -1,0 -2,0 -4,0 -2,0 -3,0 -5,2 -2,1 -4,3 -6,5l0 28c0,1 0,1 0,1 0,0 0,0 -1,0 0,0 0,1 -1,1 0,0 -1,0 -2,0 0,0 -1,0 -1,0 -1,0 -1,-1 -2,-1 0,0 0,0 0,0 0,0 0,0 0,-1l0 -59c0,0 0,0 0,-1 0,0 0,0 0,0 1,0 1,0 2,0 0,0 1,0 1,0 1,0 2,0 2,0 1,0 1,0 1,0 1,0 1,0 1,0 0,1 0,1 0,1l0 24c2,-2 4,-4 6,-5 2,-1 5,-2 7,-2 2,0 5,1 7,2 1,1 3,2 4,3 1,2 2,4 2,6 1,2 1,4 1,7l0 24zm55 -20c0,3 -1,6 -2,9 0,3 -2,5 -3,7 -2,2 -4,3 -7,5 -2,1 -5,1 -9,1 -3,0 -6,0 -8,-1 -3,-1 -5,-3 -6,-4 -2,-2 -3,-5 -4,-7 -1,-3 -1,-6 -1,-9 0,-4 0,-7 1,-9 1,-3 2,-5 4,-7 2,-2 4,-4 6,-5 3,-1 6,-2 9,-2 3,0 6,1 9,2 2,1 4,2 6,4 1,2 3,4 3,7 1,2 2,5 2,9zm-8 0c0,-2 0,-4 -1,-6 0,-2 -1,-3 -2,-5 0,-1 -2,-3 -3,-3 -2,-1 -4,-2 -6,-2 -2,0 -4,1 -6,2 -1,0 -3,1 -4,3 -1,1 -1,3 -2,5 0,2 -1,4 -1,6 0,2 1,4 1,6 0,2 1,4 2,5 1,2 2,3 4,4 1,1 3,1 6,1 2,0 4,0 5,-1 2,-1 3,-2 4,-3 1,-2 2,-3 2,-5 1,-2 1,-4 1,-7zm78 -20c0,0 0,1 0,1 0,0 0,1 0,1l-12 38c0,0 0,1 0,1 -1,0 -1,0 -1,0 0,0 -1,1 -2,1 0,0 -1,0 -2,0 -1,0 -1,0 -2,0 -1,0 -1,-1 -2,-1 0,0 0,0 0,0 -1,0 -1,-1 -1,-1l-8 -29 0 0 0 0 -8 29c0,0 0,1 -1,1 0,0 0,0 0,0 -1,0 -1,1 -2,1 -1,0 -1,0 -2,0 -1,0 -2,0 -2,0 -1,0 -1,-1 -2,-1 0,0 0,0 -1,0 0,0 0,-1 0,-1l-12 -38c0,0 0,-1 0,-1 0,0 0,-1 0,-1 0,0 0,0 0,0 0,-1 0,-1 1,-1 0,0 0,0 1,0 0,0 1,0 2,0 0,0 1,0 1,0 1,0 1,0 2,0 0,0 0,0 0,1 0,0 0,0 1,0l9 33 0 1 0 -1 9 -33c0,0 0,0 1,0 0,-1 0,-1 0,-1 0,0 1,0 1,0 1,0 1,0 2,0 1,0 1,0 2,0 0,0 1,0 1,0 0,0 0,0 0,1 1,0 1,0 1,0l9 33 0 1 0 -1 10 -33c0,0 0,0 0,0 0,-1 1,-1 1,-1 0,0 0,0 1,0 0,0 1,0 2,0 1,0 1,0 2,0 0,0 0,0 1,0 0,0 0,0 0,1 0,0 0,0 0,0z"/>
  <path class="fil0" d="M78 396c15,0 28,13 28,28 0,16 -13,28 -28,28 -16,0 -28,-12 -28,-28 0,-15 12,-28 28,-28z"/>
  <rect class="fil2" width="602" height="571"/>
 </g>
</svg>
