<?xml version="1.0" encoding="UTF-8"?>
<!DOCTYPE svg PUBLIC "-//W3C//DTD SVG 1.1//EN" "http://www.w3.org/Graphics/SVG/1.1/DTD/svg11.dtd">
<!-- Creator: CorelDRAW 2019 (64-Bit) -->
<svg xmlns="http://www.w3.org/2000/svg" xml:space="preserve" width="206.731mm" height="196.127mm" version="1.1" style="shape-rendering:geometricPrecision; text-rendering:geometricPrecision; image-rendering:optimizeQuality; fill-rule:evenodd; clip-rule:evenodd"
viewBox="0 0 28696.13 27224.13"
 xmlns:xlink="http://www.w3.org/1999/xlink">
 <defs>
  <style type="text/css">
   <![CDATA[
    .fil0 {fill:#8A8A8B}
    .fil1 {fill:#FB5B53}
    .fil2 {fill:white}
   ]]>
  </style>
 </defs>
 <g id="图层_x0020_1">
  <metadata id="CorelCorpID_0Corel-Layer"/>
  <rect class="fil0" x="13452.02" y="0.01" width="1792.09" height="2949.01"/>
  <rect class="fil0" transform="matrix(0.965899 -0.2588 0.2588 0.965899 9764.08 714.134)" width="1792.09" height="2949.01"/>
  <rect class="fil0" transform="matrix(0.866 -0.5 0.5 0.866 6392.58 2372.43)" width="1792.09" height="2949.01"/>
  <rect class="fil0" transform="matrix(0.7071 -0.7071 0.7071 0.7071 3569.85 4828.25)" width="1792.09" height="2949.01"/>
  <rect class="fil0" transform="matrix(0.5 -0.866 0.866 0.5 1484.34 7943.6)" width="1792.09" height="2949.01"/>
  <rect class="fil0" transform="matrix(0.2588 -0.965899 0.965899 0.2588 265.987 11498.6)" width="1792.09" height="2949.01"/>
  <rect class="fil0" x="-0.01" y="13452.03" width="2949.01" height="1792.09"/>
  <rect class="fil0" transform="matrix(0.965899 -0.2588 0.2588 0.965899 250.178 17200.2)" width="2949.01" height="1792.09"/>
  <rect class="fil0" transform="matrix(0.866 -0.5 0.5 0.866 1476.47 20750.8)" width="2949.01" height="1792.09"/>
  <rect class="fil0" transform="matrix(0.7071 -0.7071 0.7071 0.7071 3560.4 23859.2)" width="2949.01" height="1792.09"/>
  <rect class="fil0" transform="matrix(0.7071 -0.7071 0.7071 0.7071 21773.4 23051)" width="1792.09" height="2949.01"/>
  <rect class="fil0" transform="matrix(0.866 -0.5 0.5 0.866 19276.2 24665.5)" width="1792.09" height="2949.01"/>
  <rect class="fil1" transform="matrix(0.5 -0.866 0.866 0.5 6410.39 26328.1)" width="2949.01" height="1792.09"/>
  <rect class="fil0" transform="matrix(0.5 -0.866 0.866 0.5 23772.3 20810.5)" width="1792.09" height="2949.01"/>
  <rect class="fil0" transform="matrix(0.2588 -0.965899 0.965899 0.2588 25116.7 18165.8)" width="1792.09" height="2949.01"/>
  <rect class="fil0" x="25747.11" y="13452.03" width="2949.01" height="1792.09"/>
  <rect class="fil0" transform="matrix(0.965899 -0.2588 0.2588 0.965899 25132.7 10527.4)" width="2949.01" height="1792.09"/>
  <rect class="fil0" transform="matrix(0.866 -0.5 0.5 0.866 23768.9 7866.61)" width="2949.01" height="1792.09"/>
  <rect class="fil0" transform="matrix(0.7071 -0.7071 0.7071 0.7071 21783.1 5656.09)" width="2949.01" height="1792.09"/>
  <rect class="fil0" transform="matrix(0.5 -0.866 0.866 0.5 19277.7 4038.75)" width="2949.01" height="1792.09"/>
  <rect class="fil0" transform="matrix(0.2588 -0.965899 0.965899 0.2588 16434 3115.26)" width="2949.01" height="1792.09"/>
  <path class="fil0" d="M14359.4 3425.4c6034.13,0 10934.03,4899.9 10934.03,10934.01 0,6034.13 -4899.9,10934.03 -10934.03,10934.03 -6034.12,0 -10934.03,-4922.58 -10934.03,-10934.03 0,-6011.44 4899.91,-10934.01 10934.03,-10934.01z"/>
  <g id="_1114871728">
   <path class="fil2" d="M15855.1 18009.72l-997.13 0 0 -5688.68c-240.14,205.06 -554.92,410.03 -944.52,614.98 -389.66,205.12 -739.56,358.83 -1049.78,461.25l0 -862.97c557.62,-234.74 1045.12,-519.05 1462.49,-853.05 417.29,-333.92 712.73,-657.91 886.38,-972.12l642.6 0 0 7300.59 -0.03 0z"/>
  </g>
 </g>
</svg>
