<?xml version="1.0" encoding="utf-8"?>
<!-- Generator: Adobe Illustrator 21.0.0, SVG Export Plug-In . SVG Version: 6.00 Build 0)  -->
<svg version="1.1" id="图层_1" xmlns="http://www.w3.org/2000/svg" xmlns:xlink="http://www.w3.org/1999/xlink" x="0px" y="0px"
	 viewBox="0 0 128.5 122" style="enable-background:new 0 0 128.5 122;" xml:space="preserve">
<style type="text/css">
	.st0{fill-rule:evenodd;clip-rule:evenodd;fill:#FB5B53;}
	.st1{fill-rule:evenodd;clip-rule:evenodd;fill:#8A8A8B;}
	.st2{fill:#FFFFFF;}
</style>
<rect x="59.3" y="2" class="st0" width="7.9" height="13"/>
<rect x="44.6" y="3.9" transform="matrix(0.9659 -0.2588 0.2588 0.9659 -1.0458 12.9235)" class="st0" width="7.9" height="13"/>
<rect x="30.9" y="9.6" transform="matrix(0.866 -0.5 0.5 0.866 -3.3792 19.5946)" class="st0" width="7.9" height="13"/>
<rect x="19.2" y="18.6" transform="matrix(0.7071 -0.7071 0.7071 0.7071 -10.9915 23.7084)" class="st0" width="7.9" height="13"/>
<rect x="10.2" y="30.4" transform="matrix(0.5 -0.866 0.866 0.5 -24.883 30.6506)" class="st0" width="7.9" height="13"/>
<rect x="4.5" y="44.1" transform="matrix(0.2588 -0.9659 0.9659 0.2588 -42.5882 45.6222)" class="st0" width="7.9" height="13"/>
<rect y="61.3" class="st0" width="13" height="7.9"/>
<rect x="1.9" y="76" transform="matrix(0.9659 -0.2588 0.2588 0.9659 -20.4011 4.9062)" class="st0" width="13" height="7.9"/>
<rect x="7.6" y="89.7" transform="matrix(0.866 -0.5 0.5 0.866 -44.9229 19.5948)" class="st0" width="13" height="7.9"/>
<rect x="16.6" y="101.4" transform="matrix(0.7071 -0.7071 0.7071 0.7071 -67.7426 47.2156)" class="st0" width="13" height="7.9"/>
<rect x="99.4" y="98.9" transform="matrix(0.7071 -0.7071 0.7071 0.7071 -44.2351 103.9681)" class="st0" width="7.9" height="13"/>
<rect x="87.7" y="107.9" transform="matrix(0.866 -0.5 0.5 0.866 -44.9239 61.1406)" class="st0" width="7.9" height="13"/>
<rect x="28.4" y="110.5" transform="matrix(0.5 -0.866 0.866 0.5 -81.6343 87.4054)" class="st0" width="13" height="7.9"/>
<rect x="108.5" y="87.1" transform="matrix(0.5 -0.866 0.866 0.5 -24.884 144.1492)" class="st0" width="7.9" height="13"/>
<rect x="114.1" y="73.4" transform="matrix(0.2588 -0.9659 0.9659 0.2588 10.2949 173.2926)" class="st0" width="7.9" height="13"/>
<rect x="113.5" y="61.3" class="st0" width="13" height="7.9"/>
<rect x="111.6" y="46.6" transform="matrix(0.9659 -0.2588 0.2588 0.9659 -9.0631 32.2786)" class="st0" width="13" height="7.9"/>
<rect x="105.9" y="32.9" transform="matrix(0.866 -0.5 0.5 0.866 -3.3797 61.1366)" class="st0" width="13" height="7.9"/>
<rect x="96.9" y="21.2" transform="matrix(0.7071 -0.7071 0.7071 0.7071 12.5171 80.4609)" class="st0" width="13" height="7.9"/>
<rect x="85.1" y="12.2" transform="matrix(0.5 -0.866 0.866 0.5 31.8658 87.4004)" class="st0" width="13" height="7.9"/>
<rect x="71.4" y="6.5" transform="matrix(0.2588 -0.9659 0.9659 0.2588 47.6885 83.0159)" class="st0" width="13" height="7.9"/>
<path class="st1" d="M63.3,17.1c26.6,0,48.2,21.6,48.2,48.2s-21.6,48.2-48.2,48.2S15.1,91.8,15.1,65.3S36.7,17.1,63.3,17.1"/>
<path class="st2" d="M82.4,65.3c0,5.2,0.6,8.6,1.8,10.3c1.2,1.7,2.7,2.6,4.5,2.6c1.8,0,3.3-0.9,4.5-2.6c1.2-1.7,1.8-5.2,1.8-10.3
	c0-5.2-0.6-8.6-1.8-10.3c-1.2-1.7-2.7-2.6-4.5-2.6c-1.8,0-3.2,0.8-4.3,2.3C83.1,56.5,82.4,60.1,82.4,65.3 M78.5,65.3
	c0-3.7,0.4-6.7,1.1-9c0.8-2.3,1.9-4,3.4-5.3c1.5-1.2,3.4-1.8,5.7-1.8c1.7,0,3.2,0.3,4.5,1c1.3,0.7,2.3,1.7,3.2,3
	c0.8,1.3,1.5,2.8,1.9,4.7c0.5,1.8,0.7,4.3,0.7,7.5c0,3.7-0.4,6.7-1.1,9c-0.8,2.3-1.9,4-3.4,5.3c-1.5,1.2-3.4,1.9-5.7,1.9
	c-3,0-5.4-1.1-7.2-3.2C79.5,75.5,78.5,71.2,78.5,65.3z M55.5,65.3c0,5.2,0.6,8.6,1.8,10.3c1.2,1.7,2.7,2.6,4.5,2.6
	c1.8,0,3.3-0.9,4.5-2.6c1.2-1.7,1.8-5.2,1.8-10.3c0-5.2-0.6-8.6-1.8-10.3c-1.2-1.7-2.7-2.6-4.5-2.6c-1.8,0-3.2,0.8-4.3,2.3
	C56.2,56.5,55.5,60.1,55.5,65.3z M51.5,65.3c0-3.7,0.4-6.7,1.1-9c0.8-2.3,1.9-4,3.4-5.3c1.5-1.2,3.4-1.8,5.7-1.8
	c1.7,0,3.2,0.3,4.5,1c1.3,0.7,2.3,1.7,3.2,3c0.8,1.3,1.5,2.8,1.9,4.7c0.5,1.8,0.7,4.3,0.7,7.5c0,3.7-0.4,6.7-1.1,9
	c-0.8,2.3-1.9,4-3.4,5.3c-1.5,1.2-3.4,1.9-5.7,1.9c-3,0-5.4-1.1-7.2-3.2C52.6,75.5,51.5,71.2,51.5,65.3z M39.1,80.8h-3.9V56.1
	c-0.9,0.9-2.2,1.8-3.7,2.7c-1.5,0.9-2.9,1.6-4.1,2v-3.7c2.2-1,4.1-2.2,5.7-3.7c1.6-1.4,2.8-2.8,3.5-4.2h2.5V80.8z"/>
</svg>
