<?xml version="1.0" encoding="UTF-8"?>
<!DOCTYPE svg PUBLIC "-//W3C//DTD SVG 1.1//EN" "http://www.w3.org/Graphics/SVG/1.1/DTD/svg11.dtd">
<!-- Creator: CorelDRAW 2019 (64-Bit) -->
<svg xmlns="http://www.w3.org/2000/svg" xml:space="preserve" width="206.731mm" height="196.126mm" version="1.1" style="shape-rendering:geometricPrecision; text-rendering:geometricPrecision; image-rendering:optimizeQuality; fill-rule:evenodd; clip-rule:evenodd"
viewBox="0 0 11315.31 10734.88"
 xmlns:xlink="http://www.w3.org/1999/xlink">
 <defs>
  <style type="text/css">
   <![CDATA[
    .fil0 {fill:#8A8A8B}
    .fil1 {fill:#FB5B53}
    .fil2 {fill:#FEFEFE;fill-rule:nonzero}
   ]]>
  </style>
 </defs>
 <g id="图层_x0020_1">
  <metadata id="CorelCorpID_0Corel-Layer"/>
  <polygon class="fil0" points="5304.33,1162.84 6010.98,1162.84 6010.98,0 5304.33,0 "/>
  <polygon class="fil0" points="4151.06,1404.77 4833.61,1221.89 4532.67,98.71 3850.12,281.59 "/>
  <polygon class="fil0" points="3102.11,1942.5 3714.06,1589.17 3132.65,582.16 2520.69,935.48 "/>
  <polygon class="fil0" points="2229.89,2726.09 2729.56,2226.42 1907.32,1404.18 1407.65,1903.85 "/>
  <polygon class="fil0" points="1592.31,3713.7 1945.64,3101.74 938.62,2520.32 585.29,3132.27 "/>
  <polygon class="fil0" points="1228.07,4835.01 1410.95,4152.45 287.76,3851.51 104.88,4534.06 "/>
  <polygon class="fil0" points="-0,6010.98 1162.84,6010.98 1162.84,5304.33 -0,5304.33 "/>
  <polygon class="fil0" points="281.53,7464.84 1404.72,7163.9 1221.83,6481.35 98.65,6782.29 "/>
  <polygon class="fil0" points="935.52,8794.3 1942.54,8212.88 1589.21,7600.93 582.19,8182.34 "/>
  <polygon class="fil0" points="1903.59,9907.71 2725.83,9085.46 2226.16,8585.79 1403.92,9408.03 "/>
  <polygon class="fil0" points="9407.82,9911.59 9907.49,9411.92 9085.25,8589.68 8585.57,9089.35 "/>
  <polygon class="fil0" points="8182.31,10732.99 8794.27,10379.66 8212.85,9372.64 7600.89,9725.97 "/>
  <polygon class="fil1" points="3139.67,10734.88 3721.09,9727.86 3109.13,9374.54 2527.71,10381.56 "/>
  <polygon class="fil0" points="10380.79,8787.31 10734.11,8175.35 9727.09,7593.93 9373.77,8205.88 "/>
  <polygon class="fil0" points="11027.07,7463.99 11209.95,6781.44 10086.77,6480.49 9903.89,7163.04 "/>
  <polygon class="fil0" points="10152.47,6010.98 11315.31,6010.98 11315.31,5304.33 10152.47,5304.33 "/>
  <polygon class="fil0" points="10093.08,4833.66 11216.27,4532.71 11033.38,3850.16 9910.2,4151.1 "/>
  <polygon class="fil0" points="9725.76,3713.87 10732.77,3132.46 10379.45,2520.5 9372.43,3101.92 "/>
  <polygon class="fil0" points="9089.07,2729.95 9911.31,1907.71 9411.64,1408.03 8589.4,2230.28 "/>
  <polygon class="fil0" points="8213.44,1945.86 8794.86,938.84 8182.9,585.52 7601.48,1592.53 "/>
  <polygon class="fil0" points="7162.72,1411.27 7463.66,288.08 6781.11,105.21 6480.17,1228.39 "/>
  <path class="fil0" d="M5662.13 1350.68c2379.35,0 4311.45,1932.11 4311.45,4311.44 0,2379.35 -1932.11,4311.45 -4311.45,4311.45 -2379.34,0 -4311.45,-1941.05 -4311.45,-4311.45 0,-2370.4 1932.11,-4311.44 4311.45,-4311.44z"/>
  <path class="fil2" d="M6618.76 6772.61l0 338.59 -1910.59 0c-2.69,-85.32 11.42,-167.28 41.65,-246.55 49.04,-129.66 127.64,-257.97 235.8,-383.6 108.16,-125.63 262.67,-270.73 463.54,-435.32 312.38,-257.3 524.67,-460.85 635.52,-611.34 111.52,-150.49 167.28,-292.91 167.28,-427.26 0,-140.4 -50.39,-258.64 -151.15,-355.38 -100.77,-96.07 -232.44,-144.44 -394.35,-144.44 -171.31,0 -308.35,51.06 -411.14,153.17 -102.79,101.44 -154.52,242.52 -155.86,423.23l-362.77 -36.28c24.85,-271.41 118.91,-478.32 281.48,-620.74 163.25,-142.42 381.58,-213.63 656.35,-213.63 276.78,0 496.46,76.58 657.69,230.43 161.9,153.84 242.52,344.63 242.52,571.7 0,115.54 -23.51,229.08 -71.21,340.6 -47.03,112.19 -125.63,229.76 -235.13,353.37 -110.18,122.94 -292.23,292.91 -546.17,507.88 -212.96,178.7 -350.01,299.62 -410.46,363.44 -60.47,63.82 -110.18,127.64 -149.81,192.13l1416.82 0z"/>
 </g>
</svg>
