<?xml version="1.0" encoding="utf-8"?>
<!-- Generator: Adobe Illustrator 21.0.0, SVG Export Plug-In . SVG Version: 6.00 Build 0)  -->
<svg version="1.1" id="图层_1" xmlns="http://www.w3.org/2000/svg" xmlns:xlink="http://www.w3.org/1999/xlink" x="0px" y="0px"
	 viewBox="0 0 128.5 122" style="enable-background:new 0 0 128.5 122;" xml:space="preserve">
<style type="text/css">
	.st0{fill-rule:evenodd;clip-rule:evenodd;fill:#8A8A8B;}
	.st1{fill-rule:evenodd;clip-rule:evenodd;fill:#FB5B53;}
	.st2{fill:#FFFFFF;}
</style>
<rect x="59.3" y="2" class="st0" width="7.9" height="13"/>
<rect x="44.6" y="3.9" transform="matrix(0.9659 -0.2588 0.2588 0.9659 -1.0458 12.9235)" class="st0" width="7.9" height="13"/>
<rect x="30.9" y="9.6" transform="matrix(0.866 -0.5 0.5 0.866 -3.3792 19.5946)" class="st0" width="7.9" height="13"/>
<rect x="19.2" y="18.6" transform="matrix(0.7071 -0.7071 0.7071 0.7071 -10.9915 23.7084)" class="st0" width="7.9" height="13"/>
<rect x="10.2" y="30.4" transform="matrix(0.5 -0.866 0.866 0.5 -24.883 30.6506)" class="st0" width="7.9" height="13"/>
<rect x="4.5" y="44.1" transform="matrix(0.2588 -0.9659 0.9659 0.2588 -42.5882 45.6222)" class="st0" width="7.9" height="13"/>
<rect y="61.3" class="st1" width="13" height="7.9"/>
<rect x="1.9" y="76" transform="matrix(0.9659 -0.2588 0.2588 0.9659 -20.4011 4.9062)" class="st1" width="13" height="7.9"/>
<rect x="7.6" y="89.7" transform="matrix(0.866 -0.5 0.5 0.866 -44.9229 19.5948)" class="st1" width="13" height="7.9"/>
<rect x="16.6" y="101.4" transform="matrix(0.7071 -0.7071 0.7071 0.7071 -67.7426 47.2156)" class="st1" width="13" height="7.9"/>
<rect x="99.4" y="98.9" transform="matrix(0.7071 -0.7071 0.7071 0.7071 -44.2351 103.9681)" class="st0" width="7.9" height="13"/>
<rect x="87.7" y="107.9" transform="matrix(0.866 -0.5 0.5 0.866 -44.9239 61.1406)" class="st0" width="7.9" height="13"/>
<rect x="28.4" y="110.5" transform="matrix(0.5 -0.866 0.866 0.5 -81.6343 87.4054)" class="st1" width="13" height="7.9"/>
<rect x="108.5" y="87.1" transform="matrix(0.5 -0.866 0.866 0.5 -24.884 144.1492)" class="st0" width="7.9" height="13"/>
<rect x="114.1" y="73.4" transform="matrix(0.2588 -0.9659 0.9659 0.2588 10.2949 173.2926)" class="st0" width="7.9" height="13"/>
<rect x="113.5" y="61.3" class="st0" width="13" height="7.9"/>
<rect x="111.6" y="46.6" transform="matrix(0.9659 -0.2588 0.2588 0.9659 -9.0631 32.2786)" class="st0" width="13" height="7.9"/>
<rect x="105.9" y="32.9" transform="matrix(0.866 -0.5 0.5 0.866 -3.3797 61.1366)" class="st0" width="13" height="7.9"/>
<rect x="96.9" y="21.2" transform="matrix(0.7071 -0.7071 0.7071 0.7071 12.5171 80.4609)" class="st0" width="13" height="7.9"/>
<rect x="85.1" y="12.2" transform="matrix(0.5 -0.866 0.866 0.5 31.8658 87.4004)" class="st0" width="13" height="7.9"/>
<rect x="71.4" y="6.5" transform="matrix(0.2588 -0.9659 0.9659 0.2588 47.6885 83.0159)" class="st0" width="13" height="7.9"/>
<path class="st0" d="M63.3,17.1c26.6,0,48.2,21.6,48.2,48.2s-21.6,48.2-48.2,48.2S15.1,91.8,15.1,65.3S36.7,17.1,63.3,17.1"/>
<path class="st2" d="M66.6,72.5l4.1-0.3c0.3,2,1,3.5,2.1,4.5c1.1,1,2.4,1.5,4,1.5c1.9,0,3.5-0.7,4.8-2.1c1.3-1.4,1.9-3.3,1.9-5.6
	c0-2.2-0.6-4-1.8-5.2c-1.2-1.3-2.8-1.9-4.9-1.9c-1.3,0-2.4,0.3-3.4,0.9c-1,0.6-1.8,1.3-2.3,2.2l-3.7-0.5l3-16.2H86v3.7H73.4
	l-1.7,8.5c1.9-1.3,3.9-2,5.9-2c2.7,0,5.1,1,7,2.9c1.9,1.9,2.8,4.4,2.8,7.4c0,2.9-0.8,5.3-2.5,7.4c-2,2.6-4.8,3.8-8.3,3.8
	c-2.9,0-5.2-0.8-7-2.4C67.9,77.3,66.8,75.1,66.6,72.5 M59.9,77v3.7H39.1c0-0.9,0.1-1.8,0.5-2.7c0.5-1.4,1.4-2.8,2.6-4.2
	c1.2-1.4,2.9-3,5.1-4.8c3.4-2.8,5.7-5,6.9-6.7c1.2-1.6,1.8-3.2,1.8-4.7c0-1.5-0.6-2.8-1.7-3.9c-1.1-1.1-2.5-1.6-4.3-1.6
	c-1.9,0-3.4,0.6-4.5,1.7c-1.1,1.1-1.7,2.7-1.7,4.6l-4-0.4c0.3-3,1.3-5.2,3.1-6.8c1.8-1.6,4.2-2.3,7.2-2.3c3,0,5.4,0.8,7.2,2.5
	c1.8,1.7,2.7,3.8,2.7,6.2c0,1.3-0.3,2.5-0.8,3.7c-0.5,1.2-1.4,2.5-2.6,3.9c-1.2,1.3-3.2,3.2-6,5.6c-2.3,2-3.8,3.3-4.5,4
	c-0.7,0.7-1.2,1.4-1.6,2.1H59.9z"/>
</svg>
