<?xml version="1.0" encoding="UTF-8"?>
<!DOCTYPE svg PUBLIC "-//W3C//DTD SVG 1.1//EN" "http://www.w3.org/Graphics/SVG/1.1/DTD/svg11.dtd">
<!-- Creator: CorelDRAW 2019 (64-Bit) -->
<svg xmlns="http://www.w3.org/2000/svg" xml:space="preserve" width="206.731mm" height="196.126mm" version="1.1" style="shape-rendering:geometricPrecision; text-rendering:geometricPrecision; image-rendering:optimizeQuality; fill-rule:evenodd; clip-rule:evenodd"
viewBox="0 0 4366.19 4142.23"
 xmlns:xlink="http://www.w3.org/1999/xlink">
 <defs>
  <style type="text/css">
   <![CDATA[
    .fil0 {fill:#8A8A8B}
    .fil1 {fill:#FB5B53}
    .fil2 {fill:#FEFEFE;fill-rule:nonzero}
   ]]>
  </style>
 </defs>
 <g id="图层_x0020_1">
  <metadata id="CorelCorpID_0Corel-Layer"/>
  <polygon class="fil0" points="2046.76,448.7 2319.43,448.7 2319.43,0 2046.76,0 "/>
  <polygon class="fil0" points="1601.75,542.05 1865.13,471.49 1749,38.09 1485.63,108.65 "/>
  <polygon class="fil0" points="1197,749.54 1433.13,613.21 1208.78,224.63 972.65,360.97 "/>
  <polygon class="fil0" points="860.44,1051.91 1053.24,859.1 735.97,541.82 543.16,734.63 "/>
  <polygon class="fil0" points="614.42,1432.99 750.75,1196.86 362.18,972.5 225.84,1208.64 "/>
  <polygon class="fil0" points="473.87,1865.67 544.44,1602.29 111.04,1486.17 40.47,1749.54 "/>
  <polygon class="fil0" points="-0,2319.43 448.7,2319.43 448.7,2046.76 -0,2046.76 "/>
  <polygon class="fil0" points="108.63,2880.43 542.03,2764.3 471.46,2500.93 38.06,2617.05 "/>
  <polygon class="fil0" points="360.98,3393.42 749.56,3169.07 613.22,2932.94 224.65,3157.29 "/>
  <polygon class="fil0" points="734.53,3823.05 1051.81,3505.77 859,3312.96 541.72,3630.24 "/>
  <polygon class="fil0" points="3630.16,3824.55 3822.96,3631.74 3505.69,3314.46 3312.88,3507.27 "/>
  <polygon class="fil0" points="3157.28,4141.49 3393.41,4005.16 3169.06,3616.58 2932.93,3752.92 "/>
  <polygon class="fil1" points="1211.49,4142.23 1435.84,3753.65 1199.71,3617.32 975.36,4005.89 "/>
  <polygon class="fil0" points="4005.59,3390.72 4141.93,3154.59 3753.35,2930.24 3617.02,3166.37 "/>
  <polygon class="fil0" points="4254.97,2880.1 4325.54,2616.73 3892.14,2500.6 3821.57,2763.98 "/>
  <polygon class="fil0" points="3917.49,2319.43 4366.19,2319.43 4366.19,2046.76 3917.49,2046.76 "/>
  <polygon class="fil0" points="3894.58,1865.14 4327.98,1749.02 4257.41,1485.65 3824.01,1601.77 "/>
  <polygon class="fil0" points="3752.84,1433.06 4141.41,1208.71 4005.08,972.57 3616.5,1196.93 "/>
  <polygon class="fil0" points="3507.16,1053.39 3824.44,736.12 3631.63,543.31 3314.36,860.59 "/>
  <polygon class="fil0" points="3169.29,750.84 3393.64,362.27 3157.5,225.93 2933.15,614.5 "/>
  <polygon class="fil0" points="2763.85,544.56 2879.97,111.16 2616.6,40.6 2500.48,473.99 "/>
  <path class="fil0" d="M2184.82 521.18c918.11,0 1663.64,745.53 1663.64,1663.64 0,918.11 -745.53,1663.64 -1663.64,1663.64 -918.11,0 -1663.64,-748.99 -1663.64,-1663.64 0,-914.66 745.53,-1663.64 1663.64,-1663.64z"/>
  <path class="fil2" d="M1836.94 2448.45l136.87 -18.66c15.81,77.77 42.25,133.76 79.84,167.98 37.59,34.22 83.73,51.33 138.43,51.33 64.81,0 119.5,-22.29 163.57,-66.88 44.07,-44.59 66.1,-99.8 66.1,-165.64 0,-62.73 -20.48,-114.58 -61.69,-155.54 -40.96,-40.7 -93.06,-61.18 -156.57,-61.18 -25.92,0 -58.07,5.19 -96.69,15.3l15.3 -119.76c9.07,1.04 16.59,1.56 22.03,1.56 58.58,0 110.95,-15.3 157.87,-45.62 46.66,-30.33 69.99,-76.99 69.99,-139.98 0,-50.03 -17.11,-91.51 -51.07,-124.43 -33.96,-32.92 -77.77,-49.25 -131.42,-49.25 -53.4,0 -97.73,16.85 -133.24,50.55 -35.51,33.7 -58.33,84.25 -68.44,151.65l-136.87 -24.89c16.85,-91.77 54.69,-163.05 114.06,-213.6 59.1,-50.55 132.98,-75.69 221.12,-75.69 60.66,0 116.65,12.96 167.72,39.14 51.33,25.92 90.47,61.44 117.43,106.28 27.22,45.1 40.7,92.8 40.7,143.35 0,47.96 -12.96,91.51 -38.62,130.91 -25.92,39.4 -64.29,70.77 -114.84,94.1 65.84,15.03 116.91,46.66 153.46,94.62 36.29,47.7 54.44,107.84 54.44,179.64 0,97.21 -35.51,179.9 -106.28,247.56 -71.03,67.66 -160.72,101.36 -269.07,101.36 -97.73,0 -178.86,-29.29 -243.41,-87.62 -64.81,-58.33 -101.62,-133.76 -110.69,-226.56z"/>
 </g>
</svg>
