<?xml version="1.0" encoding="UTF-8"?>
<!DOCTYPE svg PUBLIC "-//W3C//DTD SVG 1.1//EN" "http://www.w3.org/Graphics/SVG/1.1/DTD/svg11.dtd">
<!-- Creator: CorelDRAW 2019 (64-Bit) -->
<svg xmlns="http://www.w3.org/2000/svg" xml:space="preserve" width="206.731mm" height="196.126mm" version="1.1" style="shape-rendering:geometricPrecision; text-rendering:geometricPrecision; image-rendering:optimizeQuality; fill-rule:evenodd; clip-rule:evenodd"
viewBox="0 0 2845.17 2699.22"
 xmlns:xlink="http://www.w3.org/1999/xlink">
 <defs>
  <style type="text/css">
   <![CDATA[
    .fil0 {fill:#8A8A8B}
    .fil1 {fill:#FB5B53}
    .fil2 {fill:#FEFEFE;fill-rule:nonzero}
   ]]>
  </style>
 </defs>
 <g id="图层_x0020_1">
  <metadata id="CorelCorpID_0Corel-Layer"/>
  <polygon class="fil0" points="1333.74,292.39 1511.42,292.39 1511.42,0 1333.74,0 "/>
  <polygon class="fil0" points="1043.76,353.22 1215.38,307.24 1139.71,24.82 968.09,70.8 "/>
  <polygon class="fil0" points="780.01,488.43 933.88,399.59 787.69,146.38 633.81,235.22 "/>
  <polygon class="fil0" points="560.69,685.46 686.33,559.82 479.58,353.07 353.94,478.71 "/>
  <polygon class="fil0" points="400.38,933.79 489.22,779.91 236.01,633.72 147.17,787.59 "/>
  <polygon class="fil0" points="308.79,1215.73 354.77,1044.11 72.36,968.44 26.37,1140.06 "/>
  <polygon class="fil0" points="-0,1511.42 292.39,1511.42 292.39,1333.74 -0,1333.74 "/>
  <polygon class="fil0" points="70.79,1876.99 353.21,1801.32 307.22,1629.7 24.8,1705.37 "/>
  <polygon class="fil0" points="235.23,2211.27 488.44,2065.08 399.6,1911.21 146.39,2057.4 "/>
  <polygon class="fil0" points="478.65,2491.23 685.39,2284.48 559.75,2158.84 353.01,2365.59 "/>
  <polygon class="fil0" points="2365.54,2492.21 2491.18,2366.57 2284.43,2159.82 2158.79,2285.46 "/>
  <polygon class="fil0" points="2057.39,2698.74 2211.27,2609.9 2065.07,2356.69 1911.2,2445.54 "/>
  <polygon class="fil1" points="789.45,2699.22 935.64,2446.01 781.77,2357.17 635.58,2610.38 "/>
  <polygon class="fil0" points="2610.19,2209.51 2699.03,2055.64 2445.82,1909.45 2356.98,2063.32 "/>
  <polygon class="fil0" points="2772.69,1876.77 2818.68,1705.15 2536.26,1629.48 2490.27,1801.1 "/>
  <polygon class="fil0" points="2552.78,1511.42 2845.17,1511.42 2845.17,1333.74 2552.78,1333.74 "/>
  <polygon class="fil0" points="2537.84,1215.39 2820.26,1139.72 2774.28,968.1 2491.86,1043.77 "/>
  <polygon class="fil0" points="2445.48,933.83 2698.69,787.64 2609.85,633.76 2356.64,779.96 "/>
  <polygon class="fil0" points="2285.39,686.43 2492.14,479.68 2366.5,354.04 2159.75,560.79 "/>
  <polygon class="fil0" points="2065.22,489.27 2211.41,236.07 2057.54,147.22 1911.35,400.43 "/>
  <polygon class="fil0" points="1801.02,354.86 1876.69,72.44 1705.07,26.45 1629.4,308.87 "/>
  <path class="fil0" d="M1423.71 339.62c598.27,0 1084.09,485.82 1084.09,1084.09 0,598.27 -485.82,1084.09 -1084.09,1084.09 -598.27,0 -1084.09,-488.07 -1084.09,-1084.09 0,-596.02 485.82,-1084.09 1084.09,-1084.09z"/>
  <path class="fil2" d="M1481.82 1788.07l0 -173.31 -315.2 0 0 -82.09 331.42 -470.27 72.97 0 0 470.27 98.31 0 0 82.09 -98.31 0 0 173.31 -89.19 0zm0 -255.41l0 -326.52 -227.53 326.52 227.53 0z"/>
 </g>
</svg>
