<?xml version="1.0" encoding="UTF-8"?>
<!DOCTYPE svg PUBLIC "-//W3C//DTD SVG 1.1//EN" "http://www.w3.org/Graphics/SVG/1.1/DTD/svg11.dtd">
<!-- Creator: CorelDRAW 2019 (64-Bit) -->
<svg xmlns="http://www.w3.org/2000/svg" xml:space="preserve" width="206.731mm" height="196.126mm" version="1.1" style="shape-rendering:geometricPrecision; text-rendering:geometricPrecision; image-rendering:optimizeQuality; fill-rule:evenodd; clip-rule:evenodd"
viewBox="0 0 4366.19 4142.23"
 xmlns:xlink="http://www.w3.org/1999/xlink">
 <defs>
  <style type="text/css">
   <![CDATA[
    .fil0 {fill:#8A8A8B}
    .fil1 {fill:#FB5B53}
    .fil2 {fill:#FEFEFE;fill-rule:nonzero}
   ]]>
  </style>
 </defs>
 <g id="图层_x0020_1">
  <metadata id="CorelCorpID_0Corel-Layer"/>
  <polygon class="fil0" points="2046.76,448.7 2319.43,448.7 2319.43,0 2046.76,0 "/>
  <polygon class="fil0" points="1601.75,542.05 1865.13,471.49 1749,38.09 1485.63,108.65 "/>
  <polygon class="fil0" points="1197,749.54 1433.13,613.21 1208.78,224.63 972.65,360.97 "/>
  <polygon class="fil0" points="860.44,1051.91 1053.24,859.1 735.97,541.82 543.16,734.63 "/>
  <polygon class="fil0" points="614.42,1432.99 750.75,1196.86 362.18,972.5 225.84,1208.64 "/>
  <polygon class="fil0" points="473.87,1865.67 544.44,1602.29 111.04,1486.17 40.47,1749.54 "/>
  <polygon class="fil0" points="-0,2319.43 448.7,2319.43 448.7,2046.76 -0,2046.76 "/>
  <polygon class="fil0" points="108.63,2880.43 542.03,2764.3 471.46,2500.93 38.06,2617.05 "/>
  <polygon class="fil0" points="360.98,3393.42 749.56,3169.07 613.22,2932.94 224.65,3157.29 "/>
  <polygon class="fil0" points="734.53,3823.05 1051.81,3505.77 859,3312.96 541.72,3630.24 "/>
  <polygon class="fil0" points="3630.16,3824.55 3822.96,3631.74 3505.69,3314.46 3312.88,3507.27 "/>
  <polygon class="fil0" points="3157.28,4141.49 3393.41,4005.16 3169.06,3616.58 2932.93,3752.92 "/>
  <polygon class="fil1" points="1211.49,4142.23 1435.84,3753.65 1199.71,3617.32 975.36,4005.89 "/>
  <polygon class="fil0" points="4005.59,3390.72 4141.93,3154.59 3753.35,2930.24 3617.02,3166.37 "/>
  <polygon class="fil0" points="4254.97,2880.1 4325.54,2616.73 3892.14,2500.6 3821.57,2763.98 "/>
  <polygon class="fil0" points="3917.49,2319.43 4366.19,2319.43 4366.19,2046.76 3917.49,2046.76 "/>
  <polygon class="fil0" points="3894.58,1865.14 4327.98,1749.02 4257.41,1485.65 3824.01,1601.77 "/>
  <polygon class="fil0" points="3752.84,1433.06 4141.41,1208.71 4005.08,972.57 3616.5,1196.93 "/>
  <polygon class="fil0" points="3507.16,1053.39 3824.44,736.12 3631.63,543.31 3314.36,860.59 "/>
  <polygon class="fil0" points="3169.29,750.84 3393.64,362.27 3157.5,225.93 2933.15,614.5 "/>
  <polygon class="fil0" points="2763.85,544.56 2879.97,111.16 2616.6,40.6 2500.48,473.99 "/>
  <path class="fil0" d="M2184.82 521.18c918.11,0 1663.64,745.53 1663.64,1663.64 0,918.11 -745.53,1663.64 -1663.64,1663.64 -918.11,0 -1663.64,-748.99 -1663.64,-1663.64 0,-914.66 745.53,-1663.64 1663.64,-1663.64z"/>
  <path class="fil2" d="M2547.74 1902.53l-135.31 10.89c-12.18,-53.66 -29.55,-92.8 -52.11,-117.17 -37.07,-39.14 -82.95,-58.58 -137.39,-58.58 -43.81,0 -82.69,12.18 -116.13,36.55 -43.03,31.37 -76.73,76.99 -101.87,137.13 -24.89,60.4 -37.85,146.2 -38.88,257.41 32.92,-50.03 73.36,-87.36 121.06,-111.47 47.7,-24.37 97.47,-36.55 149.83,-36.55 91.25,0 169.01,33.7 233.3,100.84 64.03,67.14 96.17,153.72 96.17,260.26 0,69.99 -15.04,134.8 -45.11,194.94 -30.33,60.14 -71.54,106.02 -124.43,137.91 -52.62,31.88 -112.5,47.96 -179.38,47.96 -113.8,0 -206.86,-41.99 -278.92,-125.72 -71.8,-83.73 -107.84,-221.89 -107.84,-414.24 0,-215.16 39.92,-371.73 119.5,-469.45 69.47,-85.03 163.05,-127.54 281,-127.54 87.62,0 159.68,24.63 215.68,73.62 55.99,48.99 89.69,116.65 100.84,203.23zm-559.92 480.6c0,47.18 10.11,92.28 30.07,135.31 19.96,43.03 47.96,75.69 83.47,98.24 35.77,22.55 73.62,33.96 113.8,33.96 58.32,0 108.1,-23.33 149.31,-69.99 41.22,-46.66 61.96,-109.91 61.96,-190.01 0,-76.99 -20.48,-137.65 -61.18,-181.98 -40.7,-44.33 -92.54,-66.62 -155.54,-66.62 -61.69,0 -114.32,22.29 -157.35,66.62 -43.03,44.33 -64.55,102.39 -64.55,174.46z"/>
 </g>
</svg>
