<?xml version="1.0" encoding="UTF-8"?>
<!DOCTYPE svg PUBLIC "-//W3C//DTD SVG 1.1//EN" "http://www.w3.org/Graphics/SVG/1.1/DTD/svg11.dtd">
<!-- Creator: CorelDRAW 2019 (64-Bit) -->
<svg xmlns="http://www.w3.org/2000/svg" xml:space="preserve" width="206.731mm" height="196.126mm" version="1.1" style="shape-rendering:geometricPrecision; text-rendering:geometricPrecision; image-rendering:optimizeQuality; fill-rule:evenodd; clip-rule:evenodd"
viewBox="0 0 11315.31 10734.88"
 xmlns:xlink="http://www.w3.org/1999/xlink">
 <defs>
  <style type="text/css">
   <![CDATA[
    .fil0 {fill:#8A8A8B}
    .fil1 {fill:#FB5B53}
    .fil2 {fill:#FEFEFE;fill-rule:nonzero}
   ]]>
  </style>
 </defs>
 <g id="图层_x0020_1">
  <metadata id="CorelCorpID_0Corel-Layer"/>
  <polygon class="fil0" points="5304.33,1162.84 6010.98,1162.84 6010.98,0 5304.33,0 "/>
  <polygon class="fil0" points="4151.06,1404.77 4833.61,1221.89 4532.67,98.71 3850.12,281.59 "/>
  <polygon class="fil0" points="3102.11,1942.5 3714.06,1589.17 3132.65,582.16 2520.69,935.48 "/>
  <polygon class="fil0" points="2229.89,2726.09 2729.56,2226.42 1907.32,1404.18 1407.65,1903.85 "/>
  <polygon class="fil0" points="1592.31,3713.7 1945.64,3101.74 938.62,2520.32 585.29,3132.27 "/>
  <polygon class="fil0" points="1228.07,4835.01 1410.95,4152.45 287.76,3851.51 104.88,4534.06 "/>
  <polygon class="fil0" points="-0,6010.98 1162.84,6010.98 1162.84,5304.33 -0,5304.33 "/>
  <polygon class="fil0" points="281.53,7464.84 1404.72,7163.9 1221.83,6481.35 98.65,6782.29 "/>
  <polygon class="fil0" points="935.52,8794.3 1942.54,8212.88 1589.21,7600.93 582.19,8182.34 "/>
  <polygon class="fil0" points="1903.59,9907.71 2725.83,9085.46 2226.16,8585.79 1403.92,9408.03 "/>
  <polygon class="fil0" points="9407.82,9911.59 9907.49,9411.92 9085.25,8589.68 8585.57,9089.35 "/>
  <polygon class="fil0" points="8182.31,10732.99 8794.27,10379.66 8212.85,9372.64 7600.89,9725.97 "/>
  <polygon class="fil1" points="3139.67,10734.88 3721.09,9727.86 3109.13,9374.54 2527.71,10381.56 "/>
  <polygon class="fil0" points="10380.79,8787.31 10734.11,8175.35 9727.09,7593.93 9373.77,8205.88 "/>
  <polygon class="fil0" points="11027.07,7463.99 11209.95,6781.44 10086.77,6480.49 9903.89,7163.04 "/>
  <polygon class="fil0" points="10152.47,6010.98 11315.31,6010.98 11315.31,5304.33 10152.47,5304.33 "/>
  <polygon class="fil0" points="10093.08,4833.66 11216.27,4532.71 11033.38,3850.16 9910.2,4151.1 "/>
  <polygon class="fil0" points="9725.76,3713.87 10732.77,3132.46 10379.45,2520.5 9372.43,3101.92 "/>
  <polygon class="fil0" points="9089.07,2729.95 9911.31,1907.71 9411.64,1408.03 8589.4,2230.28 "/>
  <polygon class="fil0" points="8213.44,1945.86 8794.86,938.84 8182.9,585.52 7601.48,1592.53 "/>
  <polygon class="fil0" points="7162.72,1411.27 7463.66,288.08 6781.11,105.21 6480.17,1228.39 "/>
  <path class="fil0" d="M5662.13 1350.68c2379.35,0 4311.45,1932.11 4311.45,4311.44 0,2379.35 -1932.11,4311.45 -4311.45,4311.45 -2379.34,0 -4311.45,-1941.05 -4311.45,-4311.45 0,-2370.4 1932.11,-4311.44 4311.45,-4311.44z"/>
  <path class="fil2" d="M4780.73 4600.02l0 -338.59 1866.25 0 0 274.09c-183.4,195.5 -366.13,455.48 -546.17,779.96 -180.72,324.48 -319.78,658.36 -418.53,1001.65 -70.54,241.18 -116.22,506.53 -135.7,794.07l-362.77 0c4.03,-227.07 48.37,-501.83 133.69,-823.62 85.32,-322.46 206.91,-632.83 366.13,-931.78 159.22,-298.95 328.51,-550.87 507.88,-755.77l-1410.77 0z"/>
 </g>
</svg>
