<?xml version="1.0" encoding="UTF-8"?>
<!DOCTYPE svg PUBLIC "-//W3C//DTD SVG 1.1//EN" "http://www.w3.org/Graphics/SVG/1.1/DTD/svg11.dtd">
<!-- Creator: CorelDRAW 2019 (64-Bit) -->
<svg xmlns="http://www.w3.org/2000/svg" xml:space="preserve" width="206.731mm" height="196.126mm" version="1.1" style="shape-rendering:geometricPrecision; text-rendering:geometricPrecision; image-rendering:optimizeQuality; fill-rule:evenodd; clip-rule:evenodd"
viewBox="0 0 11315.31 10734.88"
 xmlns:xlink="http://www.w3.org/1999/xlink">
 <defs>
  <style type="text/css">
   <![CDATA[
    .fil0 {fill:#8A8A8B}
    .fil1 {fill:#FB5B53}
    .fil2 {fill:#FEFEFE;fill-rule:nonzero}
   ]]>
  </style>
 </defs>
 <g id="图层_x0020_1">
  <metadata id="CorelCorpID_0Corel-Layer"/>
  <polygon class="fil0" points="5304.33,1162.84 6010.98,1162.84 6010.98,0 5304.33,0 "/>
  <polygon class="fil0" points="4151.06,1404.77 4833.61,1221.89 4532.67,98.71 3850.12,281.59 "/>
  <polygon class="fil0" points="3102.11,1942.5 3714.06,1589.17 3132.65,582.16 2520.69,935.48 "/>
  <polygon class="fil0" points="2229.89,2726.09 2729.56,2226.42 1907.32,1404.18 1407.65,1903.85 "/>
  <polygon class="fil0" points="1592.31,3713.7 1945.64,3101.74 938.62,2520.32 585.29,3132.27 "/>
  <polygon class="fil0" points="1228.07,4835.01 1410.95,4152.45 287.76,3851.51 104.88,4534.06 "/>
  <polygon class="fil0" points="-0,6010.98 1162.84,6010.98 1162.84,5304.33 -0,5304.33 "/>
  <polygon class="fil0" points="281.53,7464.84 1404.72,7163.9 1221.83,6481.35 98.65,6782.29 "/>
  <polygon class="fil0" points="935.52,8794.3 1942.54,8212.88 1589.21,7600.93 582.19,8182.34 "/>
  <polygon class="fil0" points="1903.59,9907.71 2725.83,9085.46 2226.16,8585.79 1403.92,9408.03 "/>
  <polygon class="fil0" points="9407.82,9911.59 9907.49,9411.92 9085.25,8589.68 8585.57,9089.35 "/>
  <polygon class="fil0" points="8182.31,10732.99 8794.27,10379.66 8212.85,9372.64 7600.89,9725.97 "/>
  <polygon class="fil1" points="3139.67,10734.88 3721.09,9727.86 3109.13,9374.54 2527.71,10381.56 "/>
  <polygon class="fil0" points="10380.79,8787.31 10734.11,8175.35 9727.09,7593.93 9373.77,8205.88 "/>
  <polygon class="fil0" points="11027.07,7463.99 11209.95,6781.44 10086.77,6480.49 9903.89,7163.04 "/>
  <polygon class="fil0" points="10152.47,6010.98 11315.31,6010.98 11315.31,5304.33 10152.47,5304.33 "/>
  <polygon class="fil0" points="10093.08,4833.66 11216.27,4532.71 11033.38,3850.16 9910.2,4151.1 "/>
  <polygon class="fil0" points="9725.76,3713.87 10732.77,3132.46 10379.45,2520.5 9372.43,3101.92 "/>
  <polygon class="fil0" points="9089.07,2729.95 9911.31,1907.71 9411.64,1408.03 8589.4,2230.28 "/>
  <polygon class="fil0" points="8213.44,1945.86 8794.86,938.84 8182.9,585.52 7601.48,1592.53 "/>
  <polygon class="fil0" points="7162.72,1411.27 7463.66,288.08 6781.11,105.21 6480.17,1228.39 "/>
  <path class="fil0" d="M5662.13 1350.68c2379.35,0 4311.45,1932.11 4311.45,4311.44 0,2379.35 -1932.11,4311.45 -4311.45,4311.45 -2379.34,0 -4311.45,-1941.05 -4311.45,-4311.45 0,-2370.4 1932.11,-4311.44 4311.45,-4311.44z"/>
  <path class="fil2" d="M5306.75 5546.58c-147.12,-53.74 -255.95,-131 -327.16,-230.43 -70.54,-100.1 -106.14,-219.68 -106.14,-358.74 0,-210.27 75.24,-386.28 225.72,-529.38 151.15,-143.09 351.35,-214.98 601.93,-214.98 251.25,0 454.14,73.22 607.31,219.68 153.17,146.45 229.75,324.48 229.75,534.75 0,133.69 -34.94,250.58 -104.8,349.34 -69.87,99.43 -176.01,176.01 -319.1,229.75 176.68,57.77 310.37,150.48 402.4,279.46 92.04,128.31 138.39,281.48 138.39,460.19 0,246.55 -87.33,453.46 -261.33,621.41 -174.66,167.95 -403.75,251.92 -687.92,251.92 -284.17,0 -513.25,-83.97 -687.92,-252.59 -174,-168.62 -261.33,-378.89 -261.33,-630.82 0,-187.43 47.7,-344.63 143.09,-470.92 95.4,-126.97 231.1,-212.96 407.11,-258.64zm-70.54 -601.93c0,137.05 43.67,248.57 130.33,335.23 87.33,86.66 201.54,130.33 343.29,130.33 137.72,0 249.23,-42.99 335.89,-128.99 86.66,-85.99 129.66,-191.46 129.66,-316.41 0,-130.33 -44.34,-239.83 -133.69,-328.51 -88.68,-88.68 -200.87,-133.02 -335.9,-133.02 -136.37,0 -248.57,43.67 -337.24,130.33 -88,86.66 -132.34,190.11 -132.34,311.04zm-116.89 1334.19c0,101.44 23.51,198.86 70.54,293.58 47.03,94.05 118.24,167.27 213.63,219 94.72,51.73 196.84,77.93 305,77.93 170.63,0 310.37,-54.42 419.87,-163.25 109.5,-108.83 163.92,-247.22 163.92,-415.17 0,-170.64 -56.43,-311.71 -168.62,-423.23 -112.86,-111.52 -255.28,-167.27 -426.59,-167.27 -167.95,0 -305.67,55.08 -414.5,165.26 -108.83,110.18 -163.25,247.89 -163.25,413.15z"/>
 </g>
</svg>
