<?xml version="1.0" encoding="UTF-8"?>
<!DOCTYPE svg PUBLIC "-//W3C//DTD SVG 1.1//EN" "http://www.w3.org/Graphics/SVG/1.1/DTD/svg11.dtd">
<!-- Creator: CorelDRAW 2019 (64-Bit) -->
<svg xmlns="http://www.w3.org/2000/svg" xml:space="preserve" width="206.731mm" height="196.126mm" version="1.1" style="shape-rendering:geometricPrecision; text-rendering:geometricPrecision; image-rendering:optimizeQuality; fill-rule:evenodd; clip-rule:evenodd"
viewBox="0 0 4366.19 4142.23"
 xmlns:xlink="http://www.w3.org/1999/xlink">
 <defs>
  <style type="text/css">
   <![CDATA[
    .fil0 {fill:#8A8A8B}
    .fil1 {fill:#FB5B53}
    .fil2 {fill:#FEFEFE;fill-rule:nonzero}
   ]]>
  </style>
 </defs>
 <g id="图层_x0020_1">
  <metadata id="CorelCorpID_0Corel-Layer"/>
  <polygon class="fil0" points="2046.76,448.7 2319.43,448.7 2319.43,0 2046.76,0 "/>
  <polygon class="fil0" points="1601.75,542.05 1865.13,471.49 1749,38.09 1485.63,108.65 "/>
  <polygon class="fil0" points="1197,749.54 1433.13,613.21 1208.78,224.63 972.65,360.97 "/>
  <polygon class="fil0" points="860.44,1051.91 1053.24,859.1 735.97,541.82 543.16,734.63 "/>
  <polygon class="fil0" points="614.42,1432.99 750.75,1196.86 362.18,972.5 225.84,1208.64 "/>
  <polygon class="fil0" points="473.87,1865.67 544.44,1602.29 111.04,1486.17 40.47,1749.54 "/>
  <polygon class="fil0" points="-0,2319.43 448.7,2319.43 448.7,2046.76 -0,2046.76 "/>
  <polygon class="fil0" points="108.63,2880.43 542.03,2764.3 471.46,2500.93 38.06,2617.05 "/>
  <polygon class="fil0" points="360.98,3393.42 749.56,3169.07 613.22,2932.94 224.65,3157.29 "/>
  <polygon class="fil0" points="734.53,3823.05 1051.81,3505.77 859,3312.96 541.72,3630.24 "/>
  <polygon class="fil0" points="3630.16,3824.55 3822.96,3631.74 3505.69,3314.46 3312.88,3507.27 "/>
  <polygon class="fil0" points="3157.28,4141.49 3393.41,4005.16 3169.06,3616.58 2932.93,3752.92 "/>
  <polygon class="fil1" points="1211.49,4142.23 1435.84,3753.65 1199.71,3617.32 975.36,4005.89 "/>
  <polygon class="fil0" points="4005.59,3390.72 4141.93,3154.59 3753.35,2930.24 3617.02,3166.37 "/>
  <polygon class="fil0" points="4254.97,2880.1 4325.54,2616.73 3892.14,2500.6 3821.57,2763.98 "/>
  <polygon class="fil0" points="3917.49,2319.43 4366.19,2319.43 4366.19,2046.76 3917.49,2046.76 "/>
  <polygon class="fil0" points="3894.58,1865.14 4327.98,1749.02 4257.41,1485.65 3824.01,1601.77 "/>
  <polygon class="fil0" points="3752.84,1433.06 4141.41,1208.71 4005.08,972.57 3616.5,1196.93 "/>
  <polygon class="fil0" points="3507.16,1053.39 3824.44,736.12 3631.63,543.31 3314.36,860.59 "/>
  <polygon class="fil0" points="3169.29,750.84 3393.64,362.27 3157.5,225.93 2933.15,614.5 "/>
  <polygon class="fil0" points="2763.85,544.56 2879.97,111.16 2616.6,40.6 2500.48,473.99 "/>
  <path class="fil0" d="M2184.82 521.18c918.11,0 1663.64,745.53 1663.64,1663.64 0,918.11 -745.53,1663.64 -1663.64,1663.64 -918.11,0 -1663.64,-748.99 -1663.64,-1663.64 0,-914.66 745.53,-1663.64 1663.64,-1663.64z"/>
  <path class="fil2" d="M1857.16 2485.78l130.65 -10.89c11.15,61.69 32.4,106.28 63.77,134.02 31.37,27.74 71.55,41.74 120.8,41.74 41.99,0 78.8,-9.59 110.69,-29.03 31.88,-19.18 57.81,-44.85 77.77,-77.25 19.96,-32.14 36.81,-75.69 50.55,-130.39 13.74,-54.69 20.48,-110.43 20.48,-167.2 0,-5.96 -0.26,-15.3 -0.78,-27.48 -27.22,43.55 -64.55,79.06 -111.73,106.02 -47.18,27.22 -98.5,40.7 -153.46,40.7 -92.02,0 -169.79,-33.44 -233.56,-100.32 -63.51,-66.62 -95.39,-154.76 -95.39,-264.15 0,-113.02 33.18,-203.75 99.8,-272.7 66.36,-68.7 149.57,-103.17 249.89,-103.17 72.06,0 138.17,19.44 198.31,58.59 59.88,38.88 105.24,94.36 136.35,166.68 31.11,72.06 46.66,176.53 46.66,313.14 0,142.31 -15.29,255.59 -46.14,339.84 -30.85,84.51 -76.99,148.54 -137.91,192.6 -60.92,44.07 -132.2,66.1 -214.12,66.1 -87.1,0 -158.13,-24.11 -213.34,-72.58 -54.96,-48.48 -88.14,-116.65 -99.28,-204.27zm558.37 -491.23c0,-78.28 -20.74,-140.5 -62.21,-186.38 -41.22,-45.88 -91.51,-68.95 -150.61,-68.95 -61.18,0 -114.06,24.63 -158.64,74.14 -44.85,49.51 -67.14,113.8 -67.14,192.6 0,70.77 21.26,128.32 63.51,172.38 42.51,44.33 95.39,66.36 158.38,66.36 63.25,0 115.1,-22.03 155.79,-66.36 40.7,-44.07 60.92,-105.5 60.92,-183.79z"/>
 </g>
</svg>
